<svg xmlns="http://www.w3.org/2000/svg" xmlns:xlink="http://www.w3.org/1999/xlink" width="1920" height="264" viewBox="0 0 1920 264">
  <defs>
    <clipPath id="clip-Web_1920_1">
      <rect width="1920" height="264"/>
    </clipPath>
  </defs>
  <g id="Web_1920_1" data-name="Web 1920 – 1" clip-path="url(#clip-Web_1920_1)">
    <rect width="1920" height="264" fill="#fff"/>
    <g id="Group_3" data-name="Group 3" transform="matrix(0.995, 0.105, -0.105, 0.995, -376.759, 383.413)" opacity="0.61">
      <g id="gentle-within-16" transform="matrix(0.326, 0.946, -0.946, 0.326, 937.01, -837.387)">
        <rect id="Rectangle_2" data-name="Rectangle 2" width="773.467" height="773.467" fill="none"/>
        <g id="Group_2" data-name="Group 2" transform="translate(257.82 39.343)">
          <g id="Group_1" data-name="Group 1" transform="translate(0 0)">
            <path id="Path_1" data-name="Path 1" d="M257.75,289.834a2.587,2.587,0,0,0-1.359-1.573,2.282,2.282,0,0,0-1.08-.2c-2.87.1-5.8-.165-8.6.307-6.477,1.085-12.889,2.552-19.337,3.805a29.392,29.392,0,0,0-11.189,4.484c-2.676,1.833-5.453,3.527-8.036,5.481-3.295,2.493-6.93,4.708-9.331,8.137-2.906,4.156-7.062,6.907-10.679,10.261a10.917,10.917,0,0,1-1.962,1.052c.459-.864.6-1.183.789-1.475a65.728,65.728,0,0,0,6.443-11.829c1.758-4.525,3.872-8.913,5.739-13.4,1.312-3.153,2.55-6.342,3.687-9.56,1.078-3.053,1.794-6.242,3-9.238,2.122-5.254,4.445-10.432,6.783-15.593,1.7-3.764,3.563-7.456,5.36-11.177,2.619-5.427,5.226-10.859,7.869-16.274,1.459-2.988.144-5.538-1.727-7.6a1.83,1.83,0,0,0-2.857-.165c-2.467,2.225-5.012,4.393-7.265,6.825-3.733,4.022-7.24,8.255-10.88,12.363-7.24,8.163-14.142,16.583-19.692,26.017a34.566,34.566,0,0,0-2.815,6.1,170.46,170.46,0,0,0-7.33,32.081,25.791,25.791,0,0,1-.7,3.432c-1.158,4-1.671,5.546-2.836,9.271-1.841,5.891-1.7,7.541-3.818,12.971-.108.276-1.431,3.648-1.7,3.561-.346-.113,2.044-5.559,2.511-12.925.113-1.774-.041-.853-.588-12.1-.157-3.233-.276-6.469-.5-9.7q-.282-4.165-.763-8.317c-.534-4.556-1.06-9.114-1.756-13.647-.737-4.8-1.727-9.55-2.5-14.34-.709-4.393-1.189-7.941-1.606-11.723a68.336,68.336,0,0,1-.683-8.026c.227-4.223,2.362-7.866,6.621-14.98a141.028,141.028,0,0,1,10.578-15.263c1.725-2.184,3.844-4.084,5.389-6.381,4.28-6.371,7.505-13.335,10.635-20.311a65.651,65.651,0,0,1,8.018-14.01c2.95-3.751,5.945-7.469,8.792-11.3a39.1,39.1,0,0,1,12.327-10.72c3.04-1.72,2.145-1.127,16.186-8.642,0,0,4.52-2.418,13.616-10.287.928-.8,2.888-2.537,2.478-4.03-.317-1.16-1.926-1.666-2.9-1.962-3.1-.936-5.84-.09-7.789.157a28.615,28.615,0,0,0-11.87,4.231c-3.249,2.083-6.175,4.667-9.274,6.984a43.032,43.032,0,0,1-8.121,5.278,64.758,64.758,0,0,0-10.047,5.2,159.467,159.467,0,0,0-16.485,12.623A59.024,59.024,0,0,0,174.7,177.661a18.084,18.084,0,0,0-2,4.411c-1.253,4.587-3.083,8.975-3.906,13.729a52.609,52.609,0,0,1-3.762,11.522c-3.927,9.171-5.958,18.862-8.292,28.482-.155.634-.364,1.258-.683,2.346a9.542,9.542,0,0,1-.322-1.263q-.468-9.432-.908-18.87c-.088-1.928-.046-2.143-.083-5.394-.049-4.427-.075-6.642-.01-7.809.155-2.857.869-5.432,2.284-10.465a112.86,112.86,0,0,1,3.638-11.452c1.8-4.633,2.478-5.208,6.366-13.616,2.563-5.538,3.826-8.315,4.411-10.065,1.892-5.651,2.171-11.455,2.54-17.248.224-3.553-.4-7.157-.621-10.741-.039-.652-.072-2.421-.077-4.03-.028-7.982,1.106-10.8,1.312-17.736.126-4.267.322-10.857-1.516-11.336-1.6-.415-4.012,3.958-4.752,5.3-3.009,5.453-3.445,10.272-4.143,15.454-.668,4.953-.915,9.926-2.707,15.384-3.787,11.535-6.108,13.216-7.766,23.609-1.052,6.6-.663,11.718-.939,11.718-.384,0-.647-9.877-.745-13.6-.134-5.061-.028-7.111-.173-10.54-.281-6.745-.8-13.482-.959-20.229-.157-6.871,1.323-13.595,2.488-20.322a71.4,71.4,0,0,1,2.645-9.877c1.395-4.275,3.1-8.446,4.538-12.705,2.24-6.639,4.313-13.337,6.564-19.974,2.457-7.242,5.046-14.472,6.358-22.01,2.052-11.777,1.075-12.038,2.785-26.829.518-4.476-.65-7.1-.98-10.836-.054-.6-.178-2.008-1.1-2.5s-2.112.188-2.529.374a6.123,6.123,0,0,0-2.98,3.447c-2.488,5.878-4.525,11.932-7.49,17.635-3.277,6.3-6.5,12.633-9.163,19.264-2.846,7.1-5.974,14.049-7.358,21.644A157.788,157.788,0,0,0,141.983,87.2a139.183,139.183,0,0,0,.681,16.918c.338,3.187.717,5.4.812,5.958.822,4.744,1.709,6.257,2.011,8.977.492,4.447-.2,4.811-.232,12.535-.018,4.079.16,7.554.472,13.662.126,2.491.178,3.736.312,5.383.315,3.854.794,7.7,1,11.561.4,7.534.039,10.272.24,14.407.062,1.292.235,2.8.567,5.827.7,6.381,1.219,9.545.972,9.594-.2.039-.624-1.988-2.2-6.19-.2-.539-.547-1.5-1.016-2.576-.853-1.952-1.66-3.316-2.929-6.012a83.253,83.253,0,0,1-4.643-12.535c-1.534-5.587-.477-4.708-2.426-13.314-1.253-5.53-2.72-9.864-3.532-12.724-.343-1.207-.9-2.354-1.235-3.561a103.343,103.343,0,0,0-5.592-15.175,77.6,77.6,0,0,1-4.393-11.017c-1.493-5.363-2.5-10.865-3.55-16.341-.779-4.071-1.33-8.194-3.04-12.007-1.1-2.46-2.228-5.048-4.955-6.159-4.249-1.727-6.36-1.067-6.433,3.991a50.124,50.124,0,0,0,1.222,13.144c.222.869.284,1.776.469,2.656.482,2.279.861,4.592,1.521,6.819,1.336,4.507,2.527,9.029,2.331,13.778-.07,1.686.072,2.5.1,3.5.132,5.293,1.642,11.293,6.68,21.549,3.811,7.755,3.824,6.386,9.227,16.467,2.717,5.069,5.4,10.176,7.693,15.444a76.376,76.376,0,0,0,8.3,14.505c5.853,8.034,8.248,17.081,9.055,26.741.271,3.228.585,6.451.807,9.681.276,4,.477,8.013.709,12.02-1.88-2.228-3.065-4.721-4.641-6.938-3.437-4.829-7.07-9.521-10.63-14.263-1.08-1.439-2.189-2.854-3.277-4.288-3.287-4.339-5.525-9.274-7.969-14.087q-2.931-5.774-5.713-11.623c-1.312-2.754-2.506-5.564-3.775-8.341-.449-.982-1.021-1.91-1.421-2.911-4.417-11.061-11.942-19.574-21.572-26.347-4.623-3.251-9.225-6.544-14.007-9.547a87.264,87.264,0,0,0-9.792-5.04A4.3,4.3,0,0,0,62.72,132.7c-.851,1.274-.492,3.032.951,4.932.926,1.217,1.831,2.452,2.684,3.72A73.31,73.31,0,0,0,79.139,155.54c3.1,2.717,5.912,5.773,8.743,8.781a43.505,43.505,0,0,1,6.373,9.643c3.9,7.309,7.987,14.513,11.953,21.786,1.983,3.635,3.9,7.32,6.732,10.383,6.788,7.335,13.355,14.889,20.873,21.515a62.932,62.932,0,0,1,5.419,4.87c6.99,7.784,11.275,16.983,13.742,27.084,1.238,5.069,2.645,10.107,3.635,15.224a133.988,133.988,0,0,1,2.295,15.75c1.016,14.062.518,16.96,1.947,35.059.294,3.731.871,10.377.737,10.39a69.876,69.876,0,0,0-2.016-11.878,47.21,47.21,0,0,0-7.748-15.938,31.092,31.092,0,0,0-5.425-5.556,38.445,38.445,0,0,1-8.593-8.838,31.544,31.544,0,0,1-2.558-4.994c-2.057-4.873-4-9.792-6.03-14.678-.859-2.07-1.913-4.061-2.72-6.149-1.555-4.027-3-8.1-4.489-12.154-.155-.423-.224-.977-.531-1.22a3.013,3.013,0,0,0-1.771-.791c-.389.023-.946.773-1.06,1.281-.464,2.1-.871,4.228-1.145,6.366-1.078,8.408-.183,16.725,1.436,24.968,1,5.084,3.411,9.676,5.77,14.232a60.3,60.3,0,0,0,5.912,9.98c1.047,1.312,2.127,2.6,3.228,3.87,5.04,5.814,9.163,10.186,9.645,10.692,5.992,6.317,9.166,9.178,8.962,9.413-.338.384-8.421-7.843-17.444-11.558-.866-.356-3.646-1.511-7.376-3.3-1.867-.895-3.713-1.851-5.481-2.921a66.624,66.624,0,0,1-8.129-5.267,77.4,77.4,0,0,1-10.888-10.434,47.581,47.581,0,0,0-5.5-5.551c-3.509-3.081-7.281-5.868-10.694-9.044a128.915,128.915,0,0,0-15.137-11.723,62.459,62.459,0,0,0-6.4-3.457c-2.385-1.256-4.759-2.534-7.175-3.726q-6.153-3.032-12.357-5.953a9.172,9.172,0,0,0-2.426-.451c-1.838-.291-2.761-.431-3.047-.2-1,.792.539,4.566,2.088,7.428,2.413,4.453,5.247,7.407,9.632,11.981,1.054,1.1,2.171,2.21,3.646,3.486a53.923,53.923,0,0,0,5.03,3.782c7.531,5.151,14.564,10.9,20.3,18.078,5.45,6.825,11.014,13.5,17.617,19.324a72.415,72.415,0,0,0,14.66,10.5,56.635,56.635,0,0,0,29,5.961c4.153-.193,8.263-.356,12.182,1.506a7.617,7.617,0,0,1,1.214.719h0a8.3,8.3,0,0,1,2.534,3.024c2.083,4.254,1.4,11.821,1.4,11.821-.92,10.217.366,2.441-1.315,20.556-.477,5.149-.717,7.724-.985,9.746-.675,5.077-1.475,9.129-2.333,14.987-1.137,7.755-.789,6.482-1.379,9.774-1.5,8.364-4.066,19.267-4.489,21.049-.361,1.526-.637,2.607-1.189,4.77-1.6,6.281-2.751,10.777-3.145,10.7-.459-.082.6-6.239.1-12.711-.028-.369-.1-1.116-.2-2.521-.162-2.21-.3-4.422-.467-6.631-.541-7.361-3.821-14.031-5.334-21.149-.56-2.638-1.5-5.2-2.034-7.835-1.036-5.115-1.813-10.287-2.9-15.389a25.883,25.883,0,0,0-2.15-5.461,2.373,2.373,0,0,0-3.006-1.23c-.534,2.292-1.3,4.687-1.622,7.142-1.039,7.846-2.021,15.7-2.821,23.578-.449,4.411.678,11.54,3.261,19.574a128.167,128.167,0,0,0,10.364,23.565,23.631,23.631,0,0,1,3.357,7.629c.866,3.981.389,7.644-.26,12.644-.278,2.143-.552,4.177-.928,4.179-.645,0-.477-5.909-2.862-14.074-.255-.877-.972-3.218-2.168-6.167a76.988,76.988,0,0,0-5.909-11.419c-5.169-8.766-4.8-8.214-8.9-18.1a36.305,36.305,0,0,0-9.526-13.551c-2.826-2.5-5.827-4.806-8.758-7.191a24.664,24.664,0,0,0-3.184-2.475c-5.628-3.2-11.226-6.479-16.985-9.431a81.949,81.949,0,0,1-17.465-12.54c-2.135-1.928-3.97-4.19-6.116-6.105a30.943,30.943,0,0,0-5.242-3.751c-1.761-1-2.919-.547-3.7,1.258-.7,1.617-1.642,3.293-1.774,5.084-.209,2.852,1.5,4.9,3.963,8.477,1.722,2.5,4.589,7.57,10.612,17.54.835,1.384,1.575,2.839,2.519,4.146,2.161,2.991,4.442,5.891,6.636,8.859A56.779,56.779,0,0,0,85.9,429.7c5.4,3.586,10.785,7.227,15.841,11.262,5.551,4.429,10.8,9.248,16.024,14.072,4.362,4.03,8.506,8.3,12.716,12.494,1.209,1.207,2.336,2.5,3.452,3.8a8.862,8.862,0,0,1,1.279,2.617c1.833,4.038,3.862,6.281,3.625,6.479-.34.281-3.414-5.154-9.065-6.368a14.377,14.377,0,0,0-4.893.018,26.913,26.913,0,0,0-11.556,4.107,17.448,17.448,0,0,1-8.093,2.674c-.895.07-1.792.129-2.689.165a17.553,17.553,0,0,0-7.271,1.787c-2.506,1.25-4.28,3.256-6.167,5.182a26.821,26.821,0,0,0-2.627,2.71,2.164,2.164,0,0,0-.211,1.967c.611,1.142,3.133.472,8.039.026,5.463-.5,6.943-.088,13.577-.969.539-.072.949-.131,1.122-.155,6.391-.92,12.053-1.733,17.921-3.921a30.38,30.38,0,0,1,7.913-1.338c2.243-.132,3.633,1.97,3.127,4.2-.4,1.753-.877,3.488-1.287,5.241-1.544,6.567-2.893,13.162-5.056,19.592-2.609,7.758-4.705,15.686-7.059,23.529-.418,1.395-1.013,2.738-1.526,4.1a39.221,39.221,0,0,1-2.98-7.492,29.309,29.309,0,0,0-6.278-11.538,80.881,80.881,0,0,0-17.725-14.871c-4.068-2.465-8.614-4.135-12.7-6.575a25.821,25.821,0,0,0-11.687-3.62c-1.872-.134-3.612-.062-4.667,2.042.624,1.877.982,4,1.988,5.744a19.678,19.678,0,0,0,7,6.979c2.375,1.441,4.625,3.094,6.871,4.736,4.135,3.027,8.219,6.123,12.337,9.173,3.826,2.833,7.74,5.554,11.481,8.5,2.364,1.859,3.878,4.471,5.35,7.085-3.646-1.745-7.588-1.753-11.329-2.62a26.429,26.429,0,0,0-10.916-.2c-5.453.993-11.094.5-16.524,2.155-4.3,1.31-7.495,1.583-12.28,2.782-11.661,2.924-17.491,4.388-22.307,6.592a71.98,71.98,0,0,0-15.709,9.934A52.686,52.686,0,0,0,12.6,572.658c-2.106,3.011-4.184,6.043-6.391,8.98a71.5,71.5,0,0,0-5.938,9.9A5.875,5.875,0,0,0,0,593.374a8.217,8.217,0,0,0,6.6-.9c2.06-1.263,4.316-2.207,6.482-3.3a39.033,39.033,0,0,0,4.79-2.473c5.865-4.079,8.315-6.415,14.451-10.39a56,56,0,0,1,11-5.479c6.474-2.441,9.07-2.1,14.858-3.674,7.118-1.936,8.333-.41,17.937-8.42,6.719-5.608,14.869-7.046,23.325-6.758a72.121,72.121,0,0,1,11.215,1.611c1.637.32,3.463.65,4.672,2.135a49.7,49.7,0,0,0-4.587,2.454c-2.006,1.349-3.723,3.2-5.845,4.285a64.618,64.618,0,0,0-10.135,6.087c-.281.217-.655.3-.957.5-4.839,3.112-9.168,6.652-11.089,12.406a79.112,79.112,0,0,1-3.53,9.328c-2.2,4.563-2.831,9.439-3.447,14.338-.247,1.975,1.073,2.823,2.911,1.957a4.759,4.759,0,0,0,1.317-.928c3.55-3.566,7.209-7.033,10.576-10.767a47.332,47.332,0,0,0,9.122-14.263,16.043,16.043,0,0,1,4.612-6.252c2.243-1.928,4.713-3.594,7.1-5.35a13.267,13.267,0,0,1,1.557-.828,4.787,4.787,0,0,1-.013,1.268q-2.289,6.35-4.625,12.687c-1.735,4.726-3.589,9.413-5.187,14.188-1.055,3.151-1.56,6.487-2.63,9.632-3.682,10.818-7.737,21.505-10.8,32.535-1.513,5.456-3.347,10.836-5.309,16.147-2.931,7.936-6.146,15.766-9.155,23.673-1.018,2.679-1.787,5.456-2.645,8.2-.513,1.637-.949,2.687-1.5,4.9-.505,2.037-.521,2.684-.255,2.833.415.232,1.4-.812,2.086-1.529,5.86-6.116,7.283-6.34,9.743-10.442a15.861,15.861,0,0,0,1.369-2.547c1.328-3.537,2.591-7.1,3.872-10.656,1.008-2.795,2.192-5.541,2.983-8.395,1.874-6.755,3.251-13.654,5.724-20.234,1.232-3.28,2.754-6.451,3.97-9.735,3.537-9.545,6.25-19.344,8.885-29.167,2.052-7.65,4.022-15.322,7.183-22.634,1.565-3.622,2.774-7.4,4.159-11.1.487-1.3,1.013-2.6,1.521-3.893.222-.01.441-.021.663-.028,2.155,4.192,4.687,8.186,5.814,12.9a63.5,63.5,0,0,0,2.22,7.2c2.382,6.448,6.4,11.878,11,16.864,3.171,3.432,6.456,6.773,10.885,8.707a34.574,34.574,0,0,1,4.618,2.73c1.134.725,2.186,1.583,3.308,2.328,5.61,3.728,11.85,6.546,16.624,11.491a13.111,13.111,0,0,0,1.534,1.1q3.1,2.386,6.177,4.79c2.052,1.609,4.068,3.261,6.139,4.847,1.428,1.1,2.877,2.176,4.393,3.143,2.189,1.4,4.435,2.7,6.68,4.009.874.508,1.758.848,2.723,0a2.618,2.618,0,0,0,.74-3.161c-1.238-3.568-2.341-7.186-3.723-10.7a45.023,45.023,0,0,0-3.542-7.229,130.434,130.434,0,0,1-9.826-19.21c-3.439-8.4-9.565-14.482-16.1-20.285a82.145,82.145,0,0,0-8.421-6.286c-4.231-2.88-8.423-5.876-12.9-8.32-4.179-2.279-8.5-4.275-12.443-6.992-1.4-.964-3.2-1.346-5.254-2.166a15.571,15.571,0,0,1,2.991-1.459c4.2-.967,8.457-1.722,12.649-2.723,4.7-1.122,9.47-1.694,14.062-3.594a48.477,48.477,0,0,0,18.671-13.719c3.5-4.11,7.142-8.1,10.591-12.249,3.367-4.048,6.987-7.719,11.8-10.091,3.62-1.784,6.856-4.344,10.826-5.425,4.427-1.2,8.879-2.318,13.3-3.563,2.939-.828,6.036-1.431,8.7-2.826,4.28-2.243,8.245-5.082,12.373-7.619,1.036-.637,1.678-1.372,1.377-2.625a2.217,2.217,0,0,0-2.663-1.753,68.8,68.8,0,0,0-7.4,1.258c-3.751.908-7.443,2.06-11.184,3.024a20.608,20.608,0,0,1-2.952.235c-4.917.516-9.921.624-14.724,1.666A113.485,113.485,0,0,0,187.7,506.63a47.915,47.915,0,0,0-13.837,9.74c-5.059,5.128-9.918,10.457-14.791,15.763a41.365,41.365,0,0,1-11.566,9.194c-1.921.982-3.8,2.05-5.654,3.153-4.012,2.39-7.993,4.832-12,7.234a12.1,12.1,0,0,1-1.575.642,4.981,4.981,0,0,1,.108-.964c2.369-6.5,4.852-12.958,7.09-19.5,1.482-4.337,2.684-8.776,3.883-13.2.846-3.12,1.441-6.3,2.207-9.444a69.344,69.344,0,0,0,2.364-13.778,8.156,8.156,0,0,1,4.251-7.284,39.486,39.486,0,0,0,5.213-3.344,55.1,55.1,0,0,1,14.845-8.7c6.51-2.491,12.873-5.3,18.334-9.64a136.323,136.323,0,0,0,16.459-15.165c1.088-1.2,2.148-2.429,3.259-3.607,3.207-3.4,6.6-6.657,8.9-10.792,3.937-7.08,8.018-14.09,10.844-21.724a16.133,16.133,0,0,1,.82-1.7c2.725-5.272,5.564-10.488,8.155-15.825,3.06-6.3,5.927-12.705,8.836-19.084.6-1.3,1.034-2.684,1.5-4.045a2.3,2.3,0,0,0-.608-2.717,2.346,2.346,0,0,0-3-.119A48.683,48.683,0,0,0,236.8,375c-4.455,3.79-8.833,7.678-13.159,11.62a19.759,19.759,0,0,0-2.864,3.568c-2.934,4.318-5.7,8.756-8.73,13-4.968,6.959-10.127,13.781-15.152,20.7-4.125,5.68-8.575,11.179-12.149,17.192A71.869,71.869,0,0,1,171.5,457.669a22.959,22.959,0,0,0-3.38,3.486c-2.114,2.993-4.893,5.262-7.639,7.6-1.766,1.5-2.813,2.743-3.669,3.573-10.625,10.31-12.265,12.211-12.571,11.968-.7-.549,6.6-11.342,13.038-19.961,6.082-8.147,7.637-9.524,12.481-16.609a158.285,158.285,0,0,0,8.268-14.216c1.493-2.764,2.6-5.734,3.87-8.619a41.522,41.522,0,0,1,2.024-4.677,26.685,26.685,0,0,0,3.733-11.177,7.654,7.654,0,0,0-.075-2.416,1.9,1.9,0,0,0-3.045-1.3,12.319,12.319,0,0,0-3.076,2.153c-5.151,5.933-7.583,9.021-8.194,10.04-1.947,3.246-.423.15-14.3,18.285-3.983,5.205-6.355,8.395-6.827,8.106-.681-.415,4.055-7.175,5.943-17.573.276-1.526.327-2.537.985-5.819.706-3.524,1.65-7.01,2.194-10.56,1.006-6.569,1.967-13.154,2.625-19.762.17-1.7.271-2.947.382-4.6.593-8.952.879-27.2.784-34.125a8.391,8.391,0,0,1,1.085-4.5,7.2,7.2,0,0,1,1.588-1.838,15.691,15.691,0,0,1,7.031-3.793,89.742,89.742,0,0,0,18.6-5.324,44.167,44.167,0,0,0,14.655-10.323,91.842,91.842,0,0,1,18.421-15.325c6.116-3.746,12.77-6.621,19.221-9.81,0,0,7.987-2.828,11.486-8.261A3.141,3.141,0,0,0,257.75,289.834ZM149.514,243.867c-.361.229-4.754-8.168-13.631-18.4-9.738-11.223-11.7-11.357-20.123-20.685-4.373-4.842-7.111-10.787-10.228-16.462-2.9-5.272-5.9-10.488-8.859-15.725-.975-1.722-1.918-3.465-2.947-5.154a56.208,56.208,0,0,0-10.55-12.484c-5.211-4.7-10.3-9.519-14.454-15.227a13.755,13.755,0,0,1-2.6-5.262c1.176.851,1.854,1.256,2.434,1.774,5.1,4.551,10.364,8.939,15.235,13.726,7.394,7.265,14.273,15.036,19.713,23.908,4.891,7.977,9.56,16.091,14.183,24.228,3.032,5.337,6.618,10.279,10.125,15.294,5.107,7.3,7.394,7.894,12.363,14.629C146.113,236.071,149.857,243.653,149.514,243.867Zm-7.16-14.727c-12.492-15.232-10.48-13.384-13.665-16.947-1.073-1.2-3.341-4.21-6.453-8.274a13.792,13.792,0,0,1-1.72-2.728c-2.367-5.342-5.53-10.241-8.415-15.294-2.215-3.878-4.362-7.8-6.675-11.615-1.142-1.885-2.833-3.457-3.857-5.391-3.6-6.8-9.16-11.968-14.348-17.413-4.184-4.391-6.678-5.564-12.582-11.8-1.428-1.508-4.344-4.6-4.053-4.919.312-.343,4.123,2.772,10.217,7.387,9.111,6.9,9.942,7.356,13.275,9.71a48.021,48.021,0,0,1,15.678,19.2c4.592,9.671,9.155,19.357,13.8,29.005,2.452,5.095,6.165,9.681,12.87,19.231,7.469,10.638,14.147,19.37,14.018,19.468S147.66,235.612,142.354,229.14Zm-21.1,257.753c-11.672,2.839-16.227,3.385-18.171,3.591-6.6.7-13.257.688-13.309.155-.044-.456,4.948-1.359,14.931-3.164,9.044-1.635,10.609-2.241,14.165-3.107,2.081-.508,4.019-1.575,6.09-2.142a38.963,38.963,0,0,1,6.562-1.25,4.582,4.582,0,0,1,4.44,2.045C130.012,484.709,124.985,485.988,121.257,486.893Zm-.121-4.9a90.553,90.553,0,0,1-15.637,4.128c-2.3.433-2.367.449-6.342,1.286-7.286,1.532-8.91,2.065-9.07,1.684-.281-.668,4.187-3.465,8.312-4.726a24.574,24.574,0,0,1,3.006-.719c1.606-.193,3.223-.307,4.839-.4a23.013,23.013,0,0,0,11.055-3.976,19.007,19.007,0,0,1,11.1-2.671c3.042.119,5.608,1.477,7.833,4.429C130.672,478.772,125.856,480.195,121.135,482ZM240.912,377.522c.492.3-1.534,4.264-6.6,14.737-.191.392-4.13,7.923-11.2,23.364-3.447,7.536-7.01,15.013-11.648,21.879a89.41,89.41,0,0,1-7.657,9.034c-5.773,6.482-10.251,10.192-18.723,17.483-4.7,4.045-7.134,5.935-10.653,7.74-2.318,1.189-3.669,1.6-6.964,3.1a106.029,106.029,0,0,0-10.679,5.572c4.146-3.687,7.552-6.417,9.952-8.268,5.231-4.03,6.809-5.2,6.809-5.2,1.421-1.346,3.127-2.387,4.685-3.594a22.892,22.892,0,0,0,2.681-2.238c4.855-5.146,9.761-10.246,14.459-15.534a85.058,85.058,0,0,0,9.831-14.085c.449-.776.9-1.557,1.41-2.295,2.71-3.9,5.538-7.727,8.139-11.7,2.805-4.28,5.453-8.665,8.083-13.059,5.44-9.086,5.775-10.5,9.256-15.745C235.263,383.937,240.234,377.112,240.912,377.522Zm-78.069,92.811c2.955-2.88,6.894-6.482,8.008-7.933a64.907,64.907,0,0,1,7.193-7.3c4.321-4.081,7.193-9.15,9.967-14.3a7.641,7.641,0,0,1,.5-.959c3.759-5.154,7.544-10.29,11.3-15.446,6.608-9.075,13.231-18.14,19.78-27.26,2.46-3.424,4.4-7.242,7.567-10.122,2.983-2.71,6.036-5.342,9.385-7.876a6.179,6.179,0,0,1-.624,1.418,77.07,77.07,0,0,0-8.658,13.639c-1.41,2.9-3.308,5.561-4.976,8.335-2.176,3.622-4.334,7.255-6.507,10.88-.74,1.235-1.446,2.493-2.248,3.687-4.973,7.394-9.9,14.82-14.992,22.134a99.237,99.237,0,0,1-6.892,8.655,155.107,155.107,0,0,1-22.258,21.175c-4.355,3.329-8.683,6.693-13.066,9.983-.191.142-.338.222-.709.467-6.938,4.587-9.686,6.935-9.8,6.794C145.6,486.073,153.157,479.769,162.843,470.333Zm8.008-145.52c3.5-12.149,4.388-13.128,5.664-19.319,1.209-5.855.985-7.75,2.429-14.466.423-1.97,1.6-5.6,3.024-10.326.155-.516.467-.987.588-1.508,1.008-4.3,3.475-7.827,5.917-11.383.709-1.031,1.142-2.256,1.864-3.277,3.058-4.331,5.971-8.787,9.333-12.873s7.227-7.753,10.8-11.672c1.635-1.792,3.063-3.767,4.649-5.608a27.259,27.259,0,0,1,2.253-2.1l.619.549c-2.426,4.6-4.69,9.3-7.317,13.786-4.819,8.23-9.944,16.276-14.737,24.519a70.043,70.043,0,0,0-3.715,8.65c-1.952,4.734-3.909,9.467-5.8,14.227-3.39,8.529-6.636,17.114-10.135,25.6-1.849,4.478-4.074,8.8-6.206,13.162a6.087,6.087,0,0,1-1.978,2.07C168.67,332.651,169.606,329.132,170.851,324.813Zm-7.327-103.972c1.194-3.579,2.516-7.118,3.6-10.731,1.655-5.5,4.032-10.728,5.2-16.436,1.544-7.59,3.875-15.049,9.155-21.067,2.308-2.63,4.881-5.038,7.418-7.456a123.979,123.979,0,0,1,16.48-12.618,20.687,20.687,0,0,1,4.563-2.295c4.728-1.691,8.758-4.509,12.685-7.526,2.565-1.97,5.128-3.947,7.753-5.837a27.085,27.085,0,0,1,12.473-4.762,7.084,7.084,0,0,1,1.194.113c-.75.492-1.2.817-1.673,1.1-6.146,3.571-12.35,7.046-18.427,10.728-3.757,2.277-7.513,4.561-10.646,7.779a54.141,54.141,0,0,1-7.423,6.252c-4.166,2.965-7.394,6.812-10.733,10.589a84.4,84.4,0,0,0-12.463,18.873c-2.854,5.819-5.574,11.71-8.645,17.413-3.107,5.773-6.567,11.357-9.887,17.014-.113.2-.41.286-.915.619A13.224,13.224,0,0,1,163.524,220.841ZM160.3,234.1a76.313,76.313,0,0,1,4.486-10.393c3.924-7.268,8.227-14.33,12.174-21.585,2.1-3.862,3.633-8.029,5.685-11.919,3.852-7.309,7.748-14.611,13.659-20.569,1.191-1.2,2.106-2.674,3.277-3.9a71.8,71.8,0,0,1,5.213-5.046c4.306-3.677,8.552-7.451,13.11-10.8,2.934-2.155,5.731-4.545,9.207-6.03,3.264-1.395,6.237-3.486,9.315-5.309a71.837,71.837,0,0,1,10.965-5.453,6.667,6.667,0,0,1-.717,1.385c-3.094,2.872-5.961,6.02-9.82,7.959-4.584,2.3-9.178,4.592-13.7,7.02-6.554,3.519-12.5,7.825-17.063,13.824-3.54,4.654-7.286,9.166-10.584,13.982a106.433,106.433,0,0,0-6.2,11.04c-3.5,6.7-6.879,13.461-10.328,20.188a8.874,8.874,0,0,1-1.065,1.56c-3.1,3.741-6.438,7.307-9.246,11.251a74.616,74.616,0,0,0-6.889,11.571c-2.828,5.958-3.978,10.576-4.141,10.524S158.535,239.028,160.3,234.1Zm12.9-128.826c.317.028-2.161,13.275-2.148,32.292.005,6.551.186,11.772-1.872,18.95a55.282,55.282,0,0,1-5.3,12.649c-3.72,6.394-4.979,12.257-6.353,16.6-2.4,7.567-3.254,12.693-3.829,12.6s-.281-5.141-.173-7.057a46.6,46.6,0,0,1,.482-5.092c1.088-6.585,3.919-8.562,5.535-14.4.162-.583.871-2.926,1.833-6.177a4.574,4.574,0,0,1,.333-1.018c2.514-4.344,3.633-9.194,4.819-13.971a79.878,79.878,0,0,0,2.114-12.417C170.269,122.966,172.826,105.244,173.195,105.277Zm-16.617,52.464c.425-1.441.98-3.236.98-3.236.982-3.122,2.045-6.221,3.04-9.341.874-2.738,1.756-5.476,2.56-8.235.879-3.009,1.849-6,2.452-9.07s.614-6.232,1.222-9.284c.967-4.834,1.359-9.815,3.308-14.425a3.439,3.439,0,0,1,1.506-1.666,10.255,10.255,0,0,1-.008,1.379c-.758,5.523-1.436,11.061-2.323,16.563-1.645,10.2-1.462,20.693-4.442,30.663q-.878,2.935-1.854,5.842c-3.545,10.653-4.123,13.221-5.878,16.882a59.078,59.078,0,0,1-3.63,6.469C153.879,174.9,154.776,163.849,156.578,157.742ZM173.509,6.193c.675.1-.039,8.9-.4,12.68-.694,7.155-1.552,14.3-2.63,21.4-1.194,7.864-3.849,15.343-6.51,22.817-1.918,5.391-2.511,7.485-5,15.42-1.89,6.036-2.857,9.132-3.885,12.992a150.952,150.952,0,0,0-3.715,16.405c-.771,4.816-1.052,8.374-1.392,8.359s-.487-3.45-.464-6.19c.057-6.471,1.093-8.555,2.277-17.553.6-4.535.536-5.169,1.289-10.963.335-2.581.714-5.159,1.214-7.711A96.979,96.979,0,0,1,156.576,63.6c1.911-6.128,2.7-8.111,5.927-17.331,3.424-9.782,5.136-14.67,6-19.118.513-2.65,1.2-6.9,2.761-13.456C172.195,9.775,173.071,6.129,173.509,6.193ZM136.747,177.707c-.467.173-4.8-9.929-7.2-15.786-2.591-6.337-2.991-7.9-4.991-11.437-1.72-3.04-2.7-4.182-5.012-8.3a62.258,62.258,0,0,1-3.968-7.936,80.049,80.049,0,0,1-4.8-18.158,34.781,34.781,0,0,1-.281-6.172c.25-5.664-1.856-9.325-2.712-12.3-2.746-9.532-3.223-18.906-2.609-19.038s3.145,9.127,5.337,17.168c4.9,18,4.9,19.489,7.879,29.709,1.627,5.587,4,10.957,6.072,16.413,1.565,4.117,3.238,8.191,4.767,12.321,1.947,5.257,3.228,8.993,4.195,11.947C134.506,169.452,137.156,177.553,136.747,177.707Zm-12.352,91.326c.892,2.46,1.642,4.429,2.323,6.425a92.833,92.833,0,0,0,10.761,22.565A25.673,25.673,0,0,0,144.141,305c3.292,2.24,5.507,5.417,7.42,8.8a65.184,65.184,0,0,1,7.363,20.128c-3.231-4.96-6.193-9.679-9.338-14.27a57.707,57.707,0,0,0-5.1-6.252c-5.378-5.873-9.4-12.571-13.023-19.646-3.839-7.5-5.427-15.578-7.247-23.635A4.923,4.923,0,0,1,124.394,269.033Zm-73.423-2.019c3.97,2.117,7.91,4.29,11.9,6.376,3.1,1.624,6.293,3.089,9.39,4.734,4.891,2.6,8.972,6.288,13.064,9.942,2.748,2.454,5.476,4.935,8.111,7.505,3.61,3.519,7.118,7.137,10.676,10.707a55.247,55.247,0,0,0,5.587,5.463c3.726,2.795,7.652,5.327,11.561,7.869a51.806,51.806,0,0,0,5.427,2.988c2.5,1.227,5.03,2.377,7.583,3.483,2.393,1.036,4.86,1.905,7.24,2.97,4.313,1.931,7.351,5.541,10.97,8.449-5.053-2.779-10.759-3.277-16.075-5.012-4.69-1.529-9.333-3.212-13.928-5-1.47-.572-2.687-1.766-4.076-2.583-2.552-1.5-5.213-2.831-7.706-4.419-5.1-3.254-9.274-7.616-13.561-11.821q-3.844-3.771-7.611-7.624c-.926-.951-1.658-2.094-2.586-3.042-2.068-2.112-4.156-4.208-6.324-6.214-3.478-3.218-6.66-6.814-10.792-9.24-6.564-3.852-11.656-9.583-17.9-13.837a8.992,8.992,0,0,1-2.426-2.24A12.164,12.164,0,0,1,50.972,267.014ZM158.337,343.3c-.2.34-4.5-3.017-11.143-4.179-4-.7-4.246.2-9.751,0A55.277,55.277,0,0,1,119.4,335.27a43.451,43.451,0,0,1-8.686-4.179c-6.724-4.252-12.342-9.877-18.122-15.279-.975-.91-1.624-2.161-2.537-3.145-2.733-2.947-7.286-8.792-13.363-14.441-.15-.137-4.69-3.9-13.775-11.416q-3.307-2.738-6.554-5.546-2.448-2.115-4.852-4.282a34.7,34.7,0,0,1-3.744-4.172c-2.937-3.775-5.015-7.964-4.571-8.279.173-.124.608.423,2.813,2,.822.588,1.323.884,1.738,1.2,3.816,2.862,7.557,5.827,11.329,8.75,2.274,1.763,4.571,3.5,6.819,5.3,5.412,4.321,10.973,8.477,16.135,13.079,3.133,2.792,5.577,6.345,8.431,9.467A155.525,155.525,0,0,0,107,320.149a56.724,56.724,0,0,0,12.788,7.436c6.185,2.774,12.749,6.141,21.531,7.871a37.4,37.4,0,0,1,9.741,2.9C155.441,340.406,158.509,343.013,158.337,343.3Zm-3.406-8.2c-3.741-5.373-5.61-8.06-7.526-9.993-1.619-1.635-3.272-3.21-7.113-6.982a15.239,15.239,0,0,1-2.047-2.137c-3.63-5.345-7.8-10.344-10.749-16.129-2.813-5.515-5.835-10.983-6.7-17.248-.513-3.738-.843-7.505-1.2-11.264-.211-2.222-.387-4.455-.433-6.685a14.193,14.193,0,0,1,.753-3.071c1.591,2.573,1.707,4.9,2.253,7.085,1.467,5.845,2.679,11.767,4.422,17.529,1.057,3.5,2.913,6.752,4.409,10.117,3.488,7.843,8.833,14.428,14.5,20.713a67.8,67.8,0,0,1,5.987,7.516,73.019,73.019,0,0,1,4.752,8.273c2.282,4.45,5.156,10.72,4.731,10.947C160.675,343.925,159.11,341.1,154.931,335.1ZM135.463,440.462a17.3,17.3,0,0,0-.735-2.583c-1.65-4.177-3.367-8.325-5-12.51a19.047,19.047,0,0,1-.81-3.12s-.822-3.439-1.343-6.894c-1.173-7.784.116-29.541,1.047-29.492.412.021-.028,4.29.773,13,.616,6.7,1.555,11.538,4.012,22.941,1.761,8.173,3.733,17.083,5.93,26.641A22.078,22.078,0,0,1,135.463,440.462Zm5.017,7.17c-2.055-9.385-4.094-18.772-6-28.188-1.122-5.525-2.006-11.1-2.97-16.653a84.2,84.2,0,0,1-1.085-16.89,3.838,3.838,0,0,1,.224-1.052c.046-.142.235-.237.549-.534.616,2.952,1.186,5.8,1.8,8.632,1.088,5,2.086,10.029,3.341,14.99,1.122,4.432,2.73,8.745,3.777,13.19a79.933,79.933,0,0,1,1.671,10.9c.49,5.283.73,10.591,1.018,15.892.1,1.784.015,3.576.015,5.365-.191.046-.382.09-.575.137C141.65,451.494,140.91,449.6,140.48,447.632Zm-3.037,25.986c-.268.147-2.261-3.586-5.572-7.892a73.365,73.365,0,0,0-9.258-9.751c-8.33-7.7-12.3-11.813-19.115-16.648-6.747-4.788-13.523-9.55-20.09-14.58a61.246,61.246,0,0,1-12.816-14.142c-2.251-3.256-4.651-6.42-6.739-9.777-2.893-4.648-5.512-9.467-8.341-14.154-1.207-2-2.622-3.87-3.986-5.768a6.425,6.425,0,0,1-1.042-4.883,6.017,6.017,0,0,1,.74-1.436c1.176,1.627,2.2,3.05,3.236,4.471,4.365,6.015,9.808,11.012,15.173,16.078,3.465,3.274,7,6.471,10.524,9.686,4.383,4,8.864,7.9,13.154,12,4.164,3.978,8.093,8.2,12.208,12.234,5.113,5.009,8.972,11.019,13.363,16.6,7.438,9.462,10.782,12.141,14.714,19.326C135.885,469.158,137.724,473.463,137.443,473.618ZM132.8,461.389c-2.746-4.4-3.066-3.638-8.936-11.241-7.425-9.617-9.372-14.278-17.4-22.168a10.839,10.839,0,0,1-1.555-1.5A175.522,175.522,0,0,0,88.761,411.06c-7.766-6.8-11.233-10.656-12.917-12.2-3.313-3.037-6.386-5.785-10.774-10.014-8.647-8.335-6.835-7.155-8.382-8.781a11.509,11.509,0,0,1-1.748-2.05,12.437,12.437,0,0,1-1.5-4.143c2.019,1.957,4.066,3.885,6.049,5.878a77.829,77.829,0,0,0,15.74,12.662c5.507,3.218,11.277,5.976,16.859,9.068a50.808,50.808,0,0,1,6.232,4.213c3.21,2.465,6.268,5.131,9.478,7.593a30.212,30.212,0,0,1,4.587,4.881c4.089,4.881,5.979,10.8,8.263,16.555a15.806,15.806,0,0,0,.972,2.22c1.645,2.782,3.339,5.535,5.017,8.294.374.614.681,1.031.743,1.127a114.963,114.963,0,0,1,7.276,12.86c3.774,8.116,4.744,16.132,4.334,16.251C138.621,475.582,137.6,469.091,132.8,461.389ZM78.27,503.041c4.747,2.364,9.542,4.643,14.165,7.235a57.473,57.473,0,0,1,13.577,10.13c1.181,1.23,2.467,2.364,3.754,3.488a53.81,53.81,0,0,1,4.429,5.319c4.453,6.257,6.946,14.655,6.536,14.825-.428.178-2.684-9.3-11.208-17.444a82.056,82.056,0,0,0-7.387-5.8c-4.556-3.352-9.029-6.794-14.121-9.39-4.215-2.15-8.17-4.811-12.247-7.237a23.954,23.954,0,0,1-2.89-1.859A8.614,8.614,0,0,1,78.27,503.041Zm30.6,30.918a58.829,58.829,0,0,0-6.528-5.187c-2.019-1.5-4.159-2.844-6.18-4.344-4.406-3.267-8.74-6.629-13.167-9.87-2.54-1.859-5.175-3.589-7.815-5.3a13.261,13.261,0,0,1-4.27-4.979l.449-.717a19.1,19.1,0,0,1,2.576,1.078c3.782,2.264,7.518,4.6,11.293,6.881,1.769,1.067,3.669,1.936,5.368,3.1,5.187,3.563,10.452,7.036,15.413,10.9,6.734,5.247,11,12.265,13.371,20.443a2.933,2.933,0,0,1,.054.8c0,.077-.082.152-.2.364a2.238,2.238,0,0,1-2-1.738C115.556,540.752,112.238,537.308,108.871,533.959ZM6.451,587.568c1.6-3.022,3.22-6,5.731-8.341a37.264,37.264,0,0,0,6.345-7.652,34.722,34.722,0,0,1,13.587-12.8A172.441,172.441,0,0,1,52.4,550.1a71.121,71.121,0,0,1,13.92-3.114c6.221-.944,12.432-1.967,18.659-2.885.972-.142,2.06.093,3.736-.041,3.635-.289,4.674-1.106,8.085-1.171a15.655,15.655,0,0,1,3.579.2c1.944.361,3.911.593,5.847.982a13.016,13.016,0,0,1,7.335,3.94,28.748,28.748,0,0,1-8.09-.722c-5.02-1.013-10.011-.7-15.036-.255-8.475.75-16.292,3.787-23.98,7.1-4.522,1.949-9.3,2.777-13.974,4.092-4.785,1.346-9.635,2.661-13.809,5.358-5.208,3.365-10.13,7.18-15.111,10.888-3.465,2.578-6.812,5.316-10.236,7.951C11.061,584.172,8.745,585.856,6.451,587.568Zm107.992-35.948a34.135,34.135,0,0,0-9.818-1.544c-1.792,0-3.581-.446-5.373-.469a44,44,0,0,0-20.128,4.342c-3.519,1.727-6.585,4.367-9.9,6.528a17.4,17.4,0,0,1-3.785,1.97c-3.749,1.276-7.528,2.491-11.344,3.548-2.844.789-5.752,1.39-8.66,1.9a35.515,35.515,0,0,0-16.2,7.521c-3.79,3.027-7.753,5.85-11.782,8.557a29.458,29.458,0,0,1-7.554,3.821c-.111-.147-.219-.3-.33-.444a18.763,18.763,0,0,1,1.831-1.74c2.893-2.114,5.873-4.112,8.717-6.288,1.7-1.3,3.145-2.924,4.814-4.272,3.267-2.64,6.5-5.3,9.991-7.681,5.734-3.916,11.073-5.481,17.725-7.515,11.365-3.476,14.515-2.367,21.466-6.049a70.066,70.066,0,0,1,6.587-3,25.77,25.77,0,0,1,9.645-2.261c2.318,0,4.63-.482,6.951-.547a35.835,35.835,0,0,1,9.318.9c2.968.7,5.992,1.165,8.975,1.8a4.676,4.676,0,0,1,1.333.838c-.075.17-.15.343-.222.513A21.387,21.387,0,0,1,114.442,551.619Zm-35.286,49.1a8,8,0,0,1,.129-1.97c.7-2.222,1.482-4.422,2.266-6.616,1.054-2.957,2.23-5.876,3.194-8.864,1.856-5.752,6.074-9.392,10.906-12.52.678-.438,1.709-1.034,3.638-2.289,2.9-1.89,4.9-3.347,5.806-4,4.881-3.493,11.128-7.17,11.349-6.855.2.278-4.471,3.566-12.185,10.065C97.013,573.785,93.229,576.822,91.2,580c-2.511,3.929-4.633,8.111-6.874,12.21-1.122,2.05-2.094,4.179-3.187,6.244A6.2,6.2,0,0,1,79.157,600.722Zm33.576-35.046c-3.9,3.347-5.809,3.651-8.833,6.123-2.47,2.019-4.912,4.187-6.144,7.345a51.2,51.2,0,0,1-8.727,14.16,83.609,83.609,0,0,1-6.716,6.487c1.2-2.341,2.4-4.62,3.558-6.92,1.774-3.524,3.194-7.281,5.376-10.529,2.106-3.138,4.138-6.407,7.528-8.624,4.1-2.681,7.861-5.886,11.762-8.874a21.014,21.014,0,0,1,1.663-1.707c2.042-1.727,4.659-2.815,4.971-2.387C117.552,561.28,114.453,564.2,112.733,565.676Zm85.721,73.459c-4.458-3.607-8.895-7.24-13.386-10.805-1.472-1.171-3.207-2.029-4.607-3.269-5.285-4.68-11.29-8.276-17.256-11.971-4.043-2.5-7.851-5.358-12.076-7.613a24.177,24.177,0,0,1-5.584-4.636c-6.036-6.185-11.331-13.007-13.358-21.536-1.418-5.971-4.272-11.226-6.425-16.952.755.673,1.547,1.307,2.259,2.024,5.894,5.938,11.672,11.994,17.7,17.79,3.169,3.047,6.843,5.561,10.158,8.464,7.033,6.157,14.3,12.1,20.871,18.718,5.36,5.4,9.973,11.563,14.686,17.57,2.094,2.666,3.6,5.786,5.412,8.678.657,1.052,1.415,2.042,2.13,3.058C198.8,638.815,198.626,638.975,198.454,639.135Zm-58.564-73.271c3.022,2.07,6.477,3.5,9.624,5.4q6.911,4.173,13.641,8.645a52.726,52.726,0,0,1,7.7,5.878c3.852,3.764,7.5,7.763,10.986,11.873a31.966,31.966,0,0,1,3.689,6.252c3.161,6.162,5.974,12.517,9.439,18.5a78.74,78.74,0,0,1,6.219,12.814c.407,1.132.639,2.326,1.091,4-.7-.505-.956-.608-1.085-.8-2.852-4.244-5.651-8.524-8.542-12.742a111.365,111.365,0,0,0-6.6-9.142,128.429,128.429,0,0,0-10.584-11.494c-2.328-2.241-4.272-3.963-22.908-18.932-2.939-2.362-5.651-4.411-9.055-7.647-3.45-3.28-6.693-6.781-9.942-10.267-1.261-1.354-2.287-2.924-3.421-4.393.137-.186.271-.374.407-.56A15.6,15.6,0,0,1,139.889,565.864Zm103.957-68.233c-1.1.681-2.212,1.359-3.313,2.045a34.351,34.351,0,0,1-12.36,5.2c-3.176.547-6.268,1.58-9.4,2.4-7.518,1.965-14.036,6.038-20.579,9.983a24.848,24.848,0,0,0-5.26,4.973c-5.517,6.17-10.831,12.528-16.452,18.6a40.214,40.214,0,0,1-13.469,9.246c-4.311,1.921-8.534,1.15-16.434,4.037-2.153.786-2.135.9-4.344,1.684-7.515,2.637-13.714,3.362-13.773,3.1-.1-.446,16.552-5.487,18.994-6.92.144-.085,1.093-.567,2.39-1.232a10.425,10.425,0,0,0,1.24-.513c2.785-1.944,5.551-3.916,8.317-5.886a39.862,39.862,0,0,0,3.687-2.694c4.667-4.221,9.132-8.678,13.946-12.726,4.032-3.39,7.977-6.886,12.18-10.109,4.651-3.566,9.625-6.58,14.433-9.867a12.8,12.8,0,0,1,3.243-1.194c2.217-.735,4.427-1.506,6.672-2.15,1.8-.516,3.648-.861,5.473-1.294,2.514-.6,5.082-1.029,7.526-1.838,4-1.33,7.9-2.973,11.9-4.349a46.226,46.226,0,0,1,5.113-1.165C243.663,497.178,243.753,497.4,243.846,497.631ZM129.4,555.159q7.236-4.444,14.487-8.861a65.058,65.058,0,0,1,6.964-4.1c3.914-1.753,6.776-4.679,9.609-7.706,5.226-5.587,10.328-11.293,15.707-16.728a48.525,48.525,0,0,1,14.247-9.594c6.495-3.037,13.528-4.321,20.18-6.8a15.16,15.16,0,0,1,3.437-.668c5.414-.668,7.273-.534,11.5-1.31,1.851-.34,1.333-.382,5.693-1.477,3.037-.763,10.274-2.5,10.37-2.166.1.356-7.944,3.287-16.279,5.5-2.777.737-6.079,1.552-12.445,3.287q-2.123.576-4.233,1.194c-5.417,1.586-10.127,4.6-14.693,7.838-9.421,6.688-17.808,14.582-26.293,22.376a100.263,100.263,0,0,1-22.58,15.627,58.858,58.858,0,0,1-15.763,5.365c-.51.1-1.036.1-1.557.144-.085-.2-.168-.4-.253-.6C128.135,556.033,128.746,555.562,129.4,555.159Zm50.915-133.622c-1.578,3.524-3.12,7.064-4.741,10.571A92.039,92.039,0,0,1,162.91,452.4c-3.486,4.2-6.582,8.725-9.857,13.1a4.588,4.588,0,0,1-.534.516l-.26-.139c1.026-2.333,2.184-4.62,3.055-7.01,2.225-6.116,5.956-11.406,9.362-16.833,3.068-4.891,6.9-9.294,10.326-13.966a46.013,46.013,0,0,0,2.955-4.8c1.488-2.658,2.888-5.365,4.349-8.039.147-.266.454-.443,1.042-.449Q181.828,418.161,180.316,421.538Zm-18.762,14.147A155.556,155.556,0,0,0,175.9,418.521a65.952,65.952,0,0,1,6.177-7.786,2.742,2.742,0,0,1,1.583-.877c-1.98,3.687-3.744,7.513-5.987,11.035-3.862,6.061-7.915,12.009-12.087,17.867a105.123,105.123,0,0,0-12.528,21.969c-1.129,2.839-2.583,5.548-3.723,8.384a33.932,33.932,0,0,1-1.421,3.9c-1.016,2.13-2.583,4.517-3.04,4.319-.32-.139.039-1.48.928-5.417.49-2.171.9-4.36,1.426-6.523,2.416-10.017,2.362-10.921,3.016-12.819C152.543,445.9,156.906,440.678,161.554,435.684Zm1.054-86.448c-.005.119-.046,4.195-.155,12.35-.033,2.542-.077,5.543-.142,9.15-.041,2.385-.067,5.291-.284,9.163-.242,4.3-.443,8.606-.949,12.876-.91,7.678-1.552,15.413-3.656,22.9a78.178,78.178,0,0,0-1.782,10.336,72.755,72.755,0,0,1-2.614,10.14c-1.238,4.221-1.678,4.666-2.772,8.4-1.256,4.3-2.132,8.944-2.132,8.944-1.524,8.232-2.795,10.571-4.339,19.932-.147.887-.776,6.056-2.029,16.356-1.3,10.715-1.3,11.066-1.586,12.566-1.142,5.909-2.522,11.785-4.068,17.6-1.341,5.035-3.037,9.978-4.618,14.949-.379,1.194-.944,2.326-1.374,3.506-1.707,4.685-2.452,6.848-3.39,9.369a94.913,94.913,0,0,1-4.043,9.08,226.6,226.6,0,0,0-9.7,24.694c-1.472,4.262-2.893,8.274-5.123,16.477-2.9,10.674-5.659,21.386-9.586,31.746-1.531,4.04-3.372,7.977-4.664,12.089-1.831,5.829-3.055,11.855-4.96,17.658-2.217,6.75-4.883,13.353-7.374,20.01a4.937,4.937,0,0,1-.815,1.4c-1.758,2.132-3.548,4.239-5.468,6.523a3.969,3.969,0,0,1,.343-3.009c1.709-4.354,3.478-8.689,5.205-13.038,2.46-6.188,5.107-12.314,7.3-18.6,2.364-6.783,4.195-13.752,6.44-20.582,2.308-7.013,4.935-13.922,7.234-20.938,1.877-5.726,3.383-11.574,5.244-17.305,1.421-4.367,2.032-5.247,4.05-10.586,3.494-9.238,3.643-10.867,6.474-18.731,5.125-14.247,6.469-14,10.06-25.452,2.109-6.727,2.988-10.135,4.076-13.992.9-3.2,1.609-6.464,2.571-9.648,1.065-3.519,2.323-6.977,3.493-10.465a12.94,12.94,0,0,0,.557-1.8c.776-4.334,1.557-8.665,2.261-13.01a11.668,11.668,0,0,0,.067-2.109c.15-6.533,1.423-10.509,2.967-19.375.848-4.873,2.583-15.833,3.491-18.963.026-.088.361-1.238.812-2.818.211-.743.459-1.611.732-2.589.851-3.029,1.748-6.049,2.506-9.1,1.385-5.579,2.877-11.143,3.965-16.784.9-4.669,1.516-9.031,2.656-17.573.521-3.906,2.573-20.033,3.2-35.34,0-.021,0-.044,0-.064.815-19.9,2.5-25.228,2.529-37,.005-2.6-.165-5.559-.505-11.486-.846-14.711-2.22-25.646-2.607-28.551-2-15.005-4.71-27.894-4.71-27.894a140.074,140.074,0,0,1-2.4-14.936c-.157-1.508-.276-2.906-.369-4.19-.247-3.424-.307-6.054-.327-6.953-.5-21.946-.725-24.689-1.421-28.01-.66-3.145-2.738-13.061-7.552-19.378a25.79,25.79,0,0,1-4.226-7.34c-.743-2.047-.766-3-1.65-6.268-.794-2.931-1.544-4.9-2.511-7.657-2.2-6.275-4.386-12.559-6.714-18.785-2.8-7.487-5.762-14.912-8.6-22.387-.536-1.418-.8-2.939-1.2-4.409-.33-1.214-.632-2.439-1.016-3.638a53.732,53.732,0,0,1-2.06-7.737A105.513,105.513,0,0,0,112.609,98.3q-1.57-5.716-3.23-11.406c-.727-2.491-1.56-4.95-2.274-7.446a17.72,17.72,0,0,1-.361-2.547c.271-.134.541-.268.81-.4a13.759,13.759,0,0,1,1.916,2.026A30.963,30.963,0,0,1,113.7,89.253c.841,4.414,2,8.769,2.772,13.193,1.449,8.248,4.986,15.735,8.088,23.4,1.82,4.5,3.372,9.114,4.79,13.752,1.6,5.242,2.852,10.589,4.38,15.854,1.73,5.958,2.934,12.082,5.486,17.787.191.428.317.773.413,1,1.016,2.431,1.833,4.195,2.542,5.631,2.472,4.991,3.212,6.159,3.914,7.688.173.376.242.557.642,1.521,1.988,4.79,2.166,5.128,2.32,5.107.714-.1.232-6.809.232-6.809-.541-7.528-1.325-21.513-2.5-46.171h0c0-7.9-.062-3.646-.1-7.65,0-.131-.01-.99-.01-1.7-.005-7.322.761-9.717.211-14.051a18.907,18.907,0,0,0-1.006-4.643c-1.622-5.492-1.526-11.571-1.269-23.5.121-5.628.3-8.7.6-13.221a114.3,114.3,0,0,1,3.767-21.2c1.031-3.958,3.006-7.673,4.587-11.483.892-2.15,1.789-4.3,2.779-6.4,1.758-3.738,3.61-7.433,5.383-11.166q3.183-6.7,6.286-13.433c.449-.975.73-2.024,1.129-3.022.322-.8.709-1.573,1.067-2.359.206.044.415.088.621.129-.157,1.681-.2,3.383-.5,5.038-1.054,5.773-1.828,10.352-2.516,12.968-3.189,12.133-7.2,20.123-11.318,35.463a153.149,153.149,0,0,0-3.97,17.875c-.567,5-1.531,9.965-2.083,14.972-.766,6.951-2.444,13.8-2,20.891.219,3.488-.392,7.023-.278,10.524.413,12.515.835,22.2,1.14,25.612,1.8,20.162.74,20.123,4.169,66.3.663,8.926,1.578,20.7,2.766,34.6h0c.031.152,4.6,23.32,5.958,41.089,0,.008.013.157.013.175.054.719.255,3.305.529,6.729.134,1.686.3,3.695.505,6.087.807,9.413.833,11.463,1.129,15.307q.066.851.1,1.7h0c0,.031,0,.08.005.142C164.9,334.337,163.119,338.274,162.609,349.237Zm1.145-5.159c-.134-.106.753-1.611,5.6-8.186a63.184,63.184,0,0,0,4.623-7.332c2.859-5.311,3.486-8.836,5.981-15.029,2.184-5.419,4.409-10.823,6.626-16.23,2.287-5.566,4.473-11.179,6.925-16.673,1.39-3.114,3.228-6.028,4.86-9.034,3.563-6.562,7.07-13.157,10.71-19.677,2.191-3.924,4.615-7.719,6.889-11.6,1.593-2.715,3.055-5.507,4.69-8.2a17.244,17.244,0,0,1,2.235-2.478c.206.124.41.25.616.374a18.436,18.436,0,0,1-.959,3.2c-6.688,13.172-12.445,26.77-18.215,40.354-2.6,6.126-4.416,12.579-6.861,18.777-2.473,6.273-5,12.558-8.029,18.574-2.792,5.543-5.659,8.882-10.9,15.732C171.679,335.649,164.1,344.353,163.753,344.078Zm80.072-45.317c-5.113,2.426-10.187,4.937-15.258,7.448-5.213,2.581-9.514,6.44-14.01,10.037-3.027,2.421-5.682,5.218-8.49,7.864a57.7,57.7,0,0,1-9.637,7.322c-3.883,2.436-7.686,4.821-13.177,6.3-4.416,1.191-5.886.706-9.906,2.475-4.344,1.913-6.745,4.29-6.964,4.025-.245-.3,2.449-3.628,6.657-6.056,1.395-.807.99-.376,6.719-2.764,5.125-2.135,7.307-3.39,9.215-4.319,1.044-.508,1.957-1.276,3-1.8,3.349-1.689,5.8-4.5,8.655-6.8,2.795-2.251,5.755-4.329,8.335-6.8,5.582-5.347,12.211-9.2,18.664-13.257a60.058,60.058,0,0,1,11.512-5.167c3.932-1.428,8.044-2.359,12.076-3.509A21.387,21.387,0,0,1,243.825,298.76Zm6.7-6.654c-2.119.748-4.231,1.544-6.4,2.114-7.387,1.944-14,5.484-20.523,9.362-7.1,4.215-13.149,9.73-19.553,14.814-3.517,2.792-6.84,5.832-10.4,8.565-5.053,3.878-11.024,6.01-16.846,8.39a8.3,8.3,0,0,1-1.789.312l-.317-.593c1.617-1.524,3.174-3.114,4.86-4.558,5.53-4.729,11.115-9.39,16.653-14.105a13.13,13.13,0,0,0,2.222-2.349C202,309,207.2,305.866,212.077,302.339a19.456,19.456,0,0,0,1.81-1.176c5.829-5.342,13.257-6.554,20.59-8,3.878-.766,7.771-1.452,11.651-2.207a13.514,13.514,0,0,1,5.925.072A8.436,8.436,0,0,1,250.524,292.106Z" fill="#cfd1c6"/>
          </g>
        </g>
      </g>
    </g>
  </g>
</svg>
