<?xml version="1.0" encoding="utf-8"?>
<!-- Generator: Adobe Illustrator 24.0.1, SVG Export Plug-In . SVG Version: 6.00 Build 0)  -->
<svg version="1.1" id="Слой_1" xmlns="http://www.w3.org/2000/svg" xmlns:xlink="http://www.w3.org/1999/xlink" x="0px" y="0px"
	 viewBox="0 0 3000 3000" style="enable-background:new 0 0 3000 3000;" xml:space="preserve">
<style type="text/css">
	.st0{fill:none;}
	.st1{fill:#45482A;}
</style>
<rect class="st0" width="3000" height="3000"/>
<g>
	<g>
		<path class="st1" d="M1076.54,1546.11c0.18,0.06,0.37,0.12,0.56,0.18c-0.14-0.11-0.28-0.22-0.42-0.33L1076.54,1546.11z"/>
	</g>
	<g>
		<path class="st1" d="M1993.93,1803.29c-6.7-6.19-13.82-12.01-20.93-17.81c-4.2-3.42-8.57-6.68-13.09-9.75
			c-9.4-6.39-18.23-13.37-25.57-21.73c-14.2-16.16-24.2-21.52-26.13-22.96c-15.37-11.39-29.36-17.77-44.84-24.83
			c-5.29-2.42-9.36-4.76-14.77-5.74c-7.63-1.38-15.49-2.2-22.77-4.51c-6.56-2.08-13.11-2.08-19.75-2.72
			c-7.05-0.68-14.01-2.14-21.04-3.02c-7.89-0.99-15.83-2.46-23.72-2.35c-7.32,0.1-12.79,1.02-23.71,3.02
			c-10.21,1.87-20.06,3.68-32.36,7.87c-6.21,2.12-9.35,3.58-15.85,4.88c-2.76,0.55-4.65,1.04-7.06,1.35
			c-5.24,0.67-9.18,0.3-10.3,0.23c-25.91-1.72-44.38,9.97-44.38,9.97c-5.99,3.79-10.26,8.73-17.87,15.95
			c-3.29,3.12-6.4,6.47-9.04,10.05c-4.45,6.05-8.57,12.31-12.65,18.58c-8.21,12.59-16.63,25.1-22.34,38.89
			c-3.22,7.77-5.89,15.73-9.17,23.48c-5.69,13.41-6.89,27.37-6.52,41.54c0.17,6.54,0.92,13.07,1.12,19.62
			c0.31,10.34,1.46,20.54,3.92,30.69c2.05,8.48,3.38,17.15,4.38,25.79c0.78,6.81,1.01,13.61,0.69,20.39
			c-0.43,9.22-0.48,15.35-3.04,22.21c-1.3,3.49-2.87,7.71-4.54,7.59c-2.45-0.17-2.16-9.59-6.47-29.65
			c-1.5-6.98-3.11-13.95-4.35-20.98c-2.64-14.85-4.88-29.76-7.67-44.59c-1.32-7-3.75-13.82-5.28-20.79
			c-1.7-7.76-2.62-15.67-4.49-23.39c-2.48-10.24-5.81-20.3-8.33-30.53c-3.13-12.75-6.07-25.55-8.61-38.4
			c-2.89-14.59-4.26-24.1-4.24-33.47c0-1.48,0.1-6.01,0.74-11.95c1.87-17.27,6.61-29.15,13.44-45.89
			c3.96-9.73,6.55-14.62,11.23-19.53c3.77-3.95,7.57-6.54,10.19-8.1c6.59,3.24,10.07,8.41,12.88,14.07
			c3.65,7.34,6.13,15.19,12.63,21.18c3,2.77,5.33,3.86,8.88,1.57c4.94-3.19,10.07-5.14,16.21-5.22c3.57-0.04,4.81-1.83,4.69-5.19
			c-0.09-2.46-0.78-4.65-3.23-6.16c-3.55-2.19-7.09-4.42-10.44-6.86c-2.49-1.81-4.94-3.78-6.91-6.05c-2.68-3.09-5.17-6.37-7.21-9.84
			c-4.15-7.04-10.99-8.54-18.94-8.25c2.33-3.54,5.82-4.5,9.9-4.9c10.48-1.02,20.25,0.19,28.88,6.29c1.85,1.31,4.2,2.03,6.3,3.05
			c15.81,7.75,32.55,11.25,50.58,10.44c9.47-0.43,17.81-2.22,24.47-8.79c3.95-3.89,9.14-4.81,14.77-5.01
			c3.59-0.13,7.3-0.87,10.66-2.05c4.99-1.76,6.9-6.34,4.82-10.71c-2.06-4.34-4.32-8.61-6.63-12.84c-2.45-4.48-5.55-8.54-10.31-11.23
			c-2.49-1.41-4.06-3.19-5.13-5.81c-3.13-7.69-8.33-14.01-16.98-16.97c-3.94-1.35-8.3-1.87-12.52-2.23
			c-7.17-0.61-13.92-1.83-20.23-5.43c-4.33-2.47-9.26-4.43-14.21-5.53c-10.62-2.37-21.4-3.93-31.21,2.73
			c-1.02,0.7-2.27,1.21-3.51,1.53c-9.34,2.46-14.26,8.72-16.69,16.79c-2.48,8.21-4.63,16.51-6.54,24.84
			c-0.81,3.52-2.76,5.88-5.78,8.18c-1.56-6.67-2.95-12.85-4.49-19.01c-0.43-1.72-0.9-3.63-2.03-4.98
			c-4.96-5.94-10.09-11.76-15.33-17.49c-1.49-1.63-3.86-2.23-5.83-0.7c-2.78,2.15-5.43,4.48-7.83,6.98
			c-2.37,2.45-2.68,5.56-1.05,8.37c1.96,3.39,1.98,6.64,1.28,10.32c-0.86,4.48-1.13,9.18,2.37,13.09c3.7,4.13,7.41,8.25,11.32,12.2
			c2.64,2.67,3.93,4.79,3.89,6.88c-0.05,3.09-2.57,5.27-4.15,6.79c-4.63,4.45-7.06,10.65-10.83,15.81
			c-11.55,15.83-17.77,42.53-19.97,41.99c-1.07-0.26,0.28-6.58,0.62-17.38c0.29-9.3-0.89-12.21-1.31-25.56
			c-0.42-13.27-0.88-26.54-0.84-39.82c0.03-8.31,1.6-16.64,1.28-24.92c-0.46-11.97,8.33-19.77,11.78-24.78
			c3.59-5.21,10.4-15.08,22.3-22.84c4.2-2.74,9.04-5.82,16.59-11.44c3-2.23,5.8-4.82,8.13-7.63c3.52-4.26,6.63-8.81,9.74-13.33
			c2.77-4.02,5.58-8.06,7.88-12.31c4.8-8.85,9.4-17.79,13.84-26.8c3.64-7.39,6.33-15.21,10.5-22.32
			c5.21-8.87,11.45-17.24,17.37-25.75c8.4-12.05,17.79-23.47,28.71-33.67c9.37-8.75,19.41-16.89,29.24-25.22
			c16.87-14.29,33.35-28.81,43.65-48.15c5.53-10.39,10.22-21.05,13.02-32.27c3.42-13.7,6.15-27.54,9.04-41.34
			c1.66-7.95,3.31-15.92,4.47-23.94c1.2-8.24,1.53-16.58,2.73-24.82c2.69-18.41,1.25-36.88,1.63-55.33
			c0.25-11.9,1.25-23.26,1.58-28.38c0.92-14.18,1.1-20.58,1.95-30.13c0.67-7.54,1.46-14.6,1.92-18.18
			c4.45-34.17,20.13-59.72,17.06-61.37c-1.31-0.71-4.99,3.54-9.68,9.07c-27.72,32.67-37.96,46.82-37.96,46.82
			c-8.01,10.3-14.93,21.3-22.72,31.75c-8.29,11.13-16.98,22-25.58,32.93c-6.18,7.86-12.73,15.41-17.04,24.45
			c-3.54,7.4-8.21,14.34-11.65,20.24c-6.33,1.75-11.32,2.93-16.15,4.52c-5.87,1.94-11.42,5.21-17.44,6.14
			c-7.57,1.17-13.3,4.6-18.49,9.08c-4.67,4.03-9.51,2.93-18.09,4.76c-7.43,1.58-18.15,3.96-31.53,7.28
			c3.3-23.65,8.83-39.63,12.9-49.26c4.76-11.28,6.41-11.26,9.57-20.87c2.08-6.33,6.25-12.64,10.9-21.56
			c0.39-0.74,1.28-1.26,2.54-2.45c0.38,2.2,0.74,3.51,0.81,4.83c0.31,5.75,1.87,6.4,8.14,7.64c6.85,1.36,13.45,3.92,19.99,6.35
			c1.8,0.67,3.06,2.68,4.42,4.19c1.09,1.22,1.72,2.86,2.98,3.87c1.36,1.08,3.23,2.32,4.83,2.28c2.48-0.07,3.41-2.19,3.41-4.36
			c0-2.37,0.32-4.87-0.37-7.08c-1.92-6.09-4.12-12.12-6.6-18.05c-0.71-1.7-2.6-3.06-4.15-4.38c-4.21-3.58-8.52-7.05-12.78-10.56
			c8.19-7.82,18.45-9.84,28.65-6.22c3.37,1.2,7.19,2.84,10.5,2.39c8.52-1.16,17.07-2.88,23.67-8.77c1.35-1.21,3.07-2.53,4.82-2.82
			c6.43-1.08,11.5-4.42,16.67-7.66c12.65-7.9,17.99-19.87,21.66-32.77c0.21-0.75,0.15-1.58,0.15-2.37
			c0.01-6.35,0.23-12.71-0.06-19.05c-0.23-5.04,1.77-8.87,5.98-11.89c1.71-1.22,3.48-2.36,5.22-3.55c5.99-4.08,5.98-9.09-0.3-12.84
			c-8.22-4.92-17.27-6.14-26.67-3.67c-5.01,1.31-9.03,0.55-13.43-2.01c-4.27-2.49-9.23-5.23-14.02-5.47
			c-9.95-0.49-18.66,2.52-25.61,10.15c-6.31,6.93-14.24,12.6-21.27,19c-3.66,3.34-7.97,6.59-10.13,10.7
			c-5.47,10.41-8.85,21.37-7.56,33.33c0.72,6.64-0.07,13.42-0.4,20.14c-0.16,3.21-2.02,5.74-4.47,7.99
			c-3.88-10.34-7.59-20.24-11.33-30.14c-0.92-2.44-1.74-5-5.21-5.34c-10.37,10.36-11.7,22.17-7.27,32.41
			c1.51,3.49,3.41,6.84,5.04,10.3c1.09,2.31,1.56,3.67,1.32,4.89c-0.52,2.54-2.96,4.04-3.48,4.39c-3.05,2.02-9.72,11.39-24.73,40.09
			c-0.53-3.35-0.47-6.5,0.18-9.56c3.29-15.33,5.67-22.99,8.33-37.24c0.65-3.48,1.01-9.21,1.72-20.68
			c2.23-35.98-0.27-38.65,2.91-53.7c3.09-14.59,5.73-13.45,8.83-29.89c1.83-9.74,0.54-16.01,4.93-28.7
			c1.96-5.65,3.26-11.5,4.69-17.3c4.35-17.58,8.57-35.19,12.96-52.76c2.22-8.89,4.61-17.75,7.07-26.58
			c2.35-8.45,4.79-16.89,7.36-25.29c2.98-9.73,6.32-19.37,9.18-29.13c2.9-9.92,6.92-19.57,8.13-29.91
			c1.07-9.07,2.7-18.08,3.91-27.13c0.98-7.29,1.44-17.1,0.6-29.6c-1.24-18.3-4.46-18.76-4.14-32.35c0.32-13.71,3.43-27.3,3.43-27.3
			l0,0c7.23-21.8,24.95-49.53,26.4-51.77c-0.71-1.6-1.42-3.21-2.07-4.68c-4.02-0.79-6.87,0.12-9.78,2.47
			c-6.88,5.57-12.78,11.77-17.67,18.9c-2.52,3.67-5.46,7.22-8.82,10.25c-7.7,6.95-15.81,13.52-23.69,20.31
			c-10.09,8.69-20.25,17.33-30.12,26.23c-4.13,3.72-8.07,7.77-11.27,12.17c-4.18,5.75-8.05,11.8-11.11,18.1
			c-3.85,7.94-7.84,16.06-9.82,24.49c-3.92,16.65-6.61,33.45-12.67,49.74c-5.28,14.21-8.54,29.12-11.71,43.89
			c-2.21,10.29-2.99,20.9-1.03,31.41c1.9,10.21,1.62,24.26,8.02,40.39c4.06,10.23,8.12,15.82,13.35,31.93
			c1.62,4.99,0.38,3.45,3.42,11.67c7.85,21.23,6.62,22.9,11.98,37.17c0.57,1.53,1.52,4.8,2.49,9.24c0.64,2.94,1.17,7.54-0.1,13.53
			c-6.28-1.57-15.97-3.23-27.46-1.82c-10.75,1.32-13.46,4.15-29.51,8.26c-19.8,5.08-20.03,1.89-31.02,6.27
			c-4.97,1.98-19.12,7.83-28.58,21.96c-4.48,6.7-6.12,12.55-7.84,18.9c-1.51,5.6-9.97,36.97,1.05,55.83c0,0,6.26,10.71,6.44,21.73
			c0.02,1.13-0.18,2.23-0.18,2.23c-0.22,1.05-0.61,1.74-0.91,2.9c0,0-0.28,1.1-0.35,2.49c-0.13,2.73,1.95,7.76,4.98,8.2
			c2.07,0.3,3.84-1.71,6.77-5.07c3.59-4.12,5.54-7.79,5.64-7.98c5.02-9.44,17.69-8.98,33.42-20.4c5.58-4.05,9.06-7.79,12.65-11.66
			c4.15-4.46,10.92-13.47,17.85-26.16c6.72-12.29,8.64-25.18,1.99-38.44c-2.21-4.41-3.57-9.43-4.03-14.27
			c-0.18-1.83,0.05-4.54,1.41-7.56c2.92-6.47,9.71-9.06,12.09-9.98c8.22-3.15,21.2-3.58,26.21,3.03c2.2,2.9,1.7,5.62,0.42,16.55
			c-1.86,15.83-2.78,31.76-5.1,47.53c-6.37,43.31-7.34,92.07-10.57,104.53c0,0-2.43,9.42-4.14,18.02c-0.05,0.26-0.35,1.79-0.8,3.78
			c-0.52,2.31-0.97,4.09-1.09,4.59c-0.02,0.08-0.03,0.13-0.03,0.13c-24.62,96.19-31.1,160.97-31.1,160.97
			c-0.15,1.49-1.53,15.35-3.33,15.34c-1.21,0-1.6-6.31-4.34-15.65c-2.22-7.58-4.25-11.92-6.57-16.8
			c-6.98-14.71-9.82-30.34-12.31-46.01c-1.38-8.63-1.85-17.35-4.92-25.73c-4.95-13.53-8.93-27.39-14.64-40.64
			c-8.68-20.16-20.08-39.07-34.17-56.59c-4.87-6.05-8.89-12.67-13.67-18.78c-4.89-6.26-10.37-12.13-15.36-18.32
			c-8.03-9.97-14.06-20.86-17.61-32.9c-3.96-13.43-9.06-26.52-16.16-38.83c-4.95-8.59-10.6-16.84-15.96-25.23
			c-0.65-1.01-1.42-1.97-2.24-2.88c-10.84-12.08-21.92-23.99-32.48-36.27c-6.27-7.29-12.01-15.01-17.48-22.83
			c-4.54-6.5-7.92-13.68-12.56-20.11c-5.09-7.07-7.95-14.93-11.27-22.66c-1.11-2.58-2.29-5.16-3.78-7.56
			c-6.56-10.53-11.8-21.57-15.87-33.12c-1.38-3.91-3.62-7.59-5.75-11.24c-0.45-0.77-2.12-1.29-3.21-1.26
			c-0.58,0.01-1.39,1.37-1.63,2.23c-0.37,1.33-0.45,2.75-0.46,4.14c-0.09,6.94-0.08,13.89-0.19,20.83
			c-0.25,16.43-0.7,32.86-0.78,49.28c-0.05,11.5,0.32,23.01,0.63,34.51c0.05,1.96,0.61,3.93,1.15,5.85
			c4.5,15.91,8.94,31.84,13.62,47.71c3.18,10.77,7.92,20.97,13.71,30.81c3.27,5.56,6.45,11.29,8.59,17.26
			c5.27,14.67,9.59,29.62,14.88,44.28c7.2,19.92,13.77,40.05,23.17,59.27c5.61,11.47,12.09,22.41,20.71,32.18
			c12.8,14.51,26.05,28.64,41,41.36c4.42,3.77,8.84,7.62,12.7,11.85c11.68,12.8,24.2,24.83,37.61,36.11
			c12.57,10.58,26.03,20.44,35.57,33.66c5.78,8.01,17.56,19.83,25.18,36.68c4.78,10.55,13.03,33.42,8.1,66.11
			c-40.68-11.22-70.62-19.53-81.19-22.42c-14.49-3.96-15.66-4.07-18.24-5.44c-1.01-0.54-5.62-2.74-9.87-3.36
			c-1.16-0.17-2.36-0.27-3.59-0.29c-1.43-0.02-2.85-0.33-4.65-0.55c0-2.31-0.12-4.28,0.02-6.24c0.48-6.53,1.24-13.06,1.54-19.6
			c0.38-8.32,0.47-16.69-2.84-24.65c-1.68-4.05-5.27-4.78-8.53-1.73c-1.46,1.36-2.47,3.23-3.3,5.02
			c-2.72,5.82-2.43,12.01-2.37,18.17c0.03,2.62,0.76,5.46-2.06,8.21c-6.23-6.77-13.83-11.23-22.85-13.29
			c-9.43-2.16-18.89-4.29-28.46-5.77c-9.82-1.52-19.61-1.4-29.6,0.54c-6.72,1.3-13.75,0.91-20.9-1.7
			c-15.37-5.62-30.81-6.31-45.9,2.39c-6.58,3.79-10.66,8.34-12.73,14.92c-2.39,7.59-7.4,13.76-12.56,19.95
			c-4.85,5.82-10.77,10.83-11.58,19.25c-1.42,14.74,2.25,27.11,15.25,36.48c4.77,3.44,10.06,5.42,16.3,4.21
			c7.02-1.36,12.44-2.34,12.7-2.41c31.17-8.75,31.68-9.23,35.28-9.05c8.84,0.44,13.82,3.74,21.31,0.46c0.95-0.42,2.8-0.71,6.62-4.52
			c5.41-5.4,11.06-10.59,16.7-15.79c5.98-5.51,12.54-10.16,20.25-13.7c9.45-4.35,19.75-5.7,29.65-8.44
			c1.89-0.52,3.92-0.65,5.35-0.88c-2.31,5.39-4.48,10.47-6.67,15.54c-0.56,1.29-0.92,2.72-1.79,3.81
			c-3.65,4.59-3.46,9.67-2.48,14.84c0.49,2.6,1.51,5.15,4.57,6.02c3.21,0.91,5.99-0.3,8.21-2.43c1.03-0.99,1.89-2.17,2.6-3.38
			c3.8-6.44,7.55-12.9,11.29-19.37c3.75-6.47,9.9-8.54,17.46-5.81c2.62,0.94,5.21,1.95,7.82,2.89c10.66,3.84,21.35,7.62,31.98,11.53
			c5.3,1.95,6.41,2.45,10.58,4.11c0,0,2.42,0.97,6.73,2.63c11.64,4.48,30.84,4.88,43,16.42c5.4,5.12,8.32,11.39,7.49,12.11
			c-0.82,0.71-4.78-4.35-12.48-8.07c-11.06-5.35-21.97-4.4-25.38-4.04c-10.29,1.1-17.7,5.19-21.39,7.58
			c-2.96-1.47-5.86-2.71-8.52-4.28c-7.29-4.31-14.62-8.39-23.04-10.76c-3.46-0.98-6.57-1.26-10.1-0.64
			c-8.69,1.53-17.43,3.67-26.19,3.85c-15.58,0.33-27.06,8.13-37.69,16.67c-5.95,4.78-9.72,12.05-13.78,18.56
			c-4.6,7.37-8.09,15.33-12.7,22.7c-3.61,5.75-5.46,11.62-4.71,18.16c0.33,2.91-0.46,5.36-2.16,7.87c-1.06,1.55-1.58,3.75-1.41,5.58
			c0.2,2.21,0.21,4.97,3.5,5.8c3.08,0.78,4.88-0.87,6.47-2.91c0.38-0.48,0.8-0.94,1.27-1.35c2.92-2.6,3.8-2.52,7.21-0.48
			c3.79,2.26,7.66,4.48,11.71,6.31c6.58,2.96,13.53,3.97,20.83,2.36c2.08-0.46,4.3-0.6,6.44-0.51c4.06,0.18,7.68-0.68,11.02-2.83
			c1.24-0.8,2.82-1.14,4.66-1.84c0,5.18,0.01,9.52,0,13.86c-0.01,2.77-0.35,5.58-0.02,8.32c0.93,7.68,1.83,15.38,3.34,22.97
			c0.72,3.6,2.01,7.6,4.48,10.31c4.53,4.97,9.94,9.33,15.34,13.56c5.18,4.06,8.83,8.6,9.13,15.09c0.11,2.35,0.81,4.7,1.39,7.02
			c0.52,2.11,1.67,3.73,4.45,3.36c2.56-0.34,3.58-1.85,3.79-4.12c0.27-2.96,0.44-5.98,1.23-8.84c0.41-1.5,1.74-3.17,3.19-3.99
			c5.12-2.91,8.92-7.02,11.79-11.62c7.92-12.7,16.01-25.28,21.88-39.03c6.21-14.56,10.99-29.21,10.48-44.97
			c-0.51-15.67-3.2-30.76-14.05-43.66c-0.33-0.39-1.44-1.59-1.42-3.21c0.06-6.65,18.92-15.39,34.15-10.88
			c2.29,0.68,9.48,1.52,11.91,7.42c2.33,5.67,4.95,11.41,4.63,17.8c-0.4,8.11-0.43,16.24-0.56,24.36
			c-0.11,7.32,0.29,14.66-0.27,21.95c-1.18,15.2-2.92,30.37-4.28,45.56c-0.33,3.73-0.21,7.51-0.11,11.26
			c0.18,6.92,0.51,13.83,0.75,20.75c0.1,2.77,0.03,5.55,0.21,8.32c1.05,16.39,2.11,32.78,3.24,49.16c0.46,6.71,1.13,13.4,1.62,20.11
			c0.23,3.14,0.45,6.49,1.35,21.33c1.33,21.9,1.4,24.05,2.05,28.86c0.81,5.99,2.09,13.1,4.2,21.05c0,0,5.78,25.56,11.31,56.25
			c2.58,14.34,2.29,15.14,3.94,18.87c1.39,3.16,2.31,8.27,3.97,14.96c0.24,0.98-0.16,2.09-0.4,4.41c-1.42-2-2.07-2.92-2.72-3.84
			c-3.98-5.66-7.88-11.36-11.94-16.96c-4.91-6.76-10.13-13.33-14.88-20.17c-4.53-6.52-8.78-13.2-12.88-19.96
			c-6.08-10.04-12.15-20.09-17.79-30.33c-6.14-11.14-11.19-22.82-17.79-33.71c-7.97-13.16-17.06-25.76-25.69-38.59
			c-1.58-2.35-2.96-4.89-4.94-6.93c-6.16-6.37-12.46-12.63-18.88-18.77c-13.46-12.87-25.42-27.05-40.18-38.8
			c-10.12-8.06-19.73-16.74-30.46-24.04c-14.23-9.68-29.53-18-44-27.4c-18.34-11.91-36.39-24.21-54.39-36.55
			c-13.15-9.01-25.86-18.57-39.09-27.48c-8.87-5.97-18.32-11.22-27.48-16.82c-2.51-1.53-4.74-3.55-7.42-4.74
			c-14.99-6.62-29.95-13.33-45.19-19.46c-15.84-6.37-32-12.05-47.94-18.2c-2.71-1.05-5.49-2.56-7.46-4.52
			c-6.44-6.4-12.45-13.16-18.78-19.64c-2.13-2.18-4.48-4.45-7.24-5.76c-2-0.95-5.23-1.12-7.25-0.29c-2.76,1.14-2.86,3.92-2.32,6.76
			c1.32,6.89,4,13.3,7.02,19.68c5.69,12,11.02,24.14,16.62,36.17c6.16,13.22,15.31,24.83,24.07,36.6
			c9.75,13.1,19.97,25.89,30.01,38.8c9.2,11.83,19.7,22.65,31.07,32.72c10.34,9.16,19.56,19.1,26.43,30.68
			c5.62,9.46,12.62,17.99,19.63,26.54c4.16,5.07,8.36,10.1,12.51,15.17c2.71,3.32,4.92,7.11,8.14,9.92
			c7.04,6.14,14.31,12.11,22,17.55c5.97,4.22,12.28,8.49,19.17,11.08c20.8,7.8,41.92,14.89,63,22.07
			c14.38,4.9,28.93,9.38,43.33,14.23c17.04,5.74,33.89,11.97,51.04,17.42c10.4,3.31,19.91,8.19,28.36,14.17
			c11.41,8.08,22.06,17.2,32.14,26.68c13.72,12.9,26.6,26.56,39.82,39.9c0.72,0.73,1.35,1.56,1.91,2.4
			c5.89,8.79,11.88,17.51,17.58,26.4c5.81,9.05,11.15,18.35,17.01,27.37c0,0,1.98,3.43,3.88,7c7.32,13.77,13.46,50.83,17.79,70.93
			c2.96,13.72,2.56,8.56,11.67,43.89c3.09,11.97,5.99,23.98,8.8,36.01c3.57,15.31,6.44,30.77,10.57,45.95
			c3.24,11.9,7.79,23.48,10,35.67c1.31,7.22,3.89,14.23,5.69,21.38c4.71,18.72,9.16,37.5,14.01,56.2
			c3.95,15.23,8.05,30.43,12.58,45.52c3.79,12.61,8.17,25.08,12.55,37.53c1.65,4.69,3.53,9.45,6.25,13.67
			c3.82,5.92,10.49,10.79,23.67,20.64c9.86,7.37,6.09,3.75,17.7,12.15c5.28,3.82,6.57,4.93,7.49,4.44
			c3.04-1.62-3.06-17.84-11.65-39.97c-11.05-28.48-13.92-35.04-18.44-46.79c-8.73-22.68-11.87-34.1-29.03-86.59
			c-0.72-2.19-2.48-8.33-5.22-16.33c0,0,0-0.01,0-0.01c-1.08-3.43-3.04-9.62-5.56-17.31c-4.65-14.19-44.06-107.1-39.93-152.54
			c1.07-11.76,1.61-17.65,3.74-22.41c0,0,8.77-19.54,9.21-26.64c0,0,0-0.03,0.01-0.08c0.01-0.08,0.02-0.23,0.03-0.41
			c0.02-0.3,0.05-0.72,0.09-1.22c0.13-1.73,0.36-4.5,0.74-7.94c0.22-1.99,0.54-4.29,1.08-7.53c1.93-11.64,6.15-32.59,15.85-57.76
			c0.79-2.06,3.47-7,5.75-13.9c5.34-16.12,14.32-30.65,24.1-44.66c7.9-11.31,16.78-22.16,26.32-32.35
			c10.12-10.8,21.18-20.93,32.48-30.7c9.58-8.28,20.19-15.56,30.18-23.45c5.4-4.26,10.46-8.89,16.61-14.15
			c6.86,4.33,13.41,8.47,19.97,12.6c1.07,0.67,2.18,1.3,3.27,1.94c5.79,3.44,11.75,6.55,17.89,9.5c11.86,5.7,24.2,8.04,37.38,7.61
			c8-0.26,13.94-0.13,15.51-0.2c22.19-1.06,44.45,4.78,55.43,7.67c9.38,2.46,19.08,9.44,41.28,13.69c2.07,0.4,4.03,1.39,5.99,2.21
			c11.2,4.64,22.31,9.48,33.61,13.93c11.31,4.46,27.03,9.63,35.68,3.46c0.82-0.58,3.54-2.53,3.83-5.44
			C2000.31,1808.89,1997.13,1806.25,1993.93,1803.29z M1559.34,1663.41c2.57,2.91,4.81,6.11,6.86,9.36
			c2.79,4.43,6.57,7.73,11.45,10.19c2.3,1.16,4.19,3.01,6.77,4.92c-4.92,1.86-8.8,3.33-13.05,4.94c-3.62-2.75-6.83-6.12-8.41-10.57
			c-2.77-7.79-6.44-15.09-12.81-21.04c-0.23-0.22-0.13-0.74-0.27-1.83C1554.53,1658.35,1557.11,1660.9,1559.34,1663.41z
			 M1557.41,1633.99c4.74-8.85,6.56-18.43,8.32-28.01c1.69-9.17,6.82-15.62,16.51-18.95c11.55-3.98,22.79-3.62,33.88,1.35
			c8.6,3.86,17.61,6.41,27.11,7.72c4.43,0.61,8.74,2.12,13.01,3.45c3.19,0.99,5.4,3,6.75,6c2.74,6.08,6.51,11.43,12.24,15.73
			c4.88,3.66,8.23,8.55,9.82,14.35c0.51,1.86,1.89,3.52,2.82,5.3c1.92,3.65,1.12,5.13-3.11,5.73c-1.06,0.15-2.16,0.15-3.24,0.17
			c-8.38,0.09-15.41,2.99-21.35,8.38c-4.13,3.75-8.94,5.47-15.04,5.83c-11.7,0.69-22.78-1.44-33.71-4.52
			c-5.3-1.5-10.47-3.79-15.24-6.42c-6.96-3.84-13.25-8.75-21.58-10.45c10.17-2.36,19.56-0.55,28.41,3.61
			c10.49,4.92,10.42,5.05,22.92,2.84c-8.8-0.04-16.5-3.25-24.48-6.13c-9.71-3.5-20.11-4.56-30.61-2.49
			c-2.48,0.49-5.05,0.61-8.73,1.03c1.71-1.99,2.59-3.27,3.74-4.3c4.97-4.42,9.9-8.89,15.07-13.1c6.85-5.57,14.81-8.66,24.15-8.86
			c8.98-0.19,17.57,0.39,25.66,4.62c6.2,3.24,13.04,3.58,19.99,1.08c-8.63,1.03-15.8-2.75-23.26-5.53
			c-9.83-3.66-19.57-3.43-29.8-0.9c-11.15,2.77-19.67,8.74-27.65,15.87c-3.82,3.41-7.19,7.4-13.12,9.57
			C1557.12,1635.63,1557.02,1634.71,1557.41,1633.99z M1603.11,1055.46c-0.45-10.77,3.27-20.28,9.69-29.04
			c1.3-1.78,2.96-3.65,4.95-4.62c5.43-2.64,8.61-7.1,12.22-11.31c3.6-4.21,7.12-8.55,11.26-12.29c8.32-7.51,22.71-8.14,31.94-1.64
			c5.08,3.58,10.69,3.76,16.66,3.03c4.48-0.55,9.01-0.87,13.53-1.12c1.47-0.08,3.06,0.16,4.45,0.61c2.66,0.87,5.41,1.9,5.78,4.99
			c0.36,2.9-2.15,4.09-4.24,5.47c-0.52,0.35-1.14,0.57-1.7,0.87c-6.72,3.69-10.14,8.83-9.24,16.29c0.5,4.12-0.09,8.34,0.33,12.47
			c0.59,5.76-0.93,11.03-3.53,16.12c-2.12,4.13-4.22,8.3-6.79,12.19c-5.25,7.96-12.97,13.2-22.7,15.81
			c-3.77,1.01-7.28,2.07-10.2,4.8c-7.17,6.72-16.19,8.54-25.65,5.75c-5.75-1.7-11.34-2.1-17.17-2.03c-1,0.01-2.01-0.19-3.46-0.34
			c3.79-6.38,10.05-9.54,16.07-12.18c10.07-4.43,18.84-10.46,27.75-16.4c1.92-1.28,3.93-2.46,5.85-3.75
			c1.58-1.06,2.87-2.3,2.37-5.08c-3.8,2.71-7.17,5.01-10.41,7.46c-9.93,7.49-21.18,13.01-32.44,18.53c-1.51,0.74-3.22,1.15-4.83,1.7
			c4.27-5.62,10.9-13.91,19.83-23.29c12.05-12.66,20.73-19.39,20.39-19.78c-0.42-0.47-13.86,8.35-26.49,22.08
			c-6.95,7.56-11.81,14.61-14.99,19.7c0,0,0,0,0,0c4.26-10.88,9.1-18.84,12.64-24.02c6.59-9.63,10.14-11.7,21.76-26.65
			c7.41-9.52,14.09-19.12,13.73-19.38c-0.18-0.13-3.02,2.91-8.32,9.29c-15.73,18.94-15.3,16.25-21.25,24.38
			c-8.14,11.1-16.95,27.02-22.37,35.54c-1.93,3.03-4.3,5.82-7.3,8.34c0.68-3.5,1.8-6.98,1.93-10.49
			C1603.44,1070.14,1603.42,1062.79,1603.11,1055.46z M1612.58,1080.72c0.34,0.35,0.68,0.69,1.02,1.04c0,0,0,0,0,0
			C1613.26,1081.41,1612.92,1081.06,1612.58,1080.72z M1501.16,1082.49c-2.88,6.14-10.05,22.17-28.48,38.61
			c-11.39,10.15-19.34,13.71-22.65,14.96c-0.18,0.07-0.47,0.16-0.9,0.33c-6.86,2.61-11.32,6.73-14.15,10.09
			c-4.26,6.62-5.74,7.9-6.24,7.67c-1.03-0.48,2.92-6.93,1.66-15.34c-0.43-2.9-1.03-3-4.1-10.55c-3.01-7.39-5.46-12.11-6-17.85
			c-1.14-12.26-0.35-24.56,2.38-36.65c2.29-10.16,5.7-20.27,12.3-28.6c5.72-7.22,14.29-12.14,23.86-15.31
			c-6.33,9.86-14.21,18.77-17.99,29.69c-3.71,10.74-8.22,21.36-9.04,32.75c-0.82,11.43-1.18,22.89-1.74,34.34
			c0.49,0.03,0.98,0.07,1.46,0.1c0.31-4.7,1.08-9.42,0.85-14.09c-0.97-19.44,4.34-37.77,11.6-55.69
			c3.79-9.36,10.12-17.43,17.72-24.68c5.26-5.02,11.45-5.66,18.68-4.59c-12.5,25.86-14.95,32.06-14.5,32.28
			c0.53,0.26,5.84-7.36,10.21-16.37c3.72-7.65,3.78-10.16,6.87-13.35c4.77-4.92,11.67-6.2,16.89-6.49
			c-0.67,1.46-1.19,2.59-1.71,3.71c-2.17,4.65-3.43,9.4-1.91,14.47c0,0-0.23,2.39-1.89,9.69c-3.6,15.91-16.06,34.14-18.99,38.34
			c-6.23,8.92-12.47,16.06-19.06,23.6c-7.01,8.02-11.45,12.44-11.15,12.72c0.41,0.39,9.65-7.46,18.55-16.96
			c0.29-0.31,6.16-6.59,10.64-12.4c12.94-16.8,20.4-37.71,23.31-46.64C1505.4,1060.69,1506.3,1071.54,1501.16,1082.49z
			 M1336.9,1427.9c-6.92-3.42-14.17-5.67-22.06-6.54c-11.11-1.22-22.26-0.84-32.76,2.05c-15.7,4.33-30.97,10.01-46.39,15.19
			c-2.36,0.79-4.59,1.93-6.65,3.39c12.84-3.93,26.31-5.51,38.64-11.24c17.83-8.29,36.92-9.61,56.23-4.77
			c4.05,1.01,8.79,1.75,12.24,6.23c-4.27,0-7.62,0.05-10.97-0.01c-14.09-0.27-26.74,3.78-38.65,10.44
			c-4.77,2.67-9.96,4.73-14.88,7.41c3.78-0.4,7.43-1.29,10.95-2.86c5.84-2.6,11.86-4.89,17.54-7.75c7.6-3.83,15.35-2.6,23.81-1.68
			c-1.48,2.68-3.97,3.12-6.05,3.62c-7.61,1.8-14.5,5.07-21.57,8.06c-4.3,1.82-7.53,4.54-10.67,7.55
			c-5.69,5.43-11.17,11.07-17.16,16.21c-7.21,6.18-15.38,9.72-25.89,7.74c-9.74-1.84-18.02,2.67-26.22,6.77
			c-1.79,0.9-3.78,1.66-5.78,1.99c-5.1,0.85-10.28,1.3-15.39,2.13c-7.7,1.25-13.79-0.57-18.96-6.3c-7.52-8.33-11.12-17.48-8-28.03
			c1.08-3.65,3.59-7.36,6.53-10.05c8.52-7.76,14.24-16.79,17.83-27.25c2.36-6.89,8.19-10.93,15.68-12.91
			c2.29-0.61,4.61-1.08,6.93-1.59c5.35-1.17,10.58-1.35,15.97,0.28c6.75,2.05,13.7,3.55,20.52,5.42c6.35,1.74,12.46-0.3,18.64-0.83
			c10.36-0.9,20.52-0.71,30.83,1.22c6.33,1.18,12.65,2.13,18.88,3.84c7.28,1.99,13.09,5.99,18.96,10.03
			c0.69,0.47,0.86,1.58,1.68,3.2C1338.79,1428.39,1337.74,1428.32,1336.9,1427.9z M1341.19,1470.75c-0.58,1.03-1.44,2.07-2.46,2.7
			c-0.75,0.46-2.22,0.61-2.95,0.23c-0.67-0.35-1.36-1.89-1.05-2.4c3.92-6.48,3.5-15,10.91-19.8c1.98-1.29,4.24-2.21,6.37-3.3
			c0.37,0.32,0.74,0.65,1.11,0.98C1349.15,1456.36,1345.22,1463.58,1341.19,1470.75z M1355.95,1430.89c-3.05-3.36-3.15-6.81-3.33-10
			c-0.33-5.69-0.18-11.41-0.01-17.11c0.09-3.11,0.3-3.1,3.27-5.69C1360.15,1405.36,1360.25,1414.83,1355.95,1430.89z
			 M1520.7,1626.38c-1.3-1.54-2.06-3.22-2.25-4.98c-0.19-1.82,0.4-2.41,0.8-4.56c0.84-4.52-0.96-6.16-0.76-12.36
			c0.05-1.64,0.22-2.95,0.33-3.68c1.34,0.14,3.18-0.2,3.96,0.48c10.82,9.56,17.45,20.86,16.59,35.09c-0.16,2.62-0.9,4.99-3.77,7.12
			C1530.54,1637.69,1525.53,1632.1,1520.7,1626.38z M1744.51,1089.55c-0.14,2.96-0.31,9.32-0.91,20.29
			c-0.55,10.18-0.95,14.64-1.82,28.45c-0.46,7.29-1.22,14.57-1.29,21.86c-0.13,12.87,0.4,25.76,0.18,38.63
			c-0.11,6.72-1.09,13.43-1.95,20.12c-0.93,7.25-2.09,14.48-3.28,21.69c-0.87,5.26-1.88,10.5-2.95,15.73
			c-1.52,7.39-2.85,14.83-4.79,22.14c-3.41,12.88-6.5,25.89-11.04,38.44c-5.76,15.94-14.8,30.27-28.44,41.98
			c-8.18,7.03-15.42,14.99-23.43,22.2c-5.38,4.84-11.79,8.74-17.03,13.7c-9.31,8.8-18.38,17.84-26.95,27.25
			c-4.95,5.43-8.8,11.73-13.03,17.71c-5.05,7.15-10.48,14.13-14.82,21.63c-5.36,9.27-9.67,19.04-14.59,28.53
			c-4.45,8.55-8.78,17.18-13.78,25.46c-4.19,6.93-8.09,13.04-14.01,19.88c-5.23,6.06-13.59,14.38-26.15,22.25
			c2.58-4.73,4.91-8.84,6.86-12.22c5.03-8.7,6.65-11.14,12.04-20.35c2.34-4,4.5-8.1,6.84-12.11c3.47-5.94,7.32-11.71,10.47-17.8
			c4.34-8.41,8.18-17.04,12.23-25.58c3.01-6.35,6.03-12.7,9.05-19.04c2.6-5.45,5.16-10.91,7.82-16.33c4.08-8.31,8-16.69,12.45-24.83
			c2.79-5.1,6.64-9.71,9.65-14.72c3.43-5.72,6.46-11.63,9.64-17.48c0.48-0.88,0.67-1.91,1.21-2.76c7.18-11.12,11.05-23.48,15.8-35.5
			c1.74-4.42,2.13-9.29,3.93-13.68c2.43-5.9,5.59-11.55,8.5-17.28c4.55-8.96,9.21-17.86,13.69-26.85c1.34-2.69,2.43-5.53,3.26-8.39
			c1.09-3.73,3.28-6.22,7.26-7.75c9.16-3.51,18.21-7.26,27.27-10.98c1.79-0.73,2.19-0.44,4.53-1c7.72-1.84,14.22-3.39,14.33-5.57
			c0.07-1.45-2.75-1.68-5.78-5.33c-1.68-2.03-2.52-3.79-2.96-5.27c-2.84-9.51-8.19-17.87-14.82-25.46c-1.48-1.7-2.32-3.23-2.42-4.85
			c-0.11-1.83,0.71-3.25,0.98-3.75c2.19-3.93,7.25-16.84,17.39-42.67c0.01-0.03,0.05-0.13,0.06-0.16
			c10.73-27.39,11.75-41.15,20.59-68.78c4.36-13.61,8.24-23.19,9.56-26.39c4.93-11.99,9.79-21.75,13.53-28.77
			C1747.72,1060.62,1745.05,1078,1744.51,1089.55z M1662.57,1162.08c7.61-14.14,18.74-26.14,28.39-39.04
			c7.7-10.29,14.89-20.91,22.57-31.22c10.43-13.99,12.58-15.55,21.45-27.54c8.44-11.41,14.75-21.02,18.69-27.23
			c-2.38,5.24-5.23,11.65-8.38,19c-6.18,14.43-10.68,25-15.5,39.11c-2.86,8.38-5.08,15.65-6.31,19.96
			c-1.96,6.84-3.87,13.69-5.79,20.54c-2.85,10.2-5.78,20.56-6.7,23.71c-2.97,10.13-8.34,25.25-18.81,45.29
			c-2.64-1.8-4.77-2.79-6.23-4.32c-8.72-9.16-20.14-13.39-32.77-15.57c-0.61-0.11-1.19-0.39-2.19-0.72
			C1654.89,1176.65,1658.66,1169.34,1662.57,1162.08z M1570.91,1211.09c2.26,0,4.55-0.22,6.77,0.04c8.03,0.94,14.65-1.5,21-5.95
			c11.3-7.92,24.67-12.07,37.93-16.3c1.45-0.46,3.26-0.14,3.26-0.14s7.79-0.17,15.1,1.29c5.4,1.07,16.57,4.14,27.19,12.65
			c3.53,2.83,17.01,13.39,21.19,27.46c0.69,2.31,1.7,6.52,5.4,10.34c3.09,3.19,6.14,4.11,5.81,5.33c-0.4,1.46-5.24,1.67-13.35,2.81
			c-0.13,0.02-0.4,0.04-0.74,0.13c-1.15,0.3-2.33,1.19-11.4,5.23c-2.14,0.95-4.24,1.97-6.42,2.84c-5.93,2.36-11.95,4.54-17.82,7.01
			c-4.39,1.85-8.9,2.14-13.29,0.8c-10.44-3.19-20.96-6.3-31.02-10.34c-3.85-1.55-6.9-5.27-9.67-8.46c-4.71-5.43-5.16-6.5-9.67-11.64
			c-8.8-10.04-18.25-16.03-22.51-18.69C1575.53,1213.54,1572.81,1212.07,1570.91,1211.09z M1551.25,1215.79
			c16.06-3.73,33.17,6.96,41.77,16.17c5.12,5.48,4.62,8.03,11.58,15.63c4.4,4.8,4.27,9.69,2.53,15.01c-0.77,2.37-1.92,4.63-3.4,8.15
			c-2.88-3.9-5.16-6.5-6.84-9.39c-2.83-4.83-6.48-8.94-11.52-11.83c-9.01-5.17-15.98-12.1-21.16-20.5
			c-3.15-5.11-7.58-8.5-13.57-10.33c-1-0.31-1.93-0.77-3.77-1.51C1547.87,1216.78,1549.37,1216.23,1551.25,1215.79z
			 M1540.24,1221.58c5.44,1.01,9.21,2.83,11.51,4.17c5.21,3.04,9.28,7.94,17.2,17.63c2.81,3.44,4.21,5.15,4.93,6.25
			c4.93,7.52,6.77,14.91,7.26,21.44c0.76,10.06,1.07,20.17,1.09,30.26c0.02,10.32,4.29,19.63,7.88,29.18
			c-0.97-4.22-1.74-8.48-2.96-12.64c-3.08-10.54-2.36-21.21-1.89-31.91c0.15-3.29-0.39-6.63-0.89-9.91
			c-1.11-7.2-2.4-14.38-3.69-22.03c5.8,2.32,8.01,7.02,10.99,10.95c3.92,5.19,7.54,10.59,11.1,16c3.23,4.92,6.42,9.88,9.27,14.99
			c7.53,13.52,8.92,27.92,6.8,42.75c-0.36,2.55-0.86,5.08-1.17,7.63c-0.72,5.88-4.09,8.95-5.96,12.06
			c-6.63,11.01-5.69,21.53-7.39,21.44c-1.94-0.11-0.23-13.64-6.94-16.82c-1.57-0.74-4.35-1.83-9.47-0.62
			c-8.84,2.1-15.7-0.88-21.89-6.08c-6.15-5.16-10.21-11.77-14.21-18.34c-7.48-12.28-8.67-25.47-6.44-39.16
			c0.51-3.1,0.43-6.3,0.31-9.45c-0.69-18.38,10.04-23.48,11.12-39.8c0.32-4.8,0.57-9.46-1.9-14.7
			C1551.13,1226.96,1543.72,1223.11,1540.24,1221.58z M1551.35,1240.38c0.6,2.94,0.11,5.32-0.06,6.14
			c-2.78,12.89-10.82,25.71-11.24,33.2c-0.55,9.85-2.35,19.67-2.47,29.52c-0.14,11.15,2.14,21.94,8.2,32.02
			c5.14,8.57,10.4,16.88,18.78,22.83c-4.51,9.82-9.43,19.12-13.05,28.82c-3.77,10.09-6.78,20.48-9.2,30.93
			c-2.64,11.41-4.75,22.96-6.13,34.55c-1.6,13.39-2.12,26.88-3.16,40.33c-0.53,6.92-0.66,13.91-1.91,20.72
			c-0.86,4.67-2.57,7.64-5.15,13.37c-2.63,5.84-6.19,13.64-12.76,22.67c-3.18,4.38-5.87,7.29-11.23,13.12
			c-6.88,7.47-7.99,7.72-8.53,7.47c-1.85-0.85,0.99-8.4,3.12-19.11c1.6-8.04,0.54-7.46,3.18-40.29c0.87-10.87,1.55-18.57,1.95-23.11
			c1.92-21.3,3.44-44.61,6.49-91.24c0.52-7.99,0.42-9.14,0.83-11.86c3.12-20.46,4.84-32.38,7.65-48.18
			c3.96-22.26,1.25-17.25,5.53-42.84c1.96-11.69,2.05-11.78,2.59-14.59c0.63-3.29,2.64-13.7,4.51-26.36
			c1.7-11.46,2-15.97,3.49-20.23c0.58-1.65,1.53-3.55,1.64-3.77c1.94-3.99,2.91-5.99,4.15-6.47
			C1542.13,1226.64,1549.81,1232.88,1551.35,1240.38z M1590.1,1108.25c4.83-0.49,8.22,2.18,11.45,4.7
			c8.77,6.84,9.31,7.73,12.25,18.02c0.55,1.93,0.31,4.04,0.43,6.07c-0.52,0.18-1.04,0.36-1.57,0.54
			c-7.71-6.62-18.12-6.87-27.49-10.41c-0.24-4.31-0.6-8.98-0.71-13.66C1584.39,1110.31,1586.42,1108.62,1590.1,1108.25z
			 M1572.93,1082.56c-2.25-5.58-1.06-11.01,1.51-16.48c7.01,7.89,8.58,17.23,10,26.59c0.35,2.31,0.4,4.77-2.94,6.52
			c-1.63-2.95-3.21-5.68-4.65-8.48C1575.46,1088.03,1574.05,1085.34,1572.93,1082.56z M1638.6,630.06
			c0.58,0.33-6.79,10.65-13.49,29.5c-2.19,6.16-4.38,12.42-5.82,21c-1.83,10.88-1.87,22.02-1.87,25.92v0
			c1.14,7.84,2.61,15.65,3.94,23.47c1.77,10.34,0.27,20.62-1.13,30.83c-1.37,10.01-2.91,20.07-5.47,29.87
			c-3.96,15.23-8.87,30.25-13.34,45.36c-4.18,14.15-8.61,28.24-12.41,42.48c-3.74,14.05-6.73,28.26-10.23,42.37
			c-2.64,10.62-5.74,21.15-8.32,31.79c-3.23,13.3-4.12,29.34-10.08,52.02c-0.77,2.92-2.22,8.3-3.1,8.18
			c-2.12-0.29,1.52-32.74-0.96-57.49c-0.1-1.01,0-2.53-0.44-4.74c-1.8-9.08-0.92-18.15-0.24-27.25c0.43-5.8-0.03-6.52-0.01-11.3
			c0.01-3.86,0.08-23.5,1.73-40.13c0.74-7.42,4.38-24.31,11.67-58.07c0.67-3.09,2.2-10.2,4.08-19.82
			c1.25-6.42,2.48-12.86,3.54-19.31c2.67-16.21,9.23-31.26,15.43-46.51c10.28-25.28,10.42-30.86,13.67-40.03
			c0.8-2.07,1.9-4.8,3.27-8C1621.73,650.63,1637.76,629.58,1638.6,630.06z M1239.86,931.28c2.85,5.74,4.51,9.94,5.85,13.16
			c0,0,2.21,5.31,9.13,19.55c12.39,25.51,30.23,50.39,30.23,50.39c10.84,15.12,17.45,21.84,24.25,30
			c3.37,4.05,7.73,7.39,11.21,11.38c3.49,4,6.67,8.27,9.55,12.67c5.44,8.32,11.34,16.49,15.61,25.3
			c5.15,10.65,9.61,21.71,12.93,32.95c4.81,16.3,13.71,30.22,25.32,43.07c5.49,6.08,10.13,12.8,15.05,19.29
			c5.19,6.84,10.2,13.79,15.39,20.63c5.56,7.32,10.53,14.92,14.41,23.13c4.73,10,9.93,19.83,14.38,29.93
			c5.75,13.08,10,26.65,13.01,40.45c1.64,7.54,1.51,15.39,2.81,23.01c2.05,12.04,4.19,18.26,4.88,20.24
			c2.84,8.15,5.64,13.06,7.72,17.25c4.03,8.13,7.05,16.97,6.36,17.28c-0.51,0.24-3.16-4.32-6.8-10.41
			c-1.2-2.01-13.02-21.75-22.92-36.69c-2.8-4.22-8.68-10.66-14.27-20.48c-4.34-7.62-10.15-14.19-15.34-21.21
			c-3.89-5.27-5.92-9.56-7.29-11.91c-16.62-28.6-37.56-57.85-49.62-79.19c-0.8-1.41-1.81-4.71-4.82-8.29
			c-4.38-5.21-7.83-10.82-10.76-16.81c-1.94-3.96-4.67-7.59-6.95-11.4c-7.48-12.5-15.02-24.97-22.35-37.54
			c-3.96-6.78-7.51-13.77-11.33-20.62c-1.87-3.35-3.85-6.65-5.92-9.9c-9.81-15.45-18.56-36.56-20.69-41.53
			c-16.33-38.12-26.79-66.86-27.34-66.67c0,0,0,0,0,0c-1.16-3.75-2.32-7.51-3.48-11.26c-5.62-18.24-8.73-25.98-12.17-39.5
			c-1.45-5.71-4.46-17.54-3.11-17.99C1233.88,919.21,1237.42,926.36,1239.86,931.28z M1429.82,1533.03c3.77,5.22,6.11,11,6.91,17.18
			c0.87,6.69,1.97,13.47,1.66,20.15c-0.32,6.84-1.22,13.8-4.69,20.17c-1.64,3.02-2.15,5.44-3.19,7.8
			c-9.7,21.84-13.82,32.83-20.48,42.75c-2.18,3.25-4.13,6.11-7.49,9.29c-3.32,3.14-4.42,3.18-6.18,5.58
			c-3.98,5.42-3,11.53-4.02,11.58c-0.48,0.02-1.2-1.29-2.29-7.07c-0.02-1.28-0.16-3.18-0.8-5.38c-0.77-2.66-2.36-6.05-8.38-12.01
			c-6.66-6.6-7.64-6.6-11.48-10.46c-2.83-2.85-4-6.42-4.49-10.32c-0.91-7.28-2.58-14.5-3.3-21.79c-0.5-5.1-0.06-10.3,0.17-15.44
			c0.32-7.35,0.98-14.67,4.37-21.5c0.9-1.8,1.59-3.75,2.82-5.35c7.37-9.65,16.05-18.17,26.75-24.81c1.58-0.98,3.51-1.62,5.37-2.03
			c7.15-1.57,14.35-2.96,20.82-6.41c0.49-0.26,1.25-0.09,1.57-0.1C1425.92,1527.99,1427.96,1530.46,1429.82,1533.03z
			 M1468.35,1499.14c6.94,3.72,11.33,9.62,10.73,10.32c-0.8,0.92-8.76-9.24-22.05-10.5c-12.32-1.17-22.28,4.22-24.38,5.45
			c-4.32,2.54-10.48,7.36-11.34,10.53c-0.08,0.28-0.38,1.53-1.43,2.64c-0.81,0.85-1.87,1.41-3.21,1.8
			c-2.68,0.77-5.33,1.84-8.08,2.12c-10.37,1.06-18.85,5.41-26.1,12.02c-8.15,7.44-15.63,15.39-21.15,24.72
			c-1.03,1.74-2.32,3.52-2.65,5.4c-0.39,2.28-4.82,8.22-10.67,12.11c-11.51,7.65-26.78,3.13-29.23,2.41
			c-5.27-1.56-10.86-4.03-10.86-4.03c-4.09-2.65-7.05-2.83-9-2.5c-1.88,0.32-4.14,1.33-7.49,2.83c-2.96,1.32-4.12,2.04-4.58,1.61
			c-0.69-0.64,1.29-2.89,2.5-6.46c1.34-3.97,0.45-5.73,0.83-10.09c0.54-6.13,3.03-10.69,3.83-12.13c2.48-4.45,6.68-9.2,9.15-12.91
			c0.79-1.18,1.35-2.18,1.49-2.45c0.9-1.66,1.16-2.63,4.04-7.49c8.21-13.83,13.19-17.11,16.43-20.54c2.65-2.81,7.08-4.59,11.08-5.84
			c6.1-1.9,12.46-3.2,18.81-4.27c7.85-1.33,15.76-2.49,23.71-3.13c9.69-0.78,18.15,2.19,25.79,7.84c5.13,3.8,10.96,6.81,16.77,10.35
			c0.65-0.54,1.64-1.05,2.17-1.83c1.87-2.72,4.05-4.89,6.49-6.58c5.19-3.59,13.53-4.83,18.2-4.94
			C1453.41,1495.5,1460.74,1495.06,1468.35,1499.14z M1023.36,1489.4c6.02,7.74,14.45,12.31,23.91,15.7
			c15.3,5.47,30.75,10.66,45.71,16.83c15.95,6.58,32.33,12.55,46.9,21.62c21.06,13.12,41.54,26.96,61.74,41.22
			c26.54,18.73,52.86,37.81,81.45,54.03c16.56,9.4,32.27,19.96,46.19,32.61c9.2,8.37,18.95,16.24,28.02,24.73
			c11.76,11.01,23.23,22.29,34.52,33.72c3.58,3.62,6.38,7.95,9.15,12.17c9.14,13.92,18.42,27.77,27.01,41.98
			c4.17,6.9,6.64,14.65,10.37,21.8c3.8,7.29,8.17,15.93,14.25,25.35c12.12,18.79,23.06,28.72,22.16,29.56
			c-0.72,0.67-8.28-5.25-14.99-12.47c-6.82-7.34-10.46-13.98-12.04-15.98c-10.24-12.97-20.76-25.69-32.46-37.65
			c-10.89-11.14-23-20.92-35.45-30.43c-12.26-9.37-25.18-18.1-36.75-28.13c-15.18-13.16-32.54-23.57-48.88-35.26
			c-15.58-11.14-32.18-20.63-48.99-30.01c-11.04-6.16-21.35-13.48-31.67-20.66c-11.54-8.03-22.88-16.31-33.98-24.85
			c-6.27-4.83-11.62-10.66-17.82-15.58c-14.07-11.14-27.88-22.64-42.86-32.66c-7.36-4.92-13.34-11.04-20.3-16.24
			c-8.26-6.17-14.02-11.02-16.09-12.63c-4.75-3.71-10.92-8.55-18.89-14.9c-6.87-5.41-14.41-12.05-22.06-20.09
			c-8.55-8.99-15.33-17.74-20.66-25.52C1021.69,1488.22,1022.77,1488.65,1023.36,1489.4z M1571.5,1955.09
			c0.91,12.33,1.4,10.41,1.34,15.21c-0.35,27.45-15.57,30.66-14.51,52.12c0.34,6.9,3.13,30.92,3.39,33.54
			c0,0.02,0.02,0.19,0.04,0.42c0.06,0.54,0.15,1.42,0.29,2.51c0.15,1.21,0.36,2.68,0.64,4.34c1.06,6.27,2.44,11.12,3.42,14.5
			c12.46,43.04,18.69,64.56,32,105.05c1.79,5.45,2.67,8.18,3.65,11.33c1.49,4.77,2.2,7.3,3.24,10.44c1.33,4.01,2.45,6.89,2.8,7.82
			c4.55,12.05,15.5,47.55,27.28,79.54c10.1,27.43,15.15,41.14,21.63,56.12c4.95,11.44,11.72,26.26,9.57,27.46
			c-0.86,0.48-2.42-1.65-7.07-5.65c-10.04-8.63-14.31-8.58-24.51-17.4c-2.71-2.35-5.39-3.36-6.52-6.2
			c-4.43-11.17-9.11-22.28-12.97-33.63c-3.53-10.4-6.24-21.05-9.09-31.63c-1.76-6.54-3.01-13.19-4.66-19.75
			c-4.14-16.42-8.42-32.81-12.55-49.23c-3.45-13.69-6.68-27.43-10.18-41.12c-1.97-7.72-4.49-15.32-6.42-23.05
			c-4.06-16.21-7.87-32.48-11.84-48.71c-1.98-8.13-4.09-16.23-6.12-24.35c-2.76-11.01-5.49-22.03-8.24-33.05
			c-3.62-14.5-7.32-28.98-10.81-43.51c-2.53-10.53-2.36-11.67-5.01-23.32c-3.91-17.13-5.86-25.7-8.16-31.22
			c-5.01-12.02-6.62-8.73-17.42-29.28c0,0-6.51-12.42-13.15-22.5c-1.38-2.09-2.71-4.01-4.13-5.91c-0.39-0.53-0.9-1.2-1.53-2.01
			c-5.33-6.88-12.44-14.18-12.44-14.18c0,0-7.93-8.15-26.92-25.09c-0.01-0.01-0.02-0.02-0.04-0.03c-0.17-0.15-0.86-0.77-0.84-0.78
			c0,0,0,0,0,0c-7.22-6.75-11.5-11.62-15.83-15.45c-6.82-6.02-14.1-11.61-21.36-17.19c-13.78-10.59-29.74-17.32-46.78-22.29
			c-10.69-3.12-21.14-6.96-31.68-10.51c-7.09-2.39-14.16-4.84-21.25-7.25c-14.38-4.88-28.73-9.85-43.17-14.59
			c-8.32-2.73-17.02-4.6-25.15-7.73c-12.71-4.89-26.2-8.44-37.11-16.73c-6.32-4.8-12.86-9.39-18.84-14.52
			c-3.91-3.35-7.09-7.44-10.4-11.34c-5.84-6.87-11.65-13.77-17.24-20.81c-4.82-6.09-9.39-12.35-13.92-18.62
			c-5-6.94-9.34-14.34-14.87-20.89c-4.73-5.6-10.61-10.42-16.25-15.33c-10.54-9.19-19.46-19.62-28.3-30.13
			c-2.24-2.66-3.93-5.7-6.11-8.4c-4.1-5.09-8.61-9.92-12.53-15.13c-9.32-12.39-18.75-24.72-27.41-37.5
			c-4.3-6.34-7.07-13.57-10.38-20.46c-4.45-9.24-8.82-18.53-13.11-27.83c-2.25-4.87-4.27-9.82-5.86-15.02
			c3.84,1.25,5.39,4.3,6.66,7.17c5.91,13.37,14.29,18.72,18.31,24.33c14.03,19.55,32.04,28.21,54.37,46.83
			c1.72,1.44,3.72,3.1,3.72,3.1c2.63,2.2,6.48,5.41,10.95,9.17c9.31,7.82,18.62,15.63,28.1,23.27c9.73,7.84,20.1,15,29.97,22.69
			c5.92,4.62,11.32,9.79,17.15,14.51c8.75,7.09,17.29,14.47,26.61,20.88c13.32,9.15,27.15,17.68,40.99,26.16
			c7.72,4.72,15.86,8.87,23.89,13.15c15.23,8.12,28.42,18.79,42.44,28.41c17.33,11.88,33.97,24.53,50.07,37.81
			c9.8,8.08,20.37,15.37,30.3,23.32c13.25,10.61,24.48,23,35.55,35.45c5.85,6.57,10.9,13.74,16.36,20.6
			c12.04,15.15,12.49,15.78,14.15,17.71c10.93,12.67,15.06,13.94,25.92,24.93c18.65,18.88,23.89,32.77,27.46,31.49
			c3.52-1.26,0.75-16.72-1.54-28.1c-12.95-64.42-19.49-96.95-20.78-112.82c-0.71-8.67-2.95-41.61-3.68-52.24
			c-0.49-7.12-0.81-14.24-1.46-21.35c-0.52-5.72-1.56-11.39-2.09-17.11c-0.35-3.74-0.25-7.52-0.3-11.28
			c-0.14-11.89-0.66-23.79-0.25-35.67c0.29-8.49,1.93-16.93,2.78-25.4c0.37-3.71,0.26-4.62,0.32-7.77c0.03-1.73,0.09-2.89,0.12-3.49
			c0.2-4.92,0.11-21.65,0.42-30.83c0.62-18.71,1.45-35.99,1.53-36.87c1.43-15.91,3.28-24.21-2.39-31.19
			c-3.32-4.08-8.25-6.51-9.38-7.08c-9.95-5.02-17.89-8.28-20.4-9.02c-11.91-3.51-33.18-10.94-61.85-21.16
			c42.67,10.59,64.5,17.69,75.52,22.69c3.02,1.37,13.9,6.51,17.24,3.07c1.25-1.29,0.91-3.33,0.9-4.21
			c-0.14-13.68-0.14-27.38,0.52-41.05c0.43-8.97-3.51-16.6-6.84-24.52c-4.64-11.05-12.45-20.35-19.28-30.23
			c-4.52-6.53-8.25-13.56-14.2-19.1c-11.38-10.6-22.99-20.98-34.6-31.37c-7.56-6.77-15.5-13.2-22.87-20.14
			c-8.75-8.23-16.99-16.91-25.63-25.23c-7.58-7.31-16.03-13.94-23-21.7c-11.38-12.67-24.4-24.32-32.19-39.41
			c-7.59-14.71-14.13-29.82-19.33-45.42c-5.62-16.88-11.35-33.74-17.38-50.5c-5.76-16.01-12.12-31.81-21.42-46.5
			c-2.67-4.22-4.49-9.04-5.85-13.79c-4.93-17.26-9.92-34.52-14.06-51.95c-3.2-13.46-2.21-27.21-1.48-40.92
			c0.68-12.88,0.58-25.79,0.84-38.69c0.05-2.5,0.22-5,0.34-7.49c0.46-0.06,0.91-0.13,1.37-0.19c1.56,4.3,3.37,8.54,4.64,12.91
			c5.79,19.93,9.87,33.81,11.64,40.85c3.67,14.64,10.54,30.32,24.27,61.69c6.06,13.83,12.67,27.53,21.59,45.85
			c8.03,16.49,17.65,32.23,27.41,47.91c15.44,24.81,30.14,50.02,45.28,74.99c7.25,11.96,14.6,23.88,22.25,35.63
			c13.2,20.26,26.6,40.41,40.04,60.53c8.8,13.18,17.87,26.21,26.68,39.38c1.57,2.34,2.34,5.12,3.77,7.56
			c4.6,7.87,8.25,13.54,9.61,15.48c12.38,17.67,15.22,31.85,19.5,31.4c4.74-0.49,6-18.36,7.58-32.67c1.7-15.4,3.48-22.99,3.72-24.82
			c3.02-22.58,5.62-24.71,12.42-57.98c6.55-32.03,5.32-35.83,11.65-59.76c4.82-18.2,5.65-16.47,7.89-27.85
			c3.69-18.74,3.97-36.46,6.1-53.64c2.2-17.73,1.55-16,3.31-28.29c0.78-5.47,1.16-8.21,2.04-13.84c1.54-9.84,3.53-30.17,4.69-51.56
			c0.94-17.36,1.27-26.05,0.94-35.19c-0.72-20.02-3.3-30.52-5.95-38.26c-2.08-6.08-2.03-4.85-4.95-12.36
			c-5.14-13.24-4.21-15.78-9.42-32.55c-5.45-17.53-7.93-16.11-11.37-31.51c-2.39-10.67-4.82-21.36-6.51-32.14
			c-1.82-11.66-0.91-23.35,1.39-34.94c3.22-16.24,8.73-31.91,13.8-47.71c3.46-10.81,5.51-22.01,7.77-33.12
			c4.81-23.59,14.9-44.84,33.5-61.99c12.47-11.49,14.45-10.8,36.21-30.69c14.08-12.87,24.59-24.33,31.22-31.92
			c-4.2,6.39-9.14,14.39-14.28,23.84c-5.11,9.4-10.11,16.82-13.4,27.59c-4.66,15.27-9.85,30.4-14.91,45.56
			c-1.01,3.03-2.3,6-3.71,8.89c-8.45,17.31-13.35,35.52-17.03,54.11c-2.77,14.01-6.34,27.9-9.35,41.87
			c-1.43,6.61-2.7,13.28-3.49,19.97c-1.84,15.57-4.06,31.14-4.8,46.77c-0.72,15.25,0.1,30.56,0.43,45.84
			c0.25,11.5,0.83,22.99,1.18,34.49c0.02,0.77,0.11,7.59,0.11,13.67c-0.04,34.44-3.62,49.35-3.94,89.19
			c-0.07,9.08,0.12,7.37-0.02,10.09c-1.43,28.22-13.36,42.55-8.3,60.97c0.32,1.17,1.5,5.32,3.44,5.45
			c2.24,0.16,4.05-5.06,11.37-22.43c3.41-8.11,4.48-9.9,5.86-12.54c2.7-5.13,7.34-8.59,11.01-12.88c0.4,0.22,0.8,0.45,1.19,0.67
			c-0.46,1.14-0.8,2.33-1.39,3.41c-7.99,14.8-13.6,25.96-15.43,28.8c-11.79,18.22-10.84,36.94-27.96,89.61
			c-1.17,3.59-2.46,6.6-3.5,11.4c-2.88,13.19-7.05,26.16-7.97,39.71c-0.31,4.5-2.13,8.9-2.75,13.41
			c-1.02,7.47-1.54,14.99-2.42,22.48c-0.83,7.08-1.54,14.18-2.84,21.19c-3.92,21.13-7.21,42.3-8.2,63.75
			c-0.08,1.77-0.92,12.04-2.43,32.6c-3.61,49.35-3.37,49.74-4.5,60.26c0,0-1.42,12.96-2.36,26.63c-1.17,17.06-0.47,15.82-1.36,26.57
			c-1.68,20.25-4.99,33.94-2.67,34.61c1.12,0.32,2.21-2.83,8.9-8.92c2.05-1.86,2.59-2.15,4.51-3.87c1.81-1.61,6.82-6.85,9.54-10.34
			c3.18-4.1,11.13-15.83,21.55-32.56c5.03-11.08,6.1-22.75,6.2-34.74c0.09-11.07,1.08-22.17,2.49-33.17
			c1.75-13.57,3.89-27.13,6.72-40.54c2.08-9.88,5.2-19.62,8.53-29.22c1.81-5.22,5.15-9.98,7.6-15.03c1.73-3.56,3.12-7.26,4.89-11.44
			c1.45,0.34,3.47,1.04,5.54,1.26c3.6,0.37,7.24,0.51,10.87,0.61c2.48,0.07,6-1.06,7.24,0.04c2.45,2.2,3.95,5.48,5.27,8.51
			c1.1,2.53,1.19,5.42,2.16,8.01c0.4,1.08,1.94,2.55,2.91,2.52c1.42-0.05,3.69-1.05,4.02-2.07c1.07-3.38,1.97-6.95,1.94-10.45
			c-0.05-4.95,1.84-8.56,5.64-12.06c2.93-2.7,5.46-6.27,6.74-9.87c4.81-13.62,5.37-27.6,2.71-41.69
			c-1.41-7.51-4.28-14.51-8.79-20.95c-1.63-2.33-3.52-4.62-4.56-7.18c-1.09-2.69-1.93-5.71-1.76-8.53c0.2-3.31,1.34-6.63,2.53-9.8
			c1.77-4.73,4.45-5.83,9.54-4.21c6.13,1.95,12.16,4.14,18.31,6.03c4.07,1.25,8.21,2.46,12.42,3.11c3.98,0.61,8.1,0.46,12.55,0.67
			c0.24,3.91-1.57,7.31-3.45,10.53c-8.67,14.9-15.27,30.63-22.31,46.17c-2.14,4.73-3.25,9.85-5.19,14.67
			c-4.19,10.4-8.22,20.88-13.08,31.03c-4.07,8.5-9.07,16.64-13.94,24.8c-3.52,5.9-7.85,11.4-11.16,17.39
			c-5.46,9.88-10.38,20.01-15.55,30.03c-1.94,3.76-4.11,7.43-5.89,11.25c-7.21,15.5-13.91,31.21-21.6,46.5
			c-5.71,11.35-11.44,22.45-18.86,32.56c-1.36,1.85-5.41,7.26-10.27,15.05c-2.82,4.53-4.96,8.33-6.31,10.82c0,0,0,0,0,0
			c-4.06,4.72-10.42,11.71-19.51,21.37c-0.39,0.58-0.76,1.61-1.6,2.58c-9.53,11.04-8.56,24.01-8.12,36.89
			c0.37,10.69,0.77,21.38,0.96,32.08c0.28,16.03,0.39,32.07,0.58,48.11c0.03,2.78,0,5.55,0.17,8.32c0.23,3.84,0.91,6.06,2.09,8.21
			c1.13,2.05,1.96,3.58,3,3.69c3.52,0.37,7.03-15.79,11.45-27.23c10.88-28.14,33.61-44.18,34.07-43.81
			c0.39,0.32-14.67,13.01-27.04,36.74c-13.85,26.55-15.64,50.24-16.01,57.62c-0.67,13.73,0.83,25.41,1.82,30.62
			c1.51,8,3.55,15.92,5.63,23.82c2.53,9.61,5.6,19.1,7.97,28.73c3.09,12.52,5.65,25.15,8.58,37.7c2.44,10.45,5.45,20.79,7.53,31.29
			c1.77,8.93,2.56,18.02,3.82,27.03c0.69,4.9,1.16,9.85,2.29,14.67c3.32,14.23,4.48,14.91,7.31,28.95
			c0.84,4.17,1.39,7.61,2.46,12.03c0.37,1.53,0.79,3.11,1.47,5.5c3.58,12.55,5.37,18.83,6.86,18.98c3.73,0.37,8.93-16,11.01-27.93
			c1.02-5.85,1.32-10.67,1.45-13.48c0.32-6.68-0.06-13.38-0.69-22.58c-0.68-9.85-1.51-19.66-4.14-29.36
			c-1.96-7.23-2.43-14.86-2.96-22.34c-0.83-11.67-1.92-23.39-1.46-35.04c0.47-11.85,2.78-23.57,6.96-34.97
			c7.43-20.23,17.59-39.22,29.71-57.38c3.49-5.24,6.66-10.68,10.54-15.67c8.49-10.9,18.32-20.83,31.42-27.01
			c6.18-2.91,13.54-4.07,20.52-5.1c8.74-1.29,17.65-1.52,26.46-2.42c3.41-0.35,6.76-1.25,10.14-1.91c1.62-0.32,3.24-0.67,6.52-1.35
			c-2.53,3.57-4.06,6.11-5.98,8.37c-12.6,14.84-24.56,30.22-38.16,44.26c-12.82,13.22-24.42,27.27-36.52,40.98
			c-4.88,5.53-8.67,11.86-13.32,17.58c-9.66,11.89-16.08,25.34-22.27,38.83c-6.31,13.77-9.81,28.34-10.89,43.27
			C1570.17,1922.46,1570.43,1940.56,1571.5,1955.09z M1714.5,1750.28c-7.97,6.51-11.95,9.77-16.73,13.52
			c-16.78,13.17-21.18,15.22-30.61,24.55c-2.73,2.7-1.41,1.59-7.09,7.45c-13.11,13.52-17.27,16.49-24.05,24.46
			c-3.05,3.58-5.36,7.28-10.49,14.11c-10.13,13.5-18.32,27.25-21.59,32.84c-17.13,29.31-27.52,81.66-28.74,87.99
			c-0.48-4.15-1.1-10.18-1.59-17.76c-0.05-0.78-0.1-1.17-0.1-1.62c-0.05-17.47,0.42-29,0.42-29c0.69-7.51,2.09-21.86,8.14-39.56
			c1.84-5.39,5.89-16.27,13.28-28.98c6.15-10.58,12.99-18.91,26.68-35.56c7.1-8.64,12.47-15.6,19.43-22.78
			c7.72-7.96,14.67-16.54,21.98-24.84c3.52-4,7.16-7.91,10.64-11.94c4.81-5.58,9.43-11.3,14.29-16.85
			c5.39-6.16,10.95-12.2,16.43-18.3c0.55-0.61,1.05-1.26,0.99-1.19c6.3-1.92,11.85-3.52,17.33-5.29c6.37-2.06,12.81-3.49,19.64-3.56
			c4.3-0.04,8.63-0.5,12.88-1.17c9.13-1.43,18.07-1.55,27.38,2.59c-2.74,1.4-7.37,3.86-12.9,7.25c-6.17,3.78-13.09,8.52-39.43,30.28
			C1723.66,1742.71,1721.66,1744.43,1714.5,1750.28z M1955.15,1802.78c-8.85-3.65-17.6-7.51-26.57-10.89
			c-3.33-1.25-7.31-0.99-10.72-2.12c-9.12-3.02-18.36-5.94-27.05-9.83c-7.51-3.37-15.28-5.73-23.36-6.83
			c-13.4-1.82-26.8-3.75-40.54-2.93c-13.81,0.83-27.62-0.51-40.93-4.05c-8.47-2.25-16.63-5.53-23.61-10.76
			c-7.64-5.71-15.3-11.4-23.38-17.42c1.12-1.92,3.17-3.2,6.07-3.85c15.66-3.51,31.54-4.98,47.56-3.53
			c6.34,0.57,12.66,2.27,18.72,4.19c11.18,3.55,22.16,7.64,33.21,11.51c0.61,0.21,1.2,0.46,1.78,0.72
			c13.52,6.17,27.03,12.35,40.55,18.51c9.63,4.39,19.07,9.06,29.34,12.32c6.88,2.18,13.25,5.81,19.66,9.09
			c10.73,5.49,21.33,11.2,31.94,16.88c1.71,0.91,3.2,2.17,4.8,3.27C1965.92,1807.49,1960.57,1805.02,1955.15,1802.78z
			 M1976.75,1805.72c-2.95-2.28-5.97-4.56-9.28-6.34c-8.92-4.79-18.3-8.91-26.98-14.03c-11.03-6.51-23.51-9.99-35.15-15.18
			c-11.08-4.94-22.19-9.82-33.34-14.63c-12.89-5.56-25.7-11.32-38.81-16.41c-8.72-3.39-17.76-6.31-26.93-8.41
			c-7.25-1.66-14.93-2.46-22.4-2.39c-10.97,0.11-21.93,1.34-32.9,2.06c-0.36,0.02-0.76-0.29-2.04-0.83c1.9-1.6,3.47-3.07,5.2-4.37
			c2.84-2.12,5.88-4.03,8.67-6.21c16.81-13.11,36.19-17.91,57.93-15.18c4.08,0.51,8.14,1.08,12.21,1.65
			c8.84,1.23,17.06,3.78,25.04,7.73c10.85,5.37,21.72,10.6,32.07,16.8c14.07,8.42,26.59,18.38,37.26,30.2
			c9.32,10.34,20.02,19.21,32.13,26.58c6.56,3.99,12.45,8.48,17.75,13.77c2.87,2.86,6.14,5.39,10.29,9
			C1982.22,1809.44,1979.45,1807.8,1976.75,1805.72z"/>
	</g>
	<g>
		<path class="st1" d="M1606.87,1624.43c-2.8,0.58-5.21,1.52-7.22,2.54c4.5-0.64,10.37-1.04,17.14-0.42
			c5.75,0.53,10.66,1.65,14.56,2.83C1628.14,1627.4,1618.41,1622.02,1606.87,1624.43z"/>
	</g>
	<g>
		<path class="st1" d="M1384.68,1571.14c4.82-9.82,8.32-19.81,7.66-20.1c-0.5-0.21-3.29,5-6.04,10.12
			c-6.68,12.45-9.55,19.93-13.12,29.72c-1.94,5.33-2.34,11.29-2.46,16.98c-0.07,3.24,0.99,15.76,9.84,26.7
			c3.44,4.26,8,8.16,8.3,7.91c0.15-0.13-0.83-1.41-2.68-3.98c-2.1-2.9-4.08-5.89-6.13-8.82c-2.7-3.86-6.32-11.73-7.1-20.17
			c-1.21-13.05,4.63-24.47,9.39-33.76C1383.07,1574.27,1383.57,1573.4,1384.68,1571.14z"/>
	</g>
	<g>
		<path class="st1" d="M1414.6,1587.53c-0.59,9.63-4.7,18.99-8.57,29.02c-4.83,12.51-9.68,19.75-9.19,20.01
			c0.49,0.27,5.78-6.61,10.22-15.48c5.84-11.68,8.95-22.4,9.97-31.86c0.66-6.05,2.42-12.01,3.79-18c0.75-3.29,2.04-6.51,2.51-9.83
			c0.55-3.81,0.46-7.69,0.65-11.54c-1.24,9.57-4.03,18.71-7.07,27.83C1415.84,1580.89,1414.8,1584.21,1414.6,1587.53z"/>
	</g>
	<g>
		<path class="st1" d="M1413.61,1543.38c-8.53,8.48-14.67,29.53-10.89,37.2C1402.79,1567.31,1409.12,1555.57,1413.61,1543.38z"/>
	</g>
	<g>
		<path class="st1" d="M1357.91,1505.79c-8.05,2.5-15.53,6.94-22.74,11.25c-11.86,7.1-20.62,16.76-25.74,28.98
			c2.27-2.38,4.82-4.6,6.66-7.24c6.7-9.62,14.23-18.41,25.66-23.67c6.55-3.01,12.87-6.95,19.82-8.62c10.37-2.5,21.2-3.36,31.83-4.94
			c0.85-0.13,1.66-0.42,2.5-0.64C1382.54,1498.79,1370.01,1502.04,1357.91,1505.79z"/>
	</g>
	<g>
		<path class="st1" d="M1319.42,1569.52c9.87-0.17,19.48-1.29,27.86-7.02c-9.39,1.95-18.79,3.91-28.18,5.86
			C1319.21,1568.74,1319.31,1569.13,1319.42,1569.52z"/>
	</g>
	<g>
		<path class="st1" d="M1359.89,1535.7c-0.94,0.63-3.69,2.23-9.15,5.45c-4.77,2.81-7.16,4.22-8.32,4.84
			c-7.19,3.86-12.6,5.66-12.52,5.87c0.08,0.2,4.44-0.91,9.46-2.98c2.47-1.02,4.52-2.03,16.99-9.55c6.52-3.93,7.68-4.69,9.36-6.26
			c3.38-3.16,6.68-7.55,6.66-7.57c0,0-0.07,0.07-0.11,0.11C1371.54,1526.36,1367.16,1530.82,1359.89,1535.7z"/>
	</g>
	<g>
		<path class="st1" d="M1556.67,1306.05c1.46,11.93,4.74,23.4,10.65,34.14c4.07,7.41,10.66,12.39,19.03,15.34
			c1,0.35,2.38-0.18,3.58-0.3c-8.62-3.11-19.5-11.69-21.83-18.23c-2.4-6.75-4.67-13.56-6.73-20.41c-2.57-8.57-3.59-17.14,0.76-25.61
			c1.1-2.13,1.79-4.49,2.32-6.81c1.28-5.54,2.35-11.12,3.51-16.68c-0.55-0.17-1.1-0.33-1.65-0.5c-1.37,1.54-1.6,3.64-2.12,5.55
			c-1.84,6.72-3.1,13.62-5.59,20.13C1556.92,1297.15,1556.11,1301.45,1556.67,1306.05z"/>
	</g>
	<g>
		<path class="st1" d="M1609.44,1328.73c-0.04,5.68-1.11,11.35-1.72,17.02c3.12-2.54,4.08-5.55,3.83-8.99
			c-0.3-4.13-0.67-8.28-0.56-12.42c0.23-8.88-2.68-17.1-5.96-25.24c-0.69-1.72-2.37-3.1-3.6-4.64c-0.1,0.21-0.2,0.42-0.3,0.63
			c2.28,5.52,5.2,10.89,6.64,16.59C1609.17,1317.2,1609.48,1323.04,1609.44,1328.73z"/>
	</g>
	<g>
		<path class="st1" d="M1624.87,1239.79c7.71,1.72,15.66,3.29,23.55,3.49c13.06,0.33,26.15-0.48,40.1-0.84
			c-4.09-2.28-7.67-3.14-11.6-2.95c-9.26,0.44-18.51,1.07-27.77,1.18c-11.6,0.13-22.74-1.72-32.49-8.11
			c-1.6-1.05-3.4-1.85-5.11-2.77C1614.8,1234.69,1619.12,1238.5,1624.87,1239.79z"/>
	</g>
	<g>
		<path class="st1" d="M1656.93,1218.52c9.03,1.08,17.02,4.13,24.85,7.93c3.81,1.85,7.56,3.82,11.33,5.74
			c0.2-0.34,0.4-0.68,0.61-1.01c-3.47-1.84-7.22-3.35-10.35-5.6c-7.6-5.45-16.37-7.52-25.62-9.19c-11.19-2.02-22.15-5.08-33.21-7.67
			c-2.37-0.55-4.76-1.02-7.14-1.53c-0.08,0.52-0.15,1.04-0.23,1.56c0.73,0.33,1.45,0.71,2.2,1
			C1631.4,1214.44,1644.1,1216.98,1656.93,1218.52z"/>
	</g>
	<g>
		<path class="st1" d="M1652.08,1198.74c-5.52-0.59-11.05-1.19-16.57-1.78c-6.71,1.17-10.04,1.97-9.98,2.42
			C1625.61,1200.09,1634.46,1199.88,1652.08,1198.74z"/>
	</g>
	<g>
		<path class="st1" d="M1446.27,1111.29c2.35-3.7,4.69-7.74,6.95-12.13c5.36-10.45,8.92-20.34,11.31-28.99
			C1458.44,1083.88,1452.35,1097.59,1446.27,1111.29z"/>
	</g>
</g>
</svg>
