<?xml version="1.0" encoding="utf-8"?>
<!-- Generator: Adobe Illustrator 24.0.1, SVG Export Plug-In . SVG Version: 6.00 Build 0)  -->
<svg version="1.1" id="Слой_1" xmlns="http://www.w3.org/2000/svg" xmlns:xlink="http://www.w3.org/1999/xlink" x="0px" y="0px"
	 viewBox="0 0 3000 3000" style="enable-background:new 0 0 3000 3000;" xml:space="preserve">
<style type="text/css">
	.st0{fill:none;}
	.st1{fill:#45482A;}
</style>
<rect class="st0" width="3000" height="3000"/>
<g>
	<g>
		<path class="st1" d="M1990.82,1158.98c-17.47,4.91-27.22,12.78-45.28,21.85c-2.89,1.45-7.75,3.81-14.02,6.46
			c-0.4-3.8,1.12-6.22,2.95-8.75c4.32-5.97,8.94-11.83,12.43-18.27c8.58-15.84,16.1-32.19,20.59-49.75c0.46-1.81,1.46-3.72-1.1-5.63
			c-1.17,1.13-2.61,2.07-3.45,3.4c-5.31,8.43-10.64,16.85-15.66,25.45c-3.5,5.98-5.94,12.65-9.85,18.31
			c-10.71,15.48-21.88,30.66-33.01,45.84c-6.59,8.99-15.07,16.12-23.6,23.21c-10.33,8.59-20.49,17.38-30.56,26.28
			c-4.53,4.01-8.8,8.35-12.92,12.8c-5.01,5.4-9.63,11.16-14.64,16.56c-1.75,1.89-3.61,4.05-7.96,4.94c2.11-3.91,3.4-6.8,5.14-9.41
			c4.43-6.66,9.28-13.05,13.55-19.81c6.79-10.76,15.26-20.2,21.22-31.75c9.64-18.72,18.42-37.83,27.72-56.7
			c0.76-1.54,1.4-3.22,1.63-4.9c0.11-0.76-0.74-2.09-1.49-2.42c-0.77-0.34-2.23-0.1-2.85,0.47c-0.91,0.84-1.29,2.23-1.99,3.32
			c-5.71,8.96-11.37,17.94-17.17,26.83c-7,10.71-14.05,21.35-18.66,33.41c-4.36,11.4-12.33,20.24-20.99,28.52
			c-1.3,1.24-3.02,2.04-4.8,3.2c-2.65-4.23-1.28-7.79-0.23-11.16c1.87-5.99,3.99-11.9,6.16-17.79c3.98-10.76,8.03-21.49,12.13-32.21
			c1.7-4.46,3.84-8.76,5.36-13.27c4-11.92,7.77-23.91,11.62-35.88c0.39-1.23,0.97-2.54,0.85-3.75c-0.11-1.1-0.83-2.66-1.71-3.03
			c-0.89-0.38-2.72,0.06-3.38,0.8c-1.41,1.59-2.5,3.53-3.41,5.47c-3.48,7.45-6.98,14.88-10.19,22.45
			c-5.84,13.77-11.58,27.58-17.17,41.45c-4.21,10.43-8.06,21.01-12.21,31.47c-0.85,2.14-2.28,4.05-3.45,6.09
			c-7.84-7.67-11.86-15.03-14.1-20.45c-5.49-13.31-10.38-39.66-15.09-44.29c-0.49-0.48-1.83-1.8-3.14-1.49
			c-0.92,0.22-1.86,1.66-2.19,2.75c-0.49,1.63-0.51,3.42-0.64,5.15c-0.66,8.93,2.09,17.16,5.52,25.18
			c3.24,7.56,6.79,14.99,10.16,22.5c1.33,2.95,2.24,6.15,3.91,8.88c4.05,6.64,8.39,13.1,12.69,19.58c3.4,5.12,3.65,10.85,1.99,16.29
			c-4.25,13.88-13.74,28.51-13.74,28.51c-12.2,18.11-16.05,23.41-20.19,29.82c-1.07,1.65-2.01,3.17-3.18,5.04
			c-20.61,32.95-32.04,51.22-41.24,74.27c-4.25,10.64-2.23,7.8-7.17,20.61c-1.86,4.83-14.45,37.48-26.79,56.09
			c-5.07,7.65-8.93,15.83-11.57,24.58c-2.55,8.44-7.64,15.3-13.36,22.01c0.84-9.33,2.27-18.45,4.04-27.5
			c1.87-9.59,3.9-19.08,2.55-29c-0.82-5.99-0.53-12.13-1.05-18.18c-0.75-8.86-1.57-17.72-2.72-26.53
			c-1.6-12.25-4.24-24.4-5.16-36.69c-1.36-18.16-4.21-36.15-4.74-54.43c-0.6-20.99-4.26-41.81-4.03-62.91
			c0.06-5.74-1.84-11.53-3.13-17.23c-0.6-2.66-2.1-4.78-5.81-3.39c-1.07,12.8-2.58,25.49-3.06,38.22
			c-0.39,10.38,0.19,20.82,0.8,31.21c0.97,16.45,2.34,32.88,3.54,49.32c0.86,11.88,1.45,23.8,2.64,35.65
			c1.28,12.72,3.52,25.36,4.5,38.09c0.33,4.32,1.13,9.35-1.88,13.99c-4.24-3.86-5.81-8.78-7.14-13.36
			c-4.35-15.05-6.66-30.51-6.87-46.19c-0.36-26.78-1.76-53.47-9.53-79.26c-5.38-17.84-11.73-35.4-18.3-52.84
			c-2.4-6.38-6.65-12.07-10.16-18.02c-0.37-0.62-1.4-0.85-1.99-1.18c-3.09,1.22-3.4,3.78-3.04,6.09c0.82,5.32,1.53,10.75,3.25,15.81
			c4.62,13.54,9.71,26.91,14.68,40.33c6.15,16.62,7.12,34.35,11.05,51.45c0.84,3.64,1.08,7.84-0.73,12.05
			c-0.86-0.91-1.48-1.29-1.7-1.83c-6.79-16.66-13.37-33.41-20.36-49.99c-3.36-7.97-7.25-15.74-11.33-23.37
			c-1.71-3.19-4.39-5.93-6.93-8.6c-2.36-2.49-5.46-1.62-5.46,1.64c-0.01,4.47,0.12,9.22,1.56,13.38
			c5.69,16.38,12.04,32.53,17.89,48.85c5.04,14.07,9.55,28.33,14.67,42.37c3.19,8.75,7.09,17.25,10.62,25.87
			c0.86,2.1,1.55,4.26,2.32,6.4c-4.1-0.45-6.04-2.84-8.11-5.25c-5.05-5.87-14.02-11.62-27.96-31.66
			c-8.95-12.87-13.43-19.3-13.72-23.76c0,0-1.81-6.21-4.6-12.86c-0.45-1.08-2.31-2.52-3.09-2.3c-1.1,0.32-1.96,1.95-2.59,3.19
			c-0.35,0.68-0.04,1.7,0,2.57c0.36,8.16,2.76,15.78,6.4,22.98c3.59,7.11,7.53,14.06,11.29,21.09c6.59,12.35,15.68,22.68,25.71,32.3
			c6.73,6.44,13.38,12.98,19.78,19.74c2.93,3.09,5.09,6.85,5.22,12.83c-3.32-2.08-5.83-3.48-8.16-5.14
			c-6.22-4.45-12.76-7.9-20.32-9.82c-8.8-2.23-17.31-5.55-26-8.26c-7.11-2.21-14.31-3.49-21.72-1.3c-2.35,0.69-5.28,1.26-5.15,4.04
			c0.09,2.01,1.58,4.76,3.28,5.74c4.07,2.35,8.51,4.32,13.03,5.59c6.92,1.94,13.13,4.9,19.9,9.76c-2.04,0.8-5.11,2.09-8.67,4
			c-4.85,2.6-11.8,6.41-17.7,13.49c-1.14,1.36-8.1,9.72-6.32,11.87c2.04,2.47,15.65-3.12,25.53-10.41
			c3.04-2.24,6.54-5.24,12.51-7.32c2.98-1.04,6.15-1.69,9.63-1.94c11.54-0.83,20.83,3.76,27.6,11.73
			c10.72,12.6,15.69,27.83,14.37,44.67c-0.85,10.82-1.86,21.62-2.77,32.43c-0.44,5.18-0.37,10.46-1.32,15.54
			c-3.37,18.15-8.36,35.89-14.73,53.22c-3.79,10.32-9.76,19.32-17.13,27.42c-1.38,1.52-2.57,3.63-5.71,2.79
			c-0.82-5.23-1.55-10.54-2.51-15.82c-2.89-15.99-2.68-31.88,0.71-47.81c3.9-18.35,3.52-28.08,2.1-36.14
			c-2.15-12.2-8.01-23.58-10.42-23.06c-1.74,0.38-1.55,6.96-1.61,15.37c-0.07,10.84,0.51,21.68,0.42,32.51
			c-0.03,2.94,0.17,6.7-4.11,8.35c-3.53-3.74-5.36-8.33-7.3-12.86c-8.98-20.96-19.63-41.02-32.54-59.84
			c-1.22-1.78-2.55-3.59-4.19-4.95c-0.98-0.81-3.03-1.4-3.94-0.89c-0.24,0.13-1.28,0.79-1.29,3.77
			c-0.07,12.26,14.61,39.78,14.61,39.78c2.16,4.05,3.24,6.07,3.91,7.31c7.94,14.68,12.13,21.89,13.68,24.73
			c1.61,2.95,3.21,5.91,4.77,8.89c1.72,3.27,3.24,7.01,1.21,11.82c-2.11-1.65-3.73-2.97-5.39-4.21c-3.99-2.97-7.79-6.28-12.08-8.71
			c-2.48-1.4-5.76-1.54-8.72-1.82c-0.99-0.1-2.95,1.06-2.98,1.72c-0.06,1.21,0.67,2.85,1.62,3.64c3.99,3.33,8.21,6.38,12.3,9.59
			c4.6,3.6,9.31,7.08,13.69,10.93c7.68,6.74,7.15,17.36,7.42,20.96c0.37,4.99-0.26,8.12-3,20.22c-3.86,17.06-5.98,25.54-6.6,28.52
			c-2.38,11.32-6.24,22.13-10.98,32.61c-7.15,15.81-14.66,31.46-21.84,47.26c-3.14,6.91-6.44,13.84-8.61,21.08
			c-3.99,13.27-11.14,24.89-17.88,36.75c-0.21,0.37-1.04,0.38-1.99,0.7c-0.52-4.12-1.7-8.03-1.36-11.8
			c1.39-15.41,0.61-30.77,0.38-46.18c-0.25-17.54,0.69-35.1,1.38-52.64c0.41-10.62,0.61-21.32,2.15-31.81
			c3.08-21.03,6.3-42.01,6.62-63.32c0.06-3.69,0.43-7.38,0.43-11.07c0.01-11.5,0.06-23-0.19-34.49c-0.3-13.67-1.04-27.34-1.32-41.01
			c-0.24-11.91,0.04-23.84-0.16-35.75c-0.33-19.53-0.85-39.05-1.3-58.58c-0.29-12.59-0.61-25.18-0.9-37.77
			c-0.12-5.42-0.44-10.84-0.28-16.25c0.61-21.26,1.41-42.52,2.07-63.78c0.16-5.21,0.13-10.42,0.09-15.64
			c-0.21-28-0.47-56.01-0.67-84.01c-0.07-9.76-0.14-19.52,0.03-29.28c0.23-13,0.5-26.01,1.12-39.01
			c0.36-7.59,4.07-14.22,10.38-17.93c6.37-3.75,12.09-8.54,18.53-11.88c11.15-5.8,19.92-14.58,29.57-22.15
			c12.25-9.61,23.19-20.88,34.89-31.22c9.4-8.31,18.7-16.75,29.09-23.88c20.78-14.26,37.44-32.88,53.89-51.65
			c5.99-6.83,11.09-14.44,16.65-21.65c6.34-8.24,12.96-16.26,19.03-24.69c7.21-10.02,13.93-20.4,20.95-30.56
			c3.94-5.7,8.12-11.23,12.07-16.92c2.33-3.36,4.26-7.01,6.63-10.34c5.53-7.76,11.27-15.36,16.81-23.11
			c1.7-2.38,3.44-4.07,6.59-4.67c10.68-2.03,21.06-5.02,30.47-10.77c6.66-4.07,13.48-7.86,20.25-11.73
			c11.74-6.72,22.41-14.85,31.88-24.49c1.88-1.92,3.57-4.52,4.18-7.09c1-4.18-1.33-6.2-5.52-5.21c-6.63,1.57-12.55,4.59-17.71,9.13
			c-5.79,5.1-10.22,11.2-13.84,17.94c-2.73,5.09-6.54,9.21-11.49,12.1c-5.81,3.39-11.63,6.85-17.76,9.55
			c-4.77,2.11-9.91,3.66-16.91,3.72c2.4-1.73,3.59-2.52,4.7-3.41c2.51-2.01,5.25-3.81,7.42-6.14c7.15-7.67,12.53-16.59,17.3-25.86
			c2.65-5.15,6.19-9.15,11.06-12.44c4.99-3.37,9.6-7.48,13.77-11.85c6.28-6.59,11.78-13.92,18.09-20.48
			c5.68-5.91,7.24-11.99,3.15-19.22c-3.36-1.06-6.08,0.39-8.47,2.31c-2.18,1.75-4.39,3.68-5.93,5.97
			c-7.49,11.16-14.67,22.52-22.16,33.68c-2.26,3.36-5.24,6.22-7.72,9.45c-1.41,1.83-2.6,3.87-3.65,5.93
			c-1.08,2.11-1.61,4.52-2.84,6.52c-3.99,6.46-8.03,12.9-12.38,19.12c-3.41,4.88-8.24,8.07-14.21,10.42
			c-0.16-1.28-0.41-2.08-0.32-2.85c1.9-17.78,7.88-34.14,17.32-49.27c1.03-1.65,2.68-3.2,2.99-4.98c1.13-6.45,5.07-11.44,8.07-16.93
			c3.7-6.78,3.83-14.18,3.29-21.58c-0.21-2.87-1.68-5.54-4.74-6.44c-2.75-0.81-4.99,0.35-6.9,2.51
			c-8.68,9.79-13.27,21.24-14.01,34.26c-0.19,3.32,0.26,6.52,2.72,9.09c2.54,2.66,1.97,5.3,0.38,8.3c-2.44,4.59-4.78,9.28-6.6,14.14
			c-1.74,4.63-2.76,9.53-4.09,14.31c-1.33,4.78-2.94,9.5-3.93,14.35c-1.14,5.59-1.92,6.39-8.91,5.94c-2.14-3.86-5.42-7.75-6.54-12.2
			c-2.91-11.51-6.47-23.01-4.65-35.25c1.15-7.7,1.37-15.55,2.6-23.24c0.22-1.38,0.91-12.63-2.99-24.35c-0.83-2.5-2-5.41-3.62-5.47
			c-0.46-0.02-1.92,0.16-4.21,5.75c-5.3,12.9-2.89,25.16-2.8,25.76c0.5,3.05,1.33,6.1,2.53,9.17c1.58,4.03,3.34,8.67,2.78,12.72
			c-1.82,13.18,2.93,25.29,4.97,37.82c0.36,2.19,2.22,4.15,3.47,6.16c2.6,4.19,5.25,8.35,7.65,12.17c-0.39,1.05-0.45,1.53-0.7,1.84
			c-8.88,10.92-17.82,21.8-26.67,32.75c-9.26,11.45-18.51,22.91-27.6,34.5c-3.73,4.76-6.84,10-10.57,14.75
			c-8.95,11.4-17.87,22.84-27.26,33.88c-9.67,11.36-19.53,22.61-29.96,33.27c-8.78,8.97-18.37,17.17-27.82,25.45
			c-16.29,14.27-32.59,28.52-49.91,41.56c-2.76,2.08-4.99,4.86-7.74,6.95c-10.71,8.11-21.53,16.09-32.35,24.06
			c-0.86,0.63-2.04,0.84-3.79,1.53c8.45-10.82,16.19-20.94,24.16-30.89c9.61-11.99,19.62-23.68,29.09-35.78
			c11.09-14.17,22.06-28.44,32.57-43.03c10.01-13.9,19.45-28.21,28.95-42.47c5.11-7.66,11.49-13.05,20.49-16
			c13.42-4.39,24.57-12.67,34.16-22.97c5.3-5.7,10.3-11.69,17.08-15.8c1.28-0.77,2.5-1.79,3.42-2.96
			c4.44-5.62,9.07-11.13,13.03-17.08c2.95-4.44,5.93-9.15,4.16-15.16c-1.46-4.95-4.06-6.34-8.57-3.66
			c-3.72,2.21-7.19,4.75-9.22,8.91c-4.51,9.26-8.94,16.99-12.69,24.95c-3.23,6.85-5.04,10.47-8.31,14.94
			c-2.92,3.99-5.63,6.73-6.72,7.84c-8.84,8.96-20.37,12.95-31.74,17.2c-1.5,0.56-3.23,0.49-6.28,0.91c2.2-2.41,3.4-3.83,4.71-5.15
			c7.39-7.48,13.61-15.73,17.19-25.76c0.66-1.83,1.49-3.63,2.44-5.33c4-7.15,6.93-14.81,12.63-21.13c2.72-3.02,3.97-7.55,7.42-10.4
			c9.14-7.55,13.35-17.97,16.25-28.98c0.8-3.04,0.6-6.52,0.08-9.67c-0.59-3.53-3.34-4.64-6.27-2.62c-2.45,1.68-4.96,3.75-6.46,6.24
			c-2.21,3.68-3.77,7.8-5.2,11.87c-2.58,7.36-4.22,15.12-7.41,22.19c-6.69,14.83-14.12,29.33-21.27,43.95
			c-3.2,6.54-7.71,12.06-13.43,16.55c-0.88,0.69-2.12,0.92-3.19,1.35c-0.32-0.28-0.65-0.56-0.97-0.84
			c5.97-12.41,11.11-21.19,14.85-27.1c0,0,2.29-4.46,5.64-10.97c2.74-5.35,3.94-11.08,3.2-16.99c-0.23-1.85-1.82-3.97-3.41-5.09
			c-2.19-1.54-4.17,0.35-5.57,1.98c-1.38,1.6-2.92,3.43-3.36,5.39c-1.58,6.94-2.64,14-4.07,20.97c-0.65,3.14-1.57,6.24-2.65,9.26
			c-1.54,4.26-3.41,8.39-5.01,12.63c-1.1,2.92-1.97,5.92-2.95,8.89c-3.87-5.74-6.29-11.57-5.56-17.89
			c1.4-12.04,2.35-24.25,8.05-35.32c0.96-1.87,2.19-3.72,3.71-5.15c6.31-5.95,10.84-12.91,12.65-21.46
			c1.08-5.08,2.3-10.18,2.71-15.33c0.22-2.83-0.6-6.03-1.87-8.61c-1.81-3.68-4.77-4.2-8.13-1.79c-3.93,2.82-7.43,6.26-8.56,11.14
			c-1.5,6.53-3,13.13-3.62,19.78c-0.7,7.53-2.4,7.59-3.8,14.96c-0.99,5.22-1.03,7.6-1.75,15.14c-2.04,21.26-6.41,27.04-3.33,40.18
			c0.41,1.74,0.32,3.61,0.55,6.6c-6.35-3.08-11.6-5.53-16.76-8.15c-3.36-1.7-5.38-3.95-6-6.54c-0.63-2.63,0.59-4.71,2.22-8.34
			c1.91-4.26,3.19-8.79,4.85-13.15c3.65-9.57,4.55-14.48,5.62-19.21c1.1-4.84,1.21-9.9-2.82-13.81c-6.23,1.87-6.23,1.94-8.35,6.48
			c-1.19,2.55-2.72,4.95-3.87,7.51c-1.32,2.94-2.53,5.94-3.53,9c-3.31,10.04-0.94,20.21-0.18,30.27c0.53,7.03,3.87,12.8,11.06,15.57
			c3.23,1.24,6.29,2.93,9.44,4.37c4.07,1.87,8.15,3.71,12.63,5.74c-2.29,4.49-4.09,8.4-6.24,12.11c-1.73,2.99-3.82,5.8-5.88,8.59
			c-2.44,3.31-5.15,6.42-7.52,9.78c-8.87,12.59-17.59,25.28-28.79,36.02c-2.95,2.83-5.64,5.97-8.15,9.21
			c-7.3,9.41-14.37,19.01-21.69,28.4c-5.05,6.48-10.16,12.94-15.64,19.05c-9.06,10.12-16,22.04-26.51,30.94
			c-2.57,2.18-4.65,4.93-7.26,7.75c-0.13-1.09-0.35-1.59-0.19-1.86c5.67-9.18,11.39-18.33,17.07-27.5c0.79-1.27,1.5-2.62,2.06-4.01
			c3.76-9.44,7.38-18.94,11.22-28.35c2.95-7.22,6.25-14.3,9.21-21.52c2.54-6.2,4.75-12.54,7.24-18.77c1.21-3.02,3.02-5.81,4.07-8.87
			c8.06-23.59,16.12-47.18,23.93-70.85c2.92-8.84,5.22-17.89,7.73-26.86c1.16-4.17,2.19-8.37,3.18-12.58
			c2.29-9.67,4.43-19.38,6.83-29.02c0.54-2.17,1.42-4.67,2.99-6.09c8.83-7.98,17.93-15.68,26.91-23.5c1.14-0.99,2.32-2.03,3.18-3.26
			c5.04-7.24,12.49-11.86,18.96-17.54c7.97-7.01,16.27-13.71,20.56-23.96c1.4-3.34,2.07-6.1-1.8-8.86c-1.75,1.14-3.7,2.08-5.22,3.49
			c-4.13,3.84-8.5,7.54-11.99,11.92c-6.48,8.13-12.29,16.79-18.62,25.05c-2.74,3.58-5.43,7.53-10.8,8.71
			c2.22-7.13,4.32-13.64,6.27-20.2c1.38-4.63,3.24-8.82,6.98-12.18c2.05-1.84,3.6-4.36,5.03-6.78c4.57-7.76,6.49-16.08,4.44-25.01
			c-0.67-2.9-1.46-6.03-5.71-5.99c-8.04,10.36-11.47,22.7-12.7,35.08c-1.51,15.14-7.11,28.5-13.65,41.72
			c-1.55,3.15-3.83,6.22-7.83,7c-0.29-0.68-0.64-1.1-0.58-1.45c1.2-7.91,2.84-15.78,3.54-23.74c0.57-6.45-0.04-12.99-0.04-19.5
			c0-3.42-0.43-7,0.42-10.22c3.59-13.6,7.33-27.18,11.55-40.6c2.11-6.73,1.6-13.33,0.68-19.95c-0.6-4.31-3.65-7.16-7.9-8.77
			c-0.77,0.64-1.54,1.09-2.04,1.75c-0.78,1.03-1.49,2.15-2.03,3.32c-5.46,11.87-7.72,24.27-6.7,37.37
			c0.62,7.98,0.56,16.01,0.71,24.02c0.09,4.76-0.6,9.62,0.11,14.28c1.67,10.93,0.13,21.65-1.18,32.4
			c-0.73,5.97-1.91,8.39-5.06,12.07c-0.55-8.78-4.86-15.8-9.21-22.83c-1.02-1.64-2.33-3.44-2.46-5.25
			c-0.65-8.63-1.38-17.29-1.23-25.93c0.16-8.65,1.48-17.28,2.02-25.94c0.4-6.33-1.48-12.02-6.12-16.57
			c-3.77-3.7-6.01-3.35-8.36,1.53c-3.56,7.41-4.93,15.42-4,23.45c1.14,9.9,3.05,19.74,8.24,28.58c1.3,2.22,2.75,4.78,2.81,7.21
			c0.2,9.36,4.08,17.07,9.59,24.23c0.39,0.51,0.76,1.08,1.01,1.67c1.9,4.63,2.81,9.33,1.18,14.72c-1.59-0.62-2.83-0.93-3.88-1.55
			c-5.02-3.01-10.1-5.95-14.96-9.22c-10.58-7.12-18.46-15.24-17.07-29.97c0.79-8.37-1.8-17.17-3.56-25.63
			c-0.91-4.36-3.17-8.49-5.16-12.55c-1.37-2.8-3.67-4.78-7.85-4.9c-3.31,7.62-4.94,15.63-2,23.66c3.65,9.96,8.26,19.56,12.29,29.38
			c4.86,11.83,12.28,21.26,23.71,27.48c4.89,2.66,9.32,6.17,14.29,9.52c-3.12,12.62-6.82,24.66-8.97,36.98
			c-2.67,15.28-9.59,29.12-13.4,43.97c-0.21,0.83-0.71,1.58-1.06,2.38c-5.34,12.09-10.94,24.08-15.96,36.3
			c-7.4,18-13.15,36.63-20.72,54.57c-1.83,4.34-3.95,8.63-5.17,13.16c-5.39,19.97-16.02,37.47-26.22,56.79
			c-0.21-4.71-0.63-8.11-0.48-11.48c0.83-18.86,1.78-37.71,2.71-56.56c0.03-0.65,0.13-1.3,0.23-1.94
			c2.64-17.37,5.38-34.72,7.87-52.11c0.64-4.49,0.33-9.11,0.74-13.64c1.22-13.37,2.71-26.73,3.87-40.11
			c0.86-9.94,1.28-19.92,2.02-29.87c1.42-19.03,3.49-38.03,4.27-57.09c1.01-24.68,0.19-49.4-0.86-74.09
			c-0.2-4.65,0.95-6.21,5.54-7.28c2.74-0.64,5.63-0.86,8.23-1.85c10.41-3.98,16.94-11.7,20.66-22.05
			c1.83-5.09,3.53-10.26,5.84-15.14c6.22-13.14,12.79-26.12,19.11-39.21c2.18-4.51,2.4-9.21,0.21-13.84c-1.19-2.5-2.94-4.09-6-4.19
			c-3-0.1-4.33,1.71-5.33,3.94c-0.96,2.17-1.84,4.42-2.36,6.72c-2.44,10.79-4.33,21.71-7.2,32.38c-2.81,10.44-6.02,20.86-10.1,30.86
			c-3.38,8.27-10.82,12.31-20.19,14.61c0.78-2.2,0.95-3.8,1.79-4.87c5.03-6.38,6.66-13.97,8.27-21.66
			c2.91-13.89,7.58-27.11,15.17-39.26c4.01-6.41,2.35-22.97-2.26-28.58c-2.81-3.42-7.77-2.99-9.48,1.03
			c-1.36,3.18-2.72,6.5-3.21,9.88c-1.78,12.24-3.13,24.52-0.07,36.81c0.34,1.38,0.11,3.02-0.25,4.44
			c-1.82,7.15-3.38,14.41-5.8,21.36c-2.42,6.93-6.75,12.82-12.91,19.12c-0.56-3.68-1.02-5.95-1.22-8.25
			c-0.33-3.67-0.13-7.42-0.8-11.02c-2.96-15.77-6.01-31.53-9.32-47.23c-1.28-6.1-1.5-11.95,0.35-17.97
			c0.75-2.42,0.73-5.14,0.75-7.72c0.07-8.94-4.11-16.75-6.98-24.88c-0.69-1.96-2.16-3.88-3.78-5.21c-1.37-1.13-3.74-2.23-5.17-1.78
			c-1.35,0.42-2.77,2.84-2.89,4.47c-0.27,3.62-0.24,7.42,0.55,10.94c3.31,14.76,1.6,13.75,7.16,28.37c2.89,7.6,3.2,6.46,5.58,12.76
			c4.15,11.01,3.83,12.89,6.64,31.82c1.52,10.28,1.92,20.73,2.59,31.12c0.09,1.47-0.73,3.88-1.76,4.3
			c-1.18,0.48-3.49-0.32-4.58-1.34c-5.52-5.19-10.85-10.6-16.16-16.01c-4.37-4.46-8.69-8.98-12.91-13.58
			c-4.43-4.84-9.01-10.33-8.59-16.93c0.99-15.56-4.48-28.88-12.12-41.71c-1.43-2.4-3.17-4.78-6.92-4.3
			c-0.51,1.02-1.34,2.08-1.61,3.28c-3.1,13.93,0.15,26.29,9.83,36.71c3.9,4.19,7.48,8.45,9.24,13.95
			c2.81,8.79,8.59,15.4,15.17,21.57c3.45,3.24,6.35,7.07,9.57,10.56c3.32,3.59,6.73,7.09,10.64,11.18
			c-1.93,0.46-3.19,1.17-4.27,0.96c-7.89-1.51-15.54-3.81-22.36-8.2c-1.95-1.26-3.94-2.94-5.06-4.91
			c-2.33-4.11-3.95-8.62-6.11-12.82c-2.95-5.73-5.9-11.5-9.34-16.95c-2.09-3.3-5.7-4.8-9.68-3.83c-1.49,0.36-3.44,1.56-3.91,2.84
			c-1.82,4.95-2.59,9.78,0.82,14.83c11.31,16.78,26.48,27.74,46.28,32.17c6.08,1.36,12.18,2.66,18.78,4.09
			c0.27,1.81,0.93,3.93,0.83,6c-0.55,11.68-1.14,23.36-1.99,35.01c-0.45,6.23-1.58,12.41-2.14,18.64
			c-0.91,10.14-1.74,20.29-2.32,30.45c-0.41,7.09-0.43,14.21-0.46,21.32c-0.04,7.53,0.81,15.14,0.07,22.59
			c-2.66,26.53-5.68,53.02-8.89,79.49c-1.46,12.05-3.87,23.99-5.53,36.02c0,0-0.69,5.07-1.22,9.34c-4.02,32.03-3.01,66.83-4.58,66.9
			c-1.31,0.06-1.86-24.46-8.08-62.07c-1.73-10.44-3.2-17.26-4.88-30.8c-1.44-11.61-2.23-23.31-3.47-34.95
			c-1.72-16.17-3.6-32.33-5.41-48.49c-0.51-4.58-0.52-9,2.01-13.22c1.06-1.77,1.1-4.16,1.59-6.28c2.06-8.79,4.11-17.57,6.17-26.36
			c0.14-0.6,0.37-1.15,0.6-1.79c1.8-5.05,3.96-8.45,4.43-9.22c3.25-5.38,4.69-18.62,4.37-31.47c-0.14-5.57-2.47-10.14-5.86-14.1
			c-3.41-3.99-6.92-3.34-8.96,1.41c-0.91,2.11-1.38,4.59-1.34,6.89c0.16,9.76,0.57,19.52,0.93,29.28c0.05,1.52,0.39,3.02,0.41,4.54
			c0.05,4.97,0.54,10.01-0.17,14.87c-0.61,4.18-2.86,8.09-3.96,12.24c-1.07,4.04-1.59,8.23-2.36,12.35
			c-0.47-0.01-0.94-0.02-1.41-0.03c-0.55-5.01-1.22-10.02-1.64-15.04c-1.15-13.67-3.69-27.02-8.5-39.91
			c-1.84-4.94-2.87-9.92-1.57-15.29c0.6-2.47,0.7-5.26,0.21-7.75c-2.26-11.66-7.35-22.15-14.03-31.89c-1.44-2.11-3.4-4.59-6.36-3.53
			c-3.06,1.1-3.3,4.27-3.4,7.12c-0.03,1.06,0.35,2.12,0.53,3.19c0.59,3.63,1.3,7.24,1.73,10.89c1.27,10.82,5.37,20.42,11.75,29.24
			c3.13,4.32,6.62,8.87,8.03,13.86c4.49,15.89,7.29,32.15,6.58,48.8c-0.08,1.78-0.57,3.54-0.95,5.81c-2.04-0.99-3.39-1.32-4.3-2.15
			c-6.71-6.13-13.35-12.35-19.98-18.56c-1.31-1.22-2.3-2.65-3.28-4.67c-1.95-4.02-1.79-7.67-1.82-10.05
			c-0.06-4.14-2.49-2.12-3.12-15.82c-0.37-8-2.44-15.37-5.68-22.54c-0.53-1.17-1.18-2.36-2.06-3.27c-1.74-1.81-3.89-2.97-6.42-1.77
			c-2.3,1.09-2.63,3.27-2.37,5.57c0.33,3.02,0.81,6.03,0.98,9.07c0.75,14.08,6.94,26.28,13.27,38.39
			c4.02,7.69,11.09,12.66,17.27,18.4c2.77,2.58,6.27,4.56,7.48,8.55c-6.45,2.74-8.88,2.72-13.62-0.31
			c-8.21-5.25-16.38-10.55-24.53-15.88c-2.22-1.45-4.32-1.8-6.61-0.15c-2.44,1.76-2.41,4.14-1.31,6.37
			c1.63,3.29,3.81,6.31,5.53,9.56c2.19,4.14,6.59,4.76,10.22,6.33c2.79,1.21,5.96,2.35,9.23-0.1c1.18-0.88,4.11-0.68,5.5,0.2
			c5.64,3.6,11.44,3.31,17.51,1.77c1.63-0.41,3.34-0.47,5.74-0.78c0.58,3.36,1.16,6.5,1.65,9.65c0.73,4.71,1.36,9.44,2.08,14.15
			c1.37,8.96,2.98,17.89,4.11,26.88c1.51,12.01,2.68,24.07,3.97,36.1c0.42,3.88,1.13,7.78,1.08,11.66
			c-0.26,18.56,3.48,36.64,6.16,54.85c0.16,1.08,0.02,2.21,0.02,3.32c-0.39,0.23-0.78,0.47-1.17,0.7c-0.41-0.76-0.81-1.52-1.21-2.28
			c-3.56-6.66-6.96-13.41-10.73-19.96c-4.63-8.05-7.42-16.96-12.72-24.78c-5.08-7.49-8.8-15.94-12.86-24.09
			c-5.98-12.01-11.98-24.01-17.54-36.22c-6.65-14.6-13.11-29.3-19.13-44.16c-4.14-10.22-7.62-20.73-10.95-31.25
			c-2.28-7.22-3.96-14.64-5.62-22.03c-2.9-12.89-5.69-25.81-8.28-38.77c-0.58-2.89,0.33-5.46,2.19-8.33
			c5.25-8.07,12.19-14.95,15.79-24.26c3.16-8.16,8.15-15.53,11.28-23.86c4.1-10.92,4.57-21.98,3.62-33.32
			c-0.09-1.07-0.46-2.12-0.74-3.17c-0.64-2.41-1.69-5.16-4.46-4.6c-1.58,0.32-3.12,2.78-3.91,4.6c-1.61,3.75-2.87,7.67-3.93,11.62
			c-0.84,3.12-1.53,6.36-1.63,9.57c-0.12,3.86,0.25,7.78,0.79,11.62c1.75,12.51-4.94,22.56-9.52,33.21c-0.74,1.73-2.24,3.22-5.31,2
			c0.22-3.25,0.45-6.67,0.69-10.08c0.48-6.89,1.22-13.78,1.36-20.67c0.19-9.11-0.22-18.23-0.07-27.34c0.04-2.71,1.03-5.42,1.68-8.1
			c0.54-2.24,1.7-4.43,1.75-6.66c0.23-10.2-0.26-20.44,0.35-30.61c0.56-9.41-4.93-13.98-11.78-18.15c-4.03,5.08-3.81,5.1-4.24,10.22
			c-0.74,8.88,2,17.21,4.09,25.55c2.71,10.78,5.27,21.4,3.8,32.69c-0.72,5.56-0.5,11.26-0.47,16.89c0.02,4.32,0.72,8.66,0.57,12.97
			c-0.19,5.71-1.68,11.2-4.24,16.58c-2.59-7.63-7.13-13.58-12.51-18.98c-0.45-0.45-0.99-1.02-1.08-1.6
			c-0.27-1.61-0.94-3.54-0.35-4.84c2.23-4.91,2.15-9.86,0.18-14.57c-3.75-8.96-7.84-17.79-12.03-26.56
			c-1.04-2.17-3.17-3.47-6.17-2.6c-1.69,5.03-0.98,9.86,0.55,14.69c1.96,6.19,3.82,12.42,5.8,18.6c3.04,9.51,6.68,18.32,14.29,25.73
			c7.99,7.78,8.12,18.41,5.47,29.61c-9.8-5.08-18.86-9.68-27.83-14.45c-3.04-1.62-4.49-4.49-5.32-7.82
			c-0.89-3.57-2.24-7.02-3.15-10.59c-1.38-5.41-4.06-10.8-2.35-16.49c1.03-3.43,0.56-6.41-0.61-9.47
			c-5.1-13.27-12.25-25.38-21.11-36.47c-1.47-1.84-3.21-3.6-5.14-4.93c-2.71-1.87-5.06-1.03-6,2.18c-0.72,2.46-1.34,5.19-1.02,7.67
			c0.84,6.44,1.9,12.89,3.46,19.19c1.97,7.92,6.37,14.1,14.14,17.62c1.72,0.78,3.34,2.77,4.07,4.58c2.82,7.02,5.28,14.18,7.85,21.31
			c3.68,10.24,9.66,18.14,20.25,22.4c6.4,2.57,12.31,6.4,18.35,9.84c6.14,3.49,6.57,4.81,4.72,11.55c-0.4,1.45-0.93,3-0.77,4.44
			c1.18,10.77,1.17,21.9,4.08,32.19c6.3,22.32,13.54,44.42,21.48,66.21c8.28,22.73,14.15,37.17,23.32,56.55
			c6.88,14.53,14.77,29.58,20.55,39.73c3.62,6.34,7.69,13.38,7.69,13.38c3.15,5.42,6.67,10.65,9.44,16.25c0,0,3.08,5.34,6.23,10.87
			c9.21,16.18,21.29,37.41,19.89,38.32c-0.77,0.5-4.65-5.73-17.82-19.68c-5.22-5.53-11.41-12.26-24.41-25.16
			c-35.3-35.03-85.07-79.13-108.67-106.16c-9.31-10.66-10.76-12.39-17.88-20.64c-5.24-6.07-10.67-12-15.64-18.28
			c-4.22-5.33-4.36-11.24-0.36-16.85c4.35-6.11,5.61-13.01,6.02-20.28c0.76-13.27,0.91-24.15-1.28-36.11
			c-1.09-5.97-2.64-11.52-5.74-22.63c-3.81-13.66-3.05-10.57-5.22-17.41c-1.63-5.15-3.24-10.31-5.25-15.31
			c-0.86-2.14-2.48-4.15-4.21-5.7c-1.1-0.99-3.16-1.59-4.58-1.3c-0.83,0.17-1.72,2.41-1.75,3.74c-0.08,3.68,0.4,7.37,0.43,11.05
			c0.14,17.6,6.79,33.09,16.32,47.3c3.24,4.83,4.67,9.54,4.95,15.01c0.35,6.7,0.85,13.4,1.13,20.11c0.2,4.79-0.44,9.39-5,13.94
			c-0.72-2.62-1.29-4.3-1.64-6.03c-0.43-2.1-0.36-4.36-1.09-6.34c-5.4-14.71-12.42-28.64-20.6-42c-2.82-4.61-5.4-9.37-7.91-14.16
			c-0.27-0.52-0.4-2.18-0.69-4.11c-0.76-5.13-0.95-8.85-1-9.65c-0.51-7.55-8.64-16.81-13.84-27.2c-3.11-6.22-7.16-11.43-14.16-13.5
			c-4.31-1.28-7.28,0.52-6.82,4.93c0.44,4.2,1.71,8.54,3.61,12.3c5.71,11.29,12.91,21.82,22.06,30.43
			c5.29,4.98,8.53,10.68,11.78,16.72c0.82,1.53,1.68,3.04,2.52,4.55c7.35,13.29,14.83,26.53,19.39,41.13
			c2.17,6.95,4.1,14.01,2.64,21.46c-0.84-0.09-1.4,0.03-1.64-0.19c-6.77-6.39-14.03-12.36-20.04-19.4
			c-3.68-4.31-4.88-6.08-6.51-9.21c-2.37-4.54-3.17-8.15-3.69-10.06c-2.89-10.49-8.95-15.27-31.07-33.78
			c-2.43-2.04-5.34-3.81-9.37-1.22c0.53,2.66,0.95,5.39,1.64,8.05c1.03,3.99,2.66,7.87,3.27,11.91c0.69,4.61,2.98,8.07,6.05,11.23
			c6.91,7.14,15.36,12.03,24.33,15.99c4.37,1.93,7.87,4.79,10.3,8.66c4.01,6.39,9.36,11.29,15.16,15.95
			c2.99,2.41,5.54,5.51,7.77,8.67c2.47,3.5,1.36,6.22-2.77,7.38c-3.02,0.84-5.6,0.67-6.44,0.55c-13.14-1.98-19.78-3-23.06-4.46
			c-1.08-0.48-4.13-2.12-10.24-5.36c-2.27-1.21-4.52-2.44-6.93-3.74c-0.37-2.26-1.2-5.66-3.25-9.3c-0.84-1.5-1.56-2.64-2.53-3.73
			c-4.17-4.67-8.12-9.63-12.81-13.73c-2.82-2.47-6.74-3.89-10.37-5.19c-3.27-1.18-4.96,0.28-4.86,3.76
			c0.05,1.67,0.56,3.43,1.28,4.95c1.4,2.93,2.84,5.9,4.72,8.54c8.79,12.37,23.52,19.55,23.52,19.55
			c22.24,11.59,49.76,13.66,54.12,13.01c0.46-0.07,2.46-0.44,4.49,0.52c1.09,0.52,2.02,1.35,2.82,2.48
			c1.61,2.29,2.97,4.78,4.29,7.26c2.34,4.39,4.46,8.89,6.85,13.25c6.38,11.63,14.17,22.28,22.98,32.17
			c7.06,7.92,14.09,15.89,21.4,23.58c10.91,11.48,22.05,22.75,33.13,34.07c8.17,8.34,16.29,16.74,24.64,24.89
			c8.37,8.18,17.05,16.05,25.51,24.14c10.94,10.49,21.74,21.13,32.71,31.58c6.57,6.26,13.42,12.23,20.06,18.42
			c1.45,1.35,3.43,2.71,2.4,6.14c-1.81-1.04-3.27-1.74-4.58-2.66c-2.65-1.87-5.09-4.05-7.82-5.77c-6.97-4.38-13.91-8.84-21.14-12.77
			c-5.87-3.18-12.01-5.95-18.26-8.32c-9.47-3.59-19.19-6.49-28.68-10.03c-10.55-3.93-21.03-8.06-31.4-12.44
			c-8.17-3.45-16.3-7.06-24.12-11.23c-13.76-7.33-27.67-14.48-40.75-22.92c-12.35-7.97-23.83-17.33-35.45-26.38
			c-9.06-7.05-17.81-14.5-26.61-21.89c-11.28-9.48-22.98-18.54-33.59-28.71c-19.41-18.61-38.43-37.64-57.04-57.03
			c-8.05-8.39-14.77-18.08-21.92-27.31c-0.91-1.17-1.34-3.32-0.97-4.74c1.14-4.37,2.8-8.61,4.22-12.91c1.02-3.07,2.3-6.09,2.94-9.23
			c1.74-8.61,1.45-17.22-0.4-25.82c-0.49-2.3-0.36-4.73-0.63-7.08c-0.32-2.76-0.25-5.73-1.27-8.22c-3.25-7.94-3.63-16.23-2.36-24.36
			c1.44-9.21-0.46-17.71-3.27-26.17c-1.58-4.77-4.75-8.16-10.84-8.67c-2.31,6.56-2.93,13.14-1.13,19.7
			c3.55,12.96,7.86,25.72,11.07,38.75c2.27,9.22,3.55,18.73,4.68,28.18c0.59,4.93-0.31,9.96-3.4,15.36
			c-1.01-5.96-2.28-11.04-2.63-16.17c-0.38-5.59-3.43-9.76-6.29-14.03c-3.6-5.37-7.85-10.32-11.28-15.8
			c-2.01-3.21-3.15-7.03-4.36-10.67c-2.73-8.22-4.74-16.72-8.04-24.69c-2.2-5.3-5.95-10.01-9.33-14.75
			c-2.2-3.08-5.48-4.87-9.28-5.59c-2.77-0.53-4.45,0.77-4.37,3.33c0.1,2.98,0.4,6.18,1.57,8.86c3.14,7.14,6.13,14.5,10.41,20.96
			c7.9,11.92,16.44,23.44,25.19,34.77c5.98,7.74,10.21,16.08,11.76,25.7c0.94,5.86,1.02,11.75-0.11,18.04
			c-1.45-0.79-2.14-0.98-2.56-1.42c-8.19-8.72-16.93-16.82-26.67-23.8c-0.35-0.25-0.7-0.54-0.93-0.9
			c-5.74-8.9-12.64-17.11-16.37-27.2c-2.23-6.05-7.4-9.53-11.82-13.61c-1.14-1.05-3.55-0.72-5.51-1.05c-1.5,3.66-1.05,6.55,0.51,9.3
			c4.07,7.17,7.74,14.63,12.48,21.33c3.44,4.87,7.7,9.76,12.72,12.79c13.02,7.86,23.74,18.1,33.73,29.29
			c0.63,0.7,0.86,1.75,1.62,3.36c-2.46,0-4.14,0.13-5.8-0.02c-7.99-0.74-15.96-1.66-23.96-2.34c-9.97-0.84-19.11-3.5-26.22-11.07
			c-1.19-1.26-2.62-2.31-3.7-3.65c-5.83-7.25-11.8-14.39-17.28-21.9c-5.28-7.23-11.19-13.79-18.09-19.45
			c-1.83-1.5-3.83-3.1-6.02-3.76c-1.84-0.55-4.84-0.55-5.92,0.57c-1.04,1.08-0.91,4.18-0.16,5.9c2.07,4.75,5.01,9.12,7.1,13.87
			c3.32,7.57,8.58,13.54,14.64,18.88c1.91,1.68,4.19,3.59,6.54,4c8.77,1.56,15.53,6.36,21.83,12.17c5.4,4.98,11.67,8.27,19,9.31
			c11.37,1.61,22.74,3.35,34.15,4.64c3.27,0.37,5.8,1.48,8.08,3.58c2.68,2.49,4.85,5.03,6.19,8.81c2.33,6.56,7.37,11.61,11.84,16.94
			c6.27,7.46,11.76,15.59,18.19,22.9c19.21,21.84,38.88,43.25,60.11,63.19c17.87,16.78,35.41,33.92,55.89,47.67
			c5.93,3.98,11.53,8.47,17.13,12.93c10.57,8.42,21.94,15.64,34.15,21.34c17.27,8.06,34.77,15.62,52.17,23.38
			c0.59,0.26,1.22,0.45,1.83,0.69c9.42,3.86,18.82,7.77,28.27,11.57c8.72,3.52,9.23,3.36,15.79,5.99
			c19.18,7.7,41.83,17.11,57.17,38.62c2.05,2.88,3.53,5.35,4.48,7.03c3.81,6.75,8.57,17.89,10.91,40.59
			c1.15,11.18,0.52,22.54,0.61,33.83c0.08,10.17,0.01,20.33,0.13,30.5c0.13,11.07,0.53,22.13,0.55,33.2
			c0.02,8.46-0.24,16.92-0.61,25.37c-0.86,19.51-2.29,39.01-2.7,58.54c-0.37,17.35,0.43,34.73,0.52,52.09
			c0.13,24.52,0.19,49.04,0.07,73.56c-0.07,13.89-0.56,27.78-0.84,41.67c-0.51,24.96-0.89,49.92-1.54,74.88
			c-0.7,26.9-1.64,53.8-2.49,80.7c-0.83,26.24-2.92,52.47-2.67,78.73c0,0,0.58,59.44-12.01,90.5c-0.97,2.4-1.64,3.95-1.64,3.95
			c-5.83,8.34-11.38,16.79-13.44,27.04c-0.64,3.17-1.92,6.22-2.99,9.29c-6.73,19.48-14.12,38.75-20.05,58.47
			c-6.75,22.45-13.26,44.95-21.42,66.93c-2.4,6.48-5.37,12.67-10.07,18.77c-0.56-1.94-1.16-3.14-1.22-4.37
			c-0.46-9.3-1.19-18.61-1.13-27.91c0.17-24.52,0.67-49.04,1.1-73.55c0.05-3.04,0.25-2,0.74-6.39c3.24-29.06,2.68-40.12,4.44-71.16
			c0.17-3,4.49-41.14,7.61-68.54c0.12-1.07,0.33-2.15,0.63-3.19c3.75-12.91,7.37-25.85,11.31-38.7
			c6.25-20.36,13.52-40.33,23.73-59.11c2.99-5.5,6.18-10.89,9.15-16.39c0.83-1.53,1.21-3.3,1.88-5.19
			c-5.34-1.48-7.18,1.92-9.19,4.52c-3.97,5.14-7.86,10.37-11.45,15.77c-6.47,9.73-13.16,19.26-16.75,30.68
			c-2.71,8.62-6.75,16.84-10.32,25.18c-0.84,1.97-2.14,3.75-3.8,6.59c-2.03-13.97-0.66-36.62,2.66-49.29
			c3.91-14.92,7.41-29.92,8.11-45.41c0.59-13,1.08-26,1.77-38.99c0.45-8.44,1.18-16.87,1.77-25.3c0.06-0.87,0.04-1.74,0.08-2.6
			c0.09-2.18-0.54-3.97-2.95-4.32c-2.63-0.38-3.33,1.48-3.61,3.57c-1.06,7.73-2.46,15.43-3.08,23.19
			c-1.68,21.04-5.45,41.62-11.5,61.86c-2.15,7.18-2.93,14.81-3.98,22.28c-0.82,5.79-1.15,11.64-1.58,17.48
			c-0.62,8.4-1.35,16.79-1.61,25.2c-0.18,6.06,0.4,12.14,0.49,18.22c0.02,1.52-0.51,3.05-1,5.82c-0.95-2.08-1.5-2.81-1.61-3.6
			c-1.34-9.66-3-19.29-3.83-29c-1.2-14.1,0.53-28.09,1.97-42.13c1.52-14.88,1.98-29.87,2.63-44.83c0.58-13.44,0.83-26.89,1.1-40.35
			c0.05-2.36-0.21-4.8-0.79-7.09c-0.74-2.91-3.4-3.44-5.34-1.11c-0.94,1.12-1.73,2.59-2.02,4.01c-1.24,6.15-3.09,12.32-3.21,18.51
			c-0.31,16.06-0.62,32.05-3.85,47.89c-1.51,7.4-1.48,15.1-2.82,22.54c-2.02,11.16-3.1,22.33-2.36,33.66
			c0.46,7.13,0.84,14.26,1.2,21.39c0.47,9.11,2.02,17.99,4.48,26.8c3.44,12.32,7.25,24.64,9.27,37.22
			c2.91,18.03,2.57,36.35,1.45,54.58c-0.06,1.04-0.76,2.04-1.72,4.43c-0.71-3.83-1.16-6.14-1.56-8.46
			c-2.94-16.87-5.91-33.73-8.79-50.6c-2.37-13.89-4.81-27.76-6.9-41.69c-2.7-18.02-5.01-36.11-7.62-54.15
			c-1.62-11.15-3.36-22.28-5.3-33.38c-2.27-13-4.51-26.02-7.33-38.91c-4.16-19.05-8.9-37.9-10.35-57.51
			c-1.48-20.16,0.79-39.54,9.23-57.77c9.63-20.82,24.54-37.78,42.43-51.92c14.11-11.15,28.83-21.53,43.23-32.31
			c1.72-1.29,3.44-2.74,4.72-4.44c2.21-2.94,0.89-6.29-2.76-6.76c-2.04-0.26-4.41,0.08-6.29,0.91c-3.55,1.57-7.04,3.43-10.23,5.64
			c-10.49,7.27-20.83,14.76-31.25,22.12c-1.5,1.06-3.15,1.9-5.76,3.46c8.94-14.99,19.85-26.7,30.82-38.39
			c15.92-16.96,29.56-35.29,34.16-58.85c0.17-0.85,0.53-1.66,0.71-2.51c1.78-8.47,3.6-16.93,5.27-25.42
			c0.48-2.43,0.46-4.94-2.83-5.56c-3.01-0.58-5.03,0.58-6.05,3.52c-0.85,2.46-1.96,4.84-2.68,7.34
			c-3.82,13.29-7.4,26.53-13.46,39.17c-8.07,16.85-19.66,30.57-33.56,42.5c-7.85,6.74-14.83,13.93-19.42,23.29
			c-1.44,2.93-3.18,5.77-6.75,7.07c1.25-5.32,3.38-10.26,4.81-15.38c1.74-6.24,2.79-12.68,4.31-18.99
			c2.66-11.03,7.48-21.22,12.47-31.34c1.14-2.32,2.18-4.73,2.89-7.21c2.26-7.88,4.45-15.79,6.42-23.75c0.44-1.79,0.3-4.02-0.38-5.71
			c-0.53-1.32-2.22-2.79-3.58-3c-1.33-0.21-3.38,0.71-4.24,1.82c-1.43,1.84-2.35,4.15-3.17,6.38c-3.29,8.96-6.15,18.09-9.76,26.91
			c-5.25,12.85-11.02,25.49-16.54,38.22c-3.7,8.54-5.57,12.81-6.12,14.28c-8.98,23.94-3.93,36.03-12.35,60.7
			c-1.75,5.11-3.78,9.91-6.01,14.4c-3.26-10.66-6.88-20.25-9.02-30.16c-2.19-10.13-2.88-20.58-4.3-30.89
			c-0.8-5.81-1.62-11.61-2.67-17.38c-0.69-3.79-2.19-4.89-5.09-4.44c-3.43,0.53-4.68,2.11-4.45,5.8c0.45,7.36,0.85,14.73,1.42,22.08
			c1.09,14.26,1.97,28.52,4.63,42.63c2.4,12.75,4.79,25.58,5.82,38.48c1,12.51,0.16,25.15,0.31,37.74
			c0.09,7.16,0.28,14.33,0.91,21.45c0.67,7.55,1.9,15.05,2.89,22.56c1.57,11.82,2.71,23.71,4.83,35.43
			c2.62,14.49,6.09,28.82,9.1,43.23c0.74,3.54,1.11,7.16,1.66,10.75c-1.46-0.74-2.14-1.79-2.69-2.91
			c-3.55-7.2-7.09-14.4-10.58-21.63c-4.72-9.75-10.15-19.24-13.92-29.34c-6.9-18.48-13.15-37.2-17.12-56.61
			c-4.34-21.24-9.15-42.39-13.44-63.64c-3.13-15.51-5.71-31.12-8.6-46.67c-3.39-18.23-5.74-36.47-0.69-54.8
			c3.45-12.53,6.31-25.2,12.7-36.8c5.18-9.4,11.21-18.09,18.55-25.81c6.11-6.41,12.44-12.7,19.28-18.3
			c9.87-8.09,20.39-15.37,30.41-23.27c4.25-3.34,7.98-7.34,11.87-11.12c0.91-0.89,1.65-2.03,2.2-3.19c1.21-2.56,0.39-4.61-2.31-4.68
			c-2.7-0.07-5.8,0.25-8.07,1.55c-10.16,5.8-20.21,11.82-30.07,18.12c-10.04,6.41-20.08,12.9-27.55,22.52
			c-0.43,0.55-1.34,0.73-2.49,1.31c-0.11-2.07-0.38-3.57-0.23-5.02c1.41-14.24,3.05-28.47,4.25-42.73
			c0.51-6.01,0.25-12.1,0.04-18.14c-0.04-1.2-1.37-3.25-2.25-3.33c-1.41-0.13-3.43,0.68-4.29,1.79c-1.12,1.46-1.54,3.55-1.92,5.44
			c-1.6,7.85-3.23,15.7-4.53,23.6c-1.34,8.11-3.23,16.28-3.21,24.42c0.02,13.1-4.36,25.02-7.86,37.24
			c-0.18,0.62-0.57,1.17-0.82,1.77c-4.39,10.61-8.77,21.22-13.14,31.84c-0.99,2.39-1.96,4.79-3.24,7.93
			c-1.84-8.67-3.44-16.29-5.09-23.9c-1.61-7.42-3.49-14.78-4.82-22.25c-0.87-4.88-1.64-9.96-1.25-14.85
			c0.62-7.74,2.24-15.41,3.48-23.1c0.24-1.49,0.61-2.97,1.03-4.42c3.21-11.23,6.51-22.43,9.64-33.67c1.11-3.97,1.49-8.15,2.8-12.04
			c4.24-12.55,4.69-25.51,4.73-38.54c0.01-4.04,0-8.08,0-12.6c-1.14-1.11-3.14-3.33-4.92-0.88c-2.73,3.76-6.29,7.11-6.93,12.22
			c-0.82,6.45-1.72,12.92-3.21,19.24c-3.34,14.13-7.61,28.03-9.18,42.58c-0.58,5.33-2.13,10.64-3.89,15.74
			c-4.92,14.3-9.97,28.52-7.03,45.18c-4.73-4.4-7.94-8.26-9.98-13.18c-5.26-12.66-12.88-23.05-26.8-27.35
			c-3.27-1.01-6.16-1.61-9.28,0.79c0.49,1.42,0.76,2.67,1.33,3.77c3.18,6.08,7.93,10.81,13.23,15.04
			c5.34,4.26,9.79,9.29,12.32,15.69c3.45,8.77,8.04,16.96,14.06,24.05c8.99,10.58,14.05,22.71,16.95,36.06
			c3.53,16.3,7.8,32.45,10.9,48.83c3.5,18.5,6.19,37.17,8.99,55.8c1.87,12.4,3.25,24.87,4.98,37.29c0.95,6.82,2.18,13.6,3.5,21.69
			c-1.79-1.64-2.7-2.45-3.59-3.29c-9.1-8.58-15.13-19.48-22.2-29.59c-4.59-6.58-9.65-12.96-13.3-20.05
			c-8.57-16.65-14.48-34.29-17.7-52.82c-0.74-4.23-2.33-8.32-3.54-12.47c-0.48-1.66-1.05-3.3-1.5-4.96
			c-2.88-10.66-5.43-21.42-8.68-31.96c-3.32-10.76-7.77-21.18-10.94-31.97c-4.87-16.6-13.09-31.57-21.25-46.61
			c-0.93-1.71-1.85-3.6-3.28-4.8c-1.13-0.94-3.42-1.71-4.5-1.16c-1.11,0.56-1.93,2.83-1.86,4.3c0.11,2.31,1.06,4.58,1.68,6.86
			c1.42,5.18,2.21,10.67,4.43,15.49c7.88,17.12,16.08,34.08,21.1,52.36c1.72,6.26,4.07,12.36,5.64,18.66
			c2.93,11.74,5.51,23.57,8.18,35.38c0.34,1.52,0.34,3.13,0.5,4.69c-3.62-5.88-6.02-12.04-8.45-18.19
			c-4.87-12.32-10.25-24.42-17.7-35.4c-5.58-8.23-11.73-16.09-17.93-23.87c-3.5-4.4-7.6-8.33-11.46-12.44
			c-1.8-1.92-3.71-3.16-6.11-0.08c1.51,5.59,4.33,10.68,7.85,15.36c11.3,15.02,19.56,31.69,26.26,49.11
			c3.99,10.35,8.54,20.32,14.32,29.77c2.41,3.94,4.63,8,6.93,12c-3.17-2.22-7.88-5.63-13.4-10.07c-5.42-4.36-7.24-5.77-16.14-14.1
			c-10.14-9.49-20.18-19.04-32.59-25.67c-4-2.14-7.64-4.94-11.46-7.44c-10.34-6.76-20.72-13.43-30.99-20.29
			c-8.47-5.65-16.76-11.56-25.2-17.24c-2.87-1.93-5.89-3.69-9.02-5.15c-2.16-1.01-4.09,0.47-3.69,2.81
			c0.31,1.84,1.08,3.85,2.28,5.23c1.97,2.27,4.31,4.27,6.73,6.07c6.26,4.66,12.77,8.98,18.96,13.73
			c14.44,11.08,28.68,22.42,43.15,33.46c11.05,8.43,22.13,16.79,31.25,27.39c0.74,0.86,1.2,1.96,1.78,2.95
			c-10.68-3.64-21.04-7.13-30.69-12.58c-6.92-3.91-14.5-6.7-21.94-9.58c-7.95-3.08-16.35-1-24.54-1.3
			c-1.11-0.04-2.78,1.24-3.31,2.34c-0.94,1.95,0.53,3.23,2.28,3.96c6.18,2.56,12.38,5.05,18.56,7.61c3.2,1.33,6.39,2.69,9.53,4.14
			c11.2,5.18,22.35,10.46,33.58,15.55c2.35,1.07,4.93,1.85,7.49,2.17c10.37,1.31,19.52,5.67,28.28,11.01
			c5.36,3.26,10.86,6.4,15.77,10.27c11.14,8.81,20.49,16.51,26.71,22.64c34.22,33.71,53.53,73.87,59.32,86.59
			c2.72,5.99,4.75,10.95,5.99,14.07c-4.16-2.3-7.31-3.71-10.09-5.64c-9.84-6.84-20.3-12.5-31.26-17.32
			c-6.35-2.79-12.41-6.21-18.69-9.15c-7.63-3.58-15.27-7.16-23.07-10.34c-13.24-5.41-15.34-5.33-21.81-8.11
			c-14.12-6.08-16.9-12.14-51.32-42.6c-9.29-8.22-12.63-10.72-14.31-12.24c-10.11-9.14-23.05-13.73-34.05-21.43
			c-0.35-0.25-0.78-0.54-1.17-0.53c-1.39,0.02-3.41-0.34-4,0.4c-0.69,0.87-0.4,2.8-0.03,4.13c0.33,1.19,1.18,2.38,2.11,3.24
			c3.98,3.67,7.9,7.43,12.16,10.75c4.92,3.84,10.41,6.97,15.21,10.93c13.01,10.75,22.83,24.2,31.55,38.5
			c0.62,1.02,0.81,2.31,1.29,3.73c-4.89,2.43-9.7,1.13-14.36,1.09c-11.48-0.09-22.96-0.49-34.44-0.35
			c-6.71,0.09-13.42,0.89-20.11,1.53c-8.86,0.86-17.81,1.59-25.87,5.86c-12.66,6.7-25.23,13.55-37.83,20.36
			c-1.95,1.05-3.86,2.2-2.87,5.84c2.14-0.47,4.47-0.59,6.45-1.49c7.28-3.28,12.69-5.91,14.59-7.19c8.26-5.54,17.39-7.77,26.37-9.97
			c13.73-3.36,24.96-3,31.78-2.74c9.39,0.37,17.23,1.69,22.94,2.96c-4.19,5.84-9.43,8.27-15.07,10.02
			c-7.45,2.31-14.99,4.3-21.56,8.84c-2.84,1.96-5.95,3.56-9.05,5.1c-8.73,4.34-17.54,8.3-23.97,16.29
			c-9.12,11.34-19.28,21.72-31.72,29.57c-0.55,0.35-1.13,0.68-1.59,1.13c-3.46,3.29-7.03,6.48-10.24,10.01
			c-0.91,1-1.43,3.53-0.8,4.44c0.7,1.01,2.95,1.41,4.46,1.28c1.64-0.14,3.28-1.06,4.79-1.88c11.15-6.09,20.68-14.07,29.25-23.53
			c11.79-13.02,25.9-23.06,42.47-29.3c1.22-0.46,2.67-0.3,4.67-0.5c-0.95,2.39-1.55,3.99-2.22,5.55
			c-3.17,7.38-5.89,14.85-7.63,22.76c-1.38,6.29-3.86,12.35-6.09,18.42c-0.46,1.26-1.92,4.26-3.77,7.56
			c-5.67,10.13-11.1,14.44-23.55,29.17c-7.31,8.65-9.48,11.94-8.44,13.5c1.15,1.72,5.78,0.84,6.47,0.36
			c4.6-3.17,9.35-6.4,13.12-10.45c6.04-6.49,11.21-13.78,16.97-20.53c7.01-8.22,11.95-17.57,15.15-27.77
			c2.65-8.47,5-17.07,6.79-25.76c2.01-9.79,7.44-16.36,16.38-20.38c2.97-1.33,5.86-2.85,8.7-4.44c6.43-3.6,12.49-8.09,19.28-10.79
			c14.5-5.77,29.46-6.6,44.6-1.87c17.38,5.43,34.78,10.54,51.46,18.19c12.25,5.61,24.28,11.5,35.97,18.12
			c4.59,2.6,8.7,6.05,13.97,9.79c-2.2,0.24-3.2,0.39-4.19,0.44c-6.27,0.33-12.57,0.39-18.81,1.01c-6.92,0.68-13.64,2.2-19.89,5.62
			c-7.6,4.17-15.34,8.1-23.15,11.88c-5.07,2.45-10.62,3.98-15.5,6.72c-9.69,5.44-19.93,9.5-30.27,13.39
			c-3.64,1.37-7.17,3.37-10.94,4c-11.41,1.91-22.26,5.53-32.79,10.1c-2.33,1.01-4.4,3.52-5.69,5.84c-1.78,3.19,0.07,5.7,3.7,5.36
			c3.85-0.36,7.72-0.97,11.49-1.85c12.02-2.82,24.02-5.71,35.97-8.8c3.74-0.97,7.28-2.66,10.92-4.01c1.33-0.5,2.66-0.99,4.24-1.57
			c0.12,1.12,0.44,1.83,0.22,2.32c-3.92,8.91-7.37,18.09-12.01,26.62c-7.49,13.8-11.84,28.34-12.67,43.94
			c-0.18,3.44,0.12,6.98,0.82,10.35c0.28,1.34,2.11,2.96,3.49,3.24c0.83,0.17,2.41-1.81,3.17-3.11c0.86-1.47,1.24-3.23,1.74-4.9
			c3.68-12.25,7.01-24.61,13.18-35.97c2.48-4.57,4.35-9.47,6.7-14.11c1.17-2.31,1.71-5.2,5.04-7.12c0.21,8.34,0.73,15.87,0.52,23.39
			c-0.36,12.33-1.61,24.65-1.68,36.97c-0.04,7.33,1.59,14.63,5.09,21.31c1.58,3.01,2.44,3.61,3.06,3.52
			c2.1-0.3,2.48-8.63,3.14-22.57c1.28-27.07,1.08-23.07,1.26-25.98c0.98-16.03,1.85-32.06,3.15-48.06
			c0.82-10.05,4.76-18.82,12.45-25.73c16.22-14.58,35.06-20.87,56.82-18.75c7.26,0.71,13.47,3.4,18.73,8.15
			c8.19,7.41,16.54,14.62,23.34,23.51c9.83,12.84,18.19,26.35,23.04,41.93c2.58,8.28,5.93,16.31,8.77,24.51
			c1.36,3.92,1.78,7.06,2.17,8.81c7.03,31.67,11.41,51.38,10.06,51.75c-1.09,0.3-3.62-12.59-12.89-31.07
			c-5.08-10.12-12.11-19.69-25.09-39.55c-5.1-7.8-11.4-14.88-15.94-22.98c-7.04-12.55-15.52-24.03-24.04-35.51
			c-1.31-1.77-3.16-3.13-4.96-4.87c-2.19,4.48-2.18,4.48-1.47,8.68c3.13,18.67,12.31,34.57,22.82,49.85
			c1.47,2.13,3.07,4.27,5.01,5.95c4.99,4.31,8.24,9.91,11.86,15.24c1.31,1.93,1.49,3.89-0.03,6.57c-1.84-1.25-3.4-2.28-4.93-3.34
			c-7.12-4.95-14.31-9.81-21.35-14.88c-8.94-6.44-17.89-12.9-26.6-19.64c-7.02-5.43-13.58-11.46-20.62-16.86
			c-2.2-1.69-5.65-4.38-8.1-1.34c-2.23,2.78,0.63,5.72,2.61,7.91c4.66,5.14,9.2,10.48,14.43,14.99
			c6.37,5.49,13.37,10.25,20.17,15.22c4.55,3.33,9.39,6.27,13.78,9.77c2.78,2.22,1.94,4.62-1.54,5.41
			c-8.03,1.81-16.04,3.69-24.4,2.51c-1.9-0.27-3.97-0.14-5.81,0.36c-1.47,0.4-3.53,1.4-3.88,2.56c-0.68,2.27,1.36,3.59,3.36,3.91
			c7.03,1.12,14.07,2.35,21.16,2.93c9.27,0.75,18.62,0.64,27.88,1.51c2.98,0.28,4.79,1.91,8.68,3.89
			c8.73,4.44,21.86,11.31,31.02,25.4c1.14,1.76,2.36,3.47,4.06,7.26c3.56,7.91,6.67,16.05,10.6,23.77
			c10.25,20.17,14.13,42.05,15.52,64.09c1.69,26.81,2.32,53.75,0.05,80.64c-0.91,10.8-1.36,21.64-2.33,32.44
			c-0.69,7.77-2,15.48-2.85,23.24c-3.96,36.34-6.61,32.48-8.79,53.26c-0.98,9.32-2.29,25.6-7.06,38.75c-0.3,0.82-1.18,3.15-2.5,6.88
			c-2.43,6.89-4.73,13.83-7.14,20.73c-2.43,6.96-4.47,14.1-7.47,20.81c-6.62,14.82-12.09,26.23-15.82,32.85
			c-15.49,27.49-60.45,94.18-64.75,101.47c-0.95,1.61-3.14,5.25-1.88,6.87c2.32,2.99,14.58-3.03,16.1-3.77
			c9.22-4.52,15.11-10.08,15.68-10.78c16.04-19.77,29.68-41.18,42.67-63.01c5.21-8.75,9.84-17.85,15.29-26.43
			c6.63-10.45,13.16-20.93,18.06-32.33c0.51-1.19,1.02-2.41,1.72-3.5c7.53-11.76,12.82-24.6,17.14-37.75
			c1.91-5.82,4.51-10.74,8.85-14.81c3.78-3.54,6.36-7.75,7.33-12.79c3.2-16.6,11.08-31.51,17.16-47.02
			c8.31-21.19,18.14-41.79,27.34-62.63c2.54-5.75,5.38-11.38,7.73-17.21c7.15-17.69,13.29-35.8,22.51-52.6
			c0.31-0.57,0.5-1.2,0.74-1.81c4.85-12.77,9.72-25.54,14.53-38.33c2.21-5.88,4.23-11.83,6.48-17.7c0.99-2.58,2.1-5.18,3.57-7.5
			c3.37-5.31,7.42-10.23,10.41-15.73c5.19-9.51,9.99-19.25,14.59-29.06c8.81-18.85,17.57-37.73,25.96-56.78
			c6.37-14.47,12.14-29.22,18.16-43.85c1.98-4.81,3.97-9.62,5.81-14.49c7.71-20.33,16.7-39.52,33.6-54.57
			c12.95-11.52,27.58-18.79,43.79-23.17c10.19-2.75,20.83-4.1,31.35-5.28c7.03-0.79,14.24-0.6,21.32-0.06
			c4.69,0.36,9.35,1.91,13.9,3.3c10.21,3.11,19.2,7.93,26.66,16.1c6.3,6.9,9.03,14.69,9.78,23.47c1.54,18.16,2.74,36.35,4.17,54.52
			c0.25,3.23,0.74,6.48,1.61,9.59c0.32,1.13,1.83,2.71,3.22,2.63c3.31-0.19,5.9-10.58,6.06-19.37c0.05-2.65-0.87-2.66-0.9-10.34
			c-0.04-8.02,0.07-15.97-1.48-23.97c-0.83-4.29-1.77-9.21,0.41-13.89c4.48,2.92,7.8,5.66,9.94,7.56
			c10.17,9.01,22.74,24.61,25.86,26.52c0.22,0.13,1.86,1.21,2.87,2.22c0.55,0.55,0.79,0.95,1.82,1.91
			c17.29,16.03,22.36,32.06,24.88,31.1c1.51-0.58,0.53-6.66-0.23-9.92c-0.92-4.01-2.89-7.64-5.74-11.16
			c-1.22-1.51-2.21-3.22-3.32-4.82c-6.45-9.26-12.22-19.11-19.51-27.65c-10.98-12.86-22.96-24.88-36.49-35.18
			c-5.02-3.82-8.33-9.02-12.69-14.83c2.59,0,3.91-0.26,5.09,0.04c8.83,2.26,17.9,4.18,25.48,9.44c6.01,4.18,11.17,9.58,16.99,14.07
			c8.27,6.39,16.86,12.26,27.88,12.81c5.62,0.29,11.23,0.9,16.85,1.09c2.8,0.09,5.67-0.2,8.41-0.79c1.14-0.24,3.18-1.4,3.19-2.53
			c0.01-2.1-7.37-3.24-15.83-5.53c-7.81-2.11-20.52-3.35-29.54-12.09c-4.18-4.04-8.99-7.5-13.83-10.77
			c-5.02-3.39-10.88-5.65-15.55-9.44c-9.71-7.87-20.52-10.72-32.73-9.57c-4.53,0.43-9.16,1.05-13.63,0.54
			c-10.33-1.19-20.69-2.48-30.83-4.71c-12.38-2.72-24.74-4.38-37.41-3.42c-1.8,0.14-3.65-0.3-5.67-0.49
			c0.47-0.92,0.56-1.45,0.85-1.61c14.45-7.91,27.73-17.86,43.15-24.08c7.93-3.2,14.38-4.01,23.32-5.22
			c28.47-3.84,51.47,2.02,67.03,6.14c5.23,1.39,18,6.05,43.47,15.55c10.75,4.01,21.95,6.88,31.76,13.27
			c8.33,5.42,17.88,8.8,25.6,15.3c1.8,1.52,1.12,0.57,6.31,3.34c5.94,3.18,8.94,4.73,9.27,4.39c1.12-1.16-10.87-19.7-31.4-33.98
			c-21.48-14.94-41.19-17.49-40.45-21.27c0.61-3.11,14.33-3.29,24.97-3.44c7.9-0.11,14.67,0.05,18.02,0.79
			c5.68,1.25,11.53,2.39,17.31,2.39c7.55,0,15.11-1.1,22.65-1.85c3.45-0.34,6.88-0.94,10.3-1.49c2.1-0.34,3.8-1.3,3.73-3.73
			c-0.07-2.58-2.13-3.19-4.11-3.24c-5.2-0.14-10.41,0.08-15.6-0.09c-8.01-0.25-16.18,0.19-23.97-1.3
			c-10.31-1.96-20.65-2.44-31.01-3.35c-6.65-0.59-12.88,0.41-19.24,2.1c-7.93,2.11-15.83,4.75-24.29,3.63
			c-7.72-1.02-15.47-1.8-23.18-2.83c-1.52-0.2-2.95-1.08-5.29-1.98c1.94-0.97,2.84-1.61,3.83-1.88c14.67-3.88,29.28-8.04,44.43-9.82
			c11.91-1.41,23.44-4.64,34.49-9.2c8.38-3.46,16.55-7.55,24.46-11.98c3.27-1.83,5.84-5.1,8.29-8.08c0.64-0.78,1.19-3.42,0.21-4.6
			c-2.64-3.19-17.03,4.78-23.4,8.05c-26.62,13.7-53.64,17.87-107.72,25.87c-3.91,0.58-7.08,1.02-8.94,1.27
			c1.15-1.84,2.49-3.44,4.15-4.56c4.68-3.14,9.76-5.74,14.17-9.2c4.13-3.25,8.66-6.44,16.63-14.54
			c12.59-12.79,38.81-42.31,36.17-44.96c-2.13-2.13-22.09,14.19-30.04,21.04c-6.94,5.98-7.16,7.3-16.69,15.49
			c-10.02,8.6-20.39,16.79-30.41,25.39c-10.65,9.14-22.09,16.68-35.75,20.62c-11.88,3.43-23.9,6.59-35.38,11.09
			c-16.12,6.31-32.2,12.93-46.74,22.61c-1.22,0.81-2.9,0.9-5.36,1.62c5.7-13.6,11.76-24.15,16.46-31.53
			c8.31-13.05,18.05-23.85,37.53-45.46c11.3-12.53,14.46-15.31,17.93-17.93c10.06-7.59,15.25-8.16,27.35-16.92
			c2.25-1.63,0.42-0.41,17.2-14.87c6.24-5.38,16.04-17.97,25.65-29.24c1.31-1.54,1.97-4.03,1.26-4.71
			c-1.59-1.49-10.63,5.75-14.02,8.45c-8.46,6.77-9.37,9.43-16.75,15.35c-2.17,1.75-2.63,2.1-19.01,13.56
			c-13.43,9.39-15.46,10.84-16.19,10.19c-2.35-2.11,11.54-23.29,16.62-30.62c4.18-6.03,6.38-13.22,9.6-19.81
			c0.3-0.61,1.24-2.52,0.74-2.91c-0.01-0.01-0.02-0.01-0.02-0.02c-1.61-1.1-19.97,21.56-35.54,44.46
			c-8.74,12.85-8.05,13.49-17.08,26.02c-7.85,10.9-15.21,22.22-25.18,31.43c-1.73,1.6-3.26,3.41-4.88,5.12
			c0.2-4.11,1.2-7.62,2.15-11.13c2.32-8.57,4.01-17.38,7.07-25.67c4.34-11.77,9.46-23.28,14.69-34.7c3.6-7.87,7.2-15.92,12.1-22.99
			c10.6-15.3,21.19-30.76,35.66-42.85c7.15-5.98,14.25-12.12,21.98-17.28c18.03-12.03,38.14-15.23,59.2-11.28
			c17.48,3.27,34.82,7.16,52.77,6.22c1.06-0.05,2.14,0.42,3.22,0.45c13.51,0.37,25.89-4.1,25.58-6.28
			c-0.37-2.63-19.49-2.45-20.54-2.44c-1.83,0.02-2.81-0.04-5.2,0.06c-9.05,0.36-17.61-1.32-25.86-5.24
			c-8.64-4.1-17.65-7.15-27.24-8.41c-8.05-1.06-16.05-2.55-24.62-3.94c5.31-7.86,12.48-12.55,20.6-15.68
			c15.58-6.01,31.15-12.08,46.98-17.36c20.17-6.71,34.75-20.75,48.9-35.55c0.15-0.16,0.38-0.34,0.39-0.51c0.03-1,0.39-2.28-0.1-2.92
			c-0.48-0.64-2.07-1.15-2.73-0.82c-2.51,1.25-4.92,2.75-7.23,4.34c-11.43,7.87-22.91,15.57-36.15,20.32
			c-6.29,2.26-12.18,5.61-18.35,8.24c-5.38,2.29-10.86,4.38-16.38,6.32c-1.62,0.57-3.52,0.3-5.3,0.42c-0.24-0.47-0.49-0.93-0.73-1.4
			c4.06-4.93,8.08-9.89,12.18-14.78c6.36-7.6,13.48-14.57,18.39-23.37c6.54-11.73,13.45-23.24,20.01-34.96
			c1.16-2.07,1.41-4.66,2.02-6.78c-3.67-2.35-5.87-0.95-7.57,1.2c-7.89,10.03-16.19,19.8-23.24,30.4
			c-3.16,4.75-5.62,10.12-8.78,15.05c-6.39,9.96-14.32,18.6-22.66,26.79c-13.63,13.37-27.63,26.38-41.82,39.15
			c-12.88,11.59-26.21,22.67-39.38,33.93c-0.37,0.32-1.15,0.15-1.94,0.23c0-0.81-0.18-1.48,0.03-2.01
			c5.73-14.97,11.19-30.06,17.35-44.85c4.34-10.42,3.48-8.11,8.1-17.2c2.52-4.96,12.52-24.29,26.34-42.57
			c10.05-13.29,11.57-12.17,55.38-53.77c13.79-13.1,17.79-17.01,21.65-20.33c4.26-3.66,6.97-5.66,9.76-7.88
			c29.48-23.37,37.53-38.94,64.95-52.4c0.72-0.35,0.51-0.28,1.87-0.91c10.13-4.66,31.63-17.01,41.57-23.19
			c2.44-1.52,22.77-14.15,21.46-16.76C1999.34,1156.61,1994.38,1157.98,1990.82,1158.98z M1871.51,829.81
			c-5.67,10.04-14.69,14.57-23.61,20.17C1850.45,841.43,1862.21,831.34,1871.51,829.81z M1844.87,809.55
			c5.36-7.84,10.68-15.7,16.22-23.41c1.12-1.56,3.08-2.52,4.66-3.76c0.45,0.33,0.89,0.66,1.34,0.99c-0.43,1.5-0.44,3.36-1.35,4.46
			c-6.51,7.77-13.2,15.38-19.94,23.18C1845.24,810.16,1844.78,809.67,1844.87,809.55z M1818.34,775.42
			c3.34,13.75-6.6,22.41-11.1,33.23C1801.73,800.54,1807.8,782.24,1818.34,775.42z M1762.48,800.14c-1.06-4.7-2.49-9.34-0.92-14.45
			C1765.32,789.53,1765.61,793.4,1762.48,800.14z M1733.62,890.3c-0.16,2.89,0.37,5.04-0.46,6.27c-4.28,6.4-8.9,12.58-13.45,18.81
			c-0.18,0.25-0.79,0.18-2.84,0.58C1722.13,906.8,1723.23,896.58,1733.62,890.3z M1711.74,858.44c-1.68,8.29-3.13,16.69-9.73,22.88
			C1703.84,873.11,1703.97,864.22,1711.74,858.44z M1668.99,900.41c0.54,0.08,1.08,0.17,1.62,0.25c0.04,1.6-0.05,3.4-0.36,5.34
			c-1.04,6.47-4.05,11.22-6.19,13.97C1665.71,913.45,1667.35,906.93,1668.99,900.41z M1663.99,850.45
			c4.02,8.29-0.74,26.01-8.97,32.14C1654.66,870.32,1654.42,859.25,1663.99,850.45z M1624.82,893.72c0.9,8.28-2.13,15.37-6.84,21.98
			C1617.39,907.46,1618.3,899.68,1624.82,893.72z M1663.76,811.44c5.1-6.17,11.69-11.16,12.2-10.63
			c0.92,0.95-17.45,21.13-18.45,20.33C1657.01,820.75,1660.6,815.26,1663.76,811.44z M1650.71,782.22
			c1.55,6.73-0.33,12.41-4.98,17.23C1644.9,793.01,1646.86,787.35,1650.71,782.22z M1625.19,738.08c3.44,9.44,0.3,29.63-5.75,38.64
			C1617.62,763.17,1617.83,750.72,1625.19,738.08z M1591.6,772.2c-0.23,9.86-0.76,19.71-1.96,29.65c-4.37-6.67-5.21-14.2-5.58-21.72
			c-0.28-5.67-0.2-11.48,3.26-17.45C1590.77,765.82,1591.68,768.97,1591.6,772.2z M1559.39,813.45c-6.2-6.58-9.73-21.02-6.54-28.17
			C1558.24,791.73,1561.32,805.53,1559.39,813.45z M1578.72,678.37c3.09,5.33,2.39,8.41-2.79,13.44
			C1574.59,686.71,1575.81,682.64,1578.72,678.37z M1554.02,668.7c3.86,6.56,4.44,13.03,2.74,19.24c-0.75,2.73-4.53,4.63-7.15,7.11
			C1547.01,687.51,1549.08,674.37,1554.02,668.7z M1510.2,667.99c-4.8-8.22-7.78-16.98-8.31-27.54
			C1507.65,646.08,1511.99,660.31,1510.2,667.99z M1467.22,694c-5.98-5.29-6.19-12.35-7.14-19.07
			C1466.74,682.02,1469.07,688.5,1467.22,694z M1467.68,743.57c-6.04-4.35-11.12-9.6-14.51-16.32c-0.48-0.94-1.04-2.15-0.83-3.07
			c0.35-1.54,0.97-3.41,2.12-4.23c0.73-0.52,3.19,0.18,3.92,1.09c5.23,6.59,10.04,13.47,11.32,22.44
			C1468.79,743.54,1468.04,743.83,1467.68,743.57z M1475.54,820.1c0.55-0.15,1.1-0.31,1.65-0.46c0.83,1.76,1.98,3.45,2.43,5.31
			c1.31,5.35-0.18,20.59-2.7,25.64C1475.66,839.77,1473.85,830,1475.54,820.1z M1445.53,827.42c-7.42-3.18-13.62-21.25-12.41-36.92
			C1442.02,797.2,1448.99,818.73,1445.53,827.42z M1416.35,851.96c-3.36-6.29-4.93-11.94-4.29-19.23
			C1416.84,838.86,1418.2,844.56,1416.35,851.96z M1407.28,894.32c3.91,2.48,7.81,4.96,11.72,7.44
			C1412.89,902.99,1409.27,899.97,1407.28,894.32z M1399.55,738.12c0.74,8.82-0.37,16.16-2.03,24.28
			C1394.22,756.63,1395.17,745.13,1399.55,738.12z M1371.38,686.25c1.74,1.26,3.12,1.72,3.49,2.6c2.86,6.84,1.4,13.92,0.5,21.07
			C1371.26,702.82,1370.15,695.26,1371.38,686.25z M1351.16,757.8c-4.55-5.26-5.53-11.78-6.64-18.26
			C1349.14,744.72,1351.38,750.8,1351.16,757.8z M1316.19,754.54c-3.42-1.63-7.03-2.47-9.31-4.68c-3-2.91-5.96-6.6-7.14-10.5
			c-1.91-6.34-2.39-13.13-3.39-19.73c-0.08-0.51,0.47-1.11,0.73-1.68C1306.92,723.36,1317.08,742.8,1316.19,754.54z M1274.91,789.94
			c5.25,13.88,9.46,27.97,13.14,43.17C1278.57,825.74,1272.82,803.28,1274.91,789.94z M1224.38,777.14
			c2.02-3.15,4.13-2.11,5.77-0.23c1.98,2.25,3.85,4.7,5.24,7.34c3.41,6.47,6.53,13.1,9.72,19.68c0.24,0.49,0.14,1.13,0.32,2.84
			C1235,798.49,1229.52,788.01,1224.38,777.14z M1224.67,853.15c-5.44-4.52-8.48-10.67-8.33-18.19c8.01,2.2,25.17,19.24,30.28,30.58
			C1236.72,864.61,1230.89,858.31,1224.67,853.15z M1202.02,876.16c7.89,5.43,14.45,10.66,19.2,18.28
			C1214.39,895.11,1206.09,889.33,1202.02,876.16z M1123.78,792.23c-4.38-4.42-6.42-13.22-4.25-19.71
			C1122.66,778.61,1125.07,784.83,1123.78,792.23z M1077.7,770.82c6.97,3.65,12,14.81,15.23,29.51
			C1086.53,796.18,1077.08,777.86,1077.7,770.82z M1078.56,840.53c-0.56,0.4-5.82-6.35-6.68-7.45c-7.41-9.51-8.36-13.53-7.67-16.51
			c0.26-1.11,0.5-1.37,0.74-1.43c1.44-0.38,3.63,6.36,9.03,16.58C1076.97,837.4,1078.91,840.28,1078.56,840.53z M1034.24,854.93
			c-7.91-6.06-12.61-14.33-14.91-24.05c10.59,6.28,15.86,17.17,24.81,25.76C1039.49,858.63,1036.57,856.71,1034.24,854.93z
			 M1372.12,2205.34c-5.82,12.11-11.48,24.33-17.89,36.13c-10.24,18.84-20.76,37.54-31.72,55.98
			c-6.97,11.73-14.83,22.93-22.47,34.24c-4.35,6.45-8.96,12.72-13.63,18.94c-4.6,6.13-11.62,7.06-18.13,9.01
			c-0.36-0.42-0.73-0.83-1.09-1.25c15.6-24.69,28.65-44.18,37.86-57.66c9.12-13.34,15.02-21.55,22.76-35.49
			c7.04-12.67,13.04-25.95,18.95-39.2c3.96-8.87,6.91-18.18,10.4-27.27c2.69-7,5.52-13.95,8.66-21.86
			c4.2,4.07,7.68,7.43,11.98,11.59C1376.48,2193.73,1374.82,2199.72,1372.12,2205.34z M1400.4,1937.36
			c-1.43,15.74-2.6,23.96-3.69,35.29c-0.68,7.14-1.35,36.5-1.99,74.83c-0.14,8.21,0.18,16.54,1.36,24.65
			c3.03,20.89,4.7,41.87,3.65,62.92c-0.46,9.22-2.99,18.35-4.87,27.46c-0.09,0.41-0.5,1.67-1.23,3.27
			c-2.39,5.23-8.14,13.19-13.31,12.27c-3.97-0.71-6.06-6.37-7.5-10.28c-2.22-6.02-1.98-11.2-2-12.62
			c-0.17-10.5,2.26-20.63,3.85-30.91c3.39-21.87,6.79-43.77,9.04-65.77c1.98-19.4,2.99-38.96,3.33-58.46
			c0.29-16.47-0.49-33-1.77-49.42c-0.79-10.08-3.38-20.02-5.22-30.02c-0.98-5.33-2.08-10.64-3.08-15.96
			c-2.63-13.98-7.94-26.83-15.07-39.16c-5.92-10.23-12.83-19.44-21.28-27.66c-9.41-9.16-19.92-16.03-33.34-17.33
			c-5.57-0.54-12.34-1.29-20.72-1.69c-6.82-0.33-17.64-0.62-17.64-0.71c0-0.08,8.46-1.28,22.4-2.56c2.36-0.22,4.73-0.63,5.85-2.42
			c2.4-3.83-3.07-10.98-3.64-11.71c-4.58-5.87-10.7-8.2-12.09-8.76c-7.01-2.79-16.84-9.3-28.78-25.86
			c29.07,21.9,50.34,37.88,55.37,41.65c2.5,1.87,4.98,3.77,7.6,5.47c2.36,1.54,4.58,3.33,7.04,4.68c2.37,1.3,4.48,0.33,4.86-2.3
			c0.75-5.23,0.63-10.37-3.16-14.72c-4.13-4.74-8.35-9.42-12.15-14.42c-2.74-3.6-4.69-7.79-7.29-11.51
			c-5.86-8.4-10.86-17.26-14.61-26.78c-0.98-2.49-1.34-5.22-1.18-8.21c10.81,12.98,18.31,28.05,28.17,41.47
			c9.91,13.49,18.39,27.77,26.83,42.19c8.51,14.54,16.62,29.22,22.84,44.62c3.3-0.57,4.48-1.62,4.46-4.09
			c-0.06-8.23-0.1-16.36-2.16-24.5c-2.12-8.38-2.99-17.06-4.63-25.57c-4.21-21.86-11.25-42.74-22.09-62.26
			c-5.46-9.84-9.98-20.26-17.54-28.8c-11.65-13.15-25.13-23.32-43.27-25.26c-14.21-1.52-27.93-0.27-40.73,7.12
			c-6.95,4.01-14.14,7.51-20.11,13.07c-5.39,5.02-9.79,10.7-11.18,17.93c-1.51,7.85-2.5,15.85-2.99,23.82
			c-1.06,17.45-0.97,26.2-0.8,31.2c0,0,0.52,15.62-2.33,33.53c-0.12,0.76-0.39,2.41-0.73,2.41c-0.9-0.01-1.57-12.32-1.77-20.95
			c-0.6-26.27,1.97-42.09,0.84-49.97c-0.43-2.99-0.04-6.09-0.43-9.09c-0.16-1.25-1.2-3.16-2.11-3.33c-1.13-0.22-2.96,0.74-3.75,1.76
			c-1.15,1.5-1.71,3.48-2.42,5.29c-3.52,9.1-7.06,18.19-10.5,27.32c-3.96,10.54-7.82,21.12-11.73,31.68
			c-0.29,0.8-0.65,1.57-1.56,3.76c-0.39-2.43-0.75-3.49-0.7-4.53c0.72-16.82,6.02-32.07,14.77-46.48c3.99-6.56,6.07-14.3,8.9-21.55
			c1.02-2.62,1.88-5.33,2.53-8.07c0.74-3.14-0.84-4.57-3.88-3.76c-0.83,0.22-1.77,0.43-2.41,0.94c-7.21,5.8-16.02,7.45-24.64,9.54
			c-8.84,2.15-17.73,4.12-26.6,6.13c-1.16,0.26-2.37,0.31-3.84-0.52c4.77-1.91,9.39-4.62,14.34-5.58
			c20.04-3.88,38.01-13.1,56.46-21.1c6.57-2.85,13.26-5.41,19.75-8.41c4.71-2.17,9.32-4.63,13.77-7.3
			c9.76-5.86,20.47-8.31,31.62-8.93c14.66-0.82,22.52,4.6,23.74,2.29c1.85-3.5-15.44-16.65-27.55-24.14
			c-14.04-8.68-29.31-14.27-34.47-16.73c-0.97-0.46-2.12-0.6-3.04-1.14c-14.11-8.16-29.92-11.37-45.36-15.68
			c-3.94-1.1-7.83-2.74-11.85-3.18c-19.14-2.08-37.05,1.87-53.56,11.85c-4.45,2.69-8.93,5.35-13.2,8.32
			c-9.44,6.56-14.45,15.81-16,27.12c-2.5,18.27-12.42,35.26-17.21,43.87c-12.43,22.33-30.6,32.59-30.86,32.32
			c-1.01-1.05,28.64-26.91,37.5-52.72c2.02-5.88,9.31-30.27,11.86-34.81c0.09-0.15,1.14-1.32,1.05-3.04
			c-0.11-2.05-0.07-4.51-1.19-5.94c-0.64-0.82-3.51-0.27-5.24,0.2c-3.31,0.89-6.56,2.06-9.77,3.29
			c-15.34,5.91-22.88,14.7-22.88,14.7c-11,9.26-10.99,11.59-19.27,18.68c-5.25,4.5-13.36,10.5-25.02,15.85
			c25.8-18.68,35.47-28.2,38.56-33.31c0.07-0.12,0.17-0.36,0.41-0.67c4.3-5.54,9.27-10.24,15.63-13.48
			c6.36-3.25,12.32-7.33,18.79-10.33c6.65-3.09,13.81-5.05,20.53-8c6.11-2.68,12.05-5.82,17.8-9.21c3.66-2.16,3.21-4.42,2.96-5.28
			c-0.79-2.8-7.23-3.25-12.93-3.54c-20.69-1.04-31.04-1.56-44.21,0.83c-5.73,1.04-11.83,2.18-19.6,5
			c-13.05,4.74-25.37,12.23-25.44,12.09c-0.01-0.01,0.09-0.08,0.19-0.14c22.32-15.57,41.11-20.34,51.26-22.08
			c16.24-2.78,37.48-2.43,42.2-2.35c7.53,0.12,11.66,0.43,11.66,0.43c4.97,0.35,9.92,1.19,14.89,1.27
			c4.04,0.07,8.23-0.15,12.08-1.22c3.47-0.97,4.16-3.89,2.12-6.71c-9.37-12.96-17.53-26.87-29.2-38.01
			c-3.89-3.72-8.43-6.76-12.69-10.07c-0.44-0.34-1.89-1.46-3.39-2.61c-11.52-8.81-18.01-12.86-17.82-13.17
			c0.26-0.42,12.26,5.32,25.46,14.67c5.53,3.92,14.89,11.87,26.13,22.42c5.83,5.47,10.8,11.85,16.21,17.77
			c2.63,2.88,5.22,5.82,8.13,8.41c13.52,12.03,29.96,18.52,46.68,24.56c10.79,3.9,21.7,7.71,31.93,12.8
			c14.53,7.23,28.5,15.59,42.68,23.53c3,1.68,5.85,3.64,8.75,5.5c1.87,1.2,4.01,1.49,5.24-0.33c0.94-1.39,1.52-3.79,0.98-5.28
			c-1.76-4.88-4.11-9.55-6.23-14.3c-7.1-15.93-16.24-30.63-26.5-44.7c-3.18-4.36-5.5-9.33-8.37-13.92
			c-12.2-19.5-27.79-35.87-45.5-50.5c-13.91-11.5-29.12-20.34-46.08-26.27c-2.84-0.99-5.83-1.59-8.79-2.22
			c-11.79-2.52-22.07-8.82-33.07-13.29c-4-1.63-7.65-4.11-11.63-5.79c-3.74-1.58-7.72-2.6-11.58-3.92
			c-1.51-0.52-2.96-1.19-5.35-2.16c4.32-2.8,7.75-1.26,10.88-0.77c9.33,1.47,17.9,4.9,25.6,10.56c2.76,2.03,6.04,3.38,9.17,4.85
			c5.11,2.39,10.24,4.73,15.45,6.87c3.19,1.3,6.5,2.43,9.86,3.17c2.72,0.6,4.74-1.26,5.48-3.6c0.39-1.25-0.34-3.38-1.3-4.45
			c-12.5-13.91-25.99-26.63-41.88-36.79c-2.25-1.44-4.45-2.97-6.61-4.55c-9.17-6.72-12.46-9.94-18.78-14.69
			c-8.61-6.48-8.65-4.82-17.81-11.38c-10.21-7.32-18.85-15.62-18.35-16.26c0.29-0.37,3.38,1.99,31.34,20.68
			c30.28,20.25,25.21,17.52,35.24,23.4c22.56,13.2,40.06,32.37,59.66,49.06c0.38,0.32,1.69,2.7,4.35,4.83
			c3.42,2.74,8.78,5.18,10.21,3.69c1.1-1.14-0.95-3.76-5.42-17.17l0,0c-3.94-11.81-11.94-22.36-17.53-34.15
			c-3.78-7.96-1.88-6.84-6.58-17.24c-2.72-6.01-5.95-12.01-10.35-19.24c-5.49-9.02-10.91-15.81-14.59-20.11
			c4.06,3.61,10.16,9.46,16.51,17.54c3.61,4.59,6.32,7.03,9.21,11.05c8.27,11.5,8.55,18.32,15.25,34
			c5.57,13.02,14.42,29.18,17.02,28.26c1.91-0.68,0.15-10.49-1.95-22.19c-0.7-3.91-2-11.34-5.14-22.76
			c-2.86-10.41-6.13-20.7-9.4-30.99c-2.01-6.34-4.35-12.58-6.55-18.86c-12.29-32.59-14.49-39.67-14.11-39.83
			c0.7-0.28,10.67,21.73,19.41,45.41c3.17,8.59,7.02,19,11.06,33.21c4.08,14.33,8.31,28.73,10.76,43.39
			c1.74,10.39,5.23,20.15,8.43,29.89c4.64,14.11,10.36,28.06,20.1,39.81c2.33,2.81,4.28,6,6.07,9.2
			c5.85,10.46,13.67,19.42,21.07,28.74c3.18,4,5.07,9.01,7.85,13.36c3.35,5.26,5.19,7.79,6.12,7.47c1.18-0.42,0.66-5.12-4.87-34.85
			c-1.58-8.51-1.67-8.32-1.87-10.18c-1.14-10.33-1.95-20.69-3.18-31.01c-0.79-6.65-2.18-13.22-3.14-19.86
			c-0.48-3.33-0.88-6.28-1.2-8.79c-0.62-4.91-1.01-8.51-1.08-9.13c-1.08-9.87-5.45-28.05-8.79-45.75
			c-4.13-21.93-3.89-28.39-9.52-41.85c-1.97-4.71-3.91-8.47-5.28-10.99c-7.45-11.37-16.87-21.46-21.94-34.36
			c-3.27-8.32-8.89-14.73-15.9-20.16c-2.67-2.07-4.77-4.86-6.75-7.78c6.34,0.66,11.14,3.93,14.6,8.86c2.98,4.23,5.3,8.92,7.93,13.4
			c2.85,4.85,5.66,9.73,8.6,14.53c2.58,4.22,6.43,6.77,11.2,8.44c2.3-2.54,1.86-4.94,0.78-7.4c-4.73-10.79-3.36-21.4,0.02-32.35
			c4.03-13.03,7.22-26.33,10.51-39.58c4.02-16.19,7.74-32.45,11.67-48.66c0.32-1.32,1.2-2.51,2.87-3.63
			c0.23,1.36,0.72,2.74,0.63,4.08c-0.56,8.77-0.7,15.54-1.5,18.81c-6.95,28.49-6.21,28.28-11.03,44.09
			c-1.81,5.93-2.21,6.28-3.42,11.13c-2.25,9.04-4.22,18.14-6.46,27.18c-1.3,5.27,0.09,11.5,1.73,23.76
			c3.34,24.87,6.82,22.41,10.01,44.96c0.56,3.97,1.08,8.46,2.7,8.69c1.81,0.26,3.59-4.98,9.19-18.93
			c4.73-11.8,6.64-16.26,11.04-27.75c1.85-4.82,3.21-9.83,4.63-14.8c0.65-2.28,0.65-4.78,1.44-7c2.73-7.68,2.39-15.68,3.31-23.57
			c1.19-10.25,2.29-20.93,7.52-30.61c-0.15,2.67-0.22,5.36-0.47,8.02c-1.25,13.16-2.56,26.31-3.83,39.47
			c-0.1,1.08-0.3,2.25,0.01,3.24c0.47,1.52,1.02,3.34,2.16,4.2c0.61,0.46,2.83-0.52,3.82-1.41c3.06-2.74,6.35-5.42,8.7-8.72
			c4.95-6.94,12.16-11.08,18.86-15.67c8.39-5.74,17.45-10.49,26.26-15.61c1.37-0.79,2.92-1.26,4.39-1.88
			c0.28,0.37,0.56,0.75,0.84,1.12c-1.69,1.8-3.16,3.9-5.11,5.35c-10.93,8.18-22.06,16.09-32.96,24.3
			c-12.6,9.49-22.36,21.6-31.22,34.53c-13.3,19.43-18.77,41.69-23.38,64.25c-0.51,2.49-0.15,5.19,0,7.78
			c0.3,5.37,0.66,10.74,0.48,16.22c2.69,10.95,3.7,18.85,5.87,31.85c1.42,8.5,3.06,17.84,6.88,36.41
			c3.72,18.05,7.9,36.01,11.55,54.07c4.09,20.25,10.22,39.92,16.82,59.43c6.05,17.89,13.57,35.18,22.52,51.87
			c7.98,14.87,15.38,30.07,20.69,46.16c1.07,3.24,1.82,6.58,2.72,9.87c0.44,0.02,0.88,0.04,1.31,0.06c0.19-1.75,0.79-3.57,0.51-5.25
			c-2.68-16.23-5.34-32.47-8.32-48.65c-5.07-27.49-10.8-54.87-15.4-82.44c-2.84-17.07-5.32-34.28-4.84-51.73
			c0.3-10.83,0.52-21.69,0.07-32.5c-0.67-16.06-3.69-31.81-7.45-47.43c-3.16-13.11-3.75-26.54-4.06-39.97
			c-0.13-5.81-0.49-11.62-0.03-17.66c0.35,0.96,0.93,1.9,1.02,2.88c0.56,6.26,0.97,12.53,1.49,18.79
			c0.95,11.26,3.14,22.26,6.28,33.14c2.33,8.08,3.9,16.38,5.65,24.61c0.53,2.48,1.1,5.09,3.88,5.23c1.48,0.07,3.57-1.35,4.48-2.71
			c3.49-5.22,4.99-9.64,4.99-9.64c2.46-12.52,6.21-24.8,7.87-37.45c3.46-26.27,13.22-48.96,21.3-66.16
			c6.07-12.92,10.78-26.48,16.13-39.74c0.79-1.97,1.78-3.86,3.05-5.65c-1.91,10.57-3.23,21.16-8.51,30.9
			c-6.44,11.86-10.27,24.69-12.92,38c-1.72,8.65-5.08,16.98-7.82,25.42c-1.07,3.31-1.43,7.2,0.12,8.16
			c2.24,1.38,7.83-3.93,10.04-6.02c6.77-6.42,7.33-11.01,12.88-16.76c7.21-7.48,15.37-13.95,22.31-21.56
			c10.07-11.05,15.97-20.71,21.77-31.48c14-25.98,16.91-47.74,18.09-47.45c0.66,0.17-1.27,11.53-4.36,22.63
			c-1.35,4.85-4.01,14.23-8.98,24.5c-5.13,10.6-10.3,17.13-20.39,29.71c-9.72,12.12-29,32-36.5,43.05
			c-3.14,4.63-6.54,9.08-9.73,13.68c-0.98,1.41-1.78,3-2.36,4.61c-0.24,0.65,0.07,1.99,0.56,2.29c0.79,0.47,2.09,0.69,2.9,0.36
			c1.15-0.48,2.07-1.53,3.05-2.38c7.52-6.51,14.57-13.7,22.67-19.4c10.36-7.29,20.84-14.58,32.33-20.08
			c0.27,0.34,0.54,0.68,0.8,1.01c-3.2,2.63-6.3,5.4-9.63,7.87c-8.34,6.19-16.52,12.66-25.24,18.27
			c-13.74,8.84-24.59,20.75-34.53,33.22c-10.24,12.85-18.49,26.95-22.24,43.66c-3.73,16.6-4.39,32.9-2.69,49.7
			c1.81,17.94,5.16,35.59,8.3,53.3c2.8,15.76,5.29,31.57,8.01,47.34c2.58,14.95,5.5,29.84,7.86,44.82
			c2.36,14.99,4.06,30.09,6.3,45.1c1.73,11.55,4.53,22.98,5.65,34.59c0.3,3.15,3.74,21.87,9.05,45.84
			c4.09,18.44,5.12,20.54,6.18,20.54c3.47-0.03,7.28-22.52,7.26-43.77c-0.01-16.51,0.74-30.3-7.7-55.21c-5.85-17.26-7.77-35-9.17-53
			c-1.07-13.77-0.32-27.18,2.36-40.71c1.77-8.9,1.65-18.17,3.31-27.1c2.67-14.42,2.26-28.93,2.7-43.44
			c0.1-3.41,0.66-6.81,1.02-10.21c0.5-0.05,1-0.11,1.5-0.16c0.35,1.91,1.07,3.83,1,5.72c-0.65,16.48-1.19,32.97-2.26,49.42
			c-1.16,17.95-3.45,35.84-4.14,53.8c-0.79,20.7,2.14,41.12,7.75,61.11c0.29,1.04,0.39,2.32,1.07,3.02c0.97,1,2.47,2.28,3.57,2.13
			c1-0.13,2.1-1.88,2.57-3.13c0.43-1.14,0.04-2.57,0.08-3.87c0.41-12.14,0.5-24.24-0.55-36.39c-0.54-6.19,0.59-12.53,1.1-18.79
			c0.79-9.71,1.56-19.43,2.6-29.11c0.6-5.58,1.9-9.49,2.37-11.43c6.95-29.2,11.5-72.61,13-72.47c1.11,0.11,0.94,24.01-3,51.31
			c-2.75,19.04-1.52,20.68-7.7,43.38c-3.53,12.94-3.77,26.54-4.13,40c-0.24,9.09-0.94,18.17-1.52,27.24
			c-0.32,4.91,0.39,7.23,2.59,6.99c3.46-0.38,3.19-3.43,3.95-5.87c2.24-7.24,3.85-14.83,7.26-21.5c6.6-12.93,11.11-27.6,15.22-35.89
			c7.39-14.93,16.21-29.72,16.95-29.34c0.78,0.4-7.72,17.31-22.12,51.86c-4.81,11.55-8.33,23.87-13.43,40.06
			c-1.68,5.33-2.4,11.02-3.12,16.6c-2.47,18.93-4.94,37.85-7,56.83c-1.05,9.69-1.19,19.48-1.81,29.22c-0.01,0.15-0.01,0.3-0.02,0.45
			C1401.81,1921.27,1400.92,1931.66,1400.4,1937.36z M1495.75,1054.01c3.14-23.42,6.46-46.82,9.19-70.29
			c2.9-24.98,4.87-50.06,7.88-75.03c1.59-13.22,1.01-26.39,1.18-39.6c0.27-20.83,1.86-41.59,4.24-62.3c1-8.75,0.89-17.62,1.29-26.43
			c0.58,0.03,1.17,0.05,1.75,0.08c0.15,1.25,0.44,2.5,0.44,3.75c0.06,17.99,0.58,35.99-0.02,53.96
			c-0.71,21.41-2.37,42.79-3.63,64.19c-0.75,12.77-1.31,25.56-2.35,38.31c-0.96,11.65-2.39,23.26-3.73,34.88
			c-2.19,18.95-4.66,37.87-6.69,56.84c-1.98,18.54-3.85,37.1-5.19,55.69c-0.61,8.41,0.25,16.91,0.25,25.37
			c0,2.68-0.61,5.35-1.01,8.69c-3.61-2.22-4.14-4.88-4.39-7.69C1493.12,1094.26,1493.05,1074.12,1495.75,1054.01z M1468.27,1002.55
			c-3.42-34.52-6.73-73.81-6.18-73.86c0.27-0.03,4.83,50.13,13.69,113.9c4.04,29.05,7.7,51.77,11.42,66.78
			c-2.68-7.9-7.07-20.9-10.79-37.38C1472.31,1053.84,1472.28,1042.95,1468.27,1002.55z M1485.96,1847.61
			c1.87-13.94,4.01-27.88,4.93-41.91c1.38-21,1.84-42.05,2.57-63.09c0.86-24.95,1.63-49.9,2.37-74.85
			c0.25-8.24,0.18-16.49,0.46-24.73c0.32-9.53,1.01-19.06,1.25-28.59c0.34-13.66,0.33-27.33,0.65-41
			c0.43-18.43,1.22-36.85,1.48-55.28c0.14-10.4-0.67-20.81-0.74-31.22c-0.13-20.62,0-41.25-0.05-61.87
			c-0.04-15.85-0.4-31.7-0.23-47.54c0.08-8.01,0.98-16.01,1.56-24.01c1.94-26.45,1.31-52.94,1.2-79.42
			c-0.06-16.07-0.22-32.14,0.08-48.2c0.53-28.59-2.33-42.83-9.64-54.22c-11.28-17.58-33.48-31.01-42.65-36.56
			c-2.25-1.36-4.46-2.6-4.46-2.6c-8.9-3.94-17.82-7.82-26.75-11.69c-10.74-4.65-21.47-9.31-32.24-13.89
			c-17.55-7.47-35.33-14.44-52.63-22.44c-15.15-7.01-29.52-15.46-42.53-26.18c-7.51-6.19-15.98-11.19-23.78-17.05
			c-18.93-14.23-35.79-30.81-52.7-47.31c-10.86-10.6-21.6-21.32-32.22-32.15c-3.28-3.35-7.1-7.81-14.79-16.42
			c-17.94-20.09-26.92-30.14-26.62-30.42c0.76-0.72,41.68,44.65,77.39,73.4c5.02,4.04,18.67,15.13,37.03,30.72
			c4.3,3.65,8.55,7.33,12.76,11.08c11.04,9.86,22.93,18.47,34.97,26.9c5.96,4.18,12.91,6.93,19.34,10.46
			c6.42,3.52,12.64,7.4,19.13,10.78c7.11,3.7,14.29,7.35,21.69,10.41c16.02,6.62,32.16,12.95,48.34,19.2
			c8.48,3.27,17.46,5.42,25.62,9.32c16.93,8.09,28.19,16.05,28.19,16.05c10.33,7.39,15.57,13.09,18.96,11.26
			c3.23-1.75,2.39-9.03,2.3-9.79c-1.62-12.98-14.51-17.05-36.94-37.21c-6.6-5.94-12.75-12.38-19.17-18.53
			c-7.51-7.2-15.27-14.17-22.6-21.55c-10.68-10.74-21.07-21.76-31.59-32.65c-6.18-6.39-12.51-12.64-18.56-19.15
			c-13.29-14.3-26.6-28.57-39.56-43.15c-5.31-5.97-9.78-12.69-14.54-19.14c-4.88-6.6-9.69-13.25-14.46-19.93
			c-1.17-1.63-2.94-3.36-0.41-6.04c3.98,5.68,7.77,11.1,11.57,16.5c1.73,2.47,3.35,5.04,5.26,7.37c4.66,5.68,9.43,11.27,14.2,16.86
			c0,0,2.02,2.19,4.02,4.25c15.44,15.96,100.81,96.13,123.85,120.37c2.44,2.56,4.05,4.28,4.05,4.28
			c10.68,10.68,23.97,26.59,23.97,26.59c9.02,10.47,10.33,12.33,11.12,12.31c0.11,0,0.17-0.03,0.21-0.05
			c3.05-1.69-16.88-44.33-35.9-77.55c-1.67-2.91-1.73-2.82-3.59-6.23c-8.09-14.78-16.44-29.4-23.91-44.56
			c-6.06-12.3-10.32-22.66-18.94-43.33c-4.09-9.82-8.61-20.94-11.44-28.22c-17.03-43.8-26.6-86.52-25.89-86.72
			c0.85-0.24,18.18,61.02,37.96,107.93c2.79,6.61,6.89,16,7.21,16.67c7.82,16.64,15.69,33.25,23.71,49.8
			c2.88,5.94,5.45,9.61,7.08,12.4c25.05,42.79,44.77,92.54,46.68,91.78c0,0,0,0,0-0.01c2.58,7.99,5.23,12.25,8.09,12.3
			c3.16,0.05,7.33-7.62,15.68-22.97c1.14-2.1,4.53-8.18,10.48-21.62c4.91-11.09,9.55-22.31,14.12-33.56
			c3.67-9.03,7.23-18.11,10.51-27.28c4.24-11.83,8.15-23.77,12.2-35.67c0.21-0.62,0.41-1.24,0.67-1.84
			c6.14-14.35,12.8-28.51,18.29-43.1c5.77-15.33,12.4-30.39,15.03-46.85c1.41-8.83,4.7-17.37,7.16-26.08
			c4.63,0.52,4.45,3.52,3.84,6.28c-1.13,5.08-2.16,10.25-4.06,15.06c-3.76,9.52-6.27,19.32-8.7,29.23
			c-5.16,21.07-12.67,41.44-19.24,62.09c-5.69,17.88-14.31,34.44-20.88,51.88c-7.09,18.85-16.01,36.92-24.42,55.19
			c-0.78,1.7-6.73,9.34-11.97,20.86c-2.38,5.24-9.14,20.08-6.18,22.11c4.34,2.98,27.12-23.29,28.94-25.4
			c1.48-1.71,2.51-3.36,5.25-7.15c5.96-8.24,10.81-14.15,12.85-16.74c25.5-32.19,41.02-51.29,41.02-51.29
			c33.18-40.84,49.67-63.7,50.18-63.32c0.72,0.53-31.32,45.67-48.17,66.93c-2.43,3.06-9.05,11.33-17.58,22.95
			c-6.71,9.15-5.6,8.25-9.16,12.65c-6.67,8.26-13.7,16.23-20.33,24.52c-1.1,1.37-2.16,2.76-3.21,4.17
			c-4.9,6.57-6.15,8.64-9.07,12.59c-3.33,4.51-16.42,21.63-17.76,23.02c-0.1,0.1-0.64,0.47-0.64,1.11
			c-0.01,1.38,0.12,2.76,0.19,4.14c1.21-0.17,2.67,0.05,3.59-0.56c4.51-2.99,8.93-6.11,13.27-9.34c4.85-3.62,9.62-7.36,14.33-11.16
			c7.91-6.4,15.73-12.92,23.62-19.34c4.03-3.28,8.17-6.41,12.2-9.69c10.24-8.34,20.5-16.66,30.64-25.13
			c7.31-6.1,14.55-12.31,21.62-18.69c4.34-3.92,8.33-8.23,12.41-12.44c6.93-7.16,13.81-14.36,20.69-21.57
			c1.8-1.88,3.6-3.78,5.25-5.79c7.43-9.04,14.94-18.01,22.18-27.2c10.82-13.73,21.67-28.1,34.35-44.09
			c21.75-27.42,43.98-52.24,44.84-51.54c0.7,0.56-13.16,17.33-35.85,50.46c-10.44,15.25-10.43,16.04-18.58,27.39
			c-14.58,20.32-26.92,35.36-32.12,41.61c-12.56,15.08-18.83,22.63-27.97,31.65c-15.07,14.88-18.86,15.25-46.81,38.81
			c-16.42,13.84-13.62,12.45-34.07,29.78c-23.85,20.21-36.67,28.86-43.87,34.29c-6.19,4.67-13.25,8.17-19.61,12.64
			c-3.32,2.34-6.8,5.17-8.71,8.61c-2.12,3.8-3.37,8.51-3.54,12.88c-0.65,16.47-0.27,32.98-1.11,49.44
			c-1.09,21.28,1.74,42.45,0.79,63.72c-0.59,13.21-0.3,26.46-0.34,39.69c-0.03,9.32,0.25,18.64,0.07,27.95
			c-0.29,15.4-1.11,30.78-1.21,46.18c-0.11,16.26,0.35,32.53,0.57,48.8c0.23,16.71,0.34,33.43,0.73,50.14
			c0.33,13.66,1.1,27.31,1.47,40.97c0.13,4.75-0.65,9.53-0.54,14.28c0.4,16.28,0.92,32.55,1.57,48.82
			c0.99,25.01-0.28,49.9-3.57,74.71c-3.65,27.51-7.3,55.03-7.35,82.85c-0.03,14.11,0.54,28.23,0.52,42.34
			c-0.01,9.1-0.72,18.2-0.86,27.3c-0.07,4.51,0.43,9.04,0.73,13.55c0.21,3.02,0.89,6.05,0.68,9.02c-0.15,2.12-1.21,3.86-2.36,5.75
			c-3.24,5.3-11.12,14.53-14.72,12.91C1482.58,1870.76,1483.97,1862.44,1485.96,1847.61z M1485.71,1939.28
			c-5.68,18.25-12.73,35.93-21.04,53.18c-6.29,13.06-11.02,26.86-16.68,40.23c-4.82,11.38-9.94,22.64-14.98,33.92
			c-5.39,12.08-10.82,24.14-16.26,36.19c-2.65,5.86-5.37,11.68-9.04,17.48c-0.53-6.09-0.72-12.22-1.65-18.25
			c-1.82-11.71,0.61-22.24,7.13-32.11c5.53-8.38,8.85-17.78,11.8-27.38c3.56-11.6,7.92-22.95,11.56-34.52
			c3.25-10.33,5.74-20.9,9.05-31.21c4.97-15.47,10.35-30.81,15.59-46.19c0.32-0.95,0.92-1.81,1.87-3.63
			c0.07,0.35,0.21,1.01,0.52,1.79c2.08,5.24,9.27,9.21,15.84,7.78c4.05-0.88,6.65-3.55,7.83-4.99
			C1486.61,1934.83,1486.38,1937.13,1485.71,1939.28z M1930.39,1195.42c-1.42,0.88-6.36,3.26-11.61,8.12
			c-10.79,10.01-21.52,20.1-32.49,29.92c-4.46,3.99-2.88,1.85-12.09,8.74c-9.76,7.29-27.74,20.83-43.77,37.74
			c-1.88,1.99-3.24,3.61-5.99,6.22c-5.87,5.58-9.47,8.13-18.63,16.68c-2.93,2.73-6.19,5.91-9.97,9.79c-2.77,2.85-5.09,5.29-8.27,8.8
			c-13.08,14.48-21.33,27.89-26.48,36.36c-9.7,15.94-15.26,28.67-20.33,40.31c-5.75,13.2-20.92,48.06-15.65,51.19
			c1.89,1.12,5-2.69,27.39-21.04c10.52-8.63,8.63-7.83,14.64-11.88c11.29-7.59,19.48-18.48,29.79-27.09
			c4.82-4.02,9.78-7.99,13.98-12.62c9.6-10.57,19.2-21.2,27.99-32.45c8.24-10.55,7.31-12.31,17.48-26.48
			c2.61-3.63,13.45-18.73,14.49-18.06c0.97,0.63-6.67,14.73-14.33,26.59c-5.15,7.97-8.42,11.44-11.61,16.42
			c-6.27,9.78-15.25,17.06-22.9,25.57c-0.99,1.1-1.95,2.39-2.44,3.77c-1.83,5.19,0.87,8.39,6.22,6.96
			c5.62-1.51,11.09-3.61,16.54-5.67c8.75-3.31,7.63-2.36,22.3-8.89c8.78-3.9,21.79-10.48,37.49-21.37
			c-3.18,3.58-8.07,8.6-14.76,13.69c-3.01,2.29-11.74,7.92-30.41,16.11c-13.93,6.11-28.27,10.99-42.79,15.41
			c-7.2,2.19-13.3,6.22-18.7,11.43c-9.06,8.75-11.41,8.87-11.09,10.04c0.55,2.06,4.96,1.8,18.59,3.51
			c6.34,0.79,12.42,2.18,19.9,3.21c5.38,0.74,10.22,2.38,16.65,4.7c9.42,3.41,8.57,4.46,13.84,5.72c7.3,1.75,9.27-0.2,21.69,0.42
			c6.88,0.34,13.78,1.31,13.76,1.67c-0.04,0.67-25.49,2.85-55.03-2.45c0,0-20.81-4.3-37.35-4.77c-6.63-0.19-13.31,1.37-19.97,2.16
			c-0.42,0.05-0.86,0.19-1.24,0.39c-7.26,3.77-14.84,7.06-21.67,11.49c-6.88,4.46-13.09,9.98-19.46,15.2
			c-4.12,3.37-16.45,15.2-30.01,33.99c-14.17,19.63-21.93,36.61-27.06,47.99c-5.08,11.26-7.86,19.26-11.91,30.87
			c-7.51,21.56-11.88,34.09-8.6,36.13c4.07,2.53,18.6-11.87,25.29-20.22c1.07-1.33,2.76-3.51,4.09-5.31
			c5.97-8.11,10.1-14.26,11.41-16.25c9.07-13.84,38.63-57.07,39.28-56.64c0.31,0.2-5.67,10.49-11.68,20.02
			c-8.17,12.96-16.15,24.08-14.6,25.44c0.39,0.34,1.5-0.03,3.73-0.75c2.06-0.67,3.53-1.47,3.99-1.77
			c8.64-5.77,18.12-10.44,25.95-17.27c16.81-14.67,32.58-27.4,32.65-27.33c0.07,0.08-18.36,21.65-48.29,42.56
			c-9.08,6.34-18.94,11.21-30.24,23.34c-6.05,6.49-11.66,13.41-17.93,19.68c-16.28,16.28-27.48,36.12-39.36,55.48
			c-2.46,4.02-4.27,8.56-5.66,13.09c-1.34,4.39,0.92,6.27,5.26,4.69c3.04-1.1,5.96-2.64,8.8-4.21c6.84-3.77,13.39-8.11,20.44-11.42
			c4.8-2.26,8.87-4.2,13.8-6.26c6.55-2.74,11.66-4.5,14.4-5.44c31.28-10.75,41.99-11.76,57.5-22c2.94-1.94,5.2-3.3,8.9-6.51
			c9.17-7.96,18.23-16.04,27.28-24.14c14.09-12.6,20.94-19.36,27.05-24.31c9.26-7.51,13.9-11.26,14.55-10.62
			c1.83,1.81-28.34,35.26-42.92,44.06c-3.89,2.35-7.72,4.79-11.56,7.22c-3.3,2.08-6.66,4.1-9.72,6.5c-1.62,1.28-3.06,3.15-3.82,5.05
			c-1.35,3.35,0.14,5.93,3.65,5.81c4.73-0.17,7.1,0.25,11.92-2.25c11.29-5.87,46.57-4.05,84.45-16
			c16.52-5.21,29.31-11.45,32.85-13.57c1.74-1.04,3.57-1.93,5.41-2.93c1.5,3.06-0.27,3.99-1.71,4.77
			c-11.6,6.29-22.96,13.07-36.21,15.61c-6.8,1.3-13.43,3.41-20.22,4.8c-5.49,1.12-11.14,1.44-16.62,2.6
			c-19,4.01-25.22,4.69-31.04,7.1c-4.09,1.69-12.85,5.32-12.38,8c0.29,1.67,3.98,1.49,23.65,4.3c6,0.86,12.08,1.1,18.14,1.52
			c9.1,0.63,17.42-3.1,26.11-4.75c3.38-0.64,6.83-1.32,10.25-1.33c11.72-0.01,23.28,1.4,34.83,3.53c9.29,1.72,14.55,1.76,22.01,1.68
			c9.76-0.1,16.08-1.3,16.12-0.98c0.06,0.43-11.19,4.02-25.36,3.73c-7.95-0.16-9.41,1.3-23.82-2.49c-5.09-1.34-10.73-0.9-16.1-0.69
			c-13.65,0.54-19.43,0.98-22.67,1.75c-7.25,1.72-11.42,2.72-11.71,4.79c-0.68,4.8,20.57,7.43,44.21,23.35
			c15.27,10.29,24.99,21.73,24.38,22.48c-0.61,0.74-12.16-7.28-31.06-18.91c-5.56-3.42-11.53-5.74-17.66-7.96
			c-11.61-4.2-22.9-9.3-34.46-13.67c-6.04-2.28-12.31-4.06-18.58-5.63c-10.7-2.67-21.47-5.05-32.23-7.46
			c-12.56-2.81-21.91-0.92-35.55,0.1c0,0-14.88,1.11-25.01,5.52c-0.11,0.05-0.22,0.1-0.22,0.1c-0.75,0.34-2.32,1.21-29.88,15.17
			c-2.13,1.08-5.94,3.01-10.75,6.08c-3.92,2.5-19.07,12.18-17.68,15.75c1,2.6,10.35-1.4,28.51-1.59
			c16.79-0.18,35.15,2.96,45.65,6.94c0.75,0.29,2.26,0.85,4.39,1.4c3.06,0.8,8.2,1.25,20.16-0.58c12.04-1.84,23.07,0.13,32.86,8.37
			c5.24,4.41,11.82,7.19,17.57,11.04c4.12,2.76,8.38,5.62,11.68,9.26c2.66,2.93,9.7,6.75,17.86,9.92
			c12.53,4.87,22.56,4.13,22.53,4.57c-0.04,0.46-10.36,1.02-22.64-1.92c-3.68-0.88-8.94-1.39-14.15-4.91
			c-6.07-4.1-11.98-8.58-17.38-13.51c-7.53-6.87-15.8-12.08-25.69-14.67c-3.14-0.82-6.12-2.38-9.29-2.89
			c-3.34-0.54-6.91-0.73-10.22-0.15c-3.75,0.66-4.6,3.38-1.94,6.15c5.99,6.23,12.38,12.07,18.5,18.18
			c6.7,6.69,16.95,14.6,34.28,34.63c17.63,20.37,26.86,38.44,26.43,38.74c-0.44,0.31-11.28-18.92-30.86-36.28
			c-5.01-4.44-6.83-5.43-10.93-9.83c-7.44-7.99-11.23-12.83-18.83-19.7c-1.19-1.08-2.88-1.61-5.16-2.84
			c-0.45,2.36-1.07,3.94-0.99,5.49c0.44,8.01,1.12,16,1.58,24c0.18,3.15,0.54,9.01,0.87,20.75c0.2,7.15,0.54,19.21,0.1,19.24
			c-0.51,0.03-1.85-15.75-2.69-25.73c-0.88-10.43-1.25-15.65-1.49-18.69c-0.47-5.83-0.83-11.68-1.44-17.5
			c-0.87-8.37-3.85-15.7-9.42-22.33c-4.95-5.89-10.79-10.15-17.23-13.42c-5.5-1.87-34.71-11.55-61.92-8.27
			c-8.23,0.99-23.72,1.47-38.09,9.7c-1.83,1.05-3.25,1.21-4.84,1.88c-27.24,11.49-42.48,36.66-46.89,44.14
			c-4.56,7.74-7.35,14.55-12.14,25.81c-3.13,7.36-5.57,15.01-8.49,22.47c-7.04,17.95-13.97,35.94-21.39,53.73
			c-3.75,8.99-8.5,17.57-12.78,26.35c-6.46,13.25-12.91,26.5-19.35,39.76c-6.76,13.91-16.1,25.69-28.95,34.44
			c-1.8,1.23-5.13,2.72-6.21,1.94c-1.74-1.25-2.85-4.22-3.1-6.58c-1.02-9.85,2.05-18.87,6.62-27.4c2.35-4.39,5.08-8.58,7.69-12.83
			c4.5-7.33,10.82-13.03,17.39-18.32c5.9-4.74,10.17-10.64,13.89-16.99c9.25-15.77,15.97-32.71,22.99-49.55
			c9.91-23.77,10.03-18.64,18.95-40.61c2.54-6.26,10.04-25.19,16.65-50.39c4.56-17.4,1.52-10.4,6.67-32.11
			c2.04-8.61,3.74-14.84,1.97-23.08c-0.61-2.84-1.91-8.88-6.56-14.45c-4.43-5.3-8.01-5.54-17.1-13.35
			c-4.32-3.71-7.87-7.47-7.51-7.92c0.84-1.04,21.02,16.8,25.63,12.96c0.53-0.44,1.35-1.58-0.19-8.79
			c-2.2-10.28-5.96-17.71-7.41-20.48c-5.2-9.96-7.39-11.31-14.19-24.09c-1.07-2.02-2.47-4.67-4.12-8.12
			c-7.63-16.01-11.84-31.22-10.99-31.55c0.53-0.21,2.17,5.71,8.15,14.04c2.84,3.96,4.77,5.06,6.84,9.46
			c5.99,12.74,11.55,25.68,17.32,38.52c1.95,4.34,3.75,8.79,6.2,12.84c2.81,4.67,7.71,4.58,10.36-0.18
			c2.87-5.16,4.38-10.78,3.69-16.85c-0.39-3.42-0.37-6.89-0.48-10.33c-0.13-4.12-0.18-8.23-0.33-12.35
			c-0.1-2.73-0.32-5.45,0.13-8.22c3.83,7.06,4.22,14.67,4.01,22.39c-0.36,13.3-4,26.11-5.73,39.2c-0.64,4.87-0.79,9.9-0.4,14.79
			c0.9,11.44,2.07,22.87,3.5,34.26c0.81,6.42,7.19,9.01,12,4.64c4.11-3.73,7.6-8.31,10.73-12.93c8.58-12.65,14.26-26.59,17.74-41.48
			c1.53-6.54,3.78-12.92,5.03-19.5c1.57-8.28,2.67-16.66,3.57-25.05c0.97-9.05,1.04-18.21,2.27-27.21
			c1.41-10.29,0.76-20.47-1.37-30.4c-2.29-10.7-7.4-20.6-14.81-28.57c-5.16-5.55-11.31-9.59-18.48-11.08
			c-3.46-0.72-7.12-0.49-10-0.4c-5.88,0.18-10.71,1.02-14.06,1.76c-22.45,13.91-28.31,16.62-28.77,15.95
			c-0.46-0.67,4.33-4.86,7.09-7.09c12.18-9.85,24.75-13.96,24.12-17.75c-0.02-0.12-0.05-0.24-0.07-0.31
			c-0.22-0.7-1.12-2.13-6.05-4.32c-6.5-2.89-13.28-5.17-19.97-7.64c-3.38-1.25-6.84-2.3-9.47-5.43c2.42-2.72,5.36-2.88,8-2.35
			c5.7,1.14,11.33,2.68,16.92,4.27c4.17,1.18,8.15,3.16,12.37,3.98c10.67,2.08,20.2,6.38,28.76,13.06c2.54,1.98,5.4,3.66,8.34,4.99
			c3.42,1.55,6.17,0.11,6.69-3.56c0.32-2.25,0.05-4.81-0.73-6.95c-4.45-12.08-13.08-18.39-13.08-18.39
			c-10.31-8.21-18.05-17.53-31.24-33.43c-17.92-21.61-22.99-43.99-22.65-44.15c0.33-0.16,8.04,18.76,21.91,35.49
			c1.21,1.46,2.87,3.34,6.87,8.2c10.08,12.23,15.11,18.35,15.15,18.4c1.52,1.84,2.85,3.99,4.74,5.32c1.83,1.29,4.22,2.14,6.45,2.38
			c2.38,0.26,4.18-1.15,4.05-3.93c-0.08-1.73-0.04-3.56-0.61-5.14c-2.3-6.48-4.89-12.86-7.24-19.32
			c-3.11-8.55-6.36-17.07-9.08-25.75c-5.25-16.76-10.56-33.47-17.23-49.75c-4.23-10.32-7.57-21-11.63-32.39
			c3.72,1.18,4.34,3.63,5.54,5.55c6.74,10.76,10.57,22.75,14.86,34.57c4.44,12.23,9.26,24.32,13.92,36.47
			c0.47,1.22,1.02,2.4,1.52,3.6c1.04,2.49,2.23,5.1,5.53,4.34c3.08-0.72,3.8-3.52,3.64-6.2c-0.45-7.97-0.8-15.98-1.86-23.88
			c-1.06-7.93-2.51-15.87-4.54-23.61c-2.89-11.08-6.22-22.07-9.81-32.94c-3.45-10.45-7.52-20.69-11.2-31.06
			c-0.73-2.05-0.92-4.3-1.36-6.45c0.57-0.22,1.13-0.44,1.7-0.66c1.53,2.46,3.48,4.75,4.51,7.4c4.81,12.32,9.81,24.59,13.89,37.15
			c3.6,11.11,6.43,22.52,8.91,33.94c1.79,8.23,2.95,16.67,3.5,25.07c0.8,12.3,0.6,24.67,1.23,36.99c0.32,6.24,1.52,12.45,2.39,18.66
			c0.36,2.58,1.22,5.12,1.27,7.7c0.22,11.3,4.54,21.56,7.86,32.07c0.63,2,1.88,3.96,3.32,5.5c3.11,3.33,6.78,2.8,7.95-1.52
			c1.29-4.74,2.18-9.84,1.88-14.7c-0.67-10.81-2.15-21.57-3.39-32.34c-1.86-16.15-3.24-32.29-3.58-48.58
			c-0.31-14.91-2.39-29.78-3.65-44.67c-0.31-3.67-0.63-7.35-0.62-11.03c0.03-10.63,0.16-21.26,0.38-31.89
			c0.06-2.71,0.62-5.41,1.09-9.27c2.79,2.87,2.41,5.28,2.44,7.48c0.18,13.23,0.06,26.47,0.5,39.69c0.36,10.82,1.43,21.61,2.05,32.42
			c0.28,4.97-0.21,10.01,0.4,14.93c1.72,13.97,3.82,27.89,5.79,41.82c0.67,4.72,1.31,9.45,2.09,14.16
			c5.36,32.3,3.32,62.08,2.92,70.02c-1.59,31.13-6.52,47.89-2.58,49.2c2.61,0.87,6.94-5.8,12.09-13.76
			c13.92-21.49,19.65-41.44,26.64-53.11c2.22-3.72,4.22-7.58,6.64-11.17c3.2-4.74,5.4-9.75,6.85-15.31
			c1.57-6.06,3.86-11.96,6.1-17.83c5-15.11,10.19-27.56,14.46-36.93c0,0,16.26-35.63,41.06-69.25c1.95-2.64,4.2-5.64,4.2-5.64
			c4.07-5.37,8.24-10.67,12.34-16.03c7.09-9.26,11.66-19.82,14.9-30.86c1.25-4.27,1.49-8.6,0.49-12.78
			c-0.53-2.23-1.42-4.33-3.49-7.81c-3.26-5.48-4.89-8.21-10.09-13.54c-11.94-12.24-22.1-56.22-20.43-56.72
			c2-0.6,17.84,61.97,30.51,60.23c1.81-0.25,3.32-1.53,4.22-3.49c7.07-15.38,11.43-26.61,16.61-44.29
			c3.04-10.37,6.2-17.85,9.54-25.79c6.01-14.26,13.05-27.84,13.76-27.52c0.8,0.35-6.11,18.12-18.62,50.29
			c-4,10.28-7.6,20.7-11.22,31.12c-1.78,5.11-3.21,10.35-4.77,15.54c-0.25,0.82-0.35,1.7-0.47,2.56c-0.68,5.19,0.33,7.94,3.72,9.47
			c3.98,1.8,6.69-0.73,9.09-3.23c4.95-5.14,10.24-10.02,14.53-15.73c0.82-1.09,1.79-2.38,2.92-3.89c0.09-0.41,0.21-0.8,0.38-1.17
			c5.47-11.53,9.04-20.47,13.3-27.46c5.85-9.59,12.27-19.97,19.49-31.22c-1.6,4.53-4.18,11.19-8.18,19.27
			c-0.26,0.53-0.54,1.14-1.06,2.1c-4.44,8.23-8.87,16.46-13.44,24.62c0-0.01,0.01-0.01,0.01-0.02c-0.02,0.04-0.05,0.08-0.07,0.12
			c-1.34,2.39-2.69,4.78-4.06,7.16c-0.7,1.22-1.56,2.34-2.49,3.43c-3.33,5.17-6.29,9.48-8.67,12.84
			c-6.51,9.17-13.05,18.33-19.22,27.73c-3.07,4.67-5.33,9.89-7.82,14.92c-1.05,2.11-1.04,4.22,1.26,5.72
			c0.68,0.44,1.29,0.62,1.87,0.62c1.62-0.01,2.89-1.33,3.31-1.79c5.14-5.54,13.94-14.63,21.4-22.34c2.35-4.44,5.97-7.5,9.37-10.59
			c1.26-1.14,2.54-2.25,3.81-3.38c-0.04,0.07-0.1,0.16-0.17,0.28c0.16-0.19,0.25-0.31,0.27-0.37c7.94-7.01,16.09-13.78,24-20.82
			c11.3-10.06,23.79-18.87,33.01-31.15c0.91-1.21,2.03-2.3,2.75-3.61c6.31-11.46,15.05-21.12,22.91-31.45
			c3.5-4.6,6.28-9.8,9.02-14.92c4.69-8.76,9-17.71,13.69-26.47c1.13-2.1,3.09-3.76,4.67-5.62l1.44,0.81
			c-0.66,2.42-1.08,4.94-2.02,7.24c-6.4,15.69-14.68,30.35-24.42,44.19c-0.89,1.27-4.82,4.65-7.55,10.48
			c-1.65,3.51-3.94,8.41-2.32,10.18c2.98,3.26,16.77-6.76,42.12-18.35c7.89-3.61,14.48-6.26,18.77-7.92
			c-13.03,9.33-24.14,14.71-32.11,17.93C1948.51,1186.34,1940.54,1189.17,1930.39,1195.42z"/>
	</g>
</g>
</svg>
