<?xml version="1.0" encoding="utf-8"?>
<!-- Generator: Adobe Illustrator 24.0.1, SVG Export Plug-In . SVG Version: 6.00 Build 0)  -->
<svg version="1.1" id="Слой_1" xmlns="http://www.w3.org/2000/svg" xmlns:xlink="http://www.w3.org/1999/xlink" x="0px" y="0px"
	 viewBox="0 0 3000 3000" style="enable-background:new 0 0 3000 3000;" xml:space="preserve">
<style type="text/css">
	.st0{fill:none;}
	.st1{fill:#45482A;}
</style>
<rect class="st0" width="3000" height="3000"/>
<g>
	<g>
		<path class="st1" d="M1997.35,1510.38c-1.86-3.18-6.17-9.03-26.73-12.95c-15.03-2.87-30.28-4.53-45.39-6.98
			c-4.13-0.67-8.13-2.23-12.13-3.56c-2.86-0.96-5.56-2.42-8.43-3.33c-13.84-4.4-27.71-8.72-42.2-10.49
			c-13.8-1.68-27.6-4.34-41.42-4.52c-17.64-0.23-35.44-0.86-52.73,5.07c-8.78,3.01-17.76,5.34-25.91,9.9
			c-10.69,5.99-21.23,12.25-32,18.08c-11.87,6.42-23.89,12.55-35.91,18.69c-3.4,1.74-7.11,2.87-10.48,4.65
			c-12.85,6.76-25.56,11.7-37.25,19.91c-17.28,12.13-19.06,19.99-40.62,32.99c-2.86,1.72-5.26,3.05-6.86,3.92
			c-0.62-13.5-0.11-24.4,0.52-32.07c0.65-8.04,1.28-12.56,2.74-27.03c0.74-7.41,1.37-14.83,2.22-22.22
			c0.84-7.4,2.4-14.75,2.72-22.16c0.44-10.3,4.03-19.12,10.16-27.21c7.02-9.27,13.01-19.36,21.94-27.09c0.3-0.26,0.53-0.61,0.8-0.91
			c9.39-10.54,18.41-21.43,28.25-31.53c13.37-13.73,26.02-27.97,36.81-43.85c2.49-3.66,5.5-6.95,8.21-10.46
			c7.03-9.11,13.79-18.39,18.63-28.92c1.08-2.36,2.46-4.58,3.79-6.82c5.66-9.53,11.99-18.73,16.84-28.65
			c5.38-11,10.48-22.17,15.07-33.6c4.89-12.21,8.73-24.72,12.34-37.22c4.74-16.42,7.61-33.38,11.09-50.15
			c0.98-4.72,1.21-9.58,1.87-14.37c1.25-8.98,3.29-17.92,3.61-26.93c0.24-6.91,1.66-13.53,2.64-20.25
			c1.77-12.11,3.87-24.17,5.99-36.22c1.61-9.11,3.16-18.26,5.33-27.24c1.98-8.21,5.15-16.13,7.08-24.35
			c3.3-14.02,9.4-26.98,14.55-40.28c3.85-9.94,9.11-19.32,13.3-29.14c5.22-12.21,10.31-24.49,14.86-36.96
			c4.2-11.54,8.02-23.25,11.21-35.11c1.97-7.34,2.94-15.04,3.44-22.64c0.39-5.9-1.96-11.69-7.96-13.69
			c-5.86-1.95-12.34-2.61-18.2,0.71c-8.07,4.57-16.01,9.36-24.01,14.04c-3.48,2.03-6.96,4.06-10.48,6.01
			c-7.06,3.91-14.61,7.11-21.13,11.76c-16.73,11.93-33.13,24.34-49.4,36.9c-5.88,4.54-11.41,9.7-16.39,15.22
			c-9.31,10.3-18.08,21.08-27.11,31.63c-5.91,6.91-11.29,14.16-15.52,22.26c-2.14,4.11-4.75,7.97-7.04,12
			c-4.77,8.38-10.09,16.53-14.05,25.28c-4.73,10.45-8.09,21.51-12.37,32.17c-5.26,13.09-10.18,26.39-16.48,38.98
			c-8.38,16.75-17.74,33.01-27.06,49.27c-9.92,17.31-20.05,34.5-28.52,52.59c-5.03,10.76-9.94,21.57-14.77,32.43
			c-3.52,7.91-7.2,15.79-10.13,23.92c-6.95,19.32-13.62,38.74-17.64,58.95c-0.74,3.74-2.01,7.37-2.97,11.07
			c-2.61,9.98-4.11,20.13-4.54,30.42c-0.57,13.88-1.46,27.77-1.4,41.65c0.06,14.5,1.05,28.99,1.71,43.48
			c0.28,6.03,0.09,12.19,1.29,18.05c2.38,11.61,1.37,23.29,1.73,34.93c0.1,3.3-0.12,7.14-1.69,9.87
			c-3.51,6.08-7.88,11.68-12.06,17.36c-6.58,8.93-14.13,17.26-19.76,26.75c-11,18.54-20.94,37.71-31.33,56.61
			c-0.78,1.43-1.69,2.79-2.54,4.18c-0.46-0.15-0.92-0.3-1.38-0.45c0-1.95-0.14-3.91,0.03-5.84c0.52-6.01,1.15-12.02,1.76-18.03
			c0.93-9.22,1.58-18.48,2.88-27.65c1.73-12.21,1.48-24.42,0.99-36.66c-0.36-8.85-1.45-17.69-1.44-26.53
			c0.06-38.59,4.64-65.39,4.16-88.62c-0.02-0.9-0.23-10.42-0.5-22.32c-0.05-2.21-0.12-4.42-0.15-6.62
			c-0.19-11.46-0.17-22.92-0.28-34.38c-0.15-15.71-0.93-31.41,2.17-47c2.67-13.42,4.67-26.97,7.13-40.44
			c1.34-7.31,3.18-14.52,4.5-21.83c1.26-6.94,2.09-13.95,3.18-20.92c2.18-13.92,4.39-27.83,6.62-41.74
			c1.84-11.49,3.62-22.99,5.61-34.46c1.17-6.74,2.5-13.47,4.12-20.12c1.42-5.83,3.1-11.62,5.11-17.27
			c2.5-7.03,5.06-12.02,6.22-14.38c6.88-13.92,13.47-28.41,19.3-41.22c8.69-19.11,13.26-31.06,17.51-41.16
			c1.07-2.54,3.46-9.12,7.17-17.96c3.16-7.53,5.67-13.05,6.68-15.27c14.19-31.29,21.29-46.93,26.01-62.02
			c0.66-2.1,3.27-12.52,8.41-33.37c3.23-13.09,6.61-26.14,9.49-39.31c3.27-14.96,5.92-30.05,9.09-45.03
			c3.78-17.82,4.64-35.95,6.44-54.01c2.48-24.93,2.89-49.91,3.52-74.89c0.38-14.94,1.92-29.75,3.27-44.59
			c0.47-5.21,1.27-10.4,1.86-15.6c1.11-9.82,1.99-19.66,3.31-29.45c1.86-13.8,3.7-27.55,2.88-41.56c-0.48-8.26-3.79-15.25-8.38-21.7
			c-3.29-4.62-9.81-7.27-14.92-3.86c-2.33,1.56-5.1,2.57-7.18,4.39c-7.42,6.51-14.91,12.98-21.81,20.01
			c-5.33,5.43-9.87,11.66-14.69,17.59c-7.05,8.65-12.64,18.23-17.17,28.38c-5.02,11.23-9.44,22.73-14.67,33.85
			c-4.01,8.54-8.92,16.61-12.68,25.35c-6.2,14.42-14.07,28.09-19.22,43.02c-3.81,11.04-8.33,21.84-12.19,32.87
			c-2.05,5.87-3.35,11.99-5.02,18c-3.29,11.84-6.89,23.61-9.79,35.54c-1.71,7.02-2.53,14.29-3.38,21.48
			c-2.34,19.82-4.98,39.61-6.54,59.49c-1.31,16.68-0.69,33.51-1.95,50.2c-1.51,19.96-1.92,39.88-1.02,59.86
			c0.99,21.96,1.77,43.94,3.12,65.88c0.93,15.09,2.75,30.12,4,45.19c0.38,4.61,0.1,9.28,0.26,13.91
			c0.44,12.48,1.36,24.96,1.34,37.44c-0.02,14.5-1.8,28.89-4.02,43.23c-2.39,15.51-4.18,31.11-6.31,46.67
			c-0.23,1.66-0.9,3.27-1.37,4.9c-0.78-3.52-0.92-6.85-1.09-10.18c-0.58-11.63-0.88-23.28-1.84-34.88
			c-1.07-12.83-3.13-25.51-2.89-38.53c0.25-14.01-1.22-28.06-2.11-42.08c-0.71-11.06-1.62-22.11-2.55-33.15
			c-0.61-7.21-1.2-14.42-2.17-21.59c-0.7-5.18-2.17-10.26-3-15.43c-1.31-8.15-1.97-16.42-3.61-24.5
			c-3.69-18.15-7.61-36.27-11.82-54.3c-3.35-14.33-6.88-28.65-11.04-42.76c-3.76-12.74-8.2-25.29-12.89-37.72
			c-2.91-7.71-7-14.97-10.24-22.56c-3.87-9.08-7.61-18.23-11.03-27.49c-5.39-14.56-11.32-28.99-15.49-43.91
			c-5.91-21.09-14.21-41.17-23.53-60.84c-7.33-15.48-15.57-30.53-23.55-45.7c-1.58-3.01-3.49-5.99-5.82-8.44
			c-6.54-6.85-16.32-5.38-19.43,3.49c-1.66,4.74-3.62,8.11-3.82,8.89c-4.7,18.13-2.51,70.88-2.51,70.88
			c0.75,17.99-0.19,15.64,0.86,27.14c1.41,15.45,3.07,30.91,5.38,46.25c2.03,13.51,2.28,27.36,7.33,40.38
			c3.93,10.14,7.09,20.58,11.2,30.64c4.11,10.05,8.93,19.81,13.53,29.66c0.85,1.81,2.26,3.34,3.21,5.11
			c6.08,11.33,12.11,22.69,18.15,34.04c0.95,1.78,1.61,3.78,2.85,5.32c12.46,15.41,20.72,33.19,27.74,51.42
			c9.05,23.47,16.96,47.39,25.38,71.1c3.84,10.81,7.75,21.59,11.59,32.4c4.04,11.39,8.52,22.66,11.92,34.24
			c6.33,21.53,8.8,43.84,11.9,65.97c1.42,10.14,1.52,20.48,1.91,30.74c0.64,16.87,1.23,33.75,1.42,50.64
			c0.1,8.42-0.96,16.85-1.07,25.29c-0.09,6.82,0.71,13.65,0.7,20.47c-0.01,14.5-0.27,29-0.46,43.5c-0.21,15.9-0.45,31.8-0.68,47.7
			c-0.1,7.05,0.17,14.13-0.42,21.13c-1.25,14.72-0.94,29.4-0.14,44.11c1.27,23.42,0.19,28.17-0.38,38.56
			c-0.32,5.81-0.77,11.8-1.29,18.64c-1.37,18.09-1.56,15.99-2.33,27.25c-0.88,12.91-0.78,17.43-1.78,17.64
			c-1.32,0.28-6.33-19.02-8.68-27.3c-7.54-26.52-12.71-27.22-37.35-83.06c0,0-11.28-23.52-16.36-43.32
			c-0.95-3.7-2.17-7.33-3.24-11.01c-1.23-4.24-2.66-8.43-3.59-12.74c-2.56-11.83-5.56-23.49-10.92-34.44
			c-6.37-13.02-12.58-26.12-18.79-39.22c-4.9-10.34-9.25-20.98-14.67-31.03c-5.44-10.08-11.75-19.71-17.98-29.35
			c-8.43-13.03-16.46-26.37-26.87-38.01c-0.66-0.74-1.03-1.72-1.57-2.57c-5.36-8.49-10.6-17.07-16.14-25.44
			c-3.21-4.85-7.16-9.21-10.29-14.11c-3.9-6.09-7.27-12.51-10.92-18.76c-0.91-1.56-1.97-3.04-3.03-4.52
			c-2.58-3.6-5.34-7.08-7.79-10.76c-7.12-10.74-13.86-21.74-21.26-32.28c-6.7-9.54-13.94-18.71-21.21-27.83
			c-5.4-6.77-10.83-13.6-16.93-19.71c-13.4-13.41-27.27-26.35-40.89-39.55c-10.94-10.6-23.04-19.43-36.69-26.36
			c-10.96-5.56-21.28-12.36-32.06-18.28c-12.36-6.79-24.92-13.21-37.4-19.8c-2.44-1.28-5.01-2.12-7.35-0.12
			c-2.39,2.05-1.66,4.81-0.9,7.34c0.93,3.09,2.39,6.03,3.13,9.16c3.45,14.64,9.78,28.2,16.11,41.68
			c9.34,19.88,19.78,39.21,28.46,59.45c8.09,18.88,17.31,37.27,26.2,55.8c4.98,10.38,10.84,20.24,17.93,29.38
			c3.44,4.44,6.47,9.21,9.53,13.93c6.13,9.47,11.85,19.23,18.31,28.46c7.16,10.23,15.06,19.93,22.46,29.99
			c9.07,12.33,17.18,25.36,27.74,36.57c4.15,4.4,8.08,9.02,11.99,13.63c9.24,10.91,18.41,21.89,27.63,32.82
			c17.74,21.03,38.28,39.27,58.06,58.27c4.5,4.33,9.42,8.22,14.17,12.28c10.89,9.28,21.99,18.32,32.61,27.9
			c5.95,5.37,10.87,11.85,16.65,17.42c8.43,8.12,15.8,17.07,22.91,26.34c14.66,19.11,26.95,39.62,37.38,61.28
			c0.61,1.27,1.43,2.43,2.08,3.68c4.42,8.61,9.6,16.92,13.03,25.91c5.51,14.47,10.18,29.3,14.57,44.16
			c2.56,8.66,3.63,17.75,5.89,26.52c0.92,3.58,0.7,6.56-0.63,9.88c-11.22,28.03-18.73,56.99-22.85,86.93c-2.89,21-5.41,42-5.64,63.2
			c-0.14,13.02-0.33,28.89,1.98,48.9c0.83,7.23,2,15.09,2.8,27.94c0.64,10.25,0.05,9.18,0.79,25.42
			c0.77,16.72,1.88,33.43,2.41,50.16c0.25,7.84-0.56,15.71-0.85,23.57c-0.4,10.87-0.68,21.75-1.15,32.62
			c-0.31,7.15-0.89,11.24-1.17,14.47c-2.7,32.07,3.79,55.33,0.67,56.17c-4.5,1.22-20.69-46.04-38.49-71.92
			c-0.63-0.92-2.41-2.85-3.99-6.02c-5.36-10.81-10.45-21.76-15.92-32.51c-4.55-8.94-10.29-17.36-14.13-26.58
			c-7.36-17.65-14.43-35.45-18.67-54.22c-3.02-13.36-6.83-26.49-8.7-40.15c-1.83-13.35-2.21-26.85-5.46-40.09
			c-2.28-9.28-2.01-19.11-5.17-28.35c-3.64-10.65-6.94-21.42-10.17-32.2c-2.54-8.48-5.57-16.92-6.9-25.61
			c-1.65-10.75-2.31-21.65-5.27-32.2c-0.42-1.52-0.29-3.19-0.44-4.79c-0.72-7.82-1.39-15.64-2.18-23.45
			c-0.41-4-1.67-8.01-1.45-11.96c0.98-17.62-3.75-34.45-7.12-51.39c-2.54-12.8-6.79-25.27-10.56-37.8
			c-2.25-7.5-4.87-14.9-7.63-22.23c-2.62-6.98-5.51-13.86-8.52-20.69c-4.46-10.12-8.77-20.33-13.79-30.17
			c-6.13-12.01-12.58-23.89-19.54-35.44c-4.55-7.56-10.15-14.5-15.47-21.57c-3.38-4.5-7.32-8.58-10.64-13.12
			c-4.76-6.51-8.71-13.66-13.84-19.83c-11.82-14.23-22.27-29.61-35.92-42.35c-7.95-7.42-14.98-15.81-22.65-23.53
			c-3.39-3.41-7.07-6.7-11.12-9.23c-5.01-3.12-7.89-2.09-11.08,2.8c-0.99,1.52-1.96,3.09-2.64,4.75
			c-5.72,13.93-9.03,28.54-10.19,43.43c-1,12.83-0.38,25.79-0.44,38.7c-0.01,2.62,0.07,5.24,0.3,7.85
			c0.79,9.03,1.69,18.06,2.51,27.09c0.67,7.43,1.19,14.88,1.94,22.31c1.33,13.24,2.77,26.47,4.2,39.7
			c1.43,13.22,2.47,26.49,4.49,39.62c2.26,14.74,5.31,29.36,8.21,43.99c1.96,9.88,4.36,19.67,6.37,29.53
			c2.89,14.2,5.03,28.57,8.5,42.61c5.91,23.9,13.56,47.3,23.15,70.01c4.31,10.21,8.79,20.38,13.72,30.3
			c4.39,8.83,9.75,17.18,14.26,25.96c6.49,12.65,15.43,23.6,23.66,35.04c2.12,2.94,4.18,5.96,6.55,8.68
			c17.93,20.59,38.23,38.75,58.22,57.26c6.18,5.72,13,13.16,26.83,27.84c22.15,23.52,42.99,48.67,83.79,98.02
			c2.07,2.51,26.47,29.41,36.02,56.47c1.87,5.31,4.56,10.37,5.95,15.79c4.54,17.67,7.17,30.17,9.16,44.95
			c4.23,31.36,5.55,33.14,7.8,51.09c3.75,29.89,5.28,92.76,5.49,159.95c0.15,38.72,0.42,110.92,0,143.47
			c-0.14,10.75,0.41,21.52,0,32.26c-0.61,16.1-1.96,27.44,0.69,28.15c0.61,0.16,1.55-0.2,6.18-6.86
			c6.48-9.32,9.85-13.94,11.56-19.71c1.78-6,1.21-9.29,0.81-21.03c-0.27-8.13,0.43,6.25,0.13-39.64
			c-0.06-9.08-0.07-15.44-0.24-26.63c-0.32-20.55-0.74-41.1-1.08-61.65c-0.24-14.11-0.32-28.22-0.63-42.33
			c-0.42-19.35-1.01-38.71-1.49-58.06c-0.41-16.7-0.72-33.41-1.18-50.11c-0.18-6.66-0.47-13.32-1.05-19.95
			c-1.54-17.66-3.54-35.28-4.82-52.95c-0.16-2.2-0.08-1.86-0.36-30.24c-0.44-44.43-0.57-48.84,1.34-57.82
			c1.57-7.38,4.92-16.07,11.62-33.45c6.97-18.09,10.18-27.31,16.32-37.62c8.09-13.58,17.46-26.11,27.68-38.08
			c1.56-1.83,3.36-3.46,5.01-5.22c3.44-3.65,6.51-7.75,10.36-10.9c8.74-7.14,17.75-13.98,26.87-20.63
			c6.99-5.1,14.35-9.71,21.51-14.59c7.32-4.98,14.69-9.89,21.85-15.09c5.37-3.9,10-9,15.73-12.18
			c16.16-8.96,28.58-22.32,41.57-34.86c10.98-10.6,20.67-22.55,30.64-34.16c5.37-6.25,10.29-12.92,15.14-19.6
			c8.52-11.72,16.76-23.63,25.25-35.37c6.26-8.65,12.33-17.49,19.22-25.62c6.77-7.99,14.9-14.82,21.67-22.81
			c12.79-15.09,29.45-24.8,46.15-34.48c5.38-3.11,11.16-5.56,16.86-8.07c8.11-3.58,16.49-6.6,24.44-10.5
			c7.32-3.59,14.88-6.11,22.8-7.84c2.74-0.6,5.47-1.5,8.02-2.68c7.5-3.46,14.94-7.07,22.34-10.75c4.51-2.24,9.18-4.31,13.29-7.15
			c16.06-11.13,32.21-22.17,47.78-33.98c9.55-7.25,19.94-12.91,30.21-18.86c3.8-2.2,8.1-3.64,12.31-5.01
			c4.55-1.48,8.38-3.6,11.55-6.56c2.45-2.28,5.63-4.99,6.64-9.46C2000.94,1516.53,1998.13,1511.71,1997.35,1510.38z
			 M1332.76,1413.25c-0.8-0.42-1.74-0.68-2.39-1.27c-10.9-9.82-21.63-19.82-32.67-29.47c-6.79-5.93-14.14-11.21-21.06-16.98
			c-6.18-5.15-12.25-10.45-18.13-15.94c-5.56-5.2-10.63-10.94-16.24-16.09c-12.59-11.57-24.16-24-34.36-37.74
			c-2.87-3.86-6.53-7.13-9.73-10.76c-9.3-10.56-18.83-20.94-27.74-31.82c-6.23-7.61-11.56-15.95-17.39-23.89
			c-4.77-6.48-9.3-13.2-14.64-19.18c-8.19-9.17-13.56-20.14-20.39-30.16c-2.72-3.99-5.14-8.19-7.89-12.16
			c-4.92-7.09-9.99-14.07-14.99-21.1c-0.35-0.49-0.68-1-0.99-1.52c-2.29-3.83-7.98-12.49-14.72-24.94
			c-4.64-8.58-14.55-26.9-22.6-47.77c-1.13-2.92-3.39-8.87-6.91-17.37c-2.31-5.58-4.58-11.2-7.25-16.61
			c-5.68-11.55-11.88-22.85-17.35-34.5c-4.26-9.09-7.79-18.53-11.51-27.87c-0.45-1.12-0.06-2.58-0.06-5.36
			c4.42,4.76,7.44,8.89,10.05,13.3c3.68,6.24,6.95,12.72,10.77,18.87c6.26,10.09,12.83,19.98,19.22,29.98
			c2.17,3.39,4.17,6.88,6.33,10.28c13.34,21.06,29.49,39.79,47.13,57.35c12.72,12.66,24.76,25.94,35.18,40.65
			c10.24,14.45,20.95,28.57,31.41,42.87c1.18,1.62,2.15,3.4,3.16,5.14c7.88,13.58,15.39,27.4,23.72,40.7
			c7.36,11.75,15.57,22.96,23.5,34.35c5.87,8.42,11.64,16.92,17.94,25.01c4.56,5.86,8.16,9.21,13.86,15.15
			c16.57,17.27,24.85,25.9,30.28,32.15c7.61,8.76,20.55,23.66,29.75,41.27c1.75,3.35,8.51,16.75,14.77,29.11
			c0.96,1.89,1.9,3.78,2.84,5.67C1333.36,1412.79,1333.06,1413.02,1332.76,1413.25z M1358.84,1443.79
			c-5.44-11.22-10.96-22.4-16.66-33.48c-3.85-7.5-8.13-14.77-12.08-22.22c-1.6-3.02-2.92-6.19-4.18-9.37
			c-3.07-7.74-7.02-14.97-12.23-21.47c-7.3-9.09-14.6-18.18-22.05-27.15c-2.42-2.92-5.34-5.42-7.98-8.16
			c-6.01-6.22-12.01-12.46-17.99-18.72c-15.57-16.31-30.24-33.32-42.19-52.56c-10.31-16.59-21.16-32.85-31.47-49.44
			c-5.52-8.89-10.22-18.28-15.66-27.22c-2.91-4.79-6.52-9.18-9.95-13.64c-10.68-13.88-21.28-27.83-32.24-41.48
			c-4.27-5.32-9.52-9.83-14.15-14.87c-6.54-7.11-12.94-14.35-19.35-21.58c-6.15-6.94-12.11-14.06-18.39-20.88
			c-8.25-8.97-14.35-19.39-20.58-29.72c-6.03-10-11.98-20.05-17.9-30.11c-2.25-3.82-4.13-7.86-6.49-11.61
			c-3.63-5.78-7.53-11.4-11.29-17.1c-0.3-0.46-0.42-1.04-1.1-2.81c5.45,2.86,10.03,5.12,14.48,7.63c15.79,8.92,31.67,17.67,47.21,27
			c6.68,4.02,12.99,8.87,18.77,14.12c11.79,10.71,23.19,21.86,34.61,32.97c8.23,8.01,16.55,15.91,23.16,25.47
			c3.41,4.94,7.79,9.2,11.7,13.8c8.77,10.3,15.79,21.83,23.21,33.09c7.19,10.92,14.78,21.58,22.01,32.46
			c6.13,9.23,11.93,18.68,18.04,27.92c4.76,7.19,9.8,14.19,14.66,21.31c4.31,6.32,8.54,12.68,12.8,19.03
			c6.38,9.52,12.97,18.91,19.08,28.6c7.2,11.41,14.4,22.85,20.81,34.7c5.26,9.72,9.29,20.1,13.99,30.13
			c4.19,8.93,8.75,17.69,12.78,26.69c2.87,6.41,5.56,12.97,7.54,19.7c3.14,10.62,5.46,21.48,8.42,32.15
			c4.94,17.86,10.2,35.63,17.49,52.71c1.07,2.49,2.8,4.7,4.23,7.04C1365.56,1452.94,1361.41,1449.09,1358.84,1443.79z
			 M1104.09,1320.39c10.47,10.92,21.18,21.63,31.07,33.05c8.56,9.88,16.1,20.65,24.16,30.98c5.58,7.15,11.11,14.34,16.94,21.27
			c8.6,10.21,16.16,21.11,22.43,32.87c7.57,14.21,15.42,28.31,22.25,42.89c9.67,20.64,18.01,41.85,23.67,64
			c4.14,16.2,8.13,32.45,11.97,48.72c0.78,3.29,0.48,6.82,0.83,10.22c1.12,11.02,2.4,22.02,3.44,33.04
			c0.78,8.22,0.91,16.51,1.98,24.68c1.75,13.38,3.17,26.9,6.33,39.97c3.49,14.41,8.43,28.51,13.41,42.51
			c3.9,10.97,5.36,22.33,7,33.68c1.72,11.97,2.74,24.04,4.46,36.01c1.34,9.35,3.14,18.64,4.98,27.91
			c2.12,10.66,3.66,21.54,6.95,31.85c6.67,20.91,13.49,41.85,24.87,60.89c1.34,2.24,2.31,4.69,3.08,7.3
			c-3.33-3.02-5.41-6.96-7.6-10.8c-0.7-1.22-1.03-2.7-1.89-3.77c-9.22-11.38-14.09-25.23-21.46-37.66
			c-1.33-2.24-2.98-4.28-4.31-6.52c-2.91-4.92-4.9-8.73-5.77-10.49c-13.04-26.37-12.48-24.94-16.23-32.97
			c-4.73-10.16-7.84-17.13-12.14-26.95c-4.19-9.59-7.72-19.46-11.87-29.07c-3.5-8.13-7.46-16.06-11.23-24.07
			c-0.43-0.91-1.07-1.73-1.41-2.67c-3.08-8.51-6.03-17.06-9.21-25.53c-1.12-2.98-2.94-5.68-4.09-8.65c-1.88-4.85-3.5-9.8-5.16-14.73
			c-1.23-3.63-2.19-7.36-3.57-10.93c-5.38-13.9-9.59-36.78-10.64-41.41c-3.81-16.8-7.01-29.63-13.61-55.25
			c-3.2-12.44-6.26-24.28-10.82-40.13c-3.92-13.61-5.11-16.85-8.76-29.44c-6.57-22.65-6.14-24.01-11.46-42.78
			c-2.67-9.43-10.91-37.84-24.68-72.85c-2.99-7.61-4.52-11.4-6.34-15.56c-10.99-25.24-17.45-28.57-27.39-51.74
			c-4.72-11-4.69-13.58-8.75-23.54c-0.79-1.93-1.89-6.35-3.56-12.18c-0.31-1.09-0.29-2.27-0.52-4.24
			C1096.27,1312.88,1100.34,1316.48,1104.09,1320.39z M1355.21,1984.36c-1.14,0.89-25.82-22.23-43.25-50.8
			c-4.63-7.58-10.2-17.94-20.59-28.83c-2.29-2.4-6.49-6.58-14.55-15.01c-5.4-5.65-8.97-9.63-10.32-10.91
			c-11.23-10.71-22.26-21.69-34.16-31.61c-12.62-10.53-23.16-22.9-34.43-34.68c-9.53-9.97-18.48-20.35-26.03-31.72
			c-10.57-15.92-20.79-32.15-28.57-49.72c-3.99-9.01-8.42-17.84-12.26-26.91c-2.51-5.91-4.31-12.11-6.47-18.17
			c-1.22-3.42-2.72-6.74-3.74-10.21c-2.78-9.47-5-19.11-8.12-28.46c-4.8-14.42-7.78-29.18-10.22-44.14
			c-1.82-11.13-4.75-22.07-6.96-33.14c-2.44-12.25-4.36-24.61-7-36.81c-1.46-6.72-2.21-13.46-2.92-20.27
			c-1.47-14.02-3.58-27.96-5.21-41.97c-0.86-7.4-1.17-14.86-1.89-22.28c-0.77-7.83-1.84-15.62-2.58-23.45
			c-0.57-6.02-0.63-12.1-1.28-18.11c-1.97-18.29-2.66-36.63-1.18-54.95c1.06-13.06,3.15-26.03,8.47-38.21
			c0.4-0.91,0.92-1.78,1.47-2.61c0.2-0.3,0.65-0.45,1.72-1.14c0.8,3.03,2.08,5.82,2.2,8.67c0.39,8.65,4.64,15.78,8.48,23.07
			c5.92,11.23,12.23,22.25,18,33.55c6.26,12.28,10.52,21.52,14.18,29.99c3.46,8,6.68,16.15,17.44,48.14
			c6.84,20.33,12.17,36.32,19.32,59.19c4.87,15.58,9.47,31.26,13.89,46.97c3.22,11.44,6.04,23,8.89,34.54
			c3.43,13.89,7.67,27.68,9.76,41.78c1.79,12.03,5.66,23.41,8.2,35.17c2.89,13.38,6.6,26.61,8.9,40.09
			c2.77,16.18,8.93,30.91,16.49,45.26c2.34,4.44,3.97,9.24,6,13.85c1.7,3.86,3.47,7.7,5.3,11.51c5.06,10.53,10.24,21,15.21,31.57
			c5.97,12.67,10.17,22.44,10.96,24.25c6.29,14.49,22.1,45.96,31.23,62.79C1327.52,1952.02,1356.49,1983.35,1355.21,1984.36z
			 M1845.28,858.15c-4.51,13.99-9.19,27.94-14.31,41.72c-5.12,13.76-10.74,27.35-16.39,40.91c-6.43,15.43-13.3,30.67-19.64,46.14
			c-2.28,5.55-3.43,11.56-5.3,17.29c-4.7,14.4-8.79,28.93-11.14,43.93c-2.59,16.47-5.62,32.88-7.79,49.41
			c-1.55,11.77-1.99,23.68-2.92,35.53c-0.09,1.2,0.01,2.44-0.23,3.6c-2.14,10.02-4.37,20.03-6.52,30.05
			c-2.2,10.23-3.93,20.59-6.58,30.7c-4.85,18.52-11.02,36.59-19.21,53.98c-8.53,18.12-19.67,34.71-29.42,52.1
			c-9.12,16.26-19.83,31.37-31.65,45.57c-13.64,16.4-28.57,31.73-42.99,47.48c-9.94,10.86-20.12,21.49-29.85,32.53
			c-3.7,4.19-6.43,9.23-9.62,13.88c-0.54,0.78-1.17,1.49-2.72,3.46c-0.77-6.89-1.3-12.27-2-17.62
			c-1.34-10.29-7.36-16.61-17.02-19.76c-0.37-0.12-0.69-0.39-1.4-0.8c-0.38-4.7,1.55-9.2,2.62-13.79
			c1.59-6.83,3.42-13.62,5.47-20.33c1.88-6.15,4.09-12.21,6.3-18.25c7.26-19.85,14.47-39.73,21.93-59.51
			c5.05-13.38,10.45-26.63,15.75-39.91c3.44-8.6,6.85-17.23,10.52-25.73c9.24-21.43,13-29.65,19.37-44.34
			c12.76-29.41,9.06-25.28,22.21-56.04c10.36-24.25,17.17-37.38,25.27-57.27c1.74-4.28,3.24-8.18,6-13.82
			c3.45-7.04,7.25-13.92,10.79-20.92c1.45-2.87,2.47-5.95,3.95-8.8c1.36-2.61,2.99-5.09,4.64-7.54c3.47-5.17,7.07-10.25,10.54-15.42
			c2.96-4.41,5.01-7.65,7.51-11.63c4.07-6.47,6.97-11.42,9.61-15.91c15.1-25.74,14.25-23.21,16.43-28.1
			c3.91-8.78,10.92-15.39,16.12-23.25c3.76-5.68,7.63-11.29,11.62-16.81c3.18-4.4,6.21-9,9.99-12.84
			c12.53-12.78,22.04-27.7,31.4-42.79c3.03-4.88,6.43-9.53,10.35-15.28C1848.45,847.1,1847.02,852.76,1845.28,858.15z
			 M1516.08,1341.52c0.45-9.42,2.12-18.78,3.37-28.15c0.64-4.79,1.37-9.59,2.42-14.31c4.03-18.1,9.22-35.87,15.23-53.43
			c4.31-12.6,9.17-24.93,14.72-37.01c5.04-10.97,9.77-20.58,11.72-24.44c2.2-4.35,2.7-5.2,6.16-11.86
			c12.94-24.86,11.97-26.5,18.24-35.36c4.99-7.04,9.54-14.43,13.82-21.93c4.69-8.22,9.06-16.64,13.15-25.18
			c5.92-12.35,11.67-24.8,17.09-37.38c3.65-8.49,6.52-17.32,9.88-25.95c2.85-7.3,6.22-14.42,8.81-21.81
			c4.85-13.84,12.82-25.98,20.79-38.03c7.19-10.86,15.36-21.05,23.69-31.15c8.5-10.32,17.26-20.22,27.17-29.14
			c1.8-1.62,3.62-3.22,5.54-4.69c12.81-9.77,25.41-19.82,38.54-29.14c12.29-8.72,25.42-16.18,38.6-23.52
			c7.21-4.02,13.86-9.04,21.05-13.09c5.28-2.97,11.2-3.94,17.63-3.08c-0.12,4.13-2.2,6.94-4.01,9.72
			c-6.26,9.63-12.47,19.32-19.16,28.66c-5.39,7.53-11.34,14.66-17.22,21.83c-7.54,9.19-14.96,18.45-21.13,28.67
			c-2.81,4.65-6.31,8.87-9.27,13.44c-4.15,6.42-8.1,12.98-12.11,19.49c-3.6,5.83-7.15,11.69-10.76,17.51
			c-1.91,3.08-4.23,5.95-5.79,9.19c-4.85,10.08-11.79,18.75-18.27,27.73c-11.08,15.36-17.96,32.87-25.91,49.84
			c-1.28,2.74-2.43,5.53-3.7,8.28c-7.42,16.1-14.93,32.16-22.25,48.31c-4.82,10.65-9.55,21.34-13.97,32.16
			c-3.58,8.76-6.54,17.78-9.96,26.61c-2.55,6.56-5.3,13.05-8.15,19.49c-6.61,14.94-13.24,29.86-20.02,44.72
			c-7.37,16.14-15.03,32.15-22.34,48.31c-2.1,4.63-1.83,4.65-7.21,18.57c-19.73,50.98-18.41,44.91-22.9,58.28
			c-4.61,13.71-10.43,33.28-18.42,53.33c-0.65,1.63-0.93,3-1.86,4.44c-6.82,10.47-13.69,20.91-20.64,31.3
			c-1.32,1.97-3.06,3.66-5.44,6.47c-0.67-2.55-1.26-3.86-1.31-5.19c-0.34-9.67-0.9-19.3-3.38-28.72c-0.2-0.77-0.19-1.6-0.26-2.4
			c-0.42-4.78-0.92-9.56-1.22-14.36c-0.55-8.64-1.28-17.28-1.38-25.93C1515.51,1368.91,1515.43,1355.19,1516.08,1341.52z
			 M1606.8,488.62c4.6,3.65,5.47,8.7,5.91,13.51c1.37,14.94,0.31,29.74-2.93,44.45c-1.55,7.05-2.04,14.35-2.73,21.56
			c-1.47,15.46-2.9,30.93-4.05,46.41c-0.42,5.59,0.1,11.25-0.01,16.88c-0.08,3.81-0.68,7.62-0.75,11.43
			c-0.27,14.93-0.19,29.87-0.7,44.79c-0.31,9.24-1.41,18.46-2.21,27.68c-0.83,9.62-1.9,19.22-2.56,28.86
			c-1.06,15.58-4.76,30.64-8.33,45.76c-2.55,10.79-4.4,21.75-6.98,32.53c-3.61,15.09-6.65,30.41-11.72,45.02
			c-5.8,16.72-9.95,34.09-18.41,49.87c-4.17,7.77-7.92,15.78-11.67,23.77c-2.83,6.01-5.39,12.16-8.04,18.26
			c-3.7,8.49-7.38,16.98-11.05,25.49c-3.27,7.57-6.4,15.21-9.71,22.76c-0.26,0.6-1.73,3.91-3.48,7.77
			c-7.08,15.59-12.47,26.16-14.87,31.24c-11.7,24.78-12.18,46.22-13.73,45.99c-1.91-0.28,1.37-30.2,1.37-30.2
			c8.02-73.05,24.85-143.23,34.24-185.02c0.67-2.98,2.2-9.79,3.91-18.88c1.27-6.73,2.33-13.5,3.45-20.26
			c1.91-11.51,3.68-23.04,5.71-34.52c1.57-8.9,3.5-17.74,5.14-26.63c2.34-12.66,4.44-25.36,6.85-38
			c1.95-10.26,3.66-20.63,6.46-30.67c4.31-15.46,7.55-31.12,10.55-46.86c2.41-12.64,5.63-25.12,8.43-37.69
			c2.23-10.02,3.98-20.16,6.64-30.06c3.75-13.99,8.02-27.85,12.28-41.7c3.6-11.71,7.55-23.31,11.23-35c1.03-3.26,1.49-6.7,2.46-9.98
			C1599.43,500.59,1601.86,494.23,1606.8,488.62z M1303.48,634.14c2.51,4.36,4.44,9.05,6.77,13.52c5.69,10.9,12.04,21.5,17.06,32.69
			c6.1,13.59,11.38,27.56,16.5,41.56c4.5,12.28,8.11,24.9,12.47,37.24c7.66,21.67,16.25,42.95,25.77,63.9
			c8.17,17.98,14.92,36.61,19.7,55.84c3.7,14.87,7.25,29.78,10.62,44.73c2.35,10.41,4.47,20.88,6.38,31.39
			c2.7,14.86,5.34,29.74,7.54,44.68c1.02,6.87,1.91,15.69,3.79,33.04c3.57,33.05,5.22,51.17,5.79,57.51
			c2.41,26.96,3.8,42.41,2.75,42.56c-1.35,0.19-6.06-25.14-9.88-45.69c-2.61-14.04-4.81-27.09-5.75-32.61
			c-2-11.67-3.85-23.37-5.89-35.04c-1.28-7.32-3.49-14.56-4.01-21.92c-0.72-10.18-4.8-19.43-6.83-29.23
			c-1.58-7.62-4.48-15.01-7.23-22.34c-5.11-13.62-8.86-22.96-11.7-29.77c-16.01-38.45-13.69-44.04-26.4-71.51
			c-1.8-3.88-7.67-15.61-11.35-26.56c-2.05-6.1-4.34-12.11-6.45-18.18c-1.65-4.74-3.17-9.53-4.78-14.28
			c-1.34-3.97-2.7-7.93-4.11-11.87c-0.81-2.27-1.78-4.49-2.6-6.76c-2.05-5.68-2.8-7.63-7.71-21.6c-3.94-11.22-3.9-10.92-6.17-17.49
			c-2.5-7.27-3.87-10.88-4.8-14.24c-2.58-9.3-5.02-18.64-7.39-28c-1.38-5.44-2.54-10.94-3.73-16.42c-0.6-2.76-0.57-5.74-1.64-8.28
			c-2.78-6.55-4.09-13.41-5.13-20.35c-0.7-4.68-1.02-9.42-1.57-14.65C1298.93,627.08,1301.41,630.55,1303.48,634.14z
			 M1436.01,1518.27c0.73-8.53,1.02-16.14,1.29-31.37c0.24-13.46,0.31-26.93,0.16-40.39c-0.24-23.06-1.13-24.75-0.96-40.98
			c0.13-12.12,0.59-13.81,1.34-32.46c0.48-11.77,0.73-25.1,1.14-51.28c0.27-17.3,0.66-34.6,0.65-51.91
			c-0.01-16.13-0.49-32.26-0.74-48.38c-0.09-5.85-0.04-11.7-0.2-17.55c-0.09-3.41-0.5-6.81-0.73-10.22
			c-0.28-4.19-0.39-8.4-0.83-12.58c0,0-0.55-6.4-2.03-14.92c-4.17-24.08-33.64-129.66-51.02-174c-1.42-3.61-2.27-5.81-3.61-8.97
			c-3.68-8.7-7.75-17.25-11.53-25.92c-0.88-2.03-1.44-4.21-2.47-6.15c-4.35-8.14-8.7-16.28-13.29-24.28
			c-4.31-7.5-9.07-14.75-13.38-22.25c-6.1-10.63-12.06-21.35-17.87-32.14c-2.28-4.24-4.03-8.78-5.94-13.21
			c-3.74-8.67-7.77-17.23-11.03-26.07c-3.4-9.23-7.33-18.94-10.55-32.07c-2.43-9.92-3.7-18.34-4.41-24.29
			c-0.89-9.26-2.11-22.54-3.37-38.59c-1.1-13.97-1.85-20.95-2.12-30.11c-0.52-17.3-2.37-34.61-0.33-51.94
			c0.64-5.4,0.75-10.85,1.37-16.25c0.27-2.31,1.23-4.53,2.08-7.52c2.42,2.16,2.5,4.34,2.99,6.39c1.44,6.07,3.16,12.08,4.45,18.18
			c3.26,15.38,4.59,23.14,5.1,26.11c4.3,25.4,19.82,77.25,39.29,123.79c2.55,6.09,4.91,11.32,12,28.4
			c6.18,14.9,12.42,29.77,18.39,44.75c4.4,11.05,8.52,22.22,12.56,33.41c6.15,17.05,11.71,34.32,18.28,51.2
			c5.17,13.28,7.99,26.98,9.89,40.97c0.35,2.59,0.9,5.16,1.36,7.74c1.66,9.31,3.23,18.64,5,27.93c1.73,9.1,3.77,18.13,5.47,27.24
			c1.52,8.11,2.79,16.26,4.11,24.41c2.06,12.72,4.32,25.34,7.79,37.83c2.62,9.4,2.82,19.5,3.76,29.32c0.37,3.84,0.27,3.59,0.58,6.96
			c1.01,11.08,3.25,35.73,7.18,36.07c5.69,0.49,14.52-49.89,15.79-58.34c0.33-2.17,1.47-10.06,2.36-16.93
			c0.26-1.98,0.48-3.79,0.79-6.26c0.54-4.39,0.81-8.83,0.93-13.25c0.36-13.51,1.16-27.03,0.73-40.52
			c-0.5-15.66-2.47-31.27-3.18-46.93c-0.74-16.28-3.43-32.38-3.33-48.76c0.1-16.52-1.25-33.05-1.89-49.58
			c-0.5-12.86-1.47-25.74-1.22-38.59c0.39-20.36,1.45-40.71,2.57-61.05c0.86-15.64,1.91-31.29,3.49-46.87
			c1.04-10.21,3.44-20.27,4.77-30.46c2.1-16.09,6.86-31.47,11.73-46.85c1.34-4.21,1.65-8.75,3.03-12.94
			c1.95-5.91,4.46-11.63,6.71-17.45c7.87-20.31,16.88-40.09,26.87-59.45c4.79-9.28,9.4-18.67,13.83-28.14
			c2.98-6.37,5.21-13.09,8.26-19.43c4.8-9.98,8.97-20.49,15.29-29.44c7.39-10.48,16.71-19.6,25.36-29.16
			c3.37-3.72,7.02-7.25,10.9-10.45c2.69-2.22,5.98-3.71,9-5.53c0.4,0.32,0.8,0.64,1.21,0.96c-0.38,1.63-0.43,3.44-1.2,4.85
			c-6.72,12.39-9.27,26.2-13.52,39.42c-4.06,12.66-8.02,25.38-11.52,38.2c-3.76,13.8-6.96,27.75-10.35,41.65
			c-1.86,7.63-3.75,15.26-5.38,22.95c-3.32,15.57-6.32,31.21-9.73,46.77c-3.92,17.91-8.18,35.75-12.18,53.64
			c-1.1,4.9-1.63,9.93-2.68,14.84c-3.53,16.55-7.36,33.04-10.72,49.62c-2.04,10.05-3.4,20.24-5.1,30.36
			c-1.54,9.14-3.05,18.29-4.73,27.41c-1.42,7.73-2.96,15.43-4.62,23.11c-1.53,7.08-3.51,14.06-4.87,21.16
			c-2.77,14.45-5.21,28.96-7.88,43.43c-5.12,27.73-10.35,55.44-15.42,83.18c-1.59,8.72-2.81,17.51-4.23,26.27
			c-1.16,7.16-2.53,14.3-3.49,21.49c-0.69,5.18-1.59,10.5-1.12,15.64c0.87,9.39-1.07,18.47-1.83,27.67
			c-0.69,8.33-1.52,14.75-3.22,27.59c-3.92,29.69-5.88,44.53-8.36,53.02c-1.07,3.65-3.74,12.24-5.39,24.02
			c-0.53,3.77-0.21,3.69-1.08,8.97c-1.27,7.75-2.71,15.47-3.95,23.22c-0.89,5.57-1.63,11.16-2.33,16.76
			c-3.2,25.68-1.12,70.65-1.12,70.65c2.04,43.45,0.71,79.38-0.74,119.01c-0.81,22.06-1.38,20.47-1.64,35.52
			c-0.14,8.28-1.14,19.39-2.24,34.9c-0.16,2.31-0.55,3.77-0.7,4.77c-4.46,29.63,0.33,65.08-2.29,65.52
			c-1.17,0.2-3.83-6.54-5.58-14.92C1425.74,1565.04,1433.03,1553.17,1436.01,1518.27z M1414.95,2037.71
			c3.98,85.35,6.18,125.38,7.48,145.95c1.06,16.7,1.75,29.26,2.93,54.38c0.66,14.1,1.16,28.22,1.53,42.33
			c0.23,9.06,0.05,18.13,0.12,27.19c0.19,23.8,0.24,47.6,0.69,71.39c0.62,33.08,2.05,35.15,1.77,56.83
			c-0.33,25.05-1.88,24.03-0.8,36.65c1.21,14.17,1.35,17.65-0.68,25.87c-1.62,6.57-4.89,14.75-6.61,14.41
			c-3.15-0.61,0.15-29.62,1.41-65.81c0.05-1.54,0.17-4.3,0.18-7.93c0.01-3.88-0.21-8.72-0.97-27.15
			c-1.16-28.2-0.12-56.42-0.54-84.62c-0.18-11.88-1.45-23.74-1.62-35.62c-0.37-26.47-0.06-45.73,0.11-52.02
			c1.47-54.97-7.18-90.84-8.45-166.65c-0.29-17.54-0.31-44.37,1.5-77.55v0c0.29-10.62,1.23-21.22,1.61-31.83
			c0.48-13.5,0.88-27.04,0.48-40.53c-0.37-12.24-1.98-24.44-2.82-36.67c-0.49-7.2-0.4-14.43-0.79-21.64
			c-1.01-18.89-1.4-37.83-5.09-56.48c-0.31-1.57-0.55-3.19-0.55-4.79c0.01-12.49-0.24-24.99,0.25-37.46
			c0.4-10.04,1.59-20.07,2.68-30.07c1-9.19,2.15-18.37,3.63-27.49c0.7-4.3,2.54-8.4,3.53-12.67c4.49-19.31,5.72-26.72,9.63-41.76
			c3.99-15.38,10.55-28.9,23.66-55.94c2.22-4.58,5.46-14.33,11.44-23.05c3.94-5.76,6.43-12.51,9.6-18.8
			c6.43-12.78,13.64-25.1,22.3-36.52c5.83-7.69,11.9-15.22,17.51-23.07c4.31-6.04,7.94-12.57,12.1-18.73
			c6.29-9.32,12.82-18.47,19.17-27.74c3.99-5.82,7.9-11.68,11.76-17.59c3.7-5.66,8.49-9.91,15.84-12.34
			c-0.2,1.71-0.12,3.19-0.55,4.49c-4.99,14.87-10.46,29.59-15.02,44.59c-5.09,16.74-9.53,33.69-13.96,50.62
			c-2.19,8.37-3.71,16.91-5.6,25.36c-3.41,15.3-6.72,30.62-10.36,45.87c-1.44,6.01-3.72,15.64-11.3,45.12
			c-8.45,32.89-12.68,49.33-15.8,60.54c-9.81,35.3-11.57,35.55-29.73,95.76c-3.31,10.97-9.18,30.75-15.61,54.01
			c-10.69,38.7-17.06,65.89-24.42,97.3c0,0-9.26,39.86-11.15,72.95c-0.08,1.41-0.14,2.6-0.18,3.61
			C1414.97,2027.6,1414.93,2033.58,1414.95,2037.71z M1437.34,1983.16c-3.16,9.29-6.92,18.37-10.79,27.54
			c0.96-5.03,2.04-10.05,2.85-15.1c2.18-13.51,4.06-27.06,6.44-40.53c1.26-7.13,3.45-14.09,4.96-21.18
			c1.93-9.06,3.28-18.25,5.45-27.24c2.13-8.79,4.98-17.4,7.5-26.09c1.12-3.87,2.44-7.7,3.31-11.62c2.45-11,4.69-22.04,7.09-33.05
			c0.69-3.14,1.62-6.24,2.46-9.34c2.58-9.51,5.13-19.03,7.78-28.52c0.92-3.28,2.27-6.45,3.14-9.74c4.81-18.1,9.61-36.21,14.24-54.36
			c1.79-7.03,3.1-14.18,4.69-21.26c0.62-2.75,1.41-5.46,2.15-8.18c4.41-16.08,8.98-32.13,13.19-48.26
			c2.33-8.92,4.23-17.96,6.03-27.01c2-10.06,4.8-19.84,8.41-29.46c1.89-5.03,2.57-10.53,3.56-15.86c1.31-7.1,2.34-14.24,3.56-21.35
			c0.44-2.58,1.03-5.13,1.67-7.67c4.27-16.94,8.52-33.88,12.88-50.8c1.66-6.44,3.52-12.83,5.42-19.2
			c3.31-11.17,6.42-22.41,10.19-33.42c2.73-7.98,6.38-15.65,9.67-23.44c0.3-0.7,0.94-1.26,1.87-2.46c3.21,3.89,3.57,7.94,3.83,11.9
			c1.1,17.08,2.17,34.12-0.31,51.25c-2.65,18.33-4.58,36.76-6.44,55.19c-0.78,7.75-0.54,13.31-0.69,22.35
			c-0.43,25.44,0.58,36.82-1.49,60.22c-0.09,1.06-0.69,0.21-0.57,5.98c0.34,17.42-2.4,34.55-4.67,51.72
			c-4.28,32.35-13.63,63.33-25.87,93.49c-5.68,14.01-10.92,28.23-17.31,41.9c-6.64,14.21-12.71,28.75-21.71,41.81
			c-4.33,6.28-7.47,13.37-11.32,19.99c-5.87,10.1-11.71,20.23-17.89,30.15C1456.56,1934.03,1445.88,1958.08,1437.34,1983.16z
			 M1980.66,1529.53c-13.94,3.67-25.48,11.98-37.6,19.14c-2.58,1.52-4.83,3.61-7.22,5.45c-1.43,1.11-2.68,2.58-4.28,3.32
			c-11.32,5.24-20.28,13.85-29.9,21.37c-12.37,9.68-25.54,17.56-40.22,23c-16.02,5.94-32.25,11.4-48.01,17.97
			c-13.01,5.42-25.82,11.53-38.06,18.49c-11.62,6.61-23.5,13.13-33.04,22.87c-2.4,2.45-4.78,4.91-7.11,7.43
			c-8.49,9.17-16.61,18.72-25.53,27.46c-10.61,10.4-18.24,22.94-26.91,34.77c-7.03,9.58-12.51,20.17-20.45,29.2
			c-8.21,9.34-14.97,19.95-23.19,29.29c-8.51,9.67-17.97,18.5-27.08,27.63c-2.99,3-6.23,5.74-9.26,8.7
			c-6.24,6.12-13.75,10.48-20.84,15.48c-9.05,6.38-17.57,13.52-26.39,20.24c-2.72,2.07-5.68,3.83-8.52,5.75
			c-10.67,7.24-21.38,14.43-31.99,21.76c-7.78,5.37-16.14,9.97-22.62,17.12c-4.74,5.23-9.73,10.24-14.63,15.32
			c-1.23,1.28-2.57,2.45-3.86,3.68c-0.29-0.23-0.58-0.46-0.87-0.69c1.51-2.56,3.03-5.13,4.53-7.7c4.06-6.93,8.19-13.82,12.14-20.81
			c3.36-5.95,6.39-12.1,9.78-18.03c3.89-6.81,8.19-13.39,11.99-20.25c4.78-8.64,9.02-17.59,13.91-26.17
			c3.87-6.81,8.27-13.32,12.61-19.85c4.56-6.87,9.24-13.68,14.04-20.39c3.86-5.4,7.89-10.69,12-15.91
			c7.34-9.32,15.08-18.34,22.14-27.86c8.82-11.88,19.23-22.26,29.43-32.87c8.52-8.85,17.25-17.5,25.68-26.43
			c7.74-8.2,15.13-16.73,22.82-24.98c3.99-4.27,8.33-8.19,12.47-12.32c2.84-2.84,5.54-5.83,8.42-8.63
			c5.91-5.76,11.8-11.55,17.89-17.12c5.92-5.42,12.04-10.62,18.14-15.83c4.9-4.18,9.69-8.53,14.89-12.31
			c12.22-8.9,24.59-17.57,37.02-26.17c3.13-2.17,6.64-3.81,10.05-5.56c12.9-6.62,25.7-13.54,39.74-17.5
			c15.66-4.41,31.12-9.52,47.57-10.76c11.43-0.86,22.75-3.12,34.16-4.46c14-1.65,28.04-2.92,42.05-4.54
			c5.99-0.69,11.91-2.03,17.91-2.73c7.34-0.85,14.72-1.34,22.78-2.04C1986,1527.02,1983.52,1528.78,1980.66,1529.53z
			 M1981.84,1517.96c-5.99,3.11-10.9,2.05-27.94,5c-1.98,0.34-4.01,0.59-6.02,0.64c-18.58,0.49-36.8,4.17-55.2,6.28
			c-9.01,1.03-18.01,2.46-27.05,2.91c-8.17,0.4-15.95,2.36-23.67,4.56c-12,3.42-23.89,7.18-35.55,11.79
			c-11.1,4.39-22.11,8.96-32.3,15.06c-15.75,9.43-30.66,20.14-44.42,32.39c-12.51,11.13-25.36,21.86-37.77,33.1
			c-6.7,6.08-12.77,12.86-19.15,19.29c-7.96,8.02-15.99,15.95-23.91,24c-16.81,17.09-33.83,34-50.26,51.45
			c-9.11,9.67-17.18,20.32-25.78,30.47c-4.04,4.77-8.22,9.4-12.32,14.11c-3.3,3.79-6.57,7.6-9.86,11.39
			c-1.41,1.62-2.84,3.21-4.27,4.82c-0.38-0.18-0.76-0.36-1.13-0.54c0.58-2.43,0.95-4.94,1.77-7.29c2.92-8.37,6.02-16.68,8.98-25.04
			c1.28-3.61,2.46-7.25,3.52-10.93c2.34-8.11,5.08-16.14,6.73-24.4c2.95-14.78,5.58-29.64,7.67-44.57
			c1.85-13.17,3.03-26.44,4.03-39.7c0.98-12.87,0.94-24.8,1-28.97c0.06-4.37,0.06-8.05,0.05-10.72
			c12.38-11.02,23.02-19.79,30.89-26.08c12.67-10.13,19.13-15.26,25.4-18.53c8.48-4.43,12.48-4.98,30.57-13.55
			c5.81-2.75,10.52-5.1,13.02-6.38c8.59-4.41,17.12-8.91,25.68-13.38c2.5-1.3,5.04-2.52,7.48-3.91c6.27-3.59,12.83-6.79,18.66-11
			c8.51-6.14,18.16-9.86,27.84-12.98c12.42-4,25.25-6.75,38.4-7.93c24.59-2.21,48.66,0.78,72.73,5.43
			c15.13,2.92,29.57,7.72,44.16,12.46c10.04,3.26,20.95,3.76,31.4,5.85c11.26,2.25,22.46,4.79,33.62,7.47
			c3.01,0.72,5.78,2.43,8.66,3.68C1985.2,1516.1,1983.16,1517.28,1981.84,1517.96z"/>
	</g>
</g>
</svg>
