<svg xmlns="http://www.w3.org/2000/svg" width="1000" height="2062" viewBox="0 0 1000 2062">
  <g id="gentle-within-19" transform="translate(-1000 -469)">
    <rect id="Rectangle_1" data-name="Rectangle 1" width="1000" height="2062" transform="translate(1000 469)" fill="none"/>
    <g id="Group_3" data-name="Group 3">
      <g id="Group_1" data-name="Group 1">
        <path id="Path_1" data-name="Path 1" d="M1573.77,2089.88a31.883,31.883,0,0,0-7.43-9.93c-8.4,7.6-10.98,19.03-18.39,27.19s-14.31,16.8-20.94,25.6c-6.43,8.54-12.24,17.54-18.32,26.34a25.415,25.415,0,0,1-.04-8.74c1.6-12.97,3.8-25.9,4.58-38.91.37-6.18-1.25-12.75-3.23-18.72-1.96-5.91-5.2-6.1-9.63-1.45a32.731,32.731,0,0,0-3.48,5.02c-1.07,1.66-2.06,3.37-3.08,5.06-.34-.09-.68-.19-1.02-.28,1.97-36.1,3.94-72.19,5.93-108.66,1.41.42,2.24.45,2.76.86,6.25,4.92,12.56,9.76,18.62,14.91,5.23,4.45,10.83,7.53,17.87,8.07a54.818,54.818,0,0,1,14.21,2.64c3.88,1.4,6.98,2.81,10.39-.74,4.86-5.05,5.41-6.89,2.8-12.9-1.74-4-3.78-7.88-5.24-11.98-5.55-15.6-16.25-27.1-29.15-36.79-9.06-6.81-19.24-11.49-32.28-14.63,3.89-2.16,6.1-3.7,8.52-4.69a82.436,82.436,0,0,0,28.64-19.03c1.36-1.41,3.34-2.26,5.08-3.28,14.5-8.54,30.98-13.07,44.82-23.19,11.64-8.51,21.27-18.73,28.01-31.01,7.26-13.2,12.81-27.41,18.3-41.5,4.28-10.98,7.37-22.44,7.26-34.46-.03-3,.25-7.36-2.33-9.13-2.9-1.99-7.34.51-17.15,4.81-12.95,5.68-11.39,3.72-17.79,7.23-11.69,6.4-23.37,13.04-31.92,23.68-6.57,8.18-12.11,17.34-19.49,24.68-10.02,9.97-17.35,21.42-23.58,33.86-1.43,2.84-3.52,5.36-6.01,9.07-.38-2.35-.68-3.1-.59-3.79,1.93-14.96,4.51-29.86,5.73-44.88,2.39-29.37,4.19-58.8,5.86-88.22.42-7.39-.89-14.86-.86-22.29.05-17.71.68-35.42.58-53.12-.08-15.37,2.96-30.67.91-46.09-.26-1.96.75-4.1,1.39-7.19,4.7,3.22,8.22,5.72,11.84,8.08,4.92,3.23,9.61,7,14.93,9.37,8.65,3.86,17.71,6.77,26.61,10.08a23.481,23.481,0,0,0,13.59.85c13.46-2.97,14.87-1.56,22.66-4.3,2-.7,19.28-6.88,18.63-12.57-.32-2.82-4.93-4.4-7.5-5.32-27.41-9.82-43.85-24.39-64-27.05-6.17-.82-12.11-1.46-18.26.23-4.45,1.22-9.14,1.59-13.72,2.33.3-2.08.86-2.92,1.61-3.53a14.849,14.849,0,0,1,3.2-2.1c12.97-5.79,23.23-14.79,31.58-26.17,6.38-8.69,12.99-17.21,16.26-27.73,2.12-6.83,4.45-13.6,6.62-20.42,2.1-6.59,4.46-13.12,6.12-19.82,2.46-9.89,4.28-19.93,6.6-29.86,1.58-6.77,3.21-13.45,1.86-20.5-.78-4.08-2.43-7.11-6.38-8.11-10.58,9.33-19.62,19.27-26.82,30.96a215.948,215.948,0,0,0-24.44,57.11c-.88,3.25-1.41,6.74-4.68,9.95-.91-3.72-1.69-6.41-2.22-9.14-1.41-7.3-3.01-14.58-3.97-21.94-.86-6.54-1.75-13.24-1.27-19.77,1.26-17.39,3.65-34.7,4.84-52.1,1.08-15.85.68-31.81,1.83-47.66,1.53-21.01,2.25-41.95.73-63-1.33-18.42-1.84-36.9-2.75-55.35-.45-9.07.34-10.2,9.12-11.62,13.52-2.18,26.09-7.43,38.69-12.38,6.66-2.62,12.75-6.9,16.49-13.35,6.03-10.41,12.34-20.74,17.35-31.65,7.26-15.82,12.58-32.51,21.65-47.54,2.5-4.14,4.13-8.83,6.01-13.32a13.3,13.3,0,0,0,1.12-6.98c-.3-2.59-1.63-6.69-4.08-7.94-4.65-2.37-12.84,5.76-26.81,18.59-5.86,5.37-14.2,12.92-24.51,21.87a53.132,53.132,0,0,1,1.15-9.89c1.27-7.08,2.74-14.13,1.1-21.37-.91-4.04-1.63-6.98-3.69-7.96-3.44-1.63-10.99,2.08-28.96,25.19l-1.49-.27c0-3.71-.02-7.42,0-11.13.08-14.89.44-29.78.08-44.66-.11-4.44-1.89-8.94-3.49-13.2-.97-2.57-2.95-4.89-6.73-4.23-3.68,5.35-7.65,10.7-11.16,16.34-3.46,5.56-6.46,11.41-9.77,17.33a536.312,536.312,0,0,0-1.17-74.34c-2.06-24.41-3.89-48.84-5.94-74.8,15.87,9.8,27.85,22.47,42.44,31.5,1.4.87,2.21,2.68,3.23,3.96,8.28-.04,10.97-2.51,11.12-10.03.11-5.1.28-10.21.34-15.31a28.181,28.181,0,0,0-.29-6.1,60.571,60.571,0,0,0-11.47-25.62c-8.3-10.7-17.07-20.43-29.82-25.86-2.46-1.05-4.6-2.84-7.7-4.81,3.56-2.74,5.94-5.12,8.78-6.64a44.116,44.116,0,0,0,18.3-18.13,183.56,183.56,0,0,0,11.63-25.88c5.75-16.18,10.09-32.88,16.26-48.89a148.306,148.306,0,0,0,8.23-33.48c1.42-10.3,2.51-19.29-2.59-23.36a9.663,9.663,0,0,0-4.94-1.96c-11.96-1.52-25.73,18.79-30.93,26.41-10,14.64-23.69,34.2-43.19,60.85-.75-3.09-1.28-5.28-1.8-7.48-5.25-22.16-8.07-33.19-10.58-40.02-4.81-13.05-6.45-10.84-12.47-26.01-4.57-11.52-3.84-13.35-8.43-27.96-1.93-6.15-16.41-51.5-16.42-62.14a17.51,17.51,0,0,1,1.37-6.82,10.42,10.42,0,0,1,3.34-4.75,25.938,25.938,0,0,0,4.58-6.09c7.53-11.97,13.13-24.92,17.96-38.11a86.873,86.873,0,0,0,4.89-22.47c1.07-13,1.35-26.09,1.29-39.14-.11-22.78,2.24-30.71-1.27-45.32-1.91-7.97-3.63-15.12-7.41-15.72-2.26-.36-7.73,1.2-25.11,43.09-8.6,20.72-14.59,38.02-18.34,49.5-.57-2.42-.84-3.34-1.01-4.29-2.13-11.6-4.4-23.08-9.18-34.05-7.78-17.86-14.6-36.14-22.31-54.03a115.4,115.4,0,0,0-10.69-18.55c-2.46-3.64-6.31-6.59-11.12-5.37-5.03,1.27-5.84,6.11-6.66,10.38-1.44,7.56-2.5,15.18-3.83,22.76-2.69,15.32-2.3,30.71-.37,46.01,2.53,20.11,13.22,33.81,16.54,38.59,10.25,14.8,28.42,32.53,33.6,43.56.67,1.42,2.15,4.93,4.88,10.21,2.78,5.39,4.33,7.74,3.99,7.99-.69.52-8.27-8.46-11.98-12.87-12.46-14.8-12.65-16.54-17.19-20.78-5.02-4.69-10.86-8.86-24.09-13.15-13.4-4.35-26.47-9.68-39.73-14.46-5.51-1.99-11.04-4.21-16.76-5.26-6.45-1.18-9.75,3.42-7.04,9.32a150.405,150.405,0,0,0,9.2,17.74c5.82,9.19,12.94,17.16,23.13,21.93a66.623,66.623,0,0,1,11.94,6.99c12.96,9.83,27.64,16.63,41.84,24.28a13.684,13.684,0,0,0,4.24,1.63,23.573,23.573,0,0,1,2.23.78c2.57,1.02,21.39,3.47,29.11,7.37,4.76,2.4,7.46,7.81,12.87,18.64,6.33,12.67,8.07,25.13,11.75,50.01a18.051,18.051,0,0,1,.07,5.03,19.836,19.836,0,0,1-2.63,7.38c-10.28,17.72-13.07,37.15-11.52,57.22.62,8.08.61,16.34,4.04,24.1,5.17,11.71,9.05,24.08,19.48,32.67,1.58,1.3,2.5,3.39,3.73,5.11a11.692,11.692,0,0,1-6.04-2.11c-6.37-3.82-12.56-8-19.15-11.4-11.16-5.76-22.59-10.98-33.86-16.53-5.98-2.94-12.03-5.8-17.73-9.22-9.63-5.78-21.13,2.57-21.16,13.93-.02,10.15,3.81,18.61,9.84,26.07,14.04,17.38,30.86,31.22,51.9,39.64,14.28,5.72,28.75,9.11,44.21,7.34a78.47,78.47,0,0,1,9.07-.05c7.18,15.82,23.37,191.73,19.65,212.87-3.72-9.78-7.16-19.68-11.21-29.32-12.1-28.83-18.19-34.02-21.52-36.24-2.04-1.36-7.07-4.62-10.71-2.79-1.91.96-2.73,2.97-3.28,4.51-3.5,9.76-3.36,19.89-3.36,25.72,0,7.62-.13,2.75-.28,14.69-.17,14.08-.11,28.16-.25,42.24-.03,3.22-.56,6.43-.89,9.92-6.17-.44-11.49-.88-16.83-1.2-11.66-.7-19.12-1.23-26.06-1.38-20-.44-30.01-.66-40.05,3.59-10.02,4.24-23.32,13.69-21.75,20.42,1.6,6.87,16.9,3.1,42.61,15.53,9.52,4.6,15.84,8.56,25.3,15.06a242.58,242.58,0,0,1,44.15,39.14c-2.27,1.46-3.54,2.28-4.81,3.1-9.26,5.94-18.59,11.79-27.77,17.86a67.488,67.488,0,0,0-27.48,34.95c-7.21,20.47-7.69,41.75-9.6,62.9a11.3,11.3,0,0,0,.01,1.54c.37,7.32,3.61,10.14,10.95,9.16a16.908,16.908,0,0,0,6.52-2.11c15.21-9.39,31.21-17.71,42.67-32.16a34.372,34.372,0,0,1,8.74-7.49c16.26-10.14,25.94-25.06,32.11-42.77,2.86-8.2,6.2-16.23,9.43-24.3.92-2.29,2.24-4.42,3.37-6.63,2.12,6.14,2.63,12.15,3.38,18.12a415.97,415.97,0,0,1,2.76,69.11c-1.18,28.43-3.77,56.8-5.85,85.18-.15,2.03-1.02,3.88-1.84,6.53-6.05,19.67-13.19,27.86-26.03,54.55-.83,1.73-2.1,4.39-3.6,7.67-6.76-8.12-13.05-15.51-19.14-23.06-2.71-3.36-5.7-6.74-7.4-10.62-3.98-9.12-7.37-18.5-10.78-27.86-2.74-7.52-6.9-13.8-14.26-17.37-5.85-2.83-10.85-.68-12.75,5.47a27.353,27.353,0,0,0-.85,7.58c-.08,5.12.27,10.25.09,15.37-.46,13.32-.99,26.64-1.71,39.95-1.43,26.37,7.36,49.4,22.68,70.33,3.98,5.45,8.64,10.13,14.86,13.09,1.67.79,3.1,2.08,5.53,3.76a42.839,42.839,0,0,1-4.29-.02c-17.75-2.37-34.66-.54-50.55,8.61-16.18,9.32-31.74,19.12-39.9,36.96-3.19,6.98-6.55,13.89-5.52,22.05,1,7.94,6.94,12.94,14.86,11.45a29.762,29.762,0,0,0,9.34-3.36c5.75-3.56,16.61-4.58,38.16-6.39,23.77-2,29.22-1.03,40.72-5.1,5.5-1.95,10.02-3.6,14.66-7.68,5.45-4.79,7.06-8.74,13.93-16.37,2.21-2.46,5.01-4.39,8.21-7.14,0,8.11.22,14.77-.04,21.42-1.12,28.45-2.41,56.9-3.57,85.35-.53,13.06-4.07,25.01-11.71,35.82-7.28,10.29-14.04,21.07-16.4,33.67-2.17,11.58-3.66,23.31-4.85,35.04-1.32,13.01-1.95,26.08-2.92,39.12-.54,7.17-1.16,14.34-1.86,22.85-1.08-3.3-1.71-5.23-2.33-7.16-6.47-20.28-12.01-40.9-22.62-59.62-3.42-6.02-6.49-12.24-9.56-18.45a107.47,107.47,0,0,0-16.32-24.12c-3.81-4.27-7.91-5.19-12.87-4.72a62.93,62.93,0,0,0-7.56,1.64c0,4.98.18,9.54-.03,14.08-.91,19.46-2.26,38.91-2.8,58.38-.4,14.4-.44,29.26,8.67,41.43,7.32,9.79,15.66,18.9,25.79,26.15,6.5,4.65,12.65,9.79,19.88,15.42-20.15-2.09-36.44,5.79-53.58,11.49-1.29-2.23-2.62-5.31-4.65-7.83-2.54-3.14-5.21-6.59-8.61-8.51-8.24-4.67-16.85-8.72-26.56-9.69-3.19-.32-6.3-1.47-9.75-2.31.45-1.79.45-2.89.96-3.66,8.54-12.89,9.78-27.24,8.78-42.15-1.19-17.65-2.05-35.33-3.26-52.98a99.645,99.645,0,0,0-2.22-15.97c-2.06-8.7-4.19-9.65-13.14-7.15a3.432,3.432,0,0,1-1.21-.09,491.2,491.2,0,0,0-12.53-58.52c-12.98-46.57-30.67-83.43-28.57-84.39.6-.27,2.19,2.66,11.98,17.31,12.01,17.96,13.98,20.06,16.05,21.96,9.75,8.94,19.52,11.09,25.76,12.98,9.86,2.99,16.24.22,20.54-8.89.44-.93.85-1.87,1.34-2.78,2.13-3.94,1.3-7.47-1.62-10.57-4.56-4.85-9.26-9.56-13.81-14.42-4.37-4.67-8.53-9.52-12.93-14.16-4.03-4.26-8.11-8.49-12.43-12.45-6.31-5.79-14.79-6.79-22.45-9.57-3.33-1.21-8.01-1.52-9.61-3.9-1.54-2.29.09-6.72.32-10.21.05-.77.08-1.54.12-2.31a199.134,199.134,0,0,0-5.99-59.36c-2.84-11.17-5.81-22.31-9.02-33.38-1.92-6.61-4.16-13.15-6.7-19.54-3.69-9.27-8.4-17.7-19.51-19.96-1.36-.28-2.87-2.11-3.44-3.56a66.646,66.646,0,0,1-2.39-8.9c-4.72-19.66-9.54-39.31-14.06-59.02-1.54-6.69-2.38-13.55-3.38-20.36-.51-3.5.47-5.99,3.91-8.27,7.46-4.94,14.46-10.61,21.45-16.23a100.192,100.192,0,0,0,9.42-9.02c9.06-9.46,11.45-22.19,15.8-33.81a126.542,126.542,0,0,0,7.86-31.88c.63-6.38,2.44-13.92-.08-22.83-1.14-4.01-2.65-9.38-6.47-10.55-5.35-1.65-11.98,5.93-17.33,12.04-5.37,6.13-4.66,7.16-14.61,21.67-6.95,10.14-14.08,20.16-20.95,30.36-2.58,3.84-4.64,8.03-7.47,13.02-11.51-38.06-17.42-76.06-25.53-113.55-3.13-14.48-4.46-29.34-6.59-44.04-.03-.21.18-.47.31-.68a2.317,2.317,0,0,1,.47-.6,10.239,10.239,0,0,1,1.2-.68c1.87,1.13,4.12,2.27,6.14,3.74,10.67,7.75,13.64,10.89,17.85,13.27,11,6.23,31.65,2.13,38.11-10.01,4.79-8.99.75-20.44-.52-24.06a38.414,38.414,0,0,0-6.19-11.45c-11.77-14.59-30.09-11.26-66.86-26.25-1.45-.59-2.62-1.09-3.34-1.39,3.18-4.15,5.45-8.34,8.81-11.28,11.21-9.81,17.16-22.6,19.7-36.63,4.38-24.19,11.3-47.89,13.57-72.51.98-10.67.98-20.92-3.04-31.01-2.51-6.3-6.26-7.36-10.64-2.35-14.83,16.96-26.81,35.61-33.5,57.35-1.26,4.09-2.96,8.03-4.86,13.13a35.331,35.331,0,0,1-1.89-3.91c-.58-1.97-1.08-3.96-1.47-5.97-5.36-27.86-14.41-54.52-26.11-80.31-3.02-6.67-2.99-7.78,3.47-11.82a83.492,83.492,0,0,0,20.37-18.5,61.329,61.329,0,0,0,13.87-31.17,23.662,23.662,0,0,0-1.38-10.44c-.59-1.69-3.6-4.01-4.98-3.69-5.13,1.16-10.75,2.32-14.84,5.32-4.6,3.38-7.81,8.69-11.51,13.25-2.71,3.34-5.24,6.83-7.86,10.25-.7-5.51.1-10.34-.18-15.1-.93-15.61-2.33-31.19-3.4-46.79-.75-10.99-1.01-22.01-1.96-32.97-1.36-15.57-3.11-31.1-4.83-46.64a34.849,34.849,0,0,0-1.97-7.43c-1.23-3.55-3.5-6.16-8.08-7.49-1.24,2.81-2.58,5.47-3.61,8.24-4.38,11.78-7.97,23.92-13.13,35.34a166.373,166.373,0,0,0-14.62,68.68c-.02,5.32,1.12,10.69,2.15,15.96,2.26,11.62,9.36,20.97,14.99,30.99,3.95,7.03,7.44,14.13,6.35,23.49-5.74-4.2-10.56-7.74-14.15-12.99-5.08-7.43-10.89-14.1-20.09-17a115.06,115.06,0,0,1-17.73-7.32c-4.13-2.11-8.14-2.45-12.6-2.25q-19.95.9-39.93,1.15c-3.1.04-5.28,1.32-6.04,3.67a7.7,7.7,0,0,0,1.16,6.15c8.91,11.29,18.33,22.08,29.79,31.01a63.163,63.163,0,0,1,12.59,13.27c6.13,8.67,14.59,14.25,23.32,19.64a8.942,8.942,0,0,0,4.4,1.18c8.2.13,16.5.62,24.16-3.21,4.06-2.03,8.02-4.28,12.63-6.76-.48,5.37-.78,10.4-1.42,15.38-1.41,10.93-3.57,21.8-4.34,32.77-.78,11.1.34,22.07,8.81,30.8,4.98,5.13,10.79,4.66,14.43-1.57a33.964,33.964,0,0,0,2.06-4.97c4.9-12.49,4.96-25.57,4.82-38.7-.04-3.88.41-7.77.64-11.65l2.06-.21c.75,2.59,1.58,5.15,2.23,7.76,3.5,14.18,6.89,28.39,10.44,42.55,1.93,7.7,4.2,15.32,6.11,23.02,1.73,6.97,3.14,14.01,4.78,21a42.121,42.121,0,0,1,.73,15.96,255.377,255.377,0,0,0-2.04,27.53c-.21,6.16.14,6.16-5.71,8.02-12.49,3.97-24.57,8.48-35.24,16.64-17.83,13.63-25.36,32.2-27.87,53.58-.9,7.62-1.08,15.44-2.99,22.82a119.673,119.673,0,0,0-3.87,35.79,32.622,32.622,0,0,0,2.09,9.69c1.94,5.24,5.17,7.08,10.18,4.81,4.02-1.82,8.34-4.66,10.67-8.25,8.91-13.71,17.07-27.92,25.52-41.93a55.811,55.811,0,0,1,3.33-5.1c2.77-3.67,5.68-7.24,8.49-10.88,4.21-5.45,8.44-10.9,12.58-16.41,2.9-3.87,5.77-7.79,8.46-11.81,3.07-4.58,5.93-9.29,9.89-15.52,1.87,6.93,3.57,11.95,4.55,17.12q5.775,30.585,11.13,61.25c4.39,25.25,8.57,50.54,12.83,75.81.09.51.16,1.01.24,1.52,1.65,11.67,3.33,23.33,4.94,35.01.42,3.06.65,6.15,1.01,9.65-1.3-.47-1.62-.48-1.75-.65a20.059,20.059,0,0,1-1.76-2.46c-6.7-12.01-16.43-19.97-29.92-23.51-7.15-1.88-14.09-4.6-21.05-7.15-11.22-4.12-22.65-6.49-34.62-4.54-6.56,1.06-13.1,2.31-19.62,3.59-5.47,1.07-7.33,4.11-5.67,9.42a43.743,43.743,0,0,0,3.31,7.75c3.31,6.07,7.26,11.82,10.12,18.09,4.36,9.52,11.31,15.27,21.2,18.63,16.35,5.55,33.08,6.55,50.06,5.94,6.33-.23,12.64-.64,18.91,2.07a20.539,20.539,0,0,1-1.6,2.1c-11.19,10.87-22.79,21.37-33.5,32.7-9.53,10.09-15.75,22.33-16.25,36.48-.31,8.68.89,17.41,1.42,26.11.18,2.94,1.05,5.45,4.76,7,3.25-3.05,6.51-6.23,9.89-9.27a78.593,78.593,0,0,1,8.24-6.81c16.58-11.26,29.97-25.58,40.98-42.24,2.85-4.31,5.94-8.46,9.3-13.23a18.045,18.045,0,0,1,1.58,3.13c2.16,11.59,4.13,23.22,6.43,34.78,1.9,9.53,3.75,16.41,4.92,20.92,4.68,18.08,7.01,27.12,7.33,29.85,0,0,2.14,18.45-3.7,30.81-.05.11-.16.35-.33.7a50.63,50.63,0,0,0-3.59,33.8c3.66,15.79,9.59,30.82,20.14,43.58,1.85,2.23,3.44,4.68,5.14,7.02-.41.46-.81.93-1.22,1.39-7.41-4.37-14.83-8.72-22.23-13.11-2.86-1.7-5.52-3.78-8.51-5.19-12.14-5.71-23.01-1.65-28.79,10.26-2.21,4.54-1.87,8.22,1.73,11.85s7.47,7.2,10.23,11.44a15.734,15.734,0,0,0,13.42,7.61c8.97.38,17.95.48,26.93.75,2.94.09,5.88.34,8.82.51a71.472,71.472,0,0,0-22.15,36.68c-3.04,12-3.38,23.23,1.37,34.54,5.85,13.91,12.29,27.59,17.7,41.67a21.867,21.867,0,0,0,4.86,7.72c.79.8,8.72,9.25,15.82,7.14,4.15-1.23,6.03-5.48,8.6-11.31,3.99-9.02,1.91-11.86,6.33-23.52,1.85-4.89,1.88-4.26,3.84-9.5,3.66-9.81,3.6-12.15,4.59-12.25,2.74-.28,7.73,24.44,15.53,60.75,3.16,14.72,5.88,27.11,7.96,44.49,1.34,11.22,3.16,16.96,1.79,24.15-1.82,9.59-2.8,19.29-1.6,29.1.53,4.33.81,8.7.94,13.06.27,9.19.01,18.34-3.84,27.16-1.02-.37-1.9-.43-2.37-.89-8.95-8.74-20.25-12.58-31.89-16.16-10.76-3.31-21.7-6.73-31.63-11.89a214.922,214.922,0,0,0-35.48-14.43c-6.15-1.92-11.91-1.89-17.59.87.26,6.09.28,6.07,4,9.39,1.34,1.19,2.54,2.55,3.86,3.77,14.14,13.02,28.12,26.24,42.54,38.95,6.18,5.44,13.57,9.4,22.1,9.89,8.19.46,16.43.05,24.6.66,9.47.7,18.21,3.08,22.62,13.04a40.053,40.053,0,0,0,5.5,8.33c6.64,8.38,13.43,16.65,20.31,25.13-2.48,1.87-18.17,13.84-23.54,24.66-2.43,4.89-2.07,8.17-1.9,9.21.39,2.49,1.73,4.84,4.14,7.66,3.57,4.17,8.18,3.3,12.89,2.85.68,1.61,1.62,2.96,1.78,4.39.87,7.89,1.93,15.78,2.22,23.7.61,16.91,1.05,33.82,1.07,50.74.07,42.78.11,64.17.57,73.22.22,4.27-.2,16.29-.15,32.35.01,2.73-.44,5.46-.75,9.11a23.789,23.789,0,0,1-2.9-2.56c-6.94-9.22-13.91-18.39-18.74-29-4.14-9.09-8.56-18.07-13.04-27-5.52-11-10.81-22.14-17.05-32.72-2.47-4.19-6.84-7.64-11.04-10.35-5.29-3.4-11.63,0-12.66,6.23-.33,1.96.13,4.07.28,6.1.72,9.97,1.92,19.93,2.09,29.91.34,19.7-1.36,39.43,4.06,58.88,2.72,9.78,7.05,18.03,14.66,24.63,3.87,3.36,7.52,7.02,11.63,10.06,4.04,2.98,8.54,5.34,12.88,8a116.106,116.106,0,0,0-18.8,26.83c-15.69,31.08-10.22,55.9-7.05,60.68a14.659,14.659,0,0,0,5.07,4.61c4.18,2.17,7.72,1.29,10.47-1.68,3.8-4.1,7.59-8.43,10.31-13.26,10.97-19.49,19.74-39.86,22.74-62.39a70.364,70.364,0,0,1,.42,10.02c-.46,29.49-1.73,58.99-1.15,88.46.46,23.56,3.06,47.08,4.92,70.6,1.11,14.06,2.7,28.08,3.96,42.13.78,8.68,1.37,17.38,1.99,26.07.22,3.13.16,6.8,4.22,7.04a5.7,5.7,0,0,0,2.41-.46c8.02-3.49,11.54-23.51,11.54-23.51.67-3.8,2.17-9.12,1.35-15.72-1.11-8.89-2.31-17.8-2.69-26.73-.97-22.81-1.46-45.64-2.22-68.46-.21-6.14-.99-12.27-1.03-18.41-.12-18.71-.01-37.42.01-56.13.01-6.8,0-13.6,0-21.39,2.53,1.21,3.94,1.72,5.17,2.5,11.7,7.52,25.47,9.2,38.33,13.37,2.91.94,6.57-.18,9.84-.65,3.09-.45,4.67-2.53,5.72-5.51,1.95-5.56-.28-10.17-2.98-14.54-4.99-8.08-9.9-16.25-15.61-23.81-7.3-9.68-16.71-16.56-29.18-18.38-3.18-.46-6.28-1.46-8.94-2.09.52-23.83,1.01-46.73,1.55-71.67,4.24,4.39,7.26,7.38,10.13,10.5,12.85,13.98,25.48,28.16,38.53,41.93,9.92,10.47,19.4,21.2,25.42,34.44a33.287,33.287,0,0,1,2.73,11.74c.54,9.93.45,19.9.72,29.85.13,4.86.66,9.71.75,14.57.33,19.29-1.86,38.4-4.35,57.48-1.26,9.66-2.31,19.36-3.94,28.96-3.41,19.95-7.73,39.76-10.56,59.79-2.25,15.96-2.91,32.16-4.09,48.26-.11,1.45.76,3.7,1.88,4.31a5.381,5.381,0,0,0,4.86-.34,29.322,29.322,0,0,0,6.23-6.73c3.43-5.11,5.94-10.93,9.86-15.59,4.88-5.8,6.93-12.58,8.57-19.5,2.06-8.71,3.32-17.62,4.77-26.47,1.66-10.12,2.92-20.31,4.78-30.4,3.63-19.71,6.78-39.45,7.13-59.54.08-4.48.47-8.95.78-14.65,6.68,5.63,7.13,13.67,11.87,18.58a6.244,6.244,0,0,0,6.79-4.53,48.755,48.755,0,0,0,2.62-10.31c.96-8.66.84-17.49,2.38-26.03,2.67-14.81-.34-27.94-9.31-39.85-2.56-3.4-5.17-6.75-8.23-10.74,6.57-2.91,12.62-5.4,18.49-8.23,5.51-2.65,11.26-5.1,16.17-8.64a100.28,100.28,0,0,0,26.38-27.69c3.15-4.98,6.24-10.02,9.64-14.82a105.824,105.824,0,0,0,15.19-30.93c4.21-14,9.02-27.82,13.6-41.72a67.289,67.289,0,0,0,3.27-29.29C1576.35,2099.2,1576.08,2094.76,1573.77,2089.88Zm-2.08-487.97a136.423,136.423,0,0,1,46.89,18.26,39.2,39.2,0,0,1,4.32,3.2,8.939,8.939,0,0,1,1.34,1.75c-.23.55-.33,1.32-.61,1.39-8.88,2.32-17.69,5.21-26.72,6.57-4.51.68-9.57-1.03-14.14-2.45-5.85-1.82-11.42-4.49-17.16-6.68-9.97-3.81-17.44-11.1-25.6-18.02C1550.78,1604.58,1560.52,1599.87,1571.69,1601.91Zm-235.58,57.6c5.46,7.33,12.58,13.42,18.85,20.17a94.653,94.653,0,0,1,7.83,9.38c2.32,3.25,1.48,5.97-2.3,7.06a16,16,0,0,1-8.24.47c-8.38-2.31-16.36-5.38-23.1-11.46-9.87-8.91-17.17-19.22-21.4-31.9-1.5-4.49-4.45-8.49-7.16-13.49C1315.05,1642.43,1327.19,1647.54,1336.11,1659.51ZM1092.42,952.08a12.44,12.44,0,0,1-1.5.3c-18.45,4.37-30.42-.48-42.55-17.55a61.071,61.071,0,0,0-15.01-15.16c-3.94-2.74-7.17-6.52-10.68-9.88-1.61-1.54-3.1-3.2-4.64-4.8.2-.31.39-.62.59-.94,1.39.37,3.15.31,4.11,1.16,7.84,7.01,18.04,9.48,27.04,14.22a108.752,108.752,0,0,0,29.76,11.73c7.49,1.81,14.92,3.59,21.34,8.14,1.44,1.02,2.93,1.97,4.65,3.13A29.528,29.528,0,0,1,1092.42,952.08Zm-10.65-24.65c-7.16-1.3-13.99-4.68-20.83-7.45-5.45-2.21-10.8-4.72-16.03-7.43-9.26-4.8-18.39-9.84-27.58-14.78.11-.52.22-1.03.34-1.55,1.57-.21,3.13-.53,4.7-.61,3.33-.17,6.75.22,9.98-.4,18.02-3.48,33.19,4.03,47.93,12.55,4.06,2.35,7.07,6.55,10.45,10.02,5.15,5.29,10.19,10.67,15.28,16.02.68.72,1.32,1.47,1.97,2.21C1099.69,931.03,1090.94,929.09,1081.77,927.43Zm190.49,589.93c2.62,7.34,5.69,14.56,7.78,22.04,6.63,23.74,10.89,47.87,10.14,72.66-.18,6.12-.9,12.11-4.26,18.15-5.13-8.32-7.6-16.76-9.53-25.78-3.48-16.24-2.67-32.54-3.08-48.87-.25-9.95-1.35-19.88-2.04-29.82-.19-2.68-.26-5.37-.39-8.06C1271.33,1517.57,1271.79,1517.47,1272.26,1517.36Zm12.93-245.43c.4,3.13,1.31,6.29,1.1,9.37-.82,11.76-2.05,23.45-6.57,34.57-2.11,5.2-3.17,10.81-4.88,16.19-4.01,12.61-10.8,23.14-22.54,30.02-3.23,1.89-6.2,4.24-9.29,6.38-.47-.29-.95-.59-1.42-.88.21-1.13.07-2.52.68-3.36,9.4-12.96,15.86-27.44,21.84-42.17,1.15-2.85,2.54-5.6,3.61-8.48,2.03-5.47,3.88-11.01,5.85-16.51.95-2.65,1.99-5.26,2.99-7.89,1.82-4.75,3.61-9.52,5.47-14.25A5.235,5.235,0,0,1,1285.19,1271.93Zm-53.09,97.8q.84-13.785,1.78-27.57c.49-7.25,4.6-13.07,8.26-18.82,10.56-16.58,21.61-32.84,32.5-49.21a26.452,26.452,0,0,1,2.45-2.76c.63.3,1.27.61,1.9.91-10.86,35.65-28.53,68.26-46.5,102.55A49.491,49.491,0,0,1,1232.1,1369.73Zm-15.16-232.77c12.01,3.6,15.74,5.5,17.9,6.93a41.509,41.509,0,0,1,16.77,21.72c.6,1.88,4.64,14.63.89,16.87-4.47,2.67-15.57-12.17-37.65-30.44a282.042,282.042,0,0,0-29.6-21.43C1196.55,1130.2,1206.71,1133.89,1216.94,1136.96ZM1215.53,993c-.43,15.46-3.34,30.53-6.8,45.54-2.3,9.98-4.1,20.09-6.56,30.03-3.43,13.83-8.21,27.02-20.31,36-.58.43-1.26.73-3.27,1.86,1.57-5.45,2.25-10.02,4.15-14,6.19-12.96,10.6-26.32,12.07-40.7.59-5.83,2.22-11.56,3.54-17.3,2.13-9.22,4.07-18.51,6.7-27.59,2.05-7.04,5.04-13.8,7.94-21.57C1216.14,988.13,1215.6,990.63,1215.53,993Zm-75.52-81.48c4.47-7.47,9.36-14.69,14.39-21.79,4-5.65,9.43-9.12,17.8-9.35-.4,3.75-.36,7-1.13,10.05-3.39,13.29-12.53,22.62-22.25,31.47-1.69,1.54-4.08,2.43-5.48,4.17-3.31,4.1-7.65,4.57-13.2,4.6C1133.58,923.92,1136.43,917.5,1140.01,911.52Zm-18.5-97.45c.81-6.06.59-12.27.76-18.41.09-3.55.02-7.1.02-10.66.62-.07,1.23-.15,1.85-.22.42,2.57,1.05,5.12,1.24,7.7q2.25,31.455,4.33,62.92c.71,10.99,1.52,21.99,1.58,32.99.03,5.3-1.39,10.64-2.54,15.88-.45,2.07-1.93,3.91-3.59,7.12-.98-2.57-1.64-3.65-1.8-4.81-1.11-8.1-2.4-16.19-3.05-24.33-.55-6.86-.07-13.79-.45-20.66A249.191,249.191,0,0,1,1121.51,814.07Zm-18.74,63.29c-5.71-14.9-4.54-30.31-1.55-45.51,3.51-17.8,7.64-35.48,11.66-53.17.82-3.62,1.25-7.65,5.76-10.74a25.667,25.667,0,0,1,.53,3.95q-1.17,23.79-2.43,47.57c-.48,8.94-1.76,17.91-1.46,26.82.65,19.47,2.08,38.92,3.17,58.37a4.691,4.691,0,0,1-1.02,3.41c-1.38-2.56-2.88-5.07-4.12-7.7C1109.71,892.73,1105.78,885.22,1102.77,877.36Zm22.68,128.52c-.24,6.64-2.33,12.95-6.06,19.46-6.85-3.17-9.41-8.34-9.84-14.43-.52-7.28-.93-14.3,1.53-21.84,2.88-8.81,2.67-18.64,3.72-28.04.23-2.03-.23-4.2.32-6.1a6.145,6.145,0,0,1,3.02-3.67,3.327,3.327,0,0,1,4.65,2.7c1.12,6.02,2.55,12.07,2.77,18.15C1125.96,983.35,1125.85,994.63,1125.45,1005.88Zm16.72-28.23c-5.97-12.88-8.34-20.06-13.06-34.4-2.39-7.23-2.38-7.92-2.22-7.99,1.01-.43,12.71,21.66,21.66,47.23,4.14,11.84,3.17,7.9,8.58,28.64,3.42,13.12,6.23,26.4,9.61,39.54.95,3.69.92,6.83-1.49,10.59C1154.31,1010.31,1147.02,988.1,1142.17,977.65Zm-48.82,266.69a12.018,12.018,0,0,1-1.36,2.54c-2.98-9-2.01-17.77.64-25.96,3.3-10.18,3.92-20.55,4.91-30.98a74.079,74.079,0,0,1,8.26-28.58c6.47-12,16.7-19.83,28.7-25.48,5.3-2.49,10.98-4.19,16.55-6.07,1.25-.42,2.75-.06,4.47.52-9.02,6.92-15.25,15.97-21.35,25.03-4.41,6.54-8.04,13.62-11.76,20.59-3.48,6.54-6.61,13.27-9.9,19.91C1104.79,1211.5,1097.89,1227.45,1093.35,1244.34Zm72.74-101.54c-2.43,11.2-7.77,21.14-14.25,30.35-6.62,9.4-14.43,17.97-20.94,27.44-6.06,8.83-10.91,18.49-16.63,27.57-5.18,8.22-10.8,16.17-16.29,24.19-.47.69-1.43,1.06-3.41,2.46,5.61-15.47,10.45-29.6,15.87-43.5a193.4,193.4,0,0,1,11.21-24.23c5.94-10.61,10.49-22.22,19.21-31.05,7.26-7.34,15.02-14.19,22.54-21.23C1167.33,1137.28,1166.69,1140.05,1166.09,1142.8Zm4.49-29.38a12.447,12.447,0,0,1-1.65,2.21,18.666,18.666,0,0,1-2.91-11.83c.94-15.69,4.51-30.84,9.03-45.86,3.38-11.24,5.68-22.8,8.97-34.08a105.584,105.584,0,0,1,7.02-17.79c8.82-18.2,21.16-32.06,22.22-31.35.38.25-.68,2.36-1.85,4.88-4.68,10.09-8.45,17.96-11.82,34.71-2.12,10.54-5.22,20.87-7.58,31.36-1.34,5.97-1.51,12.24-3.22,18.08-2.36,8.08-5.64,15.89-8.56,23.8Q1175.43,1100.495,1170.58,1113.42Zm6.95,23.4c-.57-.87-.32-2.29-.54-4.3,24.96,10.16,42.44,28.17,59.76,47.01,3.89,2.73,8.45,6.3,7.76,7.84-.96,2.14-11.91-.05-20.64-3.65-6.83-2.81-16.66-8.92-31.6-25.43C1186.49,1151.91,1182.3,1144.08,1177.53,1136.82Zm6.43,232.83c-5.37.39-10.73.85-16.11,1.03a92.568,92.568,0,0,1-38.32-6.72,26.774,26.774,0,0,1-15.12-14.6c-1.81-4.39-4.06-8.6-6.11-12.89.32-.27.65-.54.97-.81,5.12,3.67,10.22,7.37,15.38,10.98a19.986,19.986,0,0,0,5.28,3.07q17.64,5.385,35.37,10.44c6.39,1.84,12.86,3.38,19.24,5.24,1.58.46,2.95,1.68,5.88,3.43C1187.2,1369.24,1185.59,1369.53,1183.96,1369.65Zm-29.35-16.81c-17.13-3.55-32.15-11.55-45.23-23.17a11.237,11.237,0,0,1-1.36-1.9c14.06-5.32,27.77-3.1,41.28,1.16,8.78,2.77,17.37,6.13,25.98,9.43,13.37,5.12,20.62,15.86,26.6,28.77-1.58,0-2.39.25-2.91-.04C1185.13,1359.39,1169.94,1356.01,1154.61,1352.84Zm6.64,101.23c-1.65,2.83-3.23,5.7-4.84,8.55-4.99-17.29,1.6-31.08,12.48-43.08a283.026,283.026,0,0,1,24.36-23.5c4.65-4.03,9.87-7.94,18.23-8.8-2.06,3.36-3.21,5.79-4.84,7.83-12.85,15.97-25.87,31.81-38.64,47.85C1165.32,1446.29,1163.44,1450.32,1161.25,1454.07Zm51.27-45.23c-5.57,15.72-16.36,27.53-27.43,39.02-6.46,6.7-14.62,11.75-22.62,17.05,4.6-8.69,8.07-17.88,14.65-25.33,3.04-3.44,5.85-7.09,8.67-10.72,9.07-11.69,18.08-23.42,27.15-35.1.43-.55,1.19-.84,3.06-2.11A52.341,52.341,0,0,1,1212.52,1408.84Zm24.07,49.76c-3.2-13.19-6.56-28.22-20.93-103.02-1.89-9.84-2.84-14.76-3.71-19.37-9.24-48.65-32.48-175.08-30.47-175.48,1.52-.3,18.46,70.48,21.75,99.87a327.974,327.974,0,0,0,5.61,34.59c.56,2.6,1.39,6.08,3.09,13.03,5.7,23.41,7.63,30.02,10.61,43.95.55,2.56,1.03,4.93,1.47,7.1,0,0,1.21,6.09,2.3,12.29,3.65,20.84,5.87,44.28,12.4,72.26q2.88,12.33,5.74,24.66,2.4,10.425,4.29,20.96c.43,2.41.07,4.97.07,7.46-.68.07-1.36.13-2.04.2C1242.04,1480.56,1238.66,1467.15,1236.59,1458.6Zm5.86,111.36a48.509,48.509,0,0,1,3.22-35.21c5.32-10.66,7.76-22.18,10.49-33.63.61-2.55,1.66-4.99,2.51-7.49.64-.03,1.27-.07,1.91-.1,1.08,2.38,2.74,4.67,3.15,7.16,1.79,10.84,4,21.69,4.58,32.62.86,16.32-.11,32.74.8,49.06.58,10.38,3.13,20.66,4.9,30.96.42,2.43,1.25,4.78,1.89,7.17-.89.57-1.78,1.15-2.67,1.72a62.279,62.279,0,0,0-4.9-6.73A106.423,106.423,0,0,1,1242.45,1569.96Zm8.42,65.01c-8.68-.2-17.37-.26-26.03-.83a11.594,11.594,0,0,1-6.6-3.12c-3.33-3.14-6.01-6.97-9.19-10.28-1.98-2.06-2.83-4.08-1.97-6.9.91-2.99,3.29-3.74,5.85-4.25,5.07-1.01,9.73.46,14.02,2.92,9.09,5.21,18.07,10.59,27.08,15.94,2.38,1.42,4.69,2.96,7.03,4.44-.16.7-.32,1.39-.48,2.09C1257.35,1634.98,1254.11,1635.04,1250.87,1634.97Zm12.68,119.99c-1.55-3.22-2.75-6.6-4.16-9.88-2.73-6.34-5.09-12.87-8.36-18.92a66.247,66.247,0,0,1-8.38-31.52c-.17-19.23,14.56-40.92,32.51-47.1a49.711,49.711,0,0,1,5.26-1.02c-1.62,5.35-3.26,9.37-4.03,13.55-1.95,10.55-3.91,21.12-5.14,31.76-1.52,13.19-6.23,25.95-5.28,39.47.43,6.12.63,12.26.95,18.38.13,2.49.3,4.99.55,9.09C1265.37,1756.77,1264.08,1756.05,1263.55,1754.96Zm30.13-43.47c-5.84,16.1-10.68,32.56-15.97,48.86a15.339,15.339,0,0,1-1.44,2.45c-4.88-.96-5.12-4.46-5.32-7.73-1.08-16.82-1.58-33.5,2.71-50.16,3.76-14.59,6.1-29.54,9.1-44.32a5.5,5.5,0,0,1,2.64-3.58c.81,2.75,1.7,5.47,2.4,8.25,2.08,8.18,3.77,16.48,6.2,24.56C1296.22,1697.2,1296.4,1703.99,1293.68,1711.49Zm-3.01,214.89c-13.52-1.73-27.32-3.24-37.49-14.4-4.46-4.89-9.94-8.83-14.72-13.45a113.553,113.553,0,0,1-14.77-16.96q8.7,3.555,17.4,7.1c14.67,5.95,29.2,12.3,44.08,17.69,9.47,3.43,18.93,6.47,26.07,14,1.64,1.73,2.98,3.76,4.89,6.2C1306.81,1926.56,1298.62,1927.4,1290.67,1926.38Zm250.5,199.31c4.73-5.33,8.8-11.25,14.27-18.31-14.79,42.83-29.52,83.66-56.95,119.43,2.34-10.01,5.4-18.97,6.4-28.15C1508.01,2169.74,1522.45,2146.75,1541.17,2125.69Zm2.5-119.99a17.95,17.95,0,0,1-13.47-3.7c-18.43-14.23-35.52-29.97-52.14-46.24-.49-.48-.64-1.31-1.35-2.83,1.93.32,3.34.24,4.45.78,8.73,4.2,15.14,11.31,21.65,18.11,7.71,8.06,16.98,13.86,26.07,20.03,5.42,3.68,10.41,7.99,15.59,12.02C1544.21,2004.47,1543.94,2005.09,1543.67,2005.7Zm-54.5,6.14c1.95,20.25-.09,40.37-1.91,60.5-.41,4.57-.63,9.15-1.15,13.71-1.88,16.31-2.06,28.14-2.32,32.04-1.47,22.44-3.91,42.63-6.97,68.03,0,0-3.61,21.19-8.4,44.52-1.02,4.94-3.08,9.67-4.93,14.42,9.14-87.97,17.13-175.99,21.76-264.55,3.66.49,4.9,2.32,4.82,5.28-.18,6.64-.34,13.28-.55,19.92C1489.46,2007.75,1488.97,2009.82,1489.17,2011.84Zm15.8-59.67c13.42,5.12,24.33,13.79,33.83,24.45,6.56,7.37,12.1,15.22,14.09,25.11a10.554,10.554,0,0,1,.14,2.25c0,.2-.3.4-1.02,1.29-1.67-1.31-3.42-2.57-5.05-3.97-5.18-4.45-10.09-9.24-15.52-13.35-5.91-4.46-12.62-7.87-18.36-12.51-5.5-4.45-10.15-9.94-15.26-14.88-3.26-3.15-6.67-6.14-10.71-9.84C1493.99,1948.42,1499.59,1950.12,1504.97,1952.17Zm123.65-147.65c-5.82,18.58-12.67,36.79-22.26,53.81-8,14.2-19.19,25.15-34.38,31.58-6.26,2.65-12.64,4.98-18.27,7.18,1.99-3.91,4.12-8.52,6.65-12.9a51.14,51.14,0,0,1,6.55-9.31c7.55-8.16,13.84-14.13,15.12-15.18,6.45-5.27,19.57-21.39,48.93-69.5C1630.22,1794.98,1630.05,1799.95,1628.62,1804.52Zm-60.4,21.37c14.27-19.85,33.81-30.44,56.1-37.31-2.22,16.92-39.7,68.73-57.74,79.31,1.7-8.15,3.28-15.55,4.76-22.97.65-3.25,1.22-6.52,1.62-9.81C1573.42,1831.34,1572.7,1827.94,1568.22,1825.89Zm-5.6,18.66c-2.18,8.44-4.12,16.95-6.58,25.32-5.66,19.3-18.24,34.31-32,48.08-5.74,5.74-14.06,8.9-21.21,13.24-.36-.54-.71-1.09-1.07-1.63a14.936,14.936,0,0,1,2.51-2.83c11.24-7.49,17.37-19.24,24.85-29.83,4.57-6.47,8.86-13.16,12.9-19.96,5.73-9.65,11.12-19.5,16.69-29.24A6.135,6.135,0,0,1,1562.62,1844.55Zm-22.94,17.53c4.15-7.15,10.07-13.27,15.19-19.86.67.35,1.34.71,2.02,1.06a17.305,17.305,0,0,1-1.19,3.33c-8.15,13.57-16.17,27.23-24.62,40.61-5.72,9.06-11.95,17.81-18.19,26.53a42.53,42.53,0,0,1-7.34,7.71c-7.07,5.89-14.3,11.59-21.59,17.2a10.929,10.929,0,0,1-6.24,1.98,109.135,109.135,0,0,1,17.47-19.88c4.59-4,9.33-7.91,13.49-12.34C1521.56,1894.71,1530.31,1878.21,1539.68,1862.08Zm-37.8,16.31c.44,10.85-4.76,19.15-11.24,26.97-1.59,1.93-3.62,3.49-6.33,6.07,2.53-12.48,5.62-23.56,6.89-34.85,2.15-19.07,7.43-37.51,10.23-56.41,1.26-8.54,1.36-17.25,2.1-25.88a20.757,20.757,0,0,1,2.19-8.03c0,7.19.27,14.39-.05,21.57-.82,18.16-1.89,36.31-2.88,54.46C1502.5,1867.66,1501.66,1873.04,1501.88,1878.39Zm57.33-340.52c3.41-10.17,6.76-20.37,9.84-30.64,3.64-12.1,10.26-22.69,16.21-33.66,4.09-7.55,9.8-13.65,15.68-19.69a23.684,23.684,0,0,1,2.93-2.08c1.36,8.77-.93,16.47-2.76,23.95-4.37,17.87-9.17,35.66-14.56,53.25-2.75,8.97-6.78,17.54-13.25,24.82-7.84,8.84-15.53,17.74-26.12,23.44-1.69.91-3.54,1.51-5.32,2.25C1550.57,1566.56,1554.46,1552.03,1559.21,1537.87Zm83.85-389.9q-8.505,18.435-17.08,36.83c-4.85,10.42-9.42,20.98-14.68,31.19-6.32,12.28-15.71,20.34-30.36,21.7-6.45.6-12.69,3.57-19.45,5.6,9.48-9,18.61-17.6,27.65-26.31a45.965,45.965,0,0,0,6.59-7.44c6.35-9.58,12.32-19.42,18.69-28.99,3.39-5.1,7.32-9.84,10.97-14.76,4.1-5.53,8.11-11.14,12.3-16.61a79.486,79.486,0,0,1,5.53-5.95l1.17.75A38.917,38.917,0,0,1,1643.06,1147.97Zm-25.75,11.54c6.1-5.93,10.87-10.86,14.18-14.36a110.831,110.831,0,0,1,8.04-7.94c4.06-3.57,10.5-8.61,11.1-7.99.73.76-8.15,9.03-20.06,23.97-7.55,9.47-14.27,19.14-22.63,32.01-3.03,4.66-6.1,9.65-9.6,15.67-4.14,7.12-9.41,13.34-17.75,16.82,2.26-5.12,4.49-10.26,6.81-15.36.85-1.86,2.31-3.52,2.82-5.44C1595.59,1176.76,1617.31,1159.51,1617.31,1159.51Zm-21.52-17.73a94.581,94.581,0,0,1-4.7,29.42,355.183,355.183,0,0,1-19.72,48.92c-4.08,8.42-10.45,15.11-21.32,16.9,3.72-7.21,7.2-13.71,10.43-20.33,3.02-6.18,5.74-12.51,8.64-18.75,4.63-9.96,9.33-19.88,13.97-29.84C1587.19,1159.28,1591.24,1150.47,1595.79,1141.78Zm-18.47,11.94c.77-1.05,2.92-3.95,3.19-4.31,3.13-4.21,6.29-8.4,9.43-12.6.64.3,1.28.6,1.92.89-.71,2.79-1.02,5.75-2.18,8.33-4.92,10.95-10.24,21.71-15.13,32.68-3.74,8.4-6.89,17.05-10.59,25.47a139.87,139.87,0,0,1-7.97,15.68c-4.59,7.62-9.63,14.97-15.49,23.97-1.45-8.77-.82-15.83,1.46-22.37,2.76-7.91,6.75-15.4,10.25-23.05,2.71-5.91,4.18-8.81,4.95-10.36C1559.97,1182.37,1567.91,1166.55,1577.32,1153.72Zm-15.24-63.38a45.818,45.818,0,0,1,.9,6.43c-.01,20.52-.06,41.04-.27,61.55a17.4,17.4,0,0,1-1.7,7.35c-4.02,8.02-8.35,15.88-12.61,23.77a24.842,24.842,0,0,1-2.19,2.96l-2.05-.54c-.11-24.54,3.98-48.69,8.34-72.75,1.78-9.81,5.26-19.3,7.96-28.94C1561.01,1090.23,1561.55,1090.28,1562.08,1090.34Zm-27.54,66.96s3.7-32.68,15.85-55.22c.21-.4.44-.77.44-.77.49-.74,1.08-1.43,1.6-2.16.39.14.77.28,1.16.42-.4,2.4-.75,4.81-1.2,7.2-2.58,13.82-5.28,27.62-7.75,41.46-1.17,6.54-2.26,13.13-2.83,19.75-.88,10.19-1.36,20.41-1.87,30.63-.39,7.78-.29,7.78-4.37,14.47-.45-2.29-1.15-3.9-1.02-5.44,1.31-15.35,1.69-30.68-.47-45.99A22.921,22.921,0,0,1,1534.54,1157.3Zm1.12-209.68c-5.82-6.05-8.91-14.76-13.04-22.38-1.37-2.52-.72-4.9,2.42-6.76,5.26,6.57,10.05,12.81,15.14,18.8a36.076,36.076,0,0,0,7.28,6.51c8.15,5.48,17.03,18.41,19.36,29.98C1555.65,964.58,1544.69,957.02,1535.66,947.62Zm45.11,33.76c-3.68-.43-5.4-2.39-6.74-5.95a111.646,111.646,0,0,0-8.46-17.89,65.2,65.2,0,0,0-16.4-18.77c-7.76-5.96-14.4-13.7-18.12-24.31C1552.34,917.12,1587.35,949.92,1580.77,981.38Zm13.58-218.27c2.14,11.11-.36,20.03-3.26,28.69-8.12,24.29-16.43,48.52-25.11,72.62-3.96,11.02-10.03,20.7-21.02,26.47-3.34,1.76-6.05,4.7-9.09,7.04-2.36,1.82-4.8,3.54-7.84,5.78-1.75-4.68-.5-7.9,1.17-10.95,4.42-8.09,8.62-16.33,13.54-24.11,15.24-24.13,27.03-49.81,36.45-76.73,3.02-8.63,7.75-16.67,11.78-24.93C1591.48,765.94,1592.53,765.15,1594.35,763.11Zm-68.53,92.06c1.55-12.45,7.12-23.45,13.63-33.94a153.66,153.66,0,0,1,9.45-13.03q13.635-17.55,27.45-34.96c1.22-1.54,2.91-2.72,5.33-4.95-.18,2.59.03,4.07-.42,5.3-6.75,18.49-13.04,37.18-20.64,55.32-4.21,10.06-10.61,19.21-16.11,28.72-6.54,11.28-13.18,22.51-19.78,33.76-.49.83-1.04,1.61-1.56,2.42-.45-.18-.9-.37-1.35-.55C1523.13,880.55,1524.24,867.83,1525.82,855.17Zm-29.56-343.62c.66.17,1.33.33,1.99.5.24,5.29.64,10.58.7,15.88.13,11.51-.49,23.06.28,34.52.85,12.69-1.08,25.07-2.51,37.52a31.577,31.577,0,0,1-2.53,9.63c-6.01,13-12.23,25.91-18.56,38.76-1.05,2.13-3.04,3.8-5.99,5.09.08-1.17.06-2.36.18-3.52,0,0,.07-.58.18-1.16,1.49-8.35,7.33-34.57,7.33-34.57,1.55-6.97,2.88-15.41,4.4-32.39.75-8.38,1.21-16.82,2.52-25.12,1.84-11.62,4.27-23.16,6.64-34.69C1491.71,518.05,1493.05,514.2,1496.26,511.55Zm-25.88,43.21q5.55-11.82,11.22-23.59c.4-.84,1.2-1.49,2.9-3.54-.63,5.55-.74,9.55-1.58,13.4-3.98,18.36-4.48,37.04-6.04,55.66-.82,9.83-3.97,19.47-6.16,29.18-1.44,6.38-3.04,12.71-4.56,19.07l-1.79-.09c-.79-9.03-1.62-18.07-2.34-27.11-.35-4.34-.26-8.72-.74-13.04C1459.31,587.12,1462.95,570.6,1470.38,554.76Zm-39.15,58.07c-20.68-30.27-24.52-39.67-28.28-46.48a79.08,79.08,0,0,1-7.99-23.84c-1.83-10.12-.94-20.41,1.1-41.04,1.59-16.14,2.48-16.67,2.91-16.72,2.07-.24,4.76,9.38,15.18,51.68,10.64,43.21,12.32,45.76,14.91,53.92,1.5,4.72,7.29,13.94,12.11,28.12,2.11,6.22,3.53,11.45,4.4,14.96C1441.9,628.27,1436.97,621.24,1431.23,612.83Zm-56.13-8.45c7.47,2.49,14.79,5.44,22.24,7.98,13,4.42,21.51,14.39,29.95,24.3,2.29,2.69,3.29,4.8,6.62,8.74a101.163,101.163,0,0,0,14.77,14.24,391.934,391.934,0,0,1-95.87-62.1C1360.23,599.8,1367.72,601.92,1375.1,604.38Zm33.44,44.45a61.562,61.562,0,0,1-5.4-2.99c-14.84-8.53-29.84-16.85-44.15-26.21a38.136,38.136,0,0,1-8.01-6.98,40.056,40.056,0,0,1-8.3-16.01,319.656,319.656,0,0,0,62.96,45.24c24.28,13.31,44,20,43.5,21.3C1448.63,664.46,1429.17,659.74,1408.54,648.83Zm31.5-46.43a200.5,200.5,0,0,1-12.72-36.93c-1.7-7.2-4.39-14.17-6.56-21.26-2.46-8.04-4.8-16.12-7.27-24.16-3.08-10.02-3.48-10.03-4.67-14.56-2.46-9.4-4.75-22.73-2.76-23.39,1.34-.44,4.27,4.93,7.33,10.98a374.084,374.084,0,0,1,24.29,59.75c5.34,12.21,6.43,25.26,9.66,37.88,1.08,4.21,1.89,8.49,3.09,12.67,3.43,11.96,3.43,24.18,3.51,36.41-.52.08-1.04.16-1.56.23-.96-2.62-2.67-5.21-2.76-7.85C1449.26,621.27,1444.35,611.88,1440.04,602.4Zm35.22,176.19c-.31,26.04,7.77,50.65,12.78,76.11C1474.28,846,1465.85,796.57,1475.26,778.59Zm1.6,132.92c-16.7-3.78-32.28-10.37-44.99-22.14a227.674,227.674,0,0,1-21.5-22.86c-3.36-4.11-4.94-9.69-7.32-14.61.48-.31.96-.61,1.45-.92,1.95,1.89,3.78,3.92,5.87,5.64,4.33,3.58,8.37,7.87,13.3,10.31,12.24,6.04,23.16,13.81,33.72,22.33,4.5,3.63,9.88,6.23,15.03,8.98,6.96,3.72,14.07,7.14,22.27,11.27C1488.11,913.35,1482.26,912.74,1476.86,911.51Zm-1.35-16.28c-11.35-3.98-19.4-12.16-28.61-18.93a90.3,90.3,0,0,0-12.09-7.95c-9.88-5.03-19.14-10.7-25.32-20.26-1.32-2.04-2.36-4.26-3.87-7.03,5.26-1.08,8.44,1.41,11.6,3.19,13.84,7.79,27.64,15.51,42.47,21.48,8.44,3.4,15.91,9.23,23.76,14.06,2.6,1.6,4.93,3.62,7.53,5.21,8.81,5.36,12.14,10.63,14.5,24.34C1494.87,904.26,1485.54,898.74,1475.51,895.23Zm31.97-11.52c-7.01-11.4-14.91-22.04-16.78-35.77-1.55-11.32-4.76-22.41-6.61-33.7-1.73-10.57-2.71-21.26-3.86-31.92-.15-1.35.71-2.81,1.11-4.24,3.95.37,5.55,2.54,6.58,5.73,7.92,24.33,16.46,48.51,19.35,74.11C1508.22,866.38,1510,874.96,1507.48,883.71Zm9.34-27.83c-.62-.07-1.23-.13-1.85-.2-2.76-12.19-5.44-24.39-8.32-36.55-1.3-5.5-2.76-9.26-3.54-11.71-11.61-36.67-17.41-55.01-21.7-75.55a341.844,341.844,0,0,0-29.63-81.12,150.891,150.891,0,0,1,17.89,30.35c9.34,21.26,7.06,29.83,18.09,65.46,1.25,4.05,3.88,13.03,10.27,30.58,4.63,12.72,10.4,25,12.5,38.6,1.48,9.56,4.41,18.89,6.2,28.42C1517.45,847.94,1516.83,851.97,1516.82,855.88Zm-33.71,292.99c.8-16.89.55-33.83.99-50.74.17-6.3,1.05-12.57,1.6-18.86.9.03,1.8.06,2.71.1,6.74,24.57,8.79,50.15,15.45,74.79,6.57,24.32,11.48,49.09,16.04,74.09-3.26-5.44-6.57-10.85-9.78-16.31-6.47-11.01-12.82-22.1-19.37-33.06A51.906,51.906,0,0,1,1483.11,1148.87Zm-74.38,17.19c8.75-1.39,31.27-4.66,56.67,5.85,6.65,2.75,12.45,3.02,15.78,8.38,8.64,13.91,17.19,27.88,25.48,42.01,3.69,6.29,6.64,13.02,10.56,20.81-7.1-1.21-11.27-4.53-14.91-8.25-8.59-8.77-16.49-18.23-25.35-26.71a87.263,87.263,0,0,0-18.92-14.06c-8.48-4.51-27.11-16.5-52.59-19.07-12.02-1.21-20.48.06-20.69-1.42C1384.51,1171.79,1396.99,1167.92,1408.73,1166.06Zm63.55,61.01a169.175,169.175,0,0,0-15.29-12.64c-19.24-14.32-39.03-21.11-47.56-23.97-16.56-5.55-27.92-6.89-27.77-9.76.11-2.26,7.35-3.91,12.15-4.4,12.01-1.23,17.52,4.64,44.84,13.14,6.08,1.89,12.28,4,17.7,7.22a90.815,90.815,0,0,1,18.14,13.78c10.56,10.68,20.35,22.1,31.07,33.89-2.7.97-5.48,2.5-8.39,2.83a8.646,8.646,0,0,1-6.05-2.07C1484.67,1239.26,1478.69,1232.93,1472.28,1227.07Zm41.98,48.69c-4.91,12.05-9.38,24.31-15.04,36-2.58,5.34-7.15,9.94-11.52,14.14-8.45,8.14-17.38,15.79-26.15,23.59-9.21,8.19-19.95,14.04-30.23,20.61-.44-.49-.87-.98-1.31-1.46,7.69-11.74,15.2-23.62,23.19-35.15,2.83-4.09,7.33-7,10.23-11.05,5.78-8.07,10.63-16.83,16.57-24.78,3.63-4.86,8.3-9.05,12.95-13.02,6.97-5.96,14.32-11.48,21.55-17.12.5-.39,1.37-.32,2.97-.66C1516.27,1270.2,1515.37,1273.02,1514.26,1275.76Zm6.58-20.09c-.51,1.49-1.61,2.28-4.95,4.82-5.5,4.18-11.27,8.01-16.91,12-13.63,9.63-23.75,22.36-32.86,36.19-13.24,20.11-27,39.88-40.6,59.77-.68.99-1.85,1.64-3.23,2.82.51-9.17,2.18-36.03,6.41-53.65.57-2.4,1.57-5.26,2.74-8.81,2.78-8.45,7.21-15.85,14.13-21.58,12.25-10.12,22.62-17.67,34.79-23.81,15.86-7.99,37.37-16.38,40.27-12A5.487,5.487,0,0,1,1520.84,1255.67Zm6.93-54.54c-.17,5.63-.14,11.27-.37,16.9a48.98,48.98,0,0,1-1.2,6.48c-5.51-10.88-32.64-125.42-31.43-138.09,4.06,1.26,5.08,4.87,6.49,7.9,7.36,15.8,12.91,32.28,18.88,48.64C1527.11,1162.02,1528.36,1181.33,1527.77,1201.13Zm4.81-133.89c-4.52-42.11-9.05-84.23-13.62-126.85,5.56,2.14,5.96,6.99,6.51,11.28,1.79,13.97,3.61,27.96,4.71,41.99,1.56,19.93,2.55,39.91,3.67,59.87.25,4.55.04,9.12.04,13.68C1533.45,1067.21,1533.01,1067.22,1532.58,1067.24Zm.07,381.72c1.27-13.01,2.44-26.03,3.63-39.04.72-7.91,1.75-15.8,2.05-23.72.74-19.72,1.81-39.47,1.49-59.19-.27-17.15-2.27-34.27-3.45-51.4-.38-5.48-1.49-10.98-.51-16.44.6-.14,1.19-.29,1.79-.44.62,1.66,1.68,3.29,1.81,4.99q2.04,26.82,3.8,53.65c.64,9.97,1.53,19.98,1.28,29.94-.39,15.86-1.77,31.69-2.49,47.54-.59,13.06-.55,26.15-1.28,39.2-.56,9.87-1.91,19.69-3.01,30.59C1534.03,1459.34,1532.09,1454.62,1532.65,1448.96Zm-5.47,79.07c-.58-11.73-1.83-23.43-2.59-35.16-.46-7.1-.62-14.23-.68-21.35-.02-2.14.73-4.29,1.19-6.75,3.82,1.25,3.98,4.05,4.52,6.37,1.71,7.48,4.04,14.95,4.54,22.52a71.064,71.064,0,0,0,3.49,17.87c3.9,12.08,5.76,24.89,7.64,37.52a20.994,20.994,0,0,1-2.43,12.48c-5.38,9.53-11.68,18.55-17.62,27.76-.56-.11-1.12-.22-1.68-.32,1.08-13.43,2.29-26.85,3.19-40.3A177.759,177.759,0,0,0,1527.18,1528.03Zm-76.81-77.71c3.03,7.45,6.32,14.81,9.01,22.38,2.61,7.38,6.19,13.93,11.95,19.38,6.38,6.04,10.55,13.66,14.96,21.22,4.72,8.09,6.78,16.15,5.7,25.4-.82,6.99,1.11,13.47,4.37,19.89,3.75,7.37,6.26,15.37,9.32,23.1-6.75-2.35-10.41-7.54-14.34-12.31-9.7-11.75-15.41-25.68-21.88-39.32-9.15-19.31-12.26-39.94-16.38-60.45-1-4.98-2.46-9.87-3.65-14.82-.31-1.3-.4-2.66-.59-3.99C1449.34,1450.63,1449.86,1450.47,1450.37,1450.32Zm9.71,113.79c-3.74-5.46-6.64-11.5-9.85-17.32-.74-1.34-.96-3.01-1.84-4.22-7.46-10.27-8.73-22.21-9.44-34.32a267.043,267.043,0,0,1,1.07-48.39c.61-4.95.09-10.03.09-15.06.64-.08,1.28-.16,1.91-.23,4.45,5.94,4.62,13.42,6.44,20.2,2.25,8.39,3.5,17.08,4.74,25.71,2.09,14.58,5.98,28.55,12.75,41.69,2.46,4.77,4.65,9.71,6.63,14.7,3.93,9.96,10.45,18.15,17.18,26.26,3.21,3.87,6.27,7.86,10.52,13.21-7.27-1.23-20.17-4.42-31.45-13.54A37.982,37.982,0,0,1,1460.08,1564.11Zm23.54,72.04c-2.22,2.38-6.16,3.43-9.51,4.42-5.35,1.58-10.95,2.32-16.29,3.95-3.74,1.14-7.98,1.07-19.68,1.72-17.56.97-15.14.28-20.51.95a142.6,142.6,0,0,0-25.19,5.71c-3.44,1.07-6.29,2.09-8.35,2.85-.39-.71-.78-1.41-1.16-2.12,7.55-6.6,14.15-14.16,23.43-18.92,13.4-6.87,27.84-10.18,42.36-13,16.02-3.11,32.24-5.22,48.38-7.73a31.973,31.973,0,0,1,4.53.22C1495.17,1622.2,1489.78,1629.53,1483.62,1636.15Zm18.98-28.69c-10.56,3-20.85,7.06-32.08,7.25a169.435,169.435,0,0,0-50.53,8.61c-12.78,4.24-24.92,10.75-33.93,21.56-1.1,1.32-2.49,2.4-4.78,4.58,1.88-11.16,5.2-20.47,12.19-27.28,13.89-13.53,29.61-24.59,49.47-27.53,15.07-2.23,30.09-2.11,44.72,3.07,6.21,2.2,12.47,4.28,19.91,6.82C1505.1,1606.03,1503.94,1607.08,1502.6,1607.46Zm-.86-56.68c-2.54-10.41-1.07-18.98,1.33-32.98a89.715,89.715,0,0,1,4.36-17.83c2.7-7.7,6.18-15.13,9.41-22.64.36-.84,1.25-1.46,3.26-3.71.09,28.23,4.28,54.57,2.15,81.14-.85,10.61-1.21,21.33-3.53,31.76l-1.98.15c-1.23-2.45-2.61-4.84-3.65-7.37C1506.61,1563.53,1502.97,1555.82,1501.74,1550.78Zm9.08,293.04c.39-4.83.85-23.04,1.78-59.48.79-31.17.99-43.02,2.29-62.63,1.48-22.44,1.93-17.8,2.3-29,.77-23.83,1.01-47.68,1.79-71.51.13-3.95-.16-8.6,5.48-12.89.49,12.7,1.39,23.63,1.23,34.55-.3,21.51-1.45,43.01-1.75,64.52-.25,17.93.55,35.87.23,53.8-.21,11.5-1.61,22.99-2.46,34.48-.87,11.92-1.35,18.3-1.83,25.3-.87,12.58-2.98,32.98-8.43,67.25-4.02,11.28-5.65,13.49-6.39,13.31C1502.76,1900.98,1508.08,1877.42,1510.82,1843.82Zm-36.94,71.24c5.11-19.22,4.92-39.04,6.78-58.64,1.72-18.09,3.58-36.17,5.76-54.21,1.6-13.23,7.34-24.94,14.66-35.91a17.656,17.656,0,0,1,1.97-2.35c.52-.54,1.14-.98,2.98-2.53-.36,3.03-.22,4.9-.83,6.47-5.09,13.13-3.94,27.28-6.76,40.8-3.13,15.01-5.09,30.25-7.68,45.38-2.16,12.6-4.28,25.21-6.81,37.74-1.51,7.51-3.62,14.91-5.75,22.28a12.719,12.719,0,0,1-4.89,6.66A34.511,34.511,0,0,1,1473.88,1915.06Zm-3.96,48.89c4.94,3.67,7.02,8.17,6.99,14.4-.13,24.87,0,49.71-3.14,74.47-1.54,12.18-1.86,24.51-2.94,36.75-1.67,18.88-3.61,37.74-5.28,56.62-1.48,16.59-2.7,33.21-4.14,49.8-.99,11.46-2.15,22.9-3.23,34.36-.32.04-.65.07-.97.11-2.12-5.74-4.19-11.5-6.36-17.22-5.99-15.79-15.8-29.08-26.25-42.21-14.82-18.63-28.47-38.19-42.76-57.25-4.9-6.54-10.04-12.93-15.41-19.09-2.31-2.65-3.81-5.16-3.95-8.77-.74-19.19-1.73-38.37-2.49-57.56-.33-8.33,5.34-12.98,13.55-11.46,1.26.23,2.5.56,3.73.91,10.07,2.9,20.11,5.91,30.2,8.71a10.652,10.652,0,0,0,13.79-10.81c-.11-4.1-.37-8.19-.55-12.29-.18-4.05,1.51-6.85,5.38-8.37,6.72-2.64,11.29-7.66,15.33-13.49a147.6,147.6,0,0,1,13.17-16.94C1460.11,1958.71,1463.38,1959.09,1469.92,1963.95Zm-22.33,292.12a167.432,167.432,0,0,0-8.68-21.22c-12.4-25.27-22.02-28.73-39.66-56.02-13.85-21.42-14.35-25.71-23.64-42.95-4.48-8.31-8.52-16.85-12.67-25.33a40.912,40.912,0,0,1-1.71-5.74c4.5,1.02,5.89,4.09,7.71,6.62,9.97,13.94,19.7,28.06,29.95,41.79,8.88,11.89,18.63,23.15,27.51,35.05,11.13,14.91,19.78,31.11,22.93,49.75C1450.31,2243.8,1450.53,2249.57,1447.59,2256.07Zm-58.39-245.72c8.07-3.18,15.53-6.13,24.31-9.59-.77,5.77-1.38,10.35-2.13,16.04C1403.23,2013.62,1395.54,2015.62,1389.2,2010.35Zm30.36-114.19c-1.57-2.32-3.5-4.39-5.21-6.63-6.07-7.96-8.92-16.97-9.86-26.94-1.45-15.41,1.75-30.6,1.48-45.94a99.562,99.562,0,0,1,2.11-21.49c.76,1.35,1.87,2.62,2.24,4.07,3.32,13.14,7.15,26.2,9.56,39.52,2.73,15.1,9.98,28.39,15.18,42.49,4.24,11.52,9.22,22.76,13.81,34.15a29.322,29.322,0,0,1,1,3.98C1438.61,1912.64,1426.97,1907.11,1419.56,1896.16Zm21.19-14.83c-1.56-4.06-3.22-8.09-5.09-12.02-6.62-13.94-9.91-28.78-12.82-43.84-1.98-10.24-5.35-20.22-7.35-31.03,2.74,3.64,6.02,6.99,8.15,10.96,11.96,22.36,23.65,44.81,31.12,69.25,5.84,19.09,7.21,26.58,4.48,50.69-1.82-3.2-4.03-6.24-5.38-9.63C1449.34,1904.32,1445.15,1892.79,1440.75,1881.33Zm-81.35,48.19c9.15,1.65,16.3,7.23,23.01,13.03,2.61,2.26,3.37,6.67,5.32,10.86l-13.19,8.13c-7.57-5.35-14.64-10.36-21.72-15.35-6.87-4.85-13.74-9.69-21.27-15,4.49-4.74,9.58-3.71,14.19-3.58A92.156,92.156,0,0,1,1359.4,1929.52Zm-21.44-112.72a69.453,69.453,0,0,1,3.13-7.55c.68.08,1.37.15,2.05.23a47.831,47.831,0,0,1,1.32,6.51q2.25,34.86,4.32,69.72c.54,9.41-4.08,17.27-8.35,25.14a11.571,11.571,0,0,1-3.73,3.8c-1.1.74-2.98,1.41-3.94.95s-1.7-2.4-1.69-3.68a55.448,55.448,0,0,1,.91-9.88c2.18-11.26.17-22.46-.15-33.69A168.307,168.307,0,0,1,1337.96,1816.8Zm-17.82-47.12c-5.29-21.11-11.2-42.07-16.83-63.11a17.354,17.354,0,0,1-.62-3.78c-.34-8.93-2.11-17.63-4.15-26.3a28.781,28.781,0,0,1-.36-4.47,789.515,789.515,0,0,1,33.53,135.11c.29,1.85-.32,3.84-.66,7.15-2.91-3.2-3.05-5.9-3.57-8.52C1325.12,1793.72,1323.12,1781.58,1320.14,1769.68Zm9.25,171.22a9.533,9.533,0,0,1-.49-2.83c.47-.41.95-.81,1.42-1.22,13.52,7.98,25.56,18.03,38.8,28.2-2.55,2.25-4.97,5.79-6.49,5.44-4.06-.94-8.8,1.44-12.29-2.4C1342.62,1959.6,1334.78,1951.19,1329.39,1940.9Zm9.24,67.27a46.734,46.734,0,0,1-6.2,1.89,21.923,21.923,0,0,1,9.46-16.09c11-7.91,22.34-15.34,33.53-22.96,8.2-5.58,16.07-11.74,24.66-16.64,15.25-8.7,31.16-15.58,49.47-10.91.41.1.71.63,2.04,1.89-9.25,5.12-17.99,9.81-26.59,14.75-13.96,8.02-27.74,16.37-41.76,24.29-10.89,6.15-22.02,11.88-33.05,17.78C1346.36,2004.21,1342.54,2006.3,1338.63,2008.17Zm3.26,4.12c3.29-2.63,5.83-5.19,8.84-6.92,3.3-1.9,7.14-2.83,10.57-4.53,10.53-5.21,21.41-9.75,30.55-17.5,3.25-2.75,7.71-4.04,11.14-6.63,15.26-11.54,33.57-17.27,49.99-26.6a9.476,9.476,0,0,1,2.72-.6c.34.38.69.75,1.03,1.13-1.6,2.04-3.21,4.06-4.79,6.11-4.67,6.07-9.87,11.82-13.86,18.31a30.728,30.728,0,0,1-9.49,10.1c-3.78,2.79-5.54,2.97-19.1,8.89-6.54,2.85-7.83,3.38-9.15,3.98-.98.45-1.69.79-1.8.85-15.98,7.7-34.4,11.13-34.4,11.13A137.4,137.4,0,0,1,1341.89,2012.29Zm9.41,159.57c-.67-10.72-1.8-21.41-2.48-32.12-.32-5-.05-10.04-.05-16.7,2.19,11.45,4.11,21.13,5.85,30.84.35,1.97-.02,4.07.04,6.1.41,13.79,1.15,27.58,1.17,41.37.01,12.04-.77,24.08-1.26,36.12-.1,2.39-.65,4.6-5.17,5.36,0-4.62-.4-8.68.07-12.63A324.079,324.079,0,0,0,1351.3,2171.86Zm-1.65-120.74c-.2-7.88-1.28-15.74-1.77-23.61-.1-1.55.7-3.16,1.09-4.74.59-.06,1.19-.11,1.78-.17.81,3.27,2.18,6.51,2.34,9.81.82,17.1,1.38,34.22,1.91,51.33.11,3.51.49,7.45-5.04,8.79.17-1.77.25-3.35.5-4.89C1352.43,2075.42,1349.96,2063.29,1349.65,2051.12Zm-59.49,285.12c-2.84-12.48-1.01-21.33.59-26.29,1.22-3.78,5.5-12.01,16.18-27.03,2.07-2.91,4.19-5.79,6.33-8.66,2.07-2.77,4.83-5.03,7.78-8.05a227.464,227.464,0,0,1-30.88,70.03Zm17.98-2.11c-1.98,4.02-3.57,9.32-9.69,10.25-4.34-4.79-3.43-10.02-1.15-15.05a114.806,114.806,0,0,1,8.26-15.63c8.34-12.71,14.38-26.5,20.67-40.32C1328.83,2296.2,1317.61,2314.96,1308.14,2334.13Zm6.5-83.97c-13.53-6.32-23.51-16.57-31.36-28.73-5.05-7.83-5.93-17.52-6.27-26.67-.77-21.01-.72-42.04-.98-63.07-.01-.43.37-.87,1.03-2.28,4.03,7.04,8.88,12.96,10.62,20.49,3.53,15.23,6.78,30.52,10.14,45.79a75.286,75.286,0,0,0,14.1,29.52c5.67,7.49,10.75,15.44,16.29,23.47C1322.83,2252.61,1319.08,2252.24,1314.64,2250.16Zm22.61.37c-4.43-4.01-7.38-9.39-10.81-14.4a95.94,95.94,0,0,0-6.71-9.24c-10.45-11.89-16.29-25.94-19.69-41.16-1.17-5.23-.31-2.37-4.01-19.57-4.49-20.83-7.57-31.41-6.86-31.63.74-.23,4.05,11.4,12.72,30.49,4.9,10.78,10.47,21.63,11.75,24.16,1.4,2.77,2.83,5.51,4.32,8.23,4.54,8.29,10.13,16.01,15.21,24.02,4.3,6.77,7.71,13.89,7.9,22.12C1341.13,2246.33,1341.37,2249.35,1337.25,2250.53Zm15.85,248.73c-1.41-14.1-2.85-27.29-4.01-40.5-2.06-23.48-4.15-46.97-5.81-70.48-.57-8.14.08-16.37.2-24.56.04-2.55.17-5.1.21-7.65.02-1.39.26-11.21.27-22.24.03-27.86-1.37-34.93,1.2-50.48.41-2.47.81-4.48,1.07-5.76,4.56,2.05,6.19,4.61,6.14,9.52-.2,18.18.32,36.36.4,54.55.03,6.65-.81,13.32-.57,19.96.47,12.78,1.53,25.54,2.16,38.32.33,6.65-.04,13.35.46,19.99,1.48,19.66,3.16,39.3,4.9,58.94C1360.36,2486.23,1359.9,2493.14,1353.1,2499.26Zm-3.32-236.87c9.18,3.3,17.57,7.39,24.61,13.33,6.38,5.38,15.17,7.82,20.85,15.87C1375.09,2290.2,1351.4,2275,1349.78,2262.39Zm25.62-9.82c8.33,3.57,15.62,8.69,20.64,16.56,3.16,4.96,6.65,9.72,9.69,14.76,1.92,3.18,3.27,6.69,5.05,10.43-5.14,1.99-8.01-.53-10.15-3.11-11.73-14.2-27.97-21.93-43.47-30.7-4.1-2.32-4.26-2.05-5.03-7.29C1360.18,2248.68,1367.93,2249.36,1375.4,2252.57Zm44.43-31.48c-11.45-15.8-17.18-23.69-25.21-32.27-11.28-12.06-14.91-15.85-24.44-26.51-5.53-6.18-9.8-13.16-11.2-21.53-1.8-10.76-3.05-21.57-1.85-34.32,6.04,12,11.07,22.55,16.6,32.82,22.61,41.99,26.12,48.54,28.96,52.33,11.49,15.33,15.85,15.97,26.01,32.13,9.32,14.84,15.26,29.59,14.2,30.18C1441.92,2254.48,1435.31,2242.44,1419.83,2221.09Zm39.53,107.96c-1,16.86-1.37,33.78-2.98,50.59-1.39,14.51-4.02,28.91-6.31,43.33-2.12,13.41-4.66,26.75-6.72,40.17-1.67,10.85-8.6,18.79-13.71,27.76l-2.17-.48c.46-6.82.53-13.69,1.45-20.44,2.71-19.79,5.69-39.54,8.72-59.29,3.37-22.02,7.15-43.98,10.26-66.04,1.42-10.09,1.66-20.35,2.5-31.47C1455.5,2317.75,1459.78,2321.9,1459.36,2329.05Zm15.33.16c-7.31-10.96-18.21-19.44-22.64-32.4-1.79-5.24-4.21-10.46-1.28-17.1,4.81,2.26,7.37,5.78,9.65,9.42,5.63,9,12.98,28.14,15.53,39.8C1475.51,2329.03,1474.78,2329.33,1474.69,2329.21Zm9.08-18.1c-.67,4.78-1.59,9.52-2.39,14.28l-1.29.24c-2.11-5.66-4.11-11.37-6.35-16.98-4.65-11.61-8.77-23.54-18.76-32.05a6.533,6.533,0,0,1-1.08-1.86c4.58-3.22,10.39-3.07,15.09,1.12C1479.47,2285.19,1485.83,2296.46,1483.77,2311.11Zm-12.26-59.89a23.648,23.648,0,0,1-2.23,1.76c-.43-.53-.78-.8-.73-.92,7.33-17.66,9.42-36.62,13.35-55.09,2.71-12.73,3.25-25.9,5.63-38.71,3.3-17.83,6.38-35.77,12.68-52.9a37.472,37.472,0,0,1,2.44-4.59c.6.03,1.21.05,1.81.08.36,2.2,1.12,4.41,1,6.59-.51,9.45-.39,19.05-2.12,28.3-3.4,18.22-4.52,36.58-5.43,55.01C1496.75,2214.24,1488.22,2234.52,1471.51,2251.22Zm95.38-123.09c-4.69,14.9-9.55,29.75-14.35,44.61a123.89,123.89,0,0,1-14.25,29.69c-8.41,12.95-17.75,24.99-29.08,35.49-4.48,4.15-12.29,7.94-20.33,9.11a54.586,54.586,0,0,1,3.76-5.92,272.426,272.426,0,0,0,42.69-68.92q13.335-31.08,26.46-62.24c1.34-3.19,2.78-5.99,7.18-7.48A58.251,58.251,0,0,1,1566.89,2128.13Z" fill="#66766c"/>
      </g>
      <g id="Group_2" data-name="Group 2">
        <path id="Path_2" data-name="Path 2" d="M1999.33,614.44c-.98-5.73-5.13-7.71-10.81-6.17a33.9,33.9,0,0,0-19.03,13.54c-7.56,10.59-14.87,21.36-22.63,32.55a223.785,223.785,0,0,1,4.29-36.96c4.12-20.6,7.37-41.39,10.73-62.14.86-5.27,1.53-10.78.97-16.04-.83-7.76-7.59-9.96-13.39-4.8a33.134,33.134,0,0,0-5.06,5.77c-8.53,12.15-17.12,24.27-25.39,36.6-14.91,22.25-22.57,46.65-19.7,73.56,1.87,17.53.24,34.84-1.29,52.21-.35,3.94-.83,7.88-1.37,12.97-8.78-9.25-18.48-15.87-22.35-27.47-1.77-5.32-4.18-10.42-6.29-15.63-2.42-5.97-4.71-12-7.19-17.94-1.32-3.16-1.44-4.49-2.71-6.25-2.05-2.84-6.69-7.17-10.75-6.47-7.81,1.35-10.65,20.88-12,30.19-.78,5.34-1.89,8.12-1.04,11.3,3.6,13.41,7.95,26.64,18.29,36.73,7.93,7.74,14.37,14.57,22.22,21.25,14.66,12.47,15.89,11.87,18.57,16.45,6.31,10.78,1.77,30.49-1.33,42.61-6,23.47-9.08,35.46-13.32,47.94-3.28,9.67-6.28,17.6-8.43,23.08a158.659,158.659,0,0,0-13.84,11.35,119.343,119.343,0,0,0-15.2,16.12c-7.34,9.53-10.62,21.06-13.41,32.51-1.29,5.29-.81,11.11-.53,16.66.25,5,1.32,9.96,2.03,14.93a8.863,8.863,0,0,1-2.87-4.55c-4.66-12.96-10.47-25.13-22.24-33.37-13.93-9.76-28.58-18.05-44.81-23.48-7.92-2.65-14.64-.02-21.13,3.79-1.78,1.04-3.17,3.37-3.91,5.4a53.942,53.942,0,0,0-2.21,9.72c-1.26,7.71,1.49,13.58,8.39,17.4,6.62,3.66,11.68,8.97,16.69,14.59,13.65,15.31,28.31,29.49,47.02,38.78,3.22,1.6,5.98,2.39,9.45,1.08a16.262,16.262,0,0,1,12.04-.35c-.6,3.84-1.02,7.57-1.79,11.23-.68,3.25-1.94,6.39-2.59,9.65-2.02,10.05-3.73,20.16-5.82,30.19q-6.885,33.09-14.06,66.13c-.69,3.19-1.98,6.25-3.41,10.67-3.08-17.13-5.99-32.48-8.54-47.89-.88-5.28-.56-10.76-1.37-16.06-.64-4.17-1.09-8.73-5.71-11.87-2.81,3.44-6.13,6.4-8.08,10.08-14.23,26.86-18.75,56.22-21.42,85.99-.6,6.69-.13,13.29,3.24,19.47,1.53,2.82,2.26,6.08,3.76,10.29-5.81.71-10.54,1.6-15.3,1.81a37.641,37.641,0,0,0-20.87,6.97c-9.57,6.9-18.84,14-24.98,24.57-6.92,11.93-9.76,23.98-5.03,37.46,1.4,4,3.69,5.77,7.41,6.77,4.46,1.19,8.22-.17,11.38-3.05,3.41-3.1,6.44-6.61,9.65-9.92,6.73-6.94,11.9-15.35,20.32-20.75,4.71-3.02,8.78-7.06,13.16-10.6,2.04-1.64,4.16-3.19,6.24-4.79l.96,1.2c-1.09,1.36-2.25,2.66-3.25,4.08-5.87,8.38-12.38,16.41-17.36,25.29-6.84,12.2-4.9,24.25,3.9,35.01a219.964,219.964,0,0,0,15.28,17.27c4.6,4.55,5.41,9.42,3.87,15.33-2.59,9.93-5.21,19.87-7.37,29.89q-6,27.8-11.46,55.7c-2.41,12.32-4.96,24.65-6.43,37.1-2.75,23.17-4.76,46.44-7.12,69.66a42.3,42.3,0,0,1-1.02,4.8c-.51.25-1.02.51-1.53.77-.46-.92-.93-1.83-1.38-2.75-4.32-9.01-9.84-17.67-12.67-27.13-7.22-24.18-8.06-26.81-16.92-42.88-3.66-6.64-12.31-22.02-19.39-20.6-2.65.53-4.87,3.37-6,4.81-2.56,3.27-3.58,6.48-4.13,10.86-.73,5.84-2.48,11.56-3.06,17.41-1.7,17.15,1.09,33.24,12.61,46.86a55.735,55.735,0,0,1,11.93,23.88c2.06,9.05,7.09,16.49,12.6,23.53,4.26,5.44,9.42,10.19,16.57,11.96.87.22,1.54,1.19,1.94,1.51.11,5.81.21,15.96-.18,28.61-1.64,53.02-3.97,52.47-5.47,74.4-.79,11.51-.99,23.06-1.8,34.57a10.919,10.919,0,0,1-2.91,6.68,33.672,33.672,0,0,0-9.94,16.97c-.74,2.96-2.22,5.73-3.16,8.66-6.65,20.74-13.75,41.35-19.63,62.31a45.409,45.409,0,0,0,2.03,30.98,88.5,88.5,0,0,0,7.62,13.29c4.4,6.54,9.17,12.83,14.16,19.76-2.06,1.79-3.98,3.38-5.81,5.08-12.02,11.13-25.67,20.48-36.31,33.14-6.24,7.42-14.88,12.74-19.05,21.98-2.21,4.91-4.52,9.78-6.89,14.61-5.07,10.35-4.08,20.93-1.25,31.56a10.954,10.954,0,0,0,1.85,3.33c3.89,5.36,7.63,5.66,11.85.69a51.244,51.244,0,0,0,5.06-7.71,128.541,128.541,0,0,1,22.04-28.46c11.31-10.89,21.55-22.63,29.48-36.27.75-1.29,1.67-2.47,2.79-4.09-7.79,82.35-15.15,163.85-16.47,247.48-3.68-5.58-5.91-9.88-8.98-13.45-8.01-9.3-16.33-18.34-24.66-27.37-5.01-5.43-6.81-10.77-10.97-10.72-3.05.03-5.95,2.65-7.3,5.26-1.72,3.32.01,6.52-.35,9.98-2.46,23.47-.97,22.41,12.88,38.74,9.59,11.3,20.02,22.19,35.51,25.74,1.4.32,2.62,1.4,4.11,2.23a20.823,20.823,0,0,1-.46,3.96c-2.35,7.32-4.95,14.57-7.18,21.93-1.23,4.06-4.18,12.87-8.77,31.02-6.6,26.1-5.47,35.61-11.23,68.67-3.1,17.8-5.81,30.88-8.68,41.34-6.9,25.23-14.68,50.22-22.1,75.31-12.01,40.62-24.73,80.99-44.2,118.83-1.53,2.96-3.2,5.86-4.68,8.84-1.58,3.19-3.05,6.45-1.98,10.27,3.74,1.91,6.51-.29,9.45-1.66,10.96-5.1,17.48-14.9,24.73-23.78a52.464,52.464,0,0,0,8.43-14.53c8.91-24.01,17.38-48.18,25.98-72.3q2.19-6.165,4.15-12.41c6-19.08,12.12-38.13,17.87-57.29,3.61-12.03,6.62-24.25,9.96-36.36,1.61-5.81,3.38-11.58,5.08-17.37a22.527,22.527,0,0,1,3.82,8.39c.78,2.71,1.34,5.5,2.36,8.11,1.18,3.02,3.35,5.25,6.83,5.44,3.82.2,7.19-.99,9.18-4.45a61.5,61.5,0,0,0,3.12-7.03c1.96-4.65,2.79-6.44,4.49-10.6,4.52-11.1,5.11-26.5,9.58-46.33,2.48-10.98,3.56-8.17,4.1-15.53,1.44-19.45,2.51-38.96-3.5-57.99-1.6-5.08-3.11-10.2-4.89-16.05,1.92-1,3.89-1.99,5.82-3.06,4.03-2.24,8.38-4.07,11.98-6.87a121.253,121.253,0,0,0,36.39-45.98,447.859,447.859,0,0,0,19.19-50.26c4.97-15.7,11.12-30.83,17.51-45.94,4.99-11.8,9.44-23.83,13.85-35.85a17.786,17.786,0,0,0,.79-8.26c-.6-4.44-3.65-6.65-7.74-4.91-10.82,4.6-22.23,8.58-31.8,15.15-14.19,9.73-26.55,21.84-34.08,37.96a50.626,50.626,0,0,1-5.04,7.72q-16.59,23.13-33.21,46.23a41.325,41.325,0,0,0-2.52,4.76c-1.71-2.06-2.23-2.4-2.29-2.81a39.3,39.3,0,0,1-.39-4.59,632.715,632.715,0,0,1,4.22-88.33c1.57-12.71,3.77-25.36,4.93-38.11,1.54-16.82,2.38-33.7,3.44-50.56.29-4.61.13-9.24.42-13.85.11-1.81.89-3.57,1.62-6.33,7.57,4.97,14.31,9.09,20.71,13.69,4.25,3.05,8.55,5.51,13.77,6.43,10.59,1.86,21.12,4.06,31.72,5.88,4.39.76,7.38,3.18,10.07,6.46,3.24,3.96,6.58,7.84,10.05,11.58,3.26,3.51,6.97,3.63,9.56-.43,2.42-3.78,4.57-8.25,5.11-12.62,2.1-17.03-4.71-30.86-16.43-42.84-8.92-9.12-20.19-13.92-31.75-18.22-7.75-2.88-15.77-4.29-24.14-3.02-1.99.3-4.12-.39-6.19-.62-.38-.78-.76-1.56-1.15-2.34,1.35-.72,2.72-1.4,4.05-2.15,10.41-5.87,19.09-13.87,27.07-22.6,8.83-9.65,17.49-19.47,23.08-31.54q12.27-26.505,24.65-52.95c5.1-10.93,10.29-21.81,15.3-32.77,1.93-4.22,3.32-8.6-.65-13.15-1.75.82-3.36,1.45-4.85,2.3-7.79,4.41-15.59,8.82-23.32,13.34-11.57,6.77-22.2,14.82-30.66,25.27-17.99,22.22-29.46,47.97-39.41,74.49-3.19,8.51-6.49,16.98-9.76,25.53-1.16-10.63-2.68-20.72-3.25-30.86-.65-11.48-1.57-23.15-.2-34.47.88-7.34,2.07-14.65,2.14-22.05.2-19.72-.3-39.47.53-59.17.75-17.65,2.76-35.25,4.5-52.84.79-7.99,2.3-15.91,3.37-23.14,4.77,7.7,10.13,15.45,14.51,23.71,3.67,6.92,10.05,12.37,10.95,20.88.34,3.22,3.64,4.49,6.43,2.75a12.248,12.248,0,0,0,4.97-5.5c3.47-9.59,6.74-19.28,9.58-29.08,8.31-28.66-.45-47.41-25.11-64.61-3.83-2.67-8.78-3.73-13.31-5.57a6.174,6.174,0,0,1,1.46-.73,16.539,16.539,0,0,1,3.8-.51c13.89.62,24.23-6.3,34.07-15.11,7.22-6.46,12.36-14.34,17.54-22.26,7-10.69,13.94-21.44,20.4-32.46,3.21-5.48,5.11-11.71,7.94-17.44,8.97-18.17,18.21-36.19,27.08-54.41.69-1.42,2.48-4.8,1.11-7.26-1.95-3.51-9.07-2.99-11.74-2.79-8.78.64-27.63,8.27-54.08,26.96-12.91,9.12-23.53,19.66-27.77,35.55-1.72,6.42-4.36,12.61-6.81,18.81-1.88,4.77-3.78,9.61-8.27,14.41-.26-3.29-.7-5.28-.53-7.22,1.94-21.64,2.42-37.8,4.56-48.2,6.71-32.67,9.9-58.95,16.12-85a112.754,112.754,0,0,1,8.54-24.13c1.4-2.84,2.65-5.07,3.38-6.35,8.03,4.96,13.59,11.11,17.14,19.01,1.94,4.3,4.01,8.3,9.87,10.1,2.05-3,4.66-5.87,6.18-9.23,4.1-9.07,8.1-18.22,11.42-27.6a59.542,59.542,0,0,0,3.48-17.16c.37-8.94-.27-17.94-.73-26.89-1-19.56-8.28-36.24-22.84-49.65-3.54-3.26-6.44-7.22-10.26-11.58,3.21-1.44,5.97-2.57,8.64-3.89,7.8-3.86,15.73-7.38,21.66-14.27,9.71-11.29,15.55-24.68,21.14-38.16,2.06-4.98,2.34-10.82-2.08-15.14-4.7-4.59-10.31-3.69-15.83-1.41a28.463,28.463,0,0,0-4.19,1.94c-4.49,2.81-8.91,5.73-13.36,8.61,3.62-31.87,21.98-112.13,27.19-121.41,1.03,3.05,1.78,5.7,2.8,8.24,2.77,6.86,5.08,14,8.61,20.45,6.79,12.41,16.46,22.85,29.2,28.69,10.54,4.84,20.58,10.32,30.54,16.13,5.21,3.04,7.06,2.64,11.5-1.4,5.35-4.87,6.06-11.62,7.94-17.99,2.06-6.95.17-12.68-4.57-17.66-3.88-4.08-7.95-7.99-12.06-11.84-7.29-6.83-15.57-12.84-21.83-20.5-9.88-12.07-22.78-20.44-34.46-31.24,3.17-2.34,6.54-4.57,9.61-7.15,3.69-3.08,8.02-5.9,10.5-9.83a301.18,301.18,0,0,0,17.23-30.78c4.41-9.22,7.66-19.01,11.07-28.67,5.72-16.19,11.48-32.38,16.51-48.79,1.64-5.36,2.78-11.79-.24-14.3-1.17-.97-3.68-1.92-15.02,2.49a127.771,127.771,0,0,0-21.06,10.54c8.93-35.43,11.88-51.7,12.99-58.75,2.82-17.94,4.23-26.91,4.24-27.2.08-1.24.77-5.02,1.59-10.07.44-2.7,1.11-5.79,2.78-7.78,9.17-10.96,17.76-22.65,28.3-32.14a205.3,205.3,0,0,0,33.09-38.22c2.99-4.44,5.61-9.14,8.2-13.83q5.745-10.41,11.17-21.01c3.14-6.14,6.74-12.17,8.85-18.66C2000.44,623.88,2000.08,618.87,1999.33,614.44Zm-188.78,367.4a96.675,96.675,0,0,1-13.62-7.01,135.027,135.027,0,0,1-15.1-11.77,203.856,203.856,0,0,1-16.33-16.14c-6.66-7.49-13.21-14.92-22.06-20.04-4.66-2.7-4.45-3.06-1.8-8.52,11.66,3.88,21.05,11.38,29.91,19.47,6.23,5.68,11.65,12.23,17.67,18.14,7.29,7.15,14.85,14.02,22.27,21.03,1.22,1.15,2.31,2.44,4.26,4.5C1813.26,981.71,1811.64,982.34,1810.55,981.84Zm11.12-2.71c-1.79-1.06-3.87-1.83-5.34-3.23-11.86-11.32-24.1-22.3-35.23-34.3-8.52-9.18-18.26-16.34-28.87-22.6-2.34-1.38-4.7-2.7-7.87-4.53,4.62-2.86,8.6-4.11,12.56-2.6,17.8,6.81,34.76,15.16,48.91,28.34,6.67,6.22,9.18,14.7,12.54,22.68,1.97,4.69,3.16,9.71,4.7,14.58C1822.6,978.03,1822.14,978.58,1821.67,979.13Zm-183.91,958.78a61.077,61.077,0,0,1,2.83-20.17c3.05-9.53,6.74-16.45,17.2-27.03,10.6-10.71,21.74-20.89,32.71-31.23a25.826,25.826,0,0,1,8.51-5.57c-.75,1.74-1.19,3.71-2.3,5.19-7.97,10.65-15.44,21.76-24.29,31.64-10.93,12.22-18.61,23.69-28.49,38.03C1641.28,1932.62,1639.15,1935.81,1637.76,1937.91Zm53.67-56.42c-11.5,19.1-19.7,21.67-34.59,43.11-7.9,11.38-13.41,21.92-14.65,21.31-.8-.4.83-5.17,1.33-6.66,4.71-13.84,12.65-22.35,27.96-41.22,5.63-6.93,5.29-6.47,11.51-14.33,5.84-7.38,11.71-14.75,18.09-21.77A129.933,129.933,0,0,1,1691.43,1881.49Zm-10.52,252.5c-13.59-8.34-24.06-19.76-32.56-33.15-3.11-4.9-.02-9.35-.23-14.01.51-.11,1.02-.22,1.52-.34,5.44,5.66,11.17,11.08,16.25,17.05,6.76,7.96,13.98,15.68,17.87,25.67.62,1.59,1.15,3.21,2.06,5.76C1683.58,2134.55,1682.01,2134.66,1680.91,2133.99Zm93.77-1049.65c1.82-6.3,3-12.79,4.63-19.89a13.108,13.108,0,0,1,1.37,2.72c1.85,11.1,3.84,22.18,5.42,33.32,2.19,15.45,4.34,30.92,5.92,46.43.56,5.46-.34,11.14-1.15,16.63-.29,2.01-2.23,3.79-3.42,5.67l-1.83-.36c-.67-2.41-1.45-4.79-1.98-7.23-2.64-12.24-4.15-24.85-8.08-36.66A66.011,66.011,0,0,1,1774.68,1084.34Zm-8.08,15.17a28.894,28.894,0,0,1,1.29-3.79c.55.73,1.06,1.12,1.01,1.37-1.95,8.29-.18,16.19,2.07,24.18,2.85,10.12,5.44,20.33,7.64,30.61,1.33,6.2,1.7,12.6,2.5,18.91-.64.22-1.27.45-1.91.67-10.65-8.42-17.12-18.74-17.2-33.15C1761.91,1125.09,1764.21,1112.33,1766.6,1099.51Zm-63.68,129.18c-.21.32-.85.36-1.93.78-1.98-9.04,1.35-16.87,5.94-23.69,3.79-5.63,9.15-10.38,14.41-14.79,6.52-5.47,13.79-9.57,22.94-9.32,4.27.12,8.56-1.31,12.87-1.83a29,29,0,0,1,5.08.26c.01.44.02.87.03,1.31-9.06,4.09-18.36,7.74-27.13,12.39-12.47,6.61-22.32,16.13-28.62,29.01A53.7,53.7,0,0,1,1702.92,1228.69Zm21.34-7.89c-3.91,4.03-7.43,8.46-10.99,12.81-2.32,2.84-2.21,2.93-6.6,3.88-1.55-17.97,30.19-46,58.7-51.36C1750.14,1196.04,1736.76,1207.91,1724.26,1220.8Zm-20.24,286.75c-3.18-13.07-9.35-24.33-17.21-34.74a53.178,53.178,0,0,1-9.45-20.71,12.67,12.67,0,0,0-.36-2.27c-5.02-11.54-.94-22.6,1.72-33.73.1-.42.62-.74,1.24-1.43,6.47,3.44,9.97,9.43,12.97,15.5,6.57,13.3,12.4,26.9,16.44,41.27,1.56,5.56,4.7,10.68,7.02,16.04,3.55,8.19,7.28,16.31,10.41,24.66,1.83,4.89.67,9.18-2.88,15.9C1714.39,1523.95,1706.47,1517.61,1704.02,1507.55Zm-15.37,282.08c-1.44-8.96-1.55-17.82,1.21-26.5q7.455-23.385,15.26-46.66c1.74-5.2,4-10.22,6.02-15.32.54.1,1.08.21,1.62.31a87.219,87.219,0,0,1-.56,8.73c-1.71,10.61-3.85,21.15-5.33,31.79-1.47,10.62-3.16,21.32-3.26,31.99-.11,12.25,1.09,24.55,2.42,36.75.59,5.44,2.89,10.7,4.74,17.18-1.72-1.02-2.67-1.29-3.18-1.92C1698.9,1815.12,1690.95,1803.89,1688.65,1789.63Zm-9.57,495.43c-4.76,18.61-9.05,37.34-13.86,55.93-2.76,10.67-6.1,21.19-9.28,31.74-5.99,19.87-11.61,39.86-18.24,59.52-6.29,18.66-12.91,37.28-20.91,55.25-3.85,8.66-11.16,15.8-17.01,23.55-.64.86-1.94,1.22-2.93,1.81l-1.35-.93c1.98-4,3.86-8.05,5.97-11.98,6.81-12.7,11.33-26.26,15.61-39.96,2.51-8.04,5.88-15.8,8.59-23.78,7.33-21.59,15.56-42.94,21.53-64.91,9-33.09,19.35-65.88,25.14-99.8,1.06-6.2,1.81-12.45,2.8-19.35C1682.19,2263.07,1681.94,2273.84,1679.08,2285.06Zm23.99-58.47c-.99,45.22-5.1,74.89-7.17,74.83-1.85-.05.6-23.77-10.15-48.1a68.765,68.765,0,0,1-3.61-9.16c-.77-2.52-3.59-12.43-1.31-32.52,1.33-11.72,6.2-27.43,14.14-47.04.97-2.4,2.82-4.44,4.26-6.65.9.29,1.81.57,2.71.86C1702.83,2174.65,1703.69,2198.1,1703.07,2226.59Zm19.97-27.21c.38,5.36.15,10.77.42,16.14.52,10.38-1.51,20.27-4.28,30.25a170.094,170.094,0,0,0-4.73,27.14c-.56,5.18-1.17,10.04-3.83,14.64-2.12,3.65-3.65,7.65-5.91,11.36,3.42-45.94,3.54-91.82,2.3-139.35C1719.07,2171.54,1722.03,2185.12,1723.04,2199.38Zm95.46-222.83c-3.59,8.68-6.81,17.53-10.86,25.99a330.29,330.29,0,0,0-18.37,48.01c-5.2,17.45-11.4,34.51-19.77,50.74a109.312,109.312,0,0,1-33.36,38.58c-6.76,4.92-14.47,9.21-23.62,5.84a16.586,16.586,0,0,1-2.9-1.73c.06-.98-.11-1.68.16-1.95,10.65-10.8,17.37-24.58,27.2-35.97,8.46-9.8,13.72-21.53,20.36-32.41,2.38-3.9,3.99-8.29,5.73-12.55,9.48-23.17,23.3-43.8,37.5-64.2,2.92-4.2,5.73-8.47,8.76-12.6,2.23-3.03,4.72-5.88,7.09-8.8C1817.11,1975.85,1817.81,1976.2,1818.5,1976.55Zm-96.86,93.38c15.98-22.55,30.78-45.94,46.81-68.45,10.09-14.18,24.46-23.31,41.34-30.47-.61,1.92-.67,2.73-1.07,3.27-14.6,19.25-25.72,40.62-37.42,61.61-8.48,15.21-15.87,31.06-24.93,45.9-7.45,12.2-16.41,23.52-25.12,34.9-5.72,7.48-12.2,14.4-18.33,21.57-.79-.19-1.58-.37-2.37-.56-.28-2.89-1.18-5.88-.71-8.64,1.43-8.32,2.46-16.89,5.38-24.72C1709.64,2092.45,1714.1,2080.57,1721.64,2069.93Zm-7.03-147.45c-2.45,21.58-4.95,43.15-7.1,64.76-1.65,16.57-3.22,33.17-3.98,49.79a311.363,311.363,0,0,0,.7,36.14,36.736,36.736,0,0,1-5.34,22.03,42.749,42.749,0,0,1-.4-5.63c.58-11.26,1.28-22.51,1.91-33.77s1.08-22.53,1.83-33.79c1.22-18.15,2.7-36.29,3.91-54.44.99-14.84,1.35-29.73,2.68-44.53,1.94-21.42,4.51-42.78,6.81-64.17C1717.75,1880.21,1717.01,1901.37,1714.61,1922.48Zm0-100.79c-1.13-2.5-2.44-4.44-2.89-6.57-1.95-9.27-4.1-18.49-3.59-28.12.59-10.99.34-22.03,1.23-32.98.66-8.13,2.52-16.15,3.88-24.22,1.1-6.56,2.25-13.11,3.47-20.22a47.429,47.429,0,0,1,2.92,16.99c.21,17.94-.01,35.9.44,53.83a214.3,214.3,0,0,0,2.52,24.46C1723.62,1812.08,1720.72,1817.11,1714.61,1821.69Zm88.07,60.81a66.571,66.571,0,0,0-7.41-2.29c-9.31-1.74-18.61-3.67-28-4.76a31.383,31.383,0,0,1-14.18-5.38c-7.03-4.7-14.02-9.45-20.93-14.33-1.72-1.21-3.05-2.99-5.69-5.64,6.25,1.28,11.27,2.62,14.64,3.59,7.85,2.26,10.68,3.62,20.26,6.51,9.6,2.9,8.17,1.25,13.16,3.68,7.75,3.77,16.26,6.11,23.01,11.8,2.05,1.72,3.97,3.6,5.95,5.4C1803.23,1881.55,1802.95,1882.03,1802.68,1882.5Zm7.05-146.51c-5.22,11.41-10.57,22.76-15.87,34.13-3.93,8.43-8.86,16.26-15.7,22.57-8.08,7.45-16.6,14.43-24.97,21.57a28.7,28.7,0,0,1-3.63,2.22c-.65-4.81,2.35-7.42,4.48-9.85,15.81-18.09,27.69-38.63,38.88-59.73,4.77-8.98,11.05-17.17,16.73-25.66,4.38-6.55,8.89-13.02,13.35-19.52.58.29,1.16.58,1.75.87C1819.75,1713.73,1814.81,1724.89,1809.73,1735.99Zm-54.86,39.75c4.34-10.6,9.9-20.69,14.7-31.11a121.964,121.964,0,0,1,22.31-32.76c9.03-9.58,21.03-14.86,32.12-21.41l1.26,1.23c-2.9,4.36-5.53,8.94-8.75,13.05-14.45,18.44-25.94,38.59-36.51,59.47-5.49,10.84-13.7,20.35-21.06,30.18-5.3,7.1-11.22,13.74-16.95,20.7-.68-.84-1.02-1.1-.98-1.23C1745.56,1801.12,1749.75,1788.24,1754.87,1775.74Zm20.57,69.56a72.2,72.2,0,0,1,23.86,13.06c9.41,7.44,17.66,16.62,18.37,29.85.15,2.67-.27,5.37-.53,9.82-2.59-2.66-4.11-3.89-5.2-5.43a9.907,9.907,0,0,1-1.75-4.23c-1.79-13.5-25.98-25.39-25.98-25.39-28.35-15.35-57.31-14.28-57.25-17.37C1727.03,1842.78,1751.25,1837.47,1775.44,1845.3Zm-49.36-171.03c-1.86,18.16-2.11,29.31-2.66,29.29-.77-.03-1.68-21.84,0-46.6,1.08-15.93,4.22-47.7,4.4-62.42.04-3,.06-6.4.06-6.4.02-5.96-.02-11.92-.02-17.88.7-.18,1.4-.36,2.11-.53.69,1.6,1.83,3.19,2.36,4.79a14.228,14.228,0,0,1,.28,1.61C1734.44,1592.85,1726.08,1674.27,1726.08,1674.27Zm49.38-103.29c8.11,13.84,5.73,36.2-5.73,51.03-6.44-11.82-16.56-20.95-20.56-34.08-2.29-7.53-5.22-14.88-8.23-22.16-.91-2.19-2.9-4.02-4.64-5.77-4.29-4.31-5.1-7.51-3.16-13.71C1747.78,1542.31,1766.46,1555.62,1775.46,1570.98Zm70.39-168.81c-6.63,13.29-13.36,26.52-19.96,39.82-2.5,5.05-4.53,10.33-7.11,15.33-3.51,6.81-7,13.67-11.13,20.11-7.45,11.63-14.81,23.43-24.74,33.18-9.08,8.91-20.21,12.6-34.74,11.31,4.57-4.99,7.89-9.16,11.75-12.76,13.27-12.38,23.56-26.92,32.3-42.73,10.45-18.91,22.31-36.82,37.8-52.1,3.47-3.42,6.61-7.16,10.02-10.64,1.72-1.76,3.69-3.26,6.66-5.84C1846.24,1400.31,1846.26,1401.35,1845.85,1402.17Zm-92.67,96.93c7.64-19.49,14.95-39.11,22.68-58.56a38.788,38.788,0,0,1,6.76-10.99,101.427,101.427,0,0,1,36.11-26.68c7.2-3.14,13.85-7.77,23.52-8.42-10.38,11.87-20.35,22.21-29.06,33.54a354.5,354.5,0,0,0-24.46,36.17c-11.38,19.37-24.81,36.89-41.7,51.71-.12.1-.46-.05-1.45-.19C1748.18,1510.04,1750.98,1504.69,1753.18,1499.1Zm24.69-199.85a44.971,44.971,0,0,1-2.76,7.97c-4.77,9.53-6.5,19.85-8.64,30.13-3.32,16.01-7.15,31.91-10.82,47.84a71.851,71.851,0,0,1-2.29,8.13c-2.67,22.1-8.14,62.18-9.08,90.3a170.914,170.914,0,0,1-1.68,19.63,174.391,174.391,0,0,1-8.54,34.32c3.66-21.93,4.86-32.68,5.15-38.31a18.149,18.149,0,0,1,.41-7.16c1.39-4.8,1.21-9.49,1.09-14.36-.24-9.61.81-16.48.94-20.68.78-25.6,8.94-56.53,14.58-89.24.27-1.56.87-4.86,1.81-9.29,1.42-6.71,3.76-13.23,5.42-19.9,1.73-6.93,3.15-13.94,4.7-20.91s3.07-13.97,4.68-20.94c.15-.65.86-1.18,1.51-2.02C1777.54,1295.3,1778.55,1296.85,1777.87,1299.25Zm31.66,23.94c-1.77.72-5.08-11.82-18.83-27.16-6.26-6.98-17.16-17.29-23.27-24.04a49.221,49.221,0,0,1-5-5.47,29.785,29.785,0,0,0-4.72-5.05c-10.93-8.7-13.25-25.85-2.73-39.47,5.78-7.49,11.81-14.8,17.78-22.15a16.435,16.435,0,0,1,2.75-2.1c.54,1.28,1.23,2.14,1.22,3-.06,8.44-.23,16.89-.39,25.33a64.058,64.058,0,0,0,4.75,24.68c5.98,15.38,10.32,17.8,18.07,33.66C1808.33,1303.24,1811.67,1322.31,1809.53,1323.19Zm-10.63-113.65c11.93,11.37,21.09,24.84,23.42,41.23,1.79,12.56,1.29,25.55.73,38.31-.35,7.85-5.27,14.48-8.95,23.13-2.99-9.23-4.81-16.93-7.96-24.05-3.79-8.58-8.01-17.14-13.35-24.8-3.36-4.82-5.98-9.9-6.62-15.19-1.67-13.69-2.17-27.52-3-41.31a53.812,53.812,0,0,1,.53-7.47c.64-.33,1.28-.66,1.91-1C1790.05,1202.1,1794.72,1205.56,1798.9,1209.54Zm20.22-69.3c3.42-5.13,8.48-8.15,14.05-10.22,5.39-2.01,8.41.69,7.58,6.55a17.118,17.118,0,0,1-1.8,5.84c-4.33,7.81-8.75,15.58-13.36,23.23a23.5,23.5,0,0,1-11.61,9.66q-9.51,3.855-19.05,7.67c-.57-.55-1.15-1.1-1.72-1.65a47.926,47.926,0,0,1,3.05-6.57C1803.8,1163.19,1811.47,1151.72,1819.12,1140.24Zm-12.11-12.37c-.42,5.69-.42,11.28-.42,11.28h0c.82,5.59,1.18,5.53-4.1,10.78-.28-1.6-.52-3.26-.71-4.98,0,0-.29-2.67-.4-5.3-.35-8.89,4.72-23.69,4.72-23.69,2.83-8.27,3.6-17.11,5.5-25.64,2.71-12.21,7.77-35.57,18.12-84.66,2.97-7.54,3.87-9.12,4.11-9.04C1835.85,997.28,1807.65,1119.17,1807.01,1127.87Zm94.39-373.25c.08.01.36,21.07-5.33,50.15-6.22,31.84-16.39,56.96-16.87,56.81-.37-.11,3.92-15.4,6.55-24.3,2.58-8.77,4.71-14.98,5.16-16.64C1899.51,788.89,1901.23,754.6,1901.4,754.62Zm-53.37,239.81c12.67,8.77,18.39,22.67,27.75,33.47,9.33,10.78,17.84,22.26,26.71,33.44C1865.27,1052.16,1849.24,1019.97,1848.03,994.43Zm16.98,6.38c8.02,6.74,16.11,13.28,23.1,21.3,7,8.05,15.7,14.62,23.62,21.88a74.422,74.422,0,0,1,7.12,6.97c6.6,7.92,6.71,12.75.46,22.8-1.55-1.22-3.29-2.17-4.47-3.59-2.39-2.88-4.18-6.29-6.75-8.99a178.035,178.035,0,0,1-21.11-26.23c-4.68-7.26-11.03-13.42-16.38-20.27-4.47-5.73-8.58-11.75-12.85-17.65.18-.23.35-.46.53-.69A66.555,66.555,0,0,1,1865.01,1000.81Zm47.27-140.14c.16-.23.93-1.45,2.13-2.98.76-.97,1.53-1.92,2.27-2.89.34.19.67.37,1.01.56-2.05,6.26-3.84,12.63-6.2,18.77-7.43,19.32-14.78,38.69-22.77,57.78-3.04,7.27-7.6,13.93-11.69,20.73a36.112,36.112,0,0,1-12.69,13.1c-7.43,4.36-14.56,9.25-21.82,13.92-.46-.32-.92-.64-1.37-.96.28-1.81.22-3.76.89-5.42,5.62-13.85,9.94-23.59,17.46-34.96,10.27-15.54,6.48-12.62,16.61-27.92C1889.28,890.52,1909.35,864.98,1912.28,860.67Zm1.11-8.85c3.57,3.48-37.99,43.6-51.95,75.86-1.65,3.82-10.21,18.14-21.13,37.42-.47.83-1.14,1.55-2.81,3.76-1.05-13.76-6.17-25.65-1.26-38.14,2.34-5.95,4.28-12.07,6.83-17.92,3.76-8.62,9.74-15.48,17.26-21.2,6.76-5.14,11.12-10.03,15.04-13.1C1899.5,859.53,1911.56,850.05,1913.39,851.82Zm-23.26-107.49c-8.84-8.9-17.48-18-26.49-26.73-9.06-8.77-15.07-19.4-19.87-30.84-3.06-7.29-1.68-14.68.4-21.86,1.15-3.95.99-8.91,6.86-11.27,2.95,6.82,5.91,13.54,8.77,20.31,3.78,8.96,7.09,18.14,11.37,26.85,2.2,4.48,5.76,8.41,9.23,12.1,4.92,5.24,10.1,10.2,12.8,17.09,2.11,5.38,2.91,10.72.16,16.79A31.969,31.969,0,0,1,1890.13,744.33Zm94.77-125.47c-7.23,14.26-17,24.75-24.37,36.76-7.46,12.15-14.37,24.64-22.2,38.14C1940.97,674.23,1967.99,630.58,1984.9,618.86Zm-77.89,71.89c3.11-16.06.91-32.17.79-48.26-.05-6.61-.82-13.29-.12-19.82,1.42-13.43,6.63-25.54,14.43-36.59,6.94-9.83,13.68-19.79,20.47-29.72.84-1.23,1.42-2.64,3.11-3.25-15.35,49.65-31.09,98.72-37.88,150.12-.57-.13-1.13-.26-1.7-.38C1906.38,698.8,1906.25,694.69,1907.01,690.75Zm21.02,11.49c-7.88,20.89-20.64,38.33-20.64,38.33-1.61,2.2-3.01,3.99-4.01,5.25-.46-.21-.92-.42-1.37-.62,1.64-6.87,3.54-13.69,4.86-20.62,3.39-17.85,6.47-35.77,9.79-53.63,1.73-9.31,3.28-18.69,5.68-27.83,3.84-14.59,8.93-28.88,12.37-43.55,4.11-17.55,11.32-33.94,17.14-50.86.54-1.58,1.68-2.96,3.28-5.7,1.63,4.93,1.02,8.56.34,12.14-.18.94-5.73,30.05-16.72,88.29C1932.11,678.56,1934.71,684.53,1928.03,702.24Zm59.96-65.07c-7.78,11.23-12.47,24.18-19.75,35.5-7.95,12.36-15.99,25.02-27.93,34.38-4.16,3.26-7.64,7.37-12.58,10.34,3.08-5,6.26-9.93,9.22-15,7.33-12.55,14.3-25.32,21.91-37.69,6.27-10.2,13.16-20.03,19.98-29.89,3.43-4.96,7.3-9.62,10.97-14.41.64.34,1.28.69,1.92,1.03C1992.94,627.19,1991.12,632.65,1987.99,637.17Z" fill="#66766c"/>
      </g>
    </g>
  </g>
</svg>
