<?xml version="1.0" encoding="utf-8"?>
<!-- Generator: Adobe Illustrator 24.0.1, SVG Export Plug-In . SVG Version: 6.00 Build 0)  -->
<svg version="1.1" id="Слой_1" xmlns="http://www.w3.org/2000/svg" xmlns:xlink="http://www.w3.org/1999/xlink" x="0px" y="0px"
	 viewBox="0 0 3000 3000" style="enable-background:new 0 0 3000 3000;" xml:space="preserve">
<style type="text/css">
	.st0{fill:none;}
	.st1{fill:#45482A;}
</style>
<rect class="st0" width="3000" height="3000"/>
<g>
	<path class="st1" d="M1995.9,1353.76c-3.55-3.96-7.9-7.57-13.65-8.78c-3.08-0.65-5.99-2.22-8.88-3.58
		c-3.24-1.52-5.61-3.81-6.23-7.62c-0.48-2.93-1.22-5.83-1.98-8.71c-2.14-8.22-7.54-12.12-15.99-11.73
		c-2.28,0.11-4.58-0.01-6.86,0.01c-9.16,0.05-12.41-3.22-12.07-12.14c0.38-10.1-6.7-19.66-16.12-22.98
		c-1.69-0.59-5.59-0.93-13.49-1.38c-13.24-0.76-16.64,0.3-18.95-2.5c-2.51-3.04-0.59-6.82-4.67-11.76c-0.83-1-1.81-1.61-2.9-2.89
		c-4.76-5.58-10.75-7.48-17.88-6.11c-2.69,0.52-5.42,0.9-8.08,1.55c-6.89,1.68-13.77,3.42-20.62,5.24
		c-7.61,2.02-14.37,0.95-20.38-4.55c-1.9-1.74-4.57-3.35-7.03-3.6c-5.72-0.57-11.41,0.22-16.77,2.72
		c-9.56,4.46-19.04,8.98-26.79,16.42c-2,1.92-4.48,3.36-6.74,5.01c-0.42-0.31-0.85-0.62-1.27-0.93c0.51-3.56,1-7.13,1.55-10.69
		c1.11-7.16,1.36-14.1-3.37-20.37c-1.14-1.52-1.9-3.86-1.74-5.73c0.51-5.81,1.21-11.64,2.47-17.33c1.25-5.64,0.51-9.33-4.07-12.64
		c-3.28-2.37-6.59-4.49-11.05-4.57c-4.67-0.09-6.54-1.73-6.32-5.49c0.36-6.13,0.15-12.82,2.61-18.16
		c3.39-7.35,4.17-14.88,5.18-22.52c0.99-7.43-1.01-13.73-8.25-17.23c-3.1-1.49-3.9-3.76-4.38-6.98
		c-0.92-6.14-3.77-10.96-10.04-13.68c-4.8-2.09-9.64-2.27-14.62-2.67c-5.25-0.42-9.49,1.22-12.86,5.1
		c-3.15,3.63-6.96,5.13-11.72,6.2c-6.97,1.57-14.06,3.85-16.89,12.14c-1.68,4.93-4.46,9.51-7.04,14.09
		c-3.23,5.75-7.4,10.35-14.74,10.11c-0.35-5.53-0.29-10.77-1.1-15.88c-0.85-5.36-2.54-6.53-7.96-6.42
		c-4.35,0.08-8.69,0.58-13.02,0.97c-5.03,0.45-8.92-1.01-11.41-5.76c-1.15-2.19-2.76-4.25-4.52-6
		c-11.72-11.59-36.62-11.71-48.64,3.52c-5.4,6.85-10.57,11.68-19.66,11.11c-1.92-0.12-4.13,0.65-5.86,1.63
		c-6.61,3.77-12.68,8.15-16.59,15.03c-4.74,8.35-9.91,16.46-14.6,24.84c-2.68,4.79-6.36,8.38-11.05,10.97
		c-6.05,3.35-11.36,1.15-13.12-5.37c-0.47-1.75-0.72-3.59-0.86-5.4c-1.19-15.52-2.38-31.05-3.46-46.58
		c-1.45-20.96,0.71-34.27,8.21-48.14c12.76-23.58,39.69-36.55,61.94-38.9c14.69-1.55,12.1,0.72,45.04,4.09
		c16.91,1.73,33.3-1,49.36-5.92c5.43-1.66,10.57-4.38,15.68-6.94c2.2-1.1,4.11-2.9,5.91-4.63c4.95-4.77,6.52-10.35,3.36-16.77
		c-1.71-3.47-0.34-7.83,0.34-10.08c3.24-10.64,23.65-7.29,36.14-17.43c1.22-0.99,4.91-4.18,8.84-3.4c0.68,0.13,2.27,0.41,4.39,2.34
		c3.24,2.97,7.14,5.38,11.86,3.32c3.12-1.36,6.18-2.99,9.01-4.88c5.67-3.79,11.19-7.82,16.71-11.83c1.28-0.93,2.47-2.06,3.46-3.29
		c7.38-9.11,10.04-20.33,13.69-31.09c0.43-1.25,0.21-2.73,0.27-4.1c0.16-4-1.15-7.08-4.99-8.95c-2.41-1.17-4.6-2.77-6.93-4.2
		c0.28-1.52,0.28-2.71,0.71-3.72c4.23-9.88,8.4-19.79,12.87-29.56c2.38-5.21,1.95-8.99-2.53-12.63c-2.1-1.71-4.47-3.1-6.76-4.66
		c0.19-1.81,0.19-3.43,0.54-4.97c1.39-6.02,2.81-12.03,4.38-18.01c2.24-8.54-2.43-15.74-11.21-16.71c-2.46-0.27-5.22-0.35-7.47,0.47
		c-5.56,2.03-11.97,3.46-16.14,7.23c-9.82,8.88-20.93,11.3-33.51,10.49c-8.75-0.56-14.26,4.28-18.86,11.36
		c-5.34,8.23-11.39,16.01-17.49,23.71c-2.35,2.97-5.59,5.32-9.83,5.34c-0.52-0.84-1.1-1.37-1.18-1.97c-0.47-3.4-0.83-6.82-1.2-10.24
		c-0.42-3.89-0.88-7.69-3.89-10.72c-8.38-8.42-22.18-7.92-28.7,1.92c-4.01,6.06-9.2,10.08-15.34,13.27
		c-6.17,3.2-11.5,7.35-16.31,12.39c-6.48,6.8-13.51,12.92-21.7,17.78c-7.96,4.73-10.18,1.03-11.91-4.9
		c-0.68-2.33-1.32-5.37-0.39-7.34c3.4-7.21,6.72-14.67,11.5-20.95c4.81-6.31,11.63-10.82,18.49-15.16
		c8.46-5.36,17.51-10.14,24.27-17.75c6.98-7.86,14.08-15.72,20.12-24.29c10.34-14.65,16.22-31.2,17.71-49.13
		c0.96-11.58,3.43-22.5,10.42-32.16c5.92-8.18,5.36-17.37,1.77-26.09c-2.99-7.26-12.09-8.92-18.17-4.21
		c-1.74,1.35-3.61,2.54-6.47,4.54c-1.39-5.68-2.85-10.22-3.56-14.88c-1.21-7.86-3.74-14.75-11.54-18.27
		c-5.86-2.64-11.26-5.86-16.23-10.02c-11.78-9.87-30.76-6.33-37.76,3.5c-1.05,1.48-2.43,2.74-3.74,4.03
		c-4.42,4.35-9.46,6.98-15.94,6.72c-4.33-0.17-8.69,0.55-13.04,0.64c-10.23,0.22-16.85,4.98-19.49,15.03
		c-1.24,4.7-4.05,7.97-8.58,10.08c-6.34,2.96-10.72,8.02-12.41,14.8c-1.04,4.16-1.23,8.6-1.28,12.93
		c-0.05,4.57,0.74,9.15,0.78,13.73c0.06,6.82-2.99,9.95-9.77,9.96c-6.37,0.01-10.61,3.23-12.63,8.79c-1.94,5.34-3.13,11-4.12,16.62
		c-0.41,2.34,0.06,5.11,0.96,7.36c2.81,7,6.33,13.72,8.97,20.78c2.4,6.41,4.26,13.06,5.9,19.72c1.09,4.43-0.87,8.31-4.58,10.72
		c-3.79,2.46-7.94,2.21-11.5-0.78c-6.46-5.41-12.9-10.67-17.06-18.46c-4.83-9.05-11.78-15.88-23.33-15.03
		c-3.48,0.25-6.22-1.16-8.34-3.89c-3.79-4.88-7.53-9.79-11.4-14.61c-7.52-9.38-16.27-16.11-29.37-13.76
		c-7.12,1.27-12.43,6.1-13.91,13.16c-0.27,1.29-0.75,2.54-1.25,4.17c-4.81-0.27-9.59,0.28-13.86-0.94
		c-8.57-2.46-16.34,0.08-24.12,2.63c-7.55,2.47-11.19,8.07-10.16,15.84c0.78,5.85,2.57,11.58,4.05,17.33
		c0.68,2.65,1.61,5.25,2.57,7.82c1.32,3.53,0.09,6.05-2.55,8.51c-3.34,3.12-6.39,6.55-9.44,9.96c-5.41,6.04-5.83,12.29-1.75,19.51
		c3.34,5.91,5.47,12.49,8.17,18.76c0.97,2.26,0.52,4.1-1.65,5.25c0,0-2.35,1.37-5.94,4.79c-4.32,4.1-3.63,11.83-3.39,14.53
		c0.19,2.11,0.86,4.18,0.87,5.06c0.03,2.16,0.97,4.45,2.01,6.42c3.65,6.96,9.59,11.45,16.4,15.15c9.42,5.13,15.5,12.73,16.15,23.91
		c0.65,11.11,7.22,17.27,17.18,20.73c9.07,3.15,18.13,6.36,27.11,9.76c13.52,5.11,24.6,14.1,35.42,23.28
		c11.28,9.57,21.06,20.45,25.31,35.21c0.44,1.52,1.41,2.88,2.05,4.35c2.95,6.69,6.14,13.29,8.73,20.12
		c3.06,8.1,2.6,16.58,2.25,25.12c-0.55,13.49-0.32,27.01-0.56,40.52c-0.03,1.46-0.5,3.35-1.48,4.29
		c-5.78,5.51-11.79,10.78-17.69,16.18c-2.1,1.92-3.88,2.34-6.64,0.63c-6.99-4.34-16.14-2.07-20.22,4.86
		c-5.13,8.7-10.19,17.46-9.01,28.26c0.49,4.45-1.49,8.04-5.03,10.7c-2.01,1.51-3.99,3.16-6.22,4.25c-4.79,2.32-7.2,6.34-8.33,11.18
		c-1.79,7.65-2.11,15.22-0.47,22.7c0.89,4.05,2.09,6.88,2.39,7.64c6.78,17.34-4.83,64.72-17.23,64.75
		c-8.48,0.02-17.07-22.12-18.02-38.54c-0.39-6.66,0.17-13.4,1.69-23.78c1.45-9.93,2.18-14.89,3.91-19.93
		c2.99-8.7,3.04-11.68,12.87-23.57c5.51-6.66,8.49-13.98,10.25-22.15c3.84-17.86,0.86-34.09-11.51-48.03
		c-5.6-6.32-9.6-13.21-10.44-21.91c-0.39-4.01-2.29-7.87-3.58-11.78c-0.69-2.08-1.87-4.05-2.27-6.18c-0.94-5.09-4.99-8.3-7.39-12.48
		c-1.55-2.69-5.69-0.93-6.33-0.82c-4.64,0.76-5.72,4.16-8.88,4.05c-2.4-0.09-2.75-2.09-6.83-5.6c-0.92-0.79-6.75-5.75-15.21-7.51
		c-2-0.42-4.07-0.64-6.21-0.67c-7.99-0.09-14.26,3.08-17.39,10.91c-1.1,2.75-1.9,5.62-2.92,8.4c-1.57,4.29-2.92,8.7-4.89,12.8
		c-1.58,3.28-3.87,5.37-6.53,6.21c-4.03,1.27-7.98-0.86-9.88-1.94c-11.07-6.24-14.79-20.88-17.22-30.43
		c-0.22-0.85-2.36-4.51-2.56-12.3c-0.21-8.29-1.85-16.26-7.7-22.94c-5.06-5.78-6.07-6.5-13.43-3.3c-2.2,0.96-3.79,0.93-5.05,1.01
		c-4.92,0.3-6.54-3.7-11.02-5.42c-8.7-3.34-15.39,6.78-25.45,3.09c-2.26-0.83-4.32-2.07-4.96-2.7c-2.94-2.88-5.67-5.97-8.47-9
		c-6.62-7.16-14.66-8.97-23.61-5.43c-6.36,2.51-9.56,7.74-11.41,13.77c-1.21,3.93-3.41,5.65-7.29,5.95
		c-2.97,0.22-6.02,0.36-8.85,1.18c-4.57,1.32-9.58,2.32-13.35,4.96c-6.89,4.83-11.96,11.02-10.13,20.74
		c1.02,5.4,4.29,9.12,7.4,12.92c4.34,5.3,6.83,10.66,4.91,17.64c-0.65,2.37-0.84,5.11-0.37,7.51c0.73,3.72,1.22,8.23,3.57,10.76
		c6.68,7.21,14.13,13.72,23.83,16.95c11.03,3.68,18.57,11.46,24.03,21.42c3.25,5.93,1.84,8.22-5.04,8.7
		c-0.69,0.05-1.4,0.16-2.06,0.03c-6.62-1.38-12.12,1.41-17.42,4.76c-10.35,6.53-11.41,11.14-5.07,21.42
		c4.58,7.43,4.33,7.24-1.13,14.57c-2.38,3.18-4.64,7.24-4.93,11.05c-0.85,11.2,1.1,21.96,9.03,30.71
		c3.84,4.24,7.81,8.38,11.91,12.38c3.19,3.11,7.03,5.2,11.61,5.36c8,0.27,16.01,0.36,24,0.67c4.79,0.19,9.64,0.27,14.35,1.07
		c5.48,0.94,9.21,4.67,12.33,9.17c2.71,3.9,1.13,7.36-0.35,11.02c-1.76,4.34-0.24,8.31,2.47,11.51c2.17,2.55,4.98,4.81,7.94,6.39
		c11.4,6.12,23.47,6.69,36.03,4.25c17.3-3.36,34.61-6.75,52.44-6c7.47,0.31,14.47,2.08,21.35,4.62c5.26,1.95,9.38,5.55,13.25,9.56
		c1.68,1.74,2.12,3.29,1.27,5.5c-4.32,11.25-12.33,19.07-23.74,22.03c-10.03,2.6-20.28,2.05-30.21-2.53
		c-9.78-4.51-20.07-7.89-31.1-7.74c-22.56,0.31-42.09,7.6-57.59,24.63c-10.96,12.05-25.92,17.01-41.13,19.02
		c-16.52,2.19-32.64,4.17-46.6,14.16c-0.55,0.4-1.19,0.68-1.8,0.99c-8.52,4.31-11.43,13.7-6.75,21.92c0.77,1.36,1.73,2.61,2.91,4.36
		c-3.1,3.28-6.07,6.41-9.02,9.55c-9.48,10.04-13.93,21.89-12.67,35.71c0.67,7.3,3.51,12.89,10.87,16.12
		c3.22,1.41,6.88,4.88,7.68,8.09c1.65,6.59,2.11,14.01-0.85,20.25c-4.29,9.03-9.56,17.65-16.9,24.77
		c-4.95,4.81-9.65,10.05-10.9,17.1c-1.74,9.85-1.69,19.33,8.75,25.17c1.09,0.61,2.01,2.6,1.99,3.93c-0.08,4.54-0.22,9.15-1.1,13.58
		c-0.75,3.81,0.27,6.79,0.78,9.34c1.43,7.11,6.31,19.34,15.11,21.44c3.03,0.72,7.3,0.53,8.08,0.36c2.24-0.48,4.5-0.91,6.77-1.15
		c5.93-0.62,12.03-1.45,17.52,1.49c11.62,6.22,23.43,6.22,35.05,0.82c9.95-4.63,18.34-11.47,22.05-22.33
		c4.71-13.8,13.16-25,23.19-35.25c2.44-2.49,4.94-3.38,7.81-1.09c4.16,3.32,7.89,2.04,12.02-0.28
		c14.15-7.93,23.84-19.64,30.23-34.37c3.6-8.28,11.04-12.51,20.88-11.79c0.29,2.1,0.97,4.35,0.82,6.55
		c-0.5,7.47,3.33,13.07,7.45,18.65c2.24,3.03,4.83,3.61,8.4,2.6c6.96-1.98,12.28-5.9,16.1-12.01c1.05-1.68,2.38-3.18,3.24-4.31
		c4.67,1.85,8.53,4.18,12.66,4.87c12.14,2.02,23.62-5.69,27.85-18.42c1.65-4.98,2.63-10.2,3.72-15.35
		c1.42-6.72,4.25-11.6,11.75-13.43c8.09-1.97,14.31-10.91,13.43-19.18c-0.99-9.3-2.65-18.53-8.04-26.69
		c-6.1-9.23-10.37-19.37-13.21-30.09c-3.42-12.91-8.32-25.15-15.18-36.67c-2.27-3.81-4.25-8.34-4.55-12.66
		c-0.58-8.44,7.75-18.11,16.52-20.5c10.69,13.41,24.6,31.98,39.34,55.15c4.16,6.54,16.22,24.1,28.58,49.87
		c35.01,73,32.23,95.8,29.93,106.46c-0.47,2.16-0.93,3.89-1.22,4.93c-11.76,1.88-16.19-5.54-19.97-13.81
		c-0.29-0.62-0.7-1.22-0.84-1.88c-0.82-3.95-3.48-6.47-6.83-8.15c-3.45-1.73-7.06-3.29-10.75-4.37c-6.95-2.03-11.23-0.15-14.94,6.23
		c-1.94,3.34-3.61,6.84-5.65,10.71c-5.41,0.34-10.91,0.47-16.35,1.08c-9.06,1.01-15.3,7.01-15.77,15.37
		c-0.16,2.87,0.49,5.97,1.49,8.7c1.97,5.43,0.84,9.91-3.2,13.76c-5.48,5.22-7.25,12.03-8.49,19.09c-0.44,2.48-0.75,4.99-1.27,7.45
		c-1.23,5.76-0.58,11.27,1.18,16.89c2.73,8.71,5.18,17.53,7.25,26.42c0.63,2.73,0.07,5.97-0.73,8.74c-1.07,3.7-3.85,4.51-6.86,2.1
		c-2.29-1.83-4.22-4.17-6.06-6.48c-3.35-4.19-6.95-8.31-12.49-9.02c-6.36-0.81-12.83-0.54-18.88,2.07
		c-7.31,3.16-9.05,6.2-7.75,13.99c1.13,6.78,2.16,13.62,4,20.21c2.27,8.14-0.25,14.84-4.76,21.24c-0.92,1.31-2.22,2.35-3.09,3.68
		c-3.21,4.94-6.69,9.76-9.3,15c-0.99,1.98-2.19,6.14-2.54,10.66c-0.79,10.23,3.75,22.38,12.43,29.86
		c5.75,4.95,12.67,7.54,23.58,15.22c5.46,3.85,7.78,9.54,7.59,16.08c-0.12,4.28-0.89,8.54-1.4,13.05c-9.67,2.71-19.22,1-28.25-0.02
		c-15.93-1.8-30.9-7.41-44.91-15.83c-10.94-6.57-22.57-12.24-34.41-17.03c-14.67-5.93-29.93-5.9-44.94-0.43
		c-9.64,3.51-9.96,4.23-9,14.65c0.04,0.42-0.21,0.87-0.4,1.57c-5.76,3.31-11.62,6.87-17.67,10.05c-2.81,1.48-6,2.22-9.01,3.32
		c-4.91,1.8-9.79,3.7-14.74,5.41c-4.79,1.65-7.24,5.05-8.67,9.79c-0.74,2.45-2.28,4.99-4.17,6.7c-5.24,4.74-10.84,9.07-16.31,13.56
		c-2.41,1.98-4.29,4.24-3.69,7.63c1.09,6.13,2.5,12.16,7.01,16.88c2.22,2.32,4.47,4.6,6.73,6.87c3.23,3.25,4.05,7.02,2.66,11.36
		c-1.59,5-4.45,9.19-8.89,11.85c-4.87,2.92-10.36,4.84-15.09,7.95c-6.65,4.36-13.73,7.05-21.5,8.48c-3.18,0.58-5.84,1.79-7.97,3.65
		c0,0-0.31,0.28-0.62,0.59c-6.28,6.36-7.68,25.27-7.16,27.78c0.04,0.18,0.24,1.04,0.13,2.19c-0.26,2.57-1.44,3.23-7.27,12.72
		c-1.88,3.05-2.2,3.68-2.43,4.65c-0.88,3.63,0.42,7.17,1.83,10.78c0.71,1.82,2.49,3.22,3.75,4.85c1.74,2.24,3.23,4.62,1.79,7.56
		c-2.32,4.75-4.57,9.65-9.87,11.86c-7.67,3.2-11.63,9.49-15.78,16.37c-4.46,7.4-4.23,12.65,2.15,18.33
		c1.87,1.67,3.34,2.89,5.83,2.64c4.56-0.46,9.12-1.04,13.69-1.23c1.9-0.08,5.01,0.19,5.48,1.24c0.76,1.68,0.49,4.64-0.59,6.2
		c-2.86,4.11-6.26,7.88-9.68,11.57c-4.89,5.26-7.71,7.52-8.67,9.81c-1.86,4.46-2.25,11.47,1.66,15.42
		c4.11,4.15,11.16,3.07,16.28,2.29c4.3-0.66,5.22-0.16,14.34-3.83c3.17-1.28,7.27-1.21,10.73-0.56c3.74,0.7,3.52,4.82,4.57,7.79
		c1.66,4.71,6.14,7.6,11.21,7.07c12.39-1.3,22.73-6.8,30.74-16.3c3.98-4.72,7.26-10.03,11.11-14.86c3.19-4.01,5.42-4.17,8-0.05
		c3.94,6.26,11.88,7.42,17.58,4.57c4.67-2.33,9.32-4.91,13.46-8.06c4.1-3.11,7.97-1.67,11.53-0.08c3.24,1.45,3.51,5.15,3.19,8.46
		c-0.69,7.3-1.55,14.58-2.25,21.87c-0.22,2.27-0.45,4.6-0.17,6.84c0.71,5.72,3.55,8.15,9.28,7.61c2.89-0.27,5.96-0.96,8.49-2.32
		c10.68-5.73,21.4-11.46,29.87-20.47c1.87-1.99,3.88-3.96,6.13-5.48c2.42-1.63,5.26-3.95,7.81-3.83c7.77,0.38,13.37-3.59,17.95-8.59
		c6.16-6.73,11.44-14.28,16.85-21.66c1.73-2.36,2.54-5.36,3.98-7.96c1.88-3.38,3.6-6.95,6.03-9.91c5.36-6.54,7.31-6.34,12.28,0.43
		c3.39,4.61,5.88,5.76,11.09,3.71c2.83-1.11,6.04-3.06,7.47-5.56c4.06-7.11,8.1-14.43,10.63-22.16c2-6.12,1.8-8.87,3.82-22.2
		c2.43-16.02,2.39-13.64,4.01-24.77c3.23-22.26,2.54-23.85,5.15-32.31c2.39-7.71,6.11-14.85,11.99-20.6
		c3.32-3.25,6.93-5.94,10.81-8.07c1.69-0.93,7.93-4.22,16.37-5.5c4.38-0.67,21.89-3.34,34.35,7c7.93,6.58,9.9,15.17,12.97,28.53
		c1.43,6.24,3.78,19.09,1.5,41.83c-1.46,14.58-4.54,22.67-6.59,35.73c-4.71,30.06-8.95,60.2-13.71,90.25
		c-2,12.64-4.71,25.17-7.4,37.69c-1.29,6.04-3.34,11.91-4.92,17.89c-6.3,23.91-12.38,47.87-18.85,71.73
		c-6.65,24.5-12.96,49.13-24.67,71.92c-1.48,2.89,0.01,6.02,3.01,7.41c2.81,1.31,4.75,0.54,6.66-2.8c0.68-1.19,1.21-2.47,1.68-3.76
		c6.88-18.91,14.75-37.46,19.51-57.12c2.31-9.55,5.83-18.8,8.49-28.28c2.84-10.13,5.17-20.4,7.96-30.55c2.23-8.12,2.67-8,5.25-16.3
		c5.09-16.38,11.49-36.98,12.72-57.58c0.14-2.38,0.17-6.42,0.97-12.28c0.93-6.79,2.11-13.56,3.31-20.31
		c1.2-6.75,2.79-13.44,3.78-20.22c0.72-4.95,0.41-10.05,1.16-14.99c1.94-12.65,2.63-15.42,6.1-35.85
		c1.42-8.37,1.59-10.46,2.43-16.34c0.48-2.81,0.91-5.66,1.29-8.56c3.71-28.12,1.98-54.27-2.39-77.47c-1.79-9.2-5.1-26.76-5.02-49.25
		c0.05-11.63,0.31-20.28,2.6-34.85c2.52-16.03,6.45-31.85,6.34-48.21c-0.1-14.41,0.11-28.86-3.47-43c-0.27-1.06-0.26-2.18-0.38-3.28
		c8.31,21.89,9.78,39.63,9.64,51.63c-0.31,27.14-9.06,41.4-9.13,79.7c-0.02,11.73,0.1,17.56,1.55,25.35
		c2.8,15.01,5.26,25.57,9.22,37.97c4.06,12.71,8.31,25.74,12.18,25.35c1.68-0.17,2.64-2.53,4.27-6.17c0,0,9.14-20.49,22.92-39.31
		c2.53-3.46,4.58-5.87,6.45-8.04c8.59-10.04,19.79-23.13,36.78-31.28c3.81-1.83,11.58-4.32,26.93-9.85
		c3.44-1.24,6.99-2.2,10.39-3.52c11.22-4.35,23.27-4.82,34.84-7.58c8-1.91,16.37-2.31,24.29-4.43c8.81-2.36,17.33-5.8,25.91-8.96
		c5.99-2.2,10.32-4.3,12.66-5.35c17.71-7.87,36.72-16.63,47.57-21.66c-11.63,8.25-31.96,21.52-55.37,30.59
		c-12.11,4.69-26.02,8.63-27.35,9.01c-7.88,2.29-15.89,4.29-23.95,5.79c-9.2,1.71-18.71,1.97-27.74,4.23
		c-12.39,3.1-24.36,7.82-36.69,11.24c-10.47,2.9-17.59,10.11-24.91,17.32c-5.04,4.97-10.48,9.54-15.45,14.58
		c-4.5,4.56-8.63,9.48-12.88,14.28c-1.24,1.41-1.95,2.2-2.39,2.69c-0.46,0.52-0.77,0.86-0.78,0.88c-1.05,1.17-7.22,9.28-10.38,15.4
		c-15.6,30.25-24.18,70.61-24.18,70.61c-1.17,5.29-3.5,19.56-8.34,48.07c-3.33,19.63-6.4,39.3-9.9,58.9
		c-2.54,14.19-5.53,28.31-8.46,42.43c-2.32,11.2-4.82,22.35-7.28,33.52c-1.52,6.93-3.16,13.83-4.65,20.77
		c-0.8,3.7,1.06,7.03,4.48,8.1c3.55,1.11,4.94-1.57,6.24-3.96c1.9-3.47,2.24-5.75,2.24-5.75c5.1-25.28,12.66-50.13,15.97-75.71
		c2.52-19.51,5.76-38.93,9.28-58.29c3.96-21.81,9.1-43.4,11.73-65.46c0.76-6.4,1.97-9.47,3.04-14.05
		c6.52-28.1,10.22-43.44,20.43-59.35c2.53-3.94,8.08-12,17.18-20.13c6.04-5.39,12.21-10.78,21.85-13.38
		c1.88-0.51,8.72-2.1,16.88-0.66c6.35,1.12,10.56,3.82,13.27,9.37c5.71,11.73,11.51,23.42,17.06,35.23
		c4.39,9.35,10.97,16.81,19.08,22.96c1.75,1.33,4.04,2.1,6.2,2.7c0.88,0.24,3.06,0.37,5.94-0.47c9.39-2.72,12.05-12.62,18.5-12.36
		c3.7,0.15,7.75,3.6,9.68,6.58c1.03,1.58,1.04,2.4,2.37,3.84c2.13,2.3,5.05,3.56,8.14,3.95c10.94,1.37,20.32-6.89,20.46-17.85
		c0.04-2.87,0.16-2.44,0.76-5.32c0.34-1.62,3.25-14.68,13.8-20.12c2.34-1.21,4.64-1.58,8.59-2.34c9.84-1.9,19.63-0.65,29.41,0.76
		c12.45,1.8,24.85,4.14,37.53,3.68c3.35-0.12,5.62,0.11,8.89-0.02c11.48-0.45,19.91-2.71,36.29-7.21
		c6.95-1.91,13.18-5.57,19.63-9.94c1.05-0.71,2-2.12,2.26-3.36c1.26-6.15,2.12-12.3-3.05-17.39c-0.9-0.88-1.47-2.09-2.32-3.34
		c1.23-0.96,2.04-1.79,3.01-2.31c6.64-3.54,13.24-7.18,20.01-10.47c5.95-2.89,10.34-6.88,10.96-13.78
		c0.32-3.61,0.18-7.29-0.01-10.92c-0.2-3.76-2.31-6.08-5.69-7.89c-3.79-2.03-7.43-4.56-10.65-7.41c-4.02-3.56-4.11-6.77-1.84-11.71
		c3.7-8.07,10.72-12.21,18.21-15.84c5.35-2.59,10.74-5.1,16.12-7.62c4.08-1.91,6.65-5.11,9.21-8.83c5.72-8.29,7.9-17.23,7.64-27.12
		c-0.07-2.63,0.55-5.6,1.82-7.89c3.86-7,9.36-12.28,17.05-15.24c3.36-1.29,6.45-3.4,9.5-5.38c3.01-1.96,5.25-4.25,6.56-7.1
		c0.19-0.41,3.88-8.1-0.25-15.28c-3.37-5.85-10.56-8.98-17.87-7.62c0.71-1.96,1.22-3.46,1.78-4.94c2.4-6.3,3.77-12.73,2.66-19.51
		c-1.17-7.12-5.77-11.43-13.07-11.57c-3.84-0.07-7.72,0.44-11.53,1.05c-7.48,1.2-8.46,0.84-12.12-5.68c-0.78-1.4-1.26-3.14-2.4-4.13
		c-2.35-2.06-4.86-4.85-7.65-5.33c-7.53-1.31-15.53-1-21.84,3.55c-7.54,5.44-15.52,6.4-24.09,5.17c-8.3-1.19-15.22,0.56-21.16,6.91
		c-3.95,4.22-9.29,6.59-15.06,7.77c-5.06,1.04-9.69-0.67-13.86-2.85c-2.01-1.05-2.83-4.37-4.17-6.67c-0.8-1.38-1.42-2.89-2.37-4.16
		c-3.76-5-7.5-5.34-13.01-2.21c-5.93,3.37-9.15,8.71-12.26,14.39c-3.76,6.84-4.56,7.06-12.19,5.46c-0.52-1.57-1.05-3.3-1.67-4.99
		c-1.74-4.75-2.24-5.01-6.96-4.46c-7.29,0.85-12.98,3.35-15.23,11.39c-1.13,4.05-3.48,8.01-6.11,11.35
		c-4.49,5.7-8.9,4.83-11.69-1.89c-2.3-5.56-3.45-11.36-3.34-17.43c0.09-4.79-2.43-8.25-7.01-8.37c-9.18-0.24-18.42-0.05-25.38,7.63
		c-2.76,3.04-5.82,5.87-10.82,6.29c-1.39-3.02-2.63-6.17-4.25-9.12c-2.77-5.05-6.2-6.28-11.47-4.21c-6.91,2.72-12.3,7.09-14.74,14.4
		c-1.76,5.27-1.68,6.72-2.76,9.21c-2.67,6.19-11.83,11.22-19.34,10.34c-3.45-0.4-6.65-2.49-10.72-0.57
		c-3.8,1.8-6.84,3.71-12.28,9.54c-3.22,3.45-6.36,6.88-8.81,12.3c-1.87,4.15-2.59,7.62-2.76,9.13c-1.63,14.31-3.41,28.62-4.6,42.97
		c-1.41,17.14-3.82,34.09-7.7,50.84c-2.06,8.91-5.72,17.23-9.08,25.69c-3.37,8.51-8.51,15.57-15.41,21.52
		c-15.03,12.95-27.56,35.07-30.6,40.3c-7.06,12.18-7.98,17.27-10.39,16.96c-5.1-0.66-7.76-24.3-4.55-45.2
		c1.29-8.39,3.25-14.6,4.17-17.31c3.08-9.12,8.5-27.8,24.52-39.32c7.04-5.06,14-10.23,20.86-15.53c3.28-2.54,6.19-5.35,8.73-8.44
		c1.24-1.51,5.62-6.98,9.21-16.24c2.69-6.93,8.76-22.6,4.28-39.13c-1.54-5.67-4.24-11.17-5.36-21.79c-0.1-0.99-1.19-4.1-0.45-8.24
		c2.14-11.88,5.08-23.62,3.17-35.99c-1.18-7.64-5.37-14.1-12.88-15.85c-3.05-0.71-6.32-0.62-9.49-0.62c-5.95,0-7.03-0.69-8.81-6.45
		c-0.34-1.09-0.59-2.22-0.77-3.35c-1.21-7.45-2.4-14.91-3.57-22.37c-0.61-3.88-0.79-8.57-4.71-10.15
		c-6.19-2.49-6.36-7.14-6.12-12.32c0.41-8.68,0.52-17.4,1.47-26.02c0.84-7.69,2.04-15.45,4.17-22.87
		c4.22-14.73,8.82-29.38,13.96-43.81c3.9-10.98,8.12-21.97,13.55-32.24c7.48-14.15,15.95-27.81,24.54-41.32
		c6.92-10.88,15.67-20.41,26.35-27.67c7.74-5.26,16.16-9.74,25.76-10.83c8.37-0.95,16.8,0.23,21.46,7.73
		c5.43,8.74,9.25,18.56,8.35,29.28c-0.89,10.72-2.11,21.42-3.49,32.09c-1.55,11.99-4.17,23.75-4.83,35.98
		c-0.57,10.57-1.05,20.93,0.14,31.45c1.46,12.9,6.37,23.68,17,31.61c3.79,2.83,7.41,5.21,12.49,4.47c1.58-0.23,4.01,0.28,4.91,1.38
		c3.12,3.84,6.93,7.17,8.23,12.44c1.94,7.88,6.19,14.73,10.94,21.27c8.58,11.8,20.9,12.54,29.73,5.1c2.72-2.29,5.11-1.79,7.5-0.4
		c3.95,2.3,7.73,4.92,11.51,7.5c3.97,2.71,7.68,5.83,11.81,8.26c5.68,3.34,12,3.85,17.72,0.61c3.11-1.76,5.21-5.33,8.11-8.46
		c3.58-1.27,5.34,2.92,8.42,4.06c9.01,3.33,17.9,6.83,27.74,7.29c11.47,0.54,20.19-4.81,28.13-12.09c1.06-0.98,1.31-2.84,1.94-4.29
		c0.98-2.25,1.97-4.5,2.96-6.74c15.82-0.18,20.76-4.32,22.52-7.76c3.3-6.45-1.43-16.67-8.9-32.84c0,0-4.74-9.24-5.56-23.7
		c-0.17-3,0.65-5.11,3.3-6.9c4.36-2.94,8.48-6.26,12.56-9.58c8.8-7.16,9.61-18.32,4.92-26.6c-8.61-15.18-21.92-24.37-38.16-29.47
		c-11.85-3.72-21-9.9-24.75-22.44c-1.02-3.41-1.08-6.42,1.74-8.77c4.05-3.37,8.49-6.44,9.11-6.86c3.03-2.04,8.04-6.78,8.16-11.6
		c0.07-2.74,1.68-12.51-14.8-15.93c-6.53-1.35-10.46-5.89-14.96-10.78c1.65-0.51,2.69-0.96,3.78-1.14c0.86-0.14,1.85-0.16,2.66,0.12
		c9.55,3.17,18.56,7.65,23.69,16.6c3.9,6.81,9.01,12.36,15.14,16.55c7.86,5.38,16.23,10.75,25.18,13.6
		c9.67,3.07,20.24,3.45,30.47,4.54c4.25,0.45,8.68,0.01,12.93-0.62c3.42-0.51,5.71-2.76,5.9-6.58c0.17-3.6,0.42-7.19,0.64-10.9
		c0.76-0.42,1.51-1.13,2.35-1.25c2.94-0.42,5.92-0.5,8.85-0.94c10.85-1.65,19.68-5.94,18.61-17.6c-0.44-4.83,2.84-7.73,7.09-8.94
		c5.45-1.56,11.03-2.92,16.64-3.66c10.54-1.39,17.06-9.43,15.76-20.06c-0.19-1.51-0.2-3.03-0.35-5.32
		c9.16-0.4,17.93-1.49,26.71-0.18c4.72,0.7,8.89,0.18,13.16-2.19c8.39-4.65,10.54-13.16,12.72-21.12
		C2000.69,1361.68,1998.39,1356.54,1995.9,1353.76z M1653.53,1927.92c-10.8,5.25-18.79,15.7-18.74,22.98c0,0.48,0.02,1.36-0.02,2.74
		c-0.21,7.5-2.26,10.46-2.26,10.46c-2.07,3-6.76,5.62-10.39,4.47c-3.24-1.03-3.98-4.56-10.13-10.98c-0.58-0.61-1.73-1.78-3.58-2.5
		c-1.55-0.6-3.26-0.76-5.12-0.49c-7.59,1.11-14.58,2.85-19.56,9.77c-4.12,5.73-7.02,5.53-12.48,0.87
		c-5.62-4.81-9.88-10.33-12.78-17.44c-4.48-10.98-10.1-21.52-15.6-32.06c-5.23-10.02-13.34-16.04-25.07-16.46
		c-4.53-0.16-9.05-0.72-13.8-1.12c0.06-0.63-0.12-1.52,0.23-1.83c14.41-13.2,30.83-21.36,50.93-19c13.6,1.59,27.21,3.4,40.65,6
		c14.51,2.8,27.74,9.01,39.88,17.52c4.11,2.88,8.4,5.51,12.58,8.3c1.52,1.01,3.05,2.05,4.38,3.29c4.11,3.84,8.12,7.79,12.52,12.03
		C1659.83,1925.18,1655.9,1926.77,1653.53,1927.92z M1855.49,1786.41c-1.48,4.48-3.17,9.52-6.39,12.67
		c-5.15,5.04-11.2,9.31-18.88,10.55c-16.46,2.66-24.62,16.7-27.73,28.3c-1.79,6.69,0.3,13.24,6.11,17.87
		c3.75,2.99,7.61,5.84,11.49,8.68c3.67,2.68,4.17,5.31,0.87,8.42c-2.11,1.99-4.77,3.54-7.42,4.78c-5.18,2.43-10.79,4.04-15.7,6.89
		c-4.25,2.47-8.32,5.72-11.49,9.46c-4.27,5.03-3.06,10.95,2.09,15.02c1.75,1.39,3.54,2.74,6.54,5.05
		c-7.32,4.41-13.49,7.93-20.4,9.34c-11.65,2.38-23.37,5.02-35.18,5.83c-10.18,0.7-20.55-0.67-30.78-1.71
		c-9.78-0.99-19.45-3-29.22-4.04c-6.69-0.71-12.23-3.1-17.02-7.82c-5.55-5.45-11.48-10.42-18.38-14.26
		c-6.37-3.54-12.08-8.31-18.53-11.66c-16.92-8.78-35.4-11.97-54.11-14.09c-2.92-0.33-5.83-0.79-8.91-2.2
		c8.52-2.06,15.53-3.79,20.39-5c42.02-10.48,52.54-14.14,63.39-19.47c6.07-2.99,5.59-3.05,13.18-6.94
		c11.23-5.74,22.7-10.82,34.86-14.36c7.01-2.04,13.71-5.11,20.65-7.4c12.8-4.22,25.58-8.55,38.56-12.13
		c5.65-1.56,11.79-1.88,17.7-1.83c9.79,0.09,18.98-2.55,28.32-4.78c14.36-3.45,27.35-10.25,40.67-16.27
		c3.31-1.5,6.86-2.59,10.4-3.44C1854.68,1780.89,1856.75,1782.6,1855.49,1786.41z M1891.02,1728.2c0.48,0.35,1.08,0.94,1.44,1.82
		c1.24,3.01-1.05,5.25-3.31,6.88c-2.58,1.86-5.24,3.92-8.19,4.9c-8.35,2.79-13.72,8.75-18.33,15.77c-3.94,6-6.66,12.46-7.48,18.87
		c-6.36,2.76-12.45,5.47-18.42,8.08c-10.3,4.5-15.48,6.69-17.74,7.54c-9.35,3.53-22.24,8.31-38.46,9.6
		c-5.3,0.42-6.36,1.1-12.32,0.79c-7.78-0.4-14.85,1.86-21.97,4.52c-7.05,2.63-14.29,4.74-21.42,7.15
		c-7.13,2.41-14.24,4.9-21.35,7.37c-3.43,1.19-6.84,2.41-10.81,2.67c1.74-1,3.52-1.95,5.25-2.97c0,0,0.89-0.54,1.78-1.09
		c9.63-5.99,28.46-22.3,28.46-22.3c18.07-15.65,33.21-25.32,38.64-28.09c2.65-1.35,5.3-2.74,7.75-4.4
		c16.06-10.82,33.51-18.69,51.69-25.18c10.54-3.76,20.87-8.13,31.3-12.2c4.35-1.7,6.58-2.41,7.74-2.71
		C1865.28,1725.24,1881.34,1721.11,1891.02,1728.2z M1850.06,1693.12c0.38-0.39,1.98-1.66,4.4-2.72c7.57-3.31,19.08-2.18,22.19,3.67
		c2.81,5.3-3.12,11-4.46,20.22c-0.1,0.7-0.36,2.65-1.79,4.36c-0.87,1.04-2.08,1.82-3.77,2.45c-16.49,6.1-32.44,13.74-49.28,18.81
		c-6.71,2.02-15.09,5.17-24.54,10.32c14.98-10.38,23.39-19.9,28.44-27.35C1821.39,1722.64,1830.95,1712.8,1850.06,1693.12z
		 M1790.21,1685.63c8.44-1.5,16.9-2.57,24.82-7.03c9.26-5.22,23.06-5.12,28.98,6.59c0.91,1.8,2.32,3.34,3.65,5.21
		c-0.99,1.39-1.76,2.78-2.81,3.91c-9.94,10.8-16.57,18.58-24.39,26.04c-5.94,5.67-6.32,6.42-8.85,8.9
		c-15.79,15.51-31.94,25.88-47.09,36.23c-29.64,20.24-24.1,18.81-45.16,32.69c-25.84,17.03-50.89,29.52-52.06,27.69
		c-0.87-1.36,12.92-8.38,28.16-26.66c6.17-7.4,10.94-15.21,20.57-29.13c3.89-5.62,7.11-11.73,11.1-17.27
		c11.51-15.97,23.96-31.19,37.68-45.35c5.73-5.92,11.53-11.77,17.17-17.78C1784.28,1687.23,1786.8,1686.24,1790.21,1685.63z
		 M1645.12,1695.08c1.33,4.92,2.46,9.25,3.69,13.55c0.5,1.74,0.92,3.6,1.86,5.09c5.04,7.92,9.75,8.55,16.69,2.27
		c4.84-4.38,8.18-9.82,10.67-15.83c1.16-2.8,2.58-5.3,6.31-5.38c2.67-0.06,4.13,0.61,5.02,3.38c1.74,5.44,2.39,5.32,7.75,5.38
		c3.99,0.04,7.27-0.81,9.89-2.61c3.05-2.09,3.2-4.1,5.9-8.06c4.51-6.62,12.23-12.73,15.48-11.08c1.69,0.85,0.81,3.11,3.47,8.01
		c0.39,0.71,1.66,4.48,4.29,5.78c5.56,2.73,11.49,4.52,17.89,2.69c6.47-1.86,12.37-4.68,17.61-8.99c4.51-3.7,4.6-3.59,9.7-4.23
		c-1.47,1.88-2.37,3.37-3.58,4.53c-20.2,19.43-38.25,40.74-54.79,63.32c-5.66,7.73-10.27,16.22-15.73,24.12
		c-5.46,7.91-10.86,15.95-17.22,23.11c-6.5,7.33-13.85,13.99-21.33,20.36c-16.16,13.76-35.23,22.23-55.59,27.12
		c-14.62,3.51-29.77,4.85-44.66,7.27c-3.6,0.58-7.13,1.57-10.68,2.44c-2.55,0.63-5.08,1.37-8.18,1c4.87-4.37,9.78-8.7,14.6-13.13
		c7.05-6.48,14.13-12.87,18.8-21.54c3.24-6.03,7.41-11.56,10.97-17.43c12.52-20.66,21.95-42.65,28.85-65.81
		c2.74-9.2,6.22-18.18,9.6-27.17C1635,1706.31,1639.34,1700.53,1645.12,1695.08z M1513.21,1856.89c0.86-2.85,1.68-5.71,2.46-8.59
		c6.88-25.56,9.69-52.05,10.91-78.49c0.38-8.18,0.61-16.43,2.55-24.38c2.33-9.56,9.71-26.03,22.11-22.43
		c3.39,0.98,6.81,2.63,10.27,1.98c2.55-0.48,4.69-2.14,6.73-3.75c4.36-3.45,8.85-7.04,11.43-11.97c2.31-4.41,2.92-9.59,5.45-13.88
		c2.53-4.29,8.4-7.44,12.47-4.56c3.4,2.41,3.69,7.71,7.09,10.12c3.07,2.18,7.46,1.04,10.5-1.17c3.05-2.21,5.33-5.33,8.34-7.59
		c5.68-4.26,13.83-4.92,20.12-1.63c-12.31,12.77-17.63,30.51-23.17,47.35c-9.65,29.35-21.32,58.45-39.52,83.42
		c-18.2,24.97-43.57,45.7-73.48,53.48C1509.44,1868.86,1511.4,1862.9,1513.21,1856.89z M1953.9,1327.99
		c3.39-0.03,5.07,1.2,5.76,4.42c0.86,4.03,2.23,7.98,2.83,12.04c0.5,3.42,2.27,5.4,5.23,6.58c3.4,1.36,6.86,2.55,10.27,3.9
		c1.96,0.77,3.85,1.7,5.34,3.76c-3.76-0.69-7.71-0.86-11.26-2.15c-13.18-4.77-27.03-3.97-40.61-5.43
		c-22.75-2.45-45.25,0.83-67.8,3.01c-3.61,0.35-7.25,0.47-10.88,0.7c0.01-0.37,0.01-0.74,0.01-1.11
		c18.53-6.57,36.92-13.61,55.65-19.58C1923.12,1329.45,1938.47,1328.12,1953.9,1327.99z M1872.84,1276.72
		c2.7,7.47,12.95,8.41,18.81,9.36c13.57,2.2,16.46-2.24,22.1,1.46c5.74,3.77,7.92,11.77,9.28,16.76c1.81,6.65,0.59,8.41,2.5,11.83
		c2.06,3.68,6.86,7.69,18.93,9.02c-8.57,1.33-16.92,2.5-25.22,3.94c-15.9,2.75-30.65,9.18-45.74,14.54
		c-9.91,3.52-19.83,7.18-30,9.77c-7.53,1.92-13.73,1.32-18.4,1.28c-30.02-0.2-46.94-4.56-69.79-5.49
		c-9.18-0.37-22.66-0.33-39.24,1.98c-0.02-0.04-0.21-0.45-0.23-0.49c-0.08-0.16-0.15-0.33-0.23-0.49c1.61-0.74,3.15-1.77,4.84-2.18
		c14.99-3.6,26.9-12.38,37.78-22.71c17.25-16.38,36.96-28.27,60-34.69c7.45-2.08,14.71-5.05,21.81-8.17
		c9.84-4.32,19.74-8.37,30.85-11.59C1871.63,1273.06,1872.19,1274.91,1872.84,1276.72z M1757.88,1283.17c0,0,10.21-9.32,27.26-16.91
		c6.78-3.02,13.52-3.7,20.46,0.04c8.01,4.32,16.49,4.95,25.29,2.32c8.77-2.62,17.66-4.71,26.95-4.09c3.15,0.21,6.47-0.24,9.11,3.55
		c-3.5,1.6-6.74,3.14-10.03,4.57c-8.19,3.56-16.3,7.32-24.62,10.53c-7.25,2.79-14.68,5.15-22.14,7.34
		c-20.27,5.93-37.41,17.24-52.64,31.39c-11.27,10.47-23.79,18.26-38.07,24c-15.04,6.05-30.74,8.67-46.46,11.64
		c-6.94,1.31-13.81,3.01-21.84,4.77c1.77-3.42,4.39-3.63,6.31-4.73c2.18-1.25,4.39-2.46,6.67-3.52c7.68-3.56,15.71-6.51,23.04-10.69
		c9.06-5.17,18.1-11.78,35.14-27.14C1732.58,1306.99,1737.56,1301.72,1757.88,1283.17z M1731.64,1213.72
		c1.43-0.78,3.69-1.5,4.86-0.88c1.16,0.62,2.08,3.03,1.91,4.51c-0.37,3.15-1.41,6.25-2.37,9.3c-2.27,7.25-2.82,14.01,1.7,21.02
		c2.01,3.11,2.41,8.03,1.85,11.87c-1.23,8.34-3.27,16.59-5.52,24.73c-1.79,6.46-5.48,11.9-10.11,16.91
		c-8.58,9.28-17.16,18.62-27.98,25.18c-9.15,5.56-19.06,9.86-28.6,14.8c-14.42,7.47-28.74,15.14-43.24,22.45
		c-8.34,4.21-16.95,7.9-25.44,11.83c-0.34-0.38-0.68-0.76-1.02-1.15c5.37-6.19,10.91-12.24,16.07-18.6
		c11.75-14.49,27.51-23.96,42.64-34.12c12.94-8.69,23.89-19.09,32.23-32.31c7.33-11.63,13.85-23.62,19.75-36.06
		c5.87-12.38,13.28-24.04,20.09-35.97C1729.23,1215.88,1730.32,1214.44,1731.64,1213.72z M1719.01,1146.23
		c4.54,1.02,5.67,4.47,5.01,8.36c-1.23,7.19-2.96,14.29-4.47,21.43c-1.32,6.23-3.01,12.42-3.84,18.71
		c-0.84,6.38,2.5,10.93,8.07,13.89c1.81,0.96,3.61,1.93,5.43,2.9c-3.71,6.25-7.48,12.21-10.85,18.39
		c-6.01,11.04-11.55,22.34-17.69,33.31c-5.69,10.17-11.31,20.48-18.05,29.95c-8.99,12.63-21.01,22.19-34.36,30.08
		c-5.02,2.97-9.69,6.52-15.26,9.07c3.37-5.57,6.53-11.29,10.15-16.69c6.62-9.87,9.37-21.31,13.63-32.15
		c5.79-14.73,6.77-30.28,8.22-45.77c0.96-10.25,1.8-20.53,3.21-30.72c1.3-9.42,6.29-17.04,13.38-23.21
		c6.9-6,14.39-11.39,20.85-17.82C1708.36,1160.07,1713.28,1153.15,1719.01,1146.23z M1710.72,1133.38
		c-0.4,4.21,0.92,7.62,4.35,10.85c-1.06,2.23-1.77,4.69-3.21,6.6c-9.17,12.11-20.82,21.65-33.51,32.48
		c0.41-2.55,0.32-3.62,0.74-4.42c3.55-6.66,7.32-13.2,10.77-19.91c4.28-8.33,8.26-16.81,12.47-25.18c1.37-2.73,3.05-5.3,4.69-8.11
		C1710.66,1127.91,1710.98,1130.69,1710.72,1133.38z M1663.81,1147.21c2.82-6.64,7.47-11.41,15.45-11.68
		c5.02-0.16,9.13-2.55,12.78-5.94c2.84-2.64,5.85-5.16,11.16-4.23c-5.1,11.58-9.56,20.75-12.49,26.63
		c-15.58,31.24-25.61,44.61-32.83,70.26c-1.78,6.31-2.86,11.51-3.45,14.58c-0.32-0.01-0.63-0.01-0.95-0.02
		c0.12-15.71-0.17-31.43,0.47-47.12C1654.54,1175,1658.06,1160.76,1663.81,1147.21z M1636.13,1174.62c1.19-0.67,2.4-1.37,3.68-1.82
		c4.62-1.63,9.27-3.15,14.24-4.83c-1.06,6.14-2.72,12.58-3.16,19.1c-0.67,10.02-1.07,20.14-0.51,30.15
		c0.66,11.77-1.14,23.27-1.96,34.89c-1.97,27.9-13.83,51.81-29.18,74.35c-4.57,6.7-9.9,12.88-14.88,19.3
		c-0.4-0.23-0.79-0.46-1.19-0.69c1.16-3.83,2.1-7.74,3.52-11.47c6.5-17.06,3.95-34.04,0.26-51.2c-1.98-9.24-4.88-18.02-9.03-26.45
		c-0.81-1.64-1.47-3.4-2.56-4.83c-1.75-2.28-1.83-4.41-0.73-7.01c2.62-6.17,3.56-12.61,3.81-19.37c0.23-6.32,1.43-12.78,3.38-18.79
		c1.18-3.64,4.51-6.63,7.05-9.77c1.13-1.4,2.86-2.32,4.02-3.71C1619.31,1184.76,1627.53,1179.45,1636.13,1174.62z M1435.76,1412.11
		c0.37,21.96,0.8,43.91,1.22,65.87c0.08,4.22,0.22,8.44,0.34,12.66c-0.44,0.08-0.87,0.17-1.31,0.25c-2.06-4.2-4.2-8.36-6.16-12.6
		c-3.44-7.45-5.28-11.12-11.35-24.76c-7.06-15.87-11.71-18.1-28.37-48.34c-14.12-25.64-11.12-18.89-14.64-30.76
		c-1.55-5.23-3.95-10.23-5.3-15.51c-1.37-5.35-0.41-6.33,4.9-8.62c2.29-0.99,4.39-2.43,6.62-3.59c16.14-8.45,32.36-8.45,48.68-0.5
		c5.23,2.54,7.89,6.38,7.55,12.46c-0.8,14.38-1.33,28.78-1.93,43.17C1435.87,1405.26,1435.7,1408.69,1435.76,1412.11z
		 M1393.57,1330.06c-0.59,0.09-1.22-0.07-1.83-0.11c-0.13-0.31-0.26-0.62-0.39-0.93c5.75-3.06,11.26-6.8,17.32-8.98
		c6.39-2.3,13.26-3.87,20.03-4.43c15.47-1.27,31.01-1.74,46.53-2.5c9.49-0.46,18.48-2.92,27.19-6.54
		c6.54-2.72,13.04-5.53,19.54-8.34c4.19-1.81,8.37-3.65,12.51-5.57c5.88-2.72,6.91-2.63,9.57,3.03c2.03,4.31,3.68,8.88,4.86,13.49
		c3.5,13.69-7.67,29.96-18.43,32.14c-4.25,0.86-8.47,1.86-12.71,2.77c-3.12,0.67-6.24,1.29-9.37,1.91c-4.05,0.8-6.29,3.45-7.48,7.21
		c-0.28,0.87-0.57,1.74-0.8,2.63c-2.71,10.16-11.26,13.87-20.27,8.28c-3.36-2.09-6.54-5.11-8.67-8.43
		c-4.28-6.65-9.59-10.27-17.7-11.13c-4.97-0.53-10.02-3.16-14.41-5.86C1424.9,1329.99,1409.76,1327.49,1393.57,1330.06z
		 M1538.84,1279.4c0.08,2.46,0.29,4.91,0.48,7.91c-6.84,2.88-13.36,5.64-19.89,8.38c-4.86,2.04-9.86,3.78-14.55,6.14
		c-8.97,4.52-18.54,6.67-28.41,7.4c-14.39,1.08-28.82,1.8-43.23,2.65c-0.83,0.05-1.67-0.06-3.86-0.16c2.64-1.89,4.09-3.27,5.82-4.11
		c14.95-7.21,28.65-16.21,40.25-28.15c15.93-16.39,12.37-16.37,33.66-35.18c17.81-15.73,37.67-27.8,52.19-33.25
		c3.41-1.28,15.94-3.06,30.04-9.47c1.15-0.53,2.48-0.67,4.38-1.16c-0.35,2.21-0.59,3.72-0.82,5.23c-0.92,6.08-2,12.14-2.71,18.24
		c-0.8,6.89-2.25,13.54-5.62,19.68c-2.2,4.01-5.35,6.43-9.91,7.74c-9.01,2.59-17.9,5.63-26.72,8.84
		c-5.28,1.92-10.04,4.93-11.12,11.1C1538.37,1273.87,1538.74,1276.67,1538.84,1279.4z M1459.51,1433.92
		c0.78-24.76-1.1-49.6,1.37-76.09c2.47,2.46,3.93,3.7,5.11,5.15c1.45,1.77,2.66,3.73,3.98,5.6c7.35,10.35,18.85,10.6,28.8,6.59
		c4.28-1.73,6.62-5.85,6.9-10.42c0.26-4.12,1.16-4.19,2.09-5.83c4.07-7.1,16.24-3.04,27.69-8.28c9.38-4.29,13.89-12.89,15.65-15.96
		c7.52-13.11,4.94-26.57,0.78-39.89c-1.35-4.33-3.83-8.29-5.71-12.46c-2.16-4.78-1.69-7.48,2.58-9.99
		c7.93-4.67,16.59-7.44,25.88-9.29c0.38,1.25,0.89,2.09,0.83,2.89c-0.37,5.39,0.55,10.12,3.89,14.79c3.82,5.35,2.21,9.12-4.98,12.02
		c-6.65,2.68-11.24,7.12-13.75,13.56c-3.61,9.26-3.76,18.83-0.83,28.3c1.41,4.58,3.25,9.06,5.2,13.44c6.9,15.51,6.04,30-4.31,43.99
		c-7.54,10.2-15.99,15.85-20,18.46c-4.97,3.23-30.2,19.65-49.33,45.38c-10.08,13.56-16.61,28.38-22.74,39.19
		c-2.34,4.13-4.05,8.61-6.3,13.48C1460.05,1502.15,1458.91,1452.98,1459.51,1433.92z M1569.14,1311.1c0.49-3.18,3.4-6.39,5.97-8.74
		c3.32-3.05,7.47-5.18,11.16-7.86c5.99-4.36,7.64-7.99,3.11-13.78c-5.43-6.93-3.12-13.88-2.78-20.9c0.1-2.15,2.25-4.2,3.87-6.99
		c5.33,6.55,7.57,13.03,9.63,19.55c4.91,15.58,8.81,31.37,6.17,47.88c-1.04,6.51-3.47,12.79-4.58,19.29
		c-1.61,9.41-6.1,16.96-12.96,23.39c-2.74,2.57-5.16,5.48-7.63,8.13c-0.86-0.63-1.18-0.76-1.18-0.88
		c0.16-11.12-5.1-20.72-8.84-30.68C1567.54,1330.09,1567.68,1320.58,1569.14,1311.1z M1609.66,1156.09c3.59-1.69,7.8-2.26,11.8-2.77
		c1.41-0.18,3.81,1.01,4.35,2.21c0.55,1.23-0.14,3.64-1.13,4.82c-4.11,4.91-8.8,9.34-12.77,14.35c-4.09,5.16-7.85,10.63-11.26,16.27
		c-1.88,3.11-3.95,5.28-7.41,6.6c-9.61,3.67-19.3,6.66-29.41,8.97c-4.43,1.01-18.17,4.95-32.21,14.06
		c-8.53,5.53-12.18,9.78-12.78,9.21c-1.28-1.23,14-22.11,35.38-40.06c8.32-6.99,14.53-11.6,26.17-18.61
		C1589.78,1165.51,1599.73,1160.76,1609.66,1156.09z M1590.1,1139.42c2.28,1.81,3.87,4.46,5.88,6.64c2.65,2.87,5.41,5.66,8.77,9.15
		c-11.95,4.89-26.51,12.16-41.67,23.1c-22.89,16.51-38.1,34.8-47.54,48.31c3.04-6.87,7.61-16.77,13.74-28.53
		c2.61-5.02,3.83-7.58,5.26-9.82c10.61-16.66,22.92-31.93,38.54-44.27c1.43-1.13,2.76-2.41,4.08-3.67
		C1581.79,1135.87,1585.13,1135.46,1590.1,1139.42z M1480.75,1205.99c6-3.9,10.95-8.72,14.36-15.33c1.14-2.2,2.33-4.38,3.56-6.53
		c5.47-9.57,7.96-14.49,10.99-18.36c5.1-6.51,7.94-10.14,13.09-11.71c6.63-2.02,9.74,1.63,15.59-1.33c2.88-1.46,2.56-2.57,8.73-8.46
		c3.57-3.41,6.46-6.17,9.43-7.94c2.89-1.72,9.18-4.5,20.24-2.31c-0.75,1.61-2,3.84-4.12,5.98c-0.83,0.84-1.51,1.36-1.62,1.46
		c-19.52,17.3-37.22,36.14-46.64,61.02c-10.06,26.57-29.58,45.27-50.48,63c-16.15,13.7-33.91,24.96-52.77,34.49
		c-5.46,2.76-11.27,4.81-17.68,6.29c0.61-0.96,1.11-2.01,1.84-2.86c16.74-19.66,27.85-41.54,29.54-67.98
		c1.08-16.89,4.75-33.5,11.97-49.06c0.96-2.07,2.34-3.93,3.47-5.92c0.57-1,1-2.09,1.67-3.53c3.26,3.26,2.12,6.14,2.59,8.64
		c0.84,4.46,1.18,9.08,2.61,13.34C1460.81,1209.94,1472.24,1211.53,1480.75,1205.99z M1458.45,1075.67
		c0.24,8.18-0.57,16.35-3.58,24.23c-3.88,10.15-5.46,20.74-4.61,31.68c0.85,10.93,1.41,21.89,2.13,33.28
		c-5.42,0.16-5.63-2.65-5.67-5.5c-0.07-5.04-0.19-10.08-0.05-15.12c0.44-15.51,0.63-31.05,1.6-46.53
		c1.08-17.17,3.43-34.21,10.3-50.2c3.57-8.31,7.4-16.54,11.62-24.54c8.98-17.02,13.65-35.28,16.61-54.13
		c1.48-9.46,3.32-18.86,6.2-28.13c-0.2,3.32-0.46,6.63-0.6,9.95c-0.28,7.08-0.53,14.16-0.74,21.24
		c-0.37,12.75-6.38,23.76-10.89,35.22c-6.27,15.95-12.84,31.79-19.25,47.69C1458.82,1061.51,1458.24,1068.43,1458.45,1075.67z
		 M1635.6,1037.02c-8.05,5-17.05,7.58-26.1,10.15c-18.96,5.38-38.08,3.57-57.22,1.84c-15.92-1.44-15.97-2.38-22.46-2.53
		c-15.66-0.38-38.35,5.33-67.28,34.14c-1.26-7.43-0.51-14.28,1.66-20.99c3.35-10.37,10.13-18.36,18.38-25.11
		c9.76-7.98,20.46-14.45,31.72-20.2c17.46-8.92,35.75-14.68,55.18-17.13c10.15-1.28,19.98,0.29,29.88,2.14
		c9.61,1.8,19.33,2.98,28.94,4.76c4,0.74,7.84,2.34,11.07,3.33c0.8,5.61,1.07,10.11,2.13,14.41
		C1643.13,1028.57,1641.65,1033.26,1635.6,1037.02z M1737.43,918.5c-0.98,1.8-1.95,3.66-2.5,5.62c-1.86,6.56,0.26,10.97,6.46,13.98
		c1.63,0.79,3.25,1.59,5.39,2.64c-0.44,3.4-0.5,6.84-1.38,10.05c-3.09,11.32-6.33,22.57-17.31,29.35
		c-5.63,3.47-10.79,7.73-16.5,11.04c-5.52,3.2-6.08,2.79-10.44-1.91c-4.33-4.66-7.24-5.29-12.72-2.41
		c-4.66,2.44-6.53,3.89-9.45,5.58c-3.08,1.79-7.24,2.9-15.57,5.12c-4.32,1.15-6.66,1.1-10.29,3.05c-4.77,2.56-9.47,2.82-14.61,1.82
		c-12.34-2.39-24.7-4.73-37.1-6.84c-13.15-2.24-26.36-2.92-39.6-0.65c-1.06,0.18-2.16,0.15-3.25,0.22c-0.13-0.36-0.27-0.72-0.4-1.07
		c7.08-3.5,14.07-7.2,21.26-10.46c18.31-8.29,36.59-16.66,55.1-24.49c17.96-7.6,36.75-12.43,55.93-16.1
		c16.21-3.1,29.8-10.9,39.61-24.93c4.73-6.76,10.98-12.46,17.48-17.9C1744.17,906.3,1740.75,912.38,1737.43,918.5z M1744.2,849.74
		c1.76,5.35-0.62,9.25-1.6,13.3c-0.97,3.99-2.53,7.85-3.35,11.87c-1.33,6.58,0.32,9.49,6.32,12.65c1.59,0.83,3.06,1.88,5.47,3.37
		c-4.3,4.65-8.29,8.94-12.25,13.26c-5.56,6.06-11.18,12.07-16.64,18.22c-5.41,6.08-11.5,11.23-19.38,13.64
		c-7.84,2.4-15.77,4.52-23.73,6.5c-9.02,2.25-18.11,4.2-28.17,6.51c4.43-3.02,8.38-5.24,11.78-8.11
		c14.01-11.84,26.51-25.12,37.17-40.09c6.49-9.11,12.74-18.43,19.77-27.11c5.72-7.08,12.38-13.41,18.76-19.94
		C1739.86,852.26,1741.93,851.28,1744.2,849.74z M1626.55,883.94c0.33,0.11,0.66,0.22,0.99,0.32c0.31,5,0.37,10.04,1,15
		c1.13,8.9,5.09,11.27,13.77,8.77c9.57-2.75,16.59-8.21,20.32-17.78c3.31-8.51,9.13-15.24,16.58-20.48
		c4.97-3.5,10.91-3.05,16.56-3.52c2.27-0.19,4.57,0.15,6.86,0.2c4.26,0.1,7.93-1.09,11.39-3.87c4.45-3.57,9.32-6.65,14.19-9.64
		c1.99-1.22,4.48-1.64,7.32-1.38c-3.99,4.55-8.15,8.96-11.92,13.69c-6.69,8.4-13.14,16.99-19.69,25.5
		c-14.68,19.06-28.82,38.75-49.51,51.93c-11.57,7.37-23.62,14.11-35.95,20.12c-16.82,8.2-34.12,15.45-51.21,23.1
		c-0.31-0.36-0.62-0.73-0.93-1.09c1.78-1.78,3.54-3.59,5.34-5.35c8.5-8.3,17.89-15.75,24.9-25.48c4.27-5.92,8.21-12.09,12.23-18.19
		c0.75-1.14,1.02-2.59,1.8-3.7c9.06-12.96,12.69-27.74,14.68-43.11C1625.49,887.28,1626.12,885.63,1626.55,883.94z M1616.93,805.18
		c-8.81,18.9-19.97,36.1-36.41,49.29c-5.69,4.56-11.95,8.44-18.11,12.38c-13.54,8.64-24.69,19.53-32.89,33.44
		c-2.66,4.52-2.99,9.07-1.65,13.88c1.92,6.89,6.41,12.21,11.7,16.59c3.47,2.87,7.94,3.52,12.06,0.3c0.9-0.7,1.86-1.37,2.9-1.83
		c11.11-4.88,20.15-12.32,28-21.55c2.71-3.19,6.6-5.77,10.45-7.52c7.05-3.21,13.3-7.11,17.58-13.73c2.81-4.34,6.79-6.62,13.23-6.73
		c-3.81,14.35-4.27,28.75-10.86,41.67c-9.23,18.08-19.98,34.98-35.64,48.33c-7.66,6.53-15.11,13.31-22.48,20.16
		c-7.41,6.87-16.32,10.92-25.65,14.21c-16.59,5.85-31.67,14.38-45.37,25.34c-3.71,2.97-7.04,6.42-11.52,9.29
		c0.84-2.14,1.74-4.27,2.51-6.44c2.22-6.2,4.35-12.44,6.59-18.63c0.77-2.14,1.45-4.4,2.69-6.26c7.75-11.57,11.31-24.12,11.15-38.17
		c-0.14-12.07,1.02-24.17,1.98-36.22c0.31-3.81,1.83-7.53,2.85-11.28c0.36-1.32,1.05-2.57,1.28-3.91
		c2.19-12.72,6.86-24.67,11.89-36.42c3.14-7.33,7.13-14.35,11.33-21.14c5.16-8.34,10.3-16.84,16.64-24.26
		c5.42-6.34,12.19-11.67,18.93-16.69c8.81-6.55,18.34-12.12,27.25-18.55c4.98-3.59,9.39-7.98,13.94-12.13
		c6.84-6.25,14.79-11.45,18.95-21.18C1622.79,778.2,1620.84,796.8,1616.93,805.18z M1603.3,699.5c1.39,1.77,1.59,3.5,1.84,6.38
		c0.65,7.41,2.53,14.45,6.12,20.95c2.96,5.36,7.88,6.93,13.43,4.45c1.66-0.74,3.14-1.89,4.76-2.75c1.55-0.83,3.18-1.54,5.7-2.75
		c1.05,7.93,0.54,14.06-3.32,20.17c-6.26,9.92-13.53,18.98-20.91,28.03c-8.36,10.25-19.12,17.7-29.45,25.64
		c-11.06,8.5-22.29,16.78-33.46,25.13c-0.33,0.24-0.85,0.22-2.27,0.55c0.94-3.13,1.56-5.9,2.61-8.51
		c8.83-22.1,11.74-28.54,19.1-47.78c3.83-10.01,11.19-29.27,14.54-44.74c1.36-6.28,4.18-12.15,6.09-18.28
		c1.74-5.59,2.64-8.85,5.54-9.97C1596.82,694.8,1601.11,696.71,1603.3,699.5z M1557.89,689.44c4.97-3.91,9.82-6.51,16.01-6.45
		c10.82,0.1,15.97,8.71,12.33,18.78c-3.86,10.69-6.56,21.79-9.79,32.71c-2.77,9.36-5.56,18.7-8.34,28.05
		c-0.52-0.01-1.05-0.02-1.57-0.03c-1.57-12.26-6.89-23.04-12.45-33.83c-2.35-4.55-2.65-10.11-4.4-15.02
		C1545.99,703.28,1549.51,696.02,1557.89,689.44z M1493.02,728.7c1.58-0.92,3.28-1.65,4.82-2.64c2.37-1.51,3.96-3.26,4.17-6.54
		c0.47-7.46,5.35-12.26,11.87-14.51c5.07-1.75,10.73-2.18,16.16-2.36c4.48-0.16,9,0.9,13.48,1.42c1.36,5.34,2.26,10.8,4.15,15.89
		c3.65,9.84,7.9,19.45,11.83,29.18c4.01,9.94,4.3,20.02,0.81,30.18c-7.83,22.77-16.49,45.15-30.43,65.06
		c-3.89,5.56-7.84,11.09-11.76,16.63c-0.29-0.09-0.58-0.18-0.87-0.27c0.27-2.43,0.32-4.91,0.86-7.28
		c3.17-13.68,3.86-27.72,3.23-41.52c-0.66-14.34-4.44-28.01-13.48-40.34c-8.03-10.96-14.13-23.49-17.14-37.13
		C1490.12,731.79,1490.76,730.01,1493.02,728.7z M1423.29,841.88c3.69,7.45,7.68,14.61,14.2,19.98c1.75,1.44,3.66,2.77,5.66,3.84
		c12.38,6.63,19.22,1.3,26.26-8.89c2.45-3.55,1.83-7.89,0.36-11.96c-4.41-12.27-8.38-24.73-13.24-36.82
		c-4.74-11.78,2.26-20.27,8.66-25.86c1.21-1.06,3.4-1.14,5.17-1.37c8.62-1.12,9.64-1.83,10.33-10.53c0.41-5.22,0.14-10.53-0.3-15.76
		c-0.59-7.03,2.65-12.66,5.81-19.52c1.18,1.95,2.11,2.92,2.41,4.06c3.72,13.97,11.4,26.06,19.17,37.86
		c8.58,13.02,10.36,27.18,10.18,41.98c-0.08,6.85-0.57,13.75-1.55,20.53c-2.67,18.62-6.22,37.18-14.22,54.29
		c-7.17,15.33-11.31,31.29-14.28,47.79c-3.08,17.1-6.44,34.17-10.29,51.11c-1.99,8.78-5.19,17.3-10.5,26.35
		c-1.15-7.07-1.95-12.85-3.06-18.57c-1.31-6.71-2.08-13.68-4.53-19.98c-4.32-11.11-4.93-22.81-6.87-34.28
		c-2.66-15.77-7.63-30.73-15.55-44.51c-7.52-13.08-16.07-25.56-24.06-38.36c-5.93-9.5-11.78-19.08-13.88-30.34
		C1410.56,828.88,1418.24,831.67,1423.29,841.88z M1323.09,813.74c5.63,0.97,11.26,1.99,16.93,2.62c5.46,0.61,9.16-2.07,11.23-7.1
		c0.87-2.12,1.84-4.19,2.72-6.31c2.06-4.94,4.16-6.28,9.4-5.55c6.96,0.97,12.44,4.51,16.38,10.27c1.8,2.63,3.19,5.55,4.73,8.35
		c1.22,2.2,1.94,4.89,3.66,6.56c6.19,6,7.88,14.18,11.48,21.49c5.22,10.61,11.98,20.48,18.19,30.59
		c12.58,20.49,25.85,40.66,30.34,64.92c1.27,6.84,2.28,13.72,3.4,20.58c-0.42,0.18-0.84,0.36-1.26,0.54
		c-2.14-2.86-4.57-5.54-6.37-8.6c-4-6.81-9.26-12.45-15.14-17.62c-10.66-9.36-21.72-17.99-33.75-25.76
		c-19.47-12.57-36.13-28.48-49.8-47.67c-9.66-13.55-18.44-27.89-30.21-39.9c-1.72-1.76-3.04-3.91-4.84-6.27
		C1314.96,812.24,1319.01,813.04,1323.09,813.74z M1308.43,839.91c-2.4-7.41-3.54-14.96-3.51-24.4c2.35,1.98,3.71,2.9,4.78,4.08
		c12.17,13.38,22.91,27.9,33.18,42.73c7.74,11.18,16.87,21,26.44,30.52c0.79,0.78,1.45,1.69,2.13,2.57c0.07,0.1-0.1,0.39-0.27,0.92
		c-24.25-7.64-48.62-14.91-68.81-32.74C1311.86,857.07,1311.28,848.71,1308.43,839.91z M1295.62,922.17
		c0.15-1.37,2.68-2.82,4.41-3.62c6.74-3.11,8.3-7.67,5.12-14.34c-1.44-3.01-1.98-6.45-3.08-9.63c-1.4-4.06-2.63-8.22-4.52-12.05
		c-3.78-7.7-3.58-9.73,3.07-16.37c7.9,7.72,17,13.87,27.14,18.18c8.8,3.74,17.88,6.89,26.95,9.93c12.97,4.34,25.88,8.1,37.55,16.16
		c11.71,8.09,23.29,16.21,33.7,25.86c13.6,12.61,24.36,27.27,30.05,45.2c1.03,3.23,1.72,6.57,2.81,10.8
		c-6.94-5.65-12.82-11.09-19.34-15.61c-15.19-10.54-32.35-16.03-50.69-17.24c-12.54-0.83-25.15-0.8-37.73-0.94
		c-13.68-0.15-25.85-5.24-37.82-11.1c-5.39-2.64-9.8-6.5-14.18-10.62C1294.44,932.42,1295.06,927.29,1295.62,922.17z
		 M1401.79,1026.8c-7.6-5.84-15.38-11.52-23.48-16.63c-4.18-2.64-9.18-4.01-13.88-5.79c-7.27-2.75-14.58-5.4-21.91-8.01
		c-8.06-2.87-11.16-9.48-13.49-16.98c-1.61-5.18-3.4-10.45-6.04-15.14c-3.44-6.11-9.41-9.86-15.22-13.58
		c-2.25-1.44-5.03-2.47-4.71-6.63c1.33,0.7,2.5,1.12,3.43,1.84c14.43,11.02,30.95,15.44,48.82,15.42
		c13.72-0.01,27.42-0.32,41.07,1.75c24.29,3.7,44.57,14.65,60.71,33.09c2.12,2.42,3.32,6.01,3.97,9.26
		c1.12,5.59,1.59,11.33,2.1,17.03c0.18,1.99,0.13,4.25-0.64,6.03c-3.95,9.15-8.18,18.18-12.52,27.74c-1.11-2.03-2.07-3.78-3.03-5.53
		c-3.79-6.99-9.42-11.69-17.15-13.77c-5.72-1.54-11.41-3.22-17.17-4.59C1408.55,1031.31,1405.15,1029.38,1401.79,1026.8z
		 M1413.1,1036.66c3.2,0.13,4.67-0.1,5.94,0.3c4.35,1.34,8.67,2.8,12.95,4.37c10.31,3.81,17.35,16.59,15.49,27.53
		c-1.01,5.95-1.63,11.97-2.42,17.95C1434.88,1070.03,1429.23,1051.13,1413.1,1036.66z M1372.26,1318.49
		c5.02-12.13,6.66-24.43,3.64-37.47c-1.84-7.97-2.88-16.22-3.31-24.39c-0.48-9.12,2.09-17.16,11.14-21.84
		c7.24-3.75,10.18-9.92,9.64-18.13c-0.6-9.12,3.26-16.93,8.38-24.14c3.13-4.42,5.17-5.13,9.83-2.4c4.86,2.85,9.12,2.34,13.39-0.64
		c2.8-1.95,5.45-4.13,8.1-6.28c3.19-2.6,6.13-5.54,9.52-7.83c1.87-1.27,4.43-1.51,6.67-2.22c0.23,0.55,0.45,1.1,0.68,1.64
		c-12.15,16.1-14.24,35.38-17.37,54.3c-1.31,7.9-1.93,15.91-3.19,23.81c-2.27,14.21-9.72,26.08-17.9,37.45
		c-4.27,5.93-9.33,11.28-14.06,16.87c-0.74,0.87-1.46,1.87-2.41,2.43c-7.63,4.43-15.32,8.77-23.71,13.55
		C1371.68,1321.3,1371.72,1319.79,1372.26,1318.49z M1284.5,1105.93c4.31,2.56,8.43,5.49,12.4,8.57c9.53,7.42,11.11,7.75,22.01,3.35
		c3.27,3.69,4.47,8.32,5.34,13.01c0.97,5.17,1.25,10.49,2.49,15.59c0.89,3.68,2.28,7.5,4.44,10.56c3.01,4.25,6.85,7.93,10.5,11.71
		c7.66,7.93,10.74,17.55,9.94,28.27c-0.49,6.59-1.71,13.18-3.3,19.6c-0.79,3.2-2.62,6.48-4.84,8.94
		c-9.99,11.09-14.76,24.43-18.27,38.61c-3.24,13.07-4,26.22-3.28,39.53c0.22,4.03,0.91,8.03,1.52,13.15
		c-1.8-1.54-2.98-2.23-3.73-3.24c-13.72-18.39-23.56-38.75-29.18-60.93c-3.05-12.01-3.04-24.44-2.06-36.88
		c1.4-17.8,2.45-35.64,3.21-53.47c0.21-4.96-0.63-10.12-1.88-14.96c-3.42-13.24-4.73-27.15-12.15-39.16
		c-0.45-0.73-0.46-1.73-1.1-4.39C1279.99,1104.68,1282.56,1104.77,1284.5,1105.93z M1178.94,1069.58c0.78,0.48,1.56,0.98,2.25,1.58
		c8.7,7.5,10.45,8.02,21.41,1.11c1.66,1.3,2.93,2.88,3.86,4.64c1.4,2.64,1.78,4.96,1.9,5.7c1.02,6.66,6.02,25.65,9.76,34.9
		c4.85,11.97,10.51,22.44,21.03,24.9c9.25,2.16,21.73-2.31,25.75-10.17c2.59-5.07,3.84-10.34,7.62-20.57
		c0.22-0.6,0.76-1.08,1.62-2.29c1.11,1.7,2.29,2.98,2.87,4.49c8.42,21.87,12.84,44.41,10.89,67.93c-1.08,13-2.91,25.97-3.45,38.99
		c-0.75,18.23,2.08,35.99,10.43,54.11c-2.14-1.49-3.48-2.08-4.35-3.08c-14.15-16.16-31.21-28.76-48.55-41.26
		c-19.2-13.84-36.06-30.56-49.28-50.31c-4.32-6.45-6.53-14.66-8.29-22.38c-2.27-10-3.28-20.3-4.55-30.5
		c-1.07-8.63-0.98-17.47-2.78-25.92c-1.74-8.2-5.18-16.04-8-24c-1.04-2.95-2.45-5.77-3.82-8.93
		C1170.49,1066.6,1174.8,1067.04,1178.94,1069.58z M1119.25,1059.9c0.47-1.52,0.94-3.08,1.7-4.47c2.08-3.82,4.74-4.61,8.5-2.24
		c1.88,1.19,3.71,2.82,4.89,4.67c3.41,5.35,8.12,9.18,13.17,12.84c3.87,2.8,7.58,4.08,12.04,1.66c0.74-0.4,1.74-0.35,2.59-0.5
		c0.61,0.58,1.29,0.95,1.56,1.52c5.61,11.82,10.28,23.95,11.63,37.11c1.43,13.87,2.55,27.78,4.31,41.61
		c0.71,5.58,2.77,10.99,4.48,17.51c-8.33-6.05-12.14-14.52-16.9-22.21c-5.18-8.36-9.5-17.28-15.01-25.4
		c-10.26-15.14-21.13-29.86-31.71-44.78c-1.83-2.57-3.52-5.23-4.43-6.59C1117.39,1066.14,1118.28,1063.01,1119.25,1059.9z
		 M1094.6,1073.41c4.71-0.87,9.55-1.03,14.28-1.77c2.8-0.44,4.22,1.08,5.68,2.95c12.93,16.63,26.06,33.09,36.21,51.7
		c6.35,11.65,13.22,23.02,19.84,34.53c0.43,0.75,0.75,1.56,1.69,3.56c-2.16-1.04-3.33-1.39-4.25-2.08
		c-14.79-10.93-27.29-24.21-40-37.45c-12.47-12.99-26.9-24.09-40.5-35.99c-2.04-1.79-4.2-3.45-6.42-5.26
		C1083.25,1075.89,1088.91,1074.45,1094.6,1073.41z M1118.01,1196.97c5.2-0.74,10.48-1.11,15.59-2.25
		c8.12-1.82,10.84-7.39,7.4-14.75c-5.95-12.71-14.67-22.52-28.52-26.97c-3.24-1.04-6.38-2.58-9.35-4.27
		c-8.25-4.69-11.82-12.47-12.92-21.4c-0.31-2.51,0.88-5.36,1.89-7.85c1.62-4.04,1.09-7.48-1.5-10.93
		c-3.03-4.02-5.93-8.15-8.56-12.43c-1.35-2.2-1.99-4.85-2.94-7.29c0.45-0.38,0.89-0.75,1.34-1.13c3.29,2.16,6.81,4.06,9.85,6.53
		c16,13.01,31.18,26.86,44.81,42.43c7.21,8.23,14.63,16.33,24.07,22.38c6.3,4.03,12.19,8.87,17.67,13.98
		c3.79,3.54,6.96,7.94,9.71,12.38c8.76,14.14,19.73,26.43,31.59,37.89c10.85,10.49,22.43,20.2,33.48,30.49
		c9.17,8.54,18.02,17.41,27.47,26.59c-1.59,0.93-1.83,1.18-1.96,1.13c-16.59-6.35-34.36-6.88-51.48-10.56
		c-14.79-3.18-29.41-7.37-42.04-16.16c-17.21-11.99-36.43-18.98-56.52-24.1c-3.95-1.01-7.79-2.41-12.03-3.74
		c0.61-1.28,1.35-3.27,1.3-5.7c-0.08-3.59-1.82-5-4.06-10.87C1110.58,1205.93,1107.48,1198.47,1118.01,1196.97z M1305.18,1325.97
		c-2.09-0.55-4.2-1.05-6.27-1.67c-15.99-4.76-32.13-4.09-48.33-1.39c-10.17,1.69-20.31,3.55-30.52,4.95
		c-3.37,0.46-7.29,0.9-12.25-0.12c-6.39-1.32-16.54-5.53-17.86-12.52c-0.53-2.8-1.13-3.88,0.22-9.15c0.82-3.17-0.68-5.24-1.82-7.69
		c-4.04-8.71-10.83-13.43-20.39-13.93c-11.19-0.58-22.39-1.12-33.58-1.4c-5.92-0.14-9.95-3.35-13.17-7.61
		c-3.58-4.74-6.67-9.85-9.81-14.9c-4.67-7.54-6.3-15.64-3.83-24.31c1.59-5.58,3.43-6.78,9.04-5.12
		c12.27,3.61,24.47,7.48,36.68,11.29c8.84,2.76,16.64,7.48,24.27,12.66c13.84,9.4,29.37,14.92,45.59,18.37
		c12.74,2.71,25.71,4.35,38.45,7.03c17.17,3.6,31.17,11.7,38.08,29.02c2.01,5.05,4.44,9.93,6.67,14.89
		C1305.96,1324.89,1305.57,1325.43,1305.18,1325.97z M1086.58,1423.53c10.02-5.49,20.31-10.58,32.13-11.15
		c7.09-0.34,14.16-1.1,21.25-1.42c14.44-0.65,25.9-7.68,35.33-17.71c15.12-16.09,33.87-23.42,55.28-23.08
		c8.88,0.14,18.27,2.87,26.42,6.6c11.96,5.48,23.79,5.72,36.18,3.61c1.3-0.22,2.59-0.54,3.88-0.81
		c-5.84,9.07-13.72,15.28-22.51,20.17c-13.01,7.24-26.53,13.06-41.23,16.54c-16.55,3.91-33.12,7.25-50.09,7.57
		c-13.12,0.24-25.97,1.73-38.7,4.73c-15.82,3.72-31.5,7.72-45.66,16.19c-4.04,2.42-8.56,4.05-13.91,6.52
		c0.24-2.52,0.16-3.82,0.52-4.99c1.11-3.61,0-6.65-1.84-9.74C1079.98,1430.48,1080.46,1426.88,1086.58,1423.53z M1053.71,1581.67
		c-0.37-0.14-0.75-0.27-1.12-0.41c1.65-3.18,2.89-6.69,5.04-9.49c5.83-7.63,11.71-15.27,18.22-22.32c3.37-3.65,7.76-11.08,8.75-21.2
		c0.29-2.96,0.65-10.46-2.86-18.59c-3.41-7.9-9.06-13.82-11.32-15.43c-2.7-1.92-6.6-2.44-7.01-6.75
		c-0.53-5.52-1.16-11.14,2.47-15.89c5.85-7.64,11.85-14.95,21.84-17.86c5.86-1.71,11.65-4.31,16.86-7.5
		c14.17-8.7,30.06-11.72,45.9-15.33c14.87-3.39,30.05-2.51,44.99-4.46c9.95-1.3,19.83-3.21,29.69-5.15
		c6.68-1.32,13.26-3.17,20.51-3.57c-2.7,1.83-5.36,3.73-8.12,5.49c-15.06,9.59-30.05,19.29-43.21,31.46
		c-5.19,4.79-9.97,10.03-14.93,15.07c-1.28,1.3-2.39,2.84-3.84,3.9c-14.21,10.32-26.97,22.63-42.59,31.04
		c-4.61,2.48-9.06,5.33-13.34,8.35c-6,4.24-11.09,9.36-15.37,15.47c-7.87,11.23-16.17,22.16-26.11,31.72
		c-2.79,2.69-4.95,6.05-7.82,8.64c-3.33,3.02-7.13,5.52-10.72,8.26C1057.63,1578.62,1055.68,1580.15,1053.71,1581.67z
		 M1069.18,1635.01c-4.68-2.79-6.04-5.98-5.92-9.94c0.17-5.72,0.5-11.45,0.45-17.17c-0.06-6.92-0.57-13.8-6.37-19.67
		c5.44-5.73,10.82-11.24,16.04-16.92c11.45-12.46,23.39-24.44,32.59-38.87c5.57-8.74,13.48-15.28,22.48-20.75
		c10.14-6.17,19.65-13.38,29.43-20.14c2.72-1.88,5.42-3.78,8.96-4.7c-4.44,6.84-8.93,13.64-13.3,20.53
		c-3.16,4.98-6.55,9.88-9.15,15.16c-6.77,13.74-12.96,27.71-21.3,40.69c-4.51,7.02-6.51,15.6-10.69,22.87
		c-8.77,15.27-17.83,30.47-31.79,41.79C1077.12,1630.71,1072.96,1632.69,1069.18,1635.01z M1118.89,1643.06
		c-4.72-0.04-9.42-0.81-13.81-3.39c-5.9-3.47-12.47-4.07-19.27-2.77c-3.07,0.59-6.28,0.46-9.43,0.66c-0.13-0.46-0.25-0.92-0.38-1.39
		c1.4-1.12,2.9-2.14,4.19-3.38c4.95-4.74,10.53-9.03,14.6-14.44c6.86-9.12,13.2-18.7,18.93-28.58c9.75-16.82,19-33.92,30.28-49.81
		c1.06-1.49,1.97-3.09,2.81-4.71c9.01-17.42,21.39-32.36,34.55-46.71c0.83-0.9,1.94-1.55,3.76-1.69
		c-2.91,6.58-5.88,13.14-8.72,19.75c-1.87,4.37-3.87,8.73-5.26,13.26c-3.43,11.17-5.48,22.58-6.88,34.24
		c-1.81,15.19-4.27,30.42-8.1,45.2c-2.78,10.72-7.92,20.89-12.6,31.04C1138.79,1640.73,1129.2,1643.15,1118.89,1643.06z
		 M1269.35,1559.38c-0.18,0.61-0.7,1.12-1.23,1.93c-2.78-1.31-3.11-3.76-3.28-6.21c-0.63-8.94,0.12-13.44-0.96-15.78
		c-1.76-3.79-5.9-5.95-9.11-6.55c-5.18-0.96-9.38,2.64-13.11,3.93c-1.42,0.49-2.7,1.67-3.79,2.79c-5.71,5.86-9.17,12.11-11.78,16.7
		c-5.16,9.06-11.46,13.81-24.07,23.3c-0.52,0.39-5.38,3.37-8.79,3.21c-1.21-0.06-2.49-0.39-3.88-1.1c-2.87-1.47-5.79-0.28-8.06,2.14
		c-10.16,10.89-20.34,21.74-25.23,36.33c-1.4,4.18-2.45,5.04-6.6,7.56c0.77-2.69,0.99-4.67,1.86-6.3
		c5.85-11.06,9.07-22.87,10.93-35.21c1.5-9.94,3.8-19.76,5.67-29.65c0.43-2.24,0.76-4.53,0.8-6.81c0.22-10.64,2.42-20.86,6.57-30.62
		c5.36-12.63,10.91-25.18,16.49-37.71c3.05-6.84,7.83-12.53,13.73-16.91c11.57-8.57,23.35-16.91,35.39-24.81
		c15.1-9.91,30.55-19.29,45.86-28.88c0.35-0.22,0.85-0.2,2.07-0.45c-0.7,1.51-1.13,2.62-1.71,3.66c-6.41,11.51-8.3,24-8.88,36.99
		c-0.47,10.67,1.57,20.89,3.39,31.23c2.76,15.65,0.59,31.05-3.24,46.22C1275.78,1538.83,1272.42,1549.07,1269.35,1559.38z
		 M1331.36,1443.58c3.26,9.88,7.3,19.25,12.74,28c4.47,7.2,6.26,15.19,7.95,23.22c0.88,4.18-1.55,7.74-5.54,8.82
		c-9.57,2.58-14.92,9.14-17.92,18.19c-0.76,2.28-2.31,4.28-3.26,6.5c-0.79,1.84-1.43,3.8-1.77,5.77
		c-1.15,6.57-5.21,11.22-10.3,14.84c-5.95,4.23-12.41,3.75-18.5-0.54c-5.51-3.88-6.12-3.58-10.45,1.31
		c-2.91,3.29-6.55,5.93-9.87,8.86c-0.47-0.31-0.95-0.62-1.42-0.94c0.88-2.97,1.82-5.93,2.63-8.93c2.61-9.7,5.55-19.33,7.67-29.14
		c3.67-16.99,3.11-34.04-0.2-51.1c-3.22-16.62-1.66-33.04,5.67-48.27c4.19-8.71,8.38-17.83,16.29-24.2
		c1.91-1.54,3.94-2.93,6.95-5.16C1318.88,1409.32,1325.66,1426.27,1331.36,1443.58z M1355.92,1583.31c2.65-2.13,5.56-3.25,9.8-3.16
		c4.31,0.1,8.62,0.56,13.71,0.9c0.45,3.84,1.3,7.62,1.27,11.39c-0.11,13.87,3.08,27.26,6.03,40.62
		c6.22,28.12,12.96,56.13,19.41,84.2c2.71,11.82,5.23,23.68,7.8,35.52c0.18,0.84,0.13,1.73,0.18,2.59c-0.56,0.16-1.12,0.33-1.69,0.5
		c-5.78-11.11-11.67-22.16-17.3-33.34c-3.28-6.53-5.93-13.38-9.21-19.91c-5.19-10.32-7.92-21.4-10.7-32.49
		c-1.33-5.33-2.71-10.65-4.1-15.96c-2.04-7.82-5.72-14.88-9.77-21.83c-3.44-5.9-6.22-12.19-9.33-18.29
		c-0.19-0.38-0.51-2.08-0.84-4.4C1350.36,1603.92,1348.26,1589.46,1355.92,1583.31z M1312.83,1804.09
		c-7.24-4.78-14.08-10.02-22.09-13.7c-4.28-1.96-5.75-4.09-7.42-6.02c-5.81-6.73-6.72-15.16-6.73-20.4
		c9.86,3.92,24.73,9.37,43.38,14.42c19.46,5.28,17.35,2.87,25.26,6.2c24,10.12,44.56,24.4,53.76,50.51c0.3,0.86,0.6,1.76,1.08,2.52
		c6.49,10.26,6.39,21.7,6.01,33.21c-0.27,8.16-0.4,16.32-0.64,26.28c-4.15-3.18-6.85-5.52-9.82-7.45c-4.19-2.74-8.31-5.9-12.93-7.58
		c-7.91-2.88-16.13-5.02-24.33-6.99c-6.49-1.56-21.15-6.32-27.96-17.73c-7.11-11.93-4.86-30.42-8.73-41.57
		C1320,1810.95,1317.84,1807.4,1312.83,1804.09z M1124.32,1845.01c9.04-3.23,18.15-6.28,27.13-9.66c7.02-2.64,8.5-5.49,7.34-12.61
		c-0.96-5.91-0.23-7.44,6.02-8.79c11.31-2.43,22.67-2.96,33.94,0.57c13.61,4.25,26.36,10.26,38.77,17.29
		c16.46,9.32,34.04,15.64,53.21,16.61c7.75,0.39,15.48,1.07,23.14,1.61c4.03,5.98,8.09,12,12.88,19.08
		c-7.95-0.41-15.48,0.53-22.19-1.4c-16.32-4.7-32.98-4.94-49.61-5.45c-15.3-0.48-30.63,0.32-45.93-0.02
		c-10.51-0.24-21-1.45-31.49-2.27c-8.88-0.69-17.75-1.64-26.64-2.13c-10.93-0.61-20.89-4.69-31.03-8.17
		c-0.55-0.19-0.91-0.94-1.97-2.09C1120.29,1846.61,1122.28,1845.74,1124.32,1845.01z M1035.98,1989.87
		c4.43-5.79,6.08-11.78,4.24-19.24c-2.25-9.1,5.26-19.35,14.46-20.68c12.55-1.81,23.56-7.23,33.95-14.1
		c11.79-7.79,14.87-25.52,10.32-36.25c-2.32-5.46-5.85-9.68-9.84-13.8c-2.31-2.38-3.44-4.15-3.29-5.82c0.2-2.26,2.33-3.71,3.77-4.76
		c6.84-4.97,17.58-12.77,18.96-20.33c0.17-0.95,0.46-3.41,2.03-4.04c0.89-0.36,2.02-0.16,3.3,0.72c7.09,4.83,15.42,5.47,23.28,7.75
		c7.79,2.25,15.72,2.54,23.76,2.89c10.49,0.45,20.92,2.06,31.41,2.84c6.59,0.49,13.22,0.48,19.83,0.53
		c17.38,0.13,34.76-0.05,52.13,0.31c10.73,0.22,21.54,0.33,31.99,3.45c0.63,0.19,1.23,0.46,2.66,1.01c-3.13,0.9-5.47,1.75-7.89,2.25
		c-6.97,1.44-13.49,3.07-19.66,4.85c-17.53,5.07-38.37,14.17-42.63,16.28c-3.03,1.5-14.77,7.38-29.15,17.03
		c-4.13,2.77-9.51,6.39-15.91,11.52c-19.87,15.92-22.86,24.73-42.78,40.03c-2.58,1.98-6.22,4.72-11.09,7.66
		c-6.91,4.18-14.83,7.82-26.99,12.4c-10.41,3.92-26.32,8.8-39.25,14.08c-2.65,1.08-8.85,3.68-15.8,8.77
		c-1.98,1.45-3.54,2.75-4.6,3.67c-5.89-3.67-7.23-9.34-8.75-14.77C1034.1,1992.91,1035.09,1991.03,1035.98,1989.87z
		 M1024.92,2094.83c1.25-2.29,1.67-3.39,2.37-4.29c3.24-4.15,6.8-8.07,9.8-12.38c7.41-10.62,3.12-21.1-9.6-23.59
		c-3.12-0.61-6.37-0.55-9.56-0.8c-1.96-0.15-3.93-0.31-6.42-0.51c1.75-5.61,5.69-8.27,9.65-10.82c3.84-2.48,7.78-4.82,11.72-7.14
		c6.19-3.64,9.77-9.01,10.08-16.14c0.16-3.7,1.69-5.83,4.78-7.59c6.15-3.51,11.93-7.72,18.25-10.89c6.31-3.17,12.93-5.91,19.68-7.98
		c20.04-6.15,38.95-14.55,56.17-26.59c0.53-0.37,1.22-0.52,1.83-0.78c0.31,0.26,0.63,0.52,0.94,0.78
		c-4.67,8.59-8.95,17.42-14.11,25.7c-4.46,7.14-10.28,13.43-14.87,20.5c-10.49,16.16-25.1,28.12-39.53,40.41
		c-8.86,7.55-17.05,15.92-25.27,24.18C1043.64,2084.12,1035.52,2089.82,1024.92,2094.83z M1126.36,2081.76
		c-1.36-0.86-2.65-1.67-3.92-2.5c-6.9-4.46-14.27-3.36-19.28,2.98c-3.4,4.31-6.64,8.75-10.08,13.04
		c-5.22,6.51-12.5,9.85-20.08,12.63c-0.8,0.29-1.77,0.14-3.26,0.24c-5.08-17.35-18.18-16.74-33.66-13.56
		c3.34-2.78,5.64-4.49,7.7-6.44c10.82-10.21,21.57-20.49,32.36-30.74c1.33-1.26,2.58-2.63,4.03-3.74
		c22.98-17.5,41.4-39.39,59.29-61.76c2.7-3.38,4.68-7.32,7.2-10.86c9.48-13.28,20.17-25.52,31.83-36.91
		c1.06-1.03,2.44-1.74,3.66-2.6c0.32,0.26,0.65,0.52,0.98,0.79c-1.29,2.01-2.5,4.07-3.87,6.02c-7.97,11.37-13.19,24.12-17.68,37.08
		c-2.53,7.3-3.34,15.18-5.12,22.75c-0.94,4-2.17,7.94-3.44,11.86c-3.25,10-6.05,20.2-10.06,29.89
		c-4.18,10.11-9.56,19.73-14.47,29.54C1128.13,2080.23,1127.3,2080.78,1126.36,2081.76z M1203.54,2098.16
		c-3.75,3.58-6.5,8.3-10.52,11.49c-4.21,3.35-9.16,6.08-14.21,7.95c-3.83,1.42-6.81-2.47-6.04-7.54c0.76-4.97,1.71-9.97,3.23-14.75
		c2.74-8.67-1.86-15.55-5.19-22.65c-0.76-1.62-3.69-2.91-5.74-3.11c-5.49-0.55-10.69-0.08-15.38,4.01
		c-4.94,4.3-10.74,7.62-16.16,11.37c-0.67-0.47-1.34-0.94-2.01-1.41c2.29-5.09,4.17-10.4,6.94-15.21
		c6.09-10.59,10.1-21.97,14.24-33.4c5.25-14.49,8.36-29.48,12.07-44.35c3.53-14.13,9.61-27.17,17.3-39.5
		c0.97-1.56,2.1-3.04,2.85-4.7c6.22-13.81,17.27-22.87,29.85-30.38c16.21-9.67,33.58-16.84,51.45-22.69
		c11.73-3.84,23.67-7.07,35.65-10.04c4.03-1,8.46-0.39,12.89-0.52c-0.27,1.35-0.21,1.96-0.44,2.12c-5.81,3.85-11.17,8.09-16.09,12.7
		c-9.22,8.64-18.58,18.88-28.85,40.7c-2.82,5.98-3.37,8.15-15.86,54.95c-6.24,23.38-8.4,35.78-13.94,46.43
		c-5.7,10.95-11.55,21.85-16.66,33.08C1218.32,2082.74,1211.37,2090.68,1203.54,2098.16z M1345.26,1911.02
		c-12.96,6.38-23.43,17.65-28.85,31.03c-4.3,10.64-5.44,22.23-7.04,33.59c-3.11,21.96-8.15,43.65-15.04,64.73
		c-0.67,2.04-1.58,4.32-3.59,5.06c-2.81,1.03-5.6-1.63-6.99-4.28c-1.39-2.65-2.49-5.83-5.21-7.08c-3.43-1.58-7.33,0.82-10.19,3.3
		c-8.59,7.42-15.68,16.57-20.73,26.73c-2.27,4.56-4.16,9.38-7.34,13.36c-6.18,7.76-16.17,11.19-25.6,14.25
		c15.04-24.44,30.26-49.28,38.12-76.88c5.97-20.99,7.55-43.12,14.69-63.74c6.03-17.41,16.09-33.39,29.03-46.49
		c13.72-13.9,26.21-23.43,46.29-18.66c16.23,3.85,32.86,9.33,44.65,21.14C1373.54,1903.21,1358.22,1904.64,1345.26,1911.02z
		 M1413.94,1929.02c-0.52,0.36-6.97-14.81-24.73-27.83c-14.58-10.69-29.04-15.28-38.67-18.08c-7.11-2.07-18.85-5.39-34.06-5.65
		c-19.63-0.33-33.82,3.55-58.84,13.82c-14.16,5.81-28.01,12.42-41.75,19.17c-8.36,4.11-16.27,8.85-22.86,15.96
		c-4.24,4.58-14.64,12.05-26.4,25.04c-20.52,22.66-29.17,40.18-30.16,39.6c-1.05-0.62,6.99-21.36,23.91-40.97
		c8.49-9.85,16.31-17.45,25.02-23.33c9.66-6.52,18.81-13.83,28.63-20.09c6.52-4.15,13.65-7.49,20.82-10.43
		c11.21-4.6,22.5-9.17,34.1-12.6c12.25-3.61,24.85-6.07,37.39-8.59c4.09-0.82,7.06-0.06,11.59,0.14c15.92,0.7,34.21,3.58,43.64,8.01
		c2.09,0.98,4.77,2.3,8.98,3.84c3.97,1.45,5.78,1.71,10.15,3.89C1403.58,1902.34,1414.62,1928.54,1413.94,1929.02z M1415.7,1788.48
		c-1.62,16.14-4.14,32.18-6.3,48.27c-0.29,2.18-0.68,4.35-1.16,7.35c-3.53-3.01-4.32-6.66-5.57-9.86
		c-5.24-13.5-15.16-25.4-25.58-35.02c-19.31-17.82-45.35-21.87-49.99-22.59c-9.26-1.44-18.43-3.57-27.44-6.2
		c-5.62-1.64-10.81-4.83-16.14-7.41c-2.23-1.08-2.81-3.01-1.73-5.19c2.12-4.27,4.22-8.57,6.66-12.66c1.27-2.13,3.36-3.75,4.85-5.77
		c2.87-3.88,5.45-7.7,5.98-12.43c0.24-2.15-0.01-3.83-0.21-5.09c-2.64-15.93-10.06-26.04-6.43-32.11c3.09-5.16,13.46-6.24,18.4-2.76
		c1.66,1.17,1.47,1.7,4.18,5.44c6.97,9.61,13.03,11.94,24.26,9.35c3.77-0.87,5.85-3.24,6.68-6.94c2.18-9.61,1.77-18.92-2.08-28.19
		c-2.36-5.67-3.86-11.72-5.42-17.69c-1.04-3.99-0.21-7.25-0.05-8.9c0.98-9.94,5.47-17.63,8.9-22.3c0.09,0,0.83,0.01,0.92,0.02
		c0.31,0.01,0.62,0.01,0.92,0.02c0.68,0.87,1.48,1.67,2.02,2.61c9.26,16.14,17.59,32.63,20.73,51.28
		c2.53,15.04,8.25,29.02,15.27,42.48c8.03,15.41,16.06,30.82,24.26,46.14C1416.43,1769.27,1416.66,1778.94,1415.7,1788.48z
		 M1415.71,1728.39c-5.02-9.35-6.98-17.33-7.86-20.91c-6.24-25.39-11.4-51.05-18.03-76.34c-0.34-1.31-7.61-29.81-6.55-50.21
		c0.32-6.12,4.17-10.91,6.58-16.22c0.33-0.72,3.01-1.05,4.21-0.58c3.45,1.38,6.31,3.58,7.77,7.29c1.51,3.83,3.04,7.69,4.97,11.32
		c2.94,5.54,7.15,9.56,13.99,9.34c3.68-0.12,6.17,2.06,7.98,4.64c2.61,3.71,4.35,6.33,6.29,11.34c5.43,14.01,6.32,11.74,7.12,16.34
		c1.35,7.81-1.21,14.47-6,26.94c-1.95,5.07-2.81,6.64-5.05,12.74c-1.28,3.48-2.66,7.96-4.12,14.48c-1.6,7.18-3.12,18.34-4.22,31.31
		c-0.62,7.24,0.05,14.6,0.15,21.91c0.03,2.65,0.08,5.31,0.12,7.96C1421.19,1737.32,1418.43,1733.46,1415.71,1728.39z
		 M1501.81,1774.7c-0.33,2.78-2.8,22.23-17.55,37.46c-6.16,6.35-9.87,8.31-15.86,12.98c-25.52,19.89-34.07,50.23-35.63,56.24
		c-8.27,31.95,4.81,58.37,3.32,58.71c-1.32,0.3-11.53-27.27-12.56-61.11c-0.39-12.88,1.3-22,1.84-28.73
		c0.89-11.1,5.18-21.38,9.52-31.36c6.96-15.98,16.34-30.54,28.39-43.43c11.76-12.58,13.26-19.05,21.76-27.35
		c2.53-2.47,6.13-5.69,10.86-9.06C1498.61,1744.81,1503.78,1757.92,1501.81,1774.7z M1463.06,1647.43
		c0.89,4.63,0.81,9.48,0.94,14.24c0.2,7.35,3.46,13.68,7.43,19.36c3.62,5.18,10.11,4.86,15.77,5.06
		c8.88,0.33,11.83,3.84,11.46,12.67c-0.5,11.78-3.99,22.94-6.32,34.33c-0.41,2-2.39,3.73-3.78,5.47c-2.97,3.74-6.07,7.38-9.05,11.12
		c-1.85,2.33-3.45,4.85-5.34,7.13c-9.18,11.08-18.84,21.78-27.46,33.28c-4.88,6.52-8.06,14.31-12.01,21.52
		c-1.17,2.13-2.39,4.24-3.42,6.07c0.19-10.92,0.89-21.84,0.4-32.7c-0.52-11.63-1.96-17.35-3.2-26.53
		c-5.78-42.78-0.04-77.79,4.3-90.56c0.28-0.83,1.9-5.58,4.41-12.92c1.82-5.33,3.59-10.69,5.53-16.47c3.43,3.65,7.56,4.03,12.36,3.27
		C1460.79,1640.88,1461.96,1641.72,1463.06,1647.43z M1589.08,1410.59c-15.11-2.25-27.15,2.94-34.59,6.26
		c-8.28,3.7-22.1,10.27-38.53,32.26c-20.2,27.03-35.19,56.83-45.87,88.78c-4.21,12.59-8.58,25.2-11.61,38.09
		c-3.87,16.47-6.91,33.2-5.38,50.34c0.11,1.23-0.13,2.49-0.21,3.74c-0.49,0.09-0.98,0.18-1.47,0.28
		c-2.02-6.36-4.04-12.71-6.05-19.07c-1.44-4.56-2.55-9.24-4.36-13.64c-1.39-3.36-1.97-6.37-0.66-9.9
		c1.37-3.68,4.58-24.23-0.26-46.39c-0.45-2.07-0.92-3.91-1.48-5.75c-3.26-10.67-7.12-18.68-9.73-23.55
		c-0.95-1.77-1.68-3.02-1.98-3.54c-10.9-18.92-23.27-48.92-40.39-78.07c-0.44-0.74-2.58-4.14-6.86-10.96
		c-24.09-38.35-36.22-57.55-40.6-58.53c-19.69-4.42-35.6,34.93-75.12,59.55c-16.89,10.52-27.75,16.54-49.21,31.24
		c-9.42,6.46-16.89,14.56-24.46,22.75c-8.23,8.91-16.48,17.82-24.23,27.14c-5.94,7.14-11.11,14.91-17.57,21.91
		c1.33-2.73,3.29-6.6,5.82-11.15c18.3-32.84,39.9-52.6,44.37-56.61c11.77-10.55,22.25-15.92,41.72-28.97
		c14.25-9.56,28.98-18.4,43.08-28.17c6.51-4.51,12.1-10.39,17.94-15.83c6.39-5.94,11.38-13.04,15.9-20.45
		c3.45-5.64,5.7-11.43,5.05-17.52c-0.36-3.42-1.53-5.86-2.45-7.79c-8.18-17.05-12.27-25.57-16.88-32.49
		c-6.49-9.73-12.33-16.56-14.3-19.01c-17.65-21.92-40.46-38.41-60.52-57.77c-11.34-10.95-21.69-22.93-32.4-34.52
		c-1.28-1.39-2.06-3.25-2.17-5.51c1.19,1.29,2.45,2.53,3.56,3.89c14.72,18.05,31.73,33.56,50.92,46.78
		c13.67,9.41,25.14,21.27,35.74,33.97c10.27,12.3,20.44,24.64,28.51,38.62c2.8,4.86,7.16,8.91,11.19,12.95
		c4.94,4.97,6.66,10.32,12.61,16.94c3.58,3.98,5.42,5.98,7.62,6.61c4.9,1.39,9.47-2.02,19.74-10.08
		c20.79-16.33,26.22-21.2,33.54-23.87c5.69-2.08,10.59-3.6,19.75-7.48c3.76-1.59,7.12-4.11,10.77-5.98
		c22.97-11.77,43.45-27.07,62.54-44.28c5.24-4.72,9.72-10.3,14.5-15.53c1.83-2,3.48-4.16,5.33-6.39
		c-9.17,14.25-25.01,35.01-50.2,53.64c-19.6,14.49-38.46,22.96-52.53,27.99c-2.62,1.17-13.9,6.2-26.2,14.96
		c-12.16,8.67-10.51,10.33-20.12,19.61c0,0-1.31,1.81-2.29,3.37c-7.19,11.4,40.64,74.51,66.13,129.59
		c12.52,27.06,18.67,50.04,22.41,49.19c2.52-0.57,1.02-12.9-0.22-35.28c0,0-2.69-48.56,0.46-104.88
		c0.75-13.44,2.13-31.92,2.93-31.89c0.65,0.02,0.62,12.27,0.74,51.15c0.16,50.47-0.12,54.55,0.22,67.35
		c0.11,4.02,1.97,70.52,7.1,70.68c2.25,0.07,1.03-13.22,10.56-34.68c4.64-10.45,9.55-20.82,15.08-30.82
		c4.84-8.77,10.57-17.06,16.13-25.41c10.47-15.73,25.11-27.1,40.23-37.9c3.16-2.26,6.53-4.24,9.87-6.24
		c8.88-5.31,15.59-12.66,20.68-21.59c5.48-9.62,12.39-18.22,20.22-25.92c14.89-14.65,27.98-30.72,38.38-48.79
		c5.57-9.68,10.68-19.79,14.57-30.23c3.74-10.01,5.7-20.69,8.32-31.11c2.79-11.1,5.4-22.25,8.16-33.37
		c0.85-3.44,1.94-6.82,2.92-10.22c0.46,0.07,0.91,0.15,1.37,0.22c-0.15,2.66-0.18,5.33-0.46,7.97c-1.21,11.39-2.57,22.77-3.72,34.16
		c-1.32,13.14-5.58,25.5-10.2,37.69c-7.22,19.04-18.11,35.96-31.34,51.36c-23.38,27.2-30.65,35.03-30.65,35.03
		c-4.28,4.07-10.24,9.44-9.23,11.02c0.8,1.25,5.42-0.78,19.43-5.84c15.67-5.66,16.16-5.39,26.14-9.34
		c9.16-3.62,12.64-6.16,16.95-7.16c14.7-3.43,29.49-6.2,44.49-8.01c18.62-2.25,37.17-5.18,55.8-7.35
		c19.41-2.26,35.92,0.63,53.4,2.15c23.31,2.03,22.47,3.33,35.78,3.5c12.69,0.16,17.07-0.98,48.16-3.29
		c19.47-1.45,29.76-1.73,29.28-1.68c-24.55,2.53-48.54,9.19-73.43,9.48c-9,0.11-17.75-1.06-26.61-1.86
		c-17.99-1.62-35.89-4.85-54.02-3.89c-10.68,0.57-18.51,1.31-34.16,3.55c-11.83,1.69-28.08,5.25-60.58,12.36
		c-2.7,0.59-7.79,1.82-14.48,3.72c-3.47,0.98-6.88,2.16-10.27,3.39c-6.88,2.49-13.73,5.07-20.59,7.61c-11.66,4.3-12.03,4.09-19.38,7
		c-11.89,4.71-17.84,7.06-17.58,8.97c0.49,3.64,21.55-0.34,40.19,11.26c3.77,2.35,7.38,5.3,7.88,5.7
		c6.14,5.03,11.44,10.87,16.06,17.52c4.55,6.55,10.36,12.3,14.36,19.13c7.5,12.82,14.15,26.14,21.07,39.29
		c4.45,8.46,8.73,17.02,13.14,25.5c1.16,2.23,2.6,4.32,3.75,6.56c4.27,8.38,8.61,16.69,15.7,23.16c1.15,1.05,2.01,2.42,2.65,4.11
		c-3.51-0.75-6.05-3-8.13-5.73c-8.87-11.64-18.09-23.04-26.32-35.12c-5.77-8.48-10.22-17.87-15.12-26.93
		c-6.64-12.27-12.15-25.29-20-36.71c-7.06-10.27-15.74-19.9-25.35-27.81C1610.87,1418.39,1601.88,1412.5,1589.08,1410.59z
		 M1617.78,1580.9c-7.85-5.87-13.04-13.57-14.98-23.12c-3.5-17.28-2.96-34.48,1.44-51.64c2.03-7.92,3.14-16.09,4.33-24.2
		c1.18-8.13,2.24-16.3,2.75-24.49c0.25-4.02-0.33-8.27-1.44-12.16c-2.36-8.3-4.6-16.74-11.39-24.53c2.77,0.45,4.3,0.43,5.61,0.96
		c17.4,7.03,24.9,21.12,27.24,38.73c2.67,20.12,0.18,40.09-2.06,60.06c-1.33,11.82-3.02,23.66-3.37,35.52
		c-0.21,7.18,1.82,14.42,2.88,21.63c0.16,1.11,0.51,2.19,0.8,3.4C1625.04,1584.75,1621.41,1583.61,1617.78,1580.9z M1716.74,1641.73
		c-10,0.31-18.51-17.62-31.48-20.24c-1.92-0.39-4.97-0.81-8.58,0.08c-2.85,0.7-5.48,2.12-7.97,4.22c-4.16,3.51-5.01,3.65-9.18-0.02
		c-6.68-5.88-11.47-13.15-14.05-21.6c-2.36-7.75-5.89-14.76-10.16-21.63c-5.13-8.24-5.65-17.81-5-27.21
		c1.18-17.09,3.15-34.13,4.23-51.22c0.75-11.81,0.71-23.69,0.74-35.53c0.02-8.45-1.27-16.74-5.14-24.49
		c0.52-0.26,1.03-0.52,1.55-0.79c4.22,6.17,9,12.05,12.55,18.59c6.54,12.05,12.16,24.6,18.55,36.74
		c4.14,7.86,9.08,15.29,13.45,23.03c2.12,3.74,3.94,7.67,5.6,11.64c5.36,12.85,9.57,26.3,16.09,38.53
		c9.32,17.48,20.31,34.07,30.55,51.07c0.91,1.52,1.59,3.18,2.6,5.23C1725.14,1639.43,1720.1,1641.63,1716.74,1641.73z
		 M1776.71,1642.36c-5.84-0.3-11.82-1.48-17.34-3.4c-7.53-2.61-14.72-6.22-21.98-9.57c-1.34-0.62-2.63-1.84-3.4-3.11
		c-7.12-11.69-14.29-23.35-21.11-35.22c-5.23-9.1-10.23-18.35-14.87-27.76c-3.74-7.58-6.8-15.49-10.14-23.26
		c-0.42-0.99-0.69-2.04-1.03-3.07c0.35-0.16,0.71-0.31,1.06-0.47c4.76,5.19,9.78,10.17,14.22,15.62
		c7.62,9.36,17.67,15.81,26.83,23.34c2.81,2.31,5.74,4.49,8.71,6.6c6.12,4.33,12.39,8.46,18.44,12.88
		c9.03,6.6,17.89,13.44,26.88,20.08c3.6,2.66,5.52,5.92,5.01,10.52c-0.2,1.8,0.12,3.65,0.12,5.48
		C1788.09,1638.31,1784.17,1642.74,1776.71,1642.36z M1811.29,1618.14c-5.11,5.24-20.87-2.64-24.37-4.39
		c-9.82-4.91-14.03-9.5-23.74-17.63c-21.29-17.81-24.22-15.13-37.18-28.34c-8.65-8.82-14.2-17.01-18.85-23.87
		c-7.24-10.68-12.39-20.38-15.95-27.88c0.88-0.06,1.21-0.17,1.29-0.07c10.73,13.02,25.41,20.62,39.44,29.25
		c16.92,10.4,34.19,20.45,48.75,34.21c8.62,8.16,16.86,16.72,25.29,25.09c2.66,2.64,6.01,3.51,6.84,6.74
		C1813.37,1613.45,1812.96,1616.43,1811.29,1618.14z M1774.85,1490.22c3.87,2.12,5.36,2.67,10.54,4.96
		c6.56,2.91,25.82,11.7,35.11,29.02c3.92,7.32,3.23,10.96,2.93,12.38c-1.05,4.97-4.87,9.27-10.89,11.67
		c-14.67,5.86-13.75,8.81-12.24,21.05c0.81,6.64,3.32,11.34,4.32,13.57c7.67,17.05,12.66,24.39,11.68,25.17
		c-1.15,0.92-9.37-8.12-17.21-15.88c-4.2-4.15-25.48-24.64-52.64-41.62c-11.84-7.4-24.12-14.15-35.6-22.07
		c-6.51-4.49-11.91-10.64-17.62-16.24c-9.32-9.13-15.1-20.42-20.12-32.35c-7.51-17.84-18.22-33.82-30.95-48.36
		c-5.54-6.33-11.7-12.13-18.22-18.83c2.99,0.21,5.78,0.2,8.49,0.64c13.54,2.19,27,4.51,40.07,9.07
		c11.78,4.11,22.97,9.46,33.06,16.44c15.71,10.88,32.66,16.07,51.59,15.5c1.55-0.05,3.1,0.35,4.53,0.53
		c0.23,0.71,0.55,1.16,0.47,1.54c-0.84,4.27-4.23,7.72-1.97,13C1763.63,1477.53,1766.59,1485.7,1774.85,1490.22z M1778.06,1436.52
		c1.24,5.2-4.16,12.74-10.25,15.21c-1.39,0.56-2.52,0.92-3.23,0.85c-11.12-1.16-22.4-1.66-33.29-3.97
		c-6.5-1.38-12.85-4.95-18.47-8.73c-26.27-17.65-55.05-27.64-86.59-29.85c-8.12-0.57-15.46-3.61-23.34-7.69
		c5.43-4.22,11.46-5.4,17-7.57c6.92-2.7,10.5-3.66,13.45-4.66c10.16-3.43,36.21-9.19,66.79-7.18c7.41,0.49,10.47,1.12,11.58,1.38
		c3.93,0.89,20.15,4.79,30.62,18.49c6.77,8.87,3.48,10.7,9.11,17.92C1760.82,1432.72,1776.18,1428.64,1778.06,1436.52z
		 M1869.06,1452.43c-0.54,2.93-2.97,3.13-5.27,3.4c-1.14,0.14-2.31,0.36-3.42,0.2c-10.39-1.51-21.04-1.37-31.16-4.64
		c-11.03-3.57-21.17-8.3-28.26-18.3c-4.19-5.92-9.3-11.25-14.42-16.43c-7.63-7.72-17.79-11.12-27.62-14.82
		c-5.38-2.02-10.25-4.14-14.66-8.22c-5.64-5.22-12.15-9.7-18.83-13.56c-9.18-5.3-19.75-5.29-30-5.94
		c-5.83-0.37-11.68-0.27-17.53-0.39c13.21-3.95,26.48-7.32,40.28-7.67c2.46-0.06,5.03,0.5,7.41,1.23
		c13.78,4.19,27.53,8.5,41.28,12.84c1.51,0.48,3.04,1.16,4.29,2.11c10.24,7.67,20.49,15.34,30.58,23.2
		c3.59,2.8,6.54,6.41,10.15,9.17c10.33,7.92,20.52,16.08,31.4,23.18c6.63,4.33,14.39,6.92,21.69,10.19
		C1867.03,1448.92,1869.65,1449.21,1869.06,1452.43z M1927.81,1405.36c-5.15,0.98-10.27,2.12-15.32,3.51
		c-4.23,1.16-7.11,3.97-8.45,8.28c-0.88,2.84-2.04,5.59-2.86,8.44c-1.69,5.91-3.33,7.46-9.41,8.12c-3.64,0.4-7.31,0.49-10.95,0.9
		c-4.83,0.55-8.79,2.37-10.23,7.61c-0.29,1.05-1.03,1.97-1.88,3.55c-7.84-2.84-15.31-6.15-22.31-10.27
		c-11.44-6.74-21.94-14.81-32.06-23.46c-9.88-8.44-20.51-16-30.81-23.95c-0.18-0.14-0.45-0.16-0.61-0.31
		c-13.7-13.29-32.03-15.8-49.16-21.1c-1.71-0.53-3.44-0.98-5.17-1.46c0.09-0.63,0.18-1.27,0.27-1.9c10.2-0.64,20.42-2.1,30.58-1.74
		c17.81,0.63,35.59,2.31,53.37,3.68c10.21,0.78,20.46,1.39,30.6,2.79c15.23,2.1,29.93,6.18,44.25,12.02
		c15.46,6.31,31.4,11.35,47.95,14.13c0.89,0.15,1.75,0.47,2.92,0.8c0.5,1.87,1.01,3.78,1.53,5.72
		C1936.34,1403.83,1932.09,1404.54,1927.81,1405.36z M1976.19,1378.96c-10.84-2.89-21.33-1.21-31.99,0.13
		c-2.87,0.36-4.68,1.76-5.61,4.33c-0.77,2.13-1.29,4.35-2.16,7.38c-2.44-0.21-5.16-0.03-7.63-0.73c-7.48-2.12-14.91-4.43-22.27-6.93
		c-19.21-6.53-37.98-14.49-59.38-17.23c1.55-0.76,1.91-1.08,2.27-1.09c13.85-0.13,27.2-3.64,40.72-5.96
		c22.9-3.92,45.89-6.09,68.99-1.88c10.56,1.92,21.02,4.37,31.11,6.5C1992.65,1374.09,1985.83,1381.53,1976.19,1378.96z"/>
</g>
</svg>
