<?xml version="1.0" encoding="utf-8"?>
<!-- Generator: Adobe Illustrator 24.0.1, SVG Export Plug-In . SVG Version: 6.00 Build 0)  -->
<svg version="1.1" id="Слой_1" xmlns="http://www.w3.org/2000/svg" xmlns:xlink="http://www.w3.org/1999/xlink" x="0px" y="0px"
	 viewBox="0 0 3000 3000" style="enable-background:new 0 0 3000 3000;" xml:space="preserve">
<style type="text/css">
	.st0{fill:none;}
	.st1{fill:#45482A;}
</style>
<rect class="st0" width="3000" height="3000"/>
<g>
	<path class="st1" d="M1402.9,1302c3.03,0.25,6.11,1.01,9.09,0.68c19.68-2.21,39.34-4.58,59-7.04c11.31-1.41,22.57-3.34,33.89-4.56
		c9.71-1.05,19.48-1.4,29.22-2.08c4.99-0.35,9.98-0.71,14.97-1.13c11.84-0.99,23.6-0.41,35.36,0.6c19.6,1.69,39.23,3.07,58.63,6.47
		c14.22,2.49,28.68,3.68,42.93,6.01c9.57,1.57,19,3.98,28.43,6.26c14.26,3.45,28.74,6.32,42.63,10.93
		c9.16,3.04,10.46,4.13,36.03,15.55c27.84,12.44,53.09,23.1,68.81,33.32c10.96,7.12,18.39,13.83,18.39,13.83
		c6.59,6.57,14,12.27,21.05,18.36c19.57,16.91,40.34,32.4,57.31,52.4c13.24,15.6,24.99,32.19,33.36,51.19
		c3.67,8.34,4.85,14.53,5.31,16.52c4.85,20.79,2.11,37.65,0.18,48.88c-3.24,18.79-9.05,31.96-18.82,54.11
		c-4.94,11.21-7.42,16.8-10.98,21.96c-13.08,18.96-31.03,27.68-39.66,31.75c-21.18,9.98-40.09,10.91-57.9,11.77
		c-14.33,0.69-26.59-0.31-32.86-0.85c-7.47-0.64-19.7-1.67-33.37-4.89c-7.59-1.78-14.62-4-54.36-22.06
		c-24.02-10.91-25.09-11.77-36.98-16.75c-12.65-5.3-25.46-10.28-38.41-14.79c-12.45-4.33-27.34-9.3-44.48-14.11
		c-13.39-3.76-20.26-5.67-28.95-6.93c-18.56-2.68-35.92-1.73-36.07,0c-0.18,2.09,25.12,1.82,56.75,15.81
		c5.17,2.29,16.04,7.4,28.36,15.96c24.11,16.74,43.9,30.49,45.86,51.57c2.38,25.71-22.96,49.89-44.13,58.69
		c-3.6,1.49-12.89,3.09-31.48,6.29c-31.01,5.34-42.1,4.84-45.92,4.61c-4.99-0.3-15.93-2.59-29.94-5.32
		c-13.57-2.64-23.83-9.48-36.02-16.68c-41.09-24.28-35.49-26.92-55.54-35.9c-16.74-7.49-33.37-11.35-58.06-17.08
		c-6.13-1.42-12.25-2.73-19.23-3.69c-7.29-1-14.75-0.97-21.98-2.2c-10.13-1.73-20.24-1.35-30.46-0.61
		c-10.81,0.78-21.64,0.85-32.45,1.48c-10.13,0.59-20.25,1.75-30.38,2.24c-11.49,0.55-23,0.86-34.49,0.87
		c-9.08,0.01-18.15-0.42-27.2-0.98c-7.64-0.47-15.25-1.36-22.87-2.14c-12.12-1.24-24.24-2.5-36.35-3.83
		c-8.99-0.99-17.97-2.06-26.94-3.17c-5.61-0.7-11.18-1.97-16.82-2.22c-22.93-1.05-40.63-15.32-45.07-18.32
		c-21.04-14.23-31.64-31.53-34.31-36.09c-10.17-17.33-12.5-33.06-14.07-40.57c-2.64-12.67-2.13-25.68-0.62-38.61
		c0.84-7.23,2.17-14.41,3.19-21.62c1.65-11.66,6.96-22.15,11.63-32.6c5.26-11.77,12.75-22.52,19.28-33.71
		c6.71-11.49,17.1-19.17,26.77-27.59c1.41-1.23,3.17-2.07,4.4-3.44c7.58-8.51,17.83-12.47,27.31-17.67
		c17.67-9.7,36.08-17.64,54.71-25.03c9.4-3.73,18.83-7.4,28.11-11.44c10.45-4.56,20.14-10.72,27.21-20.02
		c4.18-5.5,7.35-12.07,9.89-18.58c8.25-21.24,21.49-38.6,38-53.6c7.81-7.1,16.14-13.24,25.45-18.19
		c17.34-9.23,35.62-13.23,54.68-14.1c11.45-0.52,22.86-1.14,37.15,3.21c29.19,8.88,40.71,29.23,42.62,34.09
		c0.6,1.52,1.85,4.87,1.04,8.76c-0.44,2.1-1.36,3.33-3.73,6.85C1407.58,1294.85,1405.49,1298,1402.9,1302z M1376.23,1538.97
		l-0.17,0.08c2.6,4.1,0.72,8.5,0.49,12.81c-0.37,6.78-1.38,13.66-0.7,20.31c0.95,9.24,3.13,18.32,4.93,27.43
		c1.65,8.34,1.85,16.7,0.38,25.19c-1.29,7.42-2.34,14.87-3.51,22.31c-0.37,2.33-0.44,4.78-1.25,6.95c-2.08,5.53-1.33,11-1.09,16.86
		c15.88,3.2,31.44,6.34,47.37,9.55c1.02-7.15,1.85-13.88,2.95-20.58c1.88-11.49,10.81-52.36,13.71-66.4
		c4.2-20.37,11.78-58.22,6.3-83.21c-0.29-1.31-2.08-9.66-4.77-20.36c-4.83-19.18-9.86-38.3-14.6-57.5
		c-3.71-15.03-5.11-30.38-3.49-46.01c1.82-17.57,3.94-35.12,5.59-52.7c0.65-6.91,0.39-13.89,0.57-21.92
		c-9.72,2.59-18.85,2.62-28.08,2.16c-3.18-0.16-5.99-0.26-8.13-1.9c0,0-1.39-1.12-2.19-2.73c-3.12-6.24,11.7-17.14,11.85-28.08
		c0.17-12.24-18.08-21.63-23.65-24.49c-17.11-8.8-33.1-7.02-52.9-5.89c-15.59,0.89-30.42,5.6-44.39,13.23
		c-2.16,1.18-4.05,2.93-5.59,4.06c0.67,7.13,0.97,13.48,1.98,19.69c0.62,3.81,2.23,7.44,3.6,11.07c0.73,1.93,1.95,3.65,2.88,5.5
		c5.64,11.32,11.23,22.68,16.92,33.98c1.65,3.28,3.4,6.54,5.41,9.6c6.28,9.56,13.25,18.68,16.88,29.89
		c1.57,4.85,3.28,9.65,4.64,14.56c3.86,13.98,6.01,28.22,4.11,42.95c-1.03,7.95-2.14,15.89-3.51,23.79
		c-0.72,4.14-1.46,8.49-3.26,12.21c-5.69,11.72-9.79,23.96-13.88,36.29c-4.06,12.22-3.35,24.66-4.02,37.01
		c-0.37,6.69,0.86,13.52,1.98,20.15c1.99,11.84,2.26,23.76,1.6,35.77c-0.49,8.9-0.34,17.93-1.94,26.66
		c-1.9,10.39-5.33,20.52-8.18,30.74c-1.03,3.68-1.77,7.28-0.33,11.08c17.95-0.3,35.73-0.6,53.71-0.9c0.34-0.74,0.8-1.56,1.1-2.43
		c3.08-8.89,6.32-17.73,9.11-26.71c1.6-5.14,2.88-10.47,3.56-15.79c1.61-12.58,2.81-25.21,4.09-37.82c0.19-1.85,0.2-3.83-0.24-5.59
		C1368.56,1565.8,1372.68,1552.41,1376.23,1538.97z M1445.41,1311.11c-2.35-0.2-3.46-0.37-4.59-0.37c-5.35,0.02-6.81,1.28-7.7,6.78
		c-0.22,1.37-0.09,2.8-0.08,4.2c0.04,4.65,0.49,9.33,0.05,13.94c-0.82,8.66-2.26,17.28-3.25,25.93c-2.19,19.24-3.08,38.49-1.21,57.7
		c0.48,4.86,1.36,9.75,2.71,14.4c2.78,9.6,6.32,18.94,8.97,28.58c3.14,11.42,6.13,22.93,8.32,34.6c1.93,10.29,3.27,20.8,3.73,31.3
		c0.36,8.09-0.86,16.33-1.72,24.48c-0.89,8.43-1.83,16.89-3.37,25.23c-2.32,12.5-5.29,24.89-7.78,37.36
		c-2.45,12.25-4.69,24.54-6.92,36.83c-1.74,9.6-2.42,19.14,0.62,28.55c1.3,4.03,3.26,6.56,7.46,7.93c5.75,1.88,11.45,4.35,16.62,7.5
		c10.04,6.12,19.68,12.93,29.53,19.37c3.36,2.2,6.81,4.32,11.38,4.23c1.56-37.83,5.44-66.55,9.23-78.96
		c2.84-9.3,5.78-17.42,5.78-17.42c1.97-5.56,4.19-11.04,6.23-16.58c1.65-4.49,3.2-9.01,4.8-13.52c-0.51,6.19-2.05,12.05-3.59,17.9
		c-1.53,5.79-2.58,10.06-3.79,14.31c-3.78,13.24-8.65,28.11-7.89,36.47c0.18,1.98,0.48,4.15,0.48,4.15
		c1.52,8.26,3.14,16.49,4.6,24.76c0.85,4.8,1.82,9.63,2.07,14.5c0.25,4.89,0.54,10.07-0.72,14.73c-2.56,9.45,2.98,13.06,9.28,16.58
		c0.79,0.44,1.65,0.74,2.47,1.12c15.72,7.39,32.41,11.15,49.63,12.86c1.48,0.15,3.02-0.25,5.79-0.51c-2.54-3.81-4.43-6.83-6.49-9.72
		c-4.01-5.63-8.09-11.22-8.59-18.62c-0.67-9.91,0.59-19.7,3.63-29.17c1.87-5.82,2.94-6.9,6.44-14.89
		c6.86-15.65,9.28-26.45,9.79-26.31c0.54,0.15-1.45,12.58-5.99,27.4c-5.46,17.81-8.62,24.95-9.19,38.14
		c-0.17,3.85,0.57,8.28,2.41,11.49c4.2,7.32,7.89,15.21,14.35,20.77c1.86,1.6,4.85,2.7,7.27,2.55c5.41-0.34,10.85-1.34,16.19-2.58
		c17.48-4.06,26.3-2.37,41.94-10.18c17.12-8.55,35.06-29.19,31.83-48.38c-1.53-9.05-7.3-15.03-15.08-23.09
		c-4.35-4.51-13.74-12.35-34.92-23.3c-10.19-5.27-20.16-10.98-30.37-16.22c-3.45-1.77-7.32-2.68-11.75-4.25
		c0.57,2.6,0.71,4.7,1.49,6.5c2.79,6.39,3.31,16.87,3.66,21.92c0.98,14.39-8.23,18.29-12.61,37.66c-2.13,9.41-1.99,17.49-1.57,22.74
		c-1.64-4.43-3.58-11.57-2.63-20.16c0.56-5.08,1.81-9.09,2.81-11.41c3.17-7.34,6.25-14.72,9.23-22.14c0.59-1.47,0.82-3.2,0.82-4.79
		c0-10.55-3.07-20.27-7.19-29.62c-0.83-1.88-2.72-3.89-4.56-4.5c-7.24-2.4-11.05-2.56-18.22-4.92c-7.64-2.51-14.9-8.85-13.99-12.24
		c0.61-2.29,4.89-2.99,15.45-4.07c7.84-0.8,18.3-1.73,30.81-2.45c3.86-11.01,7.41-21.83,8-33.61c0.7-13.9-2.37-27.11-5.33-40.18
		c-4.68-20.63-10.83-40.85-16.29-61.27c-1.02-3.81-1.26-7.91-2.59-11.57c-3.44-9.45-5.24-19.2-6.37-29.29
		c-2.85-25.31,0.49-49.58,11.15-73.04c4.96-10.93,9.59-22.06,13.73-33.33c4.58-12.46,3.91-13.61-9.15-13.9
		c-17.17-0.38-34.29-2.4-51.54-0.91c-3.36,0.29-6.7,1.04-10.06,1.36c-8.13,0.78-16.27,1.28-24.39,2.18
		c-13.75,1.54-27.48,3.22-41.21,5.01c-4.41,0.58-8.78,1.67-13.71,2.63c-0.67,9.4-1.17,18.06-1.91,26.71
		c-1.43,16.62-2.91,33.24-4.53,49.85c-1.08,11.07-0.83,22.07,0.27,33.04c0.47,4.64,0.65,9.45,2.01,13.81
		c3.31,10.58,6.18,21.54,11.16,31.25c6.38,12.46,8.98,25.8,10.89,39.42c1.14,8.08,0.46,14.2,0.13,20.28
		c-0.65,11.82-2.8,21.19-7.1,39.94c-0.77,3.37-2.91,8.48-5.32,15.29c-0.34,0.97-0.97,1.83-1.47,2.75c-0.82-1.33-0.98-2.46-0.77-3.52
		c2.34-12.26,4.72-24.52,7.11-36.77c2.95-15.15,4.29-30.31,1.47-45.49c-2.4-12.91-6.21-25.45-12.26-36.8
		c-4.86-9.13-8.22-18.86-9.98-28.74c-2.94-16.52-3.41-33.51-0.57-50.48c0.78-4.64,1.27-9.38,1.29-14.05
		c0.07-15.75,1.56-31.38,4.2-46.94C1444.87,1317.11,1445.05,1314.36,1445.41,1311.11z M1138.53,1468.76
		c0.24,3.66,0.57,7.67,0.57,7.67c0.34,3.68,1.06,7.35,0.99,11.02c-0.12,5.92-0.27,11.79,2.12,17.26
		c4.89,11.22,10.04,22.31,14.66,33.65c3.57,8.76,6.77,17.71,9.61,26.77c1.79,5.72,2.83,11.74,3.8,17.7
		c1.05,6.43,2.03,12.93,2.31,19.45c0.39,9.09,0.05,18.23,0.13,27.34c0.1,11.22,0.3,22.43-2.61,33.51c-0.49,1.85,0.09,3.96,0.2,6.62
		c10.77,0.85,20.89,1.76,31.03,2.39c6.1,0.38,12.23,0.28,18.34,0.49c7.22,0.25,14.44,0.96,21.66,0.82
		c9.51-0.19,19.03-1.02,28.55-1.56c6.33-0.36,12.67-0.7,19-1.08c5.61-0.34,6.39-1.16,7.37-6.97c0.43-2.55,1.1-5.07,1.72-7.59
		c3.35-13.7,7.81-27.06,8.56-41.4c1.1-21-0.05-41.72-2.47-62.42c-0.56-4.8-0.28-9.74-0.29-14.62c0-1.63,0.6-3.33,0.39-4.9
		c-1.42-10.66,0.67-21.04,2.66-31.49c2.15-11.33,2.92-22.99,5.98-34.05c3.71-13.39,5.63-26.78,5.26-40.43
		c-0.29-10.58-1.95-20.99-7.02-30.34c-6.58-12.12-12.08-24.89-19.8-36.33c-2.8-4.16-5.74-8.23-8.36-12.51
		c-4.66-7.59-9.3-15.22-13.62-23.03c-1.64-2.97-2.37-6.5-3.54-9.76c-2.97-8.26-6.93-16.15-7.67-25.21c-0.2-2.46-0.69-4.9-1.19-8.28
		c-6.75,8.32-16.4,20.64-26.4,35.12c-13.49,19.53-8.71,15.66-16.78,29.4c-2.1,3.57-2.07,7.09-1.09,10.85
		c2.64,10.12,5.34,20.23,7.69,30.44c0.88,3.81,1.23,7.88,1.14,11.83c-0.34,15.02-1.47,30.05-1.31,45.04
		c0.12,11.23,1.67,22.41,2.75,33.59c0.36,3.75,1.18,7.43,0.08,11.28c-1.48-3.45-2.47-6.98-3.05-10.58
		c-1.37-8.51-2.9-17.01-3.68-25.6c-0.7-7.67,0-15.53-0.78-23.18c-1.29-12.58-2.79-25.18-5.13-37.56c-1.85-9.76-5.09-19.2-7.98-29.76
		c-18.81,13.53-39.6,19.44-59.68,27.66C1139.39,1431.46,1138.08,1461.91,1138.53,1468.76z M1695.81,1625.15
		c0.26-2.51,0.52-4.3,0.6-6.08c0.85-17.87,4.81-34.91,12.72-51.16c9.08-18.66,18.15-37.39,22.86-57.79
		c3.82-16.55,7.23-33.18,10.78-49.79c0.29-1.37,0.39-2.81,0.37-4.21c-0.22-11.73-0.64-23.44-0.72-35.17c-0.07-11.5-0.18-23,2-34.45
		c3.19-16.77,8.08-33.03,14.08-49c2.54-6.75,2.3-7.58-4.1-9.57c-6.04-1.87-12.38-2.94-18.2-5.33c-9.34-3.84-19.26-4.09-28.51-6.02
		c-0.83,0.92-1.27,1.22-1.43,1.63c-0.34,0.87-0.51,1.81-0.81,2.69c-5.56,16.13-11.97,31.93-22.42,45.47
		c-5.9,7.66-9.88,15.98-12.64,25.09c-0.69,2.26-0.99,4.66-1.89,6.82c-5.16,12.35-7.28,25.28-8.13,38.48
		c-0.14,2.21-0.82,4.4-1.26,6.61c-2.39-11.41-0.23-22.65,2.13-33.54c2.64-12.17,7.22-23.95,10.88-35.92
		c2.83-9.26,6.55-18.42,8.04-27.89c1.57-10,5.14-19.05,8.88-28.21c0.58-1.43,0.66-3.07,1.16-5.55c-20.88-2.93-41.28-5.78-62.25-8.72
		c-1.38,4.93-2.7,8.94-3.62,13.03c-3,13.23-8.09,25.61-14.09,37.74c-7.41,14.99-15.41,29.79-20,46c-1.72,6.07-2.48,12.45-3.24,18.73
		c-0.53,4.4-0.01,8.91-0.51,13.32c-1.41,12.36-0.07,24.43,3.11,36.1c6.38,23.33,12.63,46.64,17.15,70.54
		c3.18,16.81,2.71,32.98-2.57,49.33c-0.91,2.83-0.97,5.93-1.44,8.96c15.99,4.18,31.55,7.8,46.82,12.37
		C1664.9,1614.25,1679.94,1619.79,1695.81,1625.15z M1807.25,1501.53c-0.59-0.07-0.1-27.51,5.87-49.94
		c0.57-2.13,2.3-8.41,4.06-17.15c1.03-5.09,3.3-11.19,2.91-17.96c-0.48-8.4-0.55-16.85-0.4-25.28c0.16-9.59,0.86-19.18,1.12-28.77
		c0.16-6.04-0.04-6.04-5.34-8.08c-4.64-1.79-9.35-3.45-13.84-5.55c-10.4-4.86-20.69-9.96-31.01-14.97
		c-2.85-1.38-5.37-1.13-6.94,2.07c-1.64,3.36-3.33,6.76-4.47,10.3c-2.25,6.96-3.74,14.17-6.24,21.03
		c-9.92,27.29-6.61,54.93-6.61,54.93c-0.19,16.49,1.35,13.63,1.74,38.61c0.32,19.98,0.43,30.21-1.72,42.01
		c-1.79,9.79-2.58,7.14-11.21,36.54c-3.65,12.44-7.09,24.95-10.21,37.53c-2.28,9.15-4.17,18.41-5.7,27.7
		c-0.83,5.03-0.58,10.23-0.75,15.35c-0.07,2.09,0.17,4.18,0.07,6.26c-0.31,6.63,0.76,9.2,6.65,11.38
		c9.92,3.67,18.38,10.3,28.59,13.53c7.89,2.49,15.47,6.35,22.66,10.54c9.55,5.56,20.25,7.62,30.41,11.29
		c3.13,1.13,5.79,0.42,7.92-2.39c0.99-1.31,2.11-2.54,3-3.92c8.71-13.42,17.79-26.61,25.92-40.38c5.96-10.1,11.61-20.62,15.7-31.59
		c6.27-16.83,10.37-34.39,11.37-52.37c0.61-11.01,0.28-22.05,0.44-33.08c0.2-13.34-1.73-26.53-0.21-40.04
		c1.23-10.99,4.45-21.13,8.06-31.37c3.36-9.56,6.39-19.24,9.46-28.9c1.02-3.2,0.35-5.97-2.26-8.16
		c-12.86-10.76-24.98-22.56-40.11-30.14c-2.13-1.07-4.39-1.88-7.34-3.14c-1.39,6.07-3.23,11.25-3.63,16.51
		c-0.77,9.98-3,19.4-7.12,28.56c-0.98,2.18-1.46,4.93-3.07,10.19c-6.38,20.86-9,27.72-11.35,40.39c-0.07,0.39-0.36,2.12-0.94,5.56
		C1808.1,1495.89,1807.52,1501.56,1807.25,1501.53z M1044.92,1496.09c0.08,0.66,0.24,1.32,0.23,1.99
		c-0.23,14.57-0.75,29.17,1.75,43.54c0.55,3.18,1.39,6.33,2.47,9.34c1.15,3.21,3.24,6.1,4.04,9.38c1.41,5.73,3.39,10.93,7.01,15.61
		c2.18,2.82,3.54,6.49,4.7,9.99c4.96,15.01,7.4,30.66,8.76,46.48c0.72,8.39,3.72,15.79,6.77,23.28c1.06,2.59,2.89,3.81,5.69,4.13
		c19.1,2.2,38.17,4.59,57.27,6.77c5.23,0.6,6.55-0.67,7.48-5.84c2.64-14.61,4.92-29.32,5.19-44.08c0.18-10.03-0.13-20.43-2.54-29.97
		c-7.87-31.14-13.7-40.07-17.98-67.23c-0.81-5.16-1.51-11.32-1.45-36.85c0.06-22.05,0.67-52.55,3.09-89.86
		c-1.19,0.3-3.12,0.35-5.04,1.41c-9.28,5.11-19.2,8.66-28.64,13.5c-19.92,10.2-29.09,17.07-35.27,22.21
		c-3.01,2.5-8.05,6.89-13.75,12.97c-14.18,15.13-21.77,29.35-27.46,40.17c-5.21,9.92-8.72,17.42-12.54,28.31
		c-5.22,14.88-5.37,30.51-6.2,46.04c-0.6,11.27,0.5,23.95,5.01,37.34c9.92,29.45,34.86,45.9,46.85,52.63
		c-0.69-2.19-1.18-3.47-1.5-4.79c-1.91-7.89-4.77-15.68-5.43-23.72c-1.07-13.03-0.9-26.23-0.81-39.37
		c0.05-6.47-0.59-12.48-3.44-18.3c-2.22-4.53-4.1-9.37-5.28-14.31C1039.9,1530.04,1042.36,1512.98,1044.92,1496.09z
		 M1817.73,1674.51c3.16,0.6,5.27,1.24,7.41,1.37c15.57,0.96,31.14,1.77,46.77,2.15c16.5,0.4,31.98-3.2,47.4-8.7
		c1.72-0.61,3.59-0.78,3.79-0.83c-3.02-17.03-0.12-28.71,2.66-35.75c2.88-7.3,8.34-15.97,19.27-33.3c3.06-4.86,2.81-4.17,4.16-6.52
		c9.08-15.82,15.97-32.66,21.42-50.02c3.24-10.31,5.26-21,7.67-31.55c0.4-1.74,0.45-3.9-0.2-5.45c-2.5-5.96-4.8-12.14-8.2-17.53
		c-7.57-11.96-16.75-22.74-25.38-33.85c-8.46-10.89-19.44-19.68-29.4-29.3c-1.57-1.52-3.59-2.55-5.66-3.99
		c-0.84,0.83-2.35,2.35-4.12,4.34c-24.17,27.25-27.05,64.39-28.81,91.35c-0.98,14.98-0.16,13.8-1.01,26.48
		c-0.34,4.98-2.15,28.59-12.2,54.58c-5.8,15-16.18,31.11-36.96,63.35C1822.74,1666.94,1819.72,1671.51,1817.73,1674.51z
		 M1982.09,1514.81c-0.76,1.82-1.3,2.76-1.56,3.78c-1.38,5.49-2.16,11.18-4.11,16.45c-5.8,15.7-11.82,31.32-18.22,46.78
		c-3.14,7.59-7.17,14.73-12.27,21.35c-9.89,12.85-10.5,15.79-13.07,20.87c-4.1,8.11-7.72,20.8-4.52,40.37
		c14.23-3.51,23.38-13.68,30.95-25.44c1.34-2.09,2.62-4.13,3.94-6.39c0,0,4.71-8.03,8.8-17.12c7.99-17.77,14.46-32.14,16.8-51.97
		c2.34-19.78-0.92-32.34-1.7-35.21C1985.56,1522.56,1983.61,1517.97,1982.09,1514.81z M1270.71,1271.2
		c-0.09,0.47-4.31,1.77-4.88,2.27c-2.38,2.11-3.27,6.31-3.82,9.28c-1.23,6.6,0.33,13.76,2.4,20.02
		c11.7,35.33,41.96,62.17,53.55,97.53c5.88,17.95,6.59,37.57,2.01,55.9c-2.86,11.46-7.76,22.65-7.65,34.45
		c18.08-32.96,20.91-73.89,7.55-109.03C1305.43,1343.66,1273.18,1311.74,1270.71,1271.2z M1580.14,1430
		c0.53,0.12,1.07,0.23,1.6,0.35c0.28-2.47,0.83-4.96,0.79-7.42c-0.14-10.7,1.52-21.2,5.66-31.03c5.93-14.09,12.25-28.04,19.08-41.71
		c6.06-12.12,10.86-24.55,13.56-37.8c0.59-2.89,0.75-5.85,1.16-9.15c-4.92-0.75-9.04-1.38-12.38-1.89
		c-6.03,14.12-11.83,27.24-17.25,40.51c-4,9.8-8.02,19.65-11.14,29.75C1575.22,1391.06,1577.17,1410.58,1580.14,1430z
		 M1142.65,1514.76c-5.06,0.38-4.16,2.95-3.61,5.19c2.29,9.24,4.71,18.45,6.98,27.7c4.24,17.29,11.3,33.69,13.09,51.8
		c0.93,9.4,0.91,18.69,0.03,28.02c-1.26,13.26-3.01,26.49-4.63,40.44c3.51,0.21,6.75,0.4,10.12,0.59c0.69-1.93,1.29-3.21,1.59-4.56
		c2.45-10.88,3.36-21.84,2.83-32.93c-0.32-6.77-0.01-13.58-0.11-20.37c-0.1-7.49,0.81-15.28-0.79-22.38
		c-2.52-11.23-4.65-22.55-8.34-33.6C1155.14,1540.67,1145.68,1529.37,1142.65,1514.76z M1715.07,1630.78
		c0.72-22.18,3.53-39.97,6.16-52.63c0,0,6.08-24.31,15.04-55.31c2.55-8.81,5.93-17.3,7.53-26.47c1.36-7.76,0.91-15.28,0.8-23.03
		c-0.81,0.91-1.27,1.92-1.53,2.97c-3.02,12.6-5.86,25.24-9.03,37.81c-4.36,17.23-11.6,33.4-18.44,49.72
		c-3.9,9.32-9.44,18.01-11.3,28.13c-1.57,8.5-3.22,17.02-4.2,25.59C1699.08,1626.61,1705.26,1632.04,1715.07,1630.78z
		 M1875.38,1495.4c0.35-8.88,1.73-15.86,2.89-20.52c6.07-24.25,17.89-43.49,17.89-43.49c3.86-6.28,7.88-11.81,5.82-16.42
		c-1.45-3.26-5.55-4.63-8.82-5.28c-2.22,5.43-4.57,10.99-6.76,16.61c-1.7,4.38-3.23,8.83-4.77,13.27c-2.08,6-4.85,11.89-5.98,18.05
		C1873.35,1470.07,1871.71,1482.68,1875.38,1495.4z M1078.03,1656.42c-1.42-3.8-2.38-6.37-3.34-8.94c-1.05-2.8-2.58-5.5-3.07-8.41
		c-2.34-13.78-4.47-27.62-6.54-41.46c-1.15-7.71-3.97-14.56-8.71-21.43c-0.01,6.38,0.42,11.93-0.1,17.4
		c-1.79,19.04-0.52,37.28,8.26,54.4C1067.37,1653.52,1071.31,1655.33,1078.03,1656.42z M1375.84,1598.04
		c-0.3,1.76-0.69,3.5-0.89,5.27c-1.77,14.99-4.19,29.85-9.94,43.98c-1.51,3.71-3.16,7.37-4.62,11.1c-3.28,8.43-2.16,10.56,6.16,12.1
		c1.06,0.2,2.11,0.47,4.06,0.91c0.72-4.29,1.44-8.13,2-11.98c1.27-8.84,2.43-17.69,3.67-26.54c1.01-7.19,2.23-14.35,3.05-21.56
		C1379.87,1606.62,1378.44,1602.26,1375.84,1598.04z M1678.34,1365.06c10.1-8.61,23.91-39.18,22.87-49.58
		c-1.68-0.4-3.54-0.85-5.18-1.24c-6.42,7.78-9.05,16.5-10.96,25.57c-0.62,2.93-1.94,5.71-2.7,8.61
		C1681.03,1353.53,1679.87,1358.68,1678.34,1365.06z M1507.77,1673.69c-0.52-0.31-0.72-0.51-0.91-0.51c-0.18,0-0.49,0.22-0.51,0.37
		c-0.42,3.21-0.51,6.49-1.26,9.61c-2.78,11.56-3.28,23.2-2.46,34.91c0.43,6.19,1.54,7.25,8.63,8.53
		C1515.25,1708.32,1510.37,1691.01,1507.77,1673.69z M1823.6,1359.21c0.14,3.69,0.26,7.4,0.37,11.13
		c0.38,13.64,0.49,27.01,0.36,40.1c1.19-2.39,1.89-3.32,2.12-4.34c2.61-11.72,5.63-23.39,7.55-35.22
		C1835.35,1362.5,1833.26,1360.67,1823.6,1359.21z M1216.67,1412.9c2.91-10.37-2.35-47.15-7.46-56.66c-3.37,1.47-5.13,3.43-3.52,7.5
		c1.78,4.5,3.3,9.14,4.65,13.81c1.15,3.96,2.1,8.02,2.8,12.11C1214.44,1397.38,1215.5,1405.15,1216.67,1412.9z"/>
</g>
</svg>
