<?xml version="1.0" encoding="utf-8"?>
<!-- Generator: Adobe Illustrator 24.0.1, SVG Export Plug-In . SVG Version: 6.00 Build 0)  -->
<svg version="1.1" id="Слой_1" xmlns="http://www.w3.org/2000/svg" xmlns:xlink="http://www.w3.org/1999/xlink" x="0px" y="0px"
	 viewBox="0 0 3000 3000" style="enable-background:new 0 0 3000 3000;" xml:space="preserve">
<style type="text/css">
	.st0{fill:none;}
	.st1{fill:#45482A;}
</style>
<rect class="st0" width="3000" height="3000"/>
<g>
	<g>
		<path class="st1" d="M1999.8,1401.96c-0.56-5.81-1.46-11.86-3.7-17.17c-8.7-20.57-11.83-42.32-13.62-64.2
			c-2.08-25.43-9.37-49.02-20.59-71.76c-8.86-17.94-18.83-35.16-30.53-51.34c-4.02-5.56-8.41-11.05-13.49-15.61
			c-14.57-13.09-31.2-22.88-49.72-29.54c-17.19-6.19-35.2-8.49-52.99-11.79c-6.43-1.19-13.01-1.52-20.52-2.35
			c1.4-4.36,3.05-7.42,3.28-10.59c1.51-20.29,12.61-37.71,16.91-57.18c1.74-7.89,5.75-15.25,8.3-23c1.18-3.58,1.78-7.49,1.85-11.26
			c0.26-13.53,0.51-27.08,0.15-40.6c-0.3-11.21-1.3-22.41-2.35-33.58c-0.38-4.01-2.1-7.88-2.74-11.89
			c-1.79-11.24-6.16-21.6-11.02-31.71c-7.54-15.66-15.55-31.1-23.34-46.64c-5.48-10.92-9.67-22.47-17.25-32.36
			c-5.64-7.35-12.26-13.01-21.04-15.89c-17-5.58-34.05-11.01-51.08-16.48c-5.84-1.88-12-3.07-17.47-5.71
			c-11.21-5.41-22.66-7.19-34.97-5.42c-2.82,0.4-4.96,0.53-5.69,0.63c-10.02,1.37-43.61,5.45-43.86,4.04
			c-0.17-0.95,14.65-4.56,26.3-6.89c18.87-3.77,22.2-2.73,33.22-6.51c10.65-3.65,18.27-8.09,21.98-10.62
			c8.83-6.02,16.86-13.28,24.88-20.41c4.56-4.05,9.25-8.37,12.47-13.46c16.29-25.74,35.48-49.37,53.3-73.98
			c9.11-12.58,16.14-26.04,21.99-40.26c1.45-3.54,3.03-7.12,3.77-10.84c4.21-21.1,6.56-42.44,6.25-63.96
			c-0.1-6.84-1.3-13.77-2.83-20.47c-2.08-9.13-10.47-13.75-18.72-10.45c-3.21,1.28-6.97,1.27-10.5,1.68
			c-7.62,0.89-14.61-2.06-21.74-3.88c-8.9-2.26-17.53-5.72-26.51-7.48c-10.75-2.1-21.75-3-32.65-4.32
			c-4.31-0.52-8.78-0.25-12.98-1.2c-14.43-3.26-28.88-3.46-43.44-1.34c-18.41,2.68-34.01,10.23-45.93,25.06
			c-10.71,13.33-22.02,26.19-33.07,39.24c-0.83,0.97-1.72,1.91-2.66,2.77c-6.95,6.38-14.39,12.29-20.76,19.2
			c-8.66,9.38-17.64,18.79-24.45,29.48c-14.94,23.46-21.37,49.62-19.76,77.47c0.46,7.86,2.24,15.66,3.54,23.46
			c0.85,5.09,1.93,10.13,2.95,15.4c-6.85-3.52-12.75-6.98-18.98-9.66c-9.14-3.93-18.47-7.47-27.82-10.89
			c-11.3-4.14-22.72-7.86-35.02-7.61c-4.84,0.1-9.71-0.22-14.53-0.72c-20.06-2.08-39.75-0.75-58.93,5.88
			c-20.23,6.99-38.84,16.87-54.82,31.27c-9.68,8.71-19.08,17.72-28.73,26.46c-10.57,9.56-21.57,18.6-30.41,29.96
			c-8.68,11.15-13.94,24.02-16.91,37.37c-1.93,8.67-0.78,18.24,1.71,27.31c2.11,7.67,6.44,12.81,14.04,14.69
			c10.63,2.63,21.42,4.66,32.07,7.21c7.92,1.9,16.27,3.13,23.48,6.61c14.9,7.2,29.8,12.48,46.69,13.45
			c17.51,1,34.71-0.25,51.95-2.14c9.17-1.01,17.83-3.85,26.25-7.96c8.46-4.13,17.64-6.73,26.32-10.46c6.68-2.87,9.87-4.9,17.68-8.99
			c7.69-4.03,18.76-9.69,32.62-16.31c-0.72,2.63-0.84,3.61-1.24,4.45c-1.31,2.77-2.64,5.54-4.11,8.23
			c-8.82,16.08-15.03,33.35-17.88,51.2c-2.69,16.82-7.94,33.71-6.98,56.97c1.05,25.52,7.55,44.87,11.1,55.2
			c3.67,10.67,6.13,18.07,11.69,27.34c8,13.34,15.75,27,27.46,37.68c3.13,2.86,3.93,6.39,3.45,10.43
			c-0.82,6.85-1.87,13.69-2.27,20.57c-0.77,13.51-2.05,27.08-1.49,40.56c0.81,19.41,0.12,38.75-0.42,58.12
			c-0.1,3.58-0.1,7.17-0.43,10.73c-0.14,1.56-0.99,3.06-1.64,4.95c-2.75-1.75-4.81-3.27-7.05-4.45c-5.86-3.08-11.71-6.2-17.71-8.97
			c-7.39-3.4-14.98-6.33-22.39-9.68c-6.96-3.14-13.64-6.98-20.74-9.75c-7.75-3.03-15.87-5.11-23.76-7.8
			c-1.61-0.55-3.06-1.86-4.33-3.09c-7.33-7.11-15.07-13.87-21.75-21.56c-9.34-10.74-21.23-16.39-34.56-19.83
			c-18.83-4.87-37.91-8.22-57.37-9.08c-22.73-1-39.83,4.43-46.03,6.13c-4.16,1.14-23.01,6.47-44.54,19.17
			c-13.41,7.91-27.23,18.31-37.68,26.18c-9.84,7.41-10.92,9.11-16.65,12.2c-14.02,7.55-21.36,9.1-35.21,14.85
			c-1.2,0.5-18.22,7.67-33.88,19.34c-18.15,13.54-28.89,28.17-33.96,37.05c-17.88,31.37-27.08,65.66-31.76,101.04
			c-2.7,20.46-3.22,41.28-3.48,61.96c-0.19,15.05,1.75,30.04,7.38,44.38c4.09,10.42,7.52,21.12,10.7,31.86
			c1.87,6.31,2.66,12.93,3.95,19.41c0.75,3.75,1.19,7.6,2.34,11.23c2.7,8.52,5.94,16.87,8.6,25.4
			c3.56,11.44,10.66,19.43,21.48,24.62c5.99,2.87,11.81,3.37,17.77,1.1c5.71-2.17,11.33-4.69,16.77-7.48
			c18.14-9.3,35.24-20.65,55.13-26.42c5.78-1.68,11.17-4.82,15.53-9.48c7.51-8.03,15.62-15.32,24.87-21.47
			c8.92-5.93,18.44-9.8,28.74-12.13c4.73-1.07,9.55-1.87,14.14-3.36c13.61-4.43,26.99-9.6,40.7-13.64
			c15.51-4.58,27.51-14.32,39.11-24.79c8.16-7.36,15.3-15.63,22.44-24.03c15.32-18.02,25.77-38.56,34.24-60.28
			c5.18-13.31,10.08-26.75,14.42-40.35c3.48-10.92,6.71-22.03,8.6-33.3c2.11-12.61,3.18-25.33,8.88-37.06
			c3.23-6.64,6.66-13.26,9.07-20.21c3.74-10.76,10.84-18.94,18.38-27.01c3.74-4,8.1-5.96,13.44-6.48c5.56-0.54,10.77,0.3,15.42,3.39
			c11.52,7.64,13.17,10.05,26.12,17.47c8.76,5.02,11.12,4.63,14.05,8.65c3.95,5.41,3.52,11.39,3.13,20.04
			c-1.45,32.45,0.98,30.3-1.56,44.89c-3.12,17.95-7.4,24.51-9.3,27.21c-2.81,3.98-6.29,7.6-10.54,10.83
			c-8.55,6.49-17.09,13.01-25.81,19.27c-7.47,5.37-15.37,10.15-22.75,15.63c-18.05,13.4-36.02,26.9-53.8,40.66
			c-9.5,7.35-18.64,15.18-24.97,25.71c-8.77,14.59-15.21,30.23-19.3,46.63c-7.06,28.34-5.54,56.72,1.4,84.97
			c3.9,15.88,6.98,31.98,7.51,48.36c0.34,10.4,2.18,20.44,6.06,29.92c5.91,14.41,12.34,28.62,19.02,42.7
			c8.42,17.76,22.08,31.23,37.63,42.64c10.03,7.36,20.01,18.83,36.1,30.6c0,0,53.57,39.2,60.08,53.98c1.16,2.63,1.66,5.33,1.66,5.33
			c-0.18,4.58-1.57,9.19-1.24,13.7c1.1,14.76,1.98,29.61,4.38,44.19c4.03,24.46,9.06,48.75,13.86,73.08
			c3.62,18.3,7.68,36.51,11.29,54.81c2.97,15.05,5.13,30.25,10.37,44.79c1.64,4.55,2.96,9.3,3.68,14.08
			c3.01,20.19,5.83,40.41,8.51,60.65c0.54,4.08,1.03,8.34-0.02,13.39c-1.78-1.52-2.99-2.14-3.6-3.14
			c-6.32-10.27-13.93-19.43-22.37-28.05c-6.27-6.4-10.32-14.37-13.89-22.73c-6.91-16.21-14.43-32.17-22.25-47.96
			c-4.75-9.59-10.22-18.86-15.94-27.9c-5.46-8.63-12.07-16.55-17.47-25.21c-11.48-18.43-22.46-37.17-33.73-55.72
			c-2.38-3.92-4.9-7.81-7.76-11.39c-9.78-12.27-21.4-22.53-33.96-31.97c-8.98-6.74-18.38-12-29.27-14.51
			c-8.21-1.89-16.44-3.79-24.75-5.19c-16.38-2.77-32.83-5.15-49.23-7.78c-20.04-3.21-39.69-2.2-58.94,4.7
			c-8.41,3.02-17.07,5.36-25.47,8.4c-15.35,5.56-30.6,11.42-45.9,17.15c-4.52,1.69-9.46,2.71-13.51,5.17
			c-12.63,7.7-26.34,13.39-38.48,22.08c-6.86,4.91-13.3,9.83-19.37,15.81c-11.42,11.25-14.51,25.01-14.88,39.79
			c-0.48,18.97,3.99,36.76,13.09,53.73c8.2,15.29,20.51,24.57,36.5,29.37c14.96,4.49,29.27,9.95,42.36,18.79
			c10.57,7.14,21.38,13.8,30.26,23.17c2.19,2.31,5.5,3.58,8.33,5.28c0,0,5.73,3.53,11.15,6.6c13.11,7.44,22.63,12.85,35.46,16.65
			c7.35,2.18,13.07,3.5,16.26,3.49c15.28-0.03,30.57-0.92,45.84-1.61c16.63-0.75,33.21-2.78,49.16-7.21
			c18.42-5.11,36.38-11.92,54.47-18.19c9.29-3.22,18.65-5.18,28.56-4.24c9.41,0.9,18.87,1.26,28.27,2.22
			c7.85,0.81,15.92,1.25,23.38,3.54c6.13,1.88,12.35,5.31,17.06,9.64c10.51,9.68,19.98,20.47,30.08,30.6
			c14.42,14.46,22.22,32.57,26.96,51.75c3.91,15.79,5.72,32.14,7.84,48.33c2.46,18.78,5.41,37.41,10.06,55.81
			c3.38,13.37,5.85,26.97,8.86,40.44c2.62,11.72,5.4,23.4,8.17,35.08c3.71,15.65,7.61,31.25,11.18,46.93
			c4.92,21.6,3.15,30.89,6.62,31.49c3.71,0.64,8.56-10.4,18.26-32.47c0.66-1.5,1.98-4.58,2.36-8.78c0.35-3.84-0.17-7.65-1.41-11.38
			c-3.66-10.98-5.88-22.2-7.89-33.54c-2.45-13.83-5.28-27.59-8.06-41.36c0,0-3.6-18.43-8.19-39.7
			c-10.46-48.44-13.85-47.62-17.62-70.47c0,0-11.12-67.42,14.68-136.56c0.41-1.09,0.63-1.6,2.2-5.72
			c3.51-9.21,17.42-46.05,26.25-51.16c1.44-0.83,2.97-1.48,2.97-1.48c2.67-0.86,5.41-1.58,8.17-2.09c18.46-3.44,36.97-5,55.66-1.79
			c3.76,0.65,7.65,0.59,11.47,0.9c16.02,1.31,32.12,0.59,48.12,2.96c17.48,2.59,34.71,1.01,51.22-5.95
			c4.47-1.89,9.05-3.55,13.61-5.21c8.93-3.26,17.29-7.5,25.02-13.15c5.35-3.91,11.03-7.47,16.9-10.53
			c12.58-6.55,21.51-17.06,30.57-27.4c5.53-6.31,10.29-13.29,15.6-19.8c2.9-3.56,6.46-6.58,9.33-10.16
			c10.31-12.89,17.64-27.53,23.57-42.79c5.27-13.56,9.37-27.56,14.35-41.23c3.43-9.41,2.34-18-3.21-26.14
			c-4.78-7.01-10.61-12.85-17.51-17.96c-9.28-6.87-18.58-13.52-29.61-17.15c-12.6-4.15-25.34-7.9-38.03-11.77
			c-4.15-1.27-8.27-2.89-12.52-3.47c-8.85-1.21-17.76-2.25-26.67-2.63c-22.16-0.93-44.19-2.56-66.19,3.84
			c-14.77,4.29-28.41,9.71-40.32,19.43c-5.35,4.36-13.85,11.01-27.7,28.83c-12.91,16.61-32.32,42.02-45.94,80.14
			c-9.61,26.91-3.19,23.36-13.15,55.1c-13.89,44.26-24.83,46.21-40.7,92.03c-2.54,7.35-8.9,26.48-20.63,51.09
			c-2.55,5.36-4.73,9.66-6.1,12.33c-0.68-4.69-1.28-8.15-1.68-11.62c-1.53-13.18-2.86-26.38-4.54-39.54
			c-3.15-24.69-12.09-48.04-16.86-72.36c-2.6-13.27-5.4-26.5-8.01-39.76c-3.01-15.28-5.35-30.71-8.99-45.83
			c-4.14-17.19-7.63-34.38-7.54-52.12c0.04-7.07,0.48-14.14,0.77-22.15c3.31,0.77,5.51,1.11,7.59,1.79
			c10.68,3.54,21.41,6.93,31.97,10.81c14.28,5.25,29.08-2.51,34.94-14.52c6.5-13.31,12.77-26.74,19.13-40.11
			c3.07-6.44,6.15-12.88,9.18-19.34c4.45-9.49,9.62-18.47,15.87-26.98c9.95-13.55,19.22-27.62,28.51-41.64
			c2.37-3.58,3.42-8.03,5.69-11.7c7.35-11.88,11.56-24.7,14.87-38.3c3.78-15.56,3.29-31,2.4-46.48c-1-17.47-0.97-34.76,3.13-51.84
			c2.33-9.72,3.39-19.45,4.07-29.46c1.21-17.81-1.95-34.56-7.64-51.14c-1.49-4.34-2.21-9.02-4.2-13.1
			c-6.71-13.78-13.9-27.33-24.78-38.44c-3.2-3.27-6.32-6.84-10.11-9.28c-10.95-7.04-22.25-13.54-33.37-20.31
			c-11.57-7.04-23.52-13.54-34.54-21.37c-20.82-14.79-41.05-30.4-61.61-45.55c-2.54-1.87-3.73-3.78-3.49-7.02
			c0.24-3.29-0.26-6.63-0.4-9.95c-0.24-5.62-0.47-11.08-0.92-23.76c-0.87-24.5-1.3-36.75,1.53-40.63
			c3.92-5.37,12.54-8.25,29.79-14.01c3.16-1.06,6.69-2.52,11.07-1.68c5.69,1.09,11.16,3.37,15.67,7.59
			c6.86,6.4,12.51,13.59,15.66,22.44c4.36,12.26,8.38,24.65,12.58,36.97c0.82,2.41,1.74,4.79,2.76,7.12
			c2.14,4.91,4.34,9.8,6.59,14.67c2.46,5.32,4.52,10.91,7.64,15.83c4.92,7.74,10.41,15.1,17.47,21.18
			c5.61,4.83,11.13,9.82,16.18,15.21c16.58,17.7,37.79,26.96,60.64,32.43c18.35,4.39,35.11,12.29,52.03,20.06
			c11.37,5.22,22.41,11.43,34.18,15.49c25.35,8.75,51.16,8.79,76.98,1.31c12.24-3.54,24.57-6.73,36.87-10.05
			c0.98-0.26,2.01-0.34,3.03-0.47c14.77-1.83,29.16-5.32,43.14-10.33c10.67-3.83,20.42-9.27,28.54-17.47
			C1996.56,1425.45,2001.03,1414.69,1999.8,1401.96z M1176.96,1198.67c4.7-3.08,9.89-5.57,14.09-9.22
			c8.37-7.25,18.15-11.19,28.56-14.13c4.9-1.39,9.84-2.83,14.52-4.83c20.53-8.75,41.88-8.76,63.37-5.7
			c13.4,1.91,26.71,4.58,39.95,7.38c13.32,2.82,24.86,9.12,34.02,19.44c4.41,4.97,9.02,9.77,13.46,14.71
			c6.17,6.88,13.52,11.41,22.84,12.81c2.41,0.36,4.59,2.3,6.88,3.52c-0.19,0.62-0.38,1.24-0.57,1.85
			c-10.02-0.34-20.04-0.6-30.06-1.04c-7.91-0.35-15.82-0.85-23.71-1.46c-1.97-0.15-3.89-0.99-5.84-1.51
			c-3.93-1.05-7.83-2.23-11.79-3.11c-9.46-2.08-19.08-3.53-28.4-6.1c-21.8-6.01-43.73-10.23-66.53-9.21
			c-1.94,0.09-6.43,0.19-15.39,0.55c-23.32,0.95-33.75,1.89-52.69,2.11c-3.65,0.04-6.57,0.05-8.13,0.04
			c-0.2-0.61-0.41-1.22-0.61-1.83C1172.94,1201.53,1174.9,1200.02,1176.96,1198.67z M1011.12,1382.54
			c4.47-20.15,7.35-40.73,16.03-59.77c2.86-6.26,5.53-12.62,8.08-19.02c3.46-8.71,9.64-15.55,15.06-22.98
			c10.76-14.76,26.42-23,41.34-32.33c7.23-4.52,15.02-7.39,23.09-10.04c14.44-4.75,19.32-9.01,21.43-10.1
			c11.8-6.11,15.96-9.42,21.52-12.48c5.9-3.25,13.32-7.44,70.9-9.53c9.19-0.33,18.38-1.04,27.56-0.9
			c13.52,0.2,26.83,1.17,39.89,5.97c14.56,5.36,29.66,9.31,44.64,13.44c6.86,1.89,14,2.73,21.01,4.07c0.88,0.17,1.71,0.54,2.62,1.92
			c-4.84,1.31-9.63,2.86-14.53,3.87c-9.23,1.9-18.43,3.51-27.19,7.44c-13.05,5.85-26.64,10.5-39.6,16.54
			c-7.58,3.54-14.45,8.63-21.45,13.31c-7.19,4.81-14.16,9.95-21.2,14.98c-1.03,0.74-2.04,1.57-2.84,2.54
			c-7.62,9.29-17.91,12.26-29.36,12.32c-15.82,0.08-31.7-0.79-47.46,0.22c-18.05,1.16-36.17,3.19-52.75,11.55
			c-19.44,9.79-37.98,20.96-54.4,35.41c-1.71,1.51-3.63,2.79-5.47,4.15c-12.58,9.27-24.27,19.46-33.69,32.05
			c-0.55,0.74-1.45,1.22-2.92,2.43C1011.27,1385.33,1010.83,1383.85,1011.12,1382.54z M1027.36,1531.6
			c-6.19-1.52-13.44-35.82-13.44-35.82c-3.16-10.94-4.66-22.41-6.29-33.74c-1.23-8.56-1.58-17.24-2.16-25.88
			c-0.13-1.98,0.46-4,0.62-6.01c0.65-7.9,1.3-15.8,1.86-23.71c0.37-5.19,2-9.47,5.48-13.76c9.22-11.38,19.52-21.52,30.72-30.89
			c7.82-6.55,14.85-14.22,23.25-19.87c12.05-8.1,24.97-14.92,37.65-22.06c9.18-5.17,18.82-9.39,29.44-10.45
			c11.19-1.11,22.4-2.09,33.63-2.63c13.28-0.64,26.58-0.77,39.87-1.05c2.16-0.05,4.33,0.27,7.49,0.49
			c-7.06,7.79-13.69,14.46-19.53,21.74c-5.57,6.94-10.68,14.31-15.38,21.88c-8.24,13.29-17.36,25.88-27.56,37.72
			c-1.73,2.01-2.7,4.69-4.01,7.05c-1.73,3.1-3.44,6.21-5.18,9.31c-4.73,8.38-8.32,14.51-11.76,20.62
			c-14.21,25.2-13.11,30.55-21.7,35.92c-4.49,2.81-4.28,1.02-13.88,5.42c-11.34,5.2-18.88,11.21-24.3,15.19
			c-11.9,8.73-19.03,17.96-24.38,23.86c-6.58,7.27-12.93,14.49-16.36,23.83c-0.12,0.31-0.32,1.92-1.52,2.63
			C1029.94,1531.4,1028.94,1531.99,1027.36,1531.6z M1051.21,1598.4c-2.43-2.81-5.36-4.91-6.5-7.73
			c-5.16-12.73-9.91-25.62-14.6-38.52c-3.27-9.01,0.46-16.93,4.68-24.54c7.26-13.08,16.93-23.86,28.85-33.22
			c11.68-9.17,23.32-18.18,36.38-25.26c2.14-1.16,4.46-2,6.7-2.99c0.54,0.55,1.08,1.1,1.62,1.65c-2.57,6.32-5.29,12.58-7.67,18.97
			c-2.58,6.91-5.11,13.85-7.2,20.91c-6.23,21.06-13.11,41.92-22.56,61.74C1066.03,1579.65,1059.93,1589.43,1051.21,1598.4z
			 M1109.92,1576.86c-0.38,4.97-2.8,8.04-6.98,10.16c-10.68,5.4-21.25,11.04-32.07,16.13c-7.31,3.44-10.52,2.68-15.26-2.5
			c3.76-6.09,7.7-12.31,11.47-18.63c2.61-4.38,5.41-8.73,7.39-13.41c5.16-12.23,10.68-24.38,14.65-37.01
			c6.6-20.96,15.64-40.86,24.38-60.91c0.44-1.01,1.39-1.81,2.72-3.49c0.44,1.99,0.81,2.9,0.81,3.82
			c-0.01,22.22,0.33,44.46-0.32,66.66c-0.24,8.32-2.8,16.57-4.3,24.85C1111.54,1567.31,1110.29,1572.05,1109.92,1576.86z
			 M1166.6,1549.57c-2.25,1.66-4.43,3.56-6.18,5.73c-11.83,14.75-29.16,18.67-47.17,24.57c0.51-4.17,0.72-7.32,1.3-10.4
			c2.6-13.79,6.47-27.39,6.33-41.59c-0.04-4.07,0.03-7.33-0.02-12.25c-0.1-11.31-0.58-19.72-0.65-21.36
			c-0.19-4.35-0.91-21.52,2.92-38.01c2.82-12.13,10.83-26.03,26.84-53.84c3.72-6.46,5.31-10,8.51-14.22
			c8.48-11.16,18.33-21.39,25.84-33.15c8.83-13.83,18.64-26.68,29.88-38.5c3.99-4.2,8.53-7.87,13.59-12.48
			c1.79,4.56-0.45,7.47-1.17,10.54c-2.57,10.93-5.41,21.81-7.97,32.74c-0.75,3.22-1.21,6.57-1.33,9.87
			c-1.03,28.13-4.2,56.04-7.96,83.92c-2.02,14.99-4.18,29.89-10.22,43.9c-5.36,12.43-10.81,24.83-16.21,37.24
			c-1.53,3.51-2.98,7.06-4.54,10.55C1175.57,1539.2,1172.41,1545.28,1166.6,1549.57z M1285.98,1500.01
			c-10.62,7.96-23.06,10.77-34.97,14.95c-14.66,5.14-29.91,8.58-44.73,13.29c-9.19,2.92-18.06,6.83-27.77,10.56
			c2.48-5.83,4.89-11.81,7.57-17.66c1.48-3.23,3.66-6.15,5.11-9.39c4.47-10.02,9.23-19.96,12.97-30.25
			c4.88-13.42,7.9-27.35,9.19-41.65c0.94-10.43,2.54-20.8,3.53-31.22c1.09-11.43,1.6-22.92,2.78-34.35
			c0.62-6.01,1.91-11.97,3.28-17.86c2.13-9.18,4.46-18.32,6.93-27.41c2.74-10.09,5.49-20.2,8.8-30.1c0.97-2.91,3.49-5.69,5.99-7.64
			c16.58-12.86,33.73-24.74,53.54-32.4c11.17-4.32,21.96-9.61,32.99-14.29c3.03-1.28,6.3-2.11,9.52-2.84
			c11.45-2.58,22.93-5.04,34.41-7.51c0.7-0.15,1.45-0.02,3.74-0.02c-13.56,16.09-21.15,30.63-25.45,40.34
			c-10.79,24.35-13.95,51.58-20.27,106.06c-0.98,8.47-1.98,21.29-5.81,38.53c-3.21,14.43-7.31,28.72-11.94,42.77
			C1310.11,1477.9,1299.47,1489.89,1285.98,1500.01z M1433.91,1236.71c-5-0.25-9,1.57-12.5,4.78c-9.49,8.69-17.98,18.08-22.61,30.47
			c-3.93,10.51-8.67,20.72-12.44,31.29c-2.05,5.73-3.41,11.85-4.06,17.9c-1.74,16.12-5.48,31.67-11.22,46.83
			c-3.62,9.54-5.94,19.59-9.78,29.03c-7.39,18.2-14.72,36.51-26.73,52.37c-5.33,7.03-10.84,13.93-16.26,20.88
			c-0.36-0.21-0.72-0.42-1.09-0.63c1.73-6.31,3.18-12.71,5.26-18.9c6.55-19.5,8.29-35.55,9.59-42.45
			c1.92-10.15,4.26-22.67,6.08-39.19c0.94-8.47,0.79-10.23,1.38-16.56c1.77-19.05,4.09-44.09,16.68-67.92
			c6.45-12.21,10-16.58,16.96-28.23c3.53-5.91,7.34-11.7,10.25-17.91c3-6.4,8.51-7.73,14.35-8.1c11.46-0.72,22.93-1.14,34.17,2.52
			c3.13,1.02,6.74,0.6,10.18,1.52C1439.77,1237.18,1436.63,1236.84,1433.91,1236.71z M1134.06,1943.62
			c14.02-5.49,28.22-10.51,42.38-15.64c15.35-5.56,30.58-11.55,46.17-16.33c6.1-1.87,12.85-4.32,19.67,0.31
			c8.06,5.48,15.76,7.2,18.39,9.25c41.42,32.33,32.81,21.46,54.68,41.96c29.66,27.81,25.36,28.78,52.19,52.95
			c11.95,10.77,23.84,21.71,36.65,31.38c10.43,7.87,20.76,15.65,29.75,25.18c13.01,13.8,24.39,28.76,33.6,45.22
			c-14.31-8.52-28.45-17.41-43.03-25.51c-19.2-10.66-39.1-19.89-60.25-26.15c-14.92-4.42-29.81-8.97-44.81-13.14
			c-7.39-2.05-13.69-5.74-18.85-11.21c-12.99-13.76-28.47-23.97-45.08-32.72c-8.13-4.28-15.97-9.11-24.01-13.57
			c-19.93-11.05-35.17-14.89-49.73-20.02c-14.26-5.02-34.9-12.89-60.04-24.73C1124.55,1949.05,1128.48,1945.8,1134.06,1943.62z
			 M1088.42,1970.21c4.73-3.03,9.75-5.79,13.91-9.48c7.16-6.35,14.57-7.94,23.11-3.41c-0.02-0.02-0.04-0.04-0.03-0.05
			c0.14-0.32,13.19,5.57,25.98,10.44c16.85,6.41,47.29,16.4,49.17,17.05c0.89,0.3,0.86,0.48,4.79,2.74
			c42.71,24.54,50.03,27.58,62.44,36.27c7.29,5.11,17.71,13.14,29.2,24.88c-3.91-0.18-6.81-0.2-9.68-0.45
			c-11.18-0.97-22.37-1.86-33.52-3.08c-10.88-1.19-21.76-2.5-32.57-4.19c-12.86-2.01-25.68-4.3-38.45-6.79
			c-13.32-2.6-26.12-6.76-37.55-14.37c-4.43-2.95-8.47-6.6-13.18-8.97c-8.64-4.35-17.65-7.97-26.49-11.92
			c-2.1-0.94-4.15-1.97-6.21-2.99c-7.92-3.95-15.83-7.91-24.22-12.11C1078.65,1978.13,1082.99,1973.69,1088.42,1970.21z
			 M1066.43,1999.7c1.68-9.6,4.42-11.42,13.39-7.94c11.43,4.43,22.53,9.73,34,14.03c13.07,4.91,24.19,12.97,35.63,20.58
			c0.35,0.23,0.44,0.85,1.23,2.48c-29.4-4.3-57.5-10.13-84.28-23.35C1066.39,2003.21,1066.13,2001.41,1066.43,1999.7z
			 M1069.59,2045.22c-3.67-10.25-4.33-20.76-4.94-32.47c2.83,0.3,4.13,0.2,5.28,0.59c27.01,9.04,54.89,14.59,82.9,19.63
			c-0.03,0.57-0.05,1.14-0.08,1.72c-1.56,0.4-3.12,1.11-4.69,1.14c-9.26,0.22-16.82,5.78-25.43,7.99
			c-14.85,3.81-29.85,6.63-45.27,6.85C1073.15,2050.73,1071.06,2049.33,1069.59,2045.22z M1166.98,2110.27
			c-2.68-0.22-5.77-0.44-7.89-1.85c-11.99-8.01-24.96-13.98-38.4-18.98c-3.32-1.24-6.94-1.63-10.31-2.75
			c-8.32-2.75-15.87-6.73-22.38-12.87c-4.23-3.99-9.3-7.09-11.77-12.67c-0.69-1.55-1.16-3.2-2.05-5.7c3.53-0.64,6.43-1.28,9.36-1.67
			c10.12-1.34,20.25-2.6,30.38-3.87c8.45-1.06,16.21-4.09,24.11-7.19c6.52-2.55,13.87-3.25,20.93-4.07
			c11.22-1.29,20.48,0.11,28.76,1.16c6.92,0.88,12,1.91,14.33,2.37c9.04,1.81,43.96,8.81,76.33,11.95
			c5.83,0.56,14.61,1.3,25.44,1.72c-15.72,4.6-27.37,10.42-35.11,14.9c-14.62,8.45-17.97,13.64-35.69,23.04
			c-9.89,5.25-16.96,8.77-27.4,11.59c-10.01,2.7-20.66,3.05-31.04,4.36C1172.06,2110.08,1169.48,2110.48,1166.98,2110.27z
			 M1293.52,2158.04c-1.14,0.49-2.49,0.62-3.76,0.66c-12.52,0.45-25.07,1.57-37.54,0.97c-7.47-0.36-15.16-2.56-22.13-5.42
			c-20.96-8.61-39.69-21.02-56.92-35.71c-0.54-0.46-0.78-1.26-1.34-2.2c2.53-3.18,6.38-3.2,9.64-3.38
			c24.15-1.35,45.6-10.68,66.28-22.18c13.38-7.44,26.35-15.62,39.82-22.87c11.91-6.41,24.82-7.41,37.98-4.47
			c9.22,2.06,18.67,3.54,27.56,6.6c20.01,6.88,40.39,12.91,59.06,23.23c1.29,0.71,2.41,1.73,3.62,2.6
			c-0.09,0.56-0.17,1.11-0.26,1.67c-7.29,0.82-14.63,1.32-21.86,2.55c-8.54,1.45-17.58,2.22-25.31,5.7
			c-9.19,4.14-17.54,10.43-25.65,16.59c-5.85,4.45-10.68,10.23-16.01,15.37C1317.14,2146.95,1305.52,2152.82,1293.52,2158.04z
			 M1468.76,2131.58c-14.03-0.85-28.06-1.71-42.09-2.6c-11.41-0.73-22.29,1.16-33.01,5.29c-24.11,9.28-48.7,17.04-74.15,21.84
			c-1.5,0.28-3.02,0.51-4.55,0.6c-1.75,0.1-3.52,0.02-5.74,0.02c0.36-1.26,0.36-1.63,0.51-1.71c16.8-9.17,28.04-25.2,43.89-35.58
			c5.79-3.79,11.42-7.21,18.61-8.14c12.12-1.55,24.06-4.72,36.2-5.8c14.03-1.25,28.08-1.06,40.2,8.46
			c7.37,5.79,15.36,10.78,22.62,17.48C1470.43,2131.49,1469.59,2131.63,1468.76,2131.58z M1506.57,2150.59
			c-1.13,0.72-5.66-6.15-13.08-13.93c-10.77-11.29-20.96-23-29.11-36.44c-11.36-18.75-26.37-34.43-42.71-48.87
			c-3.24-2.86-6.92-5.26-10.55-7.64c-11.4-7.45-19.17-13.95-19.56-14.24c-15.04-11-61.63-56.9-78.68-73.8
			c0,0-16.89-15.79-51.26-36.93c-0.44-0.27-1.93-1.06-3.75-2.38c-2.68-1.94-9.5-7.45-8.91-9.64c1.46-5.45,50.21,3.45,86.78,12.83
			c12.3,3.15,27.68,7.62,43.3,19.28c5.32,3.97,10.32,8.51,14.98,13.67c9.48,10.5,17.16,22.03,24.36,34.2
			c15.08,25.48,29.04,51.68,47.28,75.26c6.16,7.97,10.31,17.62,14.62,26.85c7.37,15.78,7.06,17.1,18.07,41.39
			C1504.29,2143.31,1507.66,2149.91,1506.57,2150.59z M1967.81,1287.53c2.02,13.12,4.08,26.23,6.18,39.33
			c1.97,12.34,4.01,24.67,5.99,37.01c0.12,0.73-0.06,1.5-0.15,3.41c-6.48-1.81-12.29-3.89-18.27-4.99
			c-10.79-1.99-21.65-4.31-32.55-4.83c-18.49-0.88-36.31-5.25-54.43-8.18c-13.41-2.17-24.23-9.07-35.53-15.19
			c-15.69-8.5-30.81-18.06-46.35-26.87c-4.85-2.75-10.45-4.19-15.34-6.88c-15.39-8.49-30.6-17.29-47.51-26.9
			c3.3-0.61,4.82-1.16,6.32-1.13c12.76,0.3,25.51,0.77,38.27,1.05c3.31,0.07,6.69,0.01,9.92-0.58c8.28-1.5,16.49-3.42,24.76-5.02
			c13.02-2.51,26.01-5.33,39.12-7.2c13.13-1.87,26.39-2.74,39.68-1.12c6.09,0.75,12.22,1.17,18.29,2.03
			c4.28,0.6,8.56,1.42,12.71,2.61c11.74,3.4,23.23,8.13,35.19,10.22C1962.72,1275.8,1966.59,1279.58,1967.81,1287.53z
			 M1800.93,1147.39c10.91,2.43,22.27,2.79,33.33,4.64c18.99,3.18,37.42,8.5,53.94,18.61c13.32,8.16,26.11,17.55,35.31,30.27
			c8.78,12.15,15.88,25.52,23.57,38.45c3.53,5.93,6.81,12.01,9.96,18.15c1.7,3.31,2.89,6.89,4.62,11.09c-2.85,0-4.68,0.44-6.19-0.07
			c-17-5.75-34.46-9.7-52.17-12.24c-17.02-2.44-34.26-2.55-51.27,0.02c-15.62,2.36-31.04,6.02-46.6,8.85
			c-22.24,4.05-44.63,5.33-67.18,2.93c-8.81-0.94-17.77-1.13-26.41-2.9c-12.38-2.53-20.9-6.13-24.84-7.65
			c-11.67-4.47-29.67-8.82-57.04-7.77c-0.03-0.73-0.07-1.46-0.1-2.19c2.32-0.87,4.57-2.14,6.96-2.55
			c13.97-2.37,24.79-10.76,35.48-19c11.12-8.58,21.38-18.27,32.27-27.15c10.69-8.72,21.68-17.06,32.59-25.52
			c0.99-0.77,2.23-1.27,3.43-1.68c13.88-4.71,27.03-11.18,38.6-19.97C1786.31,1146.32,1792.59,1145.53,1800.93,1147.39z
			 M1597.94,1139.12c-14.56-3.35-28.44-7.79-40.25-17.57c-7.22-5.97-16.28-8.42-25.27-10.49c-8.45-1.95-7.91-1.9-9.2-10.16
			c-1.54-9.81-4.64-19.32-6.59-29.05c-11.27-56.08-14.39-59.73-15.58-79.71c-1.48-24.82,1.93-42.88,8.2-76.16
			c2.83-15,8.46-28.57,13.75-45.42c0.94-2.98,2.77-5.68,4.82-9.77c1.24,3.09,1.75,4.75,2.53,6.26c4.07,7.94,8.52,15.7,12.28,23.78
			c9.78,21.05,25.12,38.33,38.26,57.09c4.98,7.1,10.62,13.89,14.54,21.54c4.98,9.72,9.33,19.93,12.5,30.37
			c4.89,16.1,8.35,32.63,12.79,48.87c3.96,14.51,8.28,28.93,12.77,43.29c0.63,2.03,1.6,3.95,2.65,5.85
			c2.37,8.6,6.13,20.17,11.41,32.66c3.96,9.35,7.81,16.94,10.7,22.3c-3.86-0.53-6.64-0.36-8.96-1.31
			C1632.78,1144.79,1615.09,1143.06,1597.94,1139.12z M1643.37,1157.39c-7.43,4.18-13.27,7.82-19.4,10.84
			c-13,6.41-20.8,17.73-28.62,29.17c-10.11,14.78-20.66,29.18-34.52,40.84c-6.34,5.34-12.75,9.58-21.53,10.42
			c-6.13,0.59-12.02,3.67-18.03,5.59c-0.92,0.29-1.93,0.32-3.67,0.58c-1.5-8.21-4-16.14-4.18-24.12
			c-0.31-13.5,0.67-27.04,1.42-40.54c0.63-11.42,1.81-22.82,2.52-34.24c0.68-10.91,1.05-21.84,1.6-32.76
			c0.08-1.5,0.39-2.98,0.66-4.94c9.93-1.76,18.66,1.42,27.18,5.57c2.06,1,4.08,2.21,5.83,3.68c16.39,13.78,36.72,17.19,56.64,21.68
			c9.2,2.07,18.47,3.8,27.69,5.79C1638.61,1155.29,1640.16,1156.14,1643.37,1157.39z M1494.28,811.2c0.51,0.28,0.66,1.19,0.99,1.82
			c-9.36,4.14-29.8,5.09-52.65,2.29c5.06-5.21,11.13-5.91,16.21-8.44c1.34-0.67,3.07-0.59,4.37-1.31
			C1475.13,798.9,1484.58,805.8,1494.28,811.2z M1484.95,801.56c8.2-1.39,15.36-2.99,22.61-3.72c6.77-0.69,12.32,1.96,15.8,8.05
			C1516.4,814.79,1494.11,810.73,1484.95,801.56z M1481.26,821.84c-3.45,2.08-6.09,3.62-8.69,5.24
			c-15.28,9.53-16.99,9.47-30.57-1.64c-1.1-0.9-1.83-2.24-3.24-4.01C1452.08,818.57,1470.41,818.69,1481.26,821.84z M1490.46,821.4
			c17.24-8.13,34.93-9.83,35.63-7.68c0.67,2.06-15.21,4.89-26.95,17.95c-1.56,1.74-3.7,4.32-7.57,6.12
			c-4.73,2.2-9.97,2.21-15.68,1.32c-2.96-0.46-5.87-1.18-8.95-1.81C1471.98,832.65,1479.77,826.43,1490.46,821.4z M1640.75,1101.05
			c-5.26-15.37-8-21.92-11.51-35.88c-2.27-9.02-1.3-6.95-3.91-17.9c-4.5-18.87-9.33-37.66-14.01-56.48
			c-0.23-0.93-0.29-1.91-0.67-4.51c2.79,2.72,4.52,4.38,6.21,6.07c8.49,8.49,16.91,17.04,25.51,25.42c1.55,1.51,3.99,2.06,5.72,3.44
			c11.96,9.55,23.94,19.1,35.72,28.87c7.36,6.1,10.81,14.74,13.74,23.5c2.98,8.94,5.8,17.95,8.25,27.05
			c0.98,3.64,0.65,7.61,1.17,11.39c1.91,13.89,7.22,26.51,14.45,38.43c1.54,2.54,2.53,5.43,4.04,8.74
			c-7.59,2.33-14.72,2.22-21.64,1.81c-10.63-0.63-21.21-2.26-31.8-3.49c-2.62-0.3-3.77-1.18-5.1-1.79
			C1654.81,1150.15,1653.05,1136.99,1640.75,1101.05z M1715.13,1128.03c-3.25-8.46-3.99-17.86-6.1-26.78
			c-2.11-8.92-4.55-17.76-6.83-26.64c-0.49-1.91-0.92-3.84-1.65-6.93c13.94,6.91,58.69,63.36,66.29,82.84
			c-5.11,4.03-11.38,5.19-17.56,6.53c-3.49,0.76-7.13,0.93-10.51,1.99c-4.1,1.29-7.19,0.3-9.15-3.25
			C1724.57,1146.64,1718.85,1137.71,1715.13,1128.03z M1791.5,1121.85c-0.55,4.29-3.35,8.44-5.7,12.29
			c-1.97,3.23-4.6,6.14-7.31,8.81c-1.7,1.68-4.08,2.65-6.86,4.38c-3.62-5.49-6.56-10.54-10.07-15.15
			c-10.07-13.18-20.27-26.26-30.62-39.23c-4.61-5.79-9.94-11-14.49-16.84c-9.37-12.01-21.49-21.08-32.6-31.23
			c-8.86-8.09-17.55-16.31-28.05-22.42c-3.3-1.92-3.99-3.73-9.35-8.95c-7-6.81-17.2-16.65-30.21-28.88
			c11.75,10.39,22.37,16.45,29.52,19.97c18.25,8.99,27.09,8.71,51.03,16.69c15.19,5.06,25.13,9.87,42.79,18.43
			c0,0,58.1,28.13,61.44,49.91c0.12,0.78,0.12,1.55,0.12,1.55C1800.77,1095.35,1794.61,1097.7,1791.5,1121.85z M1814.8,958.53
			c1.24,7.03,2.38,14.17,2.51,21.29c0.34,18.13,0.25,36.28,0.03,54.42c-0.05,4-0.97,8.11-2.15,11.96
			c-2.75,9.04-5.87,17.97-8.89,26.92c-0.56,1.65-1.38,3.2-2.19,5.07c-12.01-11.17-31.38-27.07-58.47-40.49
			c-4.83-2.39-4.61-5.03-42.46-17.26c-26.49-8.57-53.03-17.26-75.63-34.27c-10.57-7.96-22.49-14.54-30.66-25.24
			c-6.64-8.69-12.41-18.06-18.3-27.3c-10.14-15.91-20.3-31.83-30.01-48.01c-2.64-4.4-8.3-12.11-12.06-23.86
			c-1.65-5.15-2.49-9.51-2.93-12.36c6.05,4.59,16.02,11.48,29.43,17.53c25.54,11.53,38.2,8.61,80.14,18.78
			c21.42,5.2,37.78,10.73,47.24,13.95c20.24,6.9,36.13,12.78,54.86,21.42c11.35,5.23,22.99,9.84,34.26,15.22
			c10.59,5.06,20.95,10.64,31.21,16.36C1812.63,953.72,1814.42,956.36,1814.8,958.53z M1596.64,805.4
			c28.26-0.13,26.1-0.03,32.89-0.17c7.91-0.16,15.85-0.42,23.71-1.26c5.09-0.54,9.55,0.92,14.17,2.37
			c11.92,3.74,23.88,7.39,35.81,11.09c2.19,0.68,4.34,1.52,6.53,2.2c10.71,3.34,21.42,6.65,32.14,9.97
			c7.8,2.42,14.56,6.63,19.26,13.26c4.56,6.44,9.16,13.09,12.26,20.28c8.6,19.99,19.22,38.88,29.28,58.11
			c3.84,7.35,5.79,15.68,8.61,23.56c-0.56,0.55-1.12,1.11-1.68,1.66c-3.25-1.16-6.65-2.02-9.72-3.54
			c-14.64-7.26-29-15.13-43.83-21.97c-15.31-7.05-30.96-13.39-46.65-19.56c-6.14-2.42-12.81-3.42-19.19-5.28
			c-19.63-5.72-38.74-13.25-59.02-16.66c-5.03-0.85-10.12-1.42-15.15-2.29c-18.46-3.21-36.36-8.31-53.27-16.5
			c-6.65-3.22-13.35-6.4-19.73-10.12c-8.66-5.05-12.57-12.54-12.22-22.96c0.26-7.81,1.72-13.01,5.13-16.13
			c4.4-4.02,10.4-3.78,15.85-3.68C1570.55,808.14,1544.23,805.63,1596.64,805.4z M1615.28,736.66c-1.91,9.09-4.1,16.66-10.21,20.67
			c-13.96,9.17-28.73,17.1-43.17,25.53C1573.43,760.59,1590.79,745.88,1615.28,736.66z M1577.85,754.98
			c-0.14-8.09,2.5-15.45,6.24-22.22c1.15-2.08,5.1-3.64,7.78-3.65c6.33-0.01,12.63,0.72,18.87-1.11c0.94-0.28,2.24,0.68,3.51,1.11
			c-0.64,5.13-4.75,6.37-7.96,7.65C1595.74,740.99,1586.94,747.68,1577.85,754.98z M1555.82,777.54c0.45-8.68,0.69-17.06,1.46-25.38
			c0.19-2.01,1.72-4.39,3.35-5.69c4.92-3.9,10.19-7.36,15.71-11.26C1578.59,748.24,1566.11,773.89,1555.82,777.54z M1570.76,781.16
			c7.85-4.55,15.84-8.85,24.19-12.66c-6.08,11.21-14.39,20.59-24.79,27.06c-6.38,3.96-14.8,7.43-24.38,0.63
			C1554.73,790.78,1562.67,785.85,1570.76,781.16z M1552.27,771.74c1.78,13.53-8.84,19.37-16.44,27.26
			c0.66-13.57,5.43-26.04,9.92-38.54c0.74-2.07,3.34-3.46,6.21-6.27c0.51,3.29,1.06,5.11,1.01,6.91
			C1552.87,764.65,1551.82,768.28,1552.27,771.74z M1712.85,730.68c-8.77,12.77-20.39,22.74-32.28,32.51
			c-6.77,5.57-13.42,11.19-21.82,13.91c-10.89,3.53-21.69,7.2-33.25,8.61c-8.51,1.04-16.77,4.16-25.12,6.42
			c-4.12,1.11-8.2,2.37-13.88,4.02c0.66-3.16,0.47-5.35,1.48-6.56c6.05-7.26,12.21-14.45,18.71-21.32c2.97-3.14,6.61-3.64,7.35-3.97
			c18.58-8.29,64.36-28.72,99.88-52.02c3.65-2.39,9.42-6.28,16.36-11.45c0.4,0.46,0.8,0.92,1.2,1.38
			C1725.28,711.72,1719.26,721.34,1712.85,730.68z M1789.76,594.49c-3.22,24.04-12.16,45.78-26.49,65.35
			c-5.58,7.63-11.05,15.35-16.29,23.22c-6.36,9.54-15.49,12.41-22.42,16.42c-31.57,18.25-23.59,15.92-47.58,29.08
			c-15.95,8.75-36.29,18.99-60.65,29.16c2.11-5.34,3.83-10.22,5.61-14.59c1.7-4.17,2.14-8.34,1.1-12.76
			c-1.92-8.13-7.61-11.91-15.81-10.42c-2.5,0.45-5.14,1.2-7.57,0.82c-10.37-1.6-18.96,2.43-27.24,7.83
			c-1.46,0.95-3.03,1.74-5.59,1.89c0.63-1.34,1-2.9,1.92-4c15.4-18.58,33.46-34.41,51.67-50.11c5.79-5,10.83-10.87,16.28-16.27
			c15.75-15.63,19.53-19.55,25.71-25.29c1.16-1.08,2.28-2.12,3.39-3.14c14.74-1.31,57.94-9.79,81.35-22.66
			c0.56-0.31,2.19-1.21,4.4-2.44c15.97-8.87,28.98-16.21,38.27-21.47C1789.81,588.67,1790.14,591.63,1789.76,594.49z
			 M1789.54,538.33c5.13,3.09,1.09,17.93,2.09,32.87c0.12,1.79-0.09,3.37-0.58,4.81c-0.79,2.31-2.37,4.62-5.4,6.84
			c-33.89,24.79-67.35,34.28-67.35,34.28c-12.23,3.47-28.47,7.43-47.97,10.41c2.97-2.68,6.04-5.35,9.64-8.3
			c11.58-9.5,18.2-13.35,30.4-21.93c11.47-8.07,19.19-14.2,31.26-23.79C1774.55,547.35,1784.29,535.17,1789.54,538.33z
			 M1732.39,524.73c4.12,1.38,8.38,2.34,12.52,3.67c11.4,3.67,22.92,5.11,34.75,2.37c0.72-0.17,1.53-0.09,2.26,0.06
			c0.44,0.09,0.8,0.55,2.13,1.54c-1.43,1.64-2.44,3.05-3.69,4.19c-15.22,14.03-30.68,27.78-47.82,39.48
			c-18.14,12.38-36.41,24.56-54.64,36.8c-0.12,0.08-0.44-0.13-1.17-0.38c0.3-1.1,0.49-2.29,0.93-3.37
			c5.05-12.27,9.97-24.6,15.28-36.76c3.98-9.12,8.22-18.15,12.85-26.95c3.97-7.55,9.83-13.62,16.62-18.85
			C1725.57,524.1,1728.64,523.48,1732.39,524.73z M1630.5,516.99c2.79-3.43,6.47-5.02,10.79-4.83c8.66,0.38,17.34,0.74,25.97,1.49
			c10.7,0.93,21.37,2.17,32.04,3.41c7.05,0.82,13.99,2.17,20.87,5.75c-1.03,1.64-1.58,3.09-2.6,4.04
			c-11.13,10.35-17.9,23.54-24.08,37.07c-6.48,14.16-12.71,28.44-18.99,42.69c-5.14,11.68-13.03,20.95-22.68,29.37
			c-15.39,13.43-29.93,27.84-44.64,42.05c-9.55,9.23-18.78,18.8-28.09,28.27c-2.81,2.86-5.43,5.91-8.13,8.88
			c-0.63-0.49-1.26-0.98-1.9-1.46c2.36-5.34,4.68-10.69,7.08-16.01c11.82-26.27,16.83-39.8,19.71-57.03
			c1.84-10.96,0.55-11.3,3.92-38.01c1.2-9.55,2.08-14.29,2.61-18.91c2.45-21.21,9.95-40.57,21.33-58.48
			C1625.61,522.28,1628.25,519.76,1630.5,516.99z M1520.68,607.77c7.35-7.43,14.81-14.74,22.1-22.23
			c5.5-5.66,10.95-11.38,16.16-17.31c11.11-12.65,21.58-25.91,33.23-38.04c8.76-9.11,19.84-14.85,34.69-15.69
			c-1.78,3.14-2.74,5.02-3.87,6.8c-8.39,13.17-16.24,26.68-20.55,41.78c-2.29,8.04-3.86,16.44-4.5,24.77
			c-1.77,22.97-4.89,45.67-11.22,67.85c-4.65,16.28-11.61,31.63-19.19,46.73c-6.42,12.77-12.75,25.58-19.12,38.37
			c-0.68,1.37-1.38,2.74-2.14,4.07c-4.35,7.66-8.72,15.3-13.18,23.12c-0.62-16.18-3.76-31.8-8.78-47.22
			c-4.42-13.56-8.23-27.42-10.98-41.41c-2.5-12.73-4.12-25.79-4.45-38.76C1508.54,628.55,1511.68,616.87,1520.68,607.77z
			 M1491.36,667.77c2.02-9.44,5.38-18.6,8.34-27.82c0.57-1.77,2.13-3.22,4.21-6.23c0.7,4.77,1.41,7.94,1.61,11.15
			c1.23,19.95,5.46,39.29,10.72,58.54c5.16,18.91,11.26,37.67,13.06,57.35c0.36,3.92-0.19,7.91-0.34,12.56
			c-0.67-0.33-1.75-0.89-3.05-1.64c-22.04-12.66-29.55-35.62-30.57-38.92c-0.94-3.03-1.3-5.49-2.34-10.32
			C1489.15,704.38,1487.45,686.03,1491.36,667.77z M1281.76,755.94c8.94-9.67,19.69-17.16,31.15-23.28
			c9.41-5.02,19.59-8.74,29.69-12.3c5.2-1.83,10.93-2.26,16.47-2.97c0,0,8.68-1.14,17.53-1.44c45.91-1.53,82,15.72,82,15.72
			c7.64,3.65,22.11,9.45,34.95,22.7c6.94,7.17,14.29,13.96,20.89,21.41c4.35,4.91,7.73,10.67,11.45,16.11
			c0.48,0.71,0.39,1.81,0.87,4.39c-7.87-3.94-14.59-7.25-21.25-10.68c-1.35-0.69-2.37-2.02-3.73-2.67
			c-12.66-6-25.22-12.25-38.09-17.77c-11.71-5.03-23.64-9.6-35.7-13.73c0,0-13.5-4.3-26.52-7.19
			c-35.82-7.95-98.12,10.62-117.4,17.77c-1.96,0-4.08,0-6.46,0C1279.67,758.97,1280.52,757.27,1281.76,755.94z M1240.11,793.98
			c8.63-8.31,17.64-16.23,26.48-24.32c3.3-3.02,6.94-4.92,11.63-5.04c0.04,0.12,0.63,0.08,1.71-0.08c4.04-0.25,8.08-1.02,12.17-2.35
			c16.79-6.27,42.2-13.53,73.7-14.22c26.26-0.58,45.67,3.65,50.01,4.63c35.07,7.93,59.38,25.16,71.45,31.4
			c2.81,1.45,5.27,3.59,8.68,5.95c-1.92,1.07-2.71,1.87-3.54,1.91c-12.33,0.68-24.12,3.65-35.91,7.23
			c-6.74,2.05-14.06,2.76-21.15,2.98c-8.39,0.26-16.82-0.95-25.23-0.96c-6.87-0.01-13.75,0.74-20.61,1.29
			c-18.36,1.48-36.3,5.64-54.4,8.79c-4.57,0.8-8.93,0.87-13.56-0.72c-4.01-1.38-8.55-1.4-12.88-1.65
			c-11.21-0.64-22.43-1.03-33.64-1.58c-14-0.69-27.99-1.45-42.47-2.21C1233.05,800.33,1236.85,797.13,1240.11,793.98z
			 M1211.04,840.29c0.42-3.55,1.72-4.08,9.26-20.9c2.27-5.07,6.43-7.55,11.53-9.17c8.49-2.7,17.18-2.48,25.82-1.86
			c10.93,0.79,21.81,2.35,32.73,3.31c6.3,0.56,12.64,0.53,18.96,0.91c1.71,0.1,3.38,0.71,6.57,1.42c-1.22,0.63-2.11,1.14-2.85,1.55
			c-0.44,0.21-1.12,0.53-1.95,0.92c-24.75,11.53-42.2,15.71-58.61,21.04c-9.57,3.11-23.35,8.1-39.78,15.94
			C1210.62,847.61,1210.71,843.06,1211.04,840.29z M1212.38,860.44c15.72-9.16,35.53-18.72,59.28-26.06
			c10.82-3.34,21.11-5.81,30.66-7.62c-29.4,22.12-45.08,34.11-52.56,40.02c-4.89,2.2-9.77,4.41-14.57,6.78
			C1222.57,879.8,1214.01,874.94,1212.38,860.44z M1286.4,894.15c-13.6-7.11-28-10.79-43.08-12.55c-2.63-0.31-5.17-1.35-8.79-2.34
			c2.9-3.24,6.15-5.54,9.43-7.55c0.42,0.57,36.17-21.09,54.57-38.43c1.57-1.48,5.7-5.46,12.21-9.14c6.75-3.81,14.1-6.18,22.15-7.42
			c15.84-2.44,31.58-5.48,47.45-7.7c6.49-0.91,13.19-0.46,19.79-0.39c2.18,0.02,4.35,0.8,8.49,1.62c-2.16,1.52-5.31,3.79-9.05,6.64
			c-18.57,14.18-24.49,22.13-43.63,40.36c0,0-18.83,17.94-49.94,35.88C1303.99,894.29,1298.24,900.34,1286.4,894.15z
			 M1401.42,889.99c-4.53,3.72-10.87,5.55-16.66,7.38c-16.03,5.05-32.8,5.18-49.35,5.84c-10.57,0.42-21.24-1.43-32.15-3.14
			c19.93-14.91,41.3-27.51,58.23-45.73c-0.04,0.02-0.08,0.04-0.11,0.06c7.71-7.23,15.3-14.59,23.16-21.65
			c11.29-10.16,23.6-18.77,38.27-23.45c0.94-0.3,1.98-0.28,3.79-0.51c-4.26,12.87,6.75,16.72,13.15,23.23
			c2.96,3.01,6.57,5.38,10.54,8.57c-2.16,2.04-3.44,3.53-4.99,4.66c-8.78,6.4-15.58,14.6-22.41,22.96
			C1416.46,876.07,1409.27,883.54,1401.42,889.99z M1437.73,874.25c-9.38,4.47-17.18,7.96-22.37,10.24
			c0.18-1.23,0.06-2.06,0.41-2.51c10.1-12.86,20.32-25.58,33.42-35.64c2.1-1.61,4.17-2.68,6.45-3.05c2.19-0.35,3.94,0.02,4.83,0.22
			c12.38,2.71,18.58,4.07,18.92,5.41C1480.62,853.69,1462.47,862.45,1437.73,874.25z M1469.64,1053.52
			c-3.81-8.87-6.91-18.1-9.64-27.38c-2.52-8.52-4.19-17.29-6.08-25.99c-0.65-2.97-1.27-6.04-1.19-9.05
			c0.43-14.8,0.64-29.6,3.97-44.19c2.44-10.69,2.94-21.9,6.15-32.31c3.82-12.39,9.47-24.23,14.58-36.2
			c3.51-8.22,6.7-16.72,11.35-24.29c8.12-13.24,19.12-23.59,34.83-29.36c1.02,12.89,1.42,24.9-2.74,36.78
			c-4.9,13.99-9.34,28.13-13.92,42.23c-1.42,4.37-2.55,8.82-3.97,13.19c-3.84,11.78-3.64,24.16-5.13,36.25
			c-1.83,14.95-0.77,30,0.05,45.09c0.77,14.19,4.45,27.64,7.09,41.35c1.68,8.7,5.33,17,7.37,25.65c2.74,11.63,4.86,23.42,7.02,35.18
			c0.38,2.09-0.33,4.38-0.61,7.28c-7.39-0.35-13.15-2.41-17.62-7.47C1488.59,1086.09,1477.16,1071.05,1469.64,1053.52z
			 M1341.68,1629.52c-0.72-1.81-1.47-3.1-1.75-4.48c-2.32-11.49-4.78-22.95-6.79-34.5c-7.15-41.13-0.14-79.46,24.18-113.76
			c5.05-7.13,12.67-12.47,19.29-18.44c3.58-3.23,7.55-6.03,11.33-9.05c3.59-2.87,7.05-5.92,10.76-8.61
			c12.6-9.12,25.22-18.22,37.96-27.14c7.31-5.12,14.79-9.98,22.32-14.77c11.52-7.34,21.02-17,30.77-26.39
			c2.51-2.42,5.12-4.72,8.52-7.83c3.79,14.37,1.19,26.98-0.36,39.57c-0.26,2.14-1.86,4.16-3.04,6.12
			c-6.81,11.35-13.39,22.86-20.65,33.92c-3.9,5.94-9.07,11.03-13.57,16.58c-19.1,23.58-38.16,47.18-57.23,70.78
			c-0.16,0.2-0.33,0.4-0.45,0.62c-9.33,19.11-25.51,33.16-37.31,50.43c-5.88,8.61-10.56,17.82-14.23,27.73
			C1349.07,1616.71,1348.02,1624.21,1341.68,1629.52z M1414.77,1774.6c-18.29-12.61-35.04-26.69-45.65-46.41
			c-6.52-12.1-11.54-25.01-17.32-37.51c-6.25-13.54-7.88-27.9-8.22-42.6c-0.15-6.23,0.3-12.09,2.93-17.87
			c3.18-6.97,5.7-14.23,8.68-21.3c5.59-13.27,12.82-25.56,22.46-36.32c11.99-13.38,21.39-28.63,31.53-43.36
			c3.03-4.4,6.56-8.46,9.91-12.64c12.63-15.73,25.15-31.54,37.97-47.12c6.82-8.29,13.99-16.3,21.29-24.17
			c8.93-9.64,15.9-20.52,21.24-32.53c0.66,0.11,1.32,0.22,1.98,0.33c-0.12,2.68-0.05,5.38-0.39,8.03
			c-2.02,15.68-4.26,31.33-6.16,47.03c-0.73,6.08-0.71,12.25-1.11,18.38c-0.69,10.7-1.42,21.4-2.18,32.09c0,0-0.34,2.2-0.76,4.5
			c-4.39,23.99-29.02,61.76-44.49,99c-6.94,16.72-11.02,30.88-12.94,37.6c-3.43,12.02-5.98,24.32-8.21,36.63
			c-1.54,8.52-1.98,17.24-2.69,25.9c-1.58,19.48,2.4,29.49-3.31,43.54C1417.76,1769.67,1416.01,1772.66,1414.77,1774.6z
			 M1496.16,1846.72c-9.92-10.27-62.58-49.69-72.45-64.47c-0.19-0.29-0.29-0.65-0.58-0.96c-3.61-3.81,0.86-12.88,2.89-21.35
			c2.05-8.58,0.79-13.16,0.49-22.75c-0.58-18.75,2.43-61.14,18.19-103.84c3.34-9.06,6.31-15.4,12.24-28.09
			c13.17-28.19,26.24-50.48,35.98-65.91c-0.5,3.75-1.17,9.54-1.53,16.64c-0.58,11.39,0.53,20.04,0.22,24.49
			c-1.02,14.76,1.89,42.64,6.85,87.52c5.54,50.13,5.79,40.64,6.51,54.64c0.91,17.72,1.85,58.64,3.81,80.27
			c0.18,1.96,0.39,4.91,0.95,8.82c1.24,8.65,3.23,17.25,4.67,25.89c0.95,5.69,1.86,11.4,2.81,17.28c-5.61,2.09-9.5-0.11-13.16-2.15
			C1500.65,1850.86,1499.07,1849.73,1496.16,1846.72z M1858.71,2018.49c-10.24,6.76-20.53,13.45-31.06,19.73
			c-4.57,2.72-9.76,4.42-14.71,6.47c-3.06,1.27-6.29,2.17-9.3,3.55c-13.38,6.13-27.39,7.46-41.92,6.34
			c-11.19-0.86-22.47-0.59-33.66-1.41c-13.49-0.98-26.93-2.56-40.39-3.91c-3.03-0.3-6.08-1.19-9.08-1.02
			c-12.19,0.67-24.54-0.18-36.42,3.69c-1.12,0.37-2.47,0.05-3.71,0.05c9.64-11.65,17.24-24.67,32.17-30.24
			c8.38-3.12,17-4.35,25.48-4.41c16.58-0.12,33.29,0.38,49.72,2.43c12.03,1.5,23.93,2.37,35.9,1.47
			c19.65-1.48,38.92-5.39,58.17-9.63c11.06-2.44,21.37-8.72,33.98-6.96C1869.76,2010.66,1864.35,2014.77,1858.71,2018.49z
			 M1928.59,1931.06c-9.63,20.8-21.74,36.86-35.11,50.74c-3.87,4.02-5.81,6.03-7.39,7.37c-15.49,13.22-33.03,15.96-46.33,17.86
			c-39.03,5.58-58.54,8.38-68.24,8.14c-26.95-0.66-41.79-5.65-80.98-4.31c-4.11,0.14-7.5,0.32-9.74,0.45
			c-0.24-0.68-0.49-1.37-0.73-2.05c7.67-5.83,15.02-12.15,23.08-17.38c15.01-9.74,30.45-18.82,45.67-28.24
			c13.31-8.23,27.57-12.83,43.39-13.11c15.32-0.26,30.62-1.5,45.94-2.2c10.28-0.47,20.25-1.98,29.93-5.83
			c10.42-4.14,14.7-4.94,25.42-8.44c8.49-2.77,21.02-6.41,37-9.36C1929.86,1926.87,1929.5,1929.1,1928.59,1931.06z M1945.74,1878.52
			c2.99,3.65-0.86,9.25-8.61,33.4c-0.24,0.75-0.72,2.66-2.23,4.51c-3.22,3.96-8.44,4.6-10,4.82c-11.7,1.66-22.24,8.14-33.73,10.92
			c-42.71,10.33-39.5,9.83-42.65,10.37c-28.36,4.87-55.42,5.35-55.72,3.13c-0.21-1.49,7.82-2.31,23.69-9.49
			c7.4-3.35,9.31-4.83,26.43-14.02c12.14-6.52,13.78-7.3,20.31-10.7c30.98-16.12,40.27-28.32,65.33-33.74
			C1941.33,1874.97,1944.48,1876.98,1945.74,1878.52z M1888.13,1829.15c20.12,6.13,38.67,14.84,52.22,31.73
			c1.56,1.94,2.7,4.22,4.27,6.71c-1.64,1.15-2.2,1.83-2.87,1.97c-21.14,4.59-38.9,16.58-57.64,26.39
			c-13.58,7.11-26.68,15.21-40.55,21.67c-18.98,8.84-38.46,16.6-57.78,24.69c-2.68,1.12-5.71,1.43-9.82,2.41
			c1.12-2.21,1.37-3.21,2-3.86c11.04-11.45,20.06-24.42,28.74-37.67c11.03-16.82,24.64-31.29,40.23-43.98
			c11.08-9.03,21.87-18.42,32.82-27.61C1882.14,1829.57,1884.71,1828.11,1888.13,1829.15z M1760.79,1819.16
			c15.66-4.9,31.9-6.12,47.72-5.02c17.91,1.24,36.37,0.37,53.7,7.25c4.86,1.93,10.53,1.77,15.8,6.19c-2.83,2.35-4.92,4.17-7.11,5.86
			c-1.21,0.93-2.73,1.49-3.86,2.5c-21.43,19.26-44.79,36.73-60.87,61.15c-8.45,12.84-16.94,25.53-27.45,36.75
			c-4.88,5.21-9.56,10.86-15.28,14.99c-6.55,4.74-14.12,8.09-21.31,11.92c-19.2,10.23-37.62,21.67-54.91,34.9
			c-2.6,1.99-5.29,3.85-9.33,6.79c2.27-7.6,4.23-13.55,5.8-19.6c2.75-10.61,5.11-21.33,7.89-31.93
			c4.53-17.27,8.85-34.61,14.04-51.69c4.55-15,12.2-28.54,21.64-41.16c6.87-9.18,13.09-18.87,19.18-28.6
			C1749.92,1823.9,1754.53,1821.12,1760.79,1819.16z M1525.62,1967.54c1.85,8.98,3.09,18.16,3.72,27.31
			c0.92,13.41,4.98,26.08,8.16,38.95c4.77,19.31,10.26,38.44,15.13,57.73c1.11,4.39,0.83,9.12,1.34,13.68
			c2.32,21.03,2.7,29.27,4.6,40.25c2.33,13.49,3.5,20.24,5.71,20.61c4.91,0.81,10.85-18.95,27.36-60.62
			c4.47-11.27,10.82-27.32,19.24-46.63c14.22-32.63,20.82-43.6,29.74-69.53c1.91-5.55,4.04-11.99,6.16-19.65
			c1.6-5.79,2.85-10.96,3.83-15.43c1.94-8.84,2.98-15.35,3.2-16.65c3.74-21.99,32.07-60.48,49.24-80.57
			c18.85-22.06,19.97-18.95,28.18-24.89c3.66-2.65,3.75-2.53,8.13-2.37c0.12,0.48,0.5,1.11,0.32,1.4
			c-9.05,14.8-18.9,29.17-27.02,44.46c-5.86,11.03-10.73,20.67-18.1,41.39c-4.35,12.22-6.78,21.43-9.98,33.53
			c-10.52,39.85-8.29,46.26-17.61,57.79c-5.46,6.75-8.88,7.84-18.66,19.47c-4.26,5.07-8.17,9.58-15.95,18.64
			c-2.32,2.71-4.06,4.37-4.66,5c-8.35,8.88-23.29,30.66-36.12,64.21c-3.96,10.36-8.69,21.45-11.53,37.25
			c-2.57,14.3-4.35,28.87-4.84,43.38c-0.57,16.83,0.57,33.72,1.11,50.58c0.08,2.52,0.9,5.01,1.43,7.51
			c3.2,15.23,6.38,30.46,9.64,45.67c0.91,4.25,1.91,8.49,3.14,12.65c6.92,23.34,10.81,47.29,14.94,71.22
			c3.17,18.37,7.25,36.58,11.2,54.81c1.38,6.4,1.82,12.41-0.65,18.74c-1.83,4.68-2.4,9.85-4.69,14.96c-0.67-2.02-1.5-4.01-2-6.08
			c-3.69-15.41-7.33-30.83-10.96-46.25c-3.16-13.4-6.28-26.81-9.45-40.21c-3.23-13.64-6.76-27.21-9.66-40.92
			c-2.53-11.96-4.57-24.04-6.48-36.12c-2.96-18.68-5.28-37.47-8.55-56.09c-2.98-16.94-6.19-27.39-12.49-40.15
			c-14.44-29.21-36.8-44.23-35.63-45.5c0.8-0.87,10.93,6.64,18.78,14.4c7.73,7.64,12.95,15.2,16.33,20.88
			c4.06-3.04,5.38-6.78,4.81-11.9c-2.1-18.79-3.77-37.62-5.75-56.42c-1.56-14.8-5.68-29.06-9.29-43.45
			c-3.22-12.84-5.79-25.85-8.54-38.81c-3.66-17.25-7.36-34.49-10.78-51.78c-2.67-13.49-4.96-27.06-7.38-40.6
			c-1.61-9.03-3.47-18.02-4.66-27.11c-1.59-12.14-2.66-24.34-3.9-36.53c-0.59-5.84-1.14-11.69-1.56-17.55
			c-0.13-1.76-0.14-3.7,0.48-5.29c0.45-1.15,2.07-2.63,3.12-2.59c1.49,0.06,3.37,1.04,4.26,2.24c0.77,1.04,0.71,2.99,0.45,4.43
			c-2.92,16.18-0.63,32.2,2.28,48.01C1517.72,1935.29,1522.28,1951.29,1525.62,1967.54z M1547.28,1866.52
			c-3.27-1.39-3.65-1.51-5.56-2.35c-2.04-0.89-4.96-1.95-9.61-3.02c-6.64-1.53-10.09-5.47-11.42-11.79
			c-2.26-10.74-3.32-14.48-3.98-16.49c-0.42-1.27-0.73-2.15-0.8-2.35c-1.91-5.44-3.67-29.82-4.86-88.33
			c4.59,14.07,8.18,25.41,10.59,33.07c5.1,16.23,8.66,28.29,14.04,42.12c1.24,3.19,2.1,5.45,2.88,7.56
			c4.57,12.35,6.24,17.67,8.4,23.4c2.04,5.42,5.29,13.1,10.41,22.19C1553.08,1868.94,1549.64,1867.52,1547.28,1866.52z
			 M1578.5,1868.81c-1.17,0.51-2.3,1.12-3.46,1.64c-8.3,3.66-10.68,3.14-14.49-4.95c-6.52-13.82-12.69-27.81-18.73-41.85
			c-3.92-9.12-7.66-18.34-10.91-27.71c-3.59-10.33-6.58-20.87-9.73-31.35c-1.52-5.06-2.81-10.18-4.62-16.81
			c15.93,25.47,31.27,49.24,45.76,73.52c5.85,9.8,9.83,20.71,14.66,31.11c1.4,3.01,2.75,6.05,4.24,9.01
			C1582.96,1864.91,1581.99,1867.29,1578.5,1868.81z M1609.69,1812.93c-8.18,13.76-14.34,28.71-21.41,43.14
			c-0.85,1.74-2.1,3.29-4.08,6.35c-3.22-7.26-5.64-13.33-8.55-19.16c-5.24-10.48-10.42-21.02-16.27-31.16
			c-8.55-14.8-17.67-29.26-26.55-43.87c-2.92-4.8-5.95-9.54-8.67-14.45c-7.19-12.98-9.52-24.36-11.2-31.58
			c-5.1-21.99-13.91-59.94-15.45-111.44c-0.13-4.35-0.23-3.61-0.26-11.5c-0.08-19.68-0.14-39.36-0.17-59.05
			c0-1.49,0.32-2.97,0.63-5.74c1.56,1.71,3.83,4.31,6.33,7.63c10.56,14.07,14.06,26.29,18.25,36.85c6.7,16.92,10.34,13.8,19.06,34.9
			c9.02,21.8,15.65,44.31,22.93,66.65c4.35,13.36,9.61,26.43,14.35,39.67c1.63,4.56,2.81,9.28,4.39,13.86
			c1.83,5.29,3.48,10.68,5.89,15.71c6.63,13.84,13.04,27.84,20.68,41.12C1614.13,1798.78,1614.61,1804.65,1609.69,1812.93z
			 M1678.89,1685.56c-1.85,7.92-3.93,16.02-7.5,23.25c-11.23,22.71-23.42,44.9-39.88,64.45c-3.6,4.28-6.28,9.33-9.44,13.98
			c-1.41,2.07-2.95,4.06-5.21,7.15c-2.21-3.12-3.91-5.05-5.08-7.25c-8.95-16.94-18.66-33.46-24.14-52.09
			c-2.95-10.02-8.07-19.37-11.44-29.29c-8.23-24.2-16.04-48.54-23.97-72.85c-9.59-29.38-16.46-28.75-28.58-59.21
			c-7.67-19.26-8.91-27.13-15.43-35.7c-1.49-1.96-4.85-8.82-8.88-17.81c-0.99-2.22-1.2-4.95-1.17-7.45
			c0.31-30.25,4.97-60.11,8.46-90.07c0.16-1.41,0.71-2.77,1.56-5.95c1.3,1.97,3.48,5.18,6.36,8.97
			c13.78,18.13,25.04,25.23,48.15,46.28c9.54,8.7,13.99,13.36,20.22,19.36c11.31,10.89,20.46,23.44,28.56,36.88
			c11.88,19.74,25.44,38.29,40.58,55.67c0.5,0.58,1,1.17,1.44,1.8c5.99,8.68,12.81,16.59,21.32,22.93
			c3.79,2.82,5.35,6.37,4.96,11.25c-0.36,4.55,0.15,9.19,0.54,13.76C1681.79,1651.01,1682.9,1668.41,1678.89,1685.56z
			 M1525.84,1374.27c6.44,5,12.69,10.27,19.3,15.04c12.23,8.82,24.41,17.73,37.07,25.91c11.14,7.2,22.93,13.37,34.37,20.12
			c9.23,5.45,18.38,11.05,27.52,16.65c1.29,0.79,2.54,1.83,3.45,3.02c8.17,10.69,17.79,20.08,23.86,32.6
			c5.18,10.69,9.03,21.63,12.43,32.88c3.07,10.14,4.17,20.5,4.05,31.04c-0.16,13.05-0.27,26.07-4.34,38.72
			c-1.08,3.35-0.94,7.08-1.53,10.61c-0.31,1.87-1,3.67-1.75,6.29c-1.97-1.52-3.26-2.29-4.27-3.33
			c-20.46-21.22-38.57-44.33-55.05-68.74c-6.43-9.52-12.74-19.12-19.15-28.65c-7.65-11.36-18.03-20.16-27.79-29.53
			c-13.65-13.09-27.61-25.88-40.91-39.32c-10.85-10.96-19.86-23.37-24.63-38.35c-0.62-1.93-1.26-3.96-1.28-5.96
			c-0.13-9.4-0.06-18.81-0.06-29.22C1514.39,1365.86,1520.21,1369.9,1525.84,1374.27z M1557.09,1253.61
			c-15.88,3.41-20.49,7.53-37.89,14.64c-1.03,0.42-3.52,1.5-5.94,3.93c-0.35,0.35-0.65,0.7-0.94,1.08
			c-4.19,5.36-3.41,12.22-3.02,16.76c1.38,15.78-2.35-2.51-0.04,46.88c0.31,6.71,0.64,12.57,0.93,17.31
			c-3.19-1.99-5.2-3.33-7.29-4.52c-1.16-0.67-1.97-1.42-2.49-2.32c-1.06-1.83-0.83-3.87-0.72-4.69c0.75-5.67,0.68-19.03,0.59-36.61
			c-0.02-3.1-0.25-4.67-0.07-9.1c0.07-1.67-0.35-6.53,0.21-13.05c0.3-3.52,0.93-9.23-2.5-13.77c-2.47-3.27-5.94-4.47-7.2-4.93
			c-5.76-2.13-14.71-7.19-28.67-20.08c4.01-0.32,7.21-0.03,10.12,1.02c3.35,1.21,5.07,2.99,7.32,4.66
			c3.74,2.78,11.91,7.64,15.87,6.61c8.54-2.22,3.08-33.3,7.06-80.87c1.16-13.93,1.08-29.29,1.85-39.73
			c0.49-6.65,1.46-13.19-0.49-19.77c-0.32-1.09,0.22-2.43,0.36-3.63c6.8,0.36,7.89,1.15,8.26,6.43c0.28,4.07,0.5,8.17,0.3,12.23
			c-0.56,10.96-1.16,21.92-2.13,32.85c-1.11,12.64-2.61,25.24-3.98,37.85c-1.94,17.93-0.67,35.65,3.34,53.2
			c1.4,6.14,4.82,7.9,10.77,5.75c0.96-0.35,1.92-0.73,2.8-1.24c7.39-4.28,15.38-6.76,23.83-7.62c4.59-0.47,8.14-2.52,11.41-5.62
			c5-4.73,10.43-9.01,15.33-13.83c13.1-12.85,20.38-26.28,32.28-39.82c22.22-25.28,36.3-30.32,46-31.81
			c0.81-0.12,1.81-0.9,3.63-0.42c25.65,6.64,51.62,9.62,78.1,7.17c0.36-0.03,0.77,0.48,1.63,1.06c-1.12,1.06-2.05,2.18-3.21,2.98
			c-8.8,6.12-17.87,11.86-26.4,18.33c-8.93,6.78-17.25,14.36-26.02,21.37c-13.84,11.06-20.7,16.66-26.19,19.87
			c-17.33,10.14-34.27,12.39-69.35,17.05C1577.49,1250.15,1565.79,1251.74,1557.09,1253.61z M1679.13,1414.76
			c-7.73-4.9-15.41-10.16-22.11-16.33c-9.18-8.46-18.29-17.28-25.83-27.17c-10.9-14.29-17.34-31.05-23.1-48.08
			c-4.9-14.48-10.36-28.82-16.59-42.77c-3.87-8.66-11.65-14.57-20.18-21c10.46-0.73,19.79-1.61,29.14-1.9
			c2.88-0.09,6.06,0.94,8.66,2.29c7.26,3.76,14.43,7.73,21.37,12.02c8.82,5.46,15.67,13.21,21.62,21.49
			c9.98,13.89,19.43,28.17,28.76,42.51c3.6,5.53,6.22,11.69,9.37,17.51c3.78,6.96,7.61,13.89,11.49,20.79
			c5.25,9.33,10.28,18.8,15.92,27.89c5.76,9.27,12.13,18.16,18.24,27.22c1.1,1.62,2.21,3.24,3.31,4.85
			C1718,1429.52,1697.13,1426.17,1679.13,1414.76z M1831.94,1469.84c-23.41-1.33-43.76-11.12-64.61-20.29
			c-22.32-9.82-35.01-28.02-46.01-48.34c-6.07-11.22-12.95-22-19.41-33.01c-2.06-3.51-4.49-6.94-5.83-10.73
			c-7.47-21.18-19.07-40.13-31.93-58.26c-6.61-9.32-14.61-17.69-22.43-26.07c-2.88-3.08-7.06-4.96-10.65-7.37
			c-2.65-1.78-5.32-3.54-9.11-6.06c9.55-2.88,17.64-1.67,25.59-0.86c10.66,1.08,21.28,2.64,31.85,4.4
			c14.72,2.45,28.74,7.34,42.05,13.98c3.98,1.98,7.48,5.42,10.43,8.85c5.81,6.78,11.37,13.83,16.49,21.16
			c3.77,5.4,6.61,11.44,9.97,17.13c4.81,8.13,9.36,16.44,14.65,24.24c8.75,12.9,17.85,25.57,27.08,38.13
			c8.62,11.74,17.39,23.33,30.01,31.42c5.1,3.26,9.02,8.31,13.92,11.95c8.2,6.1,16.84,11.61,25.14,17.57
			c5.34,3.83,10.41,8.03,16.91,13.08C1867.34,1466.62,1850.27,1470.89,1831.94,1469.84z M1932.85,1450.77
			c-11.18,2.63-22.44,4.93-33.62,7.59c-3.23,0.77-5.84,0.4-8.67-1.39c-18.18-11.47-35.71-23.77-52.34-37.45
			c-10.69-8.79-21.69-17.13-29.97-28.33c-6.53-8.82-12.73-17.88-18.84-26.99c-4.55-6.79-8.95-13.7-13.03-20.78
			c-4.96-8.6-9.13-17.67-14.36-26.09c-5.1-8.22-11.1-15.89-16.74-23.78c-1.01-1.41-2.2-2.7-2.92-4.59c6.43,0.99,11.5,4.81,16.98,7.6
			c7.74,3.92,15.35,8.09,22.95,12.27c12.31,6.77,24.62,13.53,36.82,20.48c10.42,5.94,21.04,11.64,30.92,18.38
			c2.93,2,9.61,7.69,25.84,27.74c27.02,33.38,33.39,42.89,49.66,56.87c8.05,6.92,15.14,11.83,19.46,14.68
			C1940.76,1448.31,1936.88,1449.83,1932.85,1450.77z M1952.55,1444.72c-2.1,0.38-4.9-0.91-6.83-2.22
			c-0.83-0.56-1.64-1.14-2.46-1.72c-32.25-22.95-45.84-43.93-45.84-43.93c-9.1-10.92-30.59-36.71-27.6-39.69
			c1.26-1.26,5.58,2.86,20.64,11.26c18.03,10.05,22.76,11.78,38.53,20.55c4.43,2.47,8.35,5.86,12.47,8.88
			c9.47,6.93,19.01,13.76,28.33,20.89c3.59,2.75,6.64,6.22,10.42,9.83C1972.2,1436.98,1963.41,1442.75,1952.55,1444.72z
			 M1984.06,1422.54c-37.2-29.63-55.48-40.03-65.28-43.68c-11.48-4.27-21.78-11.22-32.63-16.9c-1.94-1.02-3.72-2.36-5.11-4.8
			c1.13,0.13,2.79,0.31,4.81,0.52c16.92,1.71,25.77,1.5,37.3,2.24c5.42,0.35,15.24-0.33,25.74,2.97
			c11.39,3.59,22.86,6.95,34.3,10.41c3.81,11.89,6.22,22.81,6.37,34.16C1989.63,1413.23,1989.14,1418.73,1984.06,1422.54z"/>
	</g>
</g>
</svg>
