<svg xmlns="http://www.w3.org/2000/svg" width="1932.189" height="1989.699" viewBox="0 0 1932.189 1989.699">
  <g id="gentle-within-3" transform="translate(1189.045) rotate(42)">
    <rect id="Rectangle_3" data-name="Rectangle 3" width="1000" height="1777" transform="translate(0)" fill="none"/>
    <g id="Group_21" data-name="Group 21" transform="translate(0.04 0.314)">
      <g id="Group_6" data-name="Group 6" transform="translate(922.903 934.099)">
        <path id="Path_4" data-name="Path 4" d="M1077.1,1546.11c-.18.06-.37.12-.56.18l.42-.33Z" transform="translate(-1076.54 -1545.96)" fill="#cfd1c6"/>
      </g>
      <g id="Group_7" data-name="Group 7">
        <path id="Path_5" data-name="Path 5" d="M1006.083,1803.29c6.7-6.19,13.82-12.01,20.93-17.81q6.3-5.13,13.09-9.75c9.4-6.39,18.23-13.37,25.57-21.73,14.2-16.16,24.2-21.52,26.13-22.96,15.37-11.39,29.36-17.77,44.84-24.83,5.29-2.42,9.36-4.76,14.77-5.74,7.63-1.38,15.49-2.2,22.77-4.51,6.56-2.08,13.11-2.08,19.75-2.72,7.05-.68,14.01-2.14,21.04-3.02,7.89-.99,15.83-2.46,23.72-2.35,7.32.1,12.79,1.02,23.71,3.02,10.21,1.87,20.06,3.68,32.36,7.87,6.21,2.12,9.35,3.58,15.85,4.88,2.76.55,4.65,1.04,7.06,1.35a49.8,49.8,0,0,0,10.3.23c25.91-1.72,44.38,9.97,44.38,9.97,5.99,3.79,10.26,8.73,17.87,15.95a77.152,77.152,0,0,1,9.04,10.05c4.45,6.05,8.57,12.31,12.65,18.58,8.21,12.59,16.63,25.1,22.34,38.89,3.22,7.77,5.89,15.73,9.17,23.48,5.69,13.41,6.89,27.37,6.52,41.54-.17,6.54-.92,13.07-1.12,19.62a148.347,148.347,0,0,1-3.92,30.69,214.982,214.982,0,0,0-4.38,25.79,126.513,126.513,0,0,0-.69,20.39c.43,9.22.48,15.35,3.04,22.21,1.3,3.49,2.87,7.71,4.54,7.59,2.45-.17,2.16-9.59,6.47-29.65,1.5-6.98,3.11-13.95,4.35-20.98,2.64-14.85,4.88-29.76,7.67-44.59,1.32-7,3.75-13.82,5.28-20.79,1.7-7.76,2.62-15.67,4.49-23.39,2.48-10.24,5.81-20.3,8.33-30.53,3.13-12.75,6.07-25.55,8.61-38.4,2.89-14.59,4.26-24.1,4.24-33.47,0-1.48-.1-6.01-.74-11.95-1.87-17.27-6.61-29.15-13.44-45.89-3.96-9.73-6.55-14.62-11.23-19.53a48.188,48.188,0,0,0-10.19-8.1c-6.59,3.24-10.07,8.41-12.88,14.07-3.65,7.34-6.13,15.19-12.63,21.18-3,2.77-5.33,3.86-8.88,1.57a29.669,29.669,0,0,0-16.21-5.22c-3.57-.04-4.81-1.83-4.69-5.19.09-2.46.78-4.65,3.23-6.16,3.55-2.19,7.09-4.42,10.44-6.86a40.963,40.963,0,0,0,6.91-6.05,67.082,67.082,0,0,0,7.21-9.84c4.15-7.04,10.99-8.54,18.94-8.25-2.33-3.54-5.82-4.5-9.9-4.9-10.48-1.02-20.25.19-28.88,6.29-1.85,1.31-4.2,2.03-6.3,3.05a102.32,102.32,0,0,1-50.58,10.44c-9.47-.43-17.81-2.22-24.47-8.79-3.95-3.89-9.14-4.81-14.77-5.01a36.755,36.755,0,0,1-10.66-2.05c-4.99-1.76-6.9-6.34-4.82-10.71,2.06-4.34,4.32-8.61,6.63-12.84,2.45-4.48,5.55-8.54,10.31-11.23a11.084,11.084,0,0,0,5.13-5.81c3.13-7.69,8.33-14.01,16.98-16.97a52.847,52.847,0,0,1,12.52-2.23c7.17-.61,13.92-1.83,20.23-5.43a51.894,51.894,0,0,1,14.21-5.53c10.62-2.37,21.4-3.93,31.21,2.73a11.286,11.286,0,0,0,3.51,1.53c9.34,2.46,14.26,8.72,16.69,16.79,2.48,8.21,4.63,16.51,6.54,24.84.81,3.52,2.76,5.88,5.78,8.18,1.56-6.67,2.95-12.85,4.49-19.01a12.383,12.383,0,0,1,2.03-4.98c4.96-5.94,10.09-11.76,15.33-17.49a4.2,4.2,0,0,1,5.83-.7,71.423,71.423,0,0,1,7.83,6.98,6.662,6.662,0,0,1,1.05,8.37c-1.96,3.39-1.98,6.64-1.28,10.32.86,4.48,1.13,9.18-2.37,13.09-3.7,4.13-7.41,8.25-11.32,12.2-2.64,2.67-3.93,4.79-3.89,6.88.05,3.09,2.57,5.27,4.15,6.79,4.63,4.45,7.06,10.65,10.83,15.81,11.55,15.83,17.77,42.53,19.97,41.99,1.07-.26-.28-6.58-.62-17.38-.29-9.3.89-12.21,1.31-25.56.42-13.27.88-26.54.84-39.82-.03-8.31-1.6-16.64-1.28-24.92.46-11.97-8.33-19.77-11.78-24.78-3.59-5.21-10.4-15.08-22.3-22.84-4.2-2.74-9.04-5.82-16.59-11.44a47.172,47.172,0,0,1-8.13-7.63c-3.52-4.26-6.63-8.81-9.74-13.33a137.09,137.09,0,0,1-7.88-12.31q-7.2-13.275-13.84-26.8c-3.64-7.39-6.33-15.21-10.5-22.32-5.21-8.87-11.45-17.24-17.37-25.75a209.911,209.911,0,0,0-28.71-33.67c-9.37-8.75-19.41-16.89-29.24-25.22-16.87-14.29-33.35-28.81-43.65-48.15-5.53-10.39-10.22-21.05-13.02-32.27-3.42-13.7-6.15-27.54-9.04-41.34-1.66-7.95-3.31-15.92-4.47-23.94-1.2-8.24-1.53-16.58-2.73-24.82-2.69-18.41-1.25-36.88-1.63-55.33-.25-11.9-1.25-23.26-1.58-28.38-.92-14.18-1.1-20.58-1.95-30.13-.67-7.54-1.46-14.6-1.92-18.18-4.45-34.17-20.13-59.72-17.06-61.37,1.31-.71,4.99,3.54,9.68,9.07,27.72,32.67,37.96,46.82,37.96,46.82,8.01,10.3,14.93,21.3,22.72,31.75,8.29,11.13,16.98,22,25.58,32.93,6.18,7.86,12.73,15.41,17.04,24.45,3.54,7.4,8.21,14.34,11.65,20.24,6.33,1.75,11.32,2.93,16.15,4.52,5.87,1.94,11.42,5.21,17.44,6.14,7.57,1.17,13.3,4.6,18.49,9.08,4.67,4.03,9.51,2.93,18.09,4.76,7.43,1.58,18.15,3.96,31.53,7.28-3.3-23.65-8.83-39.63-12.9-49.26-4.76-11.28-6.41-11.26-9.57-20.87-2.08-6.33-6.25-12.64-10.9-21.56-.39-.74-1.28-1.26-2.54-2.45-.38,2.2-.74,3.51-.81,4.83-.31,5.75-1.87,6.4-8.14,7.64-6.85,1.36-13.45,3.92-19.99,6.35-1.8.67-3.06,2.68-4.42,4.19-1.09,1.22-1.72,2.86-2.98,3.87-1.36,1.08-3.23,2.32-4.83,2.28-2.48-.07-3.41-2.19-3.41-4.36,0-2.37-.32-4.87.37-7.08q2.88-9.135,6.6-18.05c.71-1.7,2.6-3.06,4.15-4.38,4.21-3.58,8.52-7.05,12.78-10.56-8.19-7.82-18.45-9.84-28.65-6.22-3.37,1.2-7.19,2.84-10.5,2.39-8.52-1.16-17.07-2.88-23.67-8.77a10.619,10.619,0,0,0-4.82-2.82c-6.43-1.08-11.5-4.42-16.67-7.66-12.65-7.9-17.99-19.87-21.66-32.77a8.9,8.9,0,0,1-.15-2.37c-.01-6.35-.23-12.71.06-19.05.23-5.04-1.77-8.87-5.98-11.89-1.71-1.22-3.48-2.36-5.22-3.55-5.99-4.08-5.98-9.09.3-12.84a33.691,33.691,0,0,1,26.67-3.67c5.01,1.31,9.03.55,13.43-2.01,4.27-2.49,9.23-5.23,14.02-5.47,9.95-.49,18.66,2.52,25.61,10.15,6.31,6.93,14.24,12.6,21.27,19,3.66,3.34,7.97,6.59,10.13,10.7,5.47,10.41,8.85,21.37,7.56,33.33-.72,6.64.07,13.42.4,20.14.16,3.21,2.02,5.74,4.47,7.99,3.88-10.34,7.59-20.24,11.33-30.14.92-2.44,1.74-5,5.21-5.34,10.37,10.36,11.7,22.17,7.27,32.41-1.51,3.49-3.41,6.84-5.04,10.3-1.09,2.31-1.56,3.67-1.32,4.89.52,2.54,2.96,4.04,3.48,4.39,3.05,2.02,9.72,11.39,24.73,40.09a25.922,25.922,0,0,0-.18-9.56c-3.29-15.33-5.67-22.99-8.33-37.24-.65-3.48-1.01-9.21-1.72-20.68-2.23-35.98.27-38.65-2.91-53.7-3.09-14.59-5.73-13.45-8.83-29.89-1.83-9.74-.54-16.01-4.93-28.7-1.96-5.65-3.26-11.5-4.69-17.3-4.35-17.58-8.57-35.19-12.96-52.76-2.22-8.89-4.61-17.75-7.07-26.58q-3.525-12.675-7.36-25.29c-2.98-9.73-6.32-19.37-9.18-29.13-2.9-9.92-6.92-19.57-8.13-29.91-1.07-9.07-2.7-18.08-3.91-27.13a149.534,149.534,0,0,1-.6-29.6c1.24-18.3,4.46-18.76,4.14-32.35a156.6,156.6,0,0,0-3.43-27.3h0c-7.23-21.8-24.95-49.53-26.4-51.77.71-1.6,1.42-3.21,2.07-4.68a10.845,10.845,0,0,1,9.78,2.47,89.054,89.054,0,0,1,17.67,18.9,58.02,58.02,0,0,0,8.82,10.25c7.7,6.95,15.81,13.52,23.69,20.31,10.09,8.69,20.25,17.33,30.12,26.23a80.352,80.352,0,0,1,11.27,12.17,121.25,121.25,0,0,1,11.11,18.1c3.85,7.94,7.84,16.06,9.82,24.49,3.92,16.65,6.61,33.45,12.67,49.74,5.28,14.21,8.54,29.12,11.71,43.89,2.21,10.29,2.99,20.9,1.03,31.41-1.9,10.21-1.62,24.26-8.02,40.39-4.06,10.23-8.12,15.82-13.35,31.93-1.62,4.99-.38,3.45-3.42,11.67-7.85,21.23-6.62,22.9-11.98,37.17a78.082,78.082,0,0,0-2.49,9.24,31.773,31.773,0,0,0,.1,13.53,75.318,75.318,0,0,1,27.46-1.82c10.75,1.32,13.46,4.15,29.51,8.26,19.8,5.08,20.03,1.89,31.02,6.27,4.97,1.98,19.12,7.83,28.58,21.96,4.48,6.7,6.12,12.55,7.84,18.9,1.51,5.6,9.97,36.97-1.05,55.83,0,0-6.26,10.71-6.44,21.73a12.933,12.933,0,0,0,.18,2.23c.22,1.05.61,1.74.91,2.9a14.1,14.1,0,0,1,.35,2.49c.13,2.73-1.95,7.76-4.98,8.2-2.07.3-3.84-1.71-6.77-5.07a46.073,46.073,0,0,1-5.64-7.98c-5.02-9.44-17.69-8.98-33.42-20.4a80.956,80.956,0,0,1-12.65-11.66c-4.15-4.46-10.92-13.47-17.85-26.16-6.72-12.29-8.64-25.18-1.99-38.44a41.035,41.035,0,0,0,4.03-14.27,15.162,15.162,0,0,0-1.41-7.56c-2.92-6.47-9.71-9.06-12.09-9.98-8.22-3.15-21.2-3.58-26.21,3.03-2.2,2.9-1.7,5.62-.42,16.55,1.86,15.83,2.78,31.76,5.1,47.53,6.37,43.31,7.34,92.07,10.57,104.53,0,0,2.43,9.42,4.14,18.02.05.26.35,1.79.8,3.78.52,2.31.97,4.09,1.09,4.59.02.08.03.13.03.13,24.62,96.19,31.1,160.97,31.1,160.97.15,1.49,1.53,15.35,3.33,15.34,1.21,0,1.6-6.31,4.34-15.65a99.9,99.9,0,0,1,6.57-16.8c6.98-14.71,9.82-30.34,12.31-46.01,1.38-8.63,1.85-17.35,4.92-25.73,4.95-13.53,8.93-27.39,14.64-40.64a244.062,244.062,0,0,1,34.17-56.59c4.87-6.05,8.89-12.67,13.67-18.78,4.89-6.26,10.37-12.13,15.36-18.32a95.136,95.136,0,0,0,17.61-32.9,177.725,177.725,0,0,1,16.16-38.83c4.95-8.59,10.6-16.84,15.96-25.23a22.733,22.733,0,0,1,2.24-2.88c10.84-12.08,21.92-23.99,32.48-36.27,6.27-7.29,12.01-15.01,17.48-22.83,4.54-6.5,7.92-13.68,12.56-20.11,5.09-7.07,7.95-14.93,11.27-22.66a56.727,56.727,0,0,1,3.78-7.56,167.864,167.864,0,0,0,15.87-33.12,67.734,67.734,0,0,1,5.75-11.24c.45-.77,2.12-1.29,3.21-1.26.58.01,1.39,1.37,1.63,2.23a15.94,15.94,0,0,1,.46,4.14c.09,6.94.08,13.89.19,20.83.25,16.43.7,32.86.78,49.28.05,11.5-.32,23.01-.63,34.51a24.344,24.344,0,0,1-1.15,5.85c-4.5,15.91-8.94,31.84-13.62,47.71a137.736,137.736,0,0,1-13.71,30.81,103.964,103.964,0,0,0-8.59,17.26c-5.27,14.67-9.59,29.62-14.88,44.28-7.2,19.92-13.77,40.05-23.17,59.27-5.61,11.47-12.09,22.41-20.71,32.18-12.8,14.51-26.05,28.64-41,41.36a140.128,140.128,0,0,0-12.7,11.85,395.331,395.331,0,0,1-37.61,36.11c-12.57,10.58-26.03,20.44-35.57,33.66-5.78,8.01-17.56,19.83-25.18,36.68-4.78,10.55-13.03,33.42-8.1,66.11,40.68-11.22,70.62-19.53,81.19-22.42,14.49-3.96,15.66-4.07,18.24-5.44a35.765,35.765,0,0,1,9.87-3.36,27.891,27.891,0,0,1,3.59-.29c1.43-.02,2.85-.33,4.65-.55,0-2.31.12-4.28-.02-6.24-.48-6.53-1.24-13.06-1.54-19.6-.38-8.32-.47-16.69,2.84-24.65,1.68-4.05,5.27-4.78,8.53-1.73a15.919,15.919,0,0,1,3.3,5.02c2.72,5.82,2.43,12.01,2.37,18.17-.03,2.62-.76,5.46,2.06,8.21a43.575,43.575,0,0,1,22.85-13.29c9.43-2.16,18.89-4.29,28.46-5.77a85.169,85.169,0,0,1,29.6.54,38.646,38.646,0,0,0,20.9-1.7c15.37-5.62,30.81-6.31,45.9,2.39,6.58,3.79,10.66,8.34,12.73,14.92,2.39,7.59,7.4,13.76,12.56,19.95,4.85,5.82,10.77,10.83,11.58,19.25,1.42,14.74-2.25,27.11-15.25,36.48-4.77,3.44-10.06,5.42-16.3,4.21-7.02-1.36-12.44-2.34-12.7-2.41-31.17-8.75-31.68-9.23-35.28-9.05-8.84.44-13.82,3.74-21.31.46-.95-.42-2.8-.71-6.62-4.52-5.41-5.4-11.06-10.59-16.7-15.79a77.081,77.081,0,0,0-20.25-13.7c-9.45-4.35-19.75-5.7-29.65-8.44a46.144,46.144,0,0,0-5.35-.88c2.31,5.39,4.48,10.47,6.67,15.54a16.227,16.227,0,0,0,1.79,3.81c3.65,4.59,3.46,9.67,2.48,14.84-.49,2.6-1.51,5.15-4.57,6.02-3.21.91-5.99-.3-8.21-2.43a15.7,15.7,0,0,1-2.6-3.38q-5.7-9.66-11.29-19.37c-3.75-6.47-9.9-8.54-17.46-5.81-2.62.94-5.21,1.95-7.82,2.89-10.66,3.84-21.35,7.62-31.98,11.53-5.3,1.95-6.41,2.45-10.58,4.11,0,0-2.42.97-6.73,2.63-11.64,4.48-30.84,4.88-43,16.42-5.4,5.12-8.32,11.39-7.49,12.11s4.78-4.35,12.48-8.07c11.06-5.35,21.97-4.4,25.38-4.04a49.039,49.039,0,0,1,21.39,7.58c2.96-1.47,5.86-2.71,8.52-4.28,7.29-4.31,14.62-8.39,23.04-10.76a21.621,21.621,0,0,1,10.1-.64c8.69,1.53,17.43,3.67,26.19,3.85,15.58.33,27.06,8.13,37.69,16.67,5.95,4.78,9.72,12.05,13.78,18.56,4.6,7.37,8.09,15.33,12.7,22.7,3.61,5.75,5.46,11.62,4.71,18.16a11.144,11.144,0,0,0,2.16,7.87,8.992,8.992,0,0,1,1.41,5.58c-.2,2.21-.21,4.97-3.5,5.8-3.08.78-4.88-.87-6.47-2.91a10.114,10.114,0,0,0-1.27-1.35c-2.92-2.6-3.8-2.52-7.21-.48a117.639,117.639,0,0,1-11.71,6.31,32.559,32.559,0,0,1-20.83,2.36,25.262,25.262,0,0,0-6.44-.51,18.17,18.17,0,0,1-11.02-2.83,26.587,26.587,0,0,0-4.66-1.84c0,5.18-.01,9.52,0,13.86a67.949,67.949,0,0,1,.02,8.32c-.93,7.68-1.83,15.38-3.34,22.97-.72,3.6-2.01,7.6-4.48,10.31a123.8,123.8,0,0,1-15.34,13.56c-5.18,4.06-8.83,8.6-9.13,15.09a36.654,36.654,0,0,1-1.39,7.02c-.52,2.11-1.67,3.73-4.45,3.36-2.56-.34-3.58-1.85-3.79-4.12a50.308,50.308,0,0,0-1.23-8.84,7.262,7.262,0,0,0-3.19-3.99,33.332,33.332,0,0,1-11.79-11.62c-7.92-12.7-16.01-25.28-21.88-39.03-6.21-14.56-10.99-29.21-10.48-44.97.51-15.67,3.2-30.76,14.05-43.66a4.969,4.969,0,0,0,1.42-3.21c-.06-6.65-18.92-15.39-34.15-10.88-2.29.68-9.48,1.52-11.91,7.42-2.33,5.67-4.95,11.41-4.63,17.8.4,8.11.43,16.24.56,24.36.11,7.32-.29,14.66.27,21.95,1.18,15.2,2.92,30.37,4.28,45.56a98.351,98.351,0,0,1,.11,11.26c-.18,6.92-.51,13.83-.75,20.75-.1,2.77-.03,5.55-.21,8.32q-1.575,24.585-3.24,49.16c-.46,6.71-1.13,13.4-1.62,20.11-.23,3.14-.45,6.49-1.35,21.33-1.33,21.9-1.4,24.05-2.05,28.86a171.488,171.488,0,0,1-4.2,21.05s-5.78,25.56-11.31,56.25c-2.58,14.34-2.29,15.14-3.94,18.87-1.39,3.16-2.31,8.27-3.97,14.96-.24.98.16,2.09.4,4.41,1.42-2,2.07-2.92,2.72-3.84,3.98-5.66,7.88-11.36,11.94-16.96,4.91-6.76,10.13-13.33,14.88-20.17,4.53-6.52,8.78-13.2,12.88-19.96,6.08-10.04,12.15-20.09,17.79-30.33,6.14-11.14,11.19-22.82,17.79-33.71,7.97-13.16,17.06-25.76,25.69-38.59,1.58-2.35,2.96-4.89,4.94-6.93q9.24-9.555,18.88-18.77c13.46-12.87,25.42-27.05,40.18-38.8,10.12-8.06,19.73-16.74,30.46-24.04,14.23-9.68,29.53-18,44-27.4,18.34-11.91,36.39-24.21,54.39-36.55,13.15-9.01,25.86-18.57,39.09-27.48,8.87-5.97,18.32-11.22,27.48-16.82,2.51-1.53,4.74-3.55,7.42-4.74,14.99-6.62,29.95-13.33,45.19-19.46,15.84-6.37,32-12.05,47.94-18.2a22.045,22.045,0,0,0,7.46-4.52c6.44-6.4,12.45-13.16,18.78-19.64a26.792,26.792,0,0,1,7.24-5.76,10.2,10.2,0,0,1,7.25-.29c2.76,1.14,2.86,3.92,2.32,6.76-1.32,6.89-4,13.3-7.02,19.68-5.69,12-11.02,24.14-16.62,36.17-6.16,13.22-15.31,24.83-24.07,36.6-9.75,13.1-19.97,25.89-30.01,38.8a244.151,244.151,0,0,1-31.07,32.72c-10.34,9.16-19.56,19.1-26.43,30.68-5.62,9.46-12.62,17.99-19.63,26.54-4.16,5.07-8.36,10.1-12.51,15.17-2.71,3.32-4.92,7.11-8.14,9.92a277.355,277.355,0,0,1-22,17.55c-5.97,4.22-12.28,8.49-19.17,11.08-20.8,7.8-41.92,14.89-63,22.07-14.38,4.9-28.93,9.38-43.33,14.23-17.04,5.74-33.89,11.97-51.04,17.42a103.36,103.36,0,0,0-28.36,14.17,302.2,302.2,0,0,0-32.14,26.68c-13.72,12.9-26.6,26.56-39.82,39.9a16.234,16.234,0,0,0-1.91,2.4c-5.89,8.79-11.88,17.51-17.58,26.4-5.81,9.05-11.15,18.35-17.01,27.37,0,0-1.98,3.43-3.88,7-7.32,13.77-13.46,50.83-17.79,70.93-2.96,13.72-2.56,8.56-11.67,43.89-3.09,11.97-5.99,23.98-8.8,36.01-3.57,15.31-6.44,30.77-10.57,45.95-3.24,11.9-7.79,23.48-10,35.67-1.31,7.22-3.89,14.23-5.69,21.38-4.71,18.72-9.16,37.5-14.01,56.2-3.95,15.23-8.05,30.43-12.58,45.52-3.79,12.61-8.17,25.08-12.55,37.53a64.67,64.67,0,0,1-6.25,13.67c-3.82,5.92-10.49,10.79-23.67,20.64-9.86,7.37-6.09,3.75-17.7,12.15-5.28,3.82-6.57,4.93-7.49,4.44-3.04-1.62,3.06-17.84,11.65-39.97,11.05-28.48,13.92-35.04,18.44-46.79,8.73-22.68,11.87-34.1,29.03-86.59.72-2.19,2.48-8.33,5.22-16.33v-.01c1.08-3.43,3.04-9.62,5.56-17.31,4.65-14.19,44.06-107.1,39.93-152.54-1.07-11.76-1.61-17.65-3.74-22.41,0,0-8.77-19.54-9.21-26.64a.452.452,0,0,0-.01-.08c-.01-.08-.02-.23-.03-.41-.02-.3-.05-.72-.09-1.22-.13-1.73-.36-4.5-.74-7.94-.22-1.99-.54-4.29-1.08-7.53a295.5,295.5,0,0,0-15.85-57.76,149.4,149.4,0,0,1-5.75-13.9c-5.34-16.12-14.32-30.65-24.1-44.66a293.325,293.325,0,0,0-26.32-32.35,427.322,427.322,0,0,0-32.48-30.7c-9.58-8.28-20.19-15.56-30.18-23.45-5.4-4.26-10.46-8.89-16.61-14.15-6.86,4.33-13.41,8.47-19.97,12.6-1.07.67-2.18,1.3-3.27,1.94-5.79,3.44-11.75,6.55-17.89,9.5a78.536,78.536,0,0,1-37.38,7.61c-8-.26-13.94-.13-15.51-.2-22.19-1.06-44.45,4.78-55.43,7.67-9.38,2.46-19.08,9.44-41.28,13.69a31.531,31.531,0,0,0-5.99,2.21c-11.2,4.64-22.31,9.48-33.61,13.93s-27.03,9.63-35.68,3.46c-.82-.58-3.54-2.53-3.83-5.44C999.7,1808.89,1002.884,1806.25,1006.083,1803.29Zm434.59-139.88a72.472,72.472,0,0,0-6.86,9.36,27.9,27.9,0,0,1-11.45,10.19c-2.3,1.16-4.19,3.01-6.77,4.92,4.92,1.86,8.8,3.33,13.05,4.94,3.62-2.75,6.83-6.12,8.41-10.57,2.77-7.79,6.44-15.09,12.81-21.04.23-.22.13-.74.27-1.83C1445.483,1658.35,1442.9,1660.9,1440.673,1663.41Zm1.93-29.42c-4.74-8.85-6.56-18.43-8.32-28.01-1.69-9.17-6.82-15.62-16.51-18.95a44.445,44.445,0,0,0-33.88,1.35,98.631,98.631,0,0,1-27.11,7.72c-4.43.61-8.74,2.12-13.01,3.45a10.489,10.489,0,0,0-6.75,6,38.987,38.987,0,0,1-12.24,15.73,26.422,26.422,0,0,0-9.82,14.35c-.51,1.86-1.89,3.52-2.82,5.3-1.92,3.65-1.12,5.13,3.11,5.73a26.836,26.836,0,0,0,3.24.17,31.191,31.191,0,0,1,21.35,8.38c4.13,3.75,8.94,5.47,15.04,5.83,11.7.69,22.78-1.44,33.71-4.52a73.327,73.327,0,0,0,15.24-6.42c6.96-3.84,13.25-8.75,21.58-10.45-10.17-2.36-19.56-.55-28.41,3.61-10.49,4.92-10.42,5.05-22.92,2.84,8.8-.04,16.5-3.25,24.48-6.13a57.033,57.033,0,0,1,30.61-2.49c2.48.49,5.05.61,8.73,1.03a51.139,51.139,0,0,0-3.74-4.3c-4.97-4.42-9.9-8.89-15.07-13.1a38.49,38.49,0,0,0-24.15-8.86c-8.98-.19-17.57.39-25.66,4.62a24.22,24.22,0,0,1-19.99,1.08c8.63,1.03,15.8-2.75,23.26-5.53,9.83-3.66,19.57-3.43,29.8-.9,11.15,2.77,19.67,8.74,27.65,15.87,3.82,3.41,7.19,7.4,13.12,9.57A11.346,11.346,0,0,0,1442.6,1633.99Zm-45.7-578.53c.45-10.77-3.27-20.28-9.69-29.04a14.576,14.576,0,0,0-4.95-4.62c-5.43-2.64-8.61-7.1-12.22-11.31a129.531,129.531,0,0,0-11.26-12.29c-8.32-7.51-22.71-8.14-31.94-1.64-5.08,3.58-10.69,3.76-16.66,3.03-4.48-.55-9.01-.87-13.53-1.12a12.646,12.646,0,0,0-4.45.61c-2.66.87-5.41,1.9-5.78,4.99-.36,2.9,2.15,4.09,4.24,5.47.52.35,1.14.57,1.7.87,6.72,3.69,10.14,8.83,9.24,16.29-.5,4.12.09,8.34-.33,12.47-.59,5.76.93,11.03,3.53,16.12a127.342,127.342,0,0,0,6.79,12.19c5.25,7.96,12.97,13.2,22.7,15.81,3.77,1.01,7.28,2.07,10.2,4.8,7.17,6.72,16.19,8.54,25.65,5.75a56.719,56.719,0,0,1,17.17-2.03,34.626,34.626,0,0,0,3.46-.34c-3.79-6.38-10.05-9.54-16.07-12.18-10.07-4.43-18.84-10.46-27.75-16.4-1.92-1.28-3.93-2.46-5.85-3.75-1.58-1.06-2.87-2.3-2.37-5.08,3.8,2.71,7.17,5.01,10.41,7.46,9.93,7.49,21.18,13.01,32.44,18.53a41.171,41.171,0,0,0,4.83,1.7,275.22,275.22,0,0,0-19.83-23.29c-12.05-12.66-20.73-19.39-20.39-19.78.42-.47,13.86,8.35,26.49,22.08a133.812,133.812,0,0,1,14.99,19.7h0a119.444,119.444,0,0,0-12.64-24.02c-6.59-9.63-10.14-11.7-21.76-26.65-7.41-9.52-14.09-19.12-13.73-19.38.18-.13,3.02,2.91,8.32,9.29,15.73,18.94,15.3,16.25,21.25,24.38,8.14,11.1,16.95,27.02,22.37,35.54a36.085,36.085,0,0,0,7.3,8.34c-.68-3.5-1.8-6.98-1.93-10.49C1396.573,1070.14,1396.593,1062.79,1396.9,1055.46Zm-9.47,25.26c-.34.35-.68.69-1.02,1.04h0C1386.753,1081.41,1387.093,1081.06,1387.433,1080.72Zm111.42,1.77a112.293,112.293,0,0,0,28.48,38.61c11.39,10.15,19.34,13.71,22.65,14.96.18.07.47.16.9.33a34.179,34.179,0,0,1,14.15,10.09c4.26,6.62,5.74,7.9,6.24,7.67,1.03-.48-2.92-6.93-1.66-15.34.43-2.9,1.03-3,4.1-10.55,3.01-7.39,5.46-12.11,6-17.85a116.823,116.823,0,0,0-2.38-36.65c-2.29-10.16-5.7-20.27-12.3-28.6-5.72-7.22-14.29-12.14-23.86-15.31,6.33,9.86,14.21,18.77,17.99,29.69,3.71,10.74,8.22,21.36,9.04,32.75.82,11.43,1.18,22.89,1.74,34.34-.49.03-.98.07-1.46.1-.31-4.7-1.08-9.42-.85-14.09.97-19.44-4.34-37.77-11.6-55.69-3.79-9.36-10.12-17.43-17.72-24.68-5.26-5.02-11.45-5.66-18.68-4.59,12.5,25.86,14.95,32.06,14.5,32.28-.53.26-5.84-7.36-10.21-16.37-3.72-7.65-3.78-10.16-6.87-13.35-4.77-4.92-11.67-6.2-16.89-6.49.67,1.46,1.19,2.59,1.71,3.71,2.17,4.65,3.43,9.4,1.91,14.47a94.946,94.946,0,0,0,1.89,9.69c3.6,15.91,16.06,34.14,18.99,38.34a267.464,267.464,0,0,0,19.06,23.6c7.01,8.02,11.45,12.44,11.15,12.72-.41.39-9.65-7.46-18.55-16.96-.29-.31-6.16-6.59-10.64-12.4-12.94-16.8-20.4-37.71-23.31-46.64C1494.613,1060.69,1493.713,1071.54,1498.853,1082.49Zm164.26,345.41a65.373,65.373,0,0,1,22.06-6.54c11.11-1.22,22.26-.84,32.76,2.05,15.7,4.33,30.97,10.01,46.39,15.19a25.472,25.472,0,0,1,6.65,3.39c-12.84-3.93-26.31-5.51-38.64-11.24-17.83-8.29-36.92-9.61-56.23-4.77-4.05,1.01-8.79,1.75-12.24,6.23,4.27,0,7.62.05,10.97-.01,14.09-.27,26.74,3.78,38.65,10.44,4.77,2.67,9.96,4.73,14.88,7.41a35.871,35.871,0,0,1-10.95-2.86c-5.84-2.6-11.86-4.89-17.54-7.75-7.6-3.83-15.35-2.6-23.81-1.68,1.48,2.68,3.97,3.12,6.05,3.62,7.61,1.8,14.5,5.07,21.57,8.06a34.994,34.994,0,0,1,10.67,7.55c5.69,5.43,11.17,11.07,17.16,16.21,7.21,6.18,15.38,9.72,25.89,7.74,9.74-1.84,18.02,2.67,26.22,6.77a20.622,20.622,0,0,0,5.78,1.99c5.1.85,10.28,1.3,15.39,2.13,7.7,1.25,13.79-.57,18.96-6.3,7.52-8.33,11.12-17.48,8-28.03a23.376,23.376,0,0,0-6.53-10.05,64.126,64.126,0,0,1-17.83-27.25c-2.36-6.89-8.19-10.93-15.68-12.91-2.29-.61-4.61-1.08-6.93-1.59a30.907,30.907,0,0,0-15.97.28c-6.75,2.05-13.7,3.55-20.52,5.42-6.35,1.74-12.46-.3-18.64-.83a112.67,112.67,0,0,0-30.83,1.22c-6.33,1.18-12.65,2.13-18.88,3.84-7.28,1.99-13.09,5.99-18.96,10.03-.69.47-.86,1.58-1.68,3.2A22.954,22.954,0,0,0,1663.113,1427.9Zm-4.29,42.85a7.589,7.589,0,0,0,2.46,2.7,3.647,3.647,0,0,0,2.95.23c.67-.35,1.36-1.89,1.05-2.4-3.92-6.48-3.5-15-10.91-19.8a69.628,69.628,0,0,0-6.37-3.3c-.37.32-.74.65-1.11.98C1650.863,1456.36,1654.793,1463.58,1658.823,1470.75Zm-14.76-39.86c3.05-3.36,3.15-6.81,3.33-10,.33-5.69.18-11.41.01-17.11-.09-3.11-.3-3.1-3.27-5.69C1639.863,1405.36,1639.763,1414.83,1644.063,1430.89Zm-164.75,195.49a9.227,9.227,0,0,0,2.25-4.98c.19-1.82-.4-2.41-.8-4.56-.84-4.52.96-6.16.76-12.36a31.232,31.232,0,0,0-.33-3.68c-1.34.14-3.18-.2-3.96.48-10.82,9.56-17.45,20.86-16.59,35.09a8.692,8.692,0,0,0,3.77,7.12C1469.473,1637.69,1474.483,1632.1,1479.313,1626.38ZM1255.5,1089.55c.14,2.96.31,9.32.91,20.29.55,10.18.95,14.64,1.82,28.45.46,7.29,1.22,14.57,1.29,21.86.13,12.87-.4,25.76-.18,38.63a181.893,181.893,0,0,0,1.95,20.12c.93,7.25,2.09,14.48,3.28,21.69.87,5.26,1.88,10.5,2.95,15.73,1.52,7.39,2.85,14.83,4.79,22.14,3.41,12.88,6.5,25.89,11.04,38.44,5.76,15.94,14.8,30.27,28.44,41.98,8.18,7.03,15.42,14.99,23.43,22.2,5.38,4.84,11.79,8.74,17.03,13.7,9.31,8.8,18.38,17.84,26.95,27.25,4.95,5.43,8.8,11.73,13.03,17.71,5.05,7.15,10.48,14.13,14.82,21.63,5.36,9.27,9.67,19.04,14.59,28.53,4.45,8.55,8.78,17.18,13.78,25.46a134.649,134.649,0,0,0,14.01,19.88,114.672,114.672,0,0,0,26.15,22.25c-2.58-4.73-4.91-8.84-6.86-12.22-5.03-8.7-6.65-11.14-12.04-20.35-2.34-4-4.5-8.1-6.84-12.11-3.47-5.94-7.32-11.71-10.47-17.8-4.34-8.41-8.18-17.04-12.23-25.58q-4.515-9.525-9.05-19.04c-2.6-5.45-5.16-10.91-7.82-16.33-4.08-8.31-8-16.69-12.45-24.83-2.79-5.1-6.64-9.71-9.65-14.72-3.43-5.72-6.46-11.63-9.64-17.48-.48-.88-.67-1.91-1.21-2.76-7.18-11.12-11.05-23.48-15.8-35.5-1.74-4.42-2.13-9.29-3.93-13.68-2.43-5.9-5.59-11.55-8.5-17.28-4.55-8.96-9.21-17.86-13.69-26.85a50.4,50.4,0,0,1-3.26-8.39,11.075,11.075,0,0,0-7.26-7.75c-9.16-3.51-18.21-7.26-27.27-10.98-1.79-.73-2.19-.44-4.53-1-7.72-1.84-14.22-3.39-14.33-5.57-.07-1.45,2.75-1.68,5.78-5.33a14.885,14.885,0,0,0,2.96-5.27c2.84-9.51,8.19-17.87,14.82-25.46a8.322,8.322,0,0,0,2.42-4.85,6.883,6.883,0,0,0-.98-3.75c-2.19-3.93-7.25-16.84-17.39-42.67-.01-.03-.05-.13-.06-.16-10.73-27.39-11.75-41.15-20.59-68.78-4.36-13.61-8.24-23.19-9.56-26.39-4.93-11.99-9.79-21.75-13.53-28.77C1252.294,1060.62,1254.964,1078,1255.5,1089.55Zm81.94,72.53c-7.61-14.14-18.74-26.14-28.39-39.04-7.7-10.29-14.89-20.91-22.57-31.22-10.43-13.99-12.58-15.55-21.45-27.54-8.44-11.41-14.75-21.02-18.69-27.23,2.38,5.24,5.23,11.65,8.38,19,6.18,14.43,10.68,25,15.5,39.11,2.86,8.38,5.08,15.65,6.31,19.96,1.96,6.84,3.87,13.69,5.79,20.54,2.85,10.2,5.78,20.56,6.7,23.71,2.97,10.13,8.34,25.25,18.81,45.29,2.64-1.8,4.77-2.79,6.23-4.32,8.72-9.16,20.14-13.39,32.77-15.57a19.926,19.926,0,0,0,2.19-.72C1345.123,1176.65,1341.353,1169.34,1337.443,1162.08Zm91.66,49.01a58.756,58.756,0,0,0-6.77.04c-8.03.94-14.65-1.5-21-5.95-11.3-7.92-24.67-12.07-37.93-16.3a8.009,8.009,0,0,0-3.26-.14,79.8,79.8,0,0,0-15.1,1.29,64.337,64.337,0,0,0-27.19,12.65c-3.53,2.83-17.01,13.39-21.19,27.46a22.716,22.716,0,0,1-5.4,10.34c-3.09,3.19-6.14,4.11-5.81,5.33.4,1.46,5.24,1.67,13.35,2.81a5.51,5.51,0,0,1,.74.13c1.15.3,2.33,1.19,11.4,5.23,2.14.95,4.24,1.97,6.42,2.84,5.93,2.36,11.95,4.54,17.82,7.01a19.152,19.152,0,0,0,13.29.8c10.44-3.19,20.96-6.3,31.02-10.34,3.85-1.55,6.9-5.27,9.67-8.46,4.71-5.43,5.16-6.5,9.67-11.64a98.741,98.741,0,0,1,22.51-18.69C1424.483,1213.54,1427.2,1212.07,1429.1,1211.09Zm19.66,4.7c-16.06-3.73-33.17,6.96-41.77,16.17-5.12,5.48-4.62,8.03-11.58,15.63-4.4,4.8-4.27,9.69-2.53,15.01.77,2.37,1.92,4.63,3.4,8.15,2.88-3.9,5.16-6.5,6.84-9.39a31.5,31.5,0,0,1,11.52-11.83,58.969,58.969,0,0,0,21.16-20.5,23.2,23.2,0,0,1,13.57-10.33c1-.31,1.93-.77,3.77-1.51A28.9,28.9,0,0,0,1448.763,1215.79Zm11.01,5.79a35.383,35.383,0,0,0-11.51,4.17c-5.21,3.04-9.28,7.94-17.2,17.63-2.81,3.44-4.21,5.15-4.93,6.25a44.4,44.4,0,0,0-7.26,21.44c-.76,10.06-1.07,20.17-1.09,30.26-.02,10.32-4.29,19.63-7.88,29.18.97-4.22,1.74-8.48,2.96-12.64,3.08-10.54,2.36-21.21,1.89-31.91a51.023,51.023,0,0,1,.89-9.91c1.11-7.2,2.4-14.38,3.69-22.03-5.8,2.32-8.01,7.02-10.99,10.95-3.92,5.19-7.54,10.59-11.1,16-3.23,4.92-6.42,9.88-9.27,14.99-7.53,13.52-8.92,27.92-6.8,42.75.36,2.55.86,5.08,1.17,7.63.72,5.88,4.09,8.95,5.96,12.06,6.63,11.01,5.69,21.53,7.39,21.44,1.94-.11.23-13.64,6.94-16.82,1.57-.74,4.35-1.83,9.47-.62,8.84,2.1,15.7-.88,21.89-6.08,6.15-5.16,10.21-11.77,14.21-18.34,7.48-12.28,8.67-25.47,6.44-39.16a47.321,47.321,0,0,1-.31-9.45c.69-18.38-10.04-23.48-11.12-39.8-.32-4.8-.57-9.46,1.9-14.7C1448.883,1226.96,1456.293,1223.11,1459.773,1221.58Zm-11.11,18.8a15.005,15.005,0,0,0,.06,6.14c2.78,12.89,10.82,25.71,11.24,33.2.55,9.85,2.35,19.67,2.47,29.52.14,11.15-2.14,21.94-8.2,32.02-5.14,8.57-10.4,16.88-18.78,22.83,4.51,9.82,9.43,19.12,13.05,28.82a248.772,248.772,0,0,1,9.2,30.93,322.879,322.879,0,0,1,6.13,34.55c1.6,13.39,2.12,26.88,3.16,40.33.53,6.92.66,13.91,1.91,20.72.86,4.67,2.57,7.64,5.15,13.37a118.844,118.844,0,0,0,12.76,22.67c3.18,4.38,5.87,7.29,11.23,13.12,6.88,7.47,7.99,7.72,8.53,7.47,1.85-.85-.99-8.4-3.12-19.11-1.6-8.04-.54-7.46-3.18-40.29-.87-10.87-1.55-18.57-1.95-23.11-1.92-21.3-3.44-44.61-6.49-91.24-.52-7.99-.42-9.14-.83-11.86-3.12-20.46-4.84-32.38-7.65-48.18-3.96-22.26-1.25-17.25-5.53-42.84-1.96-11.69-2.05-11.78-2.59-14.59-.63-3.29-2.64-13.7-4.51-26.36-1.7-11.46-2-15.97-3.49-20.23a37.4,37.4,0,0,0-1.64-3.77c-1.94-3.99-2.91-5.99-4.15-6.47C1457.883,1226.64,1450.2,1232.88,1448.663,1240.38Zm-38.75-132.13c-4.83-.49-8.22,2.18-11.45,4.7-8.77,6.84-9.31,7.73-12.25,18.02-.55,1.93-.31,4.04-.43,6.07.52.18,1.04.36,1.57.54,7.71-6.62,18.12-6.87,27.49-10.41.24-4.31.6-8.98.71-13.66C1415.623,1110.31,1413.593,1108.62,1409.913,1108.25Zm17.17-25.69c2.25-5.58,1.06-11.01-1.51-16.48-7.01,7.89-8.58,17.23-10,26.59-.35,2.31-.4,4.77,2.94,6.52,1.63-2.95,3.21-5.68,4.65-8.48C1424.553,1088.03,1425.963,1085.34,1427.083,1082.56Zm-65.67-452.5c-.58.33,6.79,10.65,13.49,29.5a115.255,115.255,0,0,1,5.82,21,163.3,163.3,0,0,1,1.87,25.92h0c-1.14,7.84-2.61,15.65-3.94,23.47-1.77,10.34-.27,20.62,1.13,30.83a254.614,254.614,0,0,0,5.47,29.87c3.96,15.23,8.87,30.25,13.34,45.36,4.18,14.15,8.61,28.24,12.41,42.48,3.74,14.05,6.73,28.26,10.23,42.37,2.64,10.62,5.74,21.15,8.32,31.79,3.23,13.3,4.12,29.34,10.08,52.02.77,2.92,2.22,8.3,3.1,8.18,2.12-.29-1.52-32.74.96-57.49a31.994,31.994,0,0,1,.44-4.74c1.8-9.08.92-18.15.24-27.25-.43-5.8.03-6.52.01-11.3-.01-3.86-.08-23.5-1.73-40.13-.74-7.42-4.38-24.31-11.67-58.07-.67-3.09-2.2-10.2-4.08-19.82-1.25-6.42-2.48-12.86-3.54-19.31-2.67-16.21-9.23-31.26-15.43-46.51-10.28-25.28-10.42-30.86-13.67-40.03-.8-2.07-1.9-4.8-3.27-8C1378.283,650.63,1362.253,629.58,1361.413,630.06Zm398.74,301.22c-2.85,5.74-4.51,9.94-5.85,13.16,0,0-2.21,5.31-9.13,19.55-12.39,25.51-30.23,50.39-30.23,50.39-10.84,15.12-17.45,21.84-24.25,30-3.37,4.05-7.73,7.39-11.21,11.38a115.416,115.416,0,0,0-9.55,12.67c-5.44,8.32-11.34,16.49-15.61,25.3a217.986,217.986,0,0,0-12.93,32.95c-4.81,16.3-13.71,30.22-25.32,43.07-5.49,6.08-10.13,12.8-15.05,19.29-5.19,6.84-10.2,13.79-15.39,20.63a130.877,130.877,0,0,0-14.41,23.13c-4.73,10-9.93,19.83-14.38,29.93a213.273,213.273,0,0,0-13.01,40.45c-1.64,7.54-1.51,15.39-2.81,23.01-2.05,12.04-4.19,18.26-4.88,20.24a125.907,125.907,0,0,1-7.72,17.25c-4.03,8.13-7.05,16.97-6.36,17.28.51.24,3.16-4.32,6.8-10.41,1.2-2.01,13.02-21.75,22.92-36.69,2.8-4.22,8.68-10.66,14.27-20.48,4.34-7.62,10.15-14.19,15.34-21.21a99.792,99.792,0,0,0,7.29-11.91c16.62-28.6,37.56-57.85,49.62-79.19.8-1.41,1.81-4.71,4.82-8.29a81.185,81.185,0,0,0,10.76-16.81c1.94-3.96,4.67-7.59,6.95-11.4,7.48-12.5,15.02-24.97,22.35-37.54,3.96-6.78,7.51-13.77,11.33-20.62q2.8-5.025,5.92-9.9c9.81-15.45,18.56-36.56,20.69-41.53,16.33-38.12,26.79-66.86,27.34-66.67h0q1.74-5.625,3.48-11.26c5.62-18.24,8.73-25.98,12.17-39.5,1.45-5.71,4.46-17.54,3.11-17.99C1766.133,919.21,1762.593,926.36,1760.153,931.28Zm-189.96,601.75a37.29,37.29,0,0,0-6.91,17.18c-.87,6.69-1.97,13.47-1.66,20.15.32,6.84,1.22,13.8,4.69,20.17,1.64,3.02,2.15,5.44,3.19,7.8,9.7,21.84,13.82,32.83,20.48,42.75a49.409,49.409,0,0,0,7.49,9.29c3.32,3.14,4.42,3.18,6.18,5.58,3.98,5.42,3,11.53,4.02,11.58.48.02,1.2-1.29,2.29-7.07a20.333,20.333,0,0,1,.8-5.38c.77-2.66,2.36-6.05,8.38-12.01,6.66-6.6,7.64-6.6,11.48-10.46,2.83-2.85,4-6.42,4.49-10.32.91-7.28,2.58-14.5,3.3-21.79.5-5.1.06-10.3-.17-15.44-.32-7.35-.98-14.67-4.37-21.5a31.723,31.723,0,0,0-2.82-5.35,100.064,100.064,0,0,0-26.75-24.81,17.5,17.5,0,0,0-5.37-2.03c-7.15-1.57-14.35-2.96-20.82-6.41a3.474,3.474,0,0,0-1.57-.1C1574.093,1527.99,1572.053,1530.46,1570.193,1533.03Zm-38.53-33.89c-6.94,3.72-11.33,9.62-10.73,10.32.8.92,8.76-9.24,22.05-10.5a42.844,42.844,0,0,1,24.38,5.45c4.32,2.54,10.48,7.36,11.34,10.53a6.086,6.086,0,0,0,1.43,2.64,6.945,6.945,0,0,0,3.21,1.8c2.68.77,5.33,1.84,8.08,2.12a44.552,44.552,0,0,1,26.1,12.02c8.15,7.44,15.63,15.39,21.15,24.72,1.03,1.74,2.32,3.52,2.65,5.4.39,2.28,4.82,8.22,10.67,12.11,11.51,7.65,26.78,3.13,29.23,2.41a105.485,105.485,0,0,0,10.86-4.03c4.09-2.65,7.05-2.83,9-2.5,1.88.32,4.14,1.33,7.49,2.83,2.96,1.32,4.12,2.04,4.58,1.61.69-.64-1.29-2.89-2.5-6.46-1.34-3.97-.45-5.73-.83-10.09a30.667,30.667,0,0,0-3.83-12.13c-2.48-4.45-6.68-9.2-9.15-12.91-.79-1.18-1.35-2.18-1.49-2.45-.9-1.66-1.16-2.63-4.04-7.49-8.21-13.83-13.19-17.11-16.43-20.54-2.65-2.81-7.08-4.59-11.08-5.84a143.578,143.578,0,0,0-18.81-4.27c-7.85-1.33-15.76-2.49-23.71-3.13-9.69-.78-18.15,2.19-25.79,7.84-5.13,3.8-10.96,6.81-16.77,10.35a10.348,10.348,0,0,1-2.17-1.83,25.41,25.41,0,0,0-6.49-6.58c-5.19-3.59-13.53-4.83-18.2-4.94C1546.6,1495.5,1539.273,1495.06,1531.663,1499.14Zm444.99-9.74c-6.02,7.74-14.45,12.31-23.91,15.7-15.3,5.47-30.75,10.66-45.71,16.83-15.95,6.58-32.33,12.55-46.9,21.62-21.06,13.12-41.54,26.96-61.74,41.22-26.54,18.73-52.86,37.81-81.45,54.03-16.56,9.4-32.27,19.96-46.19,32.61-9.2,8.37-18.95,16.24-28.02,24.73-11.76,11.01-23.23,22.29-34.52,33.72-3.58,3.62-6.38,7.95-9.15,12.17-9.14,13.92-18.42,27.77-27.01,41.98-4.17,6.9-6.64,14.65-10.37,21.8-3.8,7.29-8.17,15.93-14.25,25.35-12.12,18.79-23.06,28.72-22.16,29.56.72.67,8.28-5.25,14.99-12.47,6.82-7.34,10.46-13.98,12.04-15.98a466.98,466.98,0,0,1,32.46-37.65c10.89-11.14,23-20.92,35.45-30.43,12.26-9.37,25.18-18.1,36.75-28.13,15.18-13.16,32.54-23.57,48.88-35.26,15.58-11.14,32.18-20.63,48.99-30.01,11.04-6.16,21.35-13.48,31.67-20.66q17.31-12.045,33.98-24.85c6.27-4.83,11.62-10.66,17.82-15.58,14.07-11.14,27.88-22.64,42.86-32.66,7.36-4.92,13.34-11.04,20.3-16.24,8.26-6.17,14.02-11.02,16.09-12.63,4.75-3.71,10.92-8.55,18.89-14.9a208.638,208.638,0,0,0,22.06-20.09,205.745,205.745,0,0,0,20.66-25.52A10.468,10.468,0,0,0,1976.653,1489.4Zm-548.14,465.69c-.91,12.33-1.4,10.41-1.34,15.21.35,27.45,15.57,30.66,14.51,52.12-.34,6.9-3.13,30.92-3.39,33.54,0,.02-.02.19-.04.42-.06.54-.15,1.42-.29,2.51-.15,1.21-.36,2.68-.64,4.34a123.872,123.872,0,0,1-3.42,14.5c-12.46,43.04-18.69,64.56-32,105.05-1.79,5.45-2.67,8.18-3.65,11.33-1.49,4.77-2.2,7.3-3.24,10.44-1.33,4.01-2.45,6.89-2.8,7.82-4.55,12.05-15.5,47.55-27.28,79.54-10.1,27.43-15.15,41.14-21.63,56.12-4.95,11.44-11.72,26.26-9.57,27.46.86.48,2.42-1.65,7.07-5.65,10.04-8.63,14.31-8.58,24.51-17.4,2.71-2.35,5.39-3.36,6.52-6.2,4.43-11.17,9.11-22.28,12.97-33.63,3.53-10.4,6.24-21.05,9.09-31.63,1.76-6.54,3.01-13.19,4.66-19.75,4.14-16.42,8.42-32.81,12.55-49.23,3.45-13.69,6.68-27.43,10.18-41.12,1.97-7.72,4.49-15.32,6.42-23.05,4.06-16.21,7.87-32.48,11.84-48.71,1.98-8.13,4.09-16.23,6.12-24.35q4.14-16.515,8.24-33.05c3.62-14.5,7.32-28.98,10.81-43.51,2.53-10.53,2.36-11.67,5.01-23.32,3.91-17.13,5.86-25.7,8.16-31.22,5.01-12.02,6.62-8.73,17.42-29.28,0,0,6.51-12.42,13.15-22.5,1.38-2.09,2.71-4.01,4.13-5.91q.585-.8,1.53-2.01c5.33-6.88,12.44-14.18,12.44-14.18s7.93-8.15,26.92-25.09a.138.138,0,0,1,.04-.03c.17-.15.86-.77.84-.78h0c7.22-6.75,11.5-11.62,15.83-15.45,6.82-6.02,14.1-11.61,21.36-17.19,13.78-10.59,29.74-17.32,46.78-22.29,10.69-3.12,21.14-6.96,31.68-10.51,7.09-2.39,14.16-4.84,21.25-7.25,14.38-4.88,28.73-9.85,43.17-14.59,8.32-2.73,17.02-4.6,25.15-7.73,12.71-4.89,26.2-8.44,37.11-16.73,6.32-4.8,12.86-9.39,18.84-14.52,3.91-3.35,7.09-7.44,10.4-11.34,5.84-6.87,11.65-13.77,17.24-20.81,4.82-6.09,9.39-12.35,13.92-18.62,5-6.94,9.34-14.34,14.87-20.89,4.73-5.6,10.61-10.42,16.25-15.33,10.54-9.19,19.46-19.62,28.3-30.13,2.24-2.66,3.93-5.7,6.11-8.4,4.1-5.09,8.61-9.92,12.53-15.13,9.32-12.39,18.75-24.72,27.41-37.5,4.3-6.34,7.07-13.57,10.38-20.46q6.675-13.86,13.11-27.83a118.026,118.026,0,0,0,5.86-15.02c-3.84,1.25-5.39,4.3-6.66,7.17-5.91,13.37-14.29,18.72-18.31,24.33-14.03,19.55-32.04,28.21-54.37,46.83-1.72,1.44-3.72,3.1-3.72,3.1-2.63,2.2-6.48,5.41-10.95,9.17-9.31,7.82-18.62,15.63-28.1,23.27-9.73,7.84-20.1,15-29.97,22.69-5.92,4.62-11.32,9.79-17.15,14.51-8.75,7.09-17.29,14.47-26.61,20.88-13.32,9.15-27.15,17.68-40.99,26.16-7.72,4.72-15.86,8.87-23.89,13.15-15.23,8.12-28.42,18.79-42.44,28.41-17.33,11.88-33.97,24.53-50.07,37.81-9.8,8.08-20.37,15.37-30.3,23.32-13.25,10.61-24.48,23-35.55,35.45-5.85,6.57-10.9,13.74-16.36,20.6-12.04,15.15-12.49,15.78-14.15,17.71-10.93,12.67-15.06,13.94-25.92,24.93-18.65,18.88-23.89,32.77-27.46,31.49-3.52-1.26-.75-16.72,1.54-28.1,12.95-64.42,19.49-96.95,20.78-112.82.71-8.67,2.95-41.61,3.68-52.24.49-7.12.81-14.24,1.46-21.35.52-5.72,1.56-11.39,2.09-17.11.35-3.74.25-7.52.3-11.28.14-11.89.66-23.79.25-35.67-.29-8.49-1.93-16.93-2.78-25.4a70.138,70.138,0,0,1-.32-7.77c-.03-1.73-.09-2.89-.12-3.49-.2-4.92-.11-21.65-.42-30.83-.62-18.71-1.45-35.99-1.53-36.87-1.43-15.91-3.28-24.21,2.39-31.19a29.485,29.485,0,0,1,9.38-7.08c9.95-5.02,17.89-8.28,20.4-9.02,11.91-3.51,33.18-10.94,61.85-21.16-42.67,10.59-64.5,17.69-75.52,22.69-3.02,1.37-13.9,6.51-17.24,3.07-1.25-1.29-.91-3.33-.9-4.21.14-13.68.14-27.38-.52-41.05-.43-8.97,3.51-16.6,6.84-24.52,4.64-11.05,12.45-20.35,19.28-30.23,4.52-6.53,8.25-13.56,14.2-19.1,11.38-10.6,22.99-20.98,34.6-31.37,7.56-6.77,15.5-13.2,22.87-20.14,8.75-8.23,16.99-16.91,25.63-25.23,7.58-7.31,16.03-13.94,23-21.7,11.38-12.67,24.4-24.32,32.19-39.41a319.276,319.276,0,0,0,19.33-45.42c5.62-16.88,11.35-33.74,17.38-50.5,5.76-16.01,12.12-31.81,21.42-46.5a53.2,53.2,0,0,0,5.85-13.79c4.93-17.26,9.92-34.52,14.06-51.95,3.2-13.46,2.21-27.21,1.48-40.92-.68-12.88-.58-25.79-.84-38.69-.05-2.5-.22-5-.34-7.49-.46-.06-.91-.13-1.37-.19-1.56,4.3-3.37,8.54-4.64,12.91-5.79,19.93-9.87,33.81-11.64,40.85-3.67,14.64-10.54,30.32-24.27,61.69-6.06,13.83-12.67,27.53-21.59,45.85-8.03,16.49-17.65,32.23-27.41,47.91-15.44,24.81-30.14,50.02-45.28,74.99-7.25,11.96-14.6,23.88-22.25,35.63q-19.8,30.39-40.04,60.53c-8.8,13.18-17.87,26.21-26.68,39.38-1.57,2.34-2.34,5.12-3.77,7.56-4.6,7.87-8.25,13.54-9.61,15.48-12.38,17.67-15.22,31.85-19.5,31.4-4.74-.49-6-18.36-7.58-32.67-1.7-15.4-3.48-22.99-3.72-24.82-3.02-22.58-5.62-24.71-12.42-57.98-6.55-32.03-5.32-35.83-11.65-59.76-4.82-18.2-5.65-16.47-7.89-27.85-3.69-18.74-3.97-36.46-6.1-53.64-2.2-17.73-1.55-16-3.31-28.29-.78-5.47-1.16-8.21-2.04-13.84-1.54-9.84-3.53-30.17-4.69-51.56-.94-17.36-1.27-26.05-.94-35.19.72-20.02,3.3-30.52,5.95-38.26,2.08-6.08,2.03-4.85,4.95-12.36,5.14-13.24,4.21-15.78,9.42-32.55,5.45-17.53,7.93-16.11,11.37-31.51,2.39-10.67,4.82-21.36,6.51-32.14,1.82-11.66.91-23.35-1.39-34.94-3.22-16.24-8.73-31.91-13.8-47.71-3.46-10.81-5.51-22.01-7.77-33.12-4.81-23.59-14.9-44.84-33.5-61.99-12.47-11.49-14.45-10.8-36.21-30.69a397.729,397.729,0,0,1-31.22-31.92c4.2,6.39,9.14,14.39,14.28,23.84,5.11,9.4,10.11,16.82,13.4,27.59,4.66,15.27,9.85,30.4,14.91,45.56a73.208,73.208,0,0,0,3.71,8.89c8.45,17.31,13.35,35.52,17.03,54.11,2.77,14.01,6.34,27.9,9.35,41.87,1.43,6.61,2.7,13.28,3.49,19.97,1.84,15.57,4.06,31.14,4.8,46.77.72,15.25-.1,30.56-.43,45.84-.25,11.5-.83,22.99-1.18,34.49-.02.77-.11,7.59-.11,13.67.04,34.44,3.62,49.35,3.94,89.19.07,9.08-.12,7.37.02,10.09,1.43,28.22,13.36,42.55,8.3,60.97-.32,1.17-1.5,5.32-3.44,5.45-2.24.16-4.05-5.06-11.37-22.43a120.8,120.8,0,0,0-5.86-12.54c-2.7-5.13-7.34-8.59-11.01-12.88-.4.22-.8.45-1.19.67a31.634,31.634,0,0,0,1.39,3.41c7.99,14.8,13.6,25.96,15.43,28.8,11.79,18.22,10.84,36.94,27.96,89.61a98.475,98.475,0,0,1,3.5,11.4c2.88,13.19,7.05,26.16,7.97,39.71.31,4.5,2.13,8.9,2.75,13.41,1.02,7.47,1.54,14.99,2.42,22.48.83,7.08,1.54,14.18,2.84,21.19,3.92,21.13,7.21,42.3,8.2,63.75.08,1.77.92,12.04,2.43,32.6,3.61,49.35,3.37,49.74,4.5,60.26,0,0,1.42,12.96,2.36,26.63,1.17,17.06.47,15.82,1.36,26.57,1.68,20.25,4.99,33.94,2.67,34.61-1.12.32-2.21-2.83-8.9-8.92-2.05-1.86-2.59-2.15-4.51-3.87a107.751,107.751,0,0,1-9.54-10.34c-3.18-4.1-11.13-15.83-21.55-32.56-5.03-11.08-6.1-22.75-6.2-34.74a279.316,279.316,0,0,0-2.49-33.17c-1.75-13.57-3.89-27.13-6.72-40.54a241.814,241.814,0,0,0-8.53-29.22c-1.81-5.22-5.15-9.98-7.6-15.03-1.73-3.56-3.12-7.26-4.89-11.44a42.075,42.075,0,0,1-5.54,1.26c-3.6.37-7.24.51-10.87.61-2.48.07-6-1.06-7.24.04-2.45,2.2-3.95,5.48-5.27,8.51-1.1,2.53-1.19,5.42-2.16,8.01-.4,1.08-1.94,2.55-2.91,2.52-1.42-.05-3.69-1.05-4.02-2.07a34.332,34.332,0,0,1-1.94-10.45c.05-4.95-1.84-8.56-5.64-12.06a25.807,25.807,0,0,1-6.74-9.87c-4.81-13.62-5.37-27.6-2.71-41.69a53.186,53.186,0,0,1,8.79-20.95c1.63-2.33,3.52-4.62,4.56-7.18a20.3,20.3,0,0,0,1.76-8.53,34.549,34.549,0,0,0-2.53-9.8c-1.77-4.73-4.45-5.83-9.54-4.21-6.13,1.95-12.16,4.14-18.31,6.03a88.815,88.815,0,0,1-12.42,3.11c-3.98.61-8.1.46-12.55.67-.24,3.91,1.57,7.31,3.45,10.53,8.67,14.9,15.27,30.63,22.31,46.17,2.14,4.73,3.25,9.85,5.19,14.67,4.19,10.4,8.22,20.88,13.08,31.03,4.07,8.5,9.07,16.64,13.94,24.8,3.52,5.9,7.85,11.4,11.16,17.39,5.46,9.88,10.38,20.01,15.55,30.03,1.94,3.76,4.11,7.43,5.89,11.25,7.21,15.5,13.91,31.21,21.6,46.5,5.71,11.35,11.44,22.45,18.86,32.56,1.36,1.85,5.41,7.26,10.27,15.05,2.82,4.53,4.96,8.33,6.31,10.82h0c4.06,4.72,10.42,11.71,19.51,21.37a17.064,17.064,0,0,0,1.6,2.58c9.53,11.04,8.56,24.01,8.12,36.89-.37,10.69-.77,21.38-.96,32.08-.28,16.03-.39,32.07-.58,48.11-.03,2.78,0,5.55-.17,8.32a17.869,17.869,0,0,1-2.09,8.21c-1.13,2.05-1.96,3.58-3,3.69-3.52.37-7.03-15.79-11.45-27.23-10.88-28.14-33.61-44.18-34.07-43.81-.39.32,14.67,13.01,27.04,36.74a141.83,141.83,0,0,1,16.01,57.62,139.338,139.338,0,0,1-1.82,30.62c-1.51,8-3.55,15.92-5.63,23.82-2.53,9.61-5.6,19.1-7.97,28.73-3.09,12.52-5.65,25.15-8.58,37.7-2.44,10.45-5.45,20.79-7.53,31.29-1.77,8.93-2.56,18.02-3.82,27.03-.69,4.9-1.16,9.85-2.29,14.67-3.32,14.23-4.48,14.91-7.31,28.95-.84,4.17-1.39,7.61-2.46,12.03-.37,1.53-.79,3.11-1.47,5.5-3.58,12.55-5.37,18.83-6.86,18.98-3.73.37-8.93-16-11.01-27.93a106.309,106.309,0,0,1-1.45-13.48c-.32-6.68.06-13.38.69-22.58.68-9.85,1.51-19.66,4.14-29.36,1.96-7.23,2.43-14.86,2.96-22.34.83-11.67,1.92-23.39,1.46-35.04a114.418,114.418,0,0,0-6.96-34.97,272.959,272.959,0,0,0-29.71-57.38c-3.49-5.24-6.66-10.68-10.54-15.67-8.49-10.9-18.32-20.83-31.42-27.01-6.18-2.91-13.54-4.07-20.52-5.1-8.74-1.29-17.65-1.52-26.46-2.42-3.41-.35-6.76-1.25-10.14-1.91-1.62-.32-3.24-.67-6.52-1.35,2.53,3.57,4.06,6.11,5.98,8.37,12.6,14.84,24.56,30.22,38.16,44.26,12.82,13.22,24.42,27.27,36.52,40.98,4.88,5.53,8.67,11.86,13.32,17.58,9.66,11.89,16.08,25.34,22.27,38.83a124.929,124.929,0,0,1,10.89,43.27A362.6,362.6,0,0,1,1428.513,1955.09Zm-143-204.81c7.97,6.51,11.95,9.77,16.73,13.52,16.78,13.17,21.18,15.22,30.61,24.55,2.73,2.7,1.41,1.59,7.09,7.45,13.11,13.52,17.27,16.49,24.05,24.46,3.05,3.58,5.36,7.28,10.49,14.11a356.971,356.971,0,0,1,21.59,32.84c17.13,29.31,27.52,81.66,28.74,87.99.48-4.15,1.1-10.18,1.59-17.76.05-.78.1-1.17.1-1.62.05-17.47-.42-29-.42-29a159.7,159.7,0,0,0-21.42-68.54c-6.15-10.58-12.99-18.91-26.68-35.56-7.1-8.64-12.47-15.6-19.43-22.78-7.72-7.96-14.67-16.54-21.98-24.84-3.52-4-7.16-7.91-10.64-11.94-4.81-5.58-9.43-11.3-14.29-16.85-5.39-6.16-10.95-12.2-16.43-18.3-.55-.61-1.05-1.26-.99-1.19-6.3-1.92-11.85-3.52-17.33-5.29a65.477,65.477,0,0,0-19.64-3.56,88.345,88.345,0,0,1-12.88-1.17c-9.13-1.43-18.07-1.55-27.38,2.59,2.74,1.4,7.37,3.86,12.9,7.25,6.17,3.78,13.09,8.52,39.43,30.28C1276.354,1742.71,1278.354,1744.43,1285.514,1750.28Zm-240.65,52.5c8.85-3.65,17.6-7.51,26.57-10.89,3.33-1.25,7.31-.99,10.72-2.12,9.12-3.02,18.36-5.94,27.05-9.83a84.862,84.862,0,0,1,23.36-6.83c13.4-1.82,26.8-3.75,40.54-2.93a129.04,129.04,0,0,0,40.93-4.05c8.47-2.25,16.63-5.53,23.61-10.76,7.64-5.71,15.3-11.4,23.38-17.42-1.12-1.92-3.17-3.2-6.07-3.85a153.384,153.384,0,0,0-47.56-3.53,89.239,89.239,0,0,0-18.72,4.19c-11.18,3.55-22.16,7.64-33.21,11.51-.61.21-1.2.46-1.78.72q-20.28,9.255-40.55,18.51c-9.63,4.39-19.07,9.06-29.34,12.32-6.88,2.18-13.25,5.81-19.66,9.09-10.73,5.49-21.33,11.2-31.94,16.88a51.425,51.425,0,0,0-4.8,3.27C1034.094,1807.49,1039.444,1805.02,1044.864,1802.78Zm-21.6,2.94a68.457,68.457,0,0,1,9.28-6.34c8.92-4.79,18.3-8.91,26.98-14.03,11.03-6.51,23.51-9.99,35.15-15.18q16.62-7.41,33.34-14.63c12.89-5.56,25.7-11.32,38.81-16.41a194.55,194.55,0,0,1,26.93-8.41,97.346,97.346,0,0,1,22.4-2.39c10.97.11,21.93,1.34,32.9,2.06.36.02.76-.29,2.04-.83-1.9-1.6-3.47-3.07-5.2-4.37-2.84-2.12-5.88-4.03-8.67-6.21-16.81-13.11-36.19-17.91-57.93-15.18-4.08.51-8.14,1.08-12.21,1.65a80.783,80.783,0,0,0-25.04,7.73c-10.85,5.37-21.72,10.6-32.07,16.8a161.232,161.232,0,0,0-37.26,30.2,143.281,143.281,0,0,1-32.13,26.58,93.817,93.817,0,0,0-17.75,13.77c-2.87,2.86-6.14,5.39-10.29,9A16.126,16.126,0,0,0,1023.264,1805.72Z" transform="translate(-1000.01 -611.861)" fill="#cfd1c6"/>
      </g>
      <g id="Group_8" data-name="Group 8" transform="translate(368.653 1011.959)">
        <path id="Path_6" data-name="Path 6" d="M1624.13,1624.43a28.858,28.858,0,0,1,7.22,2.54,74.008,74.008,0,0,0-31.7,2.41C1602.86,1627.4,1612.59,1622.02,1624.13,1624.43Z" transform="translate(-1599.65 -1623.82)" fill="#cfd1c6"/>
      </g>
      <g id="Group_9" data-name="Group 9" transform="translate(607.583 939.173)">
        <path id="Path_7" data-name="Path 7" d="M1378.457,1571.14c-4.82-9.82-8.32-19.81-7.66-20.1.5-.21,3.29,5,6.04,10.12a197.549,197.549,0,0,1,13.12,29.72c1.94,5.33,2.34,11.29,2.46,16.98a45.038,45.038,0,0,1-9.84,26.7c-3.44,4.26-8,8.16-8.3,7.91-.15-.13.83-1.41,2.68-3.98,2.1-2.9,4.08-5.89,6.13-8.82a45.628,45.628,0,0,0,7.1-20.17c1.21-13.05-4.63-24.47-9.39-33.76C1380.067,1574.27,1379.567,1573.4,1378.457,1571.14Z" transform="translate(-1370.717 -1551.034)" fill="#cfd1c6"/>
      </g>
      <g id="Group_10" data-name="Group 10" transform="translate(576.023 937.989)">
        <path id="Path_8" data-name="Path 8" d="M1406.186,1587.53c.59,9.63,4.7,18.99,8.57,29.02,4.83,12.51,9.68,19.75,9.19,20.01s-5.78-6.61-10.22-15.48c-5.84-11.68-8.95-22.4-9.97-31.86-.66-6.05-2.42-12.01-3.79-18-.75-3.29-2.04-6.51-2.51-9.83-.55-3.81-.46-7.69-.65-11.54,1.24,9.57,4.03,18.71,7.07,27.83A39.278,39.278,0,0,1,1406.186,1587.53Z" transform="translate(-1396.806 -1549.85)" fill="#cfd1c6"/>
      </g>
      <g id="Group_11" data-name="Group 11" transform="translate(586.393 931.519)">
        <path id="Path_9" data-name="Path 9" d="M1401.581,1543.38c8.53,8.48,14.67,29.53,10.89,37.2C1412.4,1567.31,1406.071,1555.57,1401.581,1543.38Z" transform="translate(-1401.581 -1543.38)" fill="#cfd1c6"/>
      </g>
      <g id="Group_12" data-name="Group 12" transform="translate(604.103 888.378)">
        <path id="Path_10" data-name="Path 10" d="M1347.42,1505.79c8.05,2.5,15.53,6.94,22.74,11.25,11.86,7.1,20.62,16.76,25.74,28.98-2.27-2.38-4.82-4.6-6.66-7.24-6.7-9.62-14.23-18.41-25.66-23.67-6.55-3.01-12.87-6.95-19.82-8.62-10.37-2.5-21.2-3.36-31.83-4.94a24.781,24.781,0,0,1-2.5-.64C1322.79,1498.79,1335.32,1502.04,1347.42,1505.79Z" transform="translate(-1309.43 -1500.239)" fill="#cfd1c6"/>
      </g>
      <g id="Group_13" data-name="Group 13" transform="translate(652.723 950.639)">
        <path id="Path_11" data-name="Path 11" d="M1346.96,1569.52c-9.87-.17-19.48-1.29-27.86-7.02q14.085,2.925,28.18,5.86C1347.17,1568.74,1347.07,1569.13,1346.96,1569.52Z" transform="translate(-1319.1 -1562.5)" fill="#cfd1c6"/>
      </g>
      <g id="Group_14" data-name="Group 14" transform="translate(627.633 913.639)">
        <path id="Path_12" data-name="Path 12" d="M1342.379,1535.7c.94.63,3.69,2.23,9.15,5.45,4.77,2.81,7.16,4.22,8.32,4.84,7.19,3.86,12.6,5.66,12.52,5.87s-4.44-.91-9.46-2.98c-2.47-1.02-4.52-2.03-16.99-9.55-6.52-3.93-7.68-4.69-9.36-6.26a62.628,62.628,0,0,1-6.66-7.57l.11.11A78.817,78.817,0,0,0,1342.379,1535.7Z" transform="translate(-1329.899 -1525.5)" fill="#cfd1c6"/>
      </g>
      <g id="Group_15" data-name="Group 15" transform="translate(410.073 655.129)">
        <path id="Path_13" data-name="Path 13" d="M1589.754,1306.05a93.488,93.488,0,0,1-10.65,34.14c-4.07,7.41-10.66,12.39-19.03,15.34-1,.35-2.38-.18-3.58-.3,8.62-3.11,19.5-11.69,21.83-18.23,2.4-6.75,4.67-13.56,6.73-20.41,2.57-8.57,3.59-17.14-.76-25.61a28.824,28.824,0,0,1-2.32-6.81c-1.28-5.54-2.35-11.12-3.51-16.68.55-.17,1.1-.33,1.65-.5,1.37,1.54,1.6,3.64,2.12,5.55,1.84,6.72,3.1,13.62,5.59,20.13A27.68,27.68,0,0,1,1589.754,1306.05Z" transform="translate(-1556.494 -1266.99)" fill="#cfd1c6"/>
      </g>
      <g id="Group_16" data-name="Group 16" transform="translate(388.415 682.599)">
        <path id="Path_14" data-name="Path 14" d="M1603.278,1328.73c.04,5.68,1.11,11.35,1.72,17.02a9.854,9.854,0,0,1-3.83-8.99c.3-4.13.67-8.28.56-12.42-.23-8.88,2.68-17.1,5.96-25.24.69-1.72,2.37-3.1,3.6-4.64l.3.63c-2.28,5.52-5.2,10.89-6.64,16.59A67.747,67.747,0,0,0,1603.278,1328.73Z" transform="translate(-1601.13 -1294.46)" fill="#cfd1c6"/>
      </g>
      <g id="Group_17" data-name="Group 17" transform="translate(311.483 617.929)">
        <path id="Path_15" data-name="Path 15" d="M1675.2,1239.79c-7.71,1.72-15.66,3.29-23.55,3.49-13.06.33-26.15-.48-40.1-.84a20.679,20.679,0,0,1,11.6-2.95c9.26.44,18.51,1.07,27.77,1.18,11.6.13,22.74-1.72,32.49-8.11,1.6-1.05,3.4-1.85,5.11-2.77C1685.27,1234.69,1680.95,1238.5,1675.2,1239.79Z" transform="translate(-1611.55 -1229.79)" fill="#cfd1c6"/>
      </g>
      <g id="Group_18" data-name="Group 18" transform="translate(306.283 595.329)">
        <path id="Path_16" data-name="Path 16" d="M1653.96,1218.52c-9.03,1.08-17.02,4.13-24.85,7.93-3.81,1.85-7.56,3.82-11.33,5.74-.2-.34-.4-.68-.61-1.01,3.47-1.84,7.22-3.35,10.35-5.6,7.6-5.45,16.37-7.52,25.62-9.19,11.19-2.02,22.15-5.08,33.21-7.67,2.37-.55,4.76-1.02,7.14-1.53.08.52.15,1.04.23,1.56-.73.33-1.45.71-2.2,1C1679.49,1214.44,1666.79,1216.98,1653.96,1218.52Z" transform="translate(-1617.17 -1207.19)" fill="#cfd1c6"/>
      </g>
      <g id="Group_19" data-name="Group 19" transform="translate(347.923 585.099)">
        <path id="Path_17" data-name="Path 17" d="M1625.529,1198.74q8.28-.885,16.57-1.78,10.065,1.755,9.98,2.42Q1651.959,1200.445,1625.529,1198.74Z" transform="translate(-1625.529 -1196.96)" fill="#cfd1c6"/>
      </g>
      <g id="Group_20" data-name="Group 20" transform="translate(535.473 458.309)">
        <path id="Path_18" data-name="Path 18" d="M1464.53,1111.29c-2.35-3.7-4.69-7.74-6.95-12.13a152.508,152.508,0,0,1-11.31-28.99Q1455.405,1090.735,1464.53,1111.29Z" transform="translate(-1446.27 -1070.17)" fill="#cfd1c6"/>
      </g>
    </g>
  </g>
</svg>
