<?xml version="1.0" encoding="utf-8"?>
<!-- Generator: Adobe Illustrator 24.0.1, SVG Export Plug-In . SVG Version: 6.00 Build 0)  -->
<svg version="1.1" id="Слой_1" xmlns="http://www.w3.org/2000/svg" xmlns:xlink="http://www.w3.org/1999/xlink" x="0px" y="0px"
	 viewBox="0 0 3000 3000" style="enable-background:new 0 0 3000 3000;" xml:space="preserve">
<style type="text/css">
	.st0{fill:none;}
	.st1{fill:#45482A;}
</style>
<rect class="st0" width="3000" height="3000"/>
<g>
	<path class="st1" d="M1990.79,1462.98c-8.71-3.85-17.42-7.8-26.38-11c-15.71-5.61-32.01-9.33-46.94-17.38
		c-7.94-4.28-17.16-6.56-26.07-8.6c-9.94-2.28-20.26-2.87-30.27-4.9c-28.13-5.69-56.39-5.47-84.62-1.81
		c-19.63,2.55-39.09,6.42-58.64,9.63c-1.66,0.27-3.41,0.04-6.05,0.04c7.09-6.1,13.71-10.9,19.23-16.75
		c8.16-8.65,15.51-18.07,23.26-27.11c5.33-6.21,10.78-12.33,16.15-18.51c12.1-13.94,24.59-43.57,24.59-43.57
		c12.36-29.66,8.85-27.22,22.41-61.28c3.73-9.37,13.67-23.92,23.18-56.65c0.47-1.63,1.2-3.21,1.95-4.74
		c9.78-20.09,15.85-41.45,21.45-62.95c3-11.53-4.39-19.1-15.91-16.18c-14.31,3.62-27.98,8.96-40.82,16.41
		c-5.9,3.43-12.02,6.53-18.24,9.36c-11.18,5.09-22.53,9.82-33.77,14.78c-6.56,2.89-13,6.06-19.59,8.9
		c-17.77,7.67-33.75,18.12-47.35,31.83c-15.14,15.27-29.69,30.94-41.15,49.51c-11.45,18.56-26.36,34.88-36.58,54.38
		c-3.56,6.79-8.04,13.1-12.1,19.63c-0.75-0.17-1.5-0.34-2.25-0.5c-0.23-4.6-0.34-9.2-0.71-13.79c-0.38-4.74-0.71-9.51-1.59-14.18
		c-2.32-12.41-4.65-24.84-7.49-37.14c-3.84-16.62-7.87-33.2-12.37-49.65c-3.51-12.85-7.54-25.58-11.89-38.18
		c-5.35-15.46-11.77-30.56-16.83-46.11c-6.74-20.75-12.85-41.71-18.76-62.71c-3.71-13.18-11.84-23.68-19.41-34.56
		c-1.13-1.63-2.84-2.97-4.54-4.06c-10.57-6.81-27.53-1.63-31.34,10.81c-4.28,13.99-6.92,28.52-9.69,42.93
		c-3.54,18.4-5.83,37.07-12.02,54.86c-3.25,9.35-7.24,18.44-10.47,27.8c-2.54,7.36-4.8,14.86-6.52,22.45
		c-3.47,15.34-5.6,31.03-9.89,46.12c-7.02,24.68-13.12,49.4-13.56,75.22c-0.05,3.05-0.92,6.09-0.93,9.14
		c-0.02,6.05-0.01,12.13,0.58,18.15c0.5,5.12,2.95,10.01,2.77,15.41c-1.26-0.09-1.7,0.02-1.91-0.15c-1.59-1.28-3.16-2.58-4.69-3.92
		c-18.54-16.29-37.73-31.7-60.11-42.47c-11.66-5.61-23.91-9.97-35.55-15.62c-12.9-6.27-25.35-13.46-38.09-20.07
		c-23.36-12.13-46.7-24.32-70.23-36.12c-23.16-11.61-46.71-22.45-69.72-34.34c-6.55-3.39-13.35-4.58-20.19-6.1
		c-7.14-1.59-13.52,3.34-12.9,10.56c0.45,5.25,2.26,10.78,4.9,15.35c4.95,8.54,10.89,16.5,16.53,24.63
		c7.01,10.11,14.75,19.76,21.04,30.29c9.97,16.69,18.34,34.36,28.6,50.85c10.81,17.38,21.68,35.05,35,50.45
		c16.7,19.31,35.38,37.15,56.64,51.59c13.81,9.37,28.8,17.02,43.27,25.41c3.08,1.79,6.22,3.48,10.84,6.05
		c-3.46,1.39-4.94,2.46-6.48,2.54c-18.76,1.03-37.37,2.68-55.65,7.59c-13.14,3.53-26.63,5.77-39.95,8.61
		c-0.99,0.21-1.91,0.72-2.87,1.08c-21.45,8-42.52,17.35-64.46,23.65c-26.48,7.6-50.92,19.39-75.4,31.41c0,0,0.31,0.01,0.31,0.02
		c-31.48,18.76-54.38,33.19-59.89,37.46c-3.27,2.52-5.27,5.22-5.77,5.91c-1.94,2.73-3.36,5.81-4.24,9.22
		c-1.88,7.27-0.01,11.3,7.37,12.85c7.63,1.61,15.51,2.11,23.31,2.83c9.85,0.9,19.92,0.53,29.54,2.48
		c23.42,4.76,46.72,10.14,69.89,16.02c40.67,10.31,81.43,8,122.03,0.75c24.05-4.29,46.43-13.81,67.03-27.23
		c4.75-3.09,9.99-5.44,15-8.13c-4.23,6.9-9.65,12.28-14.62,18.05c-11.12,12.93-22.06,26.01-32.95,39.14
		c-3.26,3.93-5.92,8.34-9.14,12.31c-10.11,12.47-21.21,24.23-30.36,37.36c-19.16,27.51-32.97,58.06-47.97,87.92
		c-11.53,22.97-21.49,46.39-27.16,71.6c-3.89,17.31-5.06,34.52-0.36,51.65c1.37,5.01,4.71,9.83,8.2,13.82
		c4.29,4.91,8.99,5.14,14.8,1.74c7.12-4.17,13.4-9.12,17.49-16.77c6.15-11.51,14.22-21.57,24.24-30.19
		c14.74-12.68,28.9-26.04,43.48-38.91c7.16-6.32,14.77-12.14,22.08-18.31c11.98-10.13,25.09-19.26,35.56-30.78
		c20.19-22.21,40.24-44.61,57.02-69.76c14.59-21.87,30.71-42.73,39.99-67.73c0.83-2.25,2.88-4.04,4.37-6.05
		c1.49,14.11-2.27,26.94-5.17,39.8c-1.38,6.1-2.42,11.91-1.77,18.12c0.49,4.74,0.61,9.53,0.68,14.3c0.24,15.03-0.14,30.1,0.74,45.09
		c0.65,11.18,2.63,22.31,4.51,33.37c0.79,4.66,2.9,9.09,4.3,13.66c1.42,4.63,16.7,46.35,26.08,85.2c2.28,9.43,1.59,7.79,7.88,35.66
		c3.65,16.16,8.8,33.78,20.59,48.74c8.31,10.55,17.5,9.8,24.14-2.08c7.74-13.85,11.95-28.98,15.65-44.28
		c3.05-12.62,5.26-25.52,9.42-37.76c8.35-24.57,17.34-48.94,26.89-73.07c9.21-23.28,12.36-47.57,13.63-72.2
		c0.64-12.56-0.19-25.2-0.18-37.8c0-3.73-1.12-7.77,0.85-10.69c16.01,16.12,31.3,32.17,47.35,47.43
		c8.62,8.19,17.92,16.01,28.01,22.2c14.5,8.9,29.98,16.2,45.08,24.12c10.21,5.35,20.2,11.24,30.78,15.72
		c15.34,6.5,31.12,11.97,46.73,17.81c2.23,0.83,4.56,1.61,6.91,1.87c12.69,1.42,24.46,5.55,36.15,10.58
		c16.44,7.07,33.97,10.15,51.79,11.05c11.09,0.56,12.97-1.81,11.39-12.42c-2.69-18.15-12.05-32.96-23.29-46.93
		c-9.83-12.2-20.4-24-28.69-37.2c-16.71-26.61-31.85-54.2-48.09-81.12c-17.17-28.46-38.55-52.98-67.94-69.64
		c-6.38-3.62-12.5-7.7-18.74-11.57c5.54-1.8,10.81-1.54,16.05-1.85c13.6-0.81,27.43-0.57,40.72-3.09
		c30.18-5.72,60.03-13.08,89.28-22.61c20.74-6.75,41.25-14.21,59.55-26.37c18.6-12.36,38.86-21.4,59.12-30.47
		c5.9-2.64,12.14-4.51,18.08-7.07c6.77-2.92,11.03-8.19,11.89-15.55C2000.7,1470.5,1996.98,1465.71,1990.79,1462.98z
		 M1620.13,1303.18c6.3-10.25,19.46-20.83,35.2-48.87c11.35-20.23,26.65-37.22,44.14-52.1c12.71-10.81,26.46-20.33,42.64-25.83
		c7.07-2.4,13.58-6.41,20.45-9.45c13-5.75,26.08-11.31,39.12-16.98c2.5-1.09,5.31-1.89,7.32-3.6c10.62-9.08,23.71-11.7,36.76-14.27
		c7.7-1.52,10.17,1.75,7.75,8.87c-4.28,12.6-8.2,25.32-12.44,37.93c-8.71,25.9-20.01,50.75-30.61,75.89
		c-3.8,9.02-5.58,18.87-8.63,28.23c-2.31,7.11-4.67,14.28-7.88,21c-7.94,16.6-15.62,33.4-24.91,49.24
		c-5.62,9.57-14.47,17.19-21.16,26.21c-12.93,17.47-28.37,32.19-46.18,44.56c-2.77,1.92-4.83,4.85-7.48,6.98
		c-2.35,1.89-4.86,4.03-7.66,4.84c-27.3,7.9-53.36,18.97-79.57,29.8c-19.17,7.92-39.08,14.07-58.67,20.95
		c-1.17,0.41-2.52,0.32-5.98,0.72c3.01-2.9,4.3-4.8,6.09-5.77c19.8-10.74,39.35-22.02,59.63-31.77
		c18.87-9.07,36.91-19.14,53.18-32.38c15.6-12.7,31.9-24.57,47.14-37.69c14.79-12.73,27.27-27.66,37.75-44.27
		c20.66-32.74,33.1-68.7,42.67-105.9c3.14-12.23,7.15-24.16,14.83-34.68c3.74-5.12,5.95-11.45,8.32-17.45
		c0.72-1.84,0.45-5.26-0.79-6.39c-1.7-1.55-4.73-1.76-7.25-2.2c-0.83-0.14-1.9,0.67-2.76,1.21c-13.52,8.57-27.76,16.22-40.36,25.97
		c-17.52,13.56-33.79,28.74-50.67,43.15c-4.67,3.99-9.78,7.48-14.38,11.55c-10.48,9.3-19.08,20.21-27.01,31.73
		c-4.62,6.71-10.33,12.69-14.79,19.49c-4.1,6.24-7.09,13.2-10.72,19.75c-6.1,11-13.86,21.36-18.14,33.01
		c-6.08,16.52-14.47,31.69-24.27,45.85c-11.75,16.98-21.09,35.89-36.97,49.82c-3.04,2.67-6.24,5.23-9.61,7.45
		c-6.98,4.6-11.43,11.47-16.63,17.7c-1.18,1.42-2.83,2.44-5.45,2.64c0.69-1.34,1.3-2.72,2.09-4c9.14-14.77,17.66-29.97,27.64-44.16
		c9.46-13.45,6.3-15.21,22.35-53.56C1593.89,1353.3,1603.65,1329.98,1620.13,1303.18z M1561.91,1463.91c0.62-2.3,0.62-3.7,1.3-4.57
		c8-10.17,16.18-20.2,24.14-30.39c7.77-9.94,15.83-19.71,22.85-30.17c5.09-7.59,9.45-15.88,12.81-24.38
		c8.36-21.13,21.83-39.47,31.67-59.72c13.14-27.05,33.34-48.31,54.48-68.74c15.21-14.71,31.16-28.8,47.85-41.78
		c10.97-8.52,23.83-14.63,35.94-21.65c1.64-0.95,3.85-0.92,8.47-1.93c-1.65,4.42-2.13,7.08-3.49,9.15
		c-10.69,16.2-15.33,34.62-20.6,52.97c-5.37,18.69-11.56,37.21-18.69,55.29c-8.81,22.35-21.25,42.98-37.46,60.66
		c-11.71,12.77-25.29,23.91-38.67,35.02c-9.68,8.04-21.05,14.1-30.5,22.38c-15.49,13.57-33.98,21.49-52.1,30.26
		c-10.14,4.9-20.23,9.91-30.38,14.79C1567.47,1462.07,1565.23,1462.69,1561.91,1463.91z M1419.31,1286.19
		c4.17-22.47,8.46-44.93,13.31-67.26c3.76-17.3,8.12-34.5,12.87-51.56c2.83-10.16,6.43-20.19,10.61-29.88
		c5.75-13.32,7.52-27.51,10.75-41.42c3.77-16.26,8.2-32.36,12.62-48.46c0.69-2.49,2.56-4.88,4.41-6.79
		c5.79-5.98,13.99-5.55,18.23,1.56c5.23,8.78,9.99,17.92,14.09,27.29c4.25,9.69,7.77,19.73,11.01,29.81
		c1.65,5.14,1.48,10.84,3.01,16.03c4.53,15.4,8.56,31.04,14.49,45.91c14.08,35.33,25.64,71.28,31.78,108.91
		c1.48,9.06,4.76,17.87,5.87,26.95c2.03,16.59,3.25,33.3,4.35,49.99c0.23,3.56-1.08,7.41-2.42,10.84
		c-5.32,13.65-11.24,27.06-16.34,40.79c-6.22,16.76-14.72,32.26-24.42,47.18c-2.98,4.58-5.83,9.25-8.94,13.74
		c-1.84,2.65-4.06,5.03-7.27,8.95c-1.32-3.99-2.29-6.02-2.61-8.14c-0.35-2.32-0.46-4.8-0.03-7.08c3.22-17.06,5.1-34.55,12.3-50.52
		c7.3-16.21,9.9-33.26,11.65-50.66c2.66-26.42,0.05-52.5-4.65-78.42c-3.47-19.12-7.14-38.25-11.74-57.12
		c-6.29-25.81-13.46-51.41-20.49-77.03c-1.25-4.53-3.89-8.67-5.51-13.12c-3.17-8.66-6.14-17.39-9.06-26.13
		c-1.21-3.61-2.01-7.82-6.41-8.41c-5.26-0.7-6.64,3.99-8.28,7.65c-1.39,3.1-2.31,6.42-3.34,9.68c-2.56,8.09-5.16,16.18-7.54,24.32
		c-2.29,7.82-4.94,15.61-6.34,23.6c-4.4,25.16-8.95,50.33-12.17,75.66c-3.01,23.67-9.4,47.04-7.76,71.19
		c0.95,13.95,2.07,27.91,3.82,41.77c2.36,18.66,7.03,36.84,14.64,54.07c8.27,18.72,17.53,36.9,31.05,52.62
		c2.51,2.92,3.8,7.25,4.57,11.14c0.35,1.76-1.99,4.04-3.41,6.64c-4.85-6.23-8.63-10.22-11.41-14.81
		c-5.44-9.01-10.17-18.45-15.47-27.55c-9.24-15.87-17.79-32.12-30.95-45.46c-7.71-7.81-12.12-17.95-15.17-28.59
		C1416.6,1331.7,1415.06,1309.06,1419.31,1286.19z M1529.89,1825.58c-6.98,17.89-12.52,36.05-14.64,55.27
		c-1,9.11-3.65,18.05-5.71,27.03c-0.34,1.5-1.51,2.81-3.52,6.4c-2.52-5.63-4.56-8.86-5.44-12.38c-4.04-16.21-7.91-32.47-11.54-48.77
		c-2.6-11.67-5.25-23.37-6.93-35.19c-2.16-15.18-3.07-30.54-5.06-45.75c-4.05-30.94-4.14-62.02-2.66-93.03
		c1.77-37.1,4.61-74.17,11.87-110.74c1.13-5.68,1.17-11.57,2.1-17.3c0.63-3.89,1.94-7.68,3-11.73c13.22,4.58,18.3,15.53,23.04,25.57
		c10.65,22.57,18.03,46.42,21.37,71.22c1.99,14.77,2.09,29.78,3.71,44.61c1.14,10.46,4.15,20.74,4.96,31.2
		c0.88,11.5,0.3,23.13,0.14,34.7c-0.07,4.77-1.07,9.54-0.99,14.3C1543.97,1783.59,1537.99,1804.83,1529.89,1825.58z M1499.11,1526.8
		c-1.16-1.46-1.92-4.19-5.07-6.09c-0.12-0.07-0.23-0.13-0.33-0.18c-2.19-1.14-4.89-1.33-8.46-0.74c-4.4,0.73-12.02-0.19-13.43-3.22
		c-1.31-2.82,4.2-4.95,6.19-12.26c2.14-7.82-2.17-12.71,1.1-17.06c1.87-2.48,5.02-3.24,7.12-3.51c2.31,2.07,5.68,4.43,8.94,3.64
		c5.06-1.22,5.67-9.04,9.31-9.19c3.82-0.15,4.19,8.37,10.88,11.18c5.91,2.49,10.67-2.04,13.85,0.94c2.42,2.26,2.09,7.13,0.82,10.36
		c-2.69,6.9-8.54,5.94-13.18,13.35c-4.27,6.82-1.69,11.72-5.98,14.19C1507.49,1530.17,1501.39,1529.67,1499.11,1526.8z
		 M1518.53,1459.53c-1.08,2.15-3.01,4.58-5.1,5.26c-1.41,0.46-4.29-1.47-5.55-3.08c-3.77-4.83-6.74-10.3-10.62-15.03
		c-16.7-20.37-27.3-43.76-35.76-68.51c-8.07-23.62-9.22-48.18-11.7-72.57c-0.82-8.04,0.37-16.4,1.46-24.5
		c2-14.87,4.65-29.65,6.95-44.48c2.7-17.47,5.77-34.9,7.85-52.45c2.34-19.76,7.2-38.79,13.66-57.53
		c2.29-6.64,2.79-14.01,10.15-20.79c6.1,14.66,12.61,27.44,16.77,40.95c6.23,20.19,10.76,40.89,16.1,61.35
		c4.05,15.5,9.07,30.8,12.17,46.49c4.91,24.78,7.46,49.84,7.21,75.26c-0.15,15.39-0.98,30.61-3.32,45.75
		c-0.82,5.33-2.17,10.8-4.46,15.65c-5.01,10.64-7.88,21.72-9.54,33.3c-0.82,5.69-3.01,11.17-4.25,16.82
		c-0.87,3.96-1.25,8.03-1.7,12.06C1518.62,1455.51,1519.36,1457.88,1518.53,1459.53z M1312.33,1443.67
		c-16.66-7.64-33.29-15.85-47.38-28.2c-9.22-8.08-19.62-14.88-28.4-23.38c-18.34-17.76-37.81-34.62-49.64-58.07
		c-8.29-16.43-16.94-32.7-26.01-48.72c-8.2-14.48-16.69-28.81-26.79-42.14c-7.2-9.5-13.69-19.55-20.48-29.36
		c-0.78-1.12-1.61-2.24-2.19-3.47c-2.45-5.21-0.63-8.43,4.94-7.51c6,0.98,12.12,2.51,17.63,5.03c21.12,9.67,42.2,19.43,62.93,29.9
		c25.62,12.94,50.76,26.83,76.32,39.9c16.43,8.4,32.96,16.69,49.92,23.91c33.26,14.17,63.38,33.27,86.2,61.19
		c15.71,19.22,33.84,36.65,46.22,58.69c9.49,16.9,17.62,34.26,25.32,54.83c-4.21-2.44-6.86-3.23-8.39-4.99
		c-4.46-5.15-8.52-10.65-12.65-16.08c-3.92-5.15-7.82-10.31-11.6-15.57c-3.37-4.68-6.27-9.72-9.87-14.21
		c-22-27.41-45.6-53.35-72.27-76.3c-7.49-6.44-15.8-12-24.12-17.38c-15.17-9.82-31.33-18.24-45.74-29.03
		c-13.97-10.47-30.31-15.63-45.14-23.98c-19.12-10.76-39.34-19.02-59.51-27.46c-5.64-2.36-10.76-5.96-16.29-8.63
		c-4.95-2.39-8.27-4.59-13.32-5.11c-3.17-0.33-9.06-0.94-10.69,1.53c-3.69,5.6,18.97,20.27,37.14,50.62
		c8.66,14.46,5.94,15.96,16.66,32.85c7.83,12.34,16.75,24.13,26.34,35.17c13.45,15.49,28.38,29.55,44.84,41.99
		c23.45,17.74,48.19,33.56,73.51,48.32c10.42,6.08,22.69,9.47,34.52,12.55c23.2,6.04,46.2,12.51,68.01,22.64
		c2.78,1.29,5.59,2.72,7.96,4.62c1.34,1.08,2.87,3.64,2.42,4.8c-0.54,1.38-3.2,2.92-4.77,2.75c-7.79-0.86-15.69-1.61-23.24-3.6
		c-16.5-4.37-32.8-9.5-49.2-14.26c-10.9-3.16-21.07-7.71-30.83-13.62C1341.28,1455.78,1326.57,1450.21,1312.33,1443.67z
		 M1393,1581.8c25.27-24.5,26.46-24.97,36.41-34.31c7.42-6.97,14.84-13.95,22.48-20.69c2.67-2.36,5.98-3.99,9-5.95
		c0.66,0.47,1.31,0.94,1.97,1.41c-0.91,3.06-1.41,6.33-2.81,9.15c-5.6,11.29-11.1,22.66-17.36,33.59
		c-9.64,16.83-19.83,33.35-29.91,49.93c-3.35,5.51-7.13,10.76-10.61,16.19c-14.51,22.61-27.97,45.97-43.76,67.64
		c-13.78,18.91-28.49,37.33-46.43,52.87c-6.66,5.77-16.37,16.35-32.46,31.12c-16.14,14.81-38.5,34.57-66.56,57.12
		c1.18-4.06,1.88-7.61,3.22-10.91c12-29.52,28.06-56.87,44.92-83.79c9.21-14.71,17.69-29.93,27.61-44.14
		c9.74-13.94,20.77-27,31.49-40.25c12.06-14.9,18.39-22.55,27.64-32.9C1363.12,1610.77,1375.34,1598.92,1393,1581.8z
		 M1465.74,1482.97c-5.44-2.27-11.27-4.19-16.61-7.03c-19.79-10.54-41.44-15.29-62.81-21.1c-18.83-5.12-36.74-12.59-53.17-23.35
		c-14.81-9.7-29.89-19-44.5-28.99c-7.29-4.98-14.27-10.62-20.55-16.81c-19.2-18.95-38.36-38.07-52.33-61.42
		c-8.06-13.47-14.86-27.69-22.67-41.31c-5.21-9.07-11.2-17.69-17.58-27.66c2.57,0.34,3.9,0.25,5,0.71
		c17.94,7.47,36.01,14.5,53.59,22.99c34.23,16.53,66.87,35.79,99.14,55.63c20.03,12.32,38.14,27.47,53.54,45.79
		c12.72,15.14,27.24,28.76,40.36,43.59c7.67,8.67,14.2,18.34,21.17,27.62c5.53,7.36,10.91,14.83,16.43,22.19
		C1466.77,1476.53,1469.69,1478.97,1465.74,1482.97z M1444.79,1503.1c-13.25,3.09-26.84,5.19-39.66,9.54
		c-15.79,5.35-30.85,12.82-46.41,18.89c-9.79,3.82-19.93,6.75-29.9,10.1c-9.92,3.33-19.76,6.95-29.78,9.97c0,0-12.38,3.76-26.61,6.8
		c-47.49,10.13-81.92,8.8-81.92,8.8c-22.02-0.85-25.62-3.88-44.07-3.38c-3.57,0.1-11.7,0.43-22.05-1.92
		c-6.93-1.57-12.39-3.79-15.93-5.42c8.58-4.34,15.39-8.86,22.87-11.38c26.49-8.93,53.21-17.2,79.85-25.69
		c10.04-3.2,19.98-6.83,30.19-9.37c21.18-5.27,42.34-10.95,63.82-14.55c17.76-2.98,36-3.1,54-4.7c14.7-1.3,29.24,1.3,43.7,1.65
		C1418.21,1492.8,1430.81,1499.99,1444.79,1503.1z M1333.58,1571.78c-20.64,12.94-41.79,24.57-64.84,32.12
		c-12.21,4-25.21,6.12-38.02,7.58c-15.58,1.78-31.35,1.96-47.03,2.86c-17.3,0.99-33.98-3.22-50.64-6.66
		c-19.38-4-38.55-9.11-57.62-14.45c-17.63-4.94-35.76-5.24-53.71-7.33c-1.95-0.23-3.9-0.53-6.29-0.86
		c-0.17-5.44,2.51-8.91,6.13-11.47c10.58-7.45,21.15-14.95,32.09-21.85c12.68-8,25.41-16.05,38.76-22.83
		c12.74-6.47,26.1-11.86,39.54-16.78c24.69-9.03,49.58-17.52,74.49-25.92c9.35-3.15,18.98-5.51,28.52-8.06
		c25.78-6.89,51.82-12.16,78.67-12.26c2.04-0.01,4.09-0.33,6.12-0.62c19.7-2.84,35.18,6.93,52.72,17.18
		c-3.99,1.17-6.06,2.21-8.19,2.34c-12.6,0.79-25.22,1.15-37.81,2.08c-26.7,1.97-52.68,7.72-78.37,15.16
		c-15.7,4.55-31.77,7.84-47.45,12.47c-9.75,2.88-19.05,7.26-28.59,10.88c-4.79,1.82-9.53,4.17-14.5,5.01
		c-20.54,3.45-39.04,12.24-57.58,21.04c-4.01,1.9-8.16,3.49-12.25,5.21c-3.87,1.63-6.25,4.04-4.71,9.04
		c8.11,0.36,16.19,0.47,24.23,1.11c22.81,1.82,45.59,4.02,68.4,5.73c16.66,1.25,33.24,2.2,50.05-0.04
		c27.7-3.68,54.94-8.91,81.53-17.59c11.67-3.81,23.81-6.28,35.37-10.37c12.17-4.3,24.32-9.02,35.73-14.99
		c18.35-9.6,37.2-16.79,58.02-18.32c5.84-0.43,11.62-1.76,17.42-2.68c0.25,0.81,0.49,1.63,0.74,2.44
		c-4.41,2.25-8.71,4.74-13.25,6.68c-8.12,3.48-16.42,6.54-24.58,9.93C1387.58,1539.66,1360.17,1555.11,1333.58,1571.78z
		 M1429.32,1637.1c-7.3,16.5-15.18,32.57-26.06,47.09c-9.83,13.12-18.97,26.75-28.92,39.78c-8.9,11.65-18.49,22.77-27.75,34.16
		c-3,3.7-5.51,7.88-8.92,11.15c-9.09,8.73-18.36,17.31-27.93,25.51c-6.47,5.54-13.81,10.07-20.36,15.54
		c-8.08,6.75-15.72,14.03-23.61,21.01c-6.91,6.1-14.01,12-20.85,18.17c-10.15,9.15-20.24,18.38-30.15,27.79
		c-1.85,1.76-2.73,4.53-4.07,6.84c-5.41,9.34-9.66,19.88-22.14,21.96c-5.25-4.91-7.56-10.7-8.47-17.36
		c-1.97-14.36-0.56-28.24,2.07-42.6c4.59-25.08,16.02-47.25,27.04-69.4c15.04-30.23,32.22-59.42,49.09-88.7
		c4.02-6.98,10.51-12.52,15.75-18.82c13.69-16.47,27.28-33.03,40.98-49.49c9.92-11.93,14.9-17.88,15.92-19.03
		c10.59-11.82,41.43-46.23,67.77-55.64c16.6-5.93,19.6-8.12,26.33-10.96c2.49-1.05,4.82-2.48,7.24-3.69
		c2.88-1.44,5.78-2.83,8.66-4.24c0.57,0.73,1.13,1.45,1.7,2.18c-4.25,4.48-8.26,9.22-12.79,13.39
		c-8.53,7.85-17.48,15.25-26.03,23.08c-0.31-0.31-4.44,3.69-10.93,10.26c-3.5,3.39-6.94,6.84-10.29,10.37
		c-0.33,0.35-1.14,1.12-1.47,1.66c-12.74,13.11-29.08,30.01-44.26,45.13c-4.75,4.73-15.06,19-29.06,37
		c-0.42,0.53-0.53,1.38-1.02,1.76c-12.92,9.67-19.03,24.67-28.79,36.82c-4.24,5.28-7.69,11.25-11.13,17.11
		c-11.75,19.99-23.97,39.75-34.8,60.23c-9.72,18.38-17.87,37.59-26.63,56.48c-1.9,4.1-1.61,7.99,2.98,11.58
		c2.81-1.91,6.06-3.69,8.8-6.05c13.95-12.03,28.02-23.94,41.54-36.44c10.26-9.49,19.59-19.99,29.64-29.72
		c10.28-9.95,21.36-19.08,31.34-29.31c27.31-27.97,50.85-58.82,70.17-92.93c7.05-12.45,16.19-23.7,23.55-35.99
		c13.5-22.56,26.38-45.49,39.54-68.25c5.25-9.07,10.55-18.11,15.77-27.07c4.01,0.85,5.26,2.42,3.93,5.95
		c-6.76,17.86-12.84,36-20.2,53.6C1445.42,1603.98,1436.76,1620.28,1429.32,1637.1z M1578.21,1747.84
		c0.05,30.72-9.87,58.93-21.71,86.68c-2.27,5.33-3.78,10.98-5.81,16.42c-3.58,9.56-7.76,18.92-10.84,28.63
		c-3.81,12-7.82,24.09-9.82,36.46c-2.72,16.85-9.06,32.18-16.39,47.25c-3.35,6.87-6.78,7.22-11.15,0.96
		c-7.84-11.26-14.65-23.4-16.97-36.95c-6.13-35.85-17.81-70.1-28.51-104.67c-5.25-16.96-10.8-34-13.95-51.41
		c-3.76-20.79-2.87-36.96-2.5-52.88c0.87-37.36,6.62-65.57,8.2-72.99c6.77-31.85,7.53-34.36,15.71-58.13
		c3.97-11.53,6.61-23.5,10-35.23c1.39-4.82,2.78-9.77,8.38-13.31c0.34,3.08,1.05,5.37,0.77,7.53c-3.13,24.35-7.41,48.6-9.38,73.04
		c-2.35,29.17-6.64,58.27-4.88,87.74c0.75,12.56-0.52,25.24-0.27,37.85c0.16,7.78,1.32,15.56,2.26,23.31
		c2.46,20.29,4.68,40.62,7.76,60.82c1.37,9.01,5.75,17.62,6.71,26.64c1.93,18.19,7.5,35.34,12.71,52.64
		c1.27,4.2,1.97,9.95,7.21,10.08c6.15,0.15,6.52-6.1,7.51-10.58c2.13-9.65,4.31-19.32,5.64-29.1c2.93-21.49,9.93-41.82,17.25-62.03
		c4.92-13.58,8.53-27.3,9.48-41.74c1.1-16.67,2.66-33.31,3.52-49.99c0.3-5.7-0.81-11.48-1.41-17.21
		c-1.74-16.63-4.38-33.21-5.1-49.88c-0.91-21.12-6.57-41.02-12.84-60.86c-5.43-17.19-11.44-34.19-17.43-51.98
		c3.89-2.25,8.24-4.76,13.76-7.95c2.06,2.93,4.48,5.61,6.05,8.73c9.36,18.61,19.17,37.03,27.51,56.09
		c4.73,10.82,8.08,22.55,10.07,34.2c3.61,21.17,6.49,42.54,8.22,63.94C1579.24,1715.81,1578.18,1731.87,1578.21,1747.84z
		 M1533.59,1527.93c3.88,2.1,5.84,2.96,7.58,4.13c23.55,15.78,46.72,32.16,70.72,47.2c13.53,8.48,28.52,14.59,42.67,22.13
		c15.93,8.49,32.25,16.46,47.32,26.31c21.42,14,38.71,32.12,49.8,55.83c3.84,8.21,10.04,15.35,15.29,22.88
		c8,11.48,16.91,22.41,23.98,34.42c9.06,15.39,19.43,29.72,30.53,43.6c1.58,1.97,2.91,4.13,5.16,7.35c-2.89-0.18-4.33,0.1-5.42-0.39
		c-16.48-7.48-32.89-15.09-49.35-22.6c-10.84-4.94-21.91-9.38-32.57-14.68c-27.2-13.51-54.66-26.63-78.39-46.09
		c-4.48-3.67-9.49-6.73-13.76-10.62c-15.14-13.8-29.93-27.96-45.1-41.72c-10.4-9.44-19.37-19.9-25.19-32.73
		c-2.65-5.84-4.1-12.24-6.81-18.05c-8.67-18.55-17.7-36.93-26.53-55.41C1540.45,1543.09,1537.57,1536.59,1533.59,1527.93z
		 M1749.17,1623.94c16.17,13.89,27.52,30.75,38.05,48.7c8.45,14.41,17.58,28.42,26.24,42.71c8.84,14.58,17.39,29.32,26.25,43.88
		c2.47,4.06,5.1,8.25,8.5,11.5c13.29,12.7,22.42,28.32,31.37,44.02c3.55,6.24,4.58,13.46,1.97,21.63c-3.51,0-6.32,0.51-8.88-0.08
		c-12.96-2.99-26.15-5.4-38.72-9.61c-32.38-10.84-64.61-22.18-96.64-34.04c-10.48-3.88-20.41-9.49-30.11-15.13
		c-17.09-9.95-34.28-19.87-50.52-31.1c-10.03-6.93-18.72-15.93-27.41-24.61c-10.85-10.84-20.96-22.41-31.59-33.47
		c-12.79-13.3-17.25-29.68-18.36-48.4c6.07,2.71,9.65,7.42,13.44,11.84c2.21,2.58,4.02,5.57,6.47,7.9
		c12.12,11.53,24.4,22.89,36.62,34.32c1,0.93,1.86,2.05,2.97,2.82c19.62,13.6,37.56,29.69,59.28,40.15
		c18.12,8.73,36.41,17.1,54.44,26c14.69,7.25,28.91,15.48,43.74,22.42c10.69,5,22.05,8.58,32.64,12.62
		c4.59-4.61,2.52-7.99,0.08-10.86c-14.46-16.99-25.97-35.94-37.61-54.87c-6.41-10.42-14.79-19.6-21.9-29.62
		c-4.92-6.94-10.16-13.92-13.51-21.63c-4.77-11-12.17-19.72-20.36-27.95c-8.66-8.69-17.17-17.67-26.74-25.25
		c-7.94-6.29-17.13-11.12-26.13-15.91c-24.7-13.16-50.27-24.83-74.22-39.22c-23.67-14.22-45.81-31.01-68.54-46.8
		c-2.35-1.63-4.13-4.1-7.16-7.19c7.46-2.05,13.19-1.09,17.73,2.2c15.33,11.11,27.85,12.45,41.1,20.64
		c23.79,14.7,25.71,7.88,73.95,30.77c6.97,3.31,14.92,7.23,25.46,12.85C1711.68,1596.17,1731.24,1608.55,1749.17,1623.94z
		 M1986.72,1483.71c-5.67,3.72-11.85,6.98-18.23,9.27c-22.28,8-43.71,17.75-63.31,31.01c-14.65,9.9-30.89,16.01-47.26,21.99
		c-31.9,11.65-64.98,18.88-98.33,24.5c-15,2.53-30.56,1.79-45.88,2.36c-5.79,0.21-11.6-0.34-17.39-0.07
		c-15.8,0.73-27.49-5.03-51.61-15.06c-48.2-20.06-75.84-34.57-88-41.1c-3.04-1.63-5.51-2.98-7.09-3.85c0.03-0.85,0.06-1.7,0.09-2.55
		c7.07-0.44,14.22-1.75,21.2-1.16c29.62,2.49,59.19,5.48,88.76,8.48c4.04,0.41,8.11,1.51,11.93,2.92
		c24.22,8.95,49.33,9.86,74.69,8.61c9.19-0.45,18.39-0.85,27.55-1.66c22.18-1.96,43.74-6.99,64.97-13.59
		c18.24-5.67,36.57-11.05,54.84-16.64c11.41-3.49,22.81-7.03,34.14-10.78c1.66-0.55,4.15-2.45,4.07-3.56
		c-0.15-2.03-1.51-4.97-3.15-5.67c-2.64-1.12-5.91-0.81-8.92-0.93c-6.1-0.25-12.35,0.39-18.29-0.7
		c-28.89-5.32-57.57-11.86-86.57-16.47c-25.72-4.08-51.78-3.93-77.58,0.2c-22.19,3.55-44.36,7.4-66.34,12.02
		c-14.65,3.08-28.97,7.74-43.43,11.7c-2.63,0.72-5.19,1.83-7.86,2.24c-16.76,2.58-32.95,8.27-50.19,8.54
		c-5.52,0.09-10.97,3.38-16.51,5.01c-3.36,0.99-6.84,1.6-10.26,2.38c-0.3-0.88-0.61-1.76-0.91-2.64c2.74-1.51,5.34-3.4,8.24-4.46
		c19.16-7.01,38.49-13.55,57.55-20.82c20.09-7.67,15.02-7.33,43.58-17.84c12.58-4.63,34.72-12.23,63-18.81
		c14.51-3.38,31.85-6.77,55.47-9.83c24.02-3.12,48.17-5.89,72.43-0.97c6.95,1.41,14.23,1.37,21.36,1.75
		c16.04,0.86,30.52,7.36,45.31,12.56c22.17,7.79,44.15,16.1,66.12,24.44c4.37,1.66,8.69,3.98,12.36,6.86
		C1992.72,1475.62,1992.63,1479.82,1986.72,1483.71z M1562.74,1503.59c0.15-0.34,0.3-0.68,0.45-1.03c32.43-8,64.79-16.3,97.32-23.89
		c19.25-4.49,38.87-7.38,58.12-11.86c18.45-4.3,36.99-5.61,55.86-6.02c22.09-0.47,43.51,3.26,65.02,7.11
		c15.11,2.71,30.24,5.29,45.33,8.11c9.22,1.72,18.38,3.77,29.23,6.02c-17.81,9.15-34.55,15.61-52.06,20.04
		c-8.89,2.25-17.91,4-26.81,6.24c-3.94,0.99-7.69,2.7-11.56,4c-34.55,11.61-69.92,14.51-106.02,10.27
		c-6.08-0.71-12.31-0.13-18.43-0.63c-5.06-0.42-10.71-0.34-14.98-2.6c-11-5.82-23.36-4.21-34.53-7.61
		c-14.28-4.36-29.04-3-43.39-6.02c-9.22-1.94-18.94-1.62-28.45-2.1C1572.83,1503.39,1567.78,1503.59,1562.74,1503.59z"/>
	<path class="st1" d="M1494.83,1201.22c4.33,70.56,1.83,141.51,11.65,211.86c-4.68-2.2-4.76-6.09-5.26-9.58
		c-5.12-35.53-8.21-71.2-8.49-107.14c-0.18-22.53-1.93-45.04-2.43-67.57c-0.2-9.13,1.05-18.29,1.64-27.44
		C1492.91,1201.31,1493.87,1201.26,1494.83,1201.22z"/>
	<path class="st1" d="M1746.87,1728.99c-5.78-0.29-9.22-4.89-13.15-8.23c-17.67-15.03-35.17-30.26-52.66-45.49
		c-10.29-8.95-20.46-18.04-30.67-27.08c-4.08-3.61-7.87-7.6-12.21-10.86c-21.73-16.28-40.4-35.63-57.62-56.49
		c-0.6-0.73-0.86-1.73-1.32-2.67c3.16-3.03,5.26-0.43,6.95,1.27c5.78,5.8,11.24,11.93,16.97,17.79
		c10.47,10.72,20.66,21.76,31.68,31.89c17.57,16.15,35.65,31.74,53.63,47.45c16.93,14.79,33.97,29.44,51.03,44.07
		c2.71,2.33,5.78,4.25,8.68,6.37C1747.75,1727.67,1747.31,1728.33,1746.87,1728.99z"/>
	<path class="st1" d="M1448.7,1468.7c-15.12-10.56-30.19-17.49-43.29-28.17c-17.18-13.99-36.37-25.49-54.01-38.95
		c-14.61-11.15-28.22-23.61-42.34-35.42c-2.61-2.18-5.24-4.64-8.3-5.92c-11.75-4.92-18.97-15.14-27.82-24.08
		c1.37,0.36,2.99,0.36,4.07,1.13c13.61,9.61,27.38,19.01,40.62,29.1c16.8,12.8,33.07,26.28,49.73,39.27
		c17.73,13.83,35.44,27.69,53.55,41.01c6.53,4.8,14.22,8,21.31,12.07C1445.26,1460.5,1449.05,1461.86,1448.7,1468.7z"/>
	<path class="st1" d="M1608.47,1429.27c8.44-7.88,17.12-15.52,25.23-23.71c5.98-6.04,11.4-12.66,16.77-19.28
		c8.35-10.29,15.73-21.47,24.81-31.04c15.12-15.95,23.28-36.05,33.46-54.77c5.69-10.45,12.84-19.69,18.71-31.74
		c2.25,5.42-0.19,8.13-1.62,10.81c-5.91,11.11-12.19,22.02-18.01,33.17c-13.53,25.87-29.57,49.9-50.07,70.87
		c-5.23,5.34-9.11,11.99-14.24,17.44c-8.16,8.67-16.68,17.01-25.41,25.1c-2.34,2.17-5.99,2.94-9.04,4.35
		C1608.86,1430.06,1608.67,1429.66,1608.47,1429.27z"/>
	<path class="st1" d="M1507.09,1760.66c-0.48-7.32-1.2-14.64-1.39-21.97c-0.39-14.94-0.31-29.9-0.76-44.84
		c-0.54-18-1.41-36-2.17-53.99c-0.7-16.34-1.61-32.68-2.1-49.02c-0.23-7.81,0.24-15.64,0.56-23.46c0.05-1.12,1.08-2.19,1.9-3.77
		c3.95,3.06,2.48,6.6,2.52,9.73c0.24,21.77,0.14,43.54,0.74,65.3c0.63,22.79,2.05,45.55,2.86,68.34c0.5,13.93,0.6,27.87,0.66,41.81
		c0.02,3.97-0.72,7.94-1.11,11.91C1508.22,1760.69,1507.65,1760.67,1507.09,1760.66z"/>
	<path class="st1" d="M1280.1,1752.63c0.96-1.97,1.64-4.16,2.93-5.89c20.93-28.11,43.22-55.31,62.52-84.5
		c14.41-21.79,32.76-40,48.36-60.61c6.07-8.02,13.94-14.68,20.8-21.76c1.22,0.74,1.59,0.84,1.75,1.08c0.16,0.25,0.28,0.71,0.16,0.93
		c-0.84,1.46-1.52,3.09-2.66,4.28c-49.36,51.57-88.2,111.44-131.3,167.96C1281.8,1753.63,1280.95,1753.13,1280.1,1752.63z"/>
	<path class="st1" d="M1626.19,1498.24c15.4-0.68,30.79-1.62,46.19-1.96c15.27-0.33,30.59,0.52,45.84-0.2
		c15.65-0.74,31.23-2.86,46.86-4.18c15.06-1.27,30.14-2.29,45.38-2.49c-2.65,4.19-6.84,4.22-10.58,4.24
		c-29.06,0.2-57.59,6.15-86.5,7.71c-14.22,0.77-28.34,2.91-42.81-0.01c-8.43-1.7-17.62,0.44-26.47,0.68
		c-5.95,0.16-11.91,0.03-17.87,0.03C1626.21,1500.79,1626.2,1499.52,1626.19,1498.24z"/>
	<path class="st1" d="M1389.22,1507.45c-7.05,0.85-13.03,1.21-18.87,2.34c-19.05,3.69-38.09,7.43-57.04,11.58
		c-21.95,4.81-43.69,10.68-65.75,14.92c-12.28,2.36-25,2.42-37.54,3.34c-0.88,0.06-1.87-1.37-4.62-3.52
		c5.3-1.12,8.79-2.58,12.22-2.45c19.12,0.67,37.01-5.77,55.37-9.32c26.45-5.12,52.75-10.98,79.15-16.38c9.29-1.9,18.66-3.4,28-5.05
		C1383.15,1502.39,1386.29,1501.64,1389.22,1507.45z"/>
</g>
</svg>
