<?xml version="1.0" encoding="utf-8"?>
<!-- Generator: Adobe Illustrator 24.0.1, SVG Export Plug-In . SVG Version: 6.00 Build 0)  -->
<svg version="1.1" id="Слой_1" xmlns="http://www.w3.org/2000/svg" xmlns:xlink="http://www.w3.org/1999/xlink" x="0px" y="0px"
	 viewBox="0 0 3000 3000" style="enable-background:new 0 0 3000 3000;" xml:space="preserve">
<style type="text/css">
	.st0{fill:none;}
	.st1{fill:#45482A;}
</style>
<rect class="st0" width="3000" height="3000"/>
<g>
	<g>
		<path class="st1" d="M1898.73,1333.66c-2.19-13.84-7.33-26.78-12.87-39.44c-5.63-12.87-14.68-22.69-29.56-25.45
			c-7.77-1.44-15.52-3.13-23.12-5.29c-7.13-2.02-14.06-4.74-21.03-7.28c-3.48-1.26-6.78-3.06-10.3-4.15
			c-9.9-3.07-17.12-5.73-29.89-8.87c-26.12-6.42-39.29-9.65-44.55-10.58c-12.93-2.28-20.07-4.59-30.01-3.17
			c-8.93,1.27-17.86,2.72-26.74,4.15c-26.68,4.32-51.45,13.13-68.3,36.45c-9.03,12.5-19,24.43-22.64,39.95
			c-1.88,8.01-4.91,16.02-5.16,24.1c-0.52,16.97-6.11,31.84-15.79,45.31c-12.28,17.08-24.96,33.87-37.49,50.77
			c-0.88,1.18-1.92,2.23-3.33,3.84c-0.47-10.91-1.09-20.87-1.26-30.83c-0.17-9.99,0.25-19.98,0.15-29.97
			c-0.19-18.09-0.58-36.19-0.88-54.28c-0.08-4.95-0.07-7.42-0.06-7.92c0.29-21.22,4.84-35.01,17.89-76.85
			c5.52-17.69,7.86-25.35,12.2-37.96c6.62-19.21,9.13-28.48,15.87-37.1c4.25-5.45,8.02-11.28,11.98-16.95
			c10.99-15.75,25.28-27.81,41.42-38.02c10.78-6.82,21.39-13.99,31.48-21.78c7.56-5.83,13.94-13.16,21.25-19.34
			c24.77-20.97,46.68-44.26,61.29-73.65c3.69-7.43,10.93-22.43,15.65-42.64c8.09-34.61,4.58-64.89,0.92-96.54
			c-2.02-17.44-2.55-19.02-4.49-32.43c-0.87-6.05-1.8-12.12-3.06-18.1c-2.87-13.6-13.91-20.73-26.68-21.14
			c-12.68-0.4-25.67,0.82-38.11,3.34c-17.19,3.48-34.11,8.43-50.93,13.49c-18.25,5.49-35.2,13.83-49.15,27.15
			c-6.34,6.05-12.36,12.53-17.85,19.35c-9.79,12.15-16.74,25.94-20.66,41.07c-3.1,11.99-7.95,23.27-12.47,36.33
			c-1.2-2.58-1.85-3.46-2.03-4.42c-2.7-14.34-10.96-25.86-19.08-37.38c-7.05-10-16.92-12.94-28.75-9.38
			c-1.89,0.57-3.93,0.66-6.58,1.08c-0.91-6.05-2.15-11.25-2.37-16.49c-0.42-9.85-1.01-20.27,4.2-28.85
			c8.13-13.41,17.7-25.64,31.1-34.87c21.46-14.79,43.33-29.06,62.72-46.77c15.81-14.44,30.19-29.89,41.59-48.06
			c9.89-15.76,16.2-32.85,20.18-50.99c1.46-6.67,3.82-13.48,7.32-19.29c8.24-13.65,17.48-26.7,26.21-40.06
			c5.94-9.1,12.44-17.87,14.47-29.03c0.99-5.45,3.23-10.67,4.71-16.05c4.54-16.51,8.63-33.08,5.38-50.42
			c-2.07-11-4.45-21.95-6.29-32.98c-3.1-18.66-9.64-36.15-19.18-52.26c-8.81-14.88-16.9-16.25-29.94-10.81
			c-6.7,2.8-10.97,8.29-15.81,13.22c-1.9,1.94-4.08,3.62-6.5,5.75c-1.17-2.31-2.08-3.42-2.32-4.66
			c-2.07-10.9-7.52-20.35-12.07-30.29c-7.46-16.27-14.51-32.48-26.12-46.47c-4.88-5.88-9.92-11.13-16.47-14.82
			c-2.16-1.22-5.1-1.96-7.52-1.65c-9.83,1.24-19.21,3.88-27.57,9.66c-9.63,6.67-19.64,12.79-29.34,19.36
			c-6.13,4.15-12.89,7.85-17.84,13.16c-18.79,20.19-29.97,44.67-35.94,71.25c-4.2,18.68-6.81,37.76-6.94,57.07
			c-0.06,9.05-0.9,18.1-1.32,27.16c-0.32,6.92-0.62,13.84-0.79,20.76c-0.17,6.75-0.17,13.51-0.25,20.26
			c-0.68,0.19-1.36,0.38-2.04,0.57c-4.92-7.46-9.77-14.96-14.77-22.37c-4.74-7.01-9.6-13.7-12.46-17.55
			c-17.57-23.67-36.67-39.88-48.86-50.1c-8.75-7.34-19.18-13.18-32.71-17.45c-2.94-0.93-6.32-0.68-9.49-0.6
			c-13.49,0.31-21.56,10.18-29.59,18.62c-7.48,7.86-12.18,18.24-14.65,29.03c-3.62,15.83-7,31.74-9.8,47.73
			c-5.06,28.87-9.14,57.85-10.01,87.27c-0.3,10.03,0.47,19.2,4.05,28.63c4.55,12,7.97,24.54,17.42,33.78
			c7.01,6.86,14.26,13.73,22.37,19.15c17.48,11.7,35.54,22.55,53.45,33.59c17.91,11.05,36.47,21.13,53.78,33.03
			c25.28,17.39,45.75,39.11,53.87,69.92c2.64,10.01,4.65,20.2,6.71,30.35c0.85,4.2-0.4,7.79-4.19,10.45
			c-4.13,2.9-8.6,5.65-11.84,9.4c-7.47,8.65-14.95,17.42-21.2,26.96c-8.71,13.3-16.84,27.06-24.21,41.14
			c-7.39,14.12-14.07,28.72-13.82,45.3c0.01,0.62-0.54,1.25-1.18,2.64c-1.32-2.09-2.3-3.55-3.2-5.07
			c-4.89-8.24-9.13-16.95-14.79-24.63c-6.78-9.2-14.77-17.51-22.22-26.22c-14.27-16.71-26.3-34.9-35.98-54.62
			c-5.52-11.25-10.57-22.74-16.35-33.85c-4.85-9.33-11.6-17.02-20.88-22.59c-9.32-5.6-19.29-8.71-29.84-10.69
			c-8.28-1.55-16.42-1.49-24.52,0.59c-11.94,3.06-23.18,7.61-32.93,15.47c-2.65,2.14-5.94,3.51-8.99,5.13
			c-8.7,4.63-16.11,10.39-19.02,20.46c-1.25,4.33-2.99,8.52-4.44,12.8c-4.54,13.4-8.27,26.99-8.87,41.23
			c-0.62,14.77,1.97,29.17,5.21,43.5c2.41,10.65,4.35,21.4,6.61,32.08c1.04,4.92,2.05,9.88,3.59,14.65
			c2.96,9.12,5.92,18.27,9.56,27.13c3.94,9.57,7.44,19.67,13.29,28.03c12.26,17.51,27.31,32.54,44.42,45.67
			c28.8,22.1,60.73,36.23,96.83,40.31c12.16,1.38,24.5,1.13,36.69,2.29c11.53,1.1,22.88,0.6,34.27-1.2c3.36-0.53,7-0.8,10.26-0.06
			c6.47,1.47,13.06,3.09,19.07,5.8c9.93,4.47,19.48,9.78,29.13,14.87c7,3.69,19.59,13.36,30.29,28.31
			c11.17,15.6,14.2,29.93,18.44,49.96c6.21,29.36,4.34,53.99,3.47,64.33c-0.23,2.7-0.46,4.95-0.63,6.5
			c-16.65-15.32-33.15-29.28-48.07-44.75c-7.28-7.55-14.63-14.52-23.34-20.26c-18.52-12.2-37.75-22.87-59.81-27.08
			c-18.29-3.49-36.66-7.21-55.43-4.91c-19.16,2.34-37,8.53-51.27,22.01c-11.55,10.91-17.77,25.19-21.39,40.41
			c-1.51,6.37-2.29,13.33-1.42,19.76c1.31,9.72,4.1,19.28,6.72,28.77c2.61,9.46,8.78,15.54,18.57,17.75
			c7.67,1.73,13.3,6.2,17.57,12.84c12.05,18.72,30.1,28.78,51.43,31.57c13.99,1.83,28.51-0.72,41.08-7.8
			c16.02-9.02,30.64-19.93,42.95-34.06c10.23-11.73,23.28-19.61,39.83-18.54c11,0.71,20.89,3.61,29.09,9.7
			c5.56,4.13,9.02,8.74,10.91,11.6c8.94,13.52,8.99,29.12,9.01,37.19c0.01,3.08-0.25,6,0.03,11.95c0.25,5.31,1.1,10.61,1.11,15.91
			c0.1,34.11,0.42,68.22-0.13,102.32c-0.27,16.4-1.51,32.88-3.71,49.14c-2.12,15.63-3.62,24.61-10.56,60.62
			c-11.93,61.91-14.7,76.5-17.55,76.31c-2.11-0.14-1.78-8.2-5.39-26.09c-6.62-32.78-17.13-54.57-21.05-60.92
			c-5.02-8.14-9.43-16.82-15.47-24.14c-16.49-19.97-30.79-41.49-45.96-62.39c-9.28-12.78-19.03-25.07-34.13-31.56
			c-0.73-0.31-1.5-0.64-2.11-1.13c-9.48-7.63-19.33-6.03-29.26-1.15c-5.74,2.82-11.48,5.67-17.05,8.81
			c-2.74,1.55-5.29,3.57-7.57,5.75c-11.1,10.53-15.76,24.41-19.84,38.59c-4.18,14.55-7.59,29.41-12.94,43.53
			c-8.88,23.43-12.94,47.81-15.03,72.41c-1.51,17.7-1.46,35.78,2.45,53.36c3.23,14.51,5.44,29.39,13,42.63
			c7.41,12.98,15.81,25.13,25.77,36.41c11.95,13.54,26.83,21.59,43.46,27.18c16.19,5.44,28.9,15.27,38.92,29.09
			c5.29,7.3,11.1,14.34,17.52,20.65c12.33,12.12,25.23,23.66,37.96,35.37c7.55,6.95,9.34,15.51,10.31,17.75
			c9.23,21.26,7.55,42.24,4.89,55.7c-7.2-12.23-14.95-21.03-20.86-26.89c-10.77-10.66-21.17-17.18-28.18-21.54
			c-3.69-2.29-7.47-4.46-11.37-6.5c-25.72-13.51-52.76-15.52-80.78-11.64c-3.4,0.47-6.97,1.2-9.97,2.77
			c-8.65,4.53-18.21,6.65-26.65,12.24c-7.67,5.08-16.15,8.9-22.91,15.47c-2.85,2.76-6.14,5.16-9.54,7.23
			c-5.05,3.09-9.03,5.38-15.25,8.36c-10.28,4.91-15.75,7.15-24.4,11.05c-6.01,2.71-13.43,5.97-19.06,8.96
			c-25.64,13.68-39.56,34.89-41.96,38.65c-1.41,2.2-7.59,11.54-11.89,25.2c-4.64,14.72-7.03,30.04-7.76,45.54
			c-0.3,6.39-0.84,12.77-1.35,19.15c-1.13,14.13-1.28,28.23,1,42.27c1.46,8.93,4.68,11.74,13.86,12.01
			c9.98,0.28,19.59-1.22,28.78-5.43c15.64-7.16,31.91-11.86,49.23-12.84c10.06-0.57,20.29-1.1,30.01-3.44
			c8.96-2.15,17.94-2.7,26.89-3.02c16.96-0.62,33.21-4.82,49.48-8.68c18.24-4.34,33.39-15.17,47.71-26.77
			c6.57-5.32,12.39-11.78,17.69-18.41c10.15-12.69,20.2-25.51,29.31-38.94c7.74-11.42,14.08-23.79,21.02-35.75
			c1.34-2.3,2.32-4.86,3.91-6.96c3.75-4.93,9.5-4.59,11.77,1.17c3.41,8.65,6.97,17.47,8.52,26.55c2.73,16,4.18,32.23,5.81,48.39
			c1.92,19.07,3.54,38.17,5.14,57.27c0.98,11.69,2.01,23.4,2.47,35.12c0.76,19.42,0.81,38.87,1.66,58.28
			c0.54,12.22,2,24.39,3.01,36.59c0.66,7.93,1.03,15.9,1.93,23.81c1.09,9.51,2.66,18.97,3.92,28.47c0.21,1.61-0.09,3.29-0.22,6.37
			c-4.13-4.72-7.42-8.15-10.33-11.88c-6.04-7.72-12.7-14.96-16.02-24.6c-9.9-28.7-25.49-54.43-42.42-79.4
			c-4.35-6.42-8.98-9.68-10.06-10.69c-8.32-7.84-27.91-25.78-57.85-29.94c-3.95-0.55-16.1-2.03-31.03,0.9
			c-12.32,2.42-22.74,7.38-35.78,13.48c-3.02,1.41-7.35,3.44-12.16,6.04c-36.73,19.85-55.92,48.58-59.24,62.34
			c-0.48,1.97-0.75,3.87-0.75,3.87c-2.01,8.22,1.48,15.78,2.88,23.57c1.92,10.65,8.71,16.68,18.95,19.3
			c5.67,1.45,11.27,3.16,16.93,4.68c5.37,1.45,10.76,2.79,16.16,4.11c34.06,8.33,37.05,13.27,52.73,13.98
			c15.41,0.7,15.33,1.63,46.56-6.41c8.1-2.08,16.26-2.21,24.58-0.81c14.43,2.44,29,4.12,43.41,6.69
			c16.39,2.93,31.01,9.52,41.75,22.91c5.84,7.28,11.6,14.62,17.29,22.02c1.61,2.1,3.05,4.4,4.21,6.78
			c7.45,15.36,13.81,31.16,16.91,48.02c4.78,25.94,9.07,51.98,13.88,77.92c3.54,19.11,7.53,38.14,11.45,57.18
			c1.02,4.95,2.78,9.75,3.72,14.72c3.22,16.99,5.91,34.08,9.4,51.01c2.69,13.03,6.23,25.88,9.55,38.77c0.56,2.19,1.94,4.17,2.92,6.2
			c6.05-2.51,6.3-3.18,6.32-9.76c0.03-12.25,0.06-24.5,0.48-36.74c0.14-4.17,1.15-8.4,2.34-12.44c2.5-8.48,2.89-16.74-0.79-25.01
			c-1.29-2.9-2.24-6.01-2.94-9.11c-3.31-14.81-6.5-29.65-9.69-44.49c-7.78-36.19-15.62-72.37-23.26-108.59
			c-3.96-18.78-7.58-37.63-11.29-56.47c-1.8-9.14-3.58-18.3-5.09-27.49c-2.12-12.88-3.94-25.81-5.97-38.7
			c-2.49-15.79-5.57-31.5-7.46-47.36c-2.2-18.46,4.31-34.71,15.62-48.94c10.43-13.12,21.57-25.68,34.27-36.72
			c6.82-5.93,13.28-12.7,22.38-14.98c14.65-3.66,18.86-2.41,35.12-7.4c15.06-4.63,25.34-12.04,30.55-15.87
			c5.1-3.75,8.88-10.9,26.44-27.68c15.77-15.07,29.19-31.39,36.72-52.41c4.52-12.61,9.31-25.09,10.51-38.39
			c0.97-10.81,0.27-21.79,0.05-32.69c-0.24-12.22-0.98-24.43-1.09-36.65c-0.11-11.92,0.58-23.85,0.39-35.76
			c-0.13-8.21-1.32-16.39-1.67-24.6c-0.17-4.03-0.64-7.68-2.74-11.32c-3.38-5.86-6.14-12.08-9.09-18.02
			c12.48-9.46,25.71-18.78,38.1-29.11c10.63-8.86,20.71-18.48,30.29-28.48c9.04-9.43,15.99-20.47,22.42-31.97
			c10.1-18.05,14.29-37.78,18.72-57.54c0.34-1.53,0.21-3.19,0.14-4.78c-0.37-8.78-0.77-17.56-1.21-26.34
			c-0.5-10.11-1.35-20.22-1.53-30.34c-0.35-20.51-0.35-41.02-0.51-61.53c-0.05-5.88-1.8-11.49-6.32-15.06
			c-8.52-6.72-16.88-14.59-26.7-18.53c-18.95-7.6-38.68-7.98-56.8,3.53c-8.04,5.11-15.33,11.4-22.95,17.17
			c-22.61,17.14-42.53,37.15-60.31,59.09c-13.12,16.19-27.58,31.01-42.36,45.54c-11,10.82-22.53,21.12-34.03,31.41
			c-14.59,13.05-24.31,28.9-27.78,48.19c-2.31,12.86-3.91,25.85-5.64,38.8c-0.99,7.4-2.17,14.84-2.25,22.28
			c-0.19,18.38-0.17,36.78,0.47,55.14c0.55,15.64-1.39,30.88-5.48,45.86c-1.81,6.64-3.58,13.6-8.92,18.48
			c-8.25,7.55-16.75,14.83-25.23,22.11c-1.25,1.08-3.01,1.58-5.23,2.7c0.15-3.07,0.15-5.17,0.36-7.24c1.1-10.59,3-21.15,3.23-31.76
			c0.31-14.18,1.68-28.11,4.14-42.09c1.51-8.55,0.81-17.5,0.97-26.28c0.15-8.23-0.72-16.57,0.35-24.66
			c1.66-12.62,4.79-25.03,6.9-37.6c2.3-13.66,4.22-27.38,6.15-41.09c0.78-5.54,0.64-11.25,1.8-16.69
			c4.32-20.31,9.19-40.51,13.52-60.82c6.28-29.44,12.37-58.93,18.29-88.45c1.03-5.15,0.71-10.55,1.3-15.81
			c0.68-6.07,1.91-12.09,2.46-18.17c0.96-10.6,1.7-21.22,2.33-31.85c0.5-8.47,0.66-16.97,1.03-25.45
			c0.98-22.28-0.38-24.48,1.54-31.93c1.92-7.4,4.59-17.74,13.18-23.12c1.38-0.87,9.33-1.65,25.18-3.19c0,0,25.14-2.49,27.92-2.78
			c2.33-0.25,2.5-0.28,3.74-0.37c16.93-1.29,33.4-0.09,49.05,7.7c6.61,3.29,13.96,5.29,21.15,7.15c12.38,3.2,24.84,6.18,37.39,8.63
			c13.06,2.55,26.18,5.15,39.66,4.21c5.31-0.37,10.65-0.39,15.98-0.36c19.46,0.08,38.5-3.32,56.17-10.96
			c19.6-8.47,37.64-19.98,51.76-36.59c12.06-14.19,23.73-28.41,30.49-46.36C1900.15,1364.64,1901.24,1349.48,1898.73,1333.66z
			 M1111.56,2167.38c-0.89-4.02-1.84-6.75-2.05-9.53c-1.52-19.7-0.71-39.33,2.52-58.83c1.95-11.78,2.67-23.97,6.34-35.2
			c6.72-20.54,21.1-33.31,26.26-37.97c5.31-4.79,9.98-7.94,12.01-9.26c13.45-8.76,23.2-10.36,34.38-14.51
			c12.2-4.53,22.55-11.95,32.77-19.56c18.06-13.45,37.53-24.21,58.65-31.93c12.99-4.74,26.43-6.02,40.16-4.14
			c4.49,0.62,9,1.06,13.5,1.6c8.77,1.05,16.98,3.56,25.17,7.18c13.13,5.8,23.72,15.02,35.02,23.33c2.26,1.66,3.93,4.13,5.87,6.23
			c-0.43,0.58-0.87,1.16-1.3,1.74c-9.05-0.19-22.2,0.42-37.21,4.56c-15.51,4.27-25.09,10.13-58.55,33.14
			c-57.18,39.32-60.96,44.06-74.4,48.84c-4.03,1.43-17.39,6.57-34.23,15.63c-3.81,2.05-7.92,4.61-12.83,8.2
			c-11.96,8.74-22.52,19.56-32.97,30.17c-7.82,7.94-14.44,17.05-21.66,25.58c-2.93,3.46-5.82,6.99-9.15,10.04
			C1117.89,2164.52,1115.1,2165.44,1111.56,2167.38z M1410.99,2020.03c-6.69,11.21-14.01,22.06-20.28,33.5
			c-10.59,19.33-24.04,36.64-39.19,52.27c-9.29,9.58-21.66,16.19-32.75,23.99c-2.4,1.69-5.03,3.06-8.38,4.65
			c-11.41,5.41-21.21,6.56-26.39,7.21c-20.65,2.57,1.15,0.99-39.93,6.12c-27.3,3.41-40.95,5.12-49.57,5.99
			c-10.49,1.07-20.76,3.76-31.23,5.06c-7.6,0.95-14.24,3.35-20.48,7.92c-2.8,2.05-6.98,2.29-10.59,3.11
			c-3.36,0.76-6.79,1.21-12.26,2.16c3.36-3.73,5.68-6.22,7.9-8.79c4.69-5.44,9.46-10.82,13.95-16.43
			c13.52-16.88,28.48-32.19,45.49-45.72c12.3-9.79,26.31-15.77,40.38-21.87c7.03-3.05,14.79-4.55,21.54-8.05
			c2.64-1.37,4.9-2.72,6.42-3.62c8.61-5.13,14.71-9.85,17.01-11.64c19.05-14.84,24.82-21.65,39.11-31.44
			c16.36-11.22,30.17-16.94,36.76-19.45c5.34-2.03,10.53-4.4,18.12-5.68c16.52-2.8,32.81,0.51,49.1,2.94
			c0.74,0.11,1.45,0.63,2.1,1.06c0.43,0.29,0.73,0.76,1.42,1.52C1416.51,2009.87,1413.95,2015.07,1410.99,2020.03z M1201.89,2265.57
			c3.29-5.43,8.08-9.97,11.21-15.47c5.29-9.29,13.84-14.62,22.38-20c5.84-3.68,12.11-6.69,18.25-9.89
			c12.55-6.53,25.25-12.79,38.94-16.53c6.02-1.65,11.4-1.78,14.85-2.08c0,0,12.96-1.14,23.77-0.16
			c20.3,1.85,44.26,20.23,59.24,38.58c16.29,19.95,19.91,34.3,26.96,47.12c2.93,5.33,4.96,11.17,7.3,16.82
			c0.35,0.84,0.08,1.93,0.09,2.86c-0.93,0.13-1.65,0.44-1.89,0.22c-8.94-7.95-17.73-16.07-26.8-23.87
			c-3.61-3.1-7.68-5.74-11.79-8.15c-33.32-19.5-54.28-22.72-54.28-22.72c-18.22-2.45-32.39,1.54-44.22,4.87
			c-23.39,6.58-30.18,15.2-58.66,24.63c-12.17,4.03-22.39,6.25-28.78,7.46C1196.92,2281,1197.46,2272.89,1201.89,2265.57z
			 M1378.66,2324c-14.58-2.23-28.98-2.84-43.61,0.61c-11.12,2.62-22.59,3.93-33.98,5.14c-4.37,0.47-9.38,0.06-13.34-1.68
			c-15.54-6.85-32.06-9.79-48.43-13.49c-11.44-2.59-22.85-5.48-32.55-12.65c-1.25-0.93-2.38-2.03-3.98-3.41
			c1.06-0.92,1.67-1.79,2.49-2.12c18.48-7.27,29.3-13.34,46.08-17.97c29.08-8.02,36.35-19.05,62.59-21.23
			c4.74-0.39,8.14-0.7,11.02-0.09c19.94,4.21,37.68,12.84,52.87,26.68c10.03,9.14,20.62,17.68,30.61,26.86
			c7,6.43,13.41,13.48,20.6,20.78C1411.69,2328.87,1395.16,2326.52,1378.66,2324z M1730.24,806.5c1.27,6.78,2.02,13.66,2.97,20.49
			c0.99,7.11,1.5,14.33,3.03,21.32c5.44,24.82,5.25,49.77,1.65,74.68c-2.28,15.77-3.69,31.89-9.71,46.81
			c-6.23,15.47-13.03,30.75-24.36,43.49c-7.61,8.55-14.65,17.6-22.18,26.22c-2.96,3.39-6.48,6.3-9.87,9.29
			c-11.76,10.37-23.19,21.16-35.5,30.83c-8.73,6.86-18.84,11.94-28.04,18.24c-12.55,8.58-24.35,18.17-33.92,30.07
			c-7,8.7-13.3,17.95-19.96,26.93c-0.74,1-1.74,1.81-2.61,2.71c-0.36-0.17-0.72-0.34-1.07-0.5c0.71-2.7,1.15-5.51,2.18-8.08
			c7.72-19.26,14.64-38.91,23.59-57.59c11.37-23.73,24.37-46.68,36.79-69.9c6.14-11.48,12.78-22.7,18.75-34.26
			c4.44-8.6,6.66-15.35,8.11-19.03c9.33-23.63,11.78-26.16,36.17-81.3c14.35-32.43,15.6-35.07,21.14-46.41
			c7.26-14.86,17.6-27.6,26.05-41.55C1728.4,799.77,1729.62,803.21,1730.24,806.5z M1492.77,883.13
			c8.15,8.75,13.61,18.99,16.6,30.57c2.52,9.79,4.79,19.66,7.74,29.31c1.78,5.8,4.67,11.25,7.03,16.87
			c1.74,4.15,3.43,8.33,5.15,12.49c7.78,18.93,16.78,37.37,19.58,58.08c2.21,16.34,0.98,32.3-1.82,48.4
			c-2.59,14.89-10.11,27.93-14.81,42.02c-3.56,10.66-6.7,19.06-7.69,22.07c-3.5,10.68-9.99,30.48-12.47,55.65
			c-1.05,10.68,0.05,8.98-1.19,21.98c-2.07,21.76-6.24,45-8.19,44.83c-2.39-0.2,1.91-35.39-3.47-88.29
			c-0.56-5.48-2.18-17.61-5.41-41.87c-2.26-16.91-4.41-32.35-8.73-63.21c-2.1-15.01-3.17-22.69-4.44-31.54
			c-5.48-38.27-5.34-33.73-6.46-44.16c-2.58-24.12-2.94-48.31-2.17-72.52c0.14-4.46,1.49-8.88,2.22-13.33
			c1.71-10.45,3.39-20.92,5.05-31.19C1485.5,876.93,1489.38,879.5,1492.77,883.13z M1462.71,789.52c-1.02,3.46-2.79,6.71-4.21,10.06
			c-0.68-0.2-1.36-0.4-2.04-0.6c-0.64-9.51-0.1-19,2.87-28.12c3.44-10.6,7.78-20.91,11.26-31.5c6.31-19.22,11.8-38.6,14.07-58.88
			c1.93-17.15,4.05-34.27,9.28-50.99c3.97-12.69,7.87-25.32,13.56-37.31c10.4-21.89,26.07-39.41,45.55-53.58
			c3.39-2.46,7.42-4.31,11.42-5.63c11.85-3.91,23.81-7.46,35.77-11.02c1.48-0.44,3.18-0.25,4.77-0.16
			c8.46,0.44,11.68,1.42,8.86,11.57c-8.15,29.38-19.16,57.55-33.82,84.26c-3.57,6.5-7.88,12.66-12.33,18.62
			c-15.45,20.68-30.28,41.91-46.95,61.56c-12.43,14.66-24.33,29.6-35.03,45.49C1476.06,757.64,1467.67,772.73,1462.71,789.52z
			 M1627.5,545.74c-0.89,10.88-1.62,21.82-3.31,32.59c-3.84,24.46-7.17,49.08-12.69,73.18c-5.21,22.78-16.19,43.05-31.89,60.93
			c-18.83,21.45-40.85,38.8-64.38,54.55c-9.29,6.21-18.52,12.52-27.57,19.06c-4.45,3.22-8.44,7.08-12.63,10.65
			c-0.54-0.37-1.08-0.73-1.62-1.1c2.57-6.62,4.51-13.57,7.83-19.79c9.26-17.36,18.84-34.56,28.83-51.51
			c3.89-6.61,9.21-12.37,13.88-18.52c10.31-13.56,20.59-27.13,30.93-40.66c7.11-9.3,13.87-18.9,21.58-27.67
			c7.54-8.58,12.69-18.48,17.24-28.62c6.3-14.06,11.48-28.63,17.15-42.98c3.99-10.08,8.02-20.16,12.23-30.73
			C1627.71,537.88,1627.81,541.93,1627.5,545.74z M1643.96,412.34c0.27-1.41,1.15-2.7,2.34-5.39c2.11,3.86,3.69,6.55,5.07,9.34
			c11.29,22.76,15.7,47.31,19.67,72.14c3.41,21.34-1.3,41.34-7.36,61.3c-5.75,18.96-16.81,34.86-29.69,49.61
			c-0.27,0.31-0.92,0.3-2.52,0.76c0.34-3.18,0.63-5.97,0.94-8.76c1.66-14.57,2.84-29.22,5.15-43.68
			c1.94-12.15-2.94-21.21-10.94-29.18c-2.62-2.62-3.47-5.16-2.78-8.54c0.16-0.78,0.2-1.61,0.48-2.35
			c7.04-18.88,7.54-39.17,12.67-58.49C1640.17,437.07,1641.63,424.59,1643.96,412.34z M1605.09,430.9c0.19-2.04,0.63-4.42,1.85-5.92
			c5.36-6.6,10.86-13.09,16.69-19.28c3.24-3.44,6.91-6.81,13.05-5.83c0.38,1.51,1.21,3.21,1.18,4.9
			c-0.18,13.86-1.96,27.51-5.34,40.99c-3.49,13.91-6.53,27.93-9.87,41.88c-1.79,7.44-3.8,14.83-5.66,22.04
			c-8.79,0.76-15.89,1.37-23.15,2c-1.42-4.02-0.37-7.39,0.74-11.04c2.53-8.36,5.35-16.77,6.49-25.37
			C1603.02,460.56,1603.73,445.69,1605.09,430.9z M1540.85,365.24c1.32-10.54,0.93-21.28,1.38-31.93c0.08-2.04,0.42-4.08,0.86-8.15
			c3.98,3.39,7.02,5.23,9.06,7.85c10.97,14.13,21.14,28.77,27.48,45.7c0.75,1.99,1.48,4.04,2.59,5.83
			c9.57,15.5,12.85,32.79,12.84,50.49c-0.01,22.16-1.87,44.24-10.57,65.09c-0.2,0.49-0.34,1.01-0.51,1.52
			c-3.72,11.09-9.81,19.03-22.13,22.52c-9.86,2.79-18.39,9.19-26.19,16.34c-10.05,9.21-20.11,18.27-26.83,30.34
			c-4.78,8.58-9.41,17.24-14.11,25.86c-0.86,1.58-1.71,3.18-3.19,5.94c-2.42-6.61-0.66-12.11-0.02-17.24
			c1.61-12.92,3.77-25.81,6.49-38.55c3.39-15.86,7.29-31.62,11.48-47.29c6.32-23.66,12.52-47.38,19.81-70.75
			C1535.77,408.02,1538.18,386.62,1540.85,365.24z M1430.71,503.1c0.89-15.42,2.28-30.83,2.55-46.27
			c0.23-13.03,4.27-25.18,6.98-37.63c1.29-5.94,4.11-11.53,6.14-17.32c5.55-15.86,14.83-29.51,25.73-42.01
			c3.77-4.33,8.64-8.39,13.85-10.63c10.47-4.5,18.9-11.79,28.02-18.15c6.01-4.19,12.68-6.48,20.65-8.79
			c0.63,3.38,1.5,6.11,1.59,8.86c0.96,28.91-0.7,57.6-8.37,85.66c-7.09,25.96-14.19,51.92-21.65,77.77
			c-6.89,23.85-12.43,48-16.06,72.53c-3.43,23.19-5.83,46.53-9.18,69.74c-3.39,23.48-7.2,46.9-11.29,70.27
			c-1.13,6.46-3.93,12.63-5.96,18.93c-0.41-0.09-0.82-0.18-1.23-0.26c0.56-12.74,1.12-25.49,1.68-38.23
			c0.66-14.97-0.26-29.81-3.81-44.42c-3.79-15.58-8.36-30.89-15.95-45.13c-2.14-4.02-1.93-3.15-3.57-6.25
			c-2.34-4.43-11.48-22.63-11.48-60.79C1429.35,524,1429.91,517.04,1430.71,503.1z M1302.97,453.79c7.86,1.22,15.03,3.77,21.43,7.78
			c6.44,4.03,10.36,8.47,11.72,9.95c28.74,31.31,33.62,30.89,48.05,51.06c11.4,15.93,25.34,39.31,31.06,48.31
			c2.38,3.75,5.16,7.25,7.75,10.86c0.46,0.64,1.01,1.23,1.42,1.9c14.13,23.22,24.85,47.78,28.26,74.97
			c2.23,17.79,1.02,35.65-0.22,53.48c-0.39,5.57-0.47,11.19-1.18,16.72c-1.45,11.31-3.34,22.55-4.82,33.86
			c-0.58,4.42-0.63,8.93-0.74,13.4c-0.1,4.16,0.04,8.32,0.08,12.48c-0.62,0.08-1.23,0.16-1.85,0.24c-0.58-0.5-1.3-0.9-1.71-1.51
			c-12.77-18.93-25.77-37.7-38.12-56.91c-5.88-9.14-10.88-18.91-15.56-28.73c-7.43-15.6-14.77-31.29-21.19-47.32
			c-4.93-12.31-8.18-25.27-12.56-37.81c-2.08-5.95-5.1-11.57-7.58-17.4c-4.59-10.78-9.32-21.52-13.54-32.45
			c-2.29-5.94-3.61-12.24-5.45-18.36c-6.63-22.02-15.86-42.94-26.48-63.3c-4.76-9.12-8.86-18.58-13.48-28.35
			C1292.43,453.13,1297.7,452.97,1302.97,453.79z M1441.65,826.18c-1.08-3.24-3.05-6.18-4.64-9.25c-1.7-3.28-3.37-6.59-5.19-9.81
			c-1.18-2.07-2.44-4.14-3.96-5.96c-11.8-14.18-24.86-27.23-39.78-37.97c-13.36-9.62-27.81-17.75-41.88-26.37
			c-10.16-6.23-20.5-12.16-30.73-18.27c-9.32-5.57-19.09-10.54-27.77-16.96c-15.85-11.72-31.03-24.06-37.76-44.06
			c-4.43-13.15-5.99-26.3-5.83-40.04c0.19-16.31,3.6-32.36,3.94-48.52c0.38-17.96,6.53-34.45,9.83-51.65
			c0.55-2.88,1.29-5.76,1.49-8.66c0.87-12.52,5.6-23.8,10.99-34.86c2.59-5.31,6.05-9.93,11.88-13.61c1.84,2.43,3.7,4.58,5.23,6.95
			c12.45,19.39,21.93,40.26,29.98,61.75c5.32,14.2,9.74,28.74,14.62,43.11c7.8,22.93,15.44,45.91,23.58,68.72
			c3.76,10.53,8.53,20.7,12.83,31.04c3.07,7.39,6.18,14.75,9.13,22.19c7.88,19.88,18.05,38.49,29.35,56.68
			c9.67,15.56,17.3,32.38,25.8,48.66c1.97,3.77,3.79,7.63,5.74,11.42c6.93,13.53,13.25,27.26,14.77,42.68
			c0.25,2.55,1.02,5.04,0.32,8.15c-0.7-1.37-1.6-2.68-2.06-4.13C1448.21,847,1445.11,836.53,1441.65,826.18z M1196.6,845.88
			c26.07-6.01,49.38,0.03,67.81,19.8c5.46,5.85,8.74,13.98,12.1,21.47c11.28,25.14,24.72,49.02,41.26,71.05
			c7.35,9.79,15.58,18.92,23.34,28.41c3.19,3.9,6.62,7.71,9.14,12.02c1.4,2.4,2.77,4.81,4.11,7.24c8.24,14.91,7.3,13.18,11.18,20.79
			c4.47,8.77,7.35,14.42,10.21,21.46c6.64,16.34,4.22,18.02,10.1,32.81c3.71,9.34,9.18,17.99,13.93,26.91
			c4.46,8.37,8.99,16.69,13.87,25.73c-1.57-0.37-2.45-0.33-2.93-0.74c-8.44-7.19-16.63-14.7-25.29-21.6
			c-8.29-6.6-16.81-12.98-25.69-18.75c-16.29-10.57-32.4-21.31-46.15-35.17c-0.75-0.76-1.5-1.54-2.36-2.16
			c-24.79-17.78-44.24-40.63-61.54-65.41c-4.7-6.73-8.13-14.34-12.22-21.49c-4.05-7.09-8.21-14.12-12.31-21.18
			c-4.16-7.16-9-14.04-12.32-21.57c-6.22-14.1-12.73-28-20.27-41.46c-5.18-9.24-9.37-19.02-14.4-29.36
			C1183.08,850.22,1189.95,847.41,1196.6,845.88z M1405.43,1155.62c-9.81-4.23-19.97-5.23-30.51-4.35
			c-12.44,1.05-24.83,2.02-37.38,0.33c-8.11-1.09-16.46-0.14-24.66-0.72c-27.5-1.95-50.02-10.49-58.48-14.05
			c-35.77-15.07-57.03-37.78-68.17-49.92c-9.8-10.69-16.58-19.08-22.89-31.92c-3.69-7.5-7.44-17.13-11.4-37.21
			c-0.98-4.95-2.52-9.78-3.6-14.71c-4.02-18.45-8.44-36.83-11.7-55.41c-1.45-8.26-1.41-17.06-0.42-25.42
			c1.63-13.72,4.39-27.27,10.04-40.14c3.62-8.24,8.65-14.52,16.93-18.19c3.13-1.39,6.08-3.18,9.68-5.09
			c5.97,5.7,10.49,12.39,13.88,19.46c10.46,21.81,20.26,43.93,30.33,65.93c0.33,0.72,0.78,1.39,1.14,2.11
			c11.36,22.32,23.46,44.03,38.82,64.09c12.39,16.19,26.83,30.32,40.61,45.04c13.6,14.53,29.84,26.45,46.77,37.26
			c9.15,5.85,17.63,12.84,26,19.81c9,7.49,17.69,15.39,26.22,23.43c8.07,7.61,15.75,15.64,22.93,24.77
			C1414.85,1159.04,1410.03,1157.6,1405.43,1155.62z M1455.75,1337.27c-21.36-3.57-37.79,5.95-52.22,20.1
			c-9.5,9.32-18.54,19.15-29.56,26.71c-14.92,10.23-31.44,15.68-49.65,13.63c-10.88-1.23-21.64-4.34-30.68-10.59
			c-6.21-4.3-11.69-10.11-16.33-16.14c-6.53-8.5-14.28-14.92-26.33-19.43c3.55-2.45,5.61-3.93,7.73-5.31
			c11.59-7.56,23.07-15.31,34.84-22.58c5.22-3.22,21.14-12.18,41.45-17.54c6-1.58,34.2-8.6,69.7-0.94
			c16.38,3.53,35.99,15.55,53.23,30.05c0.34,0.29,0.39,0.92,0.81,1.97C1457.62,1337.23,1456.65,1337.42,1455.75,1337.27z
			 M1462.72,1325.38c-3.24,4.64-36.54-27.35-89.18-29.98c-10.99-0.55-30.44-1.52-51.79,7.54c-11.99,5.08-18.98,8.39-42.77,26.35
			c-9.87,7.45-21.21,12.96-32.25,19.55c-0.8-1.04-1.93-2.59-3.14-4.54c-8.15-13.15-8.53-26.46-8.62-31.49
			c-0.07-4.06,0.64-31.75,21.49-50.98c5.3-4.89,12.55-8.01,19.37-10.84c18.2-7.56,37.24-8.82,56.5-5.32
			c12.29,2.23,24.73,4.37,36.56,8.2c14.96,4.85,28.7,12.63,41.57,21.79c0.79,0.56,3.48,2.33,6.57,4.54
			C1438.64,1295.7,1465.63,1321.21,1462.72,1325.38z M1421.68,1919.09c-9.24-9.96-19.42-18.81-29.78-27.6
			c-8.57-7.27-16.44-15.57-22.7-25.46c-4.72-7.45-11.88-13.67-18.86-19.31c-9.31-7.52-20.05-12.44-31.74-15.91
			c-11.54-3.42-21.18-10.88-29.53-19.63c-4.55-4.77-9.03-9.67-12.97-14.95c-5.37-7.2-11.67-14.22-14.95-22.38
			c-9.56-23.78-16.48-48.35-14.89-74.48c0.63-10.35,0.77-20.75,1.86-31.05c0.75-7.11,2.49-14.15,4.27-21.09
			c2.05-7.98,4.65-15.81,6.97-23.71c5.83-19.9,11.37-39.9,17.58-59.68c2.05-6.54,5.53-12.7,8.94-18.7c1.65-2.89,4.31-5.58,7.14-7.35
			c6.5-4.08,13.39-7.54,21.62-12.07c4.25,10.52,8.7,19.37,11.45,28.71c9.17,31.21,15.25,63.1,20.51,95.2
			c4.54,27.64,11.97,54.64,21.46,81.05c5.32,14.8,10.15,29.77,15.51,44.56c4.08,11.26,8.87,22.26,12.93,33.53
			c3.87,10.74,7.33,21.64,10.74,32.54c3.42,10.92,6.87,21.85,9.76,32.91c3.82,14.66,7.13,29.45,10.62,44.2
			c0.41,1.73,0.57,3.52,1.07,6.8C1425.55,1922.49,1423.42,1920.97,1421.68,1919.09z M1438.12,1924.29c-1.22,0-0.46-16.3-4.67-38.73
			c-2.89-15.39-6.64-26.36-12.01-41.32c-5.83-16.24-12.91-32.04-19.64-47.96c-5.07-12-10.67-23.79-15.59-35.85
			c-5.02-12.29-9.49-24.8-14.22-37.22c-2.64-6.95-5.31-13.89-7.96-20.83c-0.47-1.24-1.08-2.46-1.37-3.75
			c-4.11-18.19-8.49-36.33-12.16-54.62c-3.87-19.3-6.35-38.9-10.72-58.08c-3.78-16.57-9.34-32.74-14.19-49.07
			c-1.2-4.04-2.68-7.98-3.99-11.82c3.96-4.05,7.71-3.19,11.48-1.36c11.08,5.38,21.52,11.72,29.2,21.63
			c6.35,8.18,12.35,16.64,18.53,24.96c9.69,13.04,19.41,26.05,29.11,39.09c11.95,16.07,24.34,32.04,30.54,51.33
			c4.88,15.19,8.3,30.86,11.97,46.42c1.58,6.7,2.22,13.62,3.15,20.46c4.29,31.8,1.24,63.27-3.74,94.74
			c-1.58,9.95-1.73,20.14-2.23,30.24c-0.68,13.54-3.73,16.53-6.32,30.23C1438.6,1907.63,1439.36,1924.29,1438.12,1924.29z
			 M1515.77,2170.31c-0.94-0.49,0.14-3,5.43-28.29c0.94-4.5,2.03-9.24,2.88-14.05c2.3-13.03,6.5-25.82,5.95-39.23
			c-0.36-9.02-1.28-18.04-2.38-27.01c-2.41-19.57-6.32-39.04-7.29-58.67c-0.79-16.04-0.16-32.43,6.83-47.83
			c3.27-7.22,5.41-14.88,9.69-21.76c5.34-8.57,12.16-15.33,20.56-20.76c7.6-4.91,14.76-10.58,22.68-14.88
			c13.3-7.23,26.49-14.76,41.36-18.74c6.64-1.78,12.98-4.79,19.34-7.51c6.2-2.65,12.37-2.18,19.54-0.92
			c-1.11,1.93-1.59,3.49-2.62,4.42c-5.42,4.87-7.85,11.42-9.8,18.03c-4.23,14.3-7.95,28.74-11.98,43.1c-2.3,8.2-4.43,16.49-7.3,24.5
			c-6.74,18.8-13.21,37.75-21.05,56.1c-7.73,18.09-16.88,35.58-25.69,53.2c-3.26,6.51-6.67,11.81-11.2,19.37
			C1560.1,2107.1,1520.74,2172.91,1515.77,2170.31z M1685.64,1934.61c-1.43,23.18-1.84,46.26,1.09,69.37
			c2.57,20.27-1.59,39.57-8.52,58.7c-6.47,17.84-16.79,32.35-30.9,44.84c-16.11,14.26-22.2,23.55-25.65,26.32
			c-5.93,4.76-14.49,11.64-27.07,16.94c-18.85,7.94-27.72,2.82-46.96,12.33c-6.59,3.26-12.53,7.81-19.87,10.95
			c2.02-2.87,3.97-5.78,6.01-8.63c1.15-1.61,2.03-2.76,2.18-2.95c44.79-59.97,65.57-107.69,65.57-107.69
			c1.5-3.44,6.82-15.22,12.2-31.23c5.16-15.37,9.63-30.97,14.5-46.44c3.43-10.91,7.04-21.77,10.57-32.65
			c1.39-4.3,2.76-8.62,4.18-12.91c4.78-14.39,9.24-28.9,14.57-43.08c1.88-5,5.9-9.19,8.98-13.79c7.44,3.48,9.86,9.52,12.42,15.29
			C1685.25,1904.2,1686.58,1919.37,1685.64,1934.61z M1766.73,1587.5c6.33,3.3,11.16,7.77,11.86,14.9
			c0.86,8.71,0.93,17.5,1.11,26.27c0.35,17.56,0.45,35.12,0.82,52.68c0.26,12.25,1.22,24.49,1.13,36.73
			c-0.11,14.28-3.98,27.9-9.28,41.07c-2.78,6.91-5.75,13.75-8.92,20.49c-6.48,13.77-16.86,24.48-27.93,34.53
			c-12.4,11.25-23.97,23.56-38.31,32.45c-7.63,4.73-15.75,8.67-23.8,12.68c-1.72,0.86-4.49,1.33-6.04,0.54
			c-9.76-4.99-19.32-2.67-28.68,0.63c-12.54,4.43-24.86,9.49-37.3,14.21c-12.8,4.85-23.92,12.6-35.17,20.13
			c-8.14,5.46-16.19,11.05-24.29,16.58c-0.31-0.29-0.61-0.57-0.92-0.86c3.86-5.68,7.79-11.31,11.58-17.04
			c14.09-21.31,27.81-42.89,42.36-63.89c6.49-9.37,14.44-17.77,22.06-26.31c9.91-11.1,20.12-21.94,30.28-32.82
			c5.44-5.83,11-11.55,16.59-17.23c15.26-15.51,26.51-33.97,37.97-52.22c8.19-13.05,15.73-26.5,23.66-39.72
			c2.27-3.79,7.56-11.4,13.76-22.42c3.93-7,5.9-10.5,8.39-15.84c6.43-13.83,7.89-21.91,16.26-32.27
			C1765.08,1589.33,1766.09,1588.2,1766.73,1587.5z M1506.32,1928.73c3.82-15.84,6-31.74,4.3-48.16c-1.04-10-1.4-20.2-0.71-30.21
			c1.19-17.18,3.23-34.31,5.33-51.41c1.55-12.63,2.94-18.87,4.46-24.35c6.79-24.49,18.46-39.9,20.82-42.94
			c3.19-4.12-0.15-2.04,24.35-22.97c15.61-13.34,29.03-28.82,43.59-43.18c0.76-0.75,1.66-1.41,2.23-2.29
			c10.87-16.65,25.37-30,39.32-43.91c14.74-14.69,29.97-28.88,47.7-39.75c18.7-11.47,38.27-11.12,57.68-0.79
			c3.76,2.01,4.94,4.44,3.09,8.4c-2.15,4.58-3.26,9.71-6.12,13.88c-8.48,12.37-16.97,40.19-59.33,102.75
			c-14.52,21.44-20.96,32.93-32.38,44.43c-15.21,15.31-31.49,29.65-45.82,45.73c-15.54,17.45-30.09,35.9-43.76,54.86
			c-14.01,19.43-26.09,40.23-39.69,59.97c-7.94,11.52-17.19,22.14-25.85,33.17c-0.65-0.3-1.31-0.6-1.96-0.9
			C1504.47,1936.95,1505.33,1932.82,1506.32,1928.73z M1509.1,1972.49c0.72,0.42,1.44,0.85,2.16,1.27
			c-2.86,33.55,0.62,57.01,4.55,72.57c0,0,7.16,33.67,3.72,56.37c-0.44,2.88-1.23,5.71-1.82,8.56c-0.92,4.45-1.74,8.92-2.69,13.36
			c-0.51,2.39-0.91,4.03-1.04,4.62c-1.77,7.68-2.66,11.53-4.36,28.77c-2.14,21.74-27.16,59.49-33.83,56.89
			c-1.85-0.72-0.94-4.01-1.54-28.45c-0.3-12.08-0.47-9.49-0.9-25c-0.52-18.72-0.08-23.9-0.56-36.7
			c-0.64-17.02-1.42-34.04-2.72-51.01c-1.11-14.57-3.34-29.06-4.51-43.63c-1.17-14.46,1.81-27.62,14.48-36.77
			C1489.71,1986.36,1499.41,1979.44,1509.1,1972.49z M1532.97,1440.04c-18.05,17.37-19.48,42.52-19.72,45.98
			c-0.41,6.04-0.03,7.72-0.31,31.07c-0.03,2.39,0.03,4.8-0.18,7.17c-2.08,23.09-4.03,46.2-6.43,69.26
			c-0.77,7.38-2.72,14.64-4.15,21.96c-4.26,21.69-8.36,43.41-12.87,65.05c-2.6,12.52-6.06,24.86-8.77,37.35
			c-2.66,12.23-5.28,24.5-7.18,36.87c-2.99,19.47-5.26,39.05-8.06,58.56c-0.97,6.77-2.43,13.46-3.73,20.18
			c-0.5,12.02-1.58,30.49-3.04,55.44c-1.94,33.14-2.94,49.71-4.66,57.97c-2.22,10.67-2.84,21.6-4.2,32.41
			c-0.3,2.36-0.14,4.77-0.18,7.16c-0.13,6.71,1.39,7.94,7.17,4.21c7.36-4.74,14.16-10.37,21.08-15.77
			c5.23-4.09,10.23-8.48,15.44-12.6c1.5-1.18,3.38-1.86,5.09-2.77c0.58,0.7,1.16,1.39,1.75,2.09c-1.99,2.26-3.72,4.82-6.01,6.72
			c-7.39,6.12-15.2,11.74-22.44,18.02c-14.22,12.35-19.84,28.07-16.22,46.57c3.86,19.67,5.63,39.48,6.06,59.47
			c0.11,5.04,1.22,10.06,1.45,15.11c0.76,16.74,1.12,33.5,2.06,50.22c0.46,8.19,2.09,16.31,2.78,24.5
			c1.28,15.04,4.06,30.06,0.78,45.22c-0.3,1.4,1.08,3.16,1.61,4.58c1.75-0.14,3.16-0.58,4.35-1.23c3.66-2.01,5.25-5.63,5.68-6.58
			c4.61-10.06,36.37-46.84,37.2-46.26c0.42,0.3-6.51,11-11.53,18.45c-12.43,18.47-14.92,19.76-20.39,29.94
			c-4.09,7.61-8.64,16.22-10,28.12c-0.68,5.94-0.5,12.06,0.61,18.44c5.09,29.39,9.34,58.92,14.52,88.29
			c3.33,18.88,7.8,37.56,11.52,56.38c5.21,26.38,9.91,52.87,15.36,79.21c5.45,26.34,11.49,52.55,17.42,78.79
			c2.46,10.9,5.33,21.71,7.97,32.58c0.37,1.53,0.79,3.19,0.59,4.7c-1.55,11.52-3.25,23.02-5.15,36.3c-1.13-2.75-1.9-3.98-2.13-5.31
			c-2.67-15.48-5.15-31-7.91-46.46c-1.35-7.58-2.97-15.12-4.81-22.59c-6.36-25.89-10.83-52.12-15.07-78.42
			c-3.38-21.01-7.04-41.98-11.1-62.87c-1.98-10.2-4.37-19.48-8.07-30.83c-5.26-16.13-8.36-20.42-11.81-30.97
			c-3.86-11.78-3.66-17.64-5.74-46.87c-2.03-28.42-3.8-45.05-5.56-65.1c-2.78-31.61-3.62-31.48-4.31-46.11
			c-1-21.2,0.2-24.87-1.07-46.19c-1.12-18.83-2.08-16.29-4.14-41.91c-1.93-24.04-1.4-30.26-3.72-53.97
			c-1.02-10.45-1.98-17.94-3.03-26.2c-1.27-9.94-1.97-14.9-4-28.21c-5.22-34.27,0.8-93.71,0.8-93.71
			c3.93-37.73,12.24-107.07,14.75-106.81c0,0,0,0,0,0c1.55-11.8,3.18-23.59,4.52-35.42c1.2-10.54,1.3-21.24,2.93-31.7
			c2.74-17.62,6.01-35.18,9.6-52.65c3.21-15.61,7.31-31.03,10.72-46.6c1.88-8.57,3.29-17.26,4.66-25.93
			c2.16-13.67,4.93-27.31,5.96-41.07c1.66-22.03,2.23-44.15,3.01-66.24c0.59-16.51,1.14-33.03,1.1-49.55
			c-0.08-32.76,2.86-52.19-1.13-79.08c-1.74-11.72-3.66-18.82-7.67-26.16c-8.91-16.31-23.48-25.23-22.3-26.91
			c1.18-1.67,13.77,9.96,21.53,6.15c11.38-5.6,5.27-40.97,4.61-44.59c-1.86-10.35-4.86-18.08-7.78-37.89
			c-0.75-5.05-0.74-4.63-1.16-8.47c-1.42-13.08-4.89-25.52-9.76-37.77c-5.96-14.97-14.76-28.12-24.24-40.88
			c-9.67-13.02-20.03-25.52-29.69-38.54c-5.38-7.25-9.93-15.12-14.91-22.67c-18.76-28.49-28.32-60.1-31.34-93.8
			c-1.33-14.85,0.82-29.24,8.5-42.39c9.9-16.97,14.73-30.02,31.15-53.01c10.97-15.37,21.09-27.28,36.17-37.46
			c4.28-2.89,15.86-10.71,19.22-7.69c2.83,2.54-2.99,10.28-7.07,23.22c-4.07,12.88-3.24,30.62-1.57,66.09
			c0.5,10.65,0.94,17.18,1.38,20.71c2.46,19.68,3.43,28.67,7.55,57.8c2.4,16.96,3.9,28.87,6.35,48.2
			c1.77,13.94,2.74,22.43,3.37,28.14c0.51,4.69,0.88,8.18,1.03,9.63c7.73,74.13,9.73,73.77,8.95,89.87
			c-0.8,16.45,2.78,33,1.18,49.39c-0.04,0.39,0.61,5.44,2.39,10.02c0.87,2.23,3.56,3.29,5.07,0.97c2.09-3.2,4.01-6.88,4.68-10.59
			c1.93-10.71,6.72-14.13,10.25-41.66c2.81-21.91-0.5-20.85,2.57-38.89c2.21-13.01,5.57-23.19,8.33-31.46
			c4.27-12.79,6.41-15.06,12.6-31.89c4.41-12,8.36-24.17,12.48-36.28c5.07-14.91,6.17-30.32,4.66-45.81
			c-1.13-11.63-2.83-23.28-5.42-34.66c-1.93-8.48-5.49-16.62-8.7-24.76c-5.27-13.35-10.78-26.62-16.34-39.86
			c-3.99-9.49-0.67-18.15,2.66-26.84c2.94-7.68,6.58-15.14,8.89-22.99c6.47-21.98,15.6-42.56,31.1-59.67
			c6.55-7.23,13.98-13.6,22.78-18.5c18.2-10.13,37.84-15.6,57.93-19.98c11.17-2.44,22.3-5.23,33.59-6.88
			c7.31-1.07,14.89-0.64,22.32-0.33c3.26,0.13,6.46,1.63,10.2,2.65c-0.98,2.37-1.3,3.97-2.18,5.17
			c-9.01,12.36-15.3,26.19-21.59,39.98c-11.38,24.96-22.51,50.04-33.62,75.12c-6.26,14.11-11.91,28.51-18.53,42.44
			c-5.82,12.25-12.37,24.17-19.02,36c-7.96,14.17-16.58,27.97-24.55,42.13c-11.24,19.96-22.64,39.86-32.98,60.29
			c-5.26,10.38-8.25,21.9-12.46,32.84c-8.72,22.67-16.01,45.84-20.95,69.57c-8.04,38.58-15.8,56.96-15.96,57.74
			c-6.72,33.28-6.84,61.97-7.08,119.36c-0.14,33.28-0.36,35.43-0.34,44.69c0.02,5.41-1.61,9.13-0.18,14.32
			c0.33,1.22,3.05,10.73,8.53,12.09c5.12,1.27,10.45-5.14,25.67-25.44c22.47-29.96,26.21-36.96,29.26-41.87
			c8.65-13.93,13.55-29.42,13.57-46.19c0.01-11.4,3.88-21.98,8.43-32.2c2.02-4.54,5.46-8.45,8.26-12.64
			c10.09-15.08,22.83-27.34,39.32-35.11c5.69-2.68,11.99-4.47,18.21-5.52c13.09-2.2,26.26-4.32,39.48-5.24
			c16.36-1.13,32.09,2.9,47.65,7.83c15.69,4.97,31.63,9.15,47.44,13.71c13.28,3.83,26.77,7.08,39.74,11.77
			c9.95,3.6,19.36,8.79,28.76,13.74c5.28,2.78,9.3,7.28,11.36,13c3.24,9.02,6.35,18.1,9.13,27.27c2.06,6.79,1.18,8.01-4.96,11.5
			c-10.88,6.18-21.48,12.88-32.55,18.68c-12.95,6.78-26.17,12.83-40.17,17.54c-20.79,7-41.89,7.1-63.21,6.38
			c-23.46-0.79-46.86-0.01-70.24,1.87c-8.29,0.67-15.13,1.82-17.29,2.14c-11.78,1.73-24.63,3.61-38.68,7.77
			c-16.99,5.03-28.44,11.95-40.32,17.5c-16.71,7.81-28.08,17.94-35.08,23.29C1536.51,1437.08,1534.22,1438.84,1532.97,1440.04z
			 M1884.69,1371.75c-4.11,17.45-13.14,32.36-24.82,45.85c-12.53,14.48-27.48,25.87-44.03,35.26c-3.45,1.96-7.18,3.48-10.86,4.98
			c-15.51,6.32-32.07,8.02-48.42,8.76c-15.58,0.7-31.29-1.02-46.6-5.03c-15.44-4.04-31.06-7.43-46.46-11.59
			c-6.38-1.72-12.5-4.51-18.58-7.17c-12.52-5.47-25.62-6.68-39.06-5.96c-8.23,0.44-16.49,0.52-24.71,1.1
			c-9.99,0.71-20.29-0.12-30.19,6.48c0.47-2.18,0.39-3.07,0.8-3.48c16.91-16.89,36.65-29.03,59.81-35.33
			c10.8-2.94,19.83-5.65,37.73-9.98c18.3-4.43,27.46-6.64,27.54-6.65c14.6-2.65,23.63-3.45,54.09-2.25
			c15.66,0.62,31.47,1.23,47.03-0.18c19.45-1.76,37.9-8.31,55.65-16.46c12.37-5.68,24.23-12.23,35.05-20.63
			c4.74-3.68,10.13-6.47,16.7-8.56C1887.39,1351.89,1887,1361.93,1884.69,1371.75z"/>
	</g>
</g>
</svg>
