<?xml version="1.0" encoding="utf-8"?>
<!-- Generator: Adobe Illustrator 24.0.1, SVG Export Plug-In . SVG Version: 6.00 Build 0)  -->
<svg version="1.1" id="Слой_1" xmlns="http://www.w3.org/2000/svg" xmlns:xlink="http://www.w3.org/1999/xlink" x="0px" y="0px"
	 viewBox="0 0 3000 3000" style="enable-background:new 0 0 3000 3000;" xml:space="preserve">
<style type="text/css">
	.st0{fill:none;}
	.st1{fill:#45482A;}
</style>
<rect class="st0" width="3000" height="3000"/>
<g>
	<g>
		<path class="st1" d="M1897.54,1070.14c-1.37-1.34-3-1.85-3.61-2c-2.64-0.67-5.65,0.12-9.2,2.32c-0.53,0.33-0.98,0.76-1.5,1.11
			c-15.08,10.09-28.58,22.07-38.81,37c-15.05,21.98-29.44,44.43-43.49,67.06c-16.64,26.83-32.64,54.05-48.88,81.13
			c-4.3,7.17-9.17,14.1-12.54,21.7c-8.2,18.49-21.64,32.5-37.45,44.18c-19.16,14.15-40.3,25.72-56.91,43.17
			c-11.54,12.12-22.82,24.52-33.64,37.28c-8.41,9.92-15.16,21.32-24.01,30.78c-14.75,15.77-26.16,33.8-37.68,51.79
			c-8.02,12.52-15.16,25.6-22.81,38.37c-0.94,1.57-2.53,2.76-3.82,4.12c-0.64-0.24-1.28-0.47-1.91-0.71
			c0.37-8.24,1.15-16.49,1.05-24.73c-0.38-31.51,7.59-62.06,10.31-93.22c0.97-11.09,3.54-22.08,4.06-33.18
			c0.93-19.84,5.25-38.62,15.66-55.56c5.48-8.93,11.21-18.16,18.68-25.32c19.91-19.08,38.18-39.62,56.63-60.03
			c15.8-17.47,32.47-34.19,47.45-52.32c10.65-12.89,18.4-27.83,20.85-44.99c2.28-15.95,4.38-31.98,7.86-47.69
			c4.45-20.1,6.44-40.44,6.41-60.84c-0.02-20.42-1.51-40.89-3.43-61.24c-1.45-15.37,0.21-30.26,3.17-45.18
			c0.9-4.56,1.92-9.09,2.66-13.68c3.27-20.17,6.46-40.36,9.67-60.54c2.09-13.15,4.95-26.24,6.05-39.48
			c1.09-13.22,0.3-26.6,0.59-39.9c0.1-4.47-0.73-7.96-5.31-9.7c-4.75-1.8-8.47-0.28-11.59,3.37c-1.21,1.42-2.64,2.74-3.47,4.36
			c-3.66,7.16-7.82,14.18-10.56,21.69c-7.44,20.38-13.29,41.25-19.09,62.17c-9.86,35.59-18.65,71.38-25.11,107.73
			c-3.74,21.05-7.41,42.12-10.84,63.23c-5.11,31.51-9.86,63.07-15,94.57c-1.79,11-3.47,22.12-6.63,32.76
			c-6.18,20.86-14.7,40.9-25.64,59.71c-4.45,7.65-10.04,15.1-16.61,20.96c-9.6,8.55-18.11,17.78-25.29,28.35
			c-4.18,6.15-8.36,12.29-12.46,18.49c-1.15,1.74-2.04,3.66-3.05,5.5c-0.84-0.45-1.69-0.9-2.53-1.35c-0.21-2.64-0.72-5.3-0.6-7.93
			c1.26-26.29,2.62-52.57,3.97-78.85c0.46-8.98,1.56-17.97,1.33-26.93c-0.59-23.55-1.75-47.09-2.67-70.63
			c-0.51-13.01-2-26.07-1.26-39.01c0.93-16.37-2.41-31.94-5.12-47.82c-2.18-12.76-1.53-25.84,1.14-38.75
			c3.33-16.09,12.29-29.71,18.76-44.4c8.88-20.17,16.97-40.59,23.46-61.63c3.84-12.43,7.46-24.93,11.3-37.36
			c3.01-9.74,6.81-19.28,9.14-29.17c2.83-12.04,5.77-24.29,6.37-36.56c1.06-21.65,0.24-43.38,0.47-65.08
			c0.32-30.03,0.81-60.06,1.4-90.08c0.17-8.67,1.16-17.33,1.37-26c0.13-5.57-0.35-11.16-0.81-16.72c-0.39-4.7-4.3-5.69-7.93-6.59
			c-3.43-0.85-5.19,1.52-6.35,4.18c-1.74,3.97-3.45,7.97-4.78,12.09c-7.76,24.03-9.52,49.26-14.57,73.84
			c-2.37,11.52-4.23,23.18-7.29,34.52c-6.16,22.84-9.84,46.01-11.02,69.59c-0.7,13.94-0.62,27.91-1.39,41.84
			c-1.87,33.79-12.57,65.7-22.21,97.69c-4.3,14.26-7.55,28.62-10.58,43.11c-0.53,2.53-1.28,5.01-2.19,8.48
			c-1.38-1.78-2.14-2.38-2.41-3.16c-4.51-13.02-6.18-26.43-6.54-40.2c-0.28-10.79-1.06-21.73-3.24-32.26
			c-3.58-17.26-8.6-34.23-12.79-51.37c-4.45-18.2-13.1-34.68-20.56-51.66c-1.72-3.91-3.07-8.07-3.96-12.25
			c-2.33-10.92-0.02-21.81,2.53-32.18c8.29-33.67,14.49-49.95,25.52-67.55c8.41-13.41,12.77-16.31,23.15-34.54
			c1.42-2.5,4.48-10.99,13.22-26.58c7.75-13.82,11.67-28.61,12.57-44.26c0.1-1.75-1.27-4.18-2.73-5.2
			c-0.91-0.63-3.76,0.31-4.85,1.42c-2.12,2.17-3.76,4.86-5.34,7.49c-5.09,8.5-9.23,17.74-15.28,25.48
			c-9.33,11.93-20,22.81-29.99,34.24c-3.04,3.48-6.73,6.88-8.35,11.02c-3.02,7.71-5.56,13.15-6.68,17.44
			c-5.65,21.53-10.24,21.45-16.1,44.39c-3.18,12.46-3.32,18.31-4.38,18.25c-2.13-0.11-3.87-23.71-1.07-48.54
			c0.58-5.11,0.91-8.78,1.85-12.86c3.89-16.91,7.9-33.8,12.01-50.66c3.23-13.25,6.99-26.39,9.91-39.7
			c1.92-8.74,3.46-17.68,3.96-26.59c1.58-27.88,1.49-55.78-1.55-83.59c-0.13-1.22,0.02-2.48,0.04-3.72
			c0.23-20.15,0.4-40.3,0.74-60.45c0.08-4.65-1.66-7.76-6.07-9.29c-4.51-1.55-8.5,0.03-10.42,3.83c-3.32,6.57-6.9,13.4-8.2,20.51
			c-2.93,15.97-0.53,32.13,0.16,48.22c0.46,10.8,0.85,21.81-0.7,32.44c-2.59,17.76-6.89,35.26-10.24,52.91
			c-4.15,21.92-8.25,43.85-11.97,65.84c-1.49,8.81-2.77,17.83-2.58,26.72c0.22,10.81,2.13,21.59,3.18,32.39
			c0.14,1.42-0.49,2.91-0.76,4.37c-1.94-5.33-2.58-10.54-3.59-15.66c-4.48-22.6-5.14-45.55-6.31-68.44
			c-0.6-11.73-0.31-23.5-0.83-35.23c-0.23-5.23-1.04-10.51-2.31-15.59c-5.48-21.91-10.98-43.83-16.98-65.6
			c-3.7-13.43-8.36-26.59-12.54-39.89c-4.09-13-8.13-26.01-12.2-39.02c-2.86-9.16-5.79-18.3-8.58-27.49
			c-2.81-9.26-2.58-9.95-3.89-14.33c-4.07-13.54-14.05-38.31-20.57-37.27c-5.55,0.88-8.91,20.52-6.92,33.57
			c0.3,1.94,0.9,6.47,2.04,13.63c0.5,3.16,1,7.26,1.36,13.13c0.93,15.1,0.81,23.07,0.72,37.07c-0.05,7.61-0.03,37.7,5.01,67.12
			c1.2,7.02-3.03,11.27,12.07,45.74c12.15,27.74,19.74,56.77,24.94,86.45c3.83,21.88,13.54,35.49,23.98,59.13
			c20.67,46.8,36.45,73.87,34.63,74.94c-1.85,1.09-16.55-28.1-48.92-64.25c-12.26-13.7-14.82-14.72-37.7-39.71
			c-17.45-19.06-26.21-28.93-34.97-40.94c-10.41-14.28-20.38-28.83-27.16-45.39c-4.09-10-9.53-19.44-14.25-29.19
			c-2.83-5.84-5.87-11.63-8.07-17.72c-5.99-16.56-15.7-30.93-25.93-45c-3.09-4.24-7.99-7.04-12.97-5.54
			c-5.42,1.63-4.48,7.35-4.66,11.98c-0.43,11.16,2.99,21.46,7.23,31.49c12.66,29.94,26.95,59.29,37.83,89.86
			c8.43,23.68,23.63,42.12,39.18,60.39c10.57,12.42,23.92,22.51,36.24,33.41c32.26,28.53,65.34,55.91,91.68,90.78
			c22.01,29.14,36.96,60.87,45.27,95.9c5.85,24.69,10.06,49.77,14.86,74.7c5.73,29.8,11.59,59.57,16.81,89.46
			c1.8,10.32,2.3,20.94,2.61,31.45c0.62,20.74,0.7,41.49,1.01,62.24c0.02,1.24,0.05,2.48,0.04,3.72
			c-0.29,24.71-0.74,49.41-0.83,74.12c-0.09,24.11,1.82,28.46,0.57,47.35c-0.25,3.79-2.04,30.91-5.91,31.07
			c-2.35,0.1-3.41-9.84-10.41-29.77c-1.7-4.82-4.1-13.37-8.89-22.28c-7.02-13.07-15.06-25.59-22.39-38.5
			c-4.43-7.79-7.87-16.16-12.58-23.76c-6.31-10.16-14.71-19.01-19.02-30.46c-2.39-6.36-5.3-12.55-7.37-19.01
			c-4.24-13.25-9.2-26.41-11.79-40c-3.41-17.92-5.22-36.17-6.97-54.36c-2.2-22.76-9.43-43.47-22.6-62.17
			c-10.61-15.06-19.2-31.21-24.08-49.04c-4.66-17.02-9.31-34.09-12.79-51.37c-2.13-10.55-2.79-21.54-2.77-32.33
			c0.03-13,1.78-25.99,2.28-39c0.67-17.35,1.01-34.72,1.14-52.09c0.03-3.93-1.03-7.99-2.26-11.77c-1.66-5.09-6.4-6.63-11.02-7.36
			c-4.34-0.69-5.43,3.43-7.08,6.27c-2.8,4.82-5.75,9.6-8.04,14.66c-7.85,17.34-12.88,35.68-15.54,54.36
			c-2.7,18.97-3.46,38.25-4.5,57.42c-1.3,23.95,1.86,47.62,5.62,71.21c1.07,6.74,1.85,13.52,2.81,20.27
			c1.67,11.64,3.56,23.25,5.02,34.92c2.36,18.74,4.44,37.52,6.67,56.28c0.15,1.22,0.46,2.44,0.84,3.61
			c6.21,19.16,12.78,38.22,18.58,57.5c4.94,16.41,14.5,30.21,24.32,43.68c6.5,8.93,14.28,17.39,22.97,24.16
			c19.91,15.5,39.21,31.41,53.62,52.42c12.62,18.4,26.17,36.25,37.46,55.43c10.18,17.3,18.13,35.95,26.46,54.27
			c2.23,4.89,3.12,10.79,3.11,16.22c-0.03,11.43-1.27,22.85-1.63,34.28c-0.43,13.6-0.09,27.23-0.78,40.81
			c-0.63,12.35-2.12,24.67-3.37,36.98c-0.73,7.21-1.75,14.39-2.64,21.58c-2.09-2.79-2.54-5.5-3.07-8.2
			c-3.59-18.25-6.96-36.55-15.77-53.28c-4.61-8.77-8.86-17.72-13.37-26.54c-9.46-18.46-18.9-36.93-28.52-55.31
			c-3.44-6.59-7.54-12.83-11.02-19.4c-13.91-26.21-24.83-54.12-44.67-76.91c-2.9-3.33-5.28-7.77-10.07-7.12
			c-5.05,0.69-6.25,5.89-6.91,10.02c-1.34,8.52-2.44,17.15-2.65,25.76c-0.31,12.71,0.92,25.47,0.27,38.15
			c-1.18,23.06,2.14,45.8,4.87,68.47c2.09,17.43,6.88,34.61,11.33,51.68c5.42,20.79,14.21,40.31,24.09,59.36
			c4.97,9.6,10.21,19.19,13.82,29.33c4.93,13.81,10.67,27.09,18.24,39.63c2.88,4.76,5.64,9.69,7.7,14.84
			c7,17.54,14.04,35.09,20.3,52.9c3.27,9.31,6.06,19.05,7.14,28.81c1.84,16.61,2.2,33.38,3.03,50.09c0.11,2.22-0.9,3.58-1.36,5.22
			c-7.93,28.1-10.53,52.08-17.68,89.76c-2.55,13.42-5.4,26.53-11.15,52.73c-3.52,16.04-7.16,32.05-10.94,48.02
			c-2.83,11.95-5.95,23.83-9.01,35.72c-0.56,2.18-1.45,4.27-2.73,7.94c-5.32-13.33-6.47-25.66-7.89-37.88
			c-1.64-14.15-2.04-28.48-4.32-42.51c-3.52-21.63-8.22-43.08-12.37-64.61c-1.99-10.33-3.97-20.66-5.74-31.03
			c-1.04-6.06-1.61-12.2-2.45-18.3c-2.4-17.47-4.07-35.09-7.48-52.36c-2.63-13.31-8.08-26.03-11.15-39.28
			c-3.26-14.04-8.61-27.18-14.33-40.26c-7.56-17.29-18.17-32.48-32.41-44.85c-19.46-16.9-37.05-35.52-53.24-56.06
			c0.84-8.35,1.25-17.06,2.69-25.6c2.49-14.75,2.83-29.57,2.12-44.4c-0.23-4.77-1.73-9.83-3.93-14.09
			c-4.33-8.4-13.98-9.93-20.98-3.52c-8.47,7.75-16.43,15.98-21.79,26.37c-1.93,3.74-4.4,7.2-6.62,10.78
			c-1.37-0.86-2.07-1.07-2.38-1.53c-10.92-16.39-25.1-30.59-33.01-49.02c-0.73-1.69-1.74-3.33-2.92-4.74
			c-11.59-13.94-15.89-31.39-22.18-47.72c-2.91-7.55-5.51-15-10.03-21.73c-4.48-6.67-8.32-13.55-11.38-21.16
			c-3.04-7.56-8.7-14.2-13.89-20.69c-1.94-2.43-5.66-3.81-8.83-4.84c-6.7-2.17-10.48-0.46-13.49,5.98
			c-5.39,11.52-6,24.07-6.06,36.38c-0.09,16.69,0.41,33.43,4.32,49.86c2.15,9.02,2.22,18.81,5.78,27.17
			c7.14,16.78,14.02,33.77,24.16,49.18c8.01,12.17,15.26,24.77,25.74,35.18c7.9,7.85,15,16.51,22.75,24.52
			c5.19,5.36,5.83,11.92,4.07,18.14c-3.19,11.28-7.3,22.34-11.59,33.27c-10.04,25.58-16.18,52.16-19.51,79.28
			c-3.15,25.58-6.22,51.01-14.54,75.61c-4.86,14.37-9.61,28.97-12.29,43.85c-5.27,29.26-9.62,58.72-13.27,88.24
			c-2.74,22.14-3.97,44.48-0.67,66.79c2.54,17.18,5.33,34.35,7.17,51.61c3.08,28.93,14.92,54.89,26.53,80.93
			c8.08,18.13,16.88,35.93,25.22,53.95c8.46,18.27,16.41,36.79,25.22,54.9c2.32,4.77,8.67,21.2,19.61,55.02
			c18.14,56.08,27.47,84.93,33.23,125.57c3.48,24.57,5.4,47.14,5.51,60.12c0.13,14.85,1.12,29.7,0.87,44.53
			c-0.2,11.72-1.07,23.5-2.77,35.09c-2.08,14.12-6.73,27.54-12.2,40.85c-8.23,20-13.95,41.06-22.56,60.88
			c-8.86,20.42-19.57,40.07-30.09,59.72c-8.17,15.25-17.26,30.01-26.04,44.92c-3.13,5.31-6.53,10.47-9.86,15.66
			c-2.85,4.45-2.84,6.71-2.15,8.56c1.5,4.05,7.7,5.26,13.94,6.47c4.42,0.86,7.62,0.31,12.1,0.76c7.62,0.77,12.79-0.92,15.03-9.02
			c1.38-5,4-9.73,6.52-14.33c5.49-10.04,11.54-19.79,16.85-29.92c3.72-7.1,6.77-14.57,9.79-22.01
			c8.71-21.46,17.31-42.97,25.84-64.51c2.05-5.17,3.42-10.61,5.49-15.77c7.98-19.8,16.16-39.53,24.18-59.31
			c5.45-13.45,10.79-26.94,16.11-40.44c1.36-3.46,2.81-6.94,3.62-10.54c2.8-12.49,7.52-24.17,13.46-35.49
			c11.37-21.66,18.37-45.4,31.64-66.19c11.01-17.23,21.75-34.54,37-48.62c11.84-10.93,23.28-22.31,34.43-33.94
			c16.89-17.62,35.69-32.53,57.86-42.98c10.36-4.89,21.28-8.9,30.94-14.93c24.93-15.54,50.48-30.1,71.69-51.21
			c14.76-14.69,29-29.4,39.94-47.29c9.85-16.11,22.5-30.45,30.37-47.84c2.56-5.65,5.31-11.21,7.84-16.88
			c6.56-14.69,13.74-29.16,19.42-44.19c10.79-28.51,17.39-58.28,22.27-88.25c4.73-29.02,7.67-58.36,10.66-87.64
			c1.92-18.79,2.54-37.71,3.73-56.57c2.14-33.94,11.86-66.35,20.05-99.07c5.34-21.32,11.25-42.56,15.34-64.13
			c5.37-28.29,9.53-56.83,13.58-85.35c2.04-14.38,2.61-28.97,4.01-43.45c0.47-4.89-2.43-7.44-5.91-9.67c-3.59-2.29-6.89-0.71-9.12,2
			c-3.89,4.73-8.4,9.46-10.57,15c-5.63,14.39-10.12,29.23-15.07,43.88c-2.77,8.21-5.98,16.3-8.27,24.64
			c-8.39,30.55-17.7,60.8-29.97,90.01c-5.15,12.25-12.13,23.72-17.79,35.77c-6.45,13.72-13.08,27.43-18.36,41.62
			c-12.23,32.89-20.07,67.11-29.05,100.97c-2.86,10.78-5.43,21.66-7.69,32.58c-4.9,23.64-9.41,47.36-14.3,71.01
			c-2.19,10.62-5,21.11-7.36,31.7c-4.73,21.17-8.9,42.49-14.23,63.51c-2.5,9.84-6.11,19.72-11.09,28.54
			c-11.42,20.23-18.75,42.66-32.7,61.47c-8.63,11.65-15.98,24.22-27.27,33.95c-13.12,11.31-25.16,23.86-37.89,35.62
			c-7.94,7.33-16.22,14.07-25.66,19.75c-11.01,6.63-21.53,14.81-30.4,24.1c-14.33,15.02-26.05,30.54-32.17,39.49
			c-8.31,12.15-11.99,19.34-13.75,18.63c-2.73-1.11,2.31-20.02,6.03-34c3.22-12.08,4.37-9,8.26-27.58
			c3.31-15.83,8.19-31.04,14.92-45.7c0.78-1.69,1.77-3.31,2.3-5.07c4.38-14.53,8.33-29.19,13.08-43.59
			c7.58-22.94,14.73-45.95,18.86-69.83c1.42-8.19,3.51-16.32,5.98-24.27c1.74-5.58,4.53-10.84,7.04-16.15
			c4.61-9.8,9.28-19.57,14.08-29.28c2.06-4.16,4.71-8.02,6.75-12.19c6.56-13.34,13.08-26.7,19.38-40.16
			c18.15-38.76,15.53-32.78,21.98-48.13c8.59-20.47,14.3-36.46,16.67-43.26c4.3-12.29,6.71-21.18,10.59-32.7
			c6.83-20.26,12.64-40.8,15.98-61.94c0.58-3.66,1.12-7.33,1.64-11c2.09-14.76,3.89-28.13,4.37-32.23
			c2.21-19.07,4.4-37.98-2.34-58.17c-3.46-10.38-11.99-36.11-16.52-50.36c-0.76-2.37-1.04-5.77,0.1-7.71
			c3.14-5.31,6.96-10.26,10.87-15.06c6.25-7.66,13.4-14.64,19.08-22.68c16.62-23.54,32.58-47.56,49.08-71.19
			c5.49-7.86,10.83-16.34,18.08-22.3c7.23-5.94,13.16-12.88,19.73-19.31c1.33-1.3,2.55-2.78,4.07-3.81
			c10.53-7.11,21.05-14.23,31.71-21.13c12.21-7.9,24.75-15.29,36.8-23.41c10.02-6.75,20.05-13.66,29.14-21.57
			c10.24-8.91,20.52-18.18,28.84-28.81c12.58-16.08,22.63-33.96,30.28-53.03c2.19-5.45,4.05-11.02,6.25-16.46
			c5.01-12.33,10.47-24.48,15.16-36.93c11.61-30.77,24.57-60.94,39.54-90.23c3.94-7.71,8.52-15.09,12.4-22.83
			c3.78-7.54,9.95-14.85,11.67-25.34C1900.5,1076.46,1899.94,1072.49,1897.54,1070.14z M1384.58,1127.62
			c-20.91-21.6-31.89-48.37-40.63-76.4c-1.84-5.91-4.13-11.69-5.81-17.65c-2.26-8.04-4.93-16.08-6.02-24.31
			c-3.05-23.05-5.04-46.24-8.07-69.28c-2.75-20.86-6.64-41.58-9.4-62.44c-1.42-10.7-2.05-21.58-2.01-32.38
			c0.05-13.92,1.52-27.83,1.67-41.75c0.22-20.71,4.63-40.57,10.83-60.15c0.52-1.65,1.71-3.09,2.6-4.63
			c0.71,0.13,1.42,0.25,2.12,0.38c-0.14,4.27-0.14,8.55-0.46,12.81c-1.26,16.96-5.91,33.61-4.92,50.78
			c0.52,8.96,1.39,17.89,1.86,26.85c0.68,13,0.49,26.08,1.87,39c1.71,15.96,4.59,31.8,7.07,47.68c2.05,13.1,4.58,26.14,6.29,39.29
			c2.02,15.55,7.02,30.17,13.21,44.38c6.6,15.14,10.46,30.99,14.35,46.93c2.57,10.49,6.06,20.78,9.56,31.02
			c6.4,18.75,11.39,38.02,20.68,55.7c1.85,3.52,3.37,7.21,5.05,10.83C1400.25,1142.53,1390.19,1133.41,1384.58,1127.62z
			 M1508.93,1292.65c-2.19-3.91-4.82-7.64-6.48-11.77c-10.97-27.15-26.24-51.97-42.53-76.03c-11.09-16.37-10.94-11.22-31.4-37.79
			c-13.96-18.13-21.08-27.5-28.12-41.95c-3.68-7.55-10.21-17.86-15.24-40.75c-2.49-11.33-7.62-22.06-11.05-33.21
			c-4.61-15.02-8.48-30.26-13.13-45.26c-2.37-7.66-5.85-14.98-8.67-22.51c-5.59-14.93-8.11-30.47-9.55-46.31
			c-0.66-7.33-2.7-14.58-4.56-21.76c-5.56-21.5-6.51-43.46-7.07-65.5c-0.23-8.97-0.91-17.98-2.06-26.88
			c-1.89-14.55-2.06-29.03-0.44-43.6c1.64-14.78,3.06-29.58,4.57-44.36c0.63-6.14,1.68-12.15,4.52-17.63
			c0.77,0.02,1.53,0.04,2.3,0.07c0.45,2.28,1.33,4.57,1.29,6.85c-0.19,11.46-0.61,22.91-0.96,34.36
			c-0.41,13.64-0.76,27.29-1.26,40.93c-0.3,8.05-1.64,16.15-1.08,24.12c0.78,11.09,2.1,22.29,4.65,33.09
			c4.21,17.79,8.68,35.62,14.79,52.81c4.32,12.15,10.19,24.23,17.72,34.65c18,24.89,25.44,52.77,27.03,82.73
			c2.05,38.72,12.05,75.25,30.65,109.2c8.18,14.92,17.69,29.13,26.94,43.44c17.21,26.61,33.06,53.79,41.28,84.8
			c1.97,7.45,5.42,14.51,8.07,21.8C1509.84,1288.03,1510.06,1290.05,1508.93,1292.65z M1566.25,1477.26
			c10.63-16.92,23.79-31.7,36.31-47.06c11.94-14.64,23.53-29.57,35.81-43.92c14.8-17.29,31.66-32.3,51.38-43.96
			c17.53-10.36,32.85-23.5,45.33-39.53c5.63-7.22,9.49-15.85,13.91-23.97c2.81-5.15,4.81-10.77,7.84-15.78
			c22.16-36.6,44.2-73.28,66.87-109.56c11.15-17.85,21.7-36.27,36.84-51.29c4.97-4.93,10.38-9.4,15.6-14.08
			c0.53,0.58,1.06,1.16,1.6,1.73c-1.9,3.18-3.47,6.63-5.75,9.51c-29.84,37.79-50.33,90.95-50.33,90.95
			c-9.12,20.72-8.92,24.16-19.72,47.11c-7.56,16.06-11.68,23.89-17.39,33.88c-13.24,23.17-30.25,42.93-52.55,58.13
			c-14.07,9.59-26.79,21.19-40.99,30.56c-17.19,11.34-32.93,24.37-47.38,38.8c-13.35,13.34-26.29,27.31-37.72,42.29
			c-15.4,20.18-29.46,41.41-43.56,62.55c-11.16,16.73-21.51,34.01-32.21,51.05c-0.65,1.04-1.12,2.18-2.16,4.23
			c-2.22-3.19-3.39-4.86-4.43-6.35C1535.48,1525.86,1550.94,1501.63,1566.25,1477.26z M1715.52,797.27
			c0.31-1.02,0.86-1.97,1.29-2.96c0.65,0.13,1.29,0.25,1.94,0.38c-1,10.3-1.44,20.69-3.1,30.88c-3.99,24.46-9.01,48.76-12.74,73.26
			c-3.31,21.7-8.98,43.17-7.82,65.39c0.54,10.22,1.77,20.4,2.19,30.61c0.73,17.64,1.76,35.32,1.35,52.94
			c-0.28,12.32-2.43,24.64-4.32,36.87c-2.75,17.75-6.17,35.39-9.02,53.13c-2.08,12.91-7.87,24.15-15.53,34.35
			c-5.93,7.9-12.95,14.99-19.54,22.39c-4.74,5.32-9.62,10.53-14.38,15.83c-18.84,20.99-37.65,42-56.51,62.97
			c-1.14,1.27-2.6,2.24-3.91,3.36c-0.48-0.41-0.96-0.82-1.44-1.23c4.06-5.51,7.74-11.35,12.24-16.47
			c17.28-19.64,30.07-42.38,44.29-64.09c7.95-12.15,15.04-24.98,21.24-38.11c4.45-9.42,6.37-19.99,10.15-29.77
			c7.03-18.16,8.16-37.44,11.09-56.33c2.85-18.35,4.7-36.89,5.96-55.42c1.24-18.22,0.64-36.57,1.87-54.8
			c0.98-14.48,2.92-28.97,5.48-43.26c3.87-21.65,8.59-43.16,13.08-64.7c0.95-4.53,2.45-8.95,3.76-13.4
			C1707.25,825.15,1711.38,811.21,1715.52,797.27z M1549.17,1284.18c5.79-8.42,11.11-17.19,17.26-25.34
			c4.83-6.4,9.98-12.83,16.09-17.93c12.38-10.36,21.41-22.84,28.04-37.43c10.53-23.15,21.14-46.3,25.74-71.51
			c2.82-15.49,4.37-31.21,6.78-46.78c3.12-20.17,6.39-40.33,9.84-60.45c4.5-26.26,8.52-52.63,14.08-78.66
			c6.4-29.97,14.18-59.65,21.54-89.41c2.9-11.72,6.05-23.4,9.55-34.95c2.61-8.58,5.94-16.94,9.04-25.36
			c0.48-1.32,1.43-2.47,2.16-3.7c0.7,0.15,1.41,0.31,2.11,0.46c-0.17,2.02-0.01,4.13-0.57,6.03c-1.67,5.61-3.72,11.11-5.43,16.7
			c-2.54,8.27-5.25,16.5-7.3,24.89c-4.41,18.03-8.48,36.14-12.6,54.24c-0.89,3.92-1.14,8-2.22,11.86
			c-5.49,19.6-6.46,39.74-7.18,59.88c-1.11,30.97-1.31,62.01-6.07,92.72c-4.07,26.28-6.06,53.02-15.65,78.15
			c-4.52,11.84-8.73,24.11-15.33,34.79c-17.57,28.42-34.18,57.5-55.2,83.74c-10.41,12.99-19.07,27.37-28.9,40.83
			c-5.04,6.89-10.92,13.17-17.12,20.55C1539.01,1302.46,1541.65,1295.13,1549.17,1284.18z M1596.28,603.19
			c3,0.1,1.65,87.59-3.15,144.94c-0.98,11.66-2.07,27.34-6.7,46.75c-4.01,16.82-9.06,33.42-14.21,49.94
			c-5.43,17.42-11.21,34.75-17.4,51.91c-4.41,12.22-9.71,24.12-14.72,36.12c-0.53,1.27-1.81,2.23-2.75,3.33
			c-0.61-0.26-1.22-0.53-1.83-0.79c1.6-5.07,3.13-10.17,4.82-15.21c1.67-4.97,3.52-9.89,5.28-14.83
			c4.05-11.36,7.78-22.84,12.2-34.06c6.33-16.06,7.75-33.1,10.82-49.82c1.62-8.8,2.76-17.77,5.31-26.31
			c3.94-13.21,5.44-26.67,6.39-40.31c1.03-14.79,2.8-25.73,3.2-30.46C1588.59,664.52,1593.76,603.11,1596.28,603.19z M1470.7,473.23
			c-0.42,22.36-1.97,56.68-7.83,81.67c-0.64,2.72-3.49,13.92-6.93,27.81c-2.3,9.28-4.68,18.55-7.42,27.74
			c1.98-19.64,4.55-40.14,7.84-61.4C1460.52,522.28,1465.39,496.97,1470.7,473.23z M1357.52,355.73c1.54,3.8,3.82,7.47,4.51,11.42
			c5.01,28.92,18.29,55.26,25.69,83.41c4.56,17.37,9.05,34.75,13.58,52.12c0.63,2.4,1.01,4.9,1.92,7.18
			c6.36,15.88,6.91,32.59,7.52,49.36c1,27.55,2.31,55.08,6.95,82.33c0.09,0.55-0.21,1.17-0.32,1.75c-0.47,0.17-0.94,0.35-1.42,0.52
			c-2.59-8.48-5.3-16.93-7.73-25.45c-5.07-17.81-8.1-36-10.95-54.3c-4.15-26.63-11.01-52.69-18.58-78.59
			c-5.2-17.81-9.64-35.92-13.08-54.15c-4.07-21.58-6.75-43.42-9.91-65.17c-0.47-3.24-0.25-6.58-0.34-9.88
			C1356.08,356.11,1356.8,355.92,1357.52,355.73z M1510.26,1466.71c0.38-8.02,1.6-15.99,2.18-24c1.49-20.64,5.14-41.08,4.48-61.95
			c-0.63-19.97,1.47-35.57,1.64-42.48c0.56-23.57,0.13-30.24,0.48-49.01c0.45-24.14,2.2-33.84,2.63-55.5
			c0.69-34.69,0.66-69.39,1.03-104.08c0.27-25.39,1.42-50.8,0.81-76.17c-0.34-14.45-2.93-28.91-5.38-43.22
			c-0.87-5.12-1.8-10.23-2.76-15.34c-4.66-24.87-8.57-43.97-8.93-45.74c-2.28-11.05-5.53-27.51-10.17-52.74
			c-1.97-6.03-2.78-12.35-3.64-18.58c-4.78-34.74-15.07-67.81-30.92-98.92c-5.99-11.75-15.24-21.8-22.56-32.92
			c-9.27-14.08-21.58-25.5-33.04-37.54c-11.72-12.32-25.06-23.11-37.74-34.51c-17.29-15.56-34.76-30.93-51.87-46.69
			c-4.51-4.16-8.05-9.4-11.89-14.25c-12.37-15.65-21.98-32.71-29.37-51.39c-10.37-26.21-22.59-51.68-33.63-77.63
			c0,0-6.05-9.85-8.07-24.57c-0.58-4.21-0.31-5.25,0.22-5.49c3.18-1.46,18,24.63,21.66,31.08c19.22,33.84,18.35,40.94,31.39,64.33
			c18.19,32.63,40.68,62.2,68.67,87.3c4.15,3.72,7.74,8.05,11.68,12.01c8.86,8.89,15.49,15.15,16.62,16.22
			c21.78,20.73,61.24,84.84,65.64,82.43c2.01-1.1-2.68-16.31-7.46-25.72c-1.49-2.93-2.6-5.28-3.54-7.42
			c-3.9-8.83-6.37-15.39-6.97-17.02c-7.6-20.73-31.38-54.01-43.27-99.25c-4.25-16.18-1.47-14.14-6.77-33.39
			c-5.66-20.55-12.29-40.9-19.83-60.84c-5.85-15.48-10.06-31.12-12.81-47.43c-2.26-13.45-5.62-26.68-4.93-40.46
			c0.45-8.92,0.49-6.75,0.82-22.21c0.54-25.84,0.82-38.76-1.34-50.02c-0.74-3.86-2.18-11.68-1.69-22.24
			c0.1-2.27,0.48-10.33,1.52-10.39c1.64-0.09,3.52,19.71,9.79,66.45c2.79,20.82,5.92,37.19,9.6,58.63
			c0.89,5.18,2.04,10.34,3.4,15.42c5.37,20.03,11.59,39.87,16.13,60.08c4.75,21.1,9.86,42.13,12.81,63.68
			c4.45,32.56,7.2,40.15,12.26,55.24c1.45,4.33,6.58,15.94,16.82,39.18c5.18,11.75,8.53,19.02,10.92,18.59
			c0.84-0.15,3.73-1.59,2.71-14.59c-1.31-16.67-3.08-33.31-4.07-49.99c-0.49-8.3-0.49-16.8,0.69-25
			c4.37-30.38,9.11-60.67,16.46-90.57c4.05-16.5,5.54-33.64,7.76-50.55c0.64-4.86,0.26-9.97-0.41-14.86
			c-2.47-18.03-0.34-35.94,1.29-53.83c0.34-3.75,2.4-7.34,3.67-11c0.76,0.05,1.53,0.09,2.29,0.14c0.44,2.1,1.24,4.19,1.26,6.29
			c0.15,15.2,0.12,30.4,0.2,45.6c0.06,11.93,0.57,15.29,0.72,21.13c0,0,0.24,6.56-0.33,16.11c-1.17,19.39-21.24,95.32-25.63,144.86
			c-1.01,11.45-0.96,22.91-0.85,45.84c0.04,7.64,0.98,13.1,1.87,21.55c2.52,24.06,3.78,36.09,6.28,36.28
			c4.58,0.35,11.13-36,19.1-55.98c2.35-5.89,5.12-12.61,5.12-12.62c2.84-6.87,4.53-10.71,5.13-12.3
			c5.92-15.73,19.23-25.63,29.43-37.98c5.73-6.93,11.58-13.76,17.1-20.84c2.8-3.59,4.98-7.66,8.75-11.56
			c-0.2,2.1,0.22,4.52-0.68,6.26c-9.96,19.24-18.64,39.36-30.59,57.29c-15.63,23.45-28.19,47.78-35.96,74.91
			c-3.36,11.71-5.28,23.52-7.2,35.42c-1.49,9.19-0.16,14.35,0.48,17.95c1.88,10.52,6.08,16.96,9.73,23.62
			c4.51,8.22,10.87,22.11,18.69,51.35c2.48,9.26,5.27,18.44,7.73,27.7c1.13,4.25,1.61,7.9,2.27,11.75
			c3.33,19.17,4.83,34.07,5.65,40.7c1.34,10.92,4.11,26.6,10.54,46.14c6.42-4.69,9.41-10.61,11.06-17.2
			c1.2-4.79,1.71-9.76,2.48-14.66c1.63-10.42,3.57-20.68,8.12-30.42c2.58-5.53,3.59-11.81,5.19-17.78c1.2-4.49,2.23-9.03,3.31-13.55
			c3.88-16.26,8.48-32.39,11.39-48.82c2.1-11.84,1.92-24.09,2.78-36.15c1.69-23.79,2.74-47.66,5.38-71.35
			c1.25-11.26,5.75-22.12,8.39-33.26c1.99-8.4,3.48-16.93,5-25.43c3.27-18.3,6.3-36.63,9.68-54.91c0.87-4.69,1.55-9.69,6.63-14.86
			c-0.14,3.97-0.07,6.21-0.32,8.42c-1.13,10.13-2.27,20.27-3.57,30.38c-0.63,4.91-1.98,9.73-2.43,14.65
			c-1.22,13.27-2.16,26.57-3.15,39.86c-1.7,22.87-3.5,45.74-4.99,68.63c-1.5,22.99-5.99,45.38-11.85,67.62
			c-2.51,9.53-3.44,19.5-4.81,29.32c-1.69,12.06-5.42,23.45-9.64,34.85c-8.28,22.37-16.13,44.92-23.44,67.62
			c-3.79,11.76-6.06,24.01-8.97,36.06c-0.29,1.19-0.45,2.48-0.32,3.69c1.18,11.03,2.58,22.03,3.63,33.07
			c0.82,8.63,1.25,17.31,1.86,25.96c1.3,18.52,2.89,37.03,3.82,55.57c1.07,21.32,1.79,42.67,2.21,64.01
			c0.26,13.29-0.13,26.6-0.57,39.89c-1.48,45.04-3.21,88.19-3.21,88.19c-0.66,17.21-1.12,32.74,5.75,35.5
			c2.95,1.19,6.4-0.32,9.01-1.92c-1.39,3.19-2.11,5.17-3.07,7.02c-7.17,13.76-9.52,28.56-10.37,43.89
			c-0.74,13.26-2.48,26.47-3.89,39.69c-1.54,14.44-3.13,28.88-4.84,43.3c-0.62,5.22-1.99,10.35-2.47,15.57
			c-1.3,14.49-2.31,29.01-3.44,43.52c-0.19,2.39-0.41,4.78-2.24,7.3c-0.92-6.56-2.48-13.11-2.63-19.68
			C1509.31,1489.61,1509.71,1478.15,1510.26,1466.71z M1130.02,1292.85c6.11,11.49,12.17,23.03,17.65,34.83
			c7.03,15.14,13.01,30.79,20.3,45.8c8.23,16.94,16.55,33.89,27.73,49.23c6.93,9.5,13.43,19.32,19.81,29.2
			c1.17,1.82,1.77,4.98,1.02,6.88c-2,5.06-4.88,9.77-7.59,14.95c-9.82-5.77-16.14-13.79-22.01-22.04
			c-5.08-7.14-13.4-17.02-21.61-32.51c-20.11-37.9-15.79-55.75-32.34-89.59c-1.62-3.32-4.62-12.74-10.26-24.81
			c-3.45-7.39-4.72-15.11-6.16-23.82C1123.9,1282.96,1127.31,1287.74,1130.02,1292.85z M1174.8,1474.59
			c-12.02-11.34-21.59-24.5-30.54-38.4c-9.31-14.46-16.46-29.84-22.98-45.57c-2.69-6.49-4.27-13.55-5.57-20.49
			c-2.17-11.53-4.35-23.12-5.33-34.79c-0.99-11.71-0.73-23.55-0.58-35.33c0.05-4.17,1.38-8.33,2.52-14.68
			c2.29,3.16,3.59,4.31,4.07,5.73c2.7,7.88,5.25,15.82,7.75,23.77c2.95,9.37,5.92,18.74,8.82,28.13
			c10.65,34.51,18.69,60.56,33.16,87.01c2.2,4.02,16.08,23.63,23.36,33.57c2.9,3.95,6.85,7.13,10.34,10.64
			c5.5,5.54,5.82,6.88,2.39,13.8c-1.61,3.25-3.6,6.32-5.99,10.49c-3.04-3.11-6.03-5.11-7.52-7.91
			C1185.25,1484.09,1179.96,1479.46,1174.8,1474.59z M1248.54,2274.77c-1.6-2.21-2.71-3.12-2.99-4.24
			c-6.94-27.29-13.33-54.72-20.84-81.85c-3.95-14.28-8.56-28.64-15.09-41.87c-12.63-25.61-24.2-51.63-35.12-77.99
			c-2.83-6.83-7.39-12.93-10.36-19.72c-9.93-22.72-20.1-45.38-28.92-68.54c-3.57-9.39-4.07-19.98-5.67-30.07
			c-2.13-13.45-3.57-27.02-6.02-40.42c-3.45-18.87-2.44-37.93-0.6-56.59c3.16-32.04,8.35-63.91,13.61-95.7
			c2.06-12.46,6.41-24.57,10.01-36.75c8.02-27.11,13.84-54.61,17.03-82.76c3.26-28.71,9.8-56.7,19.44-84.11
			c8.25-23.46,18.18-45.97,29.93-67.83c8.94-16.62,16.84-33.79,25.65-50.48c4.01-7.6,9.59-14.21,18.08-21.02
			c-0.79,4.99-1.28,8.09-1.77,11.18c-6.11,18.02-15.45,47.63-22.46,73.98c-0.92,3.46-3.54,13.44-6.57,25.15
			c-3.8,14.68-7.87,29.31-11.16,44.1c-4.09,18.44-7.39,37.05-11.24,55.54c-2.34,11.21-5.27,22.29-7.59,33.5
			c-1.63,7.88-2.43,15.92-4.02,23.81c-2.93,14.58-6.78,29-9.12,43.66c-3.23,20.16-5.79,40.44-7.94,60.74
			c-1.92,18.13-3.24,36.34-4.15,54.54c-0.71,14.22-1.36,28.56-0.33,42.71c1.8,24.68,3.6,49.5,7.89,73.82
			c3.85,21.82,7.14,43.85,14.52,65.12c5.35,15.41,7.58,31.94,10.77,48.06c4.05,20.41,9.3,40.4,16.8,59.87
			c6.47,16.77,10.74,34.17,13.33,52.08c2.65,18.35,4.63,36.81,10.26,54.75C1247.47,2248.8,1250.14,2260.81,1248.54,2274.77z
			 M1242.65,2213.1c-2.38-13.7-5.19-27.34-6.98-41.11c-2.02-15.51-7.69-29.88-12.52-44.53c-2.6-7.9-5.74-15.64-7.93-23.65
			c-3.1-11.3-5.85-22.72-8.19-34.2c-2.6-12.74-4.02-25.74-6.99-38.38c-2.82-12.03-7.03-23.72-10.52-35.59
			c-1.57-5.33-2.93-10.72-4.28-16.11c-5.52-21.99-6.64-44.55-9.13-66.97c-2.51-22.61-2.32-45.13-1.6-67.71
			c0.67-21.33,1.42-42.69,3.44-63.92c1.82-19.07,5.03-38.04,8.34-56.93c2.13-12.14,5.87-23.99,8.27-36.09
			c1.66-8.4,2-17.05,3.45-25.5c0.77-4.52,3.02-8.77,3.97-13.27c5-23.62,9.52-47.34,14.76-70.9c2.58-11.62,7.42-32.73,18.41-74.71
			c5.99-22.87,8.07-31.49,11.52-42.67c6.07-19.71,12.11-35.66,16.48-46.55c3.57,3.42,4.96,7.26,5,11.61
			c0.12,15.14-0.01,30.13-2.51,45.3c-3.22,19.48-4.6,39.39-5.08,59.15c-0.56,22.8-4.68,44.97-8.63,67.23
			c-2.81,15.85-6.42,31.57-9.01,47.45c-4.71,28.81-13.52,56.58-20.6,84.8c-4.51,17.98-7.73,36.35-10.3,54.72
			c-2.57,18.36-4.5,36.92-5.09,55.44c-0.63,19.8,0.13,39.69,1.2,59.49c1.24,22.89,2.83,45.8,5.48,68.57
			c2.39,20.61,6.08,41.08,9.8,61.51c2.94,16.12,6.94,32.05,10.18,48.13c1.4,6.98,2.13,14.09,3.06,21.16
			c3.1,23.65,6.55,47.26,9.08,70.97c2.33,21.82,3.65,43.76,4.73,65.77C1245.97,2228.67,1244.02,2220.98,1242.65,2213.1z
			 M1275.31,1575.06c13.29,22.72,29.6,43.43,43.51,65.7c6.97,11.17,11.83,23.69,17.26,35.77c6.71,14.94,13.01,30.05,19.49,45.09
			c1.7,3.95,3.38,7.9,5.06,11.85c-0.44,0.27-0.88,0.54-1.32,0.8c-1.22-1.35-2.67-2.57-3.64-4.09c-9.9-15.46-22.26-28.89-34.68-42.28
			c-5.46-5.89-10.96-11.77-16.67-17.42c-8.99-8.88-18.07-17.51-25.23-28.18c-5.97-8.9-13.72-16.61-21.16-25.42
			c2.88-16.01,5.81-32.36,9.17-51.03C1270.77,1569.92,1273.61,1572.15,1275.31,1575.06z M1245.23,2088.36
			c-4.34-29.77-12.56-58.77-17.01-88.48c-2.75-18.36-4.74-36.86-6.42-55.36c-2.13-23.45-4.19-46.95-5.13-70.47
			c-0.64-16.03,0.13-32.18,1.29-48.2c1.39-19.11,3.65-38.18,5.92-57.21c2.66-22.24,10.72-43.23,15.72-64.93
			c4.73-20.52,9.3-41.09,13.96-61.62c0.45-1.99,1.08-3.93,2.02-7.29c5.35,5.5,9.93,9.95,14.21,14.66
			c9.77,10.75,19.15,21.86,29.14,32.41c22.82,24.11,45.84,48.07,60.79,78.21c15.49,31.23,27.91,63.5,31.85,98.56
			c1.97,17.55,6.04,34.92,7.09,52.5c1.14,19.14,0.46,38.45-0.49,57.63c-1.21,24.46-3.26,48.88-5.44,73.28
			c-0.8,8.92-2.66,17.79-4.62,26.55c-3.79,16.92-8.01,33.73-12.02,50.6c-3.87,16.27-7.3,32.65-11.61,48.8
			c-7.2,26.95-14.03,54.05-22.74,80.52c-8.02,24.36-18.19,48.02-27.62,71.91c-10.46,26.5-21.15,52.92-31.77,79.35
			c-0.74,1.85-1.76,3.59-3.24,6.54c-1.26-2.32-1.79-2.84-1.8-3.37c-0.56-17.02-0.94-34.04-1.62-51.05
			c-0.42-10.51-0.65-21.09-2.09-31.49c-2.02-14.67-2.06-29.61-6.74-43.96c-1.88-5.77-1.78-12.22-2.33-18.39
			c-1.75-19.44-3.23-38.91-5.11-58.35c-1.69-17.58-4.18-35.09-5.56-52.69C1252.31,2127.24,1248.08,2107.91,1245.23,2088.36z
			 M1751.47,1474.01c0.25-0.05,0.61-0.08,0.99,0.07c1.84,0.73,1.67,5.04,1.56,10.63c-0.18,9.93,0.19,7.69-0.09,10.5
			c-2.37,24.04-5.36,47.94-9.78,71.78c-5.04,27.16-11.11,54.01-17.76,80.77c-6.35,25.55-13.36,50.95-19.11,76.64
			c-2.97,13.25-4.46,26.93-5.53,40.5c-2.54,32.12-3.97,64.33-6.77,96.43c-1.77,20.38-6.41,40.36-11.76,60.14
			c-1.85,6.84-2.52,14-3.83,21c-4,21.45-11.23,41.88-20.04,61.76c-11.19,25.23-20.68,42.57-34.77,66.69
			c-14.69,25.15-22.28,38-34.13,51.66c-6.99,8.05-17.76,19.27-41.62,37.24c-47.97,36.14-93.82,58.05-94.92,56.22
			c-0.98-1.65,34.57-21.88,69.3-55.89c3.13-3.07,7.2-7.93,13.39-13.8c13.11-12.43,23.27-27.14,33.29-41.99
			c1.73-2.56,3.57-5.07,5.54-7.46c5.33-6.49,9.9-13.31,12.67-21.4c2.72-7.94,6.59-13.24,7.38-14.98
			c5.1-11.17,7.28-17.86,11.82-30.14c3.23-8.75,6.89-17.92,14.19-36.26c6.55-16.44,6.88-16.8,12.1-30.08
			c4.42-11.23,9.28-22.36,12.75-33.89c3.9-12.98,6.38-26.38,9.61-39.56c1.38-5.64,3.97-11.12,4.5-16.82
			c2.21-23.77,11-46.19,13.04-70.12c2.95-34.65,12.48-68.14,21.77-101.58c3.4-12.23,5.56-24.79,8.77-37.07
			c1.87-7.17,5.04-13.99,7.02-21.13c3.06-11.02,5.82-22.13,8.3-33.29c3.23-14.49,5.5-29.22,9.25-43.57
			c2.88-11.01,6.98-21.76,11.29-32.32c6.45-15.79,7.99-32.41,9.64-49.08C1749.93,1481.71,1750.81,1477.87,1751.47,1474.01z
			 M1464.21,1930.6c-11.3,32.84-26.02,64.78-29.16,71.38c-0.37,0.78-1.63,2.83-2.65,5.86c-2.78,8.19-5.71,16.35-8.06,24.66
			c-2.51,8.88-4.16,18-6.66,26.88c-5.38,19.09-10.69,38.22-16.75,57.11c-6.15,19.15-13.6,37.88-19.68,57.05
			c-9.47,29.9-14.44,44.88-18.17,62.49c-4.12,19.47-9.19,43.37-2.62,46.44c4.43,2.07,12.47-6.1,23.29-17.09
			c6.37-6.47,12.55-14.25,24.65-29.54c6.18-7.81,5.1-6.62,6.24-7.95c11.35-13.31,25.19-23.75,40.42-32.39
			c3.45-1.96,6.67-4.5,9.58-7.22c13.79-12.87,26.77-26.73,41.35-38.62c12.99-10.59,22.66-23.64,32.21-36.86
			c12.56-17.4,21.26-37,30.73-56.2c7.57-15.33,15-30.62,20.11-46.96c0.74-2.37,1.63-4.7,2.15-7.12
			c7.48-34.83,15.32-69.59,22.24-104.53c6.2-31.3,11.53-62.77,20.12-93.56c4.83-17.32,9.41-34.71,14.13-52.06
			c1.46-5.36,3.22-10.64,4.5-16.04c6.58-27.76,19.54-52.81,32.86-77.71c13.51-25.27,22.98-52.06,31.03-79.5
			c7.49-25.51,16.09-50.7,24.24-76.02c0.36-1.13,1.15-2.13,2.54-4.63c0.19,10.77-1.42,19.69-4.49,28.26
			c-8.58,23.92-17.38,47.86-21.2,73.04c-4.12,27.18-14.21,52.59-21.21,78.9c-6.53,24.54-13.26,49.03-19.12,73.73
			c-2.99,12.62-4.37,25.63-6.31,38.49c-3.09,20.52-5.68,41.11-11.15,61.23c-3.08,11.32-4.46,23.1-7.04,34.57
			c-4.63,20.57-9.48,41.04-17.49,60.72c-8.87,21.8-16.33,44.18-24.89,66.11c-8.45,21.64-17.16,43.19-26.51,64.45
			c-3.64,8.28-8.33,13.04-12.79,19.35c-26.86,37.93-53.98,61.73-61.13,67.87c-13.9,11.94-12.62,8.92-40.44,31.19
			c-10.13,7.8-24.05,18.99-39.83,33.3c-32.64,29.59-69.31,63.36-96.61,114.54c-6.89,12.91-12.18,24.87-22.24,49.02
			c-9.39,22.56-17.98,45.47-26.68,68.31c-3.96,10.41-7.3,21.06-11.05,31.56c-1.25,3.48-2.91,6.82-4.37,10.22
			c-1.82,4.23-3.93,8.37-5.37,12.72c-2.13,6.44-3.18,13.28-5.73,19.52c-8.66,21.14-17.84,42.08-26.7,63.14
			c-5.65,13.41-11.08,26.91-16.66,40.34c-0.59,1.41-1.57,2.65-2.34,3.99c-7.26,12.61-14.7,25.12-21.71,37.88
			c-6.56,11.95-7.16,12.38-21.73,7.96c3.61-6.57,7.11-13.04,10.7-19.46c9.69-17.28,19.78-34.35,29.03-51.87
			c9.11-17.25,17.7-34.81,25.87-52.52c4.27-9.25,7.25-19.1,10.65-28.74c5.45-15.48,10.84-30.97,16.09-46.51
			c6.26-18.54,5.87-33.94,6.48-44.86c3.55-63.08-12.22-168.29-12.27-168.28c-0.04,0.01,17.56,58.92,17.8,119.29
			c0.02,5.8-0.01,36.32,4.64,36.87c1.12,0.13,2.7-1.28,3.74-3.4c2.03-4.16,3.38-8.66,5.06-13c1.87-4.86,1.41-2.88,6.71-17.33
			c4.8-13.07,4.34-14.56,7.78-23.31c3.26-8.29,6.06-13.04,8.96-18.58c5.69-10.89,5.96-16.53,18.14-45.68
			c5.61-13.43,9.88-27.41,15.44-40.86c10.7-25.9,15.83-53.41,23.88-80.07c5.54-18.36,11.59-36.59,16.58-55.1
			c3.37-12.52,5.09-25.48,7.9-38.16c5.76-26.07,9.72-52.38,12.84-78.91c3.81-32.4,4.83-64.89,5.53-97.42
			c0.17-7.69-1.28-15.42-2.15-23.12c-0.52-4.6-1.61-9.14-2.04-13.74c-2.82-30-9.01-59.31-17.7-88.13
			c-1.52-5.03-1.88-10.45-3.67-15.36c-6.69-18.31-13.43-36.62-20.77-54.68c-7.78-19.14-16.46-37.91-24.39-56.99
			c-5.25-12.64-10.99-24.96-19.13-36c-8.41-11.42-17.02-22.69-25.54-34.03c-0.19-0.25-0.42-0.48-0.53-0.76
			c-5.68-13.95-15.47-25.32-23.47-37.81c-1.95-3.04-1.86-7.75-1.75-11.67c0.28-9.9,1.05-19.79,1.73-29.67
			c0.15-2.12,0.73-4.22,1.28-7.22c1.99,1.23,3.64,1.86,4.78,3.01c14.64,14.72,29.02,29.7,43.84,44.23
			c13.5,13.23,23.58,28.44,30.84,45.93c8.35,20.11,14.18,40.9,20,61.8c6.96,24.96,9.4,50.45,12.26,76.01
			c1.62,14.44,4.85,28.72,7.86,42.96c4.35,20.58,9.85,40.95,13.58,61.63c3.69,20.42,5.95,41.11,8.52,61.72
			c1.84,14.74,3.13,29.55,4.7,44.32c0.13,1.2,0.57,2.36,0.85,3.49c7.87-0.25,8.24-0.44,9.73-6.9c4.01-17.47,7.91-34.97,11.92-52.44
			c2.42-10.53,5.1-20.99,7.42-31.54c3.92-17.84,7.65-35.72,11.46-53.58c2.72-12.72,5.5-25.42,8.15-38.15
			c2.64-12.66,5.16-25.34,7.73-38.02c0.62-0.04,1.25-0.08,1.87-0.12c1.72,8.51,3.81,16.97,5.05,25.55
			c1.28,8.87,1.59,17.87,2.56,26.78c1.72,15.81-3.18,30.76-6.13,45.9c-3.48,17.91-7.72,35.7-12.37,53.35
			c-2.19,8.29-6.21,16.09-9.23,24.17c-3.69,9.85-6.98,19.85-10.84,29.64c-5.33,13.52-10.99,26.91-16.57,40.33
			c-1.65,3.96-3.72,7.8-1.49,12.69c6-1.28,7.81-6.52,9.47-10.63c6.72-16.64,12.64-33.59,19.05-50.36
			c4.09-10.71,9.16-21.09,12.63-31.98c4.77-14.99,8.6-30.29,12.55-45.53c3.49-13.46,6.23-27.13,10.03-40.5
			c2.67-9.38,4.64-18.73,3.42-28.41c-2.14-17.09-3.13-21.33-6.16-42.32c-3.85-26.68-1.22-41.08-2.51-73.11
			c-0.1-2.38-0.34-9.87-0.4-20.09c-0.01-2.28,0-4.56,0.06-6.84c0.43-16.84-4.64-32.53-10.08-48.01
			c-5.95-16.95-12.91-33.55-19.7-50.19c-2.46-6.01-5.82-11.64-8.59-17.53c-6.06-12.88-11.99-25.82-17.98-38.73
			c-4.3-9.26-8.22-18.73-13.01-27.73c-11.86-22.26-20.82-45.46-27.56-69.86c-7.67-27.74-11.11-55.85-12.55-84.35
			c-0.7-13.9-0.55-27.84-0.92-41.75c-0.2-7.75-0.72-15.49-1.02-23.23c-0.09-2.42,0.08-4.85,0.15-8.49
			c5.35,3.85,5.46,9.01,6.43,13.39c5.26,23.87,10.32,47.78,15.24,71.72c2.56,12.45,4.02,25.16,7.2,37.43
			c3.49,13.44,8.09,26.63,12.75,39.73c8.1,22.76,16.4,45.46,25.05,68.02c3.87,10.1,9.3,19.61,13.15,29.71
			c5.28,13.87,9.69,28.06,14.54,42.09c5.37,15.53,10.49,31.15,16.3,46.51c4.85,12.83,8.38,25.88,10.29,39.45
			c1.08,7.64,2.32,15.33,4.38,22.75c4.72,16.95,2.96,34.52,5.56,51.6c3.44,22.61,0.58,45.22,1.2,67.81
			c0.53,19.21-2.34,38.31-9.04,56.61c-1.48,4.05-2.46,8.34-3.15,12.6c-1.23,7.66-2.16,15.35-6.63,22.03c-0.67,1-0.87,2.32-1.25,3.5
			C1482.01,1875.06,1472.46,1906.62,1464.21,1930.6z M1540.65,1629.99c7.67,21.97,7.26,44.4,4.03,66.97
			c-3.47,24.24-5.98,48.67-12.72,72.32c-3.99,14-8.26,27.93-12.9,41.72c-6.72,19.98-13.4,40-21,59.65
			c-6.69,17.3-14.55,34.15-22.05,51.12c-2.36,5.34-5.23,10.46-8.9,15.4c1.04-4.23,1.79-8.55,3.16-12.66
			c4.01-12.03,8.69-23.86,12.34-36c6.42-21.35,12.04-42.94,18.44-64.3c4.1-13.68,7.67-27.44,8.4-41.72
			c0.48-9.54,0.06-19.13,0.2-28.69c0.05-3.98,0.66-7.95,0.73-11.94c0.29-16.31,2.23-32.57-0.65-48.96c-1.7-9.68-0.65-19.81-1.9-29.6
			c-1.64-12.85-4.49-25.55-6.54-38.35c-4.24-26.48-13.95-51.26-23.08-76.27c-4.34-11.89-7.23-24.3-11.08-36.38
			c-2.24-7.04-4.48-14.2-7.78-20.76c-10.31-20.5-19.37-41.44-26.32-63.35c-3.93-12.37-8.95-24.42-13.98-36.4
			c-5.78-13.75-9.52-27.98-12.19-42.63c-2.99-16.44-6.77-32.73-10.22-49.08c-0.38-1.82-0.97-3.59-1.34-5.41
			c-2.66-13.03-5.34-26.06-7.9-39.11c-1.13-5.74-2.02-11.53-3.01-17.29c0.55-0.31,1.11-0.61,1.66-0.92c1.3,1.6,2.89,3.04,3.84,4.82
			c5.98,11.18,11.76,22.48,17.73,33.66c6.58,12.31,12.66,24.95,20.1,36.72c14.64,23.14,24.78,48.53,37.5,72.61
			c7.56,14.31,14.93,28.74,18.4,44.56c4.64,21.19,7.95,42.66,12.19,63.94c4.96,24.87,9.23,49.77,21.8,72.63
			c7.24,13.17,11.24,28.16,16.41,42.43C1536.54,1615.69,1538.2,1622.98,1540.65,1629.99z M1832.76,1200.26
			c-3.02,8.56-8.04,24.13-17.15,46.13c-9.11,22.01-18.18,44.14-32.38,63.57c-5.1,6.97-10.13,14.11-16.09,20.32
			c-11.82,12.3-24.98,23.12-39.13,32.71c-9.98,6.77-19.59,13.97-30.69,19.08c-6.6,3.04-11.82,8.97-18.33,12.31
			c-21.34,10.93-37.7,27.88-54.11,44.58c-8.59,8.74-15.45,19.25-22.61,29.31c-11.31,15.88-22.14,32.1-33.3,48.08
			c-8.35,11.96-11.57,16.26-15.24,20.98c-10.09,12.97-24.01,29.15-25.35,28.16c-0.77-0.57,2.79-6.69,8.58-16.07
			c17.84-28.88,29.66-44.58,45.67-67.93c17.21-25.1,20.04-30.08,31.43-44.85c12.68-16.44,27.8-30.69,42.95-44.92
			c12.53-11.77,27-20.69,40.63-30.85c13.15-9.8,25.86-20.2,39.04-29.96c8.96-6.64,18.42-12.59,25.24-21.71
			c4.78-6.39,10.22-12.34,14.55-19.01c5.87-9.07,11.21-18.51,16.31-28.04c5.55-10.36,10.86-20.86,15.73-31.55
			c6.39-14.05,12.14-28.4,18.37-42.52c3.37-7.63,6.97-15.17,10.83-22.56c6.06-11.6,13.44-26.94,23.28-43.27
			c12.51-20.77,29.45-44.68,30.99-43.74C1894.17,1079.85,1858.27,1128.07,1832.76,1200.26z"/>
	</g>
</g>
</svg>
