<svg xmlns="http://www.w3.org/2000/svg" width="2784.618" height="1276.218" viewBox="0 0 2784.618 1276.218">
  <g id="gentle-within-16" transform="matrix(0.105, 0.995, -0.995, 0.105, 2727.85, -1005.444)">
    <rect id="Rectangle_2" data-name="Rectangle 2" width="1000" height="2458" transform="translate(995 153)" fill="none"/>
    <g id="Group_5" data-name="Group 5" transform="translate(994.944 152.598)">
      <g id="Group_4" data-name="Group 4">
        <path id="Path_3" data-name="Path 3" d="M1999.71,1276.76a10.036,10.036,0,0,0-5.27-6.1,8.849,8.849,0,0,0-4.19-.79c-11.13.4-22.49-.64-33.37,1.19-25.12,4.21-49.99,9.9-75,14.76-15.61,3.04-30.21,8.36-43.4,17.39-10.38,7.11-21.15,13.68-31.17,21.26-12.78,9.67-26.88,18.26-36.19,31.56-11.27,16.12-27.39,26.79-41.42,39.8-1.52,1.41-3.74,2.05-7.61,4.08,1.78-3.35,2.33-4.59,3.06-5.72,9.49-14.66,18.6-29.43,24.99-45.88,6.82-17.55,15.02-34.57,22.26-51.96,5.09-12.23,9.89-24.6,14.3-37.08,4.18-11.84,6.96-24.21,11.64-35.83,8.23-20.38,17.24-40.46,26.31-60.48,6.61-14.6,13.82-28.92,20.79-43.35,10.16-21.05,20.27-42.12,30.52-63.12,5.66-11.59.56-21.48-6.7-29.48-3.54-3.9-7.5-3.87-11.08-.64-9.57,8.63-19.44,17.04-28.18,26.47-14.48,15.6-28.08,32.02-42.2,47.95-28.08,31.66-54.85,64.32-76.38,100.91a134.09,134.09,0,0,0-10.92,23.65c-14.11,40.4-22.34,82.17-28.43,124.43a100.037,100.037,0,0,1-2.73,13.31c-4.49,15.5-6.48,21.51-11,35.96-7.14,22.85-6.58,29.25-14.81,50.31-.42,1.07-5.55,14.15-6.6,13.81-1.34-.44,7.93-21.56,9.74-50.13.44-6.88-.16-3.31-2.28-46.93-.61-12.54-1.07-25.09-1.92-37.61q-1.095-16.155-2.96-32.26c-2.07-17.67-4.11-35.35-6.81-52.93-2.86-18.6-6.7-37.04-9.7-55.62-2.75-17.04-4.61-30.8-6.23-45.47-1.94-17.55-2.91-26.32-2.65-31.13.88-16.38,9.16-30.51,25.68-58.1a546.912,546.912,0,0,1,41.03-59.2c6.69-8.47,14.91-15.84,20.9-24.75,16.6-24.71,29.11-51.72,41.25-78.78,8.62-19.22,18.05-37.75,31.1-54.34,11.44-14.55,23.06-28.97,34.1-43.82,12.94-17.41,29.16-31.03,47.81-41.58,11.79-6.67,8.32-4.37,62.78-33.52,0,0,17.53-9.38,52.81-39.9,3.6-3.11,11.2-9.84,9.61-15.63-1.23-4.5-7.47-6.46-11.26-7.61-12.01-3.63-22.65-.35-30.21.61a110.987,110.987,0,0,0-46.04,16.41c-12.6,8.08-23.95,18.1-35.97,27.09-10.04,7.51-19.81,15.26-31.5,20.47-13.36,5.95-26.93,12.03-38.97,20.18a618.519,618.519,0,0,0-63.94,48.96c-18,15.94-33.46,33.58-45.71,54.1a70.138,70.138,0,0,0-7.77,17.11c-4.86,17.79-11.96,34.81-15.15,53.25-2.65,15.3-8.43,30.31-14.59,44.69-15.23,35.57-23.11,73.16-32.16,110.47-.6,2.46-1.41,4.88-2.65,9.1-.77-2.96-1.2-3.92-1.25-4.9q-1.815-36.585-3.52-73.19c-.34-7.48-.18-8.31-.32-20.92-.19-17.17-.29-25.76-.04-30.29.6-11.08,3.37-21.07,8.86-40.59,5.22-18.54,8.34-29.6,14.11-44.42,7-17.97,9.61-20.2,24.69-52.81,9.94-21.48,14.84-32.25,17.11-39.04,7.34-21.92,8.42-44.43,9.85-66.9.87-13.78-1.57-27.76-2.41-41.66-.15-2.53-.28-9.39-.3-15.63-.11-30.96,4.29-41.9,5.09-68.79.49-16.55,1.25-42.11-5.88-43.97-6.2-1.61-15.56,15.35-18.43,20.56-11.67,21.15-13.36,39.84-16.07,59.94-2.59,19.21-3.55,38.5-10.5,59.67-14.69,44.74-23.69,51.26-30.12,91.57-4.08,25.58-2.57,45.45-3.64,45.45-1.49-.01-2.51-38.31-2.89-52.73-.52-19.63-.11-27.58-.67-40.88-1.09-26.16-3.12-52.29-3.72-78.46-.61-26.65,5.13-52.73,9.65-78.82,2.25-12.98,6.16-25.75,10.26-38.31,5.41-16.58,12.02-32.76,17.6-49.28,8.69-25.75,16.73-51.73,25.46-77.47,9.53-28.09,19.57-56.13,24.66-85.37,7.96-45.68,4.17-46.69,10.8-104.06,2.01-17.36-2.52-27.52-3.8-42.03-.21-2.34-.69-7.79-4.26-9.7-3.52-1.89-8.19.73-9.81,1.45q-7.32,3.27-11.56,13.37c-9.65,22.8-17.55,46.28-29.05,68.4-12.71,24.44-25.22,49-35.54,74.72-11.04,27.54-23.17,54.49-28.54,83.95-7.38,40.5-9.84,72.03-10.4,95.67a539.873,539.873,0,0,0,2.64,65.62c1.31,12.36,2.78,20.95,3.15,23.11,3.19,18.4,6.63,24.27,7.8,34.82,1.91,17.25-.77,18.66-.9,48.62-.07,15.82.62,29.3,1.83,52.99.49,9.66.69,14.49,1.21,20.88,1.22,14.95,3.08,29.86,3.87,44.84,1.55,29.22.15,39.84.93,55.88.24,5.01.91,10.87,2.2,22.6,2.72,24.75,4.73,37.02,3.77,37.21-.77.15-2.42-7.71-8.55-24.01-.79-2.09-2.12-5.81-3.94-9.99-3.31-7.57-6.44-12.86-11.36-23.32a322.9,322.9,0,0,1-18.01-48.62c-5.95-21.67-1.85-18.26-9.41-51.64-4.86-21.45-10.55-38.26-13.7-49.35-1.33-4.68-3.5-9.13-4.79-13.81a400.844,400.844,0,0,0-21.69-58.86c-6.33-13.97-12.95-28.04-17.04-42.73-5.79-20.8-9.71-42.14-13.77-63.38-3.02-15.79-5.16-31.78-11.79-46.57-4.28-9.54-8.64-19.58-19.22-23.89-16.48-6.7-24.67-4.14-24.95,15.48-.24,17.11.48,34.23,4.74,50.98.86,3.37,1.1,6.89,1.82,10.3,1.87,8.84,3.34,17.81,5.9,26.45,5.18,17.48,9.8,35.02,9.04,53.44-.27,6.54.28,9.7.37,13.57.51,20.53,6.37,43.8,25.91,83.58,14.78,30.08,14.83,24.77,35.79,63.87,10.54,19.66,20.95,39.47,29.84,59.9a296.225,296.225,0,0,0,32.21,56.26c22.7,31.16,31.99,66.25,35.12,103.72,1.05,12.52,2.27,25.02,3.13,37.55,1.07,15.53,1.85,31.08,2.75,46.62-7.29-8.64-11.89-18.31-18-26.91-13.33-18.73-27.42-36.93-41.23-55.32-4.19-5.58-8.49-11.07-12.71-16.63-12.75-16.83-21.43-35.97-30.91-54.64q-11.37-22.395-22.16-45.08c-5.09-10.68-9.72-21.58-14.64-32.35-1.74-3.81-3.96-7.41-5.51-11.29-17.13-42.9-46.32-75.92-83.67-102.19-17.93-12.61-35.78-25.38-54.33-37.03-12.02-7.55-25.06-13.56-37.98-19.55-8.23-3.81-16.92-1.06-21.19,5.32-3.3,4.94-1.91,11.76,3.69,19.13,3.59,4.72,7.1,9.51,10.41,14.43,13.91,20.72,30.83,38.6,49.58,55.04,12.02,10.54,22.93,22.39,33.91,34.06,10.35,11,17.63,24.1,24.72,37.4,15.11,28.35,30.98,56.29,46.36,84.5,7.69,14.1,15.12,28.39,26.11,40.27,26.33,28.45,51.8,57.75,80.96,83.45,7.07,6.23,14.76,11.92,21.02,18.89,27.11,30.19,43.73,65.87,53.3,105.05,4.8,19.66,10.26,39.2,14.1,59.05,3.9,20.19,7.43,40.61,8.9,61.09,3.94,54.54,2.01,65.78,7.55,135.98,1.14,14.47,3.38,40.25,2.86,40.3-.46.05-.77-20.5-7.82-46.07a183.106,183.106,0,0,0-30.05-61.82,120.58,120.58,0,0,0-21.04-21.55c-12.65-10.05-24.47-20.75-33.33-34.28a122.351,122.351,0,0,1-9.92-19.37c-7.98-18.9-15.52-37.98-23.39-56.93-3.33-8.03-7.42-15.75-10.55-23.85-6.03-15.62-11.62-31.42-17.41-47.14-.6-1.64-.87-3.79-2.06-4.73-1.96-1.55-4.61-3.2-6.87-3.07-1.51.09-3.67,3-4.11,4.97-1.8,8.16-3.38,16.4-4.44,24.69-4.18,32.61-.71,64.87,5.57,96.84,3.87,19.72,13.23,37.53,22.38,55.2,6.9,13.32,13.67,27.08,22.93,38.71,4.06,5.09,8.25,10.09,12.52,15.01,19.55,22.55,35.54,39.51,37.41,41.47,23.24,24.5,35.55,35.6,34.76,36.51-1.31,1.49-32.66-30.42-67.66-44.83-3.36-1.38-14.14-5.86-28.61-12.8-7.24-3.47-14.4-7.18-21.26-11.33-10.72-6.49-21.94-12.5-31.53-20.43-15.01-12.41-29.76-25.22-42.23-40.47a184.541,184.541,0,0,0-21.33-21.53c-13.61-11.95-28.24-22.76-41.48-35.08-18.23-16.97-38.29-31.46-58.71-45.47-7.71-5.29-16.48-9.03-24.81-13.41-9.25-4.87-18.46-9.83-27.83-14.45q-23.865-11.76-47.93-23.09c-2.91-1.37-8.54-1.61-9.41-1.75-7.13-1.13-10.71-1.67-11.82-.79-3.87,3.07,2.09,17.71,8.1,28.81,9.36,17.27,20.35,28.73,37.36,46.47,4.09,4.26,8.42,8.57,14.14,13.52a209.185,209.185,0,0,0,19.51,14.67c29.21,19.98,56.49,42.27,78.72,70.12,21.14,26.47,42.72,52.36,68.33,74.95,17.71,15.62,36.01,30.03,56.86,40.73,35.2,18.08,73.05,24.96,112.48,23.12,16.11-.75,32.05-1.38,47.25,5.84a29.525,29.525,0,0,1,4.71,2.79h0a32.2,32.2,0,0,1,9.83,11.73c8.08,16.5,5.43,45.85,5.43,45.85-3.57,39.63,1.42,9.47-5.1,79.73-1.85,19.97-2.78,29.96-3.82,37.8-2.62,19.69-5.72,35.41-9.05,58.13-4.41,30.08-3.06,25.14-5.35,37.91-5.82,32.44-15.77,74.73-17.41,81.64-1.4,5.92-2.47,10.11-4.61,18.5-6.2,24.36-10.67,41.8-12.2,41.52-1.78-.32,2.33-24.2.39-49.3-.11-1.43-.37-4.33-.77-9.78-.63-8.57-1.18-17.15-1.81-25.72-2.1-28.55-14.82-54.42-20.69-82.03-2.17-10.23-5.81-20.15-7.89-30.39-4.02-19.84-7.03-39.9-11.26-59.69-1.57-7.33-5.1-14.32-8.34-21.18-1.9-4.02-5.6-6.16-11.66-4.77-2.07,8.89-5.03,18.18-6.29,27.7-4.03,30.43-7.84,60.91-10.94,91.45-1.74,17.11,2.63,44.76,12.65,75.92,13.91,43.26,33.31,79.8,40.2,91.4,4.69,7.9,10.15,16.4,13.02,29.59,3.36,15.44,1.51,29.65-1.01,49.04-1.08,8.31-2.14,16.2-3.6,16.21-2.5.01-1.85-22.92-11.1-54.59-.99-3.4-3.77-12.48-8.41-23.92-8.33-20.55-16.74-33.81-22.92-44.29-20.05-34-18.61-31.86-34.51-70.22-8.46-20.41-20.52-38.03-36.95-52.56-10.96-9.7-22.6-18.64-33.97-27.89-4.05-3.29-7.86-7.05-12.35-9.6-21.83-12.43-43.54-25.13-65.88-36.58-25.1-12.86-47.01-29.9-67.74-48.64-8.28-7.48-15.4-16.25-23.72-23.68a120.041,120.041,0,0,0-20.33-14.55c-6.83-3.89-11.32-2.12-14.35,4.88-2.71,6.27-6.37,12.77-6.88,19.72-.81,11.06,5.81,19.02,15.37,32.88,6.68,9.69,17.8,29.36,41.16,68.03,3.24,5.37,6.11,11.01,9.77,16.08,8.38,11.6,17.23,22.85,25.74,34.36,15.52,21.01,34.61,38,56.35,52.45,20.93,13.91,41.83,28.03,61.44,43.68,21.53,17.18,41.9,35.87,62.15,54.58,16.92,15.63,32.99,32.19,49.32,48.46,4.69,4.68,9.06,9.7,13.39,14.73,2.88,3.35,3.08,6.01,4.96,10.15,7.11,15.66,14.98,24.36,14.06,25.13-1.32,1.09-13.24-19.99-35.16-24.7-6.61-1.42-11.62-.68-18.98.07-15.89,1.64-30.87,7.21-44.82,15.93a67.679,67.679,0,0,1-31.39,10.37c-3.47.27-6.95.5-10.43.64a68.074,68.074,0,0,0-28.2,6.93c-9.72,4.85-16.6,12.63-23.92,20.1-3.42,3.49-7.33,6.61-10.19,10.51-1.09,1.48-2.11,5.22-.82,7.63,2.37,4.43,12.15,1.83,31.18.1,21.19-1.93,26.93-.34,52.66-3.76,2.09-.28,3.68-.51,4.35-.6,24.79-3.57,46.75-6.72,69.51-15.21,0,0,11.04-4.04,30.69-5.19,8.7-.51,14.09,7.64,12.13,16.28-1.54,6.8-3.4,13.53-4.99,20.33-5.99,25.47-11.22,51.05-19.61,75.99-10.12,30.09-18.25,60.84-27.38,91.26-1.62,5.41-3.93,10.62-5.92,15.92a152.139,152.139,0,0,1-11.56-29.06c-4.99-16.65-12.69-31.97-24.35-44.75-20.3-22.25-42.97-42.06-68.75-57.68-15.78-9.56-33.41-16.04-49.25-25.5a100.154,100.154,0,0,0-45.33-14.04c-7.26-.52-14.01-.24-18.1,7.92,2.42,7.28,3.81,15.5,7.71,22.28,6.49,11.26,15.82,20.19,27.16,27.07,9.21,5.59,17.94,12,26.65,18.37,16.04,11.74,31.88,23.75,47.85,35.58,14.84,10.99,30.02,21.54,44.53,32.95,9.17,7.21,15.04,17.34,20.75,27.48-14.14-6.77-29.43-6.8-43.94-10.16a102.5,102.5,0,0,0-42.34-.77c-21.15,3.85-43.03,1.95-64.09,8.36-16.67,5.08-29.07,6.14-47.63,10.79-45.23,11.34-67.84,17.02-86.52,25.57a279.174,279.174,0,0,0-60.93,38.53c-15.43,12.4-28.92,26.11-40.19,42.22-8.17,11.68-16.23,23.44-24.79,34.83-9.04,12.02-16.08,25.18-23.03,38.41-1.01,1.92-.71,4.54-1.05,7.11,9.48,2.22,17.54,1.46,25.59-3.48,7.99-4.9,16.74-8.56,25.14-12.79,6.23-3.14,12.9-5.65,18.58-9.59,22.75-15.82,32.25-24.88,56.05-40.3a217.183,217.183,0,0,1,42.66-21.25c25.11-9.47,35.18-8.14,57.63-14.25,27.61-7.51,32.32-1.59,69.57-32.66,26.06-21.75,57.67-27.33,90.47-26.21,14.57.5,29.13,3.45,43.5,6.25,6.35,1.24,13.43,2.52,18.12,8.28-6.34,3.34-12.42,5.9-17.79,9.52-7.78,5.23-14.44,12.4-22.67,16.62-13.68,7.01-27.11,14.22-39.31,23.61-1.09.84-2.54,1.18-3.71,1.93-18.77,12.07-35.56,25.8-43.01,48.12-4.09,12.23-8.11,24.61-13.69,36.18-8.55,17.7-10.98,36.61-13.37,55.61-.96,7.66,4.16,10.95,11.29,7.59a18.463,18.463,0,0,0,5.11-3.6c13.77-13.83,27.96-27.28,41.02-41.76,14.79-16.39,27.19-34.6,35.38-55.32,3.83-9.7,10.21-17.65,17.89-24.25,8.7-7.48,18.28-13.94,27.54-20.75a51.515,51.515,0,0,1,6.04-3.21c0,2.35.36,3.77-.05,4.92q-8.88,24.63-17.94,49.21c-6.73,18.33-13.92,36.51-20.12,55.03-4.09,12.22-6.05,25.16-10.2,37.36-14.28,41.96-30.01,83.41-41.89,126.19-5.87,21.16-12.98,42.03-20.59,62.63-11.37,30.78-23.84,61.15-35.51,91.82-3.95,10.39-6.93,21.16-10.26,31.79-1.99,6.35-3.68,10.42-5.81,19.01-1.96,7.9-2.02,10.41-.99,10.99,1.61.9,5.43-3.15,8.09-5.93,22.73-23.72,28.25-24.59,37.79-40.5,2.32-3.87,4.09-6.62,5.31-9.88,5.15-13.72,10.05-27.54,15.02-41.33,3.91-10.84,8.5-21.49,11.57-32.56,7.27-26.2,12.61-52.96,22.2-78.48,4.78-12.72,10.68-25.02,15.4-37.76,13.72-37.02,24.24-75.03,34.46-113.13,7.96-29.67,15.6-59.43,27.86-87.79,6.07-14.05,10.76-28.69,16.13-43.05,1.89-5.06,3.93-10.07,5.9-15.1.86-.04,1.71-.08,2.57-.11,8.36,16.26,18.18,31.75,22.55,50.03a246.272,246.272,0,0,0,8.61,27.94c9.24,25.01,24.81,46.07,42.68,65.41,12.3,13.31,25.04,26.27,42.22,33.77,6.31,2.75,12.06,6.86,17.91,10.59,4.4,2.81,8.48,6.14,12.83,9.03,21.76,14.46,45.96,25.39,64.48,44.57,1.67,1.73,4.01,2.79,5.95,4.28q12.015,9.255,23.96,18.58c7.96,6.24,15.78,12.65,23.81,18.8,5.54,4.25,11.16,8.44,17.04,12.19,8.49,5.42,17.2,10.49,25.91,15.55,3.39,1.97,6.82,3.29,10.56,0,4.06-3.56,4.52-7.51,2.87-12.26-4.8-13.84-9.08-27.87-14.44-41.49a174.661,174.661,0,0,0-13.74-28.04,505.893,505.893,0,0,1-38.11-74.51c-13.34-32.57-37.1-56.17-62.45-78.68-10.13-8.99-21.43-16.74-32.66-24.38-16.41-11.17-32.67-22.79-50.05-32.27-16.21-8.84-32.95-16.58-48.26-27.12-5.44-3.74-12.43-5.22-20.38-8.4,4.53-2.27,7.87-4.8,11.6-5.66,16.3-3.75,32.8-6.68,49.06-10.56,18.22-4.35,36.73-6.57,54.54-13.94,28.85-11.94,52.44-29.76,72.42-53.21,13.58-15.94,27.7-31.41,41.08-47.51,13.06-15.7,27.1-29.94,45.76-39.14,14.04-6.92,26.59-16.85,41.99-21.04,17.17-4.67,34.44-8.99,51.57-13.82,11.4-3.21,23.41-5.55,33.74-10.96,16.6-8.7,31.98-19.71,47.99-29.55,4.02-2.47,6.51-5.32,5.34-10.18-1.3-5.38-5.44-7.43-10.33-6.8a266.814,266.814,0,0,0-28.71,4.88c-14.55,3.52-28.87,7.99-43.38,11.73-3.65.94-7.64.51-11.45.91-19.07,2-38.48,2.42-57.11,6.46-32.37,7.03-64.15,16.54-94.35,30.73a185.852,185.852,0,0,0-53.67,37.78c-19.62,19.89-38.47,40.56-57.37,61.14-13.11,14.28-27.49,26.78-44.86,35.66-7.45,3.81-14.74,7.95-21.93,12.23-15.56,9.27-31,18.74-46.53,28.06a46.943,46.943,0,0,1-6.11,2.49,19.312,19.312,0,0,1,.42-3.74c9.19-25.21,18.82-50.26,27.5-75.65,5.75-16.82,10.41-34.04,15.06-51.21,3.28-12.1,5.59-24.45,8.56-36.63,4.3-17.61,8.47-35.21,9.17-53.44.47-12.3,5.45-21.94,16.49-28.25,6.95-3.97,14.01-7.98,20.22-12.97,17.56-14.13,36.62-25.73,57.58-33.75,25.25-9.66,49.93-20.56,71.11-37.39,22.66-18,44.35-37.27,63.84-58.82,4.22-4.66,8.33-9.42,12.64-13.99,12.44-13.19,25.6-25.82,34.52-41.86,15.27-27.46,31.1-54.65,42.06-84.26a62.605,62.605,0,0,1,3.18-6.61c10.57-20.45,21.58-40.68,31.63-61.38,11.87-24.45,22.99-49.28,34.27-74.02,2.31-5.06,4.01-10.41,5.83-15.69,1.35-3.92,1.02-7.77-2.36-10.54-3.62-2.97-7.64-3.09-11.63-.46-6.42,4.22-13.37,7.81-19.18,12.75-17.28,14.7-34.26,29.78-51.04,45.07-4.32,3.94-7.79,8.95-11.11,13.84-11.38,16.75-22.1,33.96-33.86,50.43-19.27,26.99-39.28,53.45-58.77,80.29-16,22.03-33.26,43.36-47.12,66.68-14.28,24.04-30.86,45.57-51.36,64.34-4.63,4.24-9.53,8.45-13.11,13.52-8.2,11.61-18.98,20.41-29.63,29.47-6.85,5.83-10.91,10.64-14.23,13.86-41.21,39.99-47.57,47.36-48.76,46.42-2.71-2.13,25.61-43.99,50.57-77.42,23.59-31.6,29.62-36.94,48.41-64.42,11.97-17.51,21.96-36.43,32.07-55.14,5.79-10.72,10.1-22.24,15.01-33.43,2.65-6.04,4.5-12.52,7.85-18.14a103.5,103.5,0,0,0,14.48-43.35,29.693,29.693,0,0,0-.29-9.37c-1.37-6.03-6.55-8.19-11.81-5.04-4.17,2.5-8.84,4.79-11.93,8.35-19.98,23.01-29.41,34.99-31.78,38.94-7.55,12.59-1.64.58-55.48,70.92-15.45,20.19-24.65,32.56-26.48,31.44-2.64-1.61,15.73-27.83,23.05-68.16,1.07-5.92,1.27-9.84,3.82-22.57,2.74-13.67,6.4-27.19,8.51-40.96,3.9-25.48,7.63-51.02,10.18-76.65.66-6.61,1.05-11.43,1.48-17.85,2.3-34.72,3.41-105.51,3.04-132.36a32.549,32.549,0,0,1,4.21-17.47,27.933,27.933,0,0,1,6.16-7.13c8.25-6.91,16.77-12.66,27.27-14.71,24.66-4.8,48.82-10.6,72.16-20.65a171.313,171.313,0,0,0,56.84-40.04c21.58-22.71,44.99-43.23,71.45-59.44,23.72-14.53,49.53-25.68,74.55-38.05,0,0,30.98-10.97,44.55-32.04C1998.34,1284.73,2000.84,1280.86,1999.71,1276.76ZM1579.9,1098.47c-1.4.89-18.44-31.68-52.87-71.37-37.77-43.53-45.38-44.05-78.05-80.23-16.96-18.78-27.58-41.84-39.67-63.85-11.24-20.45-22.88-40.68-34.36-60.99-3.78-6.68-7.44-13.44-11.43-19.99-11.12-18.26-25.05-34.11-40.92-48.42-20.21-18.22-39.95-36.92-56.06-59.06-4.03-5.54-7.83-11.15-10.07-20.41,4.56,3.3,7.19,4.87,9.44,6.88,19.79,17.65,40.2,34.67,59.09,53.24,28.68,28.18,55.36,58.32,76.46,92.73,18.97,30.94,37.08,62.41,55.01,93.97,11.76,20.7,25.67,39.87,39.27,59.32,19.81,28.33,28.68,30.62,47.95,56.74C1566.71,1068.23,1581.23,1097.64,1579.9,1098.47Zm-27.77-57.12c-48.45-59.08-40.65-51.91-53-65.73-4.16-4.65-12.96-16.33-25.03-32.09a53.489,53.489,0,0,1-6.67-10.58c-9.18-20.72-21.45-39.72-32.64-59.32-8.59-15.04-16.92-30.24-25.89-45.05-4.43-7.31-10.99-13.41-14.96-20.91-13.95-26.38-35.53-46.42-55.65-67.54-16.23-17.03-25.9-21.58-48.8-45.76-5.54-5.85-16.85-17.85-15.72-19.08,1.21-1.33,15.99,10.75,39.63,28.65,35.34,26.76,38.56,28.53,51.49,37.66,27.23,19.22,46.65,44.65,60.81,74.47,17.81,37.51,35.51,75.08,53.52,112.5,9.51,19.76,23.91,37.55,49.92,74.59,28.97,41.26,54.87,75.13,54.37,75.51C1583.03,1079.03,1572.71,1066.45,1552.13,1041.35Zm-81.83,999.73c-45.27,11.01-62.94,13.13-70.48,13.93-25.58,2.73-51.42,2.67-51.62.6-.17-1.77,19.19-5.27,57.91-12.27,35.08-6.34,41.15-8.69,54.94-12.05,8.07-1.97,15.59-6.11,23.62-8.31a151.156,151.156,0,0,1,25.45-4.85c6.25-.6,12.44,1.2,17.22,7.93C1504.26,2032.61,1484.76,2037.57,1470.3,2041.08Zm-.47-18.99c-19.69,7.51-40.05,12.13-60.65,16.01-8.94,1.68-9.18,1.74-24.6,4.99-28.26,5.94-34.56,8.01-35.18,6.53-1.09-2.59,16.24-13.44,32.24-18.33a95.367,95.367,0,0,1,11.66-2.79c6.23-.75,12.5-1.19,18.77-1.54,15.84-.88,29.68-7.11,42.88-15.42,13.13-8.26,27.91-10.95,43.05-10.36,11.8.46,21.75,5.73,30.38,17.18C1506.82,2009.58,1488.14,2015.1,1469.83,2022.09Zm464.57-405.22c1.91,1.16-5.95,16.54-25.61,57.16-.74,1.52-16.02,30.73-43.43,90.62-13.37,29.23-27.19,58.23-45.18,84.86-8.52,12.61-19.51,23.6-29.7,35.04-22.39,25.14-39.76,39.53-72.62,67.81-18.23,15.69-27.67,23.02-41.32,30.02-8.99,4.61-14.23,6.22-27.01,12.01a411.351,411.351,0,0,0-41.42,21.61c16.08-14.3,29.29-24.89,38.6-32.07,20.29-15.63,26.41-20.15,26.41-20.15,5.51-5.22,12.13-9.26,18.17-13.94,3.57-2.77,7.32-5.42,10.4-8.68,18.83-19.96,37.86-39.74,56.08-60.25,14.8-16.65,26.97-35.34,38.13-54.63,1.74-3.01,3.49-6.04,5.47-8.9,10.51-15.13,21.48-29.97,31.57-45.38,10.88-16.6,21.15-33.61,31.35-50.65,21.1-35.24,22.4-40.71,35.9-61.07C1912.49,1641.75,1931.77,1615.28,1934.4,1616.87Zm-302.8,359.98c11.46-11.17,26.74-25.14,31.06-30.77,8.01-10.43,18.26-19.2,27.9-28.3,16.76-15.83,27.9-35.49,38.66-55.45a29.652,29.652,0,0,1,1.92-3.72c14.58-19.99,29.26-39.91,43.82-59.91,25.63-35.2,51.32-70.36,76.72-105.73,9.54-13.28,17.05-28.09,29.35-39.26,11.57-10.51,23.41-20.72,36.4-30.55-.79,1.85-1.22,3.97-2.42,5.5-12.89,16.56-24.36,33.93-33.58,52.9-5.47,11.25-12.83,21.57-19.3,32.33-8.44,14.05-16.81,28.14-25.24,42.2-2.87,4.79-5.61,9.67-8.72,14.3-19.29,28.68-38.41,57.48-58.15,85.85a384.883,384.883,0,0,1-26.73,33.57c-26.29,29.96-54.59,57.87-86.33,82.13-16.89,12.91-33.68,25.96-50.68,38.72-.74.55-1.31.86-2.75,1.81-26.91,17.79-37.57,26.9-38.03,26.35C1564.73,2037.9,1594.03,2013.45,1631.6,1976.85Zm31.06-564.42c13.57-47.12,17.02-50.92,21.97-74.93,4.69-22.71,3.82-30.06,9.42-56.11,1.64-7.64,6.2-21.71,11.73-40.05.6-2,1.81-3.83,2.28-5.85,3.91-16.68,13.48-30.36,22.95-44.15,2.75-4,4.43-8.75,7.23-12.71,11.86-16.8,23.16-34.08,36.2-49.93s28.03-30.07,41.88-45.27c6.34-6.95,11.88-14.61,18.03-21.75,2.59-3,5.81-5.46,8.74-8.16l2.4,2.13c-9.41,17.85-18.19,36.07-28.38,53.47-18.69,31.92-38.57,63.13-57.16,95.1-6.07,10.44-9.77,22.29-14.41,33.55-7.57,18.36-15.16,36.72-22.5,55.18-13.15,33.08-25.74,66.38-39.31,99.28-7.17,17.37-15.8,34.15-24.07,51.05-1.57,3.2-4.52,5.73-7.67,8.03C1654.2,1442.83,1657.83,1429.18,1662.66,1412.43Zm-28.42-403.27c4.63-13.88,9.76-27.61,13.97-41.62,6.42-21.33,15.64-41.61,20.15-63.75,5.99-29.44,15.03-58.37,35.51-81.71,8.95-10.2,18.93-19.54,28.77-28.92,19.53-18.61,41.65-33.9,63.92-48.94a80.24,80.24,0,0,1,17.7-8.9c18.34-6.56,33.97-17.49,49.2-29.19,9.95-7.64,19.89-15.31,30.07-22.64,14.45-10.42,30.81-16.11,48.38-18.47.98-.13,2.02.17,4.63.44-2.91,1.91-4.64,3.17-6.49,4.25-23.84,13.85-47.9,27.33-71.47,41.61-14.57,8.83-29.14,17.69-41.29,30.17a209.989,209.989,0,0,1-28.79,24.25c-16.16,11.5-28.68,26.42-41.63,41.07-19.57,22.15-35.35,46.73-48.34,73.2-11.07,22.57-21.62,45.42-33.53,67.54-12.05,22.39-25.47,44.05-38.35,65.99-.44.76-1.59,1.11-3.55,2.4C1633.6,1012.92,1633.64,1010.95,1634.24,1009.16Zm-12.52,51.44c6.2-17.34,12.19-30.66,17.4-40.31,15.22-28.19,31.91-55.58,47.22-83.72,8.15-14.98,14.09-31.14,22.05-46.23,14.94-28.35,30.05-56.67,52.98-79.78,4.62-4.66,8.17-10.37,12.71-15.12a278.568,278.568,0,0,1,20.22-19.57c16.7-14.26,33.17-28.9,50.85-41.88,11.38-8.36,22.23-17.63,35.71-23.39,12.66-5.41,24.19-13.52,36.13-20.59a278.62,278.62,0,0,1,42.53-21.15c-1.62,3.19-1.92,4.58-2.78,5.37-12,11.14-23.12,23.35-38.09,30.87-17.78,8.93-35.6,17.81-53.12,27.23-25.42,13.65-48.48,30.35-66.18,53.62-13.73,18.05-28.26,35.55-41.05,54.23-9.21,13.46-16.47,28.3-24.04,42.82-13.56,25.99-26.68,52.21-40.06,78.3a34.409,34.409,0,0,1-4.13,6.05c-12.01,14.51-24.97,28.34-35.86,43.64a289.411,289.411,0,0,0-26.72,44.88c-10.97,23.11-15.43,41.02-16.06,40.82S1614.89,1079.7,1621.72,1060.6Zm50.03-499.67c1.23.11-8.38,51.49-8.33,125.25.02,25.41.72,45.66-7.26,73.5a214.406,214.406,0,0,1-20.55,49.06c-14.43,24.8-19.31,47.54-24.64,64.38-9.29,29.35-12.62,49.23-14.85,48.88-2.19-.35-1.09-19.94-.67-27.37a180.712,180.712,0,0,1,1.87-19.75c4.22-25.54,15.2-33.21,21.47-55.86.63-2.26,3.38-11.35,7.11-23.96a17.747,17.747,0,0,1,1.29-3.95c9.75-16.85,14.09-35.66,18.69-54.19,4.09-16.47,6-27.52,8.2-48.16C1660.4,629.54,1670.32,560.8,1671.75,560.93ZM1607.3,764.42c1.65-5.59,3.8-12.55,3.8-12.55,3.81-12.11,7.93-24.13,11.79-36.23,3.39-10.62,6.81-21.24,9.93-31.94,3.41-11.67,7.17-23.29,9.51-35.18,2.34-11.85,2.38-24.17,4.74-36.01,3.75-18.75,5.27-38.07,12.83-55.95a13.34,13.34,0,0,1,5.84-6.46,39.773,39.773,0,0,1-.03,5.35c-2.94,21.42-5.57,42.9-9.01,64.24-6.38,39.57-5.67,80.26-17.23,118.93q-3.405,11.385-7.19,22.66c-13.75,41.32-15.99,51.28-22.8,65.48a229.182,229.182,0,0,1-14.08,25.09C1596.83,830.97,1600.31,788.11,1607.3,764.42Zm65.67-587.8c2.62.38-.15,34.53-1.57,49.18-2.69,27.75-6.02,55.46-10.2,83.02-4.63,30.5-14.93,59.51-25.25,88.5-7.44,20.91-9.74,29.03-19.38,59.81-7.33,23.41-11.08,35.42-15.07,50.39-5.83,21.83-10.54,39.48-14.41,63.63-2.99,18.68-4.08,32.48-5.4,32.42-1.3-.06-1.89-13.38-1.8-24.01.22-25.1,4.24-33.18,8.83-68.08,2.31-17.59,2.08-20.05,5-42.52,1.3-10.01,2.77-20.01,4.71-29.91,2.61-13.33,4.83-26.85,8.86-39.78,7.41-23.77,10.47-31.46,22.99-67.22,13.28-37.94,19.92-56.9,23.26-74.15,1.99-10.28,4.65-26.76,10.71-52.19C1667.87,190.51,1671.27,176.37,1672.97,176.62ZM1530.38,841.86c-1.81.67-18.63-38.51-27.91-61.23-10.05-24.58-11.6-30.66-19.36-44.36-6.67-11.79-10.47-16.22-19.44-32.2-5.61-10-11.28-20.12-15.39-30.78-8.79-22.74-15.35-46.2-18.62-70.43a134.915,134.915,0,0,1-1.09-23.94c.97-21.97-7.2-36.17-10.52-47.69-10.65-36.97-12.5-73.33-10.12-73.84,2.42-.53,12.2,35.4,20.7,66.59,19.02,69.83,19.01,75.59,30.56,115.23,6.31,21.67,15.51,42.5,23.55,63.66,6.07,15.97,12.56,31.77,18.49,47.79,7.55,20.39,12.52,34.88,16.27,46.34C1521.69,809.84,1531.97,841.26,1530.38,841.86Zm-47.91,354.22c3.46,9.54,6.37,17.18,9.01,24.92,10.5,30.81,23.37,60.52,41.74,87.52,7.05,10.36,15.3,19.88,25.84,27.05,12.77,8.69,21.36,21.01,28.78,34.12a252.828,252.828,0,0,1,28.56,78.07c-12.53-19.24-24.02-37.54-36.22-55.35a223.819,223.819,0,0,0-19.8-24.25c-20.86-22.78-36.47-48.76-50.51-76.2-14.89-29.1-21.05-60.42-28.11-91.67C1481.62,1199.7,1481.95,1199.01,1482.47,1196.08Zm-284.78-7.83c15.4,8.21,30.68,16.64,46.15,24.73,12.04,6.3,24.41,11.98,36.42,18.36,18.97,10.07,34.8,24.39,50.67,38.56,10.66,9.52,21.24,19.14,31.46,29.11,14,13.65,27.61,27.68,41.41,41.53,7.14,7.16,13.66,15.18,21.67,21.19,14.45,10.84,29.68,20.66,44.84,30.52a200.947,200.947,0,0,0,21.05,11.59c9.68,4.76,19.51,9.22,29.41,13.51,9.28,4.02,18.85,7.39,28.08,11.52,16.73,7.49,28.51,21.49,42.55,32.77-19.6-10.78-41.73-12.71-62.35-19.44-18.19-5.93-36.2-12.46-54.02-19.41-5.7-2.22-10.42-6.85-15.81-10.02-9.9-5.83-20.22-10.98-29.89-17.14-19.8-12.62-35.97-29.54-52.6-45.85q-14.91-14.625-29.52-29.57c-3.59-3.69-6.43-8.12-10.03-11.8-8.02-8.19-16.12-16.32-24.53-24.1-13.49-12.48-25.83-26.43-41.86-35.84-25.46-14.94-45.21-37.17-69.41-53.67a34.876,34.876,0,0,1-9.41-8.69A47.236,47.236,0,0,1,1197.69,1188.25Zm416.43,295.9c-.78,1.32-17.44-11.7-43.22-16.21-15.5-2.71-16.47.77-37.82,0-33.49-1.21-59.1-10.78-69.99-14.95a168.535,168.535,0,0,1-33.69-16.21c-26.08-16.49-47.87-38.31-70.29-59.26-3.78-3.53-6.3-8.38-9.84-12.2-10.6-11.43-28.26-34.1-51.83-56.01-.58-.53-18.19-15.12-53.43-44.28q-12.825-10.62-25.42-21.51-9.495-8.2-18.82-16.61a134.568,134.568,0,0,1-14.52-16.18c-11.39-14.64-19.45-30.89-17.73-32.11.67-.48,2.36,1.64,10.91,7.75,3.19,2.28,5.13,3.43,6.74,4.64,14.8,11.1,29.31,22.6,43.94,33.94,8.82,6.84,17.73,13.57,26.45,20.54,20.99,16.76,42.56,32.88,62.58,50.73,12.15,10.83,21.63,24.61,32.7,36.72,20.02,21.89,41.18,42.7,64.18,61.4,14.89,12.11,32.02,20.96,49.6,28.84,23.99,10.76,49.45,23.82,83.51,30.53,9.23,1.82,21.87,3.77,37.78,11.23C1602.89,1472.91,1614.79,1483.02,1614.12,1484.15Zm-13.21-31.81c-14.51-20.84-21.76-31.26-29.19-38.76-6.28-6.34-12.69-12.45-27.59-27.08-2.73-2.68-5.82-5.17-7.94-8.29-14.08-20.73-30.25-40.12-41.69-62.56-10.91-21.39-22.63-42.6-25.97-66.9-1.99-14.5-3.27-29.11-4.66-43.69-.82-8.62-1.5-17.28-1.68-25.93-.07-3.18,1.5-6.39,2.92-11.91,6.17,9.98,6.62,19.02,8.74,27.48,5.69,22.67,10.39,45.64,17.15,67.99,4.1,13.56,11.3,26.19,17.1,39.24,13.53,30.42,34.26,55.96,56.23,80.34a263.007,263.007,0,0,1,23.22,29.15c7.99,11.81,13.02,21.54,18.43,32.09,8.85,17.26,20,41.58,18.35,42.46C1623.19,1486.56,1617.12,1475.61,1600.91,1452.34Zm-75.51,408.65a67.114,67.114,0,0,0-2.85-10.02c-6.4-16.2-13.06-32.29-19.4-48.52a73.879,73.879,0,0,1-3.14-12.1s-3.19-13.34-5.21-26.74c-4.55-30.19.45-114.58,4.06-114.39,1.6.08-.11,16.64,3,50.42,2.39,25.99,6.03,44.75,15.56,88.98,6.83,31.7,14.48,66.26,23,103.33C1534.01,1884.5,1527.44,1870.1,1525.4,1860.99Zm19.46,27.81c-7.97-36.4-15.88-72.81-23.29-109.33-4.35-21.43-7.78-43.04-11.52-64.59a326.58,326.58,0,0,1-4.21-65.51,14.876,14.876,0,0,1,.87-4.08c.18-.55.91-.92,2.13-2.07,2.39,11.45,4.6,22.48,7,33.48,4.22,19.4,8.09,38.9,12.96,58.14,4.35,17.19,10.59,33.92,14.65,51.16a310.023,310.023,0,0,1,6.48,42.26c1.9,20.49,2.83,41.08,3.95,61.64.38,6.92.06,13.87.06,20.81-.74.18-1.48.35-2.23.53C1549.4,1903.78,1546.53,1896.42,1544.86,1888.8Zm-11.78,100.79c-1.04.57-8.77-13.91-21.61-30.61-10.69-13.9-20.44-23.51-35.91-37.82-32.31-29.88-47.72-45.82-74.14-64.57-26.17-18.57-52.45-37.04-77.92-56.55-19.77-15.15-35.55-34.37-49.71-54.85-8.73-12.63-18.04-24.9-26.14-37.92-11.22-18.03-21.38-36.72-32.35-54.9-4.68-7.75-10.17-15.01-15.46-22.37-4.15-5.78-5.02-12.18-4.04-18.94.22-1.55,1.48-2.94,2.87-5.57,4.56,6.31,8.55,11.83,12.55,17.34,16.93,23.33,38.04,42.71,58.85,62.36,13.44,12.7,27.16,25.1,40.82,37.57,17,15.52,34.38,30.64,51.02,46.54,16.15,15.43,31.39,31.81,47.35,47.45,19.83,19.43,34.8,42.74,51.83,64.4,28.85,36.7,41.82,47.09,57.07,74.96C1527.04,1972.29,1534.17,1988.99,1533.08,1989.59Zm-18.01-47.43c-10.65-17.08-11.89-14.11-34.66-43.6-28.8-37.3-36.35-55.38-67.47-85.98a42.021,42.021,0,0,1-6.03-5.81c-19.21-21.7-40.88-40.76-62.65-59.82-30.12-26.37-43.57-41.33-50.1-47.33-12.85-11.78-24.77-22.44-41.79-38.84-33.54-32.33-26.51-27.75-32.51-34.06-2.4-2.53-5.08-4.98-6.78-7.95a48.235,48.235,0,0,1-5.82-16.07c7.83,7.59,15.77,15.07,23.46,22.8,18.54,18.65,38.35,35.85,61.05,49.11,21.36,12.48,43.74,23.18,65.39,35.17a197.047,197.047,0,0,1,24.17,16.34c12.45,9.56,24.31,19.9,36.76,29.45,7.04,5.4,12.18,12.24,17.79,18.93,15.86,18.93,23.19,41.9,32.05,64.21a61.308,61.308,0,0,0,3.77,8.61c6.38,10.79,12.95,21.47,19.46,32.17,1.45,2.38,2.64,4,2.88,4.37,9.53,14.38,21.62,35.69,28.22,49.88,14.64,31.48,18.4,62.57,16.81,63.03C1537.65,1997.21,1533.7,1972.03,1515.07,1942.16Zm-211.5,161.55c18.41,9.17,37.01,18.01,54.94,28.06,19.18,10.76,37.27,23.26,52.66,39.29,4.58,4.77,9.57,9.17,14.56,13.53a208.715,208.715,0,0,1,17.18,20.63c17.27,24.27,26.94,56.84,25.35,57.5-1.66.69-10.41-36.06-43.47-67.66-5.07-4.85-12.84-10.85-28.65-22.48-17.67-13-35.02-26.35-54.77-36.42-16.35-8.34-31.69-18.66-47.5-28.07a92.926,92.926,0,0,1-11.21-7.21A33.414,33.414,0,0,1,1303.57,2103.71Zm118.69,119.92c-7.6-7.56-16.67-13.68-25.32-20.12-7.83-5.83-16.13-11.03-23.97-16.85-17.09-12.67-33.9-25.71-51.07-38.28-9.85-7.21-20.07-13.92-30.31-20.56-7.57-4.91-12.38-11.81-16.56-19.31.58-.93,1.16-1.85,1.74-2.78,3.34,1.37,6.92,2.35,9.99,4.18,14.67,8.78,29.16,17.86,43.8,26.69,6.86,4.14,14.23,7.51,20.82,12.03,20.12,13.82,40.54,27.29,59.78,42.28,26.12,20.35,42.66,47.57,51.86,79.29a11.378,11.378,0,0,1,.21,3.1c0,.3-.32.59-.79,1.41-4.31-.08-6.56-3.43-7.75-6.74C1448.19,2249.98,1435.32,2236.62,1422.26,2223.63Zm-397.25,207.93c6.2-11.72,12.49-23.28,22.23-32.35a144.533,144.533,0,0,0,24.61-29.68c13.1-21.03,30.39-38.09,52.7-49.64,25.41-13.16,51.82-23.84,78.69-33.65,17.61-6.43,35.71-9.3,53.99-12.08,24.13-3.66,48.22-7.63,72.37-11.19,3.77-.55,7.99.36,14.49-.16,14.1-1.12,18.13-4.29,31.36-4.54a60.747,60.747,0,0,1,13.88.78c7.54,1.4,15.17,2.3,22.68,3.81,10.44,2.1,19.94,6.2,28.45,15.28-11.41.87-21.55-.82-31.38-2.8-19.47-3.93-38.83-2.72-58.32-.99-32.87,2.91-63.19,14.69-93.01,27.55-17.54,7.56-36.09,10.77-54.2,15.87-18.56,5.22-37.37,10.32-53.56,20.78-20.2,13.05-39.29,27.85-58.61,42.23-13.44,10-26.42,20.62-39.7,30.84C1042.89,2418.39,1033.91,2424.92,1025.01,2431.56Zm418.86-139.43a132.4,132.4,0,0,0-38.08-5.99c-6.95-.01-13.89-1.73-20.84-1.82-27.27-.34-53.69,4.88-78.07,16.84-13.65,6.7-25.54,16.94-38.41,25.32a67.454,67.454,0,0,1-14.68,7.64c-14.54,4.95-29.2,9.66-44,13.76-11.03,3.06-22.31,5.39-33.59,7.38-23.58,4.18-44.16,14.25-62.84,29.17-14.7,11.74-30.07,22.69-45.7,33.19-9.06,6.09-18.77,11.53-29.3,14.82-.43-.57-.85-1.15-1.28-1.72,2.35-2.27,4.49-4.84,7.1-6.75,11.22-8.2,22.78-15.95,33.81-24.39,6.59-5.04,12.2-11.34,18.67-16.57,12.67-10.24,25.23-20.56,38.75-29.79,22.24-15.19,42.95-21.26,68.75-29.15,44.08-13.48,56.3-9.18,83.26-23.46a271.762,271.762,0,0,1,25.55-11.64c11.97-4.8,24.14-8.77,37.41-8.77,8.99,0,17.96-1.87,26.96-2.12a139.027,139.027,0,0,1,36.14,3.51c11.51,2.73,23.24,4.52,34.81,6.98,1.87.4,3.45,2.13,5.17,3.25-.29.66-.58,1.33-.86,1.99A82.906,82.906,0,0,1,1443.87,2292.13Zm-136.86,190.45c.13-2.56-.25-5.28.5-7.64,2.72-8.62,5.75-17.15,8.79-25.66,4.09-11.47,8.65-22.79,12.39-34.38,7.2-22.31,23.56-36.43,42.3-48.56,2.63-1.7,6.63-4.01,14.11-8.88,11.25-7.33,18.99-12.98,22.52-15.5,18.93-13.55,43.16-27.81,44.02-26.59.76,1.08-17.34,13.83-47.26,39.04-28.11,23.69-42.79,35.47-50.67,47.8-9.74,15.24-17.97,31.46-26.66,47.36-4.35,7.95-8.12,16.21-12.36,24.22A24.039,24.039,0,0,1,1307.01,2482.58Zm130.23-135.93c-15.12,12.98-22.53,14.16-34.26,23.75-9.58,7.83-19.05,16.24-23.83,28.49-7.94,20.33-19.96,38.34-33.85,54.92-7.72,9.22-17.33,16.85-26.05,25.16,4.67-9.08,9.31-17.92,13.8-26.84,6.88-13.67,12.39-28.24,20.85-40.84,8.17-12.17,16.05-24.85,29.2-33.45,15.91-10.4,30.49-22.83,45.62-34.42.78-.6,2.83-3.56,6.45-6.62,7.92-6.7,18.07-10.92,19.28-9.26C1455.93,2329.6,1443.91,2340.92,1437.24,2346.65Zm332.48,284.92c-17.29-13.99-34.5-28.08-51.92-41.91-5.71-4.54-12.44-7.87-17.87-12.68-20.5-18.15-43.79-32.1-66.93-46.43-15.68-9.71-30.45-20.78-46.84-29.53-8.12-4.33-15.12-11.28-21.66-17.98-23.41-23.99-43.95-50.45-51.81-83.53-5.5-23.16-16.57-43.54-24.92-65.75,2.93,2.61,6,5.07,8.76,7.85,22.86,23.03,45.27,46.52,68.65,69,12.29,11.82,26.54,21.57,39.4,32.83,27.28,23.88,55.45,46.92,80.95,72.6,20.79,20.94,38.68,44.85,56.96,68.15,8.12,10.34,13.97,22.44,20.99,33.66,2.55,4.08,5.49,7.92,8.26,11.86C1771.06,2630.33,1770.39,2630.95,1769.72,2631.57Zm-227.15-284.19c11.72,8.03,25.12,13.56,37.33,20.93q26.8,16.185,52.91,33.53c10.41,6.95,20.97,14.11,29.86,22.8,14.94,14.6,29.09,30.11,42.61,46.05,5.99,7.05,10.03,15.89,14.31,24.25,12.26,23.9,23.17,48.55,36.61,71.75,9.32,16.08,17.86,32.28,24.12,49.7,1.58,4.39,2.48,9.02,4.23,15.51-2.7-1.96-3.71-2.36-4.21-3.1-11.06-16.46-21.92-33.06-33.13-49.42-8.24-12.03-16.2-24.36-25.59-35.46a498.066,498.066,0,0,0-41.05-44.58c-9.03-8.69-16.57-15.37-88.85-73.43-11.4-9.16-21.92-17.11-35.12-29.66-13.38-12.72-25.96-26.3-38.56-39.82-4.89-5.25-8.87-11.34-13.27-17.04.53-.72,1.05-1.45,1.58-2.17C1519.32,2337.14,1531.22,2339.61,1542.57,2347.38Zm403.21-264.65c-4.28,2.64-8.58,5.27-12.85,7.93-14.9,9.28-30.25,17.13-47.94,20.17-12.32,2.12-24.31,6.13-36.45,9.3-29.16,7.62-54.44,23.42-79.82,38.72-7.84,4.73-14.17,12.31-20.4,19.29-21.4,23.93-42.01,48.59-63.81,72.15-14.55,15.73-32.42,27.03-52.24,35.86-16.72,7.45-33.1,4.46-63.74,15.66-8.35,3.05-8.28,3.51-16.85,6.53-29.15,10.23-53.19,13.04-53.42,12.01-.4-1.73,64.2-21.28,73.67-26.84.56-.33,4.24-2.2,9.27-4.78,1.54-.79,3.42-1.02,4.81-1.99,10.8-7.54,21.53-15.19,32.26-22.83,4.81-3.43,9.94-6.51,14.3-10.45,18.1-16.37,35.42-33.66,54.09-49.36,15.64-13.15,30.94-26.71,47.24-39.21,18.04-13.83,37.33-25.52,55.98-38.27,3.58-2.45,8.32-3.22,12.58-4.63,8.6-2.85,17.17-5.84,25.88-8.34,6.98-2,14.15-3.34,21.23-5.02,9.75-2.31,19.71-3.99,29.19-7.13,15.53-5.16,30.66-11.53,46.14-16.87,6.37-2.2,13.2-3.05,19.83-4.52C1945.07,2080.97,1945.42,2081.85,1945.78,2082.73Zm-443.89,223.13q28.065-17.235,56.19-34.37c8.93-5.44,17.54-11.66,27.01-15.91,15.18-6.8,26.28-18.15,37.27-29.89,20.27-21.67,40.06-43.8,60.92-64.88,15.8-15.97,34.75-27.62,55.26-37.21,25.19-11.78,52.47-16.76,78.27-26.37,4.19-1.56,8.84-2.04,13.33-2.59,21-2.59,28.21-2.07,44.62-5.08,7.18-1.32,5.17-1.48,22.08-5.73,11.78-2.96,39.85-9.69,40.22-8.4.39,1.38-30.81,12.75-63.14,21.34-10.77,2.86-23.58,6.02-48.27,12.75q-8.235,2.235-16.42,4.63c-21.01,6.15-39.28,17.83-56.99,30.4-36.54,25.94-69.07,56.56-101.98,86.79a388.88,388.88,0,0,1-87.58,60.61,228.281,228.281,0,0,1-61.14,20.81c-1.98.37-4.02.38-6.04.56-.33-.78-.65-1.56-.98-2.34C1496.98,2309.25,1499.35,2307.42,1501.89,2305.86Zm197.48-518.27c-6.12,13.67-12.1,27.4-18.39,41a356.982,356.982,0,0,1-49.12,78.71c-13.52,16.29-25.53,33.84-38.23,50.81a17.814,17.814,0,0,1-2.07,2c-.34-.18-.67-.36-1.01-.54,3.98-9.05,8.47-17.92,11.85-27.19,8.63-23.72,23.1-44.24,36.31-65.29,11.9-18.97,26.77-36.05,40.05-54.17a178.448,178.448,0,0,0,11.46-18.6c5.77-10.31,11.2-20.81,16.87-31.18.57-1.03,1.76-1.72,4.04-1.74Q1705.235,1774.5,1699.37,1787.59Zm-72.77,54.87c19.77-21.22,39.13-42.77,55.63-66.57a255.8,255.8,0,0,1,23.96-30.2,10.635,10.635,0,0,1,6.14-3.4c-7.68,14.3-14.52,29.14-23.22,42.8-14.98,23.51-30.7,46.58-46.88,69.3-19.09,26.81-36.37,54.51-48.59,85.21-4.38,11.01-10.02,21.52-14.44,32.52-1.12,2.78-2.24,8.27-5.51,15.12-3.94,8.26-10.02,17.52-11.79,16.75-1.24-.54.15-5.74,3.6-21.01,1.9-8.42,3.5-16.91,5.53-25.3,9.37-38.85,9.16-42.36,11.7-49.72C1591.65,1882.1,1608.57,1861.83,1626.6,1842.46Zm4.09-335.3c-.02.46-.18,16.27-.6,47.9-.13,9.86-.3,21.5-.55,35.49-.16,9.25-.26,20.52-1.1,35.54-.94,16.67-1.72,33.38-3.68,49.94-3.53,29.78-6.02,59.78-14.18,88.81-3.7,13.18-5.01,26.63-6.91,40.09-1.88,13.33-6.33,26.33-10.14,39.33-4.8,16.37-6.51,18.1-10.75,32.6-4.87,16.66-8.27,34.69-8.27,34.69-5.91,31.93-10.84,41-16.83,77.31-.57,3.44-3.01,23.49-7.87,63.44-5.05,41.56-5.03,42.92-6.15,48.74-4.43,22.92-9.78,45.71-15.78,68.28-5.2,19.53-11.78,38.7-17.91,57.98-1.47,4.63-3.66,9.02-5.33,13.6-6.62,18.17-9.51,26.56-13.15,36.34-5.63,15.11-10.32,24.01-15.68,35.22-16.46,34.49-27.43,66.23-37.64,95.78-5.71,16.53-11.22,32.09-19.87,63.91-11.25,41.4-21.95,82.95-37.18,123.13-5.94,15.67-13.08,30.94-18.09,46.89-7.1,22.61-11.85,45.98-19.24,68.49-8.6,26.18-18.94,51.79-28.6,77.61a19.152,19.152,0,0,1-3.16,5.42c-6.82,8.27-13.76,16.44-21.21,25.3-1.64-4.3-.07-8.1,1.33-11.67,6.63-16.89,13.49-33.7,20.19-50.57,9.54-24,19.81-47.76,28.3-72.13,9.17-26.31,16.27-53.34,24.98-79.83,8.95-27.2,19.14-54,28.06-81.21,7.28-22.21,13.12-44.89,20.34-67.12,5.51-16.94,7.88-20.35,15.71-41.06,13.55-35.83,14.13-42.15,25.11-72.65,19.88-55.26,25.09-54.31,39.02-98.72,8.18-26.09,11.59-39.31,15.81-54.27,3.5-12.42,6.24-25.07,9.97-37.42,4.13-13.65,9.01-27.06,13.55-40.59a50.2,50.2,0,0,0,2.16-6.98c3.01-16.81,6.04-33.61,8.77-50.46.59-3.65.2-5.89.26-8.18.58-25.34,5.52-40.76,11.51-75.15,3.29-18.9,10.02-61.41,13.54-73.55.1-.34,1.4-4.8,3.15-10.93.82-2.88,1.78-6.25,2.84-10.04,3.3-11.75,6.78-23.46,9.72-35.3,5.37-21.64,11.16-43.22,15.38-65.1,3.5-18.11,5.88-35.03,10.3-68.16,2.02-15.15,9.98-77.7,12.41-137.07,0-.08.01-.17.01-.25,3.16-77.18,9.7-97.85,9.81-143.5.02-10.07-.64-21.56-1.96-44.55-3.28-57.06-8.61-99.47-10.11-110.74-7.77-58.2-18.27-108.19-18.27-108.19a543.384,543.384,0,0,1-9.3-57.93c-.61-5.85-1.07-11.27-1.43-16.25-.96-13.28-1.19-23.48-1.27-26.97-1.93-85.12-2.81-95.76-5.51-108.64-2.56-12.2-10.62-50.66-29.29-75.16a100.033,100.033,0,0,1-16.39-28.47c-2.88-7.94-2.97-11.64-6.4-24.31-3.08-11.37-5.99-18.99-9.74-29.7-8.54-24.34-17.01-48.71-26.04-72.86-10.85-29.04-22.35-57.84-33.34-86.83-2.08-5.5-3.1-11.4-4.64-17.1-1.28-4.71-2.45-9.46-3.94-14.11-3.17-9.87-6.28-19.62-7.99-30.01-2.31-14-6.89-27.64-10.67-41.38q-6.09-22.17-12.53-44.24c-2.82-9.66-6.05-19.2-8.82-28.88-.91-3.17-.96-6.58-1.4-9.88,1.05-.52,2.1-1.04,3.14-1.57,2.51,2.6,5.55,4.86,7.43,7.86a120.1,120.1,0,0,1,16.41,41.61c3.26,17.12,7.74,34.01,10.75,51.17,5.62,31.99,19.34,61.03,31.37,90.76,7.06,17.44,13.08,35.35,18.58,53.34,6.22,20.33,11.06,41.07,16.99,61.49,6.71,23.11,11.38,46.86,21.28,68.99.74,1.66,1.23,3,1.6,3.87,3.94,9.43,7.11,16.27,9.86,21.84,9.59,19.36,12.46,23.89,15.18,29.82.67,1.46.94,2.16,2.49,5.9,7.71,18.58,8.4,19.89,9,19.81,2.77-.39.9-26.41.9-26.41-2.1-29.2-5.14-83.44-9.7-179.08h0c0-30.64-.24-14.14-.38-29.67,0-.51-.04-3.84-.04-6.58-.02-28.4,2.95-37.69.82-54.5-.91-7.18-.57-6.73-3.9-18.01-6.29-21.3-5.92-44.88-4.92-91.15.47-21.83,1.16-33.73,2.32-51.28,1.85-27.92,7.6-55.28,14.61-82.21,4-15.35,11.66-29.76,17.79-44.54,3.46-8.34,6.94-16.67,10.78-24.83,6.82-14.5,14-28.83,20.88-43.31q12.345-25.98,24.38-52.1c1.74-3.78,2.83-7.85,4.38-11.72,1.25-3.1,2.75-6.1,4.14-9.15.8.17,1.61.34,2.41.5-.61,6.52-.76,13.12-1.93,19.54-4.09,22.39-7.09,40.15-9.76,50.3-12.37,47.06-27.94,78.05-43.9,137.55-8.58,32-14.05,57.47-15.4,69.33-2.2,19.41-5.94,38.65-8.08,58.07-2.97,26.96-9.48,53.52-7.75,81.03.85,13.53-1.52,27.24-1.08,40.82,1.6,48.54,3.24,86.11,4.42,99.34,7,78.2,2.87,78.05,16.17,257.17,2.57,34.62,6.12,80.3,10.73,134.19h0c.12.59,17.83,90.45,23.11,159.37,0,.03.05.61.05.68.21,2.79.99,12.82,2.05,26.1.52,6.54,1.16,14.33,1.96,23.61,3.13,36.51,3.23,44.46,4.38,59.37q.255,3.3.37,6.6h0c.01.12.01.31.02.55C1639.58,1449.37,1632.67,1464.64,1630.69,1507.16Zm4.44-20.01c-.52-.41,2.92-6.25,21.71-31.75a245.056,245.056,0,0,0,17.93-28.44c11.09-20.6,13.52-34.27,23.2-58.29,8.47-21.02,17.1-41.98,25.7-62.95,8.87-21.59,17.35-43.36,26.86-64.67,5.39-12.08,12.52-23.38,18.85-35.04,13.82-25.45,27.42-51.03,41.54-76.32,8.5-15.22,17.9-29.94,26.72-44.98,6.18-10.53,11.85-21.36,18.19-31.79,2.2-3.62,5.74-6.43,8.67-9.61.8.48,1.59.97,2.39,1.45-1.21,4.16-1.8,8.64-3.72,12.43-25.94,51.09-48.27,103.83-70.65,156.52-10.09,23.76-17.13,48.79-26.61,72.83-9.59,24.33-19.39,48.71-31.14,72.04-10.83,21.5-21.95,34.45-42.27,61.02C1665.87,1454.46,1636.47,1488.22,1635.13,1487.15Zm310.57-175.77c-19.83,9.41-39.51,19.15-59.18,28.89-20.22,10.01-36.9,24.98-54.34,38.93-11.74,9.39-22.04,20.24-32.93,30.5-11.67,11-22.34,18.97-37.38,28.4-15.06,9.45-29.81,18.7-51.11,24.44-17.13,4.62-22.83,2.74-38.42,9.6-16.85,7.42-26.16,16.64-27.01,15.61-.95-1.15,9.5-14.07,25.82-23.49,5.41-3.13,3.84-1.46,26.06-10.72,19.88-8.28,28.34-13.15,35.74-16.75,4.05-1.97,7.59-4.95,11.62-6.97,12.99-6.55,22.49-17.46,33.57-26.39,10.84-8.73,22.32-16.79,32.33-26.38,21.65-20.74,47.36-35.69,72.39-51.42,13.7-8.61,29.33-14.47,44.65-20.04,15.25-5.54,31.2-9.15,46.84-13.61C1966.24,1301.25,1956.09,1306.44,1945.7,1311.38Zm25.98-25.81c-8.22,2.9-16.41,5.99-24.82,8.2-28.65,7.54-54.29,21.27-79.6,36.31-27.53,16.35-51,37.74-75.84,57.46-13.64,10.83-26.53,22.62-40.34,33.22-19.6,15.04-42.76,23.31-65.34,32.54-2.13.87-4.62.83-6.94,1.21-.41-.77-.82-1.53-1.23-2.3,6.27-5.91,12.31-12.08,18.85-17.68,21.45-18.34,43.11-36.42,64.59-54.71a50.9,50.9,0,0,0,8.62-9.11c13.85-19.61,34.03-31.77,52.93-45.45,2.26-1.64,4.99-2.7,7.02-4.56,22.61-20.72,51.42-25.42,79.86-31.03,15.04-2.97,30.14-5.63,45.19-8.56a52.419,52.419,0,0,1,22.98.28C1974.76,1283.43,1973.39,1284.97,1971.68,1285.57Z" transform="translate(-999.99 -152.598)" fill="#45482a"/>
      </g>
    </g>
  </g>
</svg>
