<?xml version="1.0" encoding="utf-8"?>
<!-- Generator: Adobe Illustrator 24.0.1, SVG Export Plug-In . SVG Version: 6.00 Build 0)  -->
<svg version="1.1" id="Слой_1" xmlns="http://www.w3.org/2000/svg" xmlns:xlink="http://www.w3.org/1999/xlink" x="0px" y="0px"
	 viewBox="0 0 3000 3000" style="enable-background:new 0 0 3000 3000;" xml:space="preserve">
<style type="text/css">
	.st0{fill:none;}
	.st1{fill:#45482A;}
</style>
<rect class="st0" width="3000" height="3000"/>
<g>
	<path class="st1" d="M1999.84,1334.84c-0.01-0.03-0.02-0.05-0.05-0.08c-1.55-2.37-14.65,3.21-24.04,8.75
		c-5.19,3.07-8.14,6.13-11.84,8.23c-11.6,6.6-22.88,13.76-32.83,22.74c-8.7,7.85-17.3,15.82-25.61,24.07
		c-5.35,5.32-9.97,11.36-15.14,16.88c-8.87,9.48-17.15,19.48-24.18,30.35c-5.77,8.92-12.95,16.64-19.27,25.07
		c-7.45,9.95-15.06,19.78-22.2,29.95c-3.72,5.29-6.51,11.23-9.82,16.82c-6.51,11.03-13.42,21.84-19.54,33.08
		c-7.24,13.31-14.02,26.89-20.62,40.54c-5.42,11.2-10.81,22.47-15.29,34.07c-8.9,23.06-17.12,46.39-25.71,69.58
		c-4.76,12.86-9.7,25.65-14.6,38.46c-0.25,0.65-0.85,1.17-1.29,1.76c-0.44-4.05-0.06-7.77,0.26-11.5
		c0.47-5.39,0.83-10.79,1.36-16.17c1.12-11.27,2.53-22.52,3.41-33.81c0.69-8.81,0.54-17.69,1.18-26.51
		c0.81-11.28,1.48-19.51,1.64-21.26c2.71-29.61-1.61-101.86-1.61-101.86c-5.42-90.52-6.18-162.93-6.18-175.13
		c0-1.41,0.11-7.26-0.14-15.17c-0.33-10.63-0.8-21.25-1.18-31.88c-0.95-26.62-1.9-39.91-1.4-44.9c1.44-14.38,4.87-26.02,7.17-33.83
		c1.28-4.34,2.32-7.3,3.23-9.64c1.75-4.48,3.17-7.73,3.59-8.66c5.92-13.15,9.83-31.09,20.1-56.29c1.56-3.82,1.84-4.1,3.49-8.44
		c3.37-8.85,6.62-17.75,10.02-26.58c2.18-5.64,3.55-8.64,5.35-12.89c2.84-6.73,6.65-16.21,25.69-70.94
		c1.64-4.7,3.55-10.69,6.67-18.74c3.04-7.87,5.12-16.05,9.02-23.66c4.01-7.81,6.62-16.32,10.25-24.34
		c4.08-8.99,8.53-17.81,12.98-26.63c4.63-9.17,9.34-18.31,14.24-27.34c2.83-5.22,5.78-10.43,9.21-15.27
		c12.73-17.97,23.36-32.79,27.66-38.05c45.65-55.8,52.7-62.73,51.12-64.56c-3.75-4.35-48.1,29.34-59.68,42.26
		c-1.7,1.89-3.87,4.35-3.87,4.35c0,0-8.93,10.09-16.04,18.5c-10.73,12.71-45.67,59.33-63.03,95.33
		c-0.54,1.13-5.64,11.67-12.16,25.37c-2.87,6.03-5.53,12.17-8.66,18.06c-5.58,10.51-11.31,20.94-17.24,31.26
		c-6.47,11.26-13.28,22.32-19.84,33.53c-4.68,7.99-5.08,9.11-9.28,16.51c-5,8.8-12.31,21.36-21.8,36.58
		c-0.78-3.1-1.45-5.3-1.88-7.56c-1.5-7.78-2.73-15.61-4.42-23.35c-3.43-15.68-7.07-31.31-10.68-46.95
		c-1.22-5.27-2.75-10.46-3.92-15.74c-1.61-7.21-2.77-14.52-4.55-21.68c-4.05-16.22-7.59-30.55-12.75-49.78
		c-1.54-5.73-5.99-25.09-14.84-63.57c-10.69-46.51-10.63-47.48-13.65-58.84c-5.74-21.65-18.27-65.34-22.34-64.49
		c-0.76,0.16-1.4,1.92-1.04,14.57c0.85,29.97,5.37,52.23,11.14,85.78c0.27,1.54,0.8,4.76,1.6,9.17c2.54,14,4.56,24.55,5.05,27.03
		c6.28,32.18,18.43,102.1,19.49,108.25c0.24,1.4,0.93,5.4,1.93,10.8c1.32,7.11,2.36,12.15,3.35,17.38
		c4.21,22.06,10.13,63.52,17.95,148.04c-2,4.23-4.69,9.97-7.8,16.81c-2.33,5.12-4.2,9.27-6.57,14.68
		c-3.77,8.58-7.22,17.31-10.6,26.05c-2.07,5.35-3.69,10.87-5.57,16.3c-3.24,9.37-6.79,18.65-9.73,28.12
		c-3.27,10.51-6.38,21.1-8.88,31.81c-3.52,15.1-6.51,30.33-9.54,45.54c-4.22,21.23-9.3,42.3-11.87,63.85
		c-1.9,15.93-4.26,31.81-6.3,47.73c-1.36,10.55-2.49,21.14-3.77,31.7c-1.02,8.41-2.09,16.82-3.16,25.23
		c-0.28,2.23-0.54,3.35-0.69,4.27c-3.42,21.15-0.11,43.85-1.54,44.06c-1.21,0.18-4.56-15.9-4.73-16.73
		c-3.31-16.03-4.29-27.71-5.81-37.95c-1.86-12.49-3.78-24.97-5.44-37.48c-1.8-13.59-3.32-27.21-4.96-40.82
		c-0.3-2.51-0.71-5.01-0.82-7.52c-0.37-8.47-0.82-16.95-0.9-25.43c-0.14-14.43-0.54-28.89,0.1-43.29
		c0.88-19.65,2.61-39.26,4.04-58.88c0.63-8.64,1.19-17.3,2.18-25.9c1.22-10.56,2.9-21.07,4.3-31.62c1.09-8.22,1.97-16.48,3.12-24.69
		c1.03-7.32,2.29-14.6,3.46-21.9c1.46-9.08,3.08-18.13,4.34-27.24c1.32-9.47,2.1-19.01,3.46-28.48c1.82-12.68,4.01-25.3,5.95-37.96
		c1.23-8.01,2.17-16.07,3.5-24.07c1.24-7.46,3-14.83,4.22-22.3c1.67-10.18,4.24-24.72,8.64-53.94c3.12-20.71,5.24-37.48,2.7-38.17
		c-0.39-0.11-2.03-0.14-6.79,10.43c-34.19,76.01-57.12,212.8-57.12,212.8c-10.74,64.06-12.79,76.12-14.73,99.26
		c-2.94,35.1-2.38,64.81-3.08,88.8c-0.63,21.85-0.17,43.7,1.55,65.5c1.56,19.79,3.28,39.57,5.22,59.33
		c1.15,11.67,2.7,23.31,4.36,34.91c2.38,16.61,5.2,33.16,7.52,49.78c1.49,10.72,2.24,21.54,3.64,32.27
		c4.13,31.63,6.77,49.3,8.12,59.56c4.27,32.53-3.27,39.72-15.78,135.16c-4.91,37.48-6.72,56.3-8.5,69.19
		c-3.53,25.55-7.62,51.03-11.5,76.53c-0.14,0.92-0.62,1.79-0.94,2.69c-1.08-1.81-1.42-3.53-1.45-5.27
		c-0.15-9.56-0.23-19.11-0.32-28.67c-0.05-4.69-0.06-9.38-0.13-14.07c-0.11-7.37-0.17-14.75-0.4-22.12
		c-0.44-14.07-0.73-16.3-1.18-31.74c-0.23-8-0.26-11.7-0.37-16.44c0,0-0.82-36.27-5.2-78.06c-0.34-3.25-1.12-10.36-1.6-19.98
		c-0.26-5.33-0.15-5.62-0.42-10.52c-0.44-8.01-0.98-11.3-1.89-20.88c-0.66-6.92-0.46-6.11-1.56-19.49
		c-0.91-11.12-1.66-19.08-1.85-21.26c-1.91-21.09-2.52-49.72-4.02-72.56c-2.83-42.99-7.7-54.16-15.28-126.06
		c-3.11-29.51-3.98-39.22-3.98-39.22c-1-11.19-1.59-19.09-3.05-32.25c-1.1-9.84-1.93-15.83-2.8-22.53
		c-2-15.38-4.75-36.54-6.45-60.19c-0.99-13.7-1.34-24.64-2.06-46.5c-0.29-9.01-0.62-16.37-0.65-26.49
		c-0.04-13.91,0.05-27.82,0.31-41.72c0.04-2.34,0.45-17.48,1.23-31.88c2.51-46.46,7.69-59.53,11.25-110.49
		c1.08-15.4,0.81-16.72,2-31.33c1.25-15.25,3.01-29.28,6.53-57.34c1.91-15.23,3.29-25.75,4.39-33.7c1.6-11.61,3.22-23.22,4.96-34.81
		c1.04-6.95,2.42-13.85,3.5-20.79c0.97-6.23,1.44-12.56,2.67-18.74c1.55-7.75,3.64-15.4,5.51-23.09c0.81-3.32,1.39-6.72,2.54-9.91
		c3.16-8.82,6.53-17.56,9.87-26.31c3.52-9.23,6-18.82,10.77-27.61c2.91-5.35,4.68-11.32,7.04-16.98c3.76-8.98,7.66-17.9,11.35-26.91
		c1.77-4.33,3.02-8.88,4.81-13.21c1.99-4.81,4.59-9.37,6.43-14.23c3.24-8.59,6.15-17.3,9.08-26c0.98-2.9,1.69-5.89,2.32-8.89
		c0.48-2.31,0.14-4.66-0.99-5.36c-3.69-2.26-17.34,13.97-18.06,14.84c-9.3,11.15-14.22,21.3-14.85,22.62
		c-17.81,37.19-26.72,55.79-33.79,74.94c-7.28,19.73-11.99,35.32-14.7,44.07c-4.34,13.99-7.48,25.96-10.19,36.46
		c-14.5,56.34-23.57,109.04-39.67,188.86c-1.53,7.59-4.37,20.58-6.68,38.31c-2.19,16.81-3.76,33.72-5.24,50.61
		c-1.48,16.89-3.02,33.81-3.64,50.74c-0.73,20.19-2.18,40.37-0.76,60.62c1.08,15.47,1.31,31.01,2.4,46.48
		c1.4,19.79,3.19,39.55,5.02,59.31c1.73,18.68,3.85,37.32,5.55,56c1.24,13.64,2.07,27.32,3.11,40.97
		c0.59,7.74,1.09,15.49,1.87,23.22c1.51,15.07,3.43,30.11,4.72,45.19c1.79,20.87,1.15,19.94,3.51,50.74
		c3.27,42.68,5.98,54.87,6.53,80.6c0.06,2.73,0.24,11.54,0.55,25.97c0.18,8.49,0.28,16.98,0.61,25.46
		c0.78,19.99,1.13,39.97,0.13,59.98c-0.31,6.18-0.58,12.36-0.82,18.55c-0.92,23.3-0.95,32.71-1.89,52.34
		c-0.36,7.53-0.72,13.64-0.95,17.49c-5.62-21.68-10.92-39-14.81-51.04c-4-12.39-6.34-18.77-10.96-33.98
		c-3.46-11.39-6.32-22.96-9.75-34.36c-4.51-14.97-9.37-29.83-13.98-44.77c-4.68-15.17-9.25-30.37-13.87-45.56
		c0,0-2.65-8.84-4.79-16.04c-11.08-37.38-28.61-174.37-35.41-222.4c-2.76-19.48-10.87-101.14-38.85-203.73c0,0,0,0,0,0
		c-14.07-57.72-34.14-127.99-63.27-206.72l0-0.01c0,0,0,0,0-0.01c-5.87-16.3-10.48-28.36-12.92-36.17
		c-11.62-37.27-35.64-102.68-58.92-157.3c-15.23-35.73-18.38-39.27-19.67-38.88c-4.22,1.28,6.37,49.48,14.15,80.16
		c16.5,65.05,31.5,95.25,45.71,147.3c2.22,8.12,4.99,18.86,10.48,33.55c6.44,17.22,9.57,23.49,15.19,37.33
		c10.84,26.67,16.38,48.48,23.11,74.96c4.54,17.84,7.65,33.02,9.62,42.18c2.09,9.69,4.1,19.41,5.67,29.19
		c2.42,15.14,4.44,30.35,6.59,45.54c0.41,2.86,0.51,5.76,0.98,8.6c3.03,18.33,6.02,36.68,9.23,54.98
		c2.24,12.79,4.78,25.53,7.23,38.28c5.46,28.47,9.07,45.93,13.98,72.83c7.17,39.29,7.62,46.2,6.22,46.6
		c-1.81,0.52-5.53-10.3-14.66-28.67c-8.94-18-16.61-30.46-26.4-45.99c-10.38-16.47-21.81-32.28-32.9-48.3
		c-3.27-4.73-7.07-9.1-10.36-13.82c-3.29-4.72-6.17-9.72-9.35-14.52c-2.29-3.46-4.85-6.73-7.16-10.18
		c-5.8-8.67-11.38-17.49-17.32-26.07c-8.71-12.59-18.04-24.76-26.41-37.56c-9.26-14.17-17.8-28.81-26.53-43.32
		c-3.35-5.56-6.53-11.22-9.51-16.98c-2.89-5.6-5.45-11.37-8.12-17.08c-12.1-25.82-11.71-23.5-15.3-32.77
		c-2.76-7.11-4.97-15.26-9.38-31.57c-1.56-5.76-4.4-16.19-7.39-29.35c-2.92-12.83-5.52-25.74-8.22-38.62
		c-1.14-5.4-1.03-5.79-1.62-8.48c-1.58-7.27-6.46-29.69-11.01-29.58c-3.81,0.1-7.04,16.01-7.79,26.8c-0.44,6.28,0.1,8.74,0.57,37.13
		c0.04,2.66-0.02,2.25,0.04,2.71c2.03,14.63,3.75,29.31,6.24,43.85c1.86,10.83,4.33,21.6,7.23,32.2
		c3.7,13.55,7.89,26.94,13.24,40.01c5.13,12.54,10.53,24.92,17.33,36.59c7.23,12.42,15,24.53,22.72,36.65
		c5.03,7.91,10.24,15.71,15.63,23.37c6.95,9.88,14.02,19.67,21.28,29.32c9.54,12.67,19.19,25.26,27.6,38.73
		c1.61,2.58,3.54,4.96,5.26,7.47c3.86,5.65,7.52,11.45,11.59,16.95c2.44,3.3,5.2,6.27,7.37,9.89c8.79,14.66,18.24,28.92,27.15,43.51
		c4.7,7.69,8.89,15.69,13.12,23.66c5.49,10.35,10.8,20.79,16.17,31.21c4.37,8.48,9.03,16.82,12.96,25.49
		c3.76,8.28,6.83,16.06,10.02,25.08c25.63,72.43,30.1,124.82,30.1,124.82c0.35,3.87,0.69,8.35,1.56,31.93
		c1.29,35.14,2.5,78.87,2.98,129.66c-2.83-9.62-5.7-17.14-7.7-22.02c-4.09-10-5.96-12.49-11.5-25.42
		c-4.64-10.84-4.52-11.88-8.01-19.97c-2.75-6.36-5.7-12.36-14.34-27.77c-12.96-23.1-19.44-34.65-27.61-46.32
		c-4.9-7-9.83-13.22-19.69-25.65c-10.8-13.61-16.6-20.38-24.71-29.32c-6.16-6.79-13.11-12.88-19.86-19.12
		c-5.69-5.26-11.34-10.6-17.45-15.35c-12.38-9.64-25.06-18.91-37.6-28.35c-2.74-2.06-5.27-4.42-8.12-6.31
		c-6.15-4.08-12.71-7.55-18.01-12.84c-1.91-1.9-4.01-3.61-6.04-5.38c-9.06-7.94-18.23-15.75-27.14-23.86
		c-3.55-3.23-6.47-7.16-9.8-10.65c-7.71-8.08-15.68-15.94-23.19-24.2c-1.55-1.71-1.14-1.36-12.72-16.08
		c-16.66-21.16-19.59-24.66-21.41-26.81c-8.17-9.65-12.25-14.69-18.01-19.83c-2.42-2.16-15.91-14.19-18.88-11.77
		c-2.3,1.88,2.03,12.19,4.27,16.21c0.51,0.92,1.38,2.38,2.64,4.83c2.04,3.97,2.33,5.22,5.23,9.25
		c9.69,13.48,15.28,20.04,15.28,20.04c18.06,21.17,26.73,36.06,39.73,47.55c1.78,1.57,4.5,3.84,8.36,7.65
		c3.96,3.92,7.6,8.18,11.69,11.95c7.14,6.6,14.54,12.93,21.8,19.4c8.47,7.55,16.94,15.09,26.52,21.26c0.76,0.49,1.49,1.03,2.19,1.59
		c10.5,8.49,21.06,16.9,31.46,25.52c6.8,5.64,13.71,11.21,19.94,17.45c17.21,17.24,34.47,34.43,49.64,53.62
		c9.28,11.74,19.05,23.07,27.46,35.51c10.13,14.99,19.74,30.28,26.82,46.92c4.86,11.43,8.74,23.29,12.9,35.02
		c6.27,17.69,11.87,35.57,16.08,53.89c1.93,8.4,4.74,16.64,7.63,24.78c2.28,6.45,5.32,12.63,7.96,18.95c7.53,18,9,22.32,11.38,27.86
		c1.29,3.01,2.23,4.97,3.22,7.09c1.99,4.28,4.83,10.52,8.32,18.61c1.4,8.13,3.27,19.71,5.1,33.72c1.99,15.21,3.06,26.84,4.49,41.35
		c1.31,13.29,2.25,26.61,3.5,39.91c2.62,27.75,2.32,30.65,3.63,46.41c4.06,48.81,8.9,84.72,11.8,104.58
		c1.59,10.92,2.83,16.31,3.24,20.68c4.98,52.86,28.8,76.89,28.8,76.89c13.28,13.4,31.67,21.47,45.67,22.18
		c2.47,0.13,12.46-1.04,22.11-1.48c5.13-0.23,10.05-0.99,14.63-3.39c1.84-0.97,3.61-1.42,5.65-0.41c3.9,1.94,12.93,6.84,17.42,8.45
		c0.78,0.28,9.66,3.55,17.57-0.14c3.96-1.85,12.79-7.82,15.05-7.21c0.55,0.15,1.11,0.36,1.11,0.36c2.44,1.42,5.1,2.41,7.64,3.63
		c0.04,0.02,0.1,0.05,0.13,0.06c5.42,2.56,13.98,1.4,15.15,1.23c2.48-0.36,7.07-1.01,12.08-2.99c10.78-4.24,25.78-16.14,35.12-36.12
		c4.48-9.57,5.96-17.39,8.13-31.58c3.99-26.13,6.07-39.18,7.82-63.5c1.69-23.46,2.02-11.93,11.03-85.35
		c7.47-60.87,8.05-75.42,13.65-98.4c2.31-9.47,5.04-20.86,9.45-39.98c3.87-16.76,3.34-15.84,5.65-25.75
		c0.81-3.47,4.79-20.35,11.42-42.18c4.04-13.3,7.43-23.06,12.36-37.23c3.47-9.99,6.24-17.51,8.32-23.29
		c3.16-8.77,6.42-17.5,9.89-26.15c4.98-12.4,8.83-21,10.5-24.8c2.68-6.1,6.54-15.42,24.76-72.78
		c10.49-33.04,11.73-37.45,16.39-50.23c3.87-10.63,7.09-21.54,12.27-31.72c2.92-5.75,4.33-12.26,7.2-18.03
		c2.28-4.56,5.2-12.09,14.45-30.71c10.64-21.42,19.44-37.95,32.05-61.62c0.19-0.36,0.51-1.05,1.03-1.91
		c3.7-6.18,7.27-12.45,11.15-18.51c4.77-7.44,10.24-14.46,14.64-22.09c9.72-16.84,22.23-31.53,34.86-46.11
		c6.37-7.35,13.35-14.19,20.1-21.21c9.64-10.02,19.18-20.14,29.05-29.93c0.25-0.25,0.07-0.06,17.02-15.08
		C1985.57,1352.94,2001.78,1338.47,1999.84,1334.84z M1723.07,1093.99c3.93-6.72,4.68-6.69,11.02-17.34
		c4.54-7.62,4.86-8.39,14.75-25.51c7.73-13.39,9.48-16.17,13.35-23.49c3.14-5.95,4-8.32,7.07-13.95
		c5.43-9.97,11.75-19.53,16.3-29.88c9.24-21.06,12.91-26.76,21.42-43.04c0,0,20.71-39.61,72.44-100.71
		c0.78-0.93,4.48-5.43,6.46-8.15c1.53-2.1,1.75-2.64,3.9-4.98c10.34-11.34,22.34-19.24,23.34-18.15
		c1.03,1.12-10.19,11.12-29.65,35.48c-6.18,7.74-10.68,13.57-15.78,20.64c-6.33,8.78-12.63,17.6-18.54,26.67
		c-3.43,5.26-6.07,11.03-9.06,16.58c-2.64,4.91-5.46,9.73-7.86,14.76c-6.53,13.67-12.95,27.4-19.29,41.16
		c-5.35,11.61-10.81,23.19-15.67,35.01c-3.84,9.34-6.74,19.06-10.23,28.55c-4.29,11.66-8.76,23.25-13.15,34.87
		c-2.04,5.4-4.06,10.81-6.05,16.23c-5.16,14.05-10.3,28.1-15.46,42.15c-0.56,1.52-1.27,2.99-1.83,4.52
		c-4.61,12.49-9.7,24.83-13.59,37.54c-2.22,7.24-6.03,13.71-8.19,20.95c-2.71,9.09-6.59,17.83-9.87,26.76
		c-0.73,2-1.01,4.16-1.59,6.23c-0.36,1.31-0.88,2.59-1.32,3.88c-0.48-0.02-0.95-0.04-1.43-0.06c-0.32-1.12-0.79-2.22-0.93-3.36
		c-1.14-9.12-2.36-18.24-3.26-27.39c-0.53-5.37-0.41-10.8-0.75-16.19c-1.96-31.02-3.53-28.83-2.58-38.34
		C1708.7,1118.56,1716.59,1105.07,1723.07,1093.99z M1669.4,1082.85c-7.43-59.73-16.68-119.23-27.74-178.4
		c-0.37-1.99-3.69-18.38-7.88-40.57c-6.8-36.05-10.95-58.03-10.08-58.22c1.74-0.39,23.21,88.38,35,138.34
		c13.9,58.94,20.82,89.14,27.24,123.15c7.63,40.44,13.78,81.18,17.71,122.15c7.32,76.34,6.92,153.17,9.31,229.83
		c3.71,118.51,7.8,160.2,3.53,245.03c-2.18,43.28-5.6,79.37-16.21,122.42c-16.52,67.03-44.08,125.11-46.91,124.12
		c-1.33-0.47,3.18-13.89,9.02-40.12c8.29-37.24,11.45-65.19,14.92-96.77c6.15-55.96,7.46-100.49,8.03-121.15
		c4.4-160.86,6.6-241.29,6.46-250.33c-1.36-83.49-6.22-166.92-14.58-249.99C1674.88,1129.14,1672.28,1105.98,1669.4,1082.85z
		 M1640.11,1944.98c-1.11-0.06-1.64-8.02-2.13-15.45c-0.3-4.62-0.2-7.42-0.35-20.01c-0.06-4.87,0.01-9.74-0.08-14.61
		c-0.14-7.75-0.27-15.49-0.57-23.24c-0.28-7.37-0.79-14.74-1.17-22.1c-0.77-15.12-1.32-30.25-2.32-45.35
		c-0.99-14.93-2.23-29.85-3.76-44.73c-0.92-8.95-2.67-17.81-3.97-26.72c-0.93-6.42-1.54-12.89-2.63-19.27
		c-1.73-10.1-3.57-20.19-5.71-30.22c-1.12-5.27-2.98-10.39-4.46-15.59c0,0-0.31-1.69-0.55-3.37c-2.17-15.26,11.34-65.05,15.47-85.16
		c1.52-7.39,3.03-15.37,3.03-15.37c1.1-5.82,2.12-11.65,3.17-17.47c1.12-6.19,2.25-12.38,3.34-18.58c1.93-10.99,3.73-22,5.79-32.96
		c2.3-12.23,4.84-24.41,7.28-36.61c1.35-6.71,2.63-13.44,4.11-20.12c1.24-5.61,2.51-9.55,3.06-11.48c3.6-12.7,3.94-17.73,8.34-37.4
		c4.39-19.65,4.71-17.32,10.34-41.88c5.79-25.27,7.1-35.81,8.24-35.69c1.66,0.18-0.32,22.62-1.22,69.79
		c-0.48,25.07-0.29,24.6-0.64,44.42c-0.37,20.94-1.45,41.9-1.04,62.82c0.61,31.44-1.72,62.8-1.73,94.22c0,18.4-1.46,36.79-1.91,55.2
		c-0.28,11.36,0.23,22.73,0.16,34.1c-0.04,6.66-0.37,13.34-0.86,19.98c-1.39,19.09-2.61,38.21-4.49,57.25
		c-1.47,14.89-3.69,29.7-5.79,44.52c-2.11,14.8-4.12,29.64-6.87,44.33c-3.85,20.6-5.2,21.7-9.08,40.64
		C1643.16,1917.73,1642.18,1945.09,1640.11,1944.98z M1605.31,1463.96c4.95-33.76,8.47-56.58,13.53-84.59
		c4.38-24.27,7.72-40.27,11.63-56.6c1.9-7.91,5.45-22.28,10.74-40.05c4.31-14.51,8.13-24.37,12.66-37.38
		c1.54-4.41,3.69-8.61,5.44-12.95c4.94-12.24,5.9-16,9.33-23.52c1.68-3.69,4.32-9.08,8.15-15.44c0.26,2.5,0.68,6.7,1.12,11.89
		c3.56,41.81,1.91,46.76,2.7,68.18c0.29,7.94,0.49,15.88,0.47,23.82c-0.01,2.66-0.66,5.36-1.3,7.98
		c-3.16,12.98-6.42,25.94-9.64,38.91c-1.33,5.38-4.64,18.09-10.74,43.64c-5.9,24.71-8.85,37.06-11.81,52.19
		c-1.49,7.6-3.13,16.11-6.18,31.31c-1.35,6.72-3,13.39-4.27,20.13c-3.17,16.84-6.19,33.71-9.31,50.56
		c-0.62,3.37-1.46,6.7-2.09,10.07c-3.15,16.67-6.27,33.34-9.4,50.02c-2.02,10.8-4.07,21.6-6.01,32.41
		c-0.82,4.57-1.4,9.19-2.09,13.79c-4.66-11.16-10.85-28.46-14.4-50.26C1590.34,1576.41,1591.13,1560.73,1605.31,1463.96z
		 M1561.56,1625.85c-8.74-48.68-24.34-146.38-21.39-266.47c2.27-92.43,20.04-163.67,37.29-239.62
		c13.72-60.41,29.88-116.74,31.66-116.32c1.27,0.3-5.14,29.42-18.9,107.08c-4.34,24.48-7.62,43.08-10.77,62.68
		c-6.73,41.77-12.43,83.72-16.05,125.88c-6.56,76.46-6.13,153.92,7.71,229.59c17.56,96.04,33.71,104.78,47.5,203.88
		c5.4,38.86,10.81,96.61,11.78,147.97c0.27,14.11,0.27,26.67,0.26,32.01c-0.03,32.86-0.99,60.21-1.92,79.81
		c-9.83,40.27-19.67,80.54-29.5,120.81c3.78-88.15,1.47-164.35-2.6-225.38c-5.35-80.13-14.24-141.68-18.22-167.6
		C1571.57,1675.56,1566.89,1655.51,1561.56,1625.85z M1578.08,2141.1c-0.37-13.34-1.09-26.67-1.62-40.01
		c-0.53-13.52-1.32-27.04-1.41-40.57c-0.08-13.9,0.28-27.81,0.96-41.7c0.53-10.97,1.68-21.92,2.82-32.85
		c1.1-10.56,2.55-21.09,3.8-31.64c2.16-18.25,4.29-36.51,6.45-54.76c0.12-1.01,0.47-1.99,1.52-2.99c0.48,3.38,1.29,6.75,1.39,10.13
		c0.4,14.08,0.54,28.16,0.88,42.24c0.25,10.65,0.73,21.29,0.98,31.94c0.29,12.26-0.16,24.58,0.81,36.79
		c1.18,14.8,0.48,29.58,1.01,44.35c0.56,15.42-1.14,30.62-2.31,45.9c-0.03,0.36-0.08,0.72-0.07,1.08c0.3,11.64-2.95,19.41-3.4,21.21
		c-3.78,15.1-17.17,128.74-17.73,128.67c-0.44-0.05,5.84-70.63,6.06-89.19C1578.25,2168.19,1578.56,2158.27,1578.08,2141.1z
		 M1517.22,1961.43c3.03,0.25,1.97,65.26-5.26,100.74c-1.28,6.27-7.34,35.15-10.14,45.33c-1.8,6.57-2.67,13.4-3.98,20.12
		c-0.34,1.76-0.75,3.51-1.12,5.26c-0.28,0.03-0.56,0.06-0.84,0.1c-0.15-0.67-0.43-1.34-0.42-2.01c0.02-19.12-0.29-38.28,2.17-57.26
		c1.9-14.61,3.44-29.31,7.01-43.7c1.68-6.78,2.08-13.88,3.19-20.81c2.21-13.73,2.98-22.29,5.75-34.65
		C1515.56,1965.76,1516.54,1961.37,1517.22,1961.43z M1463.92,1908.48c0,0,2.49-16.45,5.59-80.65c1.13-23.41,1.21-18.46,1.63-30.26
		c0,0,0.66-21.65,0.79-61.99c0.01-2.23,0.01-4.58,0.06-8.07c0.09-6.56,0.24-8.11,0.04-16.8c-0.29-12.79-1.08-22.21-1.43-26.61
		c-2.44-30.54-1.34-35.22-4.7-85.34c-0.81-12.07-3.03-22.16-3.14-42.53c-0.06-11.44-2.07-22.58-2.82-33.89
		c-0.78-11.65-2.75-23.22-4.14-34.83c-0.24-1.96-0.17-3.96-0.27-5.94c-0.28-5.39-0.45-10.79-0.88-16.17
		c-0.86-10.74-1.78-21.49-2.82-32.21c-1.12-11.46-1.03-23.05-3.67-34.35c-0.29-1.22-0.34-2.5-0.44-3.76
		c-0.43-5.55-0.81-11.11-1.26-16.66c-0.47-5.93-0.56-11.93-1.57-17.77c-2.53-14.59-1.2-29.46-3.76-44.06
		c-1.02-5.79-0.65-11.81-0.96-17.72c-0.16-3.04-0.49-6.07-0.65-9.11c0,0-0.8-10.87-1.31-26.32c-0.48-14.67-0.19-38.14,2.13-83.07
		c0.82-15.94,1.24-23.91,1.77-31.31c2.53-35.16,7.16-62.61,14.11-100.44c14.56-79.23,22.16-118.75,34.81-167.52
		c3.24-12.5,8.58-32.2,16.24-56.42c0,0,9.7-28.25,21.01-53.21c1.22-2.69,3.34-7.32,6.39-14.32c3.3-7.59,6.45-15.25,9.84-22.8
		c2.42-5.38,4.94-10.74,7.79-15.91c2.5-4.53,5.49-8.8,8.33-13.14c0.44-0.67,1.24-1.09,1.88-1.62c0.27,0.16,0.53,0.32,0.8,0.48
		c-2,5.3-3.89,10.66-6.03,15.9c-5.04,12.33-8.95,21.39-10.3,24.43c-11.24,25.21-23.97,59.66-24.71,61.67
		c-8.97,24.36-14.63,39.71-19.65,61.14c-5.39,22.97-2.49,19.04-11.81,79.32c-2.29,14.81-4.23,29.67-6.08,44.54
		c-0.98,7.87-1.11,15.86-2.15,23.72c-3.07,23.3-3.67,46.77-5.3,70.17c-1.05,15.01-1.91,17.79-3.85,36.06
		c-4.75,44.9-7.47,70.57-8.16,103.54c-0.15,7.01-2.49,32.08,1.52,81.75c0.51,6.29,0.5,12.63,0.92,18.93
		c0.33,4.85,0.96,9.67,1.45,14.51c1.19,11.84,2.25,23.7,3.59,35.52c1.9,16.85,4.24,33.65,5.94,50.52
		c1.78,17.6,2.92,35.26,4.52,52.88c1.64,17.97,3.18,35.97,5.35,53.88c1.94,15.93,4.84,31.74,7.03,47.64
		c1.43,10.36,2.41,20.78,3.48,31.18c0.94,9.16,1.88,18.32,2.54,27.5c0.79,11.15,1.29,22.31,1.91,33.47
		c0.81,14.58,1.6,29.17,2.43,43.75c0.49,8.62,0.97,17.24,1.58,25.86c1.11,15.83,2.18,31.66,3.52,47.47
		c1.01,11.87,2.81,23.67,3.54,35.55c0.73,11.88,0.51,23.82,0.79,35.73c0.29,12.63,0.8,25.26,1.01,37.89
		c0.27,16.78,0.37,33.56,0.47,50.34c0.01,1.4-0.49,2.82-0.87,4.2c-4.34,15.5-7.22,31.27-9.3,47.22c-1.11,8.56-2.76,17.05-4.22,25.56
		c-3.27,19.02-6.81,38-8.25,57.27c-0.69,9.18-1.04,18.38-1.41,27.58c-0.25,6.3-0.42,12.6-0.35,18.9c0.05,5.04,0.8,10.07,0.7,15.1
		c-0.13,6.29-0.43,12.62-1.35,18.83c-2.47,16.69-4.73,35.73-5.74,49.44c-1.9,25.78,1.02,39.75-0.8,40.01
		c-2.15,0.31-7.72-19.08-9.89-39.56c-0.52-4.9-0.66-8.11-0.7-31.48c-0.05-26.59,0.04-37.97-0.15-56.81
		c-0.09-8.66,0.03-17.36-0.76-25.97c-1.19-12.91-2.67-25.81-5.74-38.47c-3.01-12.44-6.06-24.89-8.43-37.45
		c-1.67-8.84-2.23-17.89-3.3-26.84c-0.54-4.55-0.72-5.7-0.93-7.45c0,0-0.15-1.3-0.3-2.74
		C1453.63,1972.78,1463.92,1908.48,1463.92,1908.48z M1461.3,2239.65c-6.99-20.77-18.61-57.88-32.21-105.8
		c21.51,29,31.83,54.07,37.28,72.18c3.4,11.3,6.9,26.52,15.75,54.96c4.17,13.4,7.87,24.37,10.41,31.75
		c-4.45-4.71-10.87-12.17-17.12-22.29C1467.35,2257.36,1463.49,2246.16,1461.3,2239.65z M1409.93,2010.32
		c0.38-0.14,0.76-0.27,1.13-0.41c2.28,3.51,4.81,6.88,6.79,10.55c1.38,2.56,6.43,10.9,11.5,22.6c5.26,12.14,11.63,26.84,14.46,46.01
		c2.55,17.28-0.33,17.81,2.38,40.23c1.91,15.76,4.74,23.32,3.12,23.94c-2.38,0.92-10.79-14.44-16.14-26.55
		c-5.42-12.27-8.11-22.19-8.85-24.98C1415.59,2068.7,1410.68,2018.25,1409.93,2010.32z M1401.36,1928.29
		c3.39,6.26,7.83,14.86,12.63,25.36c1.95,4.27,3.71,8.29,7.13,16.37c3.8,8.96,7.58,17.93,11.28,26.94
		c3.22,7.84,6.43,15.69,9.36,23.64c0.91,2.47,1.13,5.28,1.26,7.95c0.44,9.52,0.71,19.06,1.08,29.58
		c-2.31-5.66-4.25-10.64-6.37-15.55c-0.98-2.26-2.27-4.38-3.45-6.56c-2.56-4.73-5.06-9.51-7.73-14.18
		c-4.47-7.8-9.08-15.51-13.57-23.29c-5.22-9.04-5.79-10.37-6.36-11.84c-3.13-8.07-3.4-14.85-3.6-19.8
		C1402.52,1955.14,1401.93,1942.56,1401.36,1928.29z M1397.96,1884.45c-2.57-20.9-2.27-31.51-2.79-36.07
		c-1.33-11.88-2.79-20.35-1.28-33.15c0.34-2.87,0.74-5.23,1.03-6.82c0.27-0.08,0.53-0.16,0.8-0.23
		c6.42,16.13,10.93,29.33,13.85,38.37c1.45,4.49,1.78,5.68,6.41,20.66c6.11,19.75,9.16,29.62,10.94,35.13
		c9.01,27.89,12.64,35.32,15.91,52.76c1.15,6.12,2.74,11.65,2.17,18c-0.83,9.28-1.52,18.58-2.29,28.17
		c-1.49-0.11-2.04-1.66-2.57-3.06c-2.57-6.71-4.91-13.53-7.66-20.16c-3.25-7.82-6.83-15.5-10.27-23.24
		c-8.02-18.03-7.55-17.17-9.04-20.22c-7.55-15.44-9.5-15.83-12.14-23.59C1399.07,1905.26,1400.79,1907.39,1397.96,1884.45z
		 M1471.92,2183.91c-0.07,3.61-0.19,7.11-0.19,7.11c-0.15,4.54-0.35,8.48-0.53,11.66c-2.15-6.06-4.97-14.37-7.94-24.34
		c-1.26-4.21-8.19-22.43-9.99-39.23c-2.19-20.42-4.65-43.32-4.45-78.02c0.13-20.86,1.18-40.17,1.65-48.63
		c0.52-9.38,1.08-17.24,1.51-22.89c2.88,1.47,2.22,14.29,2.69,17.98c0,0,1.75,11.05,3.7,21.86c3.57,19.81,6.69,32.48,8.67,42.39
		C1467.03,2071.82,1473.51,2104.2,1471.92,2183.91z M1387.31,1644.59c1.57-0.25,3.11,9.53,13.25,39.75
		c3.08,9.16,6.2,19.77,10.87,35.12c0.94,3.1,1.46,6.33,2.4,9.43c7.74,25.74,15.56,51.46,23.28,77.2c1.29,4.32,2.06,8.79,3.41,13.09
		c2.32,7.39,5.16,14.62,7.34,22.05c3.86,13.14,7.44,26.36,11.01,39.58c0.67,2.49,0.29,4.47,0.33,5.85
		c0.7,22.23-4.99,57.1-8.31,75.56c-4.57-23.62-7.1-33.51-8.59-37.56c-0.15-0.42-1.41-3.97-3.16-8.81c-0.61-1.68-1.32-3.74-2.21-6.47
		c-2.97-9.1-13.04-40.49-16.81-51.92c-10.34-31.36-18.86-57.2-23.26-68.2c-2.99-7.49-2.58-13.73-3.42-19.32
		c-4.12-27.29-3.2-40.48-4.64-75.74C1387.39,1659.65,1385.39,1644.9,1387.31,1644.59z M1346.61,1620.15
		c-16.76-105.41-75.49-199.11-138.3-285.41c-28.06-38.55-57.38-76.59-78.61-119.28c-17.46-35.1-29.13-72.97-35.22-111.67
		c-3.05-19.38-4.71-38.98-5.01-58.59c-0.08-5.5,0.12-27.23,3.82-10.9c2.33,10.27,3.93,20.69,5.66,31.07
		c0.83,4.99,1.68,9.97,2.65,14.94c12.99,66.81,45.85,128.12,83.19,185.02c37.34,56.9,79.58,110.59,114.37,169.08
		c14.68,24.69,28.1,50.41,35.97,78.04C1345.05,1547.27,1345.87,1583.95,1346.61,1620.15z M1359.05,1910.85
		c-0.02,0.19-0.05,0.38-0.07,0.57c-31.12-66.35-41.51-141.7-78.55-204.93c-32.25-55.06-82.01-96.55-130.39-136.89
		c-24.59-20.51-49.29-40.98-72.15-63.43c-11.25-11.05-22.05-22.57-32.07-34.75c-4.21-5.12-7.56-9.66-14.32-18.68
		c-13.4-17.87-22.46-29.94-21.47-30.8c0.99-0.85,11.9,9.63,20.97,19.94c10.63,12.08,16.92,22.36,19.54,25.68
		c13.29,16.85,27.32,33.17,42.72,48.14c43.45,42.25,97.04,73.17,139.36,116.56c48.79,50.03,80.29,114.26,106.13,179.19
		C1351.39,1843.2,1363.07,1876.93,1359.05,1910.85z M1483.16,2313.29c-17.49,3.62-36.69-1.57-49.77-13.79
		c-7.64-7.14-13.11-16.25-18.13-25.42c-2.18-3.99-5.87-11.06-9.56-21.19c-7.09-19.49-9.98-44.48-9.98-44.48
		c-0.6-5.17-8.02-69.03-6.27-69.23c1.05-0.12,4.22,22.79,11.09,52.89c0.55,2.41,1.41,6.13,2.66,10.9
		c2.22,8.44,4.86,17.08,8.39,27.36c5.09,14.82,11.34,29.46,20.96,41.82c14.15,18.19,34.67,30.32,55.67,39.82
		C1486.55,2312.5,1484.86,2312.94,1483.16,2313.29z M1430.61,2264.94c-11.03-16.98-18.53-32.59-28.33-79.79
		c-12.79-61.59-18.27-108.76-18.53-111.02c-10.61-93.28-15.92-139.92-16.66-148.86c-7.81-95-9.64-183.72-11.45-271.7
		c-0.21-10.25-0.97-32.36-3.12-61.94c-2.86-39.37-6.91-71.86-9.89-93.17c-7.25-51.84-14.15-89.33-19.26-117.11
		c-27.43-149.24-20.02-145.03-35.04-208.16c-12.74-53.53-15.32-44.97-56.05-170.76c-33.8-104.39-63.44-208.83-60.85-209.66
		c1.91-0.61,21.31,54.94,44.43,121.11c39.29,112.47,59.6,169.64,74.19,221.8c4.39,15.71,21.53,77.64,39.01,160.55
		c1.61,7.62,6.82,32.53,13.27,67.14c0,0,33.11,177.72,40.64,312.92c1.3,23.36,1.98,46.05,1.98,46.05
		c1.06,41.98-0.76,62.86,4.54,176.5c0,0,8.17,175.23,60.37,333.2c7.38,22.32,16.95,37.31,20.8,43.03
		c10.01,14.87,20.82,25.72,29.36,33.16C1471.64,2307.73,1446.07,2288.75,1430.61,2264.94z M1495.57,2281.44
		c-6.13-14.1-4.04-26.52-3.48-40.68c1.09-27.68,3.67-55.3,7.7-82.71c3.7-25.17,5.99-56.4,16.51-79.62
		c0.12,11.3,0.23,26.36,0.18,44.1c-0.09,34.05-0.13,51.39-1.03,74.49c-1.46,37.38-3.28,41.16-2.21,59.99
		c1.3,22.99,5.38,41.63,8.68,53.91C1514.07,2305.96,1502.21,2296.72,1495.57,2281.44z M1530.28,2315.37c-2.32-0.13-4.09-2.92-5-5.32
		c-19.66-51.61-6.27-109.03-4.15-164.22c0.75-19.46,0.06-38.95,0.62-58.41c0.97-33.09,5.58-65.96,10.18-98.74
		c12.23-87.04,22.92-174.47,36.75-261.26c7.21,16.26,9.02,39.27,11.98,57.26c3.15,19.2,5.38,38.58,5.69,58.05
		c0.39,24.66-2.27,49.26-4.93,73.78c-12.04,111.15-24.09,222.3-36.14,333.45c-2.41,22.23-4.93,44.88-14.02,65.31
		C1530.94,2315.35,1530.6,2315.38,1530.28,2315.37z M1550.77,2309.81c-3.63,5.2-10.84,10.05-15.73,6.03
		c-0.05-0.04-0.08-0.17-0.08-0.37c-0.09-4.67,12.33-49.84,13.15-55.12c2.96-18.89,4.72-37.94,6.29-56.99
		c3.16-38.43,3.95-78.82,14.27-116.19c4.45,11.52,2.52,30.34,2.85,43.29c0.36,14.48,0.38,28.96,0.06,43.44
		c-0.65,28.95-2.67,57.88-6.07,86.64C1563.48,2277.74,1560.69,2295.6,1550.77,2309.81z M1566.4,2307.77
		c-0.35,0.6-0.7,1.19-1.06,1.78c-0.48,0.81-1.37,1.74-2.19,1.29c-0.74-0.4-0.61-1.49-0.37-2.3c3.4-11.48,6.79-22.97,10.19-34.45
		c2.7-9.13,5.4-18.27,7.45-27.56c9.21-41.69,5.3-86.37,23.09-126.03c0.6,10.32-0.53,21.39-0.86,31.88
		c-0.85,26.73-1.71,53.62-7.05,79.83C1590.18,2258.78,1580.16,2284.39,1566.4,2307.77z M1642.51,2173.29
		c-2.32,23.65-7.65,90.1-21.5,116.89c-2.42,4.69-5.06,7.78-6.51,9.45c-9.55,11.05-23.11,14.48-31.28,15.65
		c4.67-6,9.27-10.9,12.64-16.53c3.67-6.14,6.61-12.8,9.14-19.51c4.97-13.18,7.81-26.96,10.9-40.68c2.25-10.01,5.19-19.87,7.66-29.83
		c1.43-5.77,2.55-11.61,3.81-17.42c0.8-3.7,1.49-7.42,2.42-11.09c3.31-13.09,6.57-26.2,10.09-39.24c2.12-7.88,3.61-13.2,5.17-18.38
		c0.24-0.78,1.05-3.39,2.69-8.59c3.41-10.88,3.55-11.25,3.66-11.23C1652.43,2102.96,1646.15,2136.26,1642.51,2173.29z M1950,1375.56
		c-4.53,4.16-10.4,10.06-18.02,17.87c-3.02,3.09-5.71,6.51-8.66,9.67c-4.42,4.72-9.07,9.22-13.38,14.03
		c-3.94,4.39-7.49,9.12-11.32,13.62c-3.5,4.1-7.41,7.88-10.66,12.16c-8.28,10.92-16.66,21.79-24.29,33.15
		c-8.53,12.69-16.53,25.76-24.3,38.94c-5.77,9.78-10.84,19.98-16.13,30.04c-2.69,5.12-4.46,9.11-6.14,12.64
		c-13.94,29.36-20.92,44.04-26.42,56.94c-5.82,13.66-9.35,23.21-15.62,40.16c-12.8,34.64-22.65,65.52-28.84,84.93
		c0,0-8.03,23.54-14.78,42.95c-1.48,4.25-3.17,8.44-4.82,12.63c-3.43,8.7-6.99,17.35-10.31,26.1c-2.57,6.78-4.27,12.09-5.76,16.75
		c-6.14,19.18-5.83,19.64-8.94,28.27c-2.71,7.5-2.8,6.77-5.33,14.02c-1.75,5.03-3.4,9.6-6.57,21.4c-13.7,51-19.77,77.92-19.77,77.92
		c-7.85,34.81-11.63,52.23-12.97,65.26c-0.49,4.78-1.86,19.21-4.15,39.12c-0.55,4.81-0.53,6.2-0.99,7.94
		c-2.99,11.32-5.67,22.76-9.35,33.86c-5.41,16.3-9.39,32.96-13.45,49.6c-3.54,14.54-6.64,29.19-10.09,43.76
		c-1.66,7.02-3.76,13.94-5.48,20.96c-2.07,8.41-3.61,16.96-6,25.27c-1.93,6.74-4.56,13.31-7.29,19.78
		c-2.38,5.61-4.2,9.38-7.18,13.87c-2.81,4.24-7.65,10.44-15.63,16.48c-3.28-0.88-6.57-1.76-9.85-2.63
		c1.67-3.64,3.03-7.31,4.95-10.66c7.31-12.75,12.58-26.38,17.43-40.18c4.67-13.27,7.58-23.64,8.25-26.32
		c4.89-19.4,5.74-34.43,6.61-51.41c1.16-22.64,1.5-63.05,3.45-72.74c1.01-5.02,1.82-10.09,1.82-10.09
		c1.19-4.94,2.65-11.06,4.33-18.1c13.23-55.63,18.72-81.44,30.47-127.71c2.56-10.1,3.86-15.21,4.8-18.27
		c8.7-28.34,18.26-40.25,30.09-70.81c1.03-2.66,2.85-7.45,5.72-14.5c5.57-13.7,6.09-13.73,9.59-22.65
		c3.27-8.35,5.76-17.28,9.85-28.6c2.97-8.23,4.11-10.3,6.34-17.69c1.09-3.64,1.04-4.58,2.53-9.34c3.65-11.66,7.34-23.31,11.1-34.93
		c1.05-3.25,2.36-6.41,3.59-9.6c1.48-3.86,3.26-7.63,4.44-11.58c2.06-6.9,5.25-13.31,7.9-19.95c4.13-10.36,7.1-21.17,10.97-31.64
		c4.23-11.47,9.01-22.73,13.38-34.16c2.38-6.23,4.08-12.73,6.66-18.86c2.59-6.13,5.89-11.97,8.91-17.91
		c6.03-11.87,11.98-23.78,18.17-35.57c2.57-4.89,7.16-13.31,13.11-23.68c13.36-23.3,20.05-34.94,30.73-48.86
		c5.82-7.58,7.56-9.26,15.06-19.09c5.35-7.01,10.38-14.27,15.68-21.32c3.13-4.17,6.43-8.22,9.83-12.18
		c8.67-10.12,17.38-20.22,26.22-30.2c2.26-2.55,5.22-4.47,7.56-6.96c9.02-9.54,20.28-18.51,23.14-21.05
		c19.26-17.13,43.68-29.74,44.23-28.91C1984.87,1348.19,1968.99,1358.13,1950,1375.56z"/>
</g>
</svg>
