<?xml version="1.0" encoding="utf-8"?>
<!-- Generator: Adobe Illustrator 24.0.1, SVG Export Plug-In . SVG Version: 6.00 Build 0)  -->
<svg version="1.1" id="Слой_1" xmlns="http://www.w3.org/2000/svg" xmlns:xlink="http://www.w3.org/1999/xlink" x="0px" y="0px"
	 viewBox="0 0 3000 3000" style="enable-background:new 0 0 3000 3000;" xml:space="preserve">
<style type="text/css">
	.st0{fill:none;}
	.st1{fill:#45482A;}
</style>
<rect class="st0" width="3000" height="3000"/>
<g>
	<path class="st1" d="M1992.03,1521.89c-4.57-5.05-10.37-7.61-10.38-7.61c-2.88-1.07-5.98-1.54-8.96-2.35
		c-18.12-4.91-36.24-9.85-54.36-14.77c-1.79-0.49-3.59-0.96-5.4-1.38c-16.5-3.82-33.04-7.47-49.49-11.48
		c-14.82-3.62-29.48-7.88-44.32-11.4c-14.05-3.33-28.26-5.97-42.36-9.11c-5.09-1.13-10.06-2.82-16.48-4.65
		c3.87-2.71,6.44-4.7,9.18-6.41c6.31-3.92,12.75-7.62,19.04-11.57c14.86-9.34,29.73-18.65,44.46-28.2
		c11.77-7.63,23.34-15.57,34.98-23.41c0.67-0.45,10.8-6.75,23.67-15.85c8.02-5.67,10.57-7.8,12.99-10.09
		c8.14-7.71,13.75-12.86,15.15-21.31c1.02-6.14-1.49-11.43-6.43-22c-4.71-10.06-9.84-16.89-14.52-23.05
		c-8.71-11.46-15.45-17.35-17.1-18.77c-8.16-7.02-13.17-9.07-16.42-10.07c-4.52-1.39-8.23-1.54-11.16-1.7
		c-9.88-0.53-19.02,2.28-22.21,3.35c-0.06-2.63-0.23-6.5-0.77-11.14c-0.72-6.13-2.39-18.48-9.14-31.71
		c-2.27-4.44-11.05-20.6-29.25-31.68c-6.94-4.23-13.45-7.49-21.01-6.5c-1.54,0.2-2.65,0.56-15.26,8.54
		c-6.39,4.05-9.49,6.24-11.99,7.7c-18.57,10.81-37.02,21.86-55.87,32.16c-12.67,6.92-25.46,13.61-37.72,21.26
		c-5.6,3.5-11.05,7.28-16.82,10.46c-9.75,5.37-19.73,10.33-29.57,15.54c-9.48,5.02-18.66,10.69-28.42,15.08
		c-13.11,5.89-24.17,15-36.57,21.97c-7.38,4.15-14.36,8.98-21.69,13.22c-7.32,4.23-15.1,7.7-22.24,12.21
		c-19.01,12.01-37.76,24.43-56.69,36.58c-1.42,0.91-3.46,1.64-5.04,1.4c-6.74-1.05-13.48-2.21-20.09-3.85
		c-14.42-3.57-28.76-7.49-43.15-11.2c-4.59-1.18-9.24-2.18-13.88-3.16c-21.02-4.42-42.07-8.71-63.07-13.23
		c-18.15-3.91-36.24-8.14-54.39-12.07c-11.29-2.45-22.65-4.6-33.98-6.92c-17.16-3.53-34.31-7.07-51.46-10.65
		c-3.84-0.8-7.62-1.92-11.47-2.68c-7.31-1.44-14.31,0.13-19.83,4.78c-13.21,11.14-21.17,27.97-21.17,27.97
		c-5.96,12.82-7.53,22.77-10.67,42.68c-1.05,6.67-1.13,15.48-0.42,26.57c0.38,6.06,2.3,11.71,6.56,16.36
		c4,4.36,9.59,5.46,14.78,6.87c12.54,3.42,25.22,6.34,37.91,9.17c22.57,5.04,45.17,9.91,67.78,14.75
		c23,4.93,45.97,10.04,69.28,13.44c2.31,0.34,4.53,1.3,6.8,1.97c0.15,0.53,0.3,1.06,0.46,1.59c-0.76,0.33-1.59,0.57-2.29,1
		c-12.46,7.73-24.98,15.36-37.32,23.28c-14.38,9.23-28.82,18.41-42.83,28.18c-12.67,8.83-23.88,19.59-37.36,27.45
		c-12.11,7.06-23.57,15.24-35.34,22.89c-24.06,15.64-48.12,31.28-72.21,46.88c-9.54,6.18-20.76,12.29-35.96,22.99
		c-14.56,10.24-25.74,19.32-29.25,32.39c-0.74,2.74-2.34,9.06-0.32,16.47c1.32,4.84,3.59,7.9,6.53,11.81
		c3.33,4.42,13.67,18.14,30.53,20.88c1.74,0.28,3.19,0.39,4.13,0.44c19.5,13.1,37.19,19.05,46.99,19.13
		c9.57,0.08,16.48-3.1,16.48-3.1c2.43-1.01,4.41-3.1,6.83-4.16c6.73-2.94,12.44-7.31,18.04-11.91c2.79-2.3,5.78-4.36,9.91-7.45
		c-1.33,7.57-1.67,13.47-1.04,19.62c1.09,10.73,5.3,19.77,11.4,28.26c7.13,9.93,16.14,17.01,27.38,22.44
		c5.46,2.64,16.22,7.29,29.89,5.8c0,0,10.38-1.13,20.59-6.38c1.38-0.71,4.43-2.35,7.93-4.52c2.63-1.62,5.13-3.45,7.74-5.1
		c4.19-2.64,8.47-5.14,12.63-7.84c3.29-2.13,6.24-4.86,9.69-6.65c8.77-4.54,17.18-9.57,25.27-15.27
		c12.8-9.03,25.96-17.56,38.98-26.29c6.35-4.26,12.66-8.58,19.08-12.72c9.85-6.36,19.82-12.51,29.66-18.89
		c6.4-4.15,12.67-8.49,18.94-12.83c4.51-3.12,9.74-6.78,16.68-11.73c21.03-15.02,19.54-14.65,28.93-21.09
		c8.83-6.04,20.89-13.07,44.83-27.44c10.25-6.15,20.69-11.97,31.04-17.96c0.71-0.41,1.31-1,1.99-1.47
		c8.31-5.69,16.61-11.39,24.93-17.05c4.43-3.01,8.89-5.97,13.37-8.91c3.1-2.04,6.25-4.01,9.39-6c3.64-2.31,7.28-4.62,10.95-6.88
		c3.16-1.95,6.36-3.8,9.52-5.74c1.75-1.07,3.5-2.15,5.16-3.36c6.01-4.35,11.94-8.8,17.99-13.08c0.91-0.64,2.35-0.95,3.47-0.81
		c3.89,0.5,7.79,1.05,11.6,1.96c11.23,2.69,22.41,5.55,33.61,8.36c4.39,1.1,8.75,2.36,13.16,3.38c4.83,1.11,9.74,1.85,14.54,3.05
		c9.02,2.26,17.95,4.85,26.97,7.12c17.21,4.33,34.46,8.53,51.69,12.81c8.61,2.14,17.23,4.21,25.8,6.49
		c9.77,2.59,19.44,5.56,29.24,8.04c14.41,3.64,28.88,7.06,43.35,10.42c8.64,2,17.36,3.64,26.02,5.57
		c8.64,1.93,17.22,4.19,25.89,6.01c9.48,1.99,19.02,3.74,28.58,5.37c1.43,0.24,3.19-0.5,4.6-1.19c8.92-4.35,15.81-11.09,22.01-18.7
		c6.62-8.12,10.6-17.87,17.87-25.8c3.68-4.02,6.78-14.82,7.87-28.48C2000.13,1550.45,2001.58,1532.43,1992.03,1521.89z
		 M1904.08,1315.13c6.48,1.07,9.73,13.63,10.71,17.45c1.37,5.31,2.18,8.41,1.12,12.26c-1.18,4.3-3.91,6.64-15.59,16.21
		c-6.63,5.44-9.93,8.18-10.48,8.56c-13.81,9.77-27.67,19.49-41.63,29.07c-4.75,3.26-9.89,5.93-14.76,9.02
		c-10.63,6.74-21.13,13.7-31.82,20.33c-11.05,6.85-22.31,13.39-33.42,20.16c-2.98,1.81-5.87,3.82-8.56,6.03
		c-3.37,2.76-6.85,4.36-11.36,3.38c-12.29-2.66-24.61-5.15-36.91-7.76c-1.17-0.25-2.25-0.94-4.67-1.99c2.73-1.9,5.14-3.68,7.45-5.33
		c0,0,3.32-2.29,6.78-4.52c10.16-6.55,54.65-33.7,81.71-50.94c0.6-0.38,12-6.67,33.2-21.57c12.85-9.03,19.99-12.46,24.64-16.33
		c25.21-20.92,32.04-26.43,32.04-26.43C1897.03,1318.19,1900.24,1314.49,1904.08,1315.13z M1832.75,1274.45
		c9.35-4.03,17.12-4.02,21.19-3.7c6.26,0.5,10.7,2.17,11.63,2.53c6.41,2.52,9.51,6.02,19.35,16.54c14.63,15.64,16.45,17.26,16,20.41
		c-0.27,1.94-1.06,1.99-15.12,13.86c-2.12,1.79-8.15,7-15.93,13.32c-1.88,1.53-3.31,2.66-5.05,4.06c-4.66,3.75-8.44,6.18-10.04,7.25
		c-35.97,24.24-68.24,45.58-68.24,45.58c-16.69,11.04-14.19,9.64-17.68,11.74c-23.67,14.21-37.7,21.37-48.95,27.85
		c-6.07,3.49-11.95,7.33-17.72,11.3c-2.41,1.66-4.58,2.3-7.45,1.62c-16.47-3.88-33-7.53-49.47-11.46
		c-12.64-3.01-25.23-6.22-37.79-9.53c-4.5-1.19-8.86-2.93-14.75-4.9c4.28-3.23,7.16-5.79,10.4-7.78
		c18.62-11.5,37.28-22.97,56.03-34.27c13.97-8.42,28.1-16.59,42.18-24.84c20.84-12.23,41.75-24.33,62.52-36.68
		c20.13-11.97,33.51-20.4,41.74-25.57C1816.54,1284.91,1825.79,1278.96,1832.75,1274.45z M1474.8,1367.95
		c13.97-8.82,27.79-17.87,41.87-26.51c9.49-5.82,19.33-11.06,28.97-16.63c8.58-4.96,17-10.2,25.66-15
		c11.93-6.61,23.92-13.1,36.06-19.31c14-7.16,27.19-15.58,40.42-24.03c12.33-7.87,25.36-14.65,38.05-21.96
		c5.37-3.09,10.62-6.37,16.02-9.42c7.91-4.47,15.98-8.67,23.83-13.23c9.8-5.7,19.43-11.68,29.16-17.49
		c4.79-2.86,9.55-5.79,14.52-8.28c0,0,3.17-0.81,6.5-0.9c10.03-0.27,23.13,9.02,32.19,19.52v0c2.72,2.99,9.39,10.98,15.4,33.27
		c3.95,14.63,1.33,12.11,2.65,20.21c0.1,0.59,0.37,2.33-0.51,3.95c-0.37,0.68-0.94,1.29-1.83,1.86c-7.11,4.54-14,9.43-21.13,13.94
		c-17.96,11.36-35.93,22.72-54.05,33.82c-14.97,9.17-30.12,18.05-45.27,26.91c-12.47,7.3-25.04,14.41-37.59,21.56
		c-8.07,4.59-16.23,9.02-24.26,13.67c-9.44,5.47-18.88,10.95-28.13,16.73c-5.77,3.6-11.16,7.8-16.78,11.63
		c-1.69,1.15-3.74,1.79-5.37,3.01c-5.84,4.35-12.02,2.82-18.23,1.29c-11.4-2.83-22.79-5.66-34.18-8.52
		c-7.6-1.92-15.12-4.27-22.8-5.78c-13.56-2.65-27.25-4.63-40.82-7.23c-6.47-1.24-12.76-3.38-19.17-4.91
		c-3.56-0.84-7.22-1.25-10.83-1.86c-0.08-0.55-0.15-1.11-0.23-1.66C1454.89,1380.38,1464.88,1374.21,1474.8,1367.95z
		 M1100.5,1435.74c-0.53-0.49-0.84-0.86-1.39-1.57c-4-5.22-4.34-11.35-3.29-28.36c0.4-6.51,0.61-9.77,0.84-11.7
		c0.94-7.81,3.18-25.04,13.68-43.44c5.13-8.99,10.17-15.21,17.13-19.07c3.78-2.09,6.17-3.41,9.39-3.12
		c8.02,0.72,13.37,10.72,15.22,17.19c3.54,12.38-1.1,28.09-10.78,32.55c-4.88,2.25-11.19,1.72-11.43,0.73
		c-0.16-0.67,2.52-1.5,6.06-3.74c4.45-2.81,7.99-6.4,9.56-8.67c5.6-8.07,3.62-24.4-4.61-28.17c-6.79-3.11-15.51,3.26-17.8,4.93
		c-8.45,6.17-11.31,14.66-15.92,28.31c-2.67,7.93-3.78,15.89-6,31.82c-1.18,8.49-1.39,12.22,0.6,16.3
		c2.56,5.25,8.83,11.27,15.58,11.14c0,0,0.12,0,0.25-0.01c10.21-0.41,32.09-26.16,25.54-38.82c-2.72-5.26-9.52-6.66-8.95-8.33
		c0.54-1.59,7.44-2.33,10.89,0.76c7.57,6.81,0.81,34.22-16.62,46.21C1116.3,1439.06,1102.11,1437.21,1100.5,1435.74z
		 M1125.81,1379.25c-0.48,2.76,1.74,5.24,2,5.52c1.8,1.94,3.79,1.85,5.5,2.69c4.66,2.27,5.85,10.66,5.41,15.45
		c-1.04,11.29-11.45,22.16-21.82,22.04c-0.94-0.01-4.2-0.05-6.7-1.67c-13.03-8.42,2.7-54.12,4.4-58.94c0,0,5.89-14.02,18-22.22
		c4.45-3.01,7.34-2.1,10.25,2.57c4.58,7.38,3.02,15.16-1.23,21.56c-0.65,0.97-2.45,2.18-5.85,4.69
		C1129.12,1375.86,1126.29,1376.5,1125.81,1379.25z M1109.58,1745.89c-2.97,5.83-7.98,10.53-15.64,10.54
		c-6.42,0.01-11.56-0.84-14.66-1.72c0,0-20.73-5.9-36.7-20.52c-0.22-0.2-0.37-0.3-0.48-0.45c-2.67-3.78-7.15-10.11-5.49-17.02
		c0.47-1.96,1.31-3.47,2-4.48c1.37,2.54,2.13,3.9,2.84,5.28c1.88,3.65,3.74,7.31,5.62,10.96c4.08,7.91,11.07,12.12,19.2,14.59
		c6.12,1.86,12.33,3.2,18.89,2.41c4.67-0.56,8.19-2.42,10.72-6.36c4.43-6.89,6.13-14.38,5.14-22.49c-0.6-4.91-0.64-9.98-1.98-14.67
		c-2.51-8.74-7.96-15.53-15.04-21.41c-8.25-6.86-17.75-10.21-27.94-9.79c-11.82,0.49-23.28,3.53-31.91,12.79
		c-6.35,6.81-7.92,15-7.7,24.01c0.23,9.47,5.11,15.65,12.57,20.58c2.61,1.72,5.65,3.31,6.54,7.1c-2.11-0.52-20.17-5.3-26.82-22.2
		c-1.22-3.11-3.64-10.65-1.51-19.81c3.62-15.52,17.23-22.5,19.29-23.51c0,0,17.83-11.49,42.62-7.42c3.86,0.63,10.55,1.83,17.42,6.53
		c2.05,1.4,4.01,3.06,5.87,5.02c8.6,9.07,14.36,19.56,19.8,30.44c0.91,1.82,1.42,3.91,1.72,5.93
		C1115.8,1722.49,1115.26,1734.73,1109.58,1745.89z M1031.03,1719.64c0.11,0.96,0.05,1.94,0.07,3.22c-3.68-0.68-5.4-3.23-6.53-5.71
		c-6.14-13.51-3.36-29.43,11.45-37.18c6.79-3.55,14.06-6.86,22.41-5.51c10.88,1.76,20.86,5.46,28.15,13.92
		c5.6,6.49,8.72,14.45,9.54,23.08c0.72,7.61,0.66,15.11-2.31,22.47c-1.58,3.92-4.05,6.23-7.85,7.09
		c-10.49,2.37-28.52-4.29-33.39-12.24c-3.24-5.28-6.63-10.4-7.79-16.7c-0.91-4.98-3.43-5.94-8.04-3.64
		C1030.59,1711.52,1030.17,1712.36,1031.03,1719.64z M1136.36,1733.28c-6.97,4.61-13.64,9.68-20.44,14.55
		c-0.39-0.38-0.78-0.76-1.16-1.14c3.24-9.45,5.26-19.05,4.66-29.1c-0.32-5.44-1.18-10.61-3.84-15.48
		c-1.88-3.44-3.33-7.11-4.97-10.68c-3.4-7.43-8.31-13.77-14.1-19.47c-0.59-0.58-1.3-1.04-1.84-1.66
		c-8.92-10.19-20.78-12.64-33.53-12.74c-4.85-0.04-9.69-0.03-15.49-0.04c6.38-6.99,13.98-9.95,20.68-14.23
		c6.42-4.11,12.74-8.37,19.12-12.53c7.09-4.63,14.19-9.24,21.29-13.85c5.71-3.71,11.4-7.44,17.14-11.11
		c11.99-7.68,24.13-15.14,35.99-23.02c13.4-8.9,27.07-17.33,39.83-27.24c14.5-11.25,29.8-21.49,44.91-31.93
		c8.15-5.63,16.6-10.84,25.02-16.08c2.23-1.39,4.84-2.16,7.27-3.21c0.94-0.41,1.97-0.7,2.82-1.25c6.05-3.92,12.1-7.83,18.07-11.86
		c3.78-2.55,7.68-3.59,12.27-2.58c9.07,1.99,18.18,3.74,27.3,5.49c11.16,2.14,22.33,4.18,33.49,6.3c0.74,0.14,1.42,0.61,3.14,1.39
		c-2.48,2.32-4.29,4.47-6.52,5.99c-6.46,4.42-13.13,8.53-19.66,12.85c-15.65,10.35-31.4,20.56-46.86,31.2
		c-10.69,7.36-20.78,15.59-31.49,22.93c-10.69,7.33-21.77,14.1-32.78,20.95c-2.6,1.61-4.68,3.31-5.37,7.23
		c1.55-0.45,2.92-0.51,3.87-1.18c13.73-9.54,27.39-19.18,41.1-28.76c12.51-8.74,25.07-17.4,37.57-26.13
		c8.29-5.79,16.43-11.8,24.81-17.45c7.35-4.96,14.95-9.55,22.42-14.33c5.04-3.23,10.19-6.33,15.01-9.86
		c2.75-2.01,5.44-2.77,8.67-2.06c0.6,0.13,1.23,0.19,1.83,0.31c19.24,3.78,38.49,7.56,57.73,11.36c0.94,0.19,1.82,0.62,3.5,1.21
		c-3.33,2.62-5.94,4.89-8.76,6.88c-16.85,11.9-33.65,23.88-50.67,35.54c-10.56,7.23-21.55,13.83-32.22,20.91
		c-8.94,5.93-17.69,12.14-26.52,18.24c-5.59,3.86-11.16,7.76-16.75,11.63c-11.37,7.87-22.8,15.66-34.09,23.63
		c-14.51,10.25-28.77,20.85-43.4,30.92c-13.07,9-26.59,17.33-39.72,26.24c-13.31,9.03-26.08,18.89-39.69,27.42
		C1148.71,1722.01,1143.4,1728.62,1136.36,1733.28z M1450.54,1591.85c7.57-5.39,14.95-11.06,22.64-16.26
		c13.52-9.13,27.14-18.11,40.87-26.93c6.72-4.32,13.75-8.18,20.7-12.15c1-0.57,2.41-0.97,3.49-0.75c9.44,1.98,18.85,4.11,29.71,6.53
		c-3.93,2.93-6.68,5.26-9.7,7.18c-9.05,5.75-18.25,11.28-27.32,16.99c-14.5,9.12-29.01,18.23-43.41,27.5
		c-13.52,8.71-26.99,17.5-40.31,26.51c-10.42,7.05-20.56,14.53-30.89,21.71c-2.19,1.52-4.77,2.47-7.04,3.9
		c-9.25,5.81-18.44,11.73-27.68,17.57c-3.14,1.98-6.33,3.91-9.56,5.75c-11.54,6.56-21.18,15.72-31.94,23.33
		c-11.63,8.23-23.36,16.32-35.31,24.08c-12.13,7.88-24.56,15.28-36.86,22.89c-1.08,0.67-2.11,1.26-3.7,2.22
		c-10.84,6.59-19.25,12.31-24.85,16.27c-1.59-18.71-9.85-31.68-25.12-39.42c-14.74-7.47-30.23-9.41-46.56-2.99
		c0.8-0.93,1.45-2.1,2.44-2.76c9.59-6.45,19.3-12.72,28.84-19.24c15.5-10.61,30.97-21.27,46.33-32.09
		c16.36-11.54,32.46-23.46,48.89-34.9c11.51-8.02,23.48-15.39,35.09-23.26c9.05-6.14,17.72-12.84,26.82-18.9
		c20.98-13.96,42.36-27.35,63.09-41.66c8.63-5.96,18.31-10.38,25.94-17.87c2.73-2.68,6.51-4.32,9.92-6.23
		c0.98-0.55,2.41-0.74,3.53-0.53c8.5,1.64,17,3.32,25.45,5.17c10.07,2.2,20.1,4.53,30.13,6.89c5.58,1.32,11.12,2.83,17.27,4.4
		c-3.27,4.74-8.59,5.29-12.42,8.07c-4.17,3.03-8.79,5.42-13.15,8.18c-4.2,2.65-8.36,5.35-12.48,8.11
		c-4.29,2.87-8.53,5.82-12.77,8.75c-4.07,2.82-8.16,5.63-12.17,8.53c-4.18,3.03-8.28,6.18-12.43,9.25
		c-3.95,2.93-7.93,5.82-11.29,9.76C1446.67,1594.25,1448.69,1593.17,1450.54,1591.85z M1236.2,1783.05
		c-2.31,7.23-7.08,11.91-8.48,13.23c-9.17,8.58-20.32,9.8-23.43,10.12c-8.02,0.82-16.3-0.79-24.54-4.91
		c-3.39-1.69-13.55-6.5-22.23-17.46c-2.92-3.69-13.75-17.8-13.01-37.41c0.2-5.36,0.36-9.55,2.82-14.2
		c9.53-18.04,39.5-16.46,42.41-16.27c5.12,0.34,22.48,1.47,34.38,14.85c6.11,6.86,14.09,20.66,8.84,28.8
		c-1.68,2.6-4.35,4.06-6.85,4.92c0.04-3.26-0.24-14.79-8.79-25.05c-10.28-12.33-24.69-13.46-27.99-13.61
		c-3.83-0.18-13.22-0.63-21.81,5.71c-7.19,5.31-9.8,12.41-10.64,14.77c-0.81,2.3-3.4,9.98-0.79,18.99
		c2.4,8.26,7.72,12.89,13.11,17.55c15.15,13.09,30.9,13.72,35.09,13.43c4.42-0.3,7.66-2.11,7.66-2.11c1.73-0.96,3.31-2.26,4.75-3.97
		c1.67-1.99,5.09-5.11,7.24-10.37c0.8-1.96,1.82-5.09,2.05-9.17c3.15-1.86,6.19-1.96,7.44-1.37c1.34,0.64,2.39,1.79,2.39,1.79
		c0.08,0.09,0.15,0.17,0.22,0.26C1238.79,1774.92,1237,1780.55,1236.2,1783.05z M1219.29,1777.92c-1.22,3.22-4.42,7.58-9.12,12.32
		c-3.56,3.58-8.92,3.91-13.44,2.73c-15.34-4-28.99-10.66-36.32-26.07c-4.16-8.75-1.03-22.73,8.24-30.66
		c7.85-6.71,17.59-6.3,21.09-6.16c2.71,0.11,13.56,0.96,22.28,9.6C1223.39,1750.96,1223.17,1767.63,1219.29,1777.92z
		 M1600.41,1557.05c-8.43,5.92-16.95,11.72-25.45,17.56c-2.72,1.87-5.4,3.79-8.2,5.52c-11.39,7.02-22.8,14.01-34.25,20.92
		c-8.29,5.01-16.72,9.8-24.98,14.85c-7.38,4.51-14.57,9.33-21.94,13.86c-10.9,6.69-22.02,13.03-32.8,19.92
		c-11.97,7.65-23.79,15.53-35.41,23.69c-11.97,8.42-23.53,17.43-35.44,25.94c-9.4,6.71-19.08,13.04-28.62,19.57
		c-11.22,7.67-22.36,15.47-33.65,23.04c-10.97,7.36-22.09,14.51-33.15,21.73c-5.17,3.38-10.28,6.85-15.55,10.07
		c-7.91,4.82-15.92,9.5-23.94,14.14c-2.28,1.32-4.77,2.28-8.11,3.85c4.21-9.91,5.76-18.66-2.68-26.6
		c6.88-4.85,13.24-9.77,20.01-14.04c20.76-13.1,41.75-25.85,62.52-38.95c15.2-9.59,29.53-20.41,43.75-31.42
		c7.29-5.64,15.72-9.79,23.57-14.73c4.88-3.07,9.63-6.33,14.41-9.55c2.57-1.72,5.05-3.57,7.62-5.28
		c13.06-8.69,26.12-17.37,39.21-26.02c8.09-5.35,16.22-10.63,24.33-15.94c8.97-5.87,17.89-11.83,26.93-17.6
		c7.12-4.54,14.45-8.73,21.56-13.29c9.04-5.79,17.77-12.07,26.95-17.62c8.98-5.43,18.29-10.34,27.61-15.17c2-1.04,4.79-1.41,7.03-1
		c8.26,1.49,16.43,3.44,24.64,5.21c0.18,0.63,0.35,1.26,0.53,1.89C1604.75,1553.44,1602.71,1555.43,1600.41,1557.05z
		 M1952.36,1624.16c-10.84,4.53-22.78,0.57-42.22-4.35c-19.87-5.02-3.3-1.35-41.19-8.68c-20.89-4.04-41.08-10.68-61.61-16.04
		c-19.96-5.21-39.81-10.86-59.83-15.85c-12.4-3.09-25.04-5.22-37.54-7.97c-4.43-0.97-8.7-2.6-13.11-3.7
		c-9.39-2.35-18.84-4.48-28.23-6.84c-19.15-4.81-22-5.91-45-11.48c-18.57-4.49-17.78-3.64-60.02-12.63
		c-11.66-2.48-24.32-5.17-41.09-8.97c-17.1-3.87-34.11-8.12-51.23-11.9c-15.1-3.34-30.3-6.26-45.46-9.35
		c-13.32-2.72-26.62-5.54-39.97-8.11c-15.21-2.92-30.49-5.45-45.68-8.46c-11.89-2.36-24.02-3.4-35.67-7.22
		c-6.37-2.09-13.34-2.32-19.99-3.63c-16.82-3.29-33.61-6.74-50.42-10.07c-10.33-2.05-20.73-3.77-31.01-6.04
		c-14.72-3.25-29.35-6.9-44.03-10.32c-11.46-2.67-22.96-5.24-34.42-7.91c-2.34-0.54-4.61-1.36-8.34-2.49
		c4.38-2.56,7.39-4.5,10.56-6.14c1.63-0.85,4.74-3.18,7.48-5.57c6.49-5.67,9.72-12.17,11.53-15.9c5.96-12.26,6.24-24.18,5.94-30.46
		c1.55,0.61,4.02,1.57,7.1,2.63c20.43,7.02,28.23,5.94,50.84,11.06c6.23,1.41,12.27,3.63,18.5,5.01c6.42,1.43,13.07,1.91,19.45,3.48
		c13.02,3.2,25.93,6.85,38.89,10.3c9.77,2.6,19.5,5.39,29.35,7.68c18.89,4.39,37.95,8.1,56.75,12.81
		c19.21,4.82,38.14,10.75,57.31,15.74c12.18,3.17,24.51,5.83,36.88,8.16c21.7,4.1,43.5,7.71,65.23,11.65
		c15.63,2.83,31.2,5.96,46.83,8.76c10.55,1.89,21.2,3.28,31.74,5.21c9.95,1.81,19.81,4.05,29.73,6.06
		c11.73,2.37,23.49,4.55,35.18,7.09c10.89,2.37,21.63,5.5,32.57,7.58c14.38,2.73,28.91,4.66,43.35,7.11c11.19,1.9,22.35,4,33.5,6.12
		c9.32,1.77,18.58,3.83,27.9,5.53c18.89,3.45,23.87,6.21,47.93,12.47c29.72,7.73,25.6,5.44,42,10.29
		c27.84,8.23,48.54,18.74,48.54,18.74c8.43,4.24,19.12,10.2,30.94,18.4c-2.37,6.06-6.57,14.83-13.99,23.76
		C1961.83,1617.54,1958.44,1621.62,1952.36,1624.16z M1993.4,1562.02c-0.48,3.35-1.28,6.68-2.4,9.95c-0.66,1.92-1.84,3.66-2.78,5.48
		c-1.42,2.74-3.65,3.15-6.27,2.05c-2.48-1.03-5.12-1.88-7.3-3.37c-16.59-11.4-35.56-17.4-54.22-24.11
		c-4.27-1.54-8.43-3.4-12.74-4.82c-4.28-1.4-8.66-2.49-13.03-3.61c-5.6-1.44-11.24-2.68-16.83-4.17
		c-11.17-2.96-22.29-6.1-33.46-9.04c-19.36-5.1-38.6-10.65-58.49-13.54c-8.97-1.3-17.76-3.81-26.7-5.36
		c-5.88-1.02-11.96-0.88-17.82-1.98c-20.9-3.94-42.09-6.48-62.43-13.09c-0.59-0.19-1.19-0.4-1.8-0.46
		c-22.48-2.18-43.75-10.35-66.05-13.38c-17.21-2.34-34.07-6.35-51.08-9.66c-20.46-3.99-41.19-6.62-61.68-10.49
		c-20.08-3.78-40.09-8.02-59.98-12.7c-20.28-4.77-40.37-10.36-60.55-15.54c-8.8-2.26-17.59-4.55-26.43-6.59
		c-12.06-2.78-24.23-5.12-36.26-8.04c-10.23-2.48-20.31-5.57-30.49-8.27c-13.56-3.6-27.16-7.09-40.74-10.62
		c-10.39-2.7-20.76-5.44-31.18-8.03c-3.18-0.79-6.49-1.04-9.71-1.68c-15.58-3.07-31.16-6.16-46.73-9.31
		c-1.75-0.35-3.42-1.1-5.57-1.81c2.42-4.09,7.7-14.26,7.14-28.03c-0.43-10.67-4.17-18.64-6.46-22.73c1.56,0.23,4.26,0.54,7.57,1.18
		c16.43,3.14,32.85,6.29,49.27,9.47c5.48,1.06,10.93,2.27,16.41,3.27c7.11,1.29,14.29,2.23,21.36,3.72
		c8.28,1.74,16.44,3.99,24.69,5.89c10.06,2.32,20.14,4.55,30.22,6.75c22.8,4.98,45.66,9.72,68.4,14.95
		c12.66,2.91,25.08,6.89,37.74,9.83c16.68,3.88,33.5,7.19,50.24,10.81c4.64,1,9.19,2.46,13.85,3.34
		c14.61,2.77,29.29,5.14,43.86,8.09c10.71,2.17,21.28,4.98,31.91,7.53c2.4,0.58,4.78,1.26,7.17,1.88
		c15.77,4.12,31.53,8.29,47.32,12.34c19.4,4.97,38.81,9.86,58.24,14.73c11.2,2.81,22.39,5.65,33.65,8.19
		c5.21,1.17,10.62,1.49,15.88,2.47c6.2,1.15,13.49,2.36,32.13,6.33c19.36,4.12,20.63,4.63,35.12,7.64
		c17.94,3.73,15.12,2.57,26.05,5.16c15.83,3.75,31.56,7.92,47.33,11.91c7.4,1.88,14.76,3.88,22.19,5.62
		c11.83,2.77,23.72,5.28,35.55,8.08c5.01,1.19,9.91,2.84,14.86,4.26c1.98,0.57,3.99,1.03,5.96,1.61c6.52,1.93,13.01,3.97,19.55,5.81
		c4.93,1.39,9.94,2.48,14.89,3.79c4.58,1.21,9.22,2.29,13.68,3.86c2.33,0.82,5.92,2.84,9.18,6.26c5.47,5.76,6.43,12.77,7.67,21.84
		C1993.3,1545.67,1994.56,1553.95,1993.4,1562.02z"/>
	<path class="st1" d="M1563.59,1518.51c-5.82-1.33-11.58-2.99-17.42-4.2c-11.3-2.34-22.63-4.59-33.98-6.66
		c-13.62-2.47-27.35-4.35-40.91-7.14c-15.37-3.16-31.13-3.73-46.39-7.81c-13.55-3.62-27.48-5.78-41.19-8.83
		c-12.08-2.68-24.05-5.85-36.12-8.54c-24.16-5.38-48.36-10.57-72.55-15.83c-2.82-0.61-5.62-1.31-8.45-1.83
		c-9.92-1.84-19.87-3.55-29.77-5.47c-2.61-0.5-5.05-2.03-7.65-2.33c-9.03-1.04-17.88-2.73-26.7-5.02
		c-11.57-3.01-23.38-5.14-35.12-7.45c-2.84-0.56-5.83-0.33-8.75-0.47c-0.12,0.54-0.24,1.08-0.37,1.61c1.31,0.64,2.55,1.58,3.93,1.86
		c3.64,0.73,7.38,0.96,11,1.75c10.89,2.37,21.7,5.08,32.62,7.32c8.69,1.78,17.51,2.96,26.22,4.62c8.12,1.55,16.17,3.44,24.26,5.09
		c9.51,1.95,19.06,3.67,28.55,5.73c14.92,3.24,29.8,6.73,44.71,10.03c8.27,1.83,16.62,3.33,24.86,5.29
		c17.29,4.1,34.44,8.77,51.8,12.53c18.74,4.05,37.65,7.34,56.49,10.92c5.88,1.12,11.77,2.13,17.67,3.14
		c9.16,1.56,18.35,2.92,27.48,4.63c17.66,3.31,35.27,6.87,52.93,10.18c6.4,1.2,12.87,1.98,19.31,2.95c0.16-0.53,0.31-1.06,0.47-1.59
		c-2.2-0.83-4.34-1.88-6.6-2.45C1570.51,1519.69,1567,1519.29,1563.59,1518.51z"/>
	<path class="st1" d="M1583.6,1493.16c-26.67-4.32-53.41-8.23-80.12-12.36c-5.71-0.88-11.7-1.13-17.02-3.13
		c-8.61-3.24-17.65-3.93-26.44-5.98c-9.63-2.25-19.34-4.14-29.06-6.01c-5.25-1.01-10.56-1.76-15.87-2.42
		c-4.69-0.58-9.43-0.73-14.12-1.32c-5.53-0.7-11.01-1.79-16.53-2.5c-2.23-0.29-4.53-0.03-6.8-0.03c0.82,1.6,1.65,2.34,2.58,2.51
		c8.09,1.49,16.01,3.7,24.36,4.02c7.58,0.29,15.13,1.84,22.66,3.04c6.31,1.01,12.57,2.35,18.86,3.48c7.9,1.42,15.84,2.59,23.7,4.21
		c7.27,1.5,14.37,3.84,21.67,5.09c11.17,1.92,22.45,3.17,33.66,4.82c15.92,2.35,31.82,4.9,47.75,7.19
		c17.97,2.59,35.92,5.26,53.53,9.83c0.69,0.18,1.46,0.09,2.2,0.08c-1.42-0.98-2.74-2.45-4.3-2.76
		C1610.77,1498.19,1597.23,1495.36,1583.6,1493.16z"/>
	<path class="st1" d="M1924.35,1581.91c-5.12-1.55-10.24-3.16-15.43-4.46c-18.81-4.73-37.67-9.25-56.47-14.03
		c-10.4-2.65-20.63-5.93-31.06-8.44c-10.63-2.56-21.39-4.57-32.12-6.68c-1.37-0.27-2.91,0.34-4.37,0.54c0,0.42,0,0.84,0,1.26
		c46.32,10.64,92.51,21.8,138.41,34.16c0.6,0.16,1.39-0.39,2.41-0.7C1925.08,1582.76,1924.8,1582.05,1924.35,1581.91z"/>
	<path class="st1" d="M1179.46,1412.59c14.49,3.16,28.96,6.41,43.43,9.67c7.85,1.77,15.66,3.71,23.51,5.43
		c1.57,0.34,3.57,1.36,5.23-1.33c-24.81-5.8-49.23-11.51-73.67-17.17c-1.48-0.34-3.08-0.18-5.55-0.29
		C1174.65,1411.91,1177.08,1412.07,1179.46,1412.59z"/>
	<path class="st1" d="M1749.65,1560.08c-4.36-1.05-8.72-2.13-13.12-3.02c-22.8-4.6-45.62-9.14-68.44-13.68
		c-0.13-0.03-0.37,0.21-0.45,0.38c-0.08,0.17-0.04,0.4-0.08,1.4c24.76,6.19,50.54,8.52,75.16,16.07c2.28,0.7,4.75,0.76,7.83,1.22
		C1749.94,1560.77,1749.87,1560.13,1749.65,1560.08z"/>
	<path class="st1" d="M1675.21,1457.26c-6.85-1.36-13.79-2.3-20.64-3.67c-5.2-1.04-10.28-2.78-15.5-3.66
		c-9.33-1.57-18.81-2.35-28.09-4.15c-11.34-2.2-22.55-5.11-33.82-7.72c-3.39-0.79-6.76-1.7-10.18-2.38
		c-4.04-0.81-8.16-1.23-12.16-2.18c-6.62-1.57-13.15-3.5-19.76-5.15c-14.41-3.6-35.51-10.99-55.58-15.03
		c-18.57-3.73-33.34-4.73-33.42-4.23c-0.09,0.54,17.67,2.93,43.66,10.12c8.64,2.39,11.68,3.98,18.96,5.7
		c21.1,4.98,42.24,9.84,63.42,14.45c19.16,4.16,37.93,10.09,57.51,12.35c5.92,0.68,11.73,2.31,17.59,3.52
		c8.89,1.83,17.75,3.75,26.66,5.45c5.25,1,10.56,1.65,15.85,2.4c0.53,0.08,1.11-0.23,1.67-0.36c-2.68-1.39-6.73-3.22-11.94-4.54
		C1677.75,1457.73,1676.5,1457.51,1675.21,1457.26z"/>
	<path class="st1" d="M1382.84,1390.91c-6.76-1.5-12.91-2.97-19.11-4.2c-10.51-2.1-21.05-4.03-31.56-6.08
		c-12.74-2.49-25.46-5.01-38.19-7.57c-10.09-2.03-20.18-4.06-30.24-6.22c-6.24-1.34-12.37-3.73-18.66-4.26
		c-19.31-1.62-37.75-8.37-57.14-9.34c-1.43-0.07-2.82-0.61-4.25-0.83c-1.56-0.25-3.14-0.39-4.79-0.59c0.24,3.45,0.21,3.62,1.76,3.94
		c2.62,0.54,5.3,0.82,7.95,1.25c17.1,2.75,34.25,5.29,51.29,8.36c11.13,2.01,22.08,5.03,33.19,7.18c12.55,2.43,25.21,4.25,37.77,6.6
		c12.96,2.42,25.86,5.17,38.79,7.73c9.31,1.84,18.62,3.67,27.96,5.36C1379.09,1392.5,1381.09,1393.36,1382.84,1390.91z"/>
	<path class="st1" d="M1878.7,1520.18c-15.48-3.37-30.96-6.79-46.47-10.04c-22.4-4.7-44.81-9.33-67.24-13.85
		c-2.81-0.57-5.85-0.85-8.68,0.69c1.47,0.88,2.95,1.29,4.46,1.51c4.7,0.67,9.46,0.99,14.1,1.94c20.19,4.14,40.34,8.43,60.5,12.7
		c3.83,0.81,7.62,1.78,11.43,2.65c9.41,2.16,18.82,4.34,28.25,6.41c1.66,0.36,3.44,0.2,5.17,0.28c0.02-0.48,0.03-0.97,0.05-1.45
		C1879.75,1520.73,1879.26,1520.3,1878.7,1520.18z"/>
	<path class="st1" d="M1957.89,1518.1c-19.01-4.49-38.05-8.88-57.05-13.38c-7.8-1.85-15.55-3.92-23.34-5.84
		c-2.66-0.65-5.37-1.11-8.09,0.29c1.8,1.15,3.65,1.81,5.56,2.24c11.06,2.48,22.15,4.84,33.2,7.35c14.64,3.32,29.36,6.35,43.84,10.29
		c6.61,1.8,13.82,2.36,19.6,6.83c0.49,0.38,1.74-0.21,2.64-0.35c0.08-0.5,0.15-1,0.23-1.49c-1.76-0.97-3.41-2.23-5.29-2.85
		C1965.49,1519.96,1961.69,1519,1957.89,1518.1z"/>
	<path class="st1" d="M1490.03,1442.17c-48.72-11.93-115.84-27.07-116.2-25.6c-0.29,1.19,43.18,13.28,86.4,23.01
		c34.29,7.72,70.25,14.35,70.47,13.38C1530.88,1452.17,1507.83,1446.52,1490.03,1442.17z"/>
	<path class="st1" d="M1152.76,1610.98c9.87-7.08,20.26-13.44,30.22-20.39c17.42-12.15,34.56-24.7,52.06-36.74
		c17.17-11.81,34.64-23.18,51.94-34.8c1.75-1.18,4.14-1.85,4.9-5.46c-2.07,0.66-3.66,0.85-4.88,1.62
		c-7.18,4.48-14.32,9.02-21.38,13.69c-11.53,7.64-22.94,15.45-34.47,23.08c-6.71,4.44-13.75,8.41-20.32,13.06
		c-13.61,9.64-27,19.6-40.49,29.41c-26.86,19.51-24.01,16.85-34.51,24.97c-16.96,13.1-33.66,27.68-33.07,28.43
		c0.55,0.7,16.03-10.3,27.27-18.85C1141.07,1620.59,1143.51,1617.61,1152.76,1610.98z"/>
	<path class="st1" d="M1182.22,1672.54c-5.12,3.84-10.27,7.64-15.27,11.63c-1.72,1.37-4.24,2.46-3.97,6.8
		c8.81-6.35,16.82-12.02,24.71-17.87c3.47-2.57,6.47-5.79,10.01-8.24c10.35-7.14,20.95-13.92,31.3-21.06
		c7.12-4.92,13.9-10.32,20.98-15.3c8.6-6.05,17.45-11.74,26.01-17.85c4.84-3.45,9.18-7.61,13.99-11.12
		c7.64-5.57,15.48-10.85,23.23-16.27c2.46-1.72,4.89-3.49,7.33-5.24c-0.32-0.53-0.64-1.07-0.96-1.6c-1.52,0.79-3.28,1.31-4.51,2.42
		c-11.54,10.44-24.99,18.2-37.77,26.89c-13.99,9.51-28.32,18.51-42.31,28.03c-9.19,6.25-18.06,12.96-27.02,19.55
		C1199.35,1659.65,1190.79,1666.11,1182.22,1672.54z"/>
	<path class="st1" d="M1166.74,1640.32c-0.33-0.27-0.67-0.53-1-0.8c-17.17,11.88-33.59,24.71-49.46,38.26
		c0.38,0.48,0.76,0.96,1.13,1.44c0.69-0.35,1.46-0.6,2.05-1.07c8.33-6.71,16.49-13.62,24.97-20.13
		c6.97-5.35,14.32-10.21,21.44-15.38C1166.43,1642.24,1166.46,1641.11,1166.74,1640.32z"/>
	<path class="st1" d="M1500.69,1377.27c7.55-5.05,15.04-10.19,22.69-15.06c5.74-3.65,11.81-6.79,17.54-10.45
		c9.04-5.78,17.81-11.99,26.88-17.72c16.76-10.58,33.74-20.8,50.46-31.44c15.66-9.97,31.02-20.4,46.65-30.42
		c14.23-9.13,28.58-18.08,42.99-26.91c10.37-6.36,20.97-12.33,31.39-18.59c3.43-2.06,2.85-1.85,3.76-2.39
		c9.48-5.62,29.29-14.43,30.95-16.47c0.49-0.6,0.83-1.28,0.83-1.28c0.2-0.57,0.36-1.22,0.58-1.74c-17.7,9.34-32.67,17.5-44.43,24.01
		c-16.11,8.92-26.56,14.81-37.51,21.63c-13.8,8.6-27.78,16.9-41.15,26.28c-18.36,12.88-37.95,24.01-57.01,35.89
		c-11.34,7.07-22.72,14.09-34.01,21.24c-9.58,6.08-19,12.43-28.61,18.46c-12.54,7.87-25.2,15.54-37.78,23.36
		c-0.78,0.48-1.25,1.45-2.2,2.6C1496.43,1380.74,1498.49,1378.74,1500.69,1377.27z"/>
	<path class="st1" d="M1692.1,1305c-1.98-0.31-3.51,0.12-4.79,0.94c-7.99,5.1-15.91,10.32-23.89,15.44
		c-7.46,4.79-14.97,9.48-22.43,14.27c-1.38,0.89-2.55,2.12-3.94,2.99c-3.47,2.19-7,4.28-10.54,6.37c-2.3,1.36-4.68,2.59-6.95,3.99
		c-2.1,1.3-4.06,2.84-6.18,4.11c-13.6,8.16-27.3,16.15-40.82,24.44c-6.68,4.09-13.05,8.67-19.53,13.1c-1.58,1.08-3,2.41-4.97,4.01
		c3.53,1.6,5.19-0.38,6.96-1.52c12.82-8.29,25.47-16.85,38.42-24.94c18.03-11.27,36.4-22.01,54.4-33.33
		c13.8-8.68,27.26-17.9,40.85-26.93C1689.94,1307.13,1690.97,1305.99,1692.1,1305z"/>
	<path class="st1" d="M1730.51,1304.11c-16.88,9.78-31.9,22.15-48.26,32.6c-1.6,1.02-3.63,1.86-3.91,4.23
		c0.68,0.21,1.21,0.54,1.4,0.4c39.65-28.02,80.44-54.28,122.35-78.78c0.23-0.14,0.19-0.75,0.28-1.14c-3.43-1.44-3.41-1.4-5.76,0.27
		c-3.02,2.14-5.99,4.39-9.16,6.29c-5.83,3.5-11.96,6.5-17.65,10.2C1756.64,1286.72,1744.07,1296.26,1730.51,1304.11z"/>
	<path class="st1" d="M1395.96,1619.18c-6.3,5.31-12.52,10.71-18.84,15.99c-2.05,1.71-11.41,9.97-30.92,25.73
		c-21.16,17.09-31.74,25.63-39.65,30.35c-10.96,6.55-20.53,15.53-32.14,20.84c-1.68,0.77-3.5,1.65-3.8,4.24
		c3.19-1.63,5.95-2.96,8.63-4.41c4.68-2.53,10.46-5.8,11.87-6.63c22.29-13.14,58.32-43.53,58.32-43.53
		c6.64-5.6,5.77-4.99,11.17-9.53c10.92-9.18,22-18.18,32.96-27.32c1.97-1.64,3.73-3.54,5.59-5.33c-0.4-0.46-0.79-0.92-1.19-1.38
		C1397.29,1618.52,1396.51,1618.71,1395.96,1619.18z"/>
	<path class="st1" d="M1325.85,1622.68c-5.59,3.49-11.27,6.86-16.6,10.72c-7.19,5.2-13.94,10.99-21.14,16.18
		c-12.9,9.28-25.99,18.29-39,27.43c-10.11,7.1-19.16,15.67-30.25,21.43c-2.09,1.09-4.32,2.81-4.57,5.89
		c39.03-26.1,76.09-54.83,114.36-82.18C1327.72,1622.3,1326.61,1622.21,1325.85,1622.68z"/>
	<path class="st1" d="M1434.23,1553.68c-9.36,6.92-20.26,11.59-29.98,20.23C1409.75,1572.54,1431.73,1557.85,1434.23,1553.68z"/>
	<path class="st1" d="M1736.84,1360.3c-10.73,7.3-21.11,15.13-31.63,22.74c-6.34,4.59-12.69,9.19-18.98,13.85
		c-5.95,4.41-11.84,8.9-17.72,13.39c-0.15,0.12,0.08,0.73,0.2,1.6c0.91-0.2,1.97-0.13,2.64-0.62c8.36-6.05,16.75-12.05,24.96-18.3
		c16.76-12.75,33.25-25.79,51.48-36.54c17.07-10.07,33.5-21.22,50.24-31.84c10.29-6.53,20.65-12.94,30.97-19.42
		c2.91-1.83,5.79-3.7,8.68-5.55c-0.16-0.47-0.31-0.95-0.47-1.42c-1.1,0.16-2.37,0-3.27,0.52c-5.7,3.29-11.39,6.62-16.96,10.13
		c-14.65,9.23-29.26,18.53-43.84,27.88C1761,1344.5,1748.77,1352.18,1736.84,1360.3z"/>
	<path class="st1" d="M1819.74,1351.79c3.88-2.06,7.94-3.86,11.6-6.24c10.52-6.84,20.88-13.95,31.32-20.91
		c5.99-4,12.04-7.92,18.04-11.92c1.59-1.06,3.35-2.13,2.32-5.01c-10.81,7.49-21.15,14.87-31.71,21.92
		c-10.65,7.11-21.85,13.41-32.36,20.74C1819.21,1350.84,1819.47,1351.31,1819.74,1351.79z"/>
	<path class="st1" d="M1868.26,1372.2c-14.22,9.52-28.09,19.56-42.35,29.03c-9.27,6.16-18.99,11.62-28.43,17.52
		c-9.76,6.1-19.44,12.33-29.11,18.57c-1.05,0.68-1.83,1.77-2.74,2.67c1.79-0.02,2.99-0.73,4.19-1.43
		c10.31-6.03,20.63-12.05,30.93-18.1c3.02-1.77,6.03-3.56,8.96-5.48c4.83-3.17,9.59-6.45,14.37-9.69
		c17.93-12.14,35.9-24.22,53.76-36.46c2.69-1.84,4.94-4.35,7.28-6.67c2.93-2.9,5.6-6.1,8.65-8.86c4.94-4.47,7.41-10.36,9.88-16.26
		c0.38-0.91-0.09-2.17-0.16-3.27c-0.47-0.06-0.94-0.11-1.41-0.17c-0.39,0.91-0.85,1.79-1.16,2.72c-2.23,6.77-5.88,12.48-10.93,17.68
		C1883.35,1360.86,1876.19,1366.9,1868.26,1372.2z"/>
</g>
</svg>
