<?xml version="1.0" encoding="utf-8"?>
<!-- Generator: Adobe Illustrator 24.0.1, SVG Export Plug-In . SVG Version: 6.00 Build 0)  -->
<svg version="1.1" id="Слой_1" xmlns="http://www.w3.org/2000/svg" xmlns:xlink="http://www.w3.org/1999/xlink" x="0px" y="0px"
	 viewBox="0 0 3000 3000" style="enable-background:new 0 0 3000 3000;" xml:space="preserve">
<style type="text/css">
	.st0{fill:none;}
	.st1{fill:#45482A;}
</style>
<rect class="st0" width="3000" height="3000"/>
<g>
	<g>
		<path class="st1" d="M2242.84,1170.29c-7.09-3.11-15.23,5.42-19.34,6.67c-30.99,9.46-58.35,28.06-86.33,45.03
			c-6.03,3.66-11.54,8.44-17.59,12.92c-0.3-1.51-0.72-2.39-0.6-3.21c2.14-15.36,0.52-30.32-1.79-45.38
			c-1.53-9.99-1.86-20.29-2.11-30.49c-0.14-5.8,0.97-11.69,1.51-17.53c1.22-13.02,2.81-26.02,3.54-39.06
			c0.46-8.22,1.87-16.8-2.46-26.02c-22.84,19.89-40.25,38.57-52.69,53.14c-17.08,20-24.08,31.11-31.6,41.97
			c-8.02,11.58-9.12,16.27-16.01,27.86c-6.32,10.63-11.13,17.17-17.15,25.64c-23.56,33.14-22.6,33.39-41.91,61.93
			c-13.79,20.39-27.62,40.74-41.25,61.26c-2.5,3.76-4.52,8.05-6.11,12.37c-6.55,17.71-12.77,35.58-19.35,53.28
			c-1.13,3.04-2.94,6.33-5.27,8.2c-14.92,12.03-29,25.1-42.16,39.53c-15.78,17.3-30.39,35.64-43.29,55.68
			c-9.33,14.5-15.11,30.9-21.41,47.04c-8.79,22.53-16.32,45.5-21.16,69.38c-4.09,20.14-8.27,40.29-11.34,60.61
			c-3.73,24.73-13.01,47.41-21.88,70.07c-8.25,21.05-12.52,42.87-16.5,64.92c-4.51,24.95-5.35,50.16-5.27,75.38
			c0.03,7.77,0.51,15.53,0.74,23.3c0.43,14.89,1.09,29.77,1.17,44.67c0.11,21.23-3.31,42.23-5.35,63.33
			c-3.88,40.13-12.78,70.38-17.36,88.79c-3.72,14.97-7.21,27.36-9.78,36.13c-6.77-29.08-9.69-52.57-11.09-68.8
			c-1.11-12.83-1.47-23.37-3.95-42.5c-1.78-13.76-4.61-27.31-6.8-41c-3.61-22.53-7.29-45.04-10.53-67.65
			c-1.79-12.51-2.63-25.21-4.06-37.8c-1.99-17.45-4.11-34.87-6.22-52.3c-2.3-18.95-3.47-28.5-4.15-32.16
			c-4.74-25.28-8.47-25.72-7.47-37.18c0.94-10.8,4.47-12.86,8.89-35.71c0.39-2.03,1.08-6.27,2.43-14.76
			c3.51-22.15,6.69-44.36,10.59-66.43c2.28-12.87,5.72-25.51,8.58-38.27c3.26-14.58,5.58-29.47,9.86-43.69
			c6.24-20.71,13.61-41.06,20.99-61.35c5.39-14.82,11.22-29.49,17.5-43.9c8.79-20.17,14.4-41.5,20.97-62.5
			c3.68-11.77,8.42-23.22,13.34-34.48c4.68-10.71,10.21-20.97,15.37-31.43c9.24-18.74,18.5-37.47,27.73-56.22
			c2.71-5.52,5.79-10.9,7.89-16.69c5.74-15.79,14.79-29.53,22.24-44.24c2.22-4.38,4.6-8.67,7.14-12.82
			c8.1-13.23,15.13-27.29,26.37-37.96c9.46-8.98,18.61-18.43,27.41-28.21c16.2-18.02,32.2-36.29,47.99-54.76
			c9.55-11.17,18.72-22.77,27.77-34.46c7.19-9.29,14.05-18.91,20.84-28.57c5.75-8.16,10.48-17.38,16.92-24.74
			c19.15-21.89,38.57-43.51,58.54-64.44c19.44-20.37,35.47-43.25,47-70c5.25-12.18,10.03-24.71,16.37-36.18
			c9.62-17.41,20.23-34.18,30.78-50.94c4.86-7.71,10.22-15.13,15.97-22.04c13.78-16.54,23.34-22.5,22.31-24.59
			c-1.38-2.78-19.91,4.67-36.31,15.8c-2.82,1.91-4.57,4.04-7.79,5.69c-14.57,7.5-26.54,19.16-38.39,30.83
			c-14.2,13.98-27.58,29.01-41.78,43c-16.77,16.51-35.58,29.76-54.99,41.99c-11.78,7.42-23.31,15.38-34.75,23.46
			c-8.11,5.72-15.57,12.7-23.89,17.96c-12.47,7.88-22.36,19.01-32.19,30.17c-11.88,13.49-23.19,27.62-34.63,41.59
			c-6.49,7.92-12.76,16.06-19.09,24.13c-2.91,3.71-5.73,7.5-8.59,11.25c-1.1-2.67-1.15-4.72-0.78-6.69
			c1.73-9.18,3.95-18.27,5.3-27.5c1.66-11.38,2.15-22.95,4.02-34.29c2.84-17.19,6.2-34.31,9.76-51.36
			c7.32-35.04,15.18-69.96,22.26-105.05c2.58-12.79,5.26-26.02,4.98-38.88c-0.74-34.77-3.1-69.44-4.7-104.16
			c-0.47-10.22-0.56-20.48-0.87-30.72c-0.32-10.85-1.3-21.7-0.9-32.53c0.72-19.26,2.42-38.5,3.41-57.75
			c0.94-18.18,5.19-59.31,4.99-106.4c-0.08-18.97-0.73-28.84-5.31-30.6c-4.49-1.73-9.98,5.41-32.67,35.83
			c-30.1,40.35-38.5,50.83-47.87,69.73c-12.98,26.17-26.81,51.83-40.15,77.79c-5.61,10.91-10.49,22.3-16.46,32.95
			c-16,28.54-19.3,31.77-37.47,64.21c-11.42,20.39-19.56,36.66-27.18,51.91c-9.09,18.17-13.11,27.42-15.82,33.26
			c-5.2,11.21-10.05,22.6-13.87,34.52c-8.35,26.07-14.46,52.78-20.14,79.64c-5.5,25.99-9.85,52.18-11.38,78.62
			c-1.53,26.42-0.94,52.91-1.62,79.37c-1.07,41.85-6.08,83.25-14.53,124.29c-3.14,15.24-5.65,30.69-7.28,46.17
			c-2.25,21.35-3.78,42.8-4.91,64.23c-1.02,19.28-2.01,38.66-1.36,57.88c0.98,29.18,3.52,58.24,5.17,87.37
			c1.75,30.98,3.57,61.99,1.28,93.16c-0.79,10.73-1.15,13.67-3.66,40.05c-3.39,35.58-5.76,64.37-7.25,83.35
			c-0.48-6.87-1.69-17.28-5.22-29.29c-2.91-9.87-3.98-9.26-9.6-26.16c-3.03-9.1-4.8-16.9-7.5-32.22
			c-7.01-39.76-4.77-41.44-9.43-64.02c-6.14-29.73-8.53-32.87-14.16-57.94c-2.76-12.31-4.34-25.03-1.62-37.82
			c1.43-6.71,2.47-13.09,1.41-20.01c-0.63-4.09,0.56-8.63,1.18-12.93c1.14-7.97,3.24-15.9,3.56-23.88
			c1.05-26.5,4.59-52.53,11.66-78.08c1.4-5.05,2.33-10.31,3-15.53c2.13-16.67,3.94-33.38,6.09-50.05
			c0.92-7.09,2.52-14.08,3.58-21.15c2.3-15.38,3.58-31,7-46.08c2.15-9.47,4.02-18.78,4.81-28.43c1.53-18.69,1.35-37.28-0.67-55.8
			c-0.64-5.82-0.76-11.74-1.63-17.5c-2.33-15.26-5.7-30.13-11.98-44.02c-5.08-11.25-8.95-23.22-14.28-34.3
			c-10.07-20.9-15.6-43.52-18.94-66.78c-4.3-30.01-8.87-59.87-16.95-88.84c-1.4-5.01-3.16-9.96-3.95-15.11
			c-1.88-12.44-7.12-23.2-12.06-34.16c-4.57-10.15-9.08-20.34-13.51-30.56c-4.92-11.34-9.28-22.99-16.65-32.76
			c-14.88-19.71-29.4-39.77-44.51-59.25c-10.43-13.45-21.67-26.09-32.41-39.23c-25.71-31.46-45.46-67.8-66.27-103.25
			c-6.48-11.04-12.11-22.76-19-33.46c-13.35-20.74-26.32-41.64-35.4-65.33c-1.05-2.75-3.55-4.77-6.1-8.06
			c-3.27,6.62-5.29,11.75-5.98,17.75c-0.95,8.3-2.15,16.65-4.16,24.73c-3.67,14.77-7.99,29.35-12.07,44
			c-1.02,3.67-1.27,6.29-4.86,47.34c-3.2,36.66-3.09,37.37-3.95,42.9c-3.68,23.84-9.93,36.99-15.85,54.51
			c-12.4,36.74-18.46,74.72-19.3,113.73c-0.52,24.13,1.73,47.85,4.5,71.5c2.55,21.81,5.61,43.61,9.75,65.05
			c5.89,30.45,17.52,58.47,30.07,85.95c4.01,8.77,7.39,18.06,12.37,26.08c14.74,23.73,24.88,50.82,41.75,72.97
			c1.05,1.38,1.68,3.17,2.52,4.76c9.97,19.1,19.97,38.18,29.91,57.31c15.33,29.49,30.83,58.87,45.85,88.57
			c11.98,23.68,26.14,45.33,42.94,65c10.22,11.97,19.74,24.81,28.57,38.11c21.66,32.63,39.07,68.31,56.62,103.86
			c3.85,7.79,8.01,15.41,11.34,23.48c2.62,6.36,4.2,13.28,6.18,19.97c1.54,5.23,3.27,10.42,4.41,15.77
			c2.32,10.82,4.21,21.77,6.45,32.61c3.17,15.37,6.78,30.61,9.67,46.05c3.51,18.74,6.25,37.69,9.74,56.44
			c2.31,12.41,5.51,24.57,8.07,36.92c3.56,17.17,6.91,34.39,10.27,51.61c0.47,2.41,0.46,4.95,0.76,8.4c-2.4-0.95-3.59-1.1-4.4-1.79
			c-14.02-11.84-28-23.74-41.98-35.64c-14.58-12.4-26.55-27.18-35.94-45.02c-11.72-22.29-25.45-43.07-40.98-62.29
			c-9.01-11.16-18.43-22.06-26.24-34.25c-11.51-17.96-22.09-36.71-32.43-55.57c-10.76-19.63-23.59-37.84-31.81-59.25
			c-1.6-4.17-4.39-7.8-6.91-11.43c-5.19-7.5-10.5-14.89-15.88-22.22c-2.78-3.79-5.45-7.83-8.81-10.91
			c-8.7-7.99-17.37-16.13-26.74-23.08c-20.15-14.93-40.68-29.24-61.15-43.62c-21.32-14.97-40.08-33.51-58.49-52.4
			c-10.74-11.02-21.34-22.05-33.3-31.5c-22.41-17.7-46.49-31.47-72.9-40.74c-18.93-6.65-38.66-10.83-56.64-20.55
			c-0.98-0.53-2.13-0.66-3.19-1.03c-13.7-4.85-27.46-9.5-41.08-14.6c-22-8.24-43.74-17.29-65.88-25.05
			c-27.66-9.7-55.12-20.38-84.66-22.45c-15.55-1.09-30.99-3.48-46.53-4.82c-8.07-0.7-15.98,0.58-22.94,7.86
			c5.08,9.93,9.72,19.68,14.92,29.03c10.87,19.56,22.06,38.9,33.08,58.36c4.11,7.26,8.26,14.51,12.16,21.92
			c6.27,11.9,13.16,23.5,18.32,36.01c8.05,19.51,14.54,39.85,22.3,59.53c6.1,15.48,12.25,31.09,19.96,45.56
			c9.13,17.13,19.24,33.75,30.29,49.37c9.31,13.17,19.67,25.79,31.21,36.47c14.12,13.08,30.02,23.77,45.01,35.7
			c9.18,7.3,18.36,14.66,27.1,22.58c16.64,15.08,33.3,29.9,52.29,41.55c24.08,14.77,47.27,31.3,73.4,42.38
			c1.12,13.27,2.06,26.21,3.32,39.1c2.02,20.79,8.23,40.38,13.16,60.3c3.24,13.07,7.15,26.11,12.34,38.29
			c11.02,25.82,22.26,51.55,38.26,74.18c16.28,23.03,26.23,50.45,39.78,75.39c9.12,16.79,17.53,34.24,28.05,49.86
			c24.63,36.56,49.56,72.95,78.86,105.13c11.16,12.26,22.23,24.65,33.81,36.4c7.92,8.04,16.49,15.32,25.07,22.51
			c22.02,18.48,45.33,34.76,69.66,49.32c28.39,16.99,58.83,29.36,86.74,47.62c19.99,13.08,37.76,28.82,53.43,47.27
			c21.13,24.88,37.2,53.95,49.57,85.51c1.16,2.97,1.23,6.57,1.52,9.91c0.92,10.46,1.24,21.04,2.64,31.4
			c2.28,16.97,2.39,41.75,4.2,66.69c0,0,4.27,58.56,14.81,119.3c0.44,2.54,1.99,11.4,3.38,23.37c0.56,4.85,1,9.57,1.44,14.97
			c0.72,8.93,0.85,17.94,1.72,26.84c0.65,6.71,2.42,13.24,3.04,19.95c0.91,9.94,2.15,18.17,1.71,28.78
			c-0.56,13.51-2.87,17.81-0.35,20.54c2.2,2.39,7.8,3.27,23.79-6.08c-0.44-9.43-0.69-18.68-1.34-27.88
			c-1.96-27.51-4.42-54.98-6.03-82.52c-1.21-20.58-5.29-40.38-9.68-60.17c-2.19-9.87-4.91-19.66-6.08-29.71
			c-0.84-7.22-0.36-15,1.03-22.22c2-10.35,5.09-20.51,8.23-30.57c5.16-16.52,9.81-33.2,19.27-47.85c6.17-9.56,10.81-17.82,14.63-23
			c7.36-9.62,13.38-17.34,17.3-22.33c25.24-32.19,32.04-38.42,44.2-57.27c4.29-6.66,7.99-13.99,13.09-19.77
			c10.12-11.46,20.57-22.69,31.72-32.85c18.85-17.19,36.99-35.21,54.08-54.53c11.92-13.48,23.82-27.04,35.04-41.23
			c9.15-11.57,18.37-23.41,25.6-36.44c10.04-18.11,20.66-35.97,27.47-56.13c6.25-18.48,13.76-36.46,20.39-54.8
			c7.16-19.82,15.13-39.11,24.95-57.62c6-11.31,10.26-23.79,14.7-36c2.95-8.12,4.37-16.88,7.3-25.01c6.65-18.5,10.76-37.64,14.22-57
			c3.79-21.2,8.72-42.02,16.69-62c2.69-6.74,3.8-14.36,4.89-21.7c1.32-8.92,2.13-17.95,2.65-26.96c0.37-6.43,0.65-13.08-0.38-19.31
			c-1.44-8.75-0.2-16.62,3.62-24.35c0.95-1.92,1.71-3.95,2.53-5.94c10.85-26.27,21.19-52.75,29.96-79.95
			c5.52-17.11,11.65-34.01,18-50.79c5.91-15.62,12.41-30.98,18.74-46.41c3.52-8.58,7.62-16.91,10.76-25.64
			c6.82-18.95,13.18-38.09,19.77-57.14c1.72-4.99,3.64-9.89,5.36-14.88c5.18-14.93,10.58-29.78,15.39-44.84
			c7.17-22.44,13.82-45.07,20.89-67.55c3.37-10.69,13.76-20.97,10.45-30.79C2249.17,1177.45,2247.35,1172.27,2242.84,1170.29z
			 M2166.01,1219.03c3.26-9.57,10.18-14.46,18.1-18.49c15.34-7.79,30.7-15.41,48.92-19.7c-34.19,54.22-72.28,103.1-103.95,158.78
			c4.44-19.5,11.32-46.59,21.76-78.34c5.88-17.89,11.65-33.46,15.2-43.2C2166.03,1218.41,2166.02,1218.72,2166.01,1219.03z
			 M1741.47,2065.65c-2.17,22.39-5.62,44.52-10.47,66.45c-4.17,18.86-7.58,37.74-7.05,57.32c0.44,16.11-1.15,32.35-1.11,48.51
			c0.03,12.46,0.39,24.9-2.18,37.18c-2.61,12.45-5.43,24.86-8.62,37.15c-2.26,8.71-5.23,17.23-8.03,25.77
			c-0.91,2.79-2.31,5.39-3.49,8.08c-0.59-0.08-1.18-0.16-1.77-0.24c-0.69-8.15-1.54-16.28-1.99-24.45
			c-0.19-3.42-0.91-5.87-2.68-8.95c-2.66-4.59-3.44-10.82-4.2-16.51c-1.64-12.19-2.7-24.49-4.09-36.73
			c-1.32-11.64-2.71-23.27-4.14-34.89c-0.79-6.44-1.64-12.88-2.63-19.29c-1.65-10.67-0.18-20.74,3.61-30.95
			c3.74-10.07,6.13-20.73,9.23-31.1c2.47-8.29,5.21-16.49,7.66-24.79c5.28-17.83,10.61-35.65,15.6-53.57
			c2.05-7.35,4.77-13.95,9.95-19.34c6.14-6.39,11.97-13.16,18-19.68c1.53-1.66,3.36-2.98,6.66-5.86
			c-1.36,6.92-2.36,11.68-3.22,16.47C1744.75,2046.02,1742.43,2055.78,1741.47,2065.65z M1745.56,2010.71
			c0.05-4.12,1.35-7.37,2.68-10.48c7.02-16.43,14.12-32.82,21.27-49.18c0.97-2.23,2.07-4.59,3.64-6.28
			c11.03-11.8,22.84-22.3,35.82-31.52c17.32-12.3,36.14-22.02,51.62-37.63c7.55-7.61,15.69-14.48,23.56-21.68
			c5.34-4.89,11.43-7.92,18-9.75c3.86-1.71,7.73-3.43,11.59-5.14c-13.88,13.18-24.91,24.08-32.18,31.36
			c-19.59,19.61-26.7,26.65-40.96,39.75c-7.83,7.19-16.44,13.36-24.94,19.58c-16.7,12.23-31.45,26.45-42.32,45.59
			C1765.98,1988.31,1758,2001.06,1745.56,2010.71z M1809.84,1948.16c0.82-3.04,2.46-6.59,4.69-8.33
			c30.92-24.14,58.34-52.88,85.76-81.63c0.81-0.84,1.28-2.08,1.91-3.14c0.51,0.53,1.02,1.05,1.52,1.58
			c-1.7,3.87-4.16,9.78-6.71,17.17c-4.04,11.7-4.23,15.32-7.41,26.37c-5.26,18.29-8.04,19.88-16.31,45.91
			c-2.79,8.77-4.06,13.52-4.43,15c-1.93,7.75-3.02,14.84-5.79,29.62c-4.63,24.68-12.3,48.26-21.78,71.1
			c-8.4,20.23-17.53,40.14-27.17,59.69c-6.33,12.84-14.14,24.8-21.29,37.15c-0.71-0.33-1.43-0.67-2.14-1
			c1.98-23.89,4.47-47.76,5.78-71.67c1.16-21.14,1.18-42.32,1.42-63.48c0.19-16.86,0.76-33.53,6.2-49.82
			C1806.73,1964.8,1807.65,1956.26,1809.84,1948.16z M1868.56,1863.03c-9.17,8.41-18.3,16.96-27.98,24.58
			c-8.04,6.33-16.89,11.35-25.34,17.03c-12.54,8.43-25.39,16.36-36.87,27.53c0.96-2.34,1.9-4.68,2.89-7.01
			c10.83-25.6,22.39-50.81,35.39-75.18c15.44-28.94,31.07-57.77,46.72-86.57c1.27-2.34,3.07-4.66,5.11-6.11
			c9.98-7.11,20.08-14,30.22-20.83c16.33-11,34.56-16.57,52.14-24.05c15.5-6.59,31.29-12.82,45.9-21.5
			c17.86-10.61,34.62-23.62,51.86-35.58c0.93-0.65,1.89-1.24,2.84-1.85c0.36,0.43,0.72,0.86,1.08,1.29
			c-8.03,10.52-16.04,21.05-24.08,31.54c-5.14,6.71-10.48,13.25-15.49,20.08c-11.45,15.63-21.02,32.74-31.43,49.2
			c-7.63,12.06-16.96,22.81-25.59,34.09c-11.77,15.4-24.26,30-39.13,41.75c-3.18,2.51-6.6,5.49-10.21,6.29
			C1891.21,1841.13,1880.13,1852.41,1868.56,1863.03z M1863.68,1753.14c-5.04,7.19-9.26,13.25-12.79,18.34
			c-12.95,27.06-22.77,45.62-29.49,57.78c-8.99,16.27-12.98,23.9-20.9,39.2c-2.34,4.52-4.63,9.07-6.86,13.65
			c-13.96,28.78-13.47,32.98-24.37,54.86c-6.86,13.76-10.15,18.24-15.8,32.16c-0.2,0.5-2.28,6.06-6.44,17.2
			c-4.18,11.18-10.26,21.58-13.37,33.16c-1.01,3.78-2.56,7.25-5.14,9.99c-1.81,1.92-3.68,3.02-4.97,3.65
			c6.11-21.9,15.09-46.88,28.56-72.92c1.33-2.58,2.68-5.09,4.03-7.56c7.99-25.63,52.62-114.34,78.29-158.04
			c-0.82-0.64,19.65-36.2,45.06-73.34c7.63-11.15,8.95-12.57,20.31-29.07c18.41-26.73,31.36-46.84,35.1-52.6
			c27.74-42.82,90.76-134.13,114.23-168.43c99.22-145.03,176.29-272.18,177.01-271.63c0.73,0.56-78.69,132.53-171.48,271.85
			c-37.54,56.38-70.04,103.1-110.01,164.01c-10.38,15.81-25.58,39.18-47.35,70.23C1885.28,1722.79,1881.4,1727.86,1863.68,1753.14z
			 M2157.36,1216.8c2.77-1.28,5.42-2.93,8.92-4.85c-0.01,0.37-0.03,0.73-0.04,1.08c-3.8,7.47-10.25,21.68-16.21,38.51
			c-16.23,45.79-12.86,65.59-32,103.06c-2.14,4.19-5.14,10.24-12.46,21.32c-20.45,30.97-41.11,61.77-61.59,92.71
			c-7.39,11.16-14.42,22.61-21.76,33.81c-6.17,9.41-12.54,18.64-19.43,27.7c-0.51-3.67,1.43-6.62,2.37-9.85
			c7.36-25.1,13.46-50.48,15.99-76.71c1.64-17.04,3.34-34.1,5.66-51.06c1.18-8.58,3.96-16.92,5.71-25.44
			c1.38-6.69,1.71-13.68,3.57-20.19c2.72-9.51,4.19-19.66,12.97-26.13c9.41-6.93,18.06-15.18,27.01-22.89
			c12.19-10.52,22.21-23.45,31.46-36.98C2120.9,1241.38,2137.03,1226.2,2157.36,1216.8z M2109.7,1185.33
			c0.51,1.3,1.22,3.23,1.93,5.63c6.73,23-0.44,44.88-3.04,52.52c-3.17,9.29-6.82,15.73-9.15,19.77
			c-12.57,21.85-29.84,35.09-46.58,47.78c-3.53,2.68-6.48,4.78-8.35,6.09c0.15-4.53,0.67-11.34,2.46-19.37
			c2.52-11.3,6.22-19.02,13.7-34c10.48-20.98,15.7-31.48,17.62-34.72C2085.34,1217.12,2095.54,1201.74,2109.7,1185.33z
			 M2113.17,1110.73c-0.65,8.6-1.39,17.19-1.94,25.79c-0.63,9.92-1.34,19.85-1.52,29.77c0.04,4.49,0.08,8.99,0.13,13.48
			c-6.85,8.21-16.76,20.92-27.14,37.7c-18.98,30.71-29.04,58.12-30.9,57.26c-1.03-0.47,2.41-8.85,6-27.15
			c3.42-17.43,4.53-23.46,6.13-30.83c2.95-13.69,6.68-21.71,33.69-75.26C2104.15,1128.55,2109.54,1117.89,2113.17,1110.73z
			 M2077.88,1172.86c-2.36,4.42-7.28,15.66-13.62,30.9c-3.73,8.97-5.37,19.05-7.5,28.73c-5.7,25.85-8.98,38.66-12.22,57.43
			c-1.39,8.05-3.13,18.94-4.79,31.96c-1.05,0.94-2.13,1.87-3.23,2.81c-3.61,3.06-7.17,5.82-10.64,8.31
			c2.52-5.43,6.08-13.6,9.62-23.83c2.73-7.91,4.5-16.33,10.73-42.36c5.7-23.84,8.74-48.54,18.21-71.17
			c5.21-12.46,5.63-11.74,23.77-49.83c8.66-18.17,15.49-33.12,19.88-42.84C2095.25,1138.01,2085.01,1159.51,2077.88,1172.86z
			 M1999.5,1255.64c2.25-6.81,3.85-13.55,3.92-20.91c0.04-3.99,1.74-8.72,4.05-11.92c11.93-16.54,21.16-34.95,31.1-52.88
			c2.5-4.51,5.58-8.7,8.73-12.7c12.86-16.36,26.23-32.17,41.07-46.37c1.66-1.59,4.87-6.4,10.52-10.98c4.15-3.37,7.94-5.5,10.47-6.76
			c-16.05,28.26-27.77,53.52-36.14,73.42c-9.44,22.43-16.39,38.96-22.68,62.96c-5.55,21.16-4.21,23.85-12.09,55
			c-4.62,18.27-11.16,41.38-23.18,56.18c-2.92,3.6-11.38,9.03-21.68,16.47c-1.49,1.08-3.61,1.02-5.43,1.49
			c-0.59-1.3-1.25-2.08-1.28-2.91c-0.71-21.08-1.96-42.05,5.53-62.7c3.1-8.54,3.51-18.22,5.16-27.38
			C1998.16,1262.3,1998.45,1258.82,1999.5,1255.64z M1902.79,1399c3.96-12.05,7.85-24.14,12.16-36.05c1.66-4.6,4.11-8.93,6.58-13.11
			c5.42-9.19,10.92-18.34,16.69-27.26c3.95-6.11,8.54-11.7,12.63-17.71c14.15-20.78,28.18-41.65,42.3-62.45
			c1.34-1.97,3-3.67,5.98-7.29c-0.05,3.81,0.15,5.32-0.12,6.73c-1.95,10.36-3.85,20.74-6.04,31.05c-2.4,11.23-5.39,22.33-7.56,33.6
			c-1.28,6.65-1.88,13.53-2.07,20.3c-0.29,10.25-0.09,20.5,0.2,30.74c0.1,3.54-0.78,6.32-3.47,7.92c-5.2,3.08-10.42,6.24-15.89,8.53
			c-8.63,3.61-17.55,6.28-26.22,9.79c-12.41,5.03-24.35,11.26-36.1,22.15C1902.34,1402.2,1902.3,1400.5,1902.79,1399z
			 M1894.4,1425.23c0.69-1.97,1.74-4,3.1-5.44c13.67-14.43,28.75-25.78,46.92-32.45c12.69-4.66,26.06-7.69,37.69-16.07
			c3.58-2.58,13.57-7.78,25.31-16.81c9.64-7.41,17.55-14.75,23.76-21.07c0.84,3.48,1.71,5.15,1.53,6.7
			c-0.87,7.42-1.27,15.04-3.22,22.15c-7.2,26.31-9.42,53.29-12.09,80.3c-2.64,26.7-6.49,53.27-16.97,78.17
			c-1.19,2.82-1.92,5.9-2.65,8.91c-4.47,18.51-16.08,32.29-25.85,47.28c-2.16,3.31-4.49,6.48-6.71,9.74
			c-4.62,6.77-8.69,14.12-13.94,20.21c-9.29,10.79-16.57,23.15-24.34,35.16c-5.29,8.17-10.9,16.09-16.43,24.07
			c-14.35,20.72-28.71,41.42-43.1,62.09c-1.29,1.85-2.8,3.51-5.15,6.43c0.77-11.63,1.77-21.47,1.98-31.31
			c0.37-17.1,0.41-34.21,0.28-51.3c-0.18-23.63-1.47-47.26-0.75-70.88c0.55-17.95,3.48-35.89,5.38-53.83c0.23-2.17,0.77-4.31,1-6.47
			C1873.77,1487.68,1883.53,1456.29,1894.4,1425.23z M1752.91,1692.18c4.22-18.16,7.55-36.57,10.98-54.92
			c3.56-18.99,7.99-37.68,14.83-55.66c4.83-12.69,9.53-25.45,14.47-38.09c8.57-21.93,22.19-40,36.17-57.87
			c12.14-15.51,26.01-28.9,39.93-42.25c5.45-5.22,11.33-9.9,18.62-16.22c-1.23,5.43-1.72,9.04-2.87,12.38
			c-8.53,24.71-14.35,50.12-17.73,76.14c-2.65,20.4-5.88,40.83-6.96,61.31c-1.08,20.46-0.27,41.03,0.51,61.49
			c1.27,32.94,2.63,65.86-3.06,98.69c-0.92,5.33-3.1,10.72-5.74,15.38c-15.51,27.43-31.83,54.31-46.88,82.03
			c-13.3,24.49-25.37,49.78-37.85,74.81c-4.66,9.35-8.89,18.95-13.39,28.39c-0.58,1.22-1.6,2.2-3.76,5.1
			c0.05-5.42-0.09-8.71,0.14-11.98c1.45-19.87,3.51-39.73,4.33-59.61c0.72-17.37,0.01-34.68-2.74-51.89
			c-3.01-18.84-5.25-37.92-6.79-57.03C1743.22,1738.62,1747.53,1715.35,1752.91,1692.18z M1682.72,2140.3
			c2.25-8.74,4.6-17.5,7.67-25.93c5.67-15.56,7.79-32.02,11.84-47.96c3.35-13.17,2.39-26.48,4.3-39.65
			c4.42-30.61,6.53-61.43,4.63-92.2c-1.32-21.42-1.6-42.81-0.72-64.29c1.63-39.9,8.22-78.67,23.95-115.36
			c1.7-3.97,3.11-8.08,4.72-12.1c0.2-0.5,0.79-0.81,1.76-1.75c0.13,2.55,0.18,4.62,0.34,6.68c1.08,14.5,1.11,29.25,3.49,43.44
			c6.74,40.21,9.17,80.55,3.53,121.54c-0.76,5.56-1.93,11.3-1.43,16.75c2.59,28.38-9.76,48.82-16.59,69.77
			c0,0-15.55,47.71-39.36,122.35c-2.68,8.4-4.46,15.03-5.17,17.79c-2.27,8.84-4.33,17.74-6.49,26.61c-0.67-0.19-1.34-0.37-2.01-0.56
			C1679.01,2157.05,1680.58,2148.59,1682.72,2140.3z M1640.66,1632.17c-6.19,23.2-9.36,46.9-13.21,70.52
			c-2.8,17.21-5.98,34.35-9.05,51.51c-0.23,1.3-0.93,2.52-1.41,3.77c-0.64-0.15-1.29-0.31-1.93-0.46
			c1.67-13.13,3.31-26.26,5.01-39.38c0.44-3.39,1.25-6.74,1.58-10.14c2.27-23.3,6.52-46.06,13.77-68.35
			c4-12.32,5.9-25.44,8.79-38.18c1.99-8.79,3.99-17.57,6.12-26.33c0.54-2.23,1.6-4.33,2.42-6.48c0.74,0.31,1.48,0.61,2.22,0.92
			C1650.25,1590.44,1646.16,1611.52,1640.66,1632.17z M1612.99,1726.2c-0.46,4.52-1.13,9.03-1.7,13.54
			c-0.57,0.07-1.14,0.14-1.71,0.22c-4.17-16.21-9.41-32.15-12.15-48.7c-2.14-12.88-1.61-26.48-1.47-39.78
			c0.24-22.77,3.82-45.24,7.4-67.71c2.39-15.03,3.35-30.36,6.47-45.2c4.65-22.08,10.37-34.98,11.74-38.12
			c4.97-11.47,4.45-6.82,16.65-30.13c8.59-16.41,15.94-26.3,25.67-42.16c0.75-1.23,1.89-2.17,3.11-3.54
			c2.9,2.75,1.76,5.98,1.36,8.78c-1.93,13.58-4.17,27.11-6.01,40.69c-0.83,6.14-0.95,12.38-1.47,18.57
			c-0.47,5.59-0.56,11.27-1.67,16.73c-3.03,14.94-6.32,29.82-9.83,44.64c-5.1,21.46-10.5,42.84-15.75,64.26
			c-1.48,6.04-2.93,12.09-4.34,18.15c-4.37,18.76-9.22,37.42-12.88,56.33C1614.29,1703.7,1614.12,1715.04,1612.99,1726.2z
			 M1795.29,752.4c-0.12,1.3-0.3,2.58-0.68,3.79c-0.32,1.03-0.63,2.06-0.95,3.09c-11.41,36.33-19.79,62.58-26.03,81.95
			c-4.19,13.01-9.79,30.36-16.32,54.33c-2.41,8.83-4.69,17.68-6.97,27.02c-5.31,21.74-10.88,43.42-15.56,65.31
			c-3.25,15.21-5.36,30.7-7.69,46.11c-2.28,15.08-4.15,30.22-6.25,45.33c-4.11,29.65-7.51,59.43-12.65,88.88
			c-2.87,16.47-8.3,32.52-13.2,48.54c-7.42,24.29-16.69,47.91-21.04,73.27c-1.67,9.74-5.51,19.05-8.01,28.67
			c-2.58,9.93-4.57,20.03-7.13,29.96c-3.49,13.52-7.56,26.87-10.89,40.43c-5.77,23.53-11.35,47.11-16.58,70.78
			c-1.24,5.63-0.97,11.69-1,17.54c-0.02,4.31-1.34,7.55-5.64,12.01c1.48-16.56,1.69-31.24,4.29-45.44
			c5.5-30.01,11.8-59.89,18.62-89.6c5.22-22.74,11.59-45.2,17.75-67.69c6.8-24.86,14.15-49.54,20.87-74.43
			c3.88-14.36,6.96-28.97,10.44-43.46c1.96-8.17,4.18-16.27,5.96-24.49c2.04-9.42,3.96-18.9,5.51-28.42
			c4.16-25.52,8.02-51.1,12.17-76.62c1.9-11.69,4-23.36,6.38-34.96c5-24.36,9.7-48.82,15.55-72.95
			c5.06-20.84,11.45-41.32,17.43-61.9c3.92-13.47,6.96-22.27,9.77-31.05c14.58-45.43,25.63-82.97,30.01-97.84
			c10.5-35.66,20.61-72.09,24.04-93.15c0.23-1.44,2.11-12.8,4.67-28.35c0.82-5,1.83-11,3.16-18.59c1.77-10.09,3.81-20.14,5.95-30.15
			c1.82-8.5,3.95-16.93,5.94-25.39c4.05-17.25,7.64-34.64,12.33-51.69c2.66-9.67,7.13-18.77,12.13-27.6
			c-3.26,12.53-5.9,25.3-9.89,37.55c-8.9,27.3-13.84,55.46-18.44,83.77c-3.5,21.53-6.54,32.04-7.55,36.57
			c-13.73,61.54-25.51,90.2-28.98,119.33C1796.67,744.14,1796.27,747.62,1795.29,752.4z M1681.33,1358.09
			c-2.73,11.5-4.69,23.2-7.33,34.72c-1.09,4.77-2.38,9.8-4.76,13.89c-11.17,19.27-22.73,38.26-34.23,57.3
			c-0.83,1.38-2.26,2.32-4.1,4.14c-1.77-9.52,0.44-17.6,2.34-25.63c2.36-9.97,4.95-19.87,7.55-29.77
			c6.89-26.32,16.4-51.15,32.71-72.5c6.72-8.79,12.4-18.56,18.55-27.88c0.25,0.21,0.5,0.42,0.75,0.63
			C1688.97,1328.02,1684.91,1343,1681.33,1358.09z M1684.47,1488.09c-2.62,8.98-10.46,22.86-15.16,42.84
			c-1.73,7.35-5.68,14.11-9.64,20.73c1.27-9.98,2.52-19.96,3.8-29.94c1.54-12.03,3.05-24.07,4.66-36.1
			c1.37-10.19,2.96-20.35,4.26-30.55c1.73-13.59,2.7-27.3,5.03-40.77c3.98-23.02,8.05-46.08,13.43-68.77
			c4.86-20.53,11-40.79,17.51-60.81c7.77-23.89,16.51-47.4,24.88-71.06c0.9-2.55,2.1-4.98,3.16-7.46c0.55,0.11,1.11,0.22,1.66,0.33
			c-0.09,1.81-0.11,3.62-0.28,5.42c-1.43,15.5-2.86,31-4.35,46.5c-0.75,7.75-1.57,15.5-2.45,23.23
			c-2.74,24.07-8.32,52.56-20.12,103.56C1708.91,1393.71,1696.79,1445.88,1684.47,1488.09z M2098.99,828.08
			c-7.02,14.7-13.53,29.69-20.34,44.51c-10.39,22.61-23.64,42.81-40.45,60.23c-13.26,13.74-26,28.1-38.99,42.16
			c-1.18,1.27-2.53,2.35-4.23,3.17c6.29-15.38,13.1-30.35,21.54-44.41c11.94-19.89,25.09-38.75,38.84-57.14
			c5.05-6.75,9.44-14.13,13.83-21.45c10.78-17.94,24.18-33.23,38.37-47.76c0.78-0.8,1.79-1.33,2.69-1.98
			c0.22,0.36,0.45,0.72,0.67,1.08C2106.91,813.69,2102.54,820.65,2098.99,828.08z M2025.64,860.18c12.74-9.7,24.21-21.7,35.57-33.5
			c21.53-22.35,42.7-45.09,68.67-61.16c5.36-3.32,10.2-7.74,16.3-12.44c-0.96,1.96-1.19,2.82-1.69,3.4
			c-13.09,15.22-25.95,30.69-39.37,45.52c-15.87,17.55-31.79,34.93-44.67,55.5c-8.08,12.9-16.9,25.25-25.71,37.56
			c-17.18,23.99-32.17,49.48-44.66,76.77c-1.32,2.89-2.99,5.58-4.5,8.37c-0.7-0.25-1.41-0.5-2.11-0.75
			c0.49-3.83,0.89-7.66,1.47-11.47c4.43-29.16,14.43-56.56,23.65-84.18C2011.86,873.96,2017.3,866.53,2025.64,860.18z
			 M1919.73,935.55c2.25-1.91,4.41-3.97,6.74-5.74c15.43-11.64,30.68-23.61,46.42-34.68c11.86-8.34,24.37-15.51,36.79-23.32
			c-6.9,21.66-14.2,42.06-19.81,62.99c-4.73,17.65-7.28,35.95-11.25,53.85c-1.18,5.33-3.19,10.8-6,15.31
			c-8.52,13.7-17.21,27.33-26.59,40.31c-11.16,15.44-23.06,30.23-34.74,45.2c-4.08,5.22-8.36,10.26-12.74,15.17
			c-15.73,17.66-31.55,35.23-47.33,52.84c-1,1.12-1.94,2.32-2.91,3.48c-0.59-0.33-1.17-0.67-1.76-1c0.61-2.4,1.01-4.88,1.85-7.17
			c8.59-23.58,16.36-47.44,22.2-72.01c2.22-9.34,5.64-18.37,7.85-27.72c3.28-13.89,6.39-27.86,8.81-41.94
			c2.81-16.33,9.99-30.45,17.13-44.73c3-6,5.83-12.22,7.83-18.67C1913.78,942.7,1916.01,938.7,1919.73,935.55z M1836.46,1040.76
			c5.66-7.87,12.61-14.88,17.05-23.47c7.34-14.19,18.8-24.12,27.83-36.49c7.47-10.24,15.75-19.77,23.6-29.67
			c0.76-0.95,1.06-2.36,1.57-3.55c0.66,0.67,1.31,1.34,1.97,2.01c-0.46,1.87-0.63,3.91-1.43,5.6c-2.23,4.73-4.65,9.37-7.13,13.96
			c-9.01,16.67-13.49,34.89-17.48,53.59c-5.26,24.63-11.64,49.07-18.73,73.19c-6.39,21.73-14.13,43.02-21.84,64.27
			c-2.04,5.61-5.99,10.51-9.43,15.41c-6.26,8.9-13.33,17.16-19.14,26.39c-14.33,22.75-25.34,47.61-37.26,71.92
			c-13.94,28.44-26.59,57.63-42.4,85.02c-7.26,12.58-11.8,27.12-17.1,40.99c-4.25,11.11-7.8,22.53-11.65,33.81
			c-0.51-0.15-1.02-0.29-1.53-0.44c1.59-6.47,3.21-12.94,4.77-19.42c1.45-6.03,2.96-12.04,4.22-18.11
			c4.1-19.79,8.26-39.57,12.1-59.41c4.08-21.1,8.28-42.2,11.54-63.45c1.65-10.71,1.13-21.75,1.99-32.61
			c0.63-8.04,1.83-16.04,2.89-24.05c1.1-8.32,2.02-16.7,3.62-24.92c0.94-4.8,2.62-9.6,4.74-13.95c2.96-6.07,6.54-11.79,10.02-17.54
			c12.18-20.1,24.32-40.23,36.72-60.17c4.33-6.96,9.45-13.33,14.1-20.06c2.75-3.99,5.16-8.28,7.96-12.22
			c3.83-5.4,7.99-10.51,11.8-15.92C1832.22,1048.03,1834.04,1044.13,1836.46,1040.76z M1865.33,839.68
			c-4.77,20.93-9.87,41.79-14.31,62.79c-3.74,17.66-7.03,35.44-9.98,53.26c-4.23,25.52-7.86,51.14-11.99,76.68
			c-1.45,8.96-4.91,16.96-10.55,24.02c-23.59,29.55-44.19,61.6-62.39,95.41c-11.89,22.09-22.81,44.88-33.19,67.87
			c-5.29,11.72-8.58,24.54-12.56,36.95c-3.22,10.05-5.43,20.54-9.33,30.24c-3.78,9.39-8.68,18.38-13.94,26.89
			c-9.9,16.02-20.43,31.57-30.69,47.31c-0.35-0.2-0.69-0.4-1.04-0.6c3.13-12.97,6.23-25.94,9.39-38.9
			c2.95-12.09,5.91-24.17,8.96-36.23c3.05-12.05,5.85-24.19,9.44-36.05c3.31-10.95,8.29-21.35,11.18-32.4
			c5.83-22.22,13.51-43.98,15.91-67.14c1.09-10.53,3.17-20.99,3.92-31.53c1.37-19.34,9.89-35.72,17.69-52.42
			c1.66-3.54,4.33-6.61,6.85-9.56c18.4-21.57,34.29-45.36,48.4-70.43c7.91-14.05,13.44-29.72,20.13-44.61
			c2.9-6.45,6.09-12.74,9.08-19.15c10.72-22.91,21.94-45.46,35.85-66.29c4.35-6.51,8.09-13.52,13.4-19.92
			C1865.49,837.16,1865.6,838.47,1865.33,839.68z M1872.88,636.09c1.31,31.96,2.41,63.93,3.89,95.87
			c1.14,24.61,1.2,49.14-4.52,73.38c-1.56,6.6-3.36,13.42-6.4,19.29c-6.21,11.98-13.5,23.28-20.05,35.07
			c-7.43,13.38-14.65,26.91-21.73,40.51c-4.82,9.26-9.47,18.65-13.81,28.18c-4.59,10.09-8.87,20.36-13.04,30.66
			c-9.13,22.57-21.69,42.72-35.78,61.77c-8.09,10.94-16.71,21.41-24.7,32.44c-4.24,5.86-7.67,12.44-11.42,18.73
			c-1.48,2.49-2.83,5.07-5.7,7.09c1.63-12.81,2.95-25.67,4.96-38.42c2.52-16.01,5.35-31.98,8.52-47.86
			c2.56-12.82,5.83-25.49,8.77-38.23c3.84-16.64,7.22-33.41,11.59-49.88c5.01-18.88,9.23-38.02,16.78-56.12
			c4.97-11.91,8.48-24.53,12.79-36.77c5.01-14.22,7.35-29.56,15.44-42.48c3.07-4.9,5.28-10.61,8.86-14.95
			c15.18-18.42,24.61-40.57,34.37-62.52c6.4-14.38,12.34-29,18.88-43.3c2.87-6.27,6.74-11.99,11.04-19.51
			C1872.3,632.68,1872.81,634.37,1872.88,636.09z M1868.21,459.33c3.02-11.67,6.41-23.22,9.64-34.82c0.78,0.23,1.57,0.46,2.35,0.68
			c-0.1,6.15-0.11,12.31-0.31,18.46c-1.3,40.13-3.06,80.23-7.04,120.28c-1.62,16.34-0.94,32.92-0.94,49.37
			c0,6.43-1.57,11.7-4.52,17.46c-8.54,16.65-16.14,33.88-24.07,50.9c-7.27,15.62-13.88,31.67-21.93,46.79
			c-5.53,10.41-13.02,19.56-20.92,28.83c0.07-1.94-0.11-3.94,0.24-5.82c1.92-10.39,2.86-21.19,6.19-31.04
			c9.05-26.79,14.94-54.36,20.49-82.09c5.07-25.33,11.39-50.44,15.27-75.95c3.92-25.8,12.85-49.91,19.01-74.92
			C1863.97,478.12,1865.8,468.64,1868.21,459.33z M1791.22,537.51c1.45-8.23,6.53-15.81,10.1-23.59c1.67-3.63,3.66-7.09,5.6-10.55
			c2.2-3.94,4.5-7.81,6.79-11.69c9.05-15.32,19.92-28.96,30.97-42.51c7.74-9.49,14.64-19.83,22.9-29.25
			c-0.21,7.85-1.56,15.05-4.23,22.13c-6.44,17.09-13.18,34.11-18.63,51.58c-4.52,14.47-7.59,29.49-10.94,44.35
			c-4.66,20.67-9.24,41.36-13.38,62.15c-3.84,19.25-6.78,38.69-10.63,57.93c-3.3,16.49-7.01,32.91-11.11,49.2
			c-4.66,18.49-9.95,36.81-14.97,55.2c0.74-12.44,1.07-24.91,2.38-37.29c2.5-23.74,2.57-47.21-1.33-70.59
			c-1-6.01-0.2-12.41-0.62-18.59C1781.89,602.87,1785.51,570.06,1791.22,537.51z M1693.09,715.02c0.42-0.41,0.86-0.93,1.02-1.49
			c4.52-15.63,15.88-26.5,23.13-40.26c7.13-13.56,15.35-26.43,22.98-39.68c1.97-3.43,3.45-7.2,5.24-10.76
			c7.16-14.2,14.43-28.32,21.49-42.57c3.41-6.88,6.25-14.1,9.69-20.96c2.54-5.06,5.65-9.77,9.52-14.02
			c-0.81,6.39-1.84,12.76-2.39,19.17c-1.21,14.27-2.57,28.55-3.11,42.84c-0.39,10.23,0.22,20.51,0.8,30.72
			c0.66,11.76,1.48,23.53,2.77,35.2c2.2,19.92,0.08,35.04-1.61,57.76c-1.5,20.25-2.25,30.38-4.34,41.75
			c-4.04,21.97-8.54,28.41-20.42,62.95c-2.83,8.21-11.14,33.57-20.04,65.91c-5.44,19.76-10.01,39.82-14.17,59.93
			c-5.67,27.44-10.57,55.05-15.84,82.58c-0.55,2.89-1.38,5.73-3.68,8.43c-0.27-2.65-0.65-5.29-0.78-7.95
			c-1.45-29.79-5.1-59.19-9.55-88.51c-3.7-24.35-8.27-48.55-9.35-73.47c-0.62-14.22-3.19-28.25-4.6-42.41
			c-1.76-17.7,0.02-35.42,2.18-53.04c1.4-11.44,3.99-22.73,5.41-34.16c1.07-8.62,1.2-17.36,1.57-26.05
			C1689.2,722.42,1689.81,718.23,1693.09,715.02z M1621.74,973.6c0.15-8.05,1.18-16.13,2.22-24.15c2.55-19.73,4.5-39.61,8.28-59.1
			c3.12-16.08,4.96-32.49,10.8-48.08c3.98-10.62,5.21-22.42,8.58-33.37c3.54-11.52,7.57-22.98,12.45-33.9
			c6.01-13.44,13.11-26.3,20.87-39.54c-0.26,3.07-0.43,6.15-0.8,9.2c-1.5,12.35-3.27,24.67-4.53,37.04
			c-1.1,10.84-1.68,21.73-2.43,32.6c-1.54,22.25,1.21,43.98,4.31,65.74c2.35,16.49,3.46,33.23,5.54,49.78
			c3.36,26.69,7.65,53.22,10.45,79.99c2.28,21.83,2.97,43.92,4.32,65.9c0.13,2.15,0.11,4.39-0.25,6.52
			c-2.98,17.83-5.21,35.85-9.29,53.4c-7.67,33.02-16.22,65.82-24.79,98.59c-6.37,24.36-13.49,48.5-20.03,72.81
			c-3.63,13.5-6.72,27.17-10.13,40.74c-0.88,3.52-2.03,6.97-3.05,10.46c-0.4-0.06-0.8-0.11-1.2-0.17c-0.12-2.05-0.47-4.12-0.33-6.16
			c1.72-25.63-0.04-50.91-4.27-75.93c-3.59-21.22-6.17-42.79-11.28-63.51c-3.94-15.96-4.06-32.43-6.85-48.49
			c-1.67-9.59,1.04-20.32,2.12-30.51c2.29-21.61,5.23-43.17,7.09-64.81c1.46-17.05,1.99-34.19,2.37-51.29
			C1622.23,1002.77,1621.47,988.19,1621.74,973.6z M1601.35,1472.8c-0.68-23.58-1.81-47.16-3.7-70.61
			c-2.21-27.48-4.79-54.9-4.13-82.63c0.38-15.87,0.79-31.76,1.74-47.61c1.34-22.34,3.07-44.67,4.91-66.99
			c0.76-9.29,2.16-18.54,3.42-27.79c0.36-2.63,1.23-5.18,1.86-7.77c0.53,0.11,1.05,0.22,1.57,0.33c1.47,11.57,2.45,23.26,4.52,34.67
			c4.66,25.76,10.47,51.23,14.6,77.1c2.51,15.76,3.89,32,3.78,48.07c-0.15,22.38-2.04,44.81-3.47,67.21
			c-0.31,4.92-1.42,9.92-2.84,14.65c-6.95,23.17-8.11,47.14-10.31,71.01c-1.28,13.85-2.63,27.55-7.37,41.15
			c-4.19,12.04-4.65,25.64-6.5,38.59c-2.06,14.5-3.89,29.03-5.7,43.57c-0.96,7.72-1.63,15.47-2.48,23.2
			c-0.37,3.35-0.84,6.69-1.5,11.87c-1.44-22.71,1.16-43.33,3.91-63.97c1.31-9.83,2.19-19.71,3.14-29.58
			c1.13-11.77,2.4-23.54,3.13-35.33C1600.74,1498.91,1601.73,1485.79,1601.35,1472.8z M1559.5,1009.94
			c1.09-3.98,2.69-7.79,4.75-13.61c4.47,11.29,6.48,21.02,6.84,30.81c0.62,16.74-0.06,33.57-0.01,50.36
			c0.06,19.18-4.75,37.67-7.46,56.47c-2.13,14.81-4.23,29.62-6.44,44.42c-3.92,26.19-7.84,52.38-11.91,78.55
			c-2.73,17.55-5.94,35.03-8.52,52.6c-0.99,6.74-0.73,13.67-1.2,20.5c-0.23,3.37-0.82,6.72-2.36,10.39
			c-0.64-1.72-1.42-3.39-1.9-5.17c-3.67-13.58-8.08-26.96-10.65-40.83c-2.06-11.08-2.78-22.76-2.39-34.15
			c0.39-11.12,2.97-22.22,4.53-33.33c3.01-21.32,6.11-42.62,8.92-63.96c3.25-24.7,6.06-49.47,9.38-74.16
			c2.83-21.03,6.75-41.81,14.24-61.71C1557.38,1021.67,1557.95,1015.61,1559.5,1009.94z M1528.73,1390.07
			c-2.71-5.9-2.91-12.46-3.53-18.86c-1.02-10.47-0.81-21.27-2.94-31.4c-3.2-15.27-7.96-30.09-12.08-45.1
			c-3.96-14.41-7.99-28.8-11.9-43.23c-2.88-10.62-5.17-21.49-8.48-31.92c-9.45-29.71-14.12-60.84-20.23-91.55
			c-1.26-6.31-3.61-12.32-4.83-18.65c-3.59-18.73-6.77-37.58-10.33-56.32c-1.2-6.31-2.8-12.54-4.67-18.62
			c-4.03-13.11-8.62-26-12.5-39.16c-8.64-29.27-17.09-58.62-25.4-88.01c-4.66-16.47-8.66-33.19-13.37-49.63
			c-7.24-25.28-14.55-50.54-22.38-75.58c-7.46-23.85-15.77-47.35-23.44-71.12c-5.33-16.53-10.41-33.18-15.25-49.92
			c-7.63-26.4-14.54-53.09-22.55-79.33c-5.07-16.59-10.83-32.9-14.62-49.98c-2.23-10.06-4.15-20.21-6.21-30.31
			c0.47-0.18,0.95-0.37,1.42-0.55c1.24,3.58,2.58,7.12,3.7,10.74c4.69,15.07,9.33,30.17,13.98,45.27
			c6.89,22.39,13.74,44.74,18.95,67.81c3.98,17.62,9.56,34.83,15.44,51.75c9.27,26.65,19.8,52.73,29.03,79.4
			c7.75,22.36,14.81,45.07,21.44,67.91c6.21,21.4,11.23,43.27,17.18,64.77c5.38,19.46,11.26,38.74,17.01,58.06
			c10.63,35.7,21.38,71.36,28.42,108.32c2.82,14.8,4.88,29.8,7.93,44.52c3.99,19.27,8.77,38.31,12.93,57.54
			c3.31,15.3,5.98,30.8,9.38,46.07c2.92,13.12,6.43,26.07,9.78,39.06c4.96,19.25,9.91,38.49,15.03,57.68
			c2.83,10.6,6.18,21.01,9.01,31.61C1529.74,1350.41,1531.52,1369.95,1528.73,1390.07z M1451.51,656.85
			c11.49,14.93,21.47,30.01,27.78,47.99c3.61,10.29,8.11,20.17,12.14,30.28c2.13,5.34,3.97,10.83,6.18,16.13
			c2.06,4.95,4.52,9.68,6.63,14.6c0.94,2.18,1.71,4.53,2.14,6.91c5.77,31.82,11.63,63.62,17.13,95.5
			c4.26,24.69,9.69,48.9,19.67,71.44c3.78,8.53,7.5,17.1,11.52,25.48c5.23,10.89,5.03,21.96,2.76,34.15
			c-3.21,17.24-9.39,33.49-13.08,50.44c-4.16,19.12-6.95,38.61-9.68,58.04c-3.33,23.75-5.74,47.63-8.99,71.39
			c-3.71,27.16-7.9,54.24-11.91,81.36c-0.07,0.49-0.56,0.91-1.3,2.06c-0.95-2.89-1.86-5.32-2.56-7.83
			c-8.06-28.75-16.59-57.34-19.97-87.58c-0.51-4.53-2.66-8.74-3.67-13.21c-4.45-19.74-9.12-39.43-13-59.34
			c-2.17-11.14-2.3-22.86-4.54-33.97c-2.84-14.02-3.66-28.12-3.2-42.47c0.49-15.26,1.45-30.38,7.05-44.88
			c5.54-14.33,6.87-29.56,7.84-44.86c1.94-30.8-1.92-60.78-7.69-90.46c-3.82-19.62-8.42-39.03-12.31-58.64
			c-1.25-6.28-1.46-12.86-1.96-19.33c-1.65-21.29-3.17-42.6-4.84-63.9c-0.94-11.98-2.09-23.93-3.07-35.91
			C1450.53,659.44,1451.03,658.56,1451.51,656.85z M1360.77,541.06c13.41,17.46,26.59,35.14,40.25,52.33
			c13.11,16.5,26.67,32.55,40.16,48.67c2.98,3.56,4.15,7.52,4.72,12.34c4.47,37.77,6.92,75.79,9.66,113.79
			c1.01,14.01,5.6,27.58,8.48,41.38c3.06,14.72,6.43,29.37,8.91,44.22c2.08,12.44,4.08,25.08,4.3,37.73
			c0.33,19.22-0.43,38.54-1.76,57.77c-0.52,7.58-3.56,15.09-5.87,22.48c-4.68,14.96-6.65,30.34-7.53,45.94
			c-0.14,2.41-0.59,4.81-0.89,7.22c-0.7,0.06-1.39,0.11-2.09,0.17c-1.71-7.37-3.21-14.82-5.16-22.1
			c-3.8-14.17-7.69-28.31-11.84-42.35c-3.79-12.82-8.19-25.41-11.9-38.26c-4.57-15.82-8.75-31.79-13.01-47.73
			c-4.81-17.98-9.32-36.07-14.31-53.98c-4.43-15.88-9.32-31.58-14.04-47.34c-7.56-25.22-12.76-51.16-16.47-77.5
			c-0.76-5.42,0.05-11.17,0.1-16.76c0.23-26.46-0.98-52.74-5.56-78.63c-0.91-5.14-1.07-10.47-1.99-15.61
			c-1.61-9.06-3.49-18.06-5.36-27.06c-1.48-7.11-3.1-14.19-3.31-22.28C1357.75,537.36,1359.31,539.16,1360.77,541.06z
			 M1280.24,406.8c1.99,3.18,4,6.35,5.97,9.54c3.59,5.8,7.28,11.53,10.72,17.44c12.87,22.11,25.67,44.29,38.47,66.45
			c1.04,1.8,1.63,4.02,2.89,5.56c7.67,9.35,11.47,20.49,13.4,33.03c1.45,9.39,4.62,18.38,6.88,27.6c1.09,4.45,2.02,8.99,2.7,13.55
			c1.91,12.81,4.33,25.56,5.32,38.5c1.55,20.31,4.82,40.46,2.59,61.21c-1.48,13.72,1.42,27.16,3.91,40.49
			c0.89,4.79,1.61,9.62,2.41,14.44c-0.67,0.23-1.34,0.45-2.01,0.68c-9.23-27.32-18.95-54.43-27.53-82.02
			c-6.31-20.32-10.83-41.38-16.7-61.89c-4.78-16.7-10.4-33.08-15.59-49.63c-5.01-15.99-10.32-31.87-14.8-48.06
			c-6.42-23.22-12.3-46.66-18.19-70.07c-1.3-5.15-1.66-10.62-2.45-15.95C1278.9,407.37,1279.57,407.08,1280.24,406.8z
			 M1250.96,437.55c3.77-12.79,7.66-25.56,10.8-38.53c1.47-6.1,1.31-12.64,2.28-19.13c8.31,35.64,12.77,72.38,21.4,108
			c8.67,35.73,16.31,71.77,27.04,106.82c10.7,34.98,20.28,70.42,29.86,106.08c-35.09-65.91-53.15-94.19-62.64-105.11
			c-3.37-3.87-4.81-6.13-8.34-9.98c-8.91-9.73-15.93-21.07-22.77-32.53c-6.1-10.23-8.44-21.56-6.86-34.44
			c1.47-11.99,1.36-24.2,1.45-36.31C1243.3,466.96,1246.64,452.2,1250.96,437.55z M1211.37,641.02c3.71-17.68,8.03-35.07,14-52.1
			c4.69-13.37,7.75-27.4,11.55-41.13c0.55-1.99,1.23-3.93,2.28-7.26c1.45,2.53,2.36,3.84,3.02,5.3
			c6.46,14.41,15.38,26.81,24.72,38.89c6.13,7.93,5.8,7.45,13.26,17.52c8.29,11.19,18.61,25.12,28.65,42.49
			c8.23,14.24,5.47,12.1,24.18,48.07c3.42,6.58,6.51,12.13,10.53,20.85c4.54,9.84,8.56,19.99,13.1,29.82
			c11.7,25.34,17.92,53.04,25.82,79.98c13.24,45.13,25.57,90.62,38.52,135.86c6.31,22.03,13.16,43.84,19.73,65.77
			c0.69,2.31,1.12,4.72,0.7,8.07c-9.8-13.29-25.33-33.02-46.52-54.62c-26.21-26.71-25.92-22.82-48.45-44.23
			c-26.99-25.64-68.19-87.67-68.19-87.67c-21.91-33.04-16.81-28.03-30.46-47.45c-12.21-17.38-23.24-35.79-34.37-54.07
			c-9.57-15.7-10.18-22.28-9.23-43.91C1205.09,680.93,1207.2,660.91,1211.37,641.02z M1325.92,1069.51
			c-10.85-22.36-24.31-43.08-36.66-64.5c-3.42-5.93-7.01-11.74-10.29-17.76c-6.57-12.06-13.17-24.11-19.39-36.41
			c-4.46-8.82-8.22-18.08-12.44-27.06c-10.39-22.1-19.44-44.77-25.79-68.94c-6.34-24.13-9.26-48.96-12.43-73.78
			c-1.37-10.73-2.4-21.52-3.47-32.3c-0.29-2.88-0.15-5.83-0.21-8.79c1.3,0.02,1.74-0.09,1.81,0.05
			c11.95,22.58,26.41,43.08,40.8,63.64c13.78,26.55,27.43,47.93,38.73,64.11c11.71,16.77,24.22,35.05,44.44,55.25
			c11.23,11.21,23.4,21.24,34.95,32.07c19.31,18.11,29.37,27.18,40.59,38.87c20.71,21.59,29.27,33.66,36.16,47.76
			c3.49,7.15,6.58,12.42,7.23,17.37c3.38,25.53,9.83,50.13,15.73,74.92c2.34,9.83,3.23,20.13,5.48,29.99
			c4.69,20.63,9.78,41.14,14.83,61.66c4.29,17.45,8.76,34.85,13.15,52.27c-0.51,0.36-1.01,0.71-1.52,1.07
			c-3.73-5.42-7.24-11.06-11.24-16.22c-12.56-16.22-24.53-33.14-38.2-48.14c-13.86-15.21-29.67-28.17-44.22-42.63
			c-9.41-9.35-18.28-19.39-27.03-29.52c-7.43-8.6-14.42-17.69-21.47-26.69C1344.26,1101.5,1334.17,1086.51,1325.92,1069.51z
			 M1261.14,1297.15c19.33,12.48,37.97,26.13,54.93,42.34c5.17,4.94,9.42,11.08,13.98,16.79c20.12,25.16,32.44,56.18,49.26,83.82
			c6.33,10.4,12.42,20.98,18.58,31.51c3.91,6.68,7.63,13.5,11.66,20.08c3.87,6.33,7.58,12.89,12.15,18.54
			c19.91,24.63,39.25,49.73,55.06,77.99c3.34,5.97,6.26,12.24,9.38,18.38c-0.23,0.35-0.45,0.7-0.68,1.06
			c-16.96-14.95-33.89-29.96-50.91-44.83c-14.24-12.44-12.39-9.92-18.44-15.42c-9.39-8.53-17-17.13-32.2-34.34
			c-2.96-3.35-6.82-7.98-11.78-14.12c-2.94-3.64-6.19-7.15-8.36-11.33c-9.37-18.03-22.53-44.99-22.53-44.99
			c-12.14-31.36-27.39-54.95-32.76-63.27c-13.86-21.43-19.12-23.51-36.92-50.91c-8.86-13.64-15.54-25.4-19.9-33.44
			C1256.29,1293.41,1258.79,1295.63,1261.14,1297.15z M1485.59,1617.53c-0.39,0.52-0.77,1.05-1.16,1.57
			c-6.81-5.4-13.82-10.52-20.39-16.25c-17.74-15.46-35.19-31.32-52.95-46.76c-16.47-14.32-33.7-27.35-52.03-38.79
			c-21.08-13.16-41.39-27.81-62.02-41.83c-11.68-7.94-23.35-15.9-34.98-23.93c-20.1-13.86-40.14-27.81-60.25-41.66
			c-9.06-6.24-13.46-8.93-17.62-11.7c-12.88-8.57-98.92-72.58-130.71-108.45c-1.33-1.5-7.26-8.25-15.66-17.19
			c-8.3-8.83-14.87-15.4-17.46-17.98c-2.68-2.66-15.97-15.81-32.02-29.78c-15.85-13.79-37.25-31.02-64.19-49.08
			c3.53,1.5,9.33,4.09,16.26,7.78c0,0,35.73,19.02,72.21,58.05c0.97,1.04,8.51,9.15,20.72,22.21c0,0,1.48,1.58,2.44,2.61
			c26.6,28.44,149.33,128.99,152.03,130.66c0,0,0.1,0.06,0.23,0.14c0.42,0.26,1.35,0.84,2.5,1.58c5.7,3.66,11.4,7.31,17,11.13
			c17.32,11.81,34.46,23.96,51.95,35.48c13.25,8.73,27.09,16.36,40.35,25.06c14.93,9.8,29.49,20.27,44.25,30.39
			c4.68,3.21,9.5,6.18,14.22,9.34c20.54,13.77,39.26,30.32,58.19,46.55c14.44,12.38,14.33,12.78,43.8,38.7
			C1470.95,1604.73,1479.72,1612.4,1485.59,1617.53z M1056.77,1150c5.78,1.79,11.76,3.03,17.29,5.47
			c13.82,6.1,28.26,11.24,40.96,19.52c23.5,15.32,45.67,32.78,64.89,54.79c15.7,17.97,33.07,34.2,52.43,47.41
			c7.61,5.19,11.86,13.5,16.55,21.42c6.81,11.5,7.76,14,13.8,24.02c13.81,22.93,22.16,24.63,38.77,51.2
			c2.77,4.44,4.94,7.66,8.45,14.66c14.52,28.95,29.33,57.74,43.2,87.09c5.36,11.35,11.96,21.2,19.84,30.24
			c1.78,2.04,3.24,4.43,3.77,7.86c-2.08-1.28-4.21-2.45-6.22-3.85c-10.95-7.61-21.73-15.56-32.85-22.87
			c-15.85-10.42-31.95-20.35-47.92-30.55c-16.23-10.37-32.47-20.74-48.58-31.32c-2.52-1.66-3.67-3.64-6.56-6.68
			c-10.93-11.48-24.61-26.04-36.45-47.49c-4.1-7.43-6.88-13.57-10.88-22.77c-3.96-9.1-7.31-18.54-11.25-27.66
			c-5.03-11.63-10.44-23.04-15.58-34.61c-10.65-23.96-25.15-44.53-42.28-63.1c-17.33-18.79-33.88-38.47-50.81-57.72
			c-3.8-4.32-7.79-8.45-11.69-12.67C1056.02,1151.6,1056.39,1150.8,1056.77,1150z M934.82,1104.79
			c16.48,6.17,32.91,12.45,49.34,18.77c16.17,6.22,32.14,13.09,48.51,18.59c9.59,3.22,16.96,8.49,23.57,16.9
			c10.3,13.11,21.89,24.96,33.02,37.25c10.93,12.06,21.92,24.05,32.97,35.97c11.36,12.25,20.46,26.44,28.35,41.65
			c9.92,19.11,19.27,38.5,25.98,59.49c2.67,8.35,6.76,16.17,10.76,23.86c7.32,14.05,15.07,27.82,22.63,41.72
			c0.55,1,1.05,2.04,1.57,3.06c-0.37,0.43-0.74,0.87-1.11,1.3c-10.91-6.98-22.24-13.28-32.65-21.06
			c-27.83-20.79-56.07-41.02-81.98-64.75c-13.78-12.62-26.8-26.29-39.93-39.76c-9.69-9.94-19.05-20.29-28.44-30.57
			c-2.54-2.78-4.83-5.89-6.98-9.06c-16.9-24.88-32.87-50.62-51.82-73.63c-7.01-8.52-15.22-15.89-23.36-23.13
			c-11.35-10.09-20.14-22.55-28.03-35.94c-1.15-1.95-1.72-4.34-3-7.71C921.8,1100.33,928.37,1102.38,934.82,1104.79z
			 M783.38,1067.54c12.21-0.32,18.24,2.3,39.08,4.68c4.39,0.5,8.78,0.98,13.18,1.42c16.25,1.63,31.18,8.39,46.74,12.71
			c4.82,1.34,9.43,3.51,14.25,4.84c6.56,1.81,11.54,5.8,14.88,12.19c9.3,17.76,22.21,31.74,36.19,44.85
			c15.62,14.65,29.24,31.54,41.13,50.12c4.93,7.71,10.11,15.23,15.17,22.83c-0.35,0.47-0.7,0.94-1.05,1.41
			c-5.06-4.07-9.96-8.39-15.2-12.16c-12.1-8.69-31.53-24.11-61.92-43.96c-27.45-17.93-83.76-53.08-158.64-96.99
			C774.06,1068.02,779.64,1067.64,783.38,1067.54z M813.56,1166.61c-7.41-13.99-16.18-27.04-23.99-40.77
			c-7.21-12.67-14-25.66-20.86-38.59c-1.34-2.52-2.15-5.41-3.82-9.74c71.41,40.01,104.31,62.72,120.63,76.39
			c3.57,2.99,31.3,26.45,56.08,42.71c3.32,2.18,6.72,4.21,9.87,6.66c11.27,8.73,22.45,17.6,33.62,26.47
			c0.79,0.63,1.29,1.7,2.13,2.85c-1.16,0.27-1.86,0.69-2.15,0.46c-14.58-11.34-31.98-13.02-48.89-16.01
			c-9.52-1.68-19.16-2.54-28.93-2.86c-10.1-0.33-20.14-4.01-29.96-7.13c-10.36-3.29-20.6-7.17-30.57-11.64
			C833.28,1189.38,821.32,1181.25,813.56,1166.61z M889.73,1336.25c-11.09-18.06-19.85-37.56-27.62-57.64
			c-8.86-22.87-17.29-45.96-26.11-68.85c-2.24-5.82-5.28-11.24-8.58-18.16c17.16,6.54,32.99,12.65,48.87,18.61
			c13.12,4.92,26.45,7.64,40.65,7.69c12.12,0.05,24.38,2.72,36.14,5.99c25,6.96,47.55,19.3,66.64,38.87
			c18.83,19.31,37.84,38.43,57.39,56.84c13.01,12.25,26.95,23.31,40.74,34.5c15.13,12.28,30.57,24.08,45.86,36.13
			c1.25,0.99,2.3,2.28,4.58,4.58c-8.04-1.02-14.57-1.48-20.95-2.74c-12.62-2.49-25.32-3.06-38.16-1.96
			c-1.67,0.14-3.36,0.79-4.99,0.64c-21.72-2.06-41.74-1.08-65.73-4.76c-4.43-0.68-9.84-1.48-16.09-2.33
			c-22.44-7.41-40.34-13.6-52.64-17.94c-2.33-0.82-47.09-16.71-58.14-18.46c-3.56-0.56-7-1.94-10.55-2.61
			C896.06,1343.74,892.55,1340.83,889.73,1336.25z M1084.85,1512.49c-10.02-6.42-20.04-12.89-29.73-19.89
			c-10.15-7.33-20.51-14.54-29.73-23.19c-20.68-19.41-42.96-36.3-65.22-53.3c-20.98-16.03-40.26-34.23-55.41-57.32
			c-1.14-1.73-2.28-3.47-3.32-5.28c-0.25-0.43-0.09-1.15-0.15-2.46c11.51-0.29,22.55,2.05,33.23,5.94
			c16.27,5.92,32.38,12.35,48.53,18.65c5.26,2.05,10.59,3.75,16,5.11c-0.03,0-0.06-0.01-0.1-0.01
			c35.57,9.98,64.73,12.36,85.17,12.62c23.52,0.29,31.81-1.12,52.59,0.92c23.96,2.35,46.56,9.49,66.97,24.56
			c24.77,18.29,50.63,34.77,75.9,52.26c13.34,9.23,26.41,18.92,39.57,28.45c0.65,0.47,1.07,1.33,2.65,3.36
			c-7.01-0.12-12.91,0.17-18.73-0.4c-9.67-0.94-19.17,0.71-27.82,5.23c-9.85,5.15-19.88,8.24-30.44,10.34
			c-15.12,3.01-30.07,7.23-45.12,10.74c-11.52,2.69-23.03,6.07-34.66,7.28c-9.05,0.94-18.25-1.47-27.42-1.52
			C1117.36,1534.48,1101.29,1523.01,1084.85,1512.49z M1137.67,1539.71c3.59-0.31,6.01-0.98,8.27-0.64
			c13.48,2.02,26.7-0.75,39.91-3.73c22.51-5.09,45.04-10.04,67.48-15.57c7.32-1.8,14.29-5.55,21.56-7.8c7.25-2.25,14.75-5.4,22-5.2
			c13.25,0.37,26.9-0.45,39.41,5.75c3,1.49,6.05,2.91,8.93,4.66c6.29,3.83,12.7,7.47,18.66,11.87c15.59,11.5,31.37,22.74,46.3,35.23
			c18.24,15.26,35.45,32.02,53.58,47.46c3.07,2.62,6.32,4.98,9.64,7.24c1.42-2.23,73.77,53.26,84.91,59.61c0,0,5.99,3.95,12.02,9.28
			c1.94,1.72,3.21,4.38,4.78,6.62c-0.39,0.49-0.77,0.98-1.16,1.47c-29.87-21.92-59.75-43.85-89.62-65.77
			c-10.72-5.09-21.4-10.23-32.34-14.57c-20.28-8.04-40.72-15.85-61.58-21.87c-14.38-4.15-29.5-5.72-44.41-7.34
			c-34.29-3.73-68.72-5.84-102.72-12.34c-29.04-5.55-57.3-13.51-84.95-24.3C1151.63,1547.16,1144.51,1545.62,1137.67,1539.71z
			 M1648.41,2204.98c3.88,7.94,8.85,9.35,11.28,18.57c1,3.81,0.92,7.2,0.74,9.33c-6.21-10-11.38-18.57-16.78-26.93
			c-4.01-6.2-8.03-12.46-12.58-18.15c-23-28.77-37.94-62.22-45.67-100.02c-1.78-8.72-4.66-17.15-6.25-25.91
			c-3.08-16.95-5.66-34.03-8.35-51.08c-1.63-10.34-2.91-20.76-4.63-31.07c-1.06-6.37-2.75-12.58-3.99-18.91
			c-4.13-21.12-7.4-42.53-12.47-63.33c-5.73-23.49-14-46.16-19.36-69.75c-4.18-18.4-13.38-33.65-20.22-50.37
			c-0.68-1.66-1.58-3.27-2.64-4.66c-15.88-20.84-25.66-45.69-35.56-70.39c-3.59-8.95-6.32-18.47-8.46-28.04
			c-3.78-16.89-9.33-32.77-17.68-47.35c-0.73-1.28-1.24-2.73-1.8-4.13c-0.09-0.22,0.08-0.58,0.25-1.6c0.87,0.17,2.44,0.48,4.39,0.93
			c0,0,30.83,7.11,74.85,40.62c0.11,0.08,3.43,2.61,3.43,2.61c3.06,2.36,5.52,4.34,7.77,6.15c17.17,13.79,25.92,20.82,32.98,29.67
			c8.44,10.58,14.11,19.82,16.65,34.1c4.92,27.6,10.46,55.03,15.77,82.53c2.86,14.8,5.81,29.58,8.65,44.39
			c2.61,13.6,5.22,27.21,7.67,40.85c0.92,5.13,1.85,10.33,2.05,15.55c0.79,20.84,3.03,41.38,8.38,61.26
			c2.56,9.51,3.89,19.13,4.67,29.11c1.81,23.45,4.67,46.77,6.97,70.16c4.66,47.35,4.64,54.01,5.54,60.28
			c0.11,0.78,0.23,1.46,0.41,2.52c1.53,9.19,2.64,13.97,3.05,16.38c1.2,7.09-1.12,8.53-1.86,19.56
			C1644.94,2187.61,1644.34,2196.64,1648.41,2204.98z M1407.99,1766.16c-3.57-25.09-9.66-49.2-19.45-72.36
			c-6.85-16.21-9.95-34.53-14.29-52.06c-1.83-7.4-2.95-15.12-3.66-22.8c-0.62-6.67-0.21-13.49-0.26-22.34
			c8.31,1.84,14.85,2.91,21.18,4.78c10.42,3.08,20.65,6.86,31.05,10.02c7.92,2.41,11.62,9.52,16.07,16.18
			c11.45,17.14,16.34,37.43,21.58,57.55c6.79,26.04,18.37,49.41,30.26,72.66c4.57,8.93,4.86,19.37,6.41,29.32
			c0.52,3.32,0.54,6.96,1.8,9.88c6.07,14.03,6.48,29.24,6.94,44.47c0.35,11.8,1,23.59,0.99,35.39c-0.01,10.24-0.74,20.49-1.16,30.74
			c-0.15,3.72-0.68,7.48-0.44,11.16c1.01,15.79,1.42,31.72,3.62,47.28c2.5,17.74,7.66,34.74,13.92,51.25
			c4.72,12.43,9.1,25.02,12.69,38.49c-0.74-0.55-1.66-0.93-2.2-1.67c-15.65-21.36-31.86-42.25-46.72-64.3
			c-13.71-20.35-26.91-41.29-38.54-63.2c-10.21-19.23-18.07-40.08-26.61-60.42c-1.69-4.03-1.92-8.94-2.49-13.51
			C1415.1,1823.85,1412.08,1794.9,1407.99,1766.16z M1413.13,1842.59c-1.91-2.77-2.94-3.82-3.49-5.14
			c-7.03-16.7-13.73-33.58-21.03-50.12c-7.41-16.76-15.41-33.18-23.12-49.77c-3.92-8.45-7.31-17.26-11.74-25.35
			c-6.72-12.29-14.1-24.11-21.26-36.09c-9.3-15.57-18.57-31.17-28.03-46.62c-7.74-12.65-15.75-25.1-23.61-37.66
			c-0.58-0.92-0.91-2.04-2.2-4.96c29.48,4.05,57.71,3.69,85.39,9.32c0.42,1.72,0.9,2.83,0.94,3.98
			c1.3,37.87,11.48,72.86,24.86,106.91c3.42,8.69,6.32,17.83,8.15,27.12c3.19,16.27,5.57,32.77,7.89,49.26
			c2.5,17.73,4.56,35.55,6.8,53.34C1412.83,1837.99,1412.87,1839.18,1413.13,1842.59z M1516.44,1983.89
			c-5.47-22.84-7.02-46.34-7.32-70c-0.07-5.53,1.65-11.15,1.61-16.68c-0.1-16.13-0.69-32.24-1.06-48.37
			c-0.15-6.52-0.19-13.04-0.35-19.56c-0.21-9.05-1.36-17.77-4.07-26.39c-2.69-8.56-4.01-17.69-6.14-27.52
			c4.37,1.2,5.29,4.58,6.8,7.24c10.7,18.9,16.91,40,22.7,61.3c3.13,11.52,6.47,22.96,9.35,34.56c4.73,19.01,9.91,37.93,13.56,57.24
			c6.18,32.66,12.24,65.41,16.58,98.47c3.07,23.42,9.34,45.73,13.85,68.62c1.04,5.31,2.86,10.4,4.32,15.6
			c-0.61,0.35-1.23,0.69-1.84,1.04c-8.1-10.28-17.79-18.98-23.89-31.27c-0.92-1.86-2.08-3.64-3.39-5.18
			c-8.64-10.18-13.74-22.85-18.91-35.33C1529.68,2027.03,1521.74,2006.04,1516.44,1983.89z M1138.17,1550.81
			c15.02,2.58,27.58,9.88,41.18,13.35c14.02,3.58,27.78,8.27,41.81,11.78c13.69,3.42,27.58,5.95,40.2,8.62
			c2.18,5.07,3.39,9.12,5.45,12.5c15.03,24.58,30.48,48.83,45.26,73.59c7.15,11.98,13.16,24.82,19.66,37.3
			c7.18,13.78,14.64,27.39,21.38,41.44c6.62,13.8,12.72,27.95,18.65,42.17c7.67,18.4,14.99,37,22.37,55.57
			c1.88,4.73,3.4,9.65,5.75,16.39c-5.6-2.64-8.52-6.05-11.12-9.59c-8.89-12.08-17.75-24.19-26.28-36.58
			c-12.15-17.63-26.11-32.66-43.29-44.49c-19.87-13.69-38.77-29.1-57.76-44.27c-7.11-5.68-13.24-12.86-19.91-19.23
			c-1.41-1.35-3.25-2.15-4.9-3.2c-1.86-2.36-4.54-5.7-7.9-9.62c-0.45-0.53-1.46-1.73-2.86-3.29c-7.39-8.2-14.89-16.29-22.47-24.28
			c-4.98-5.25-10.23-10.19-15.24-15.39c-7.4-7.69-14.96-15.21-21.97-23.32c-6.5-7.52-11.88-16.04-14.95-26.21
			c-0.95-3.15-2.37-6.28-4.19-8.86c-4.42-6.26-6.64-13.32-7.13-21.28C1139.45,1566.61,1138.82,1559.34,1138.17,1550.81z
			 M1250.63,1845.02c-8.86-16.62-16.68-33.95-25.41-50.66c-7.2-13.79-14.38-27.72-22.83-40.53c-11.16-16.91-19.85-35.31-28.82-53.69
			c-14.67-30.09-21.53-63.22-29.92-95.81c-0.27-1.06-0.2-2.23,0.36-3.63c4.06,11.35,9.87,21.35,17.28,29.88
			c7.83,9.02,16.58,17.03,24.73,25.71c10.49,11.17,7.56,8.86,26.56,28.82c12.04,12.65,21.77,22.13,28.37,28.54
			c9.84,9.56,16.09,16.31,23.9,22.58c16.29,13.08,32.91,25.69,49.74,37.92c13.92,10.11,27.22,20.78,37.39,35.73
			c8.15,11.99,16.38,23.94,25.12,35.38c6.57,8.61,13.57,16.94,21.19,24.38c7.44,7.26,12.93,15.94,17.37,25.49
			c12.83,27.58,25.97,54.93,42.1,80.26c15.14,23.77,30.28,47.54,45.65,71.12c4.81,7.38,10.38,14.14,16.38,22.23
			c-1.9-0.46-2.74-0.39-3.23-0.82c-14.68-12.93-29.3-25.93-43.97-38.86c-15.59-13.73-32.34-25.43-50.29-35.12
			c-16.61-8.96-33.26-17.91-49.36-27.89c-8.34-5.17-15.55-12.55-23.24-18.98c-10.11-8.46-20.45-16.62-30.19-25.58
			c-10.99-10.11-21.35-21.06-32.12-31.46c-3.3-3.18-7.06-5.77-10.63-8.61C1264.99,1872.07,1257.79,1858.45,1250.63,1845.02z
			 M1581.63,2150.03c-23.42-16.69-47.87-31.23-73.63-43.18c-9.39-4.36-18.1-10.43-27.39-15.05c-18.98-9.45-36.3-22.07-53.24-35.02
			c-19.44-14.85-38.55-30.27-55.52-48.91c-19.4-21.3-38.01-43.4-56.17-65.96c-12.75-15.83-24.35-32.81-36.47-49.28
			c0.49-0.53,0.99-1.07,1.48-1.6c9.68,8.91,19.38,17.8,29.05,26.73c6.33,5.85,12.45,12.01,18.97,17.6
			c9.79,8.41,19.62,16.8,29.86,24.52c7.94,5.99,16.27,11.49,24.88,16.22c24.2,13.31,48.47,26.51,71.01,43.04
			c10.08,7.39,19.31,16.21,28.79,24.57c12.71,11.21,25.27,22.62,37.92,33.9c9.42,8.4,18.43,17.02,26.09,27.76
			c9.02,12.64,19.99,23.53,30.09,35.2c2.62,3.03,5.14,6.15,6.85,10.57C1583.33,2150.77,1582.38,2150.56,1581.63,2150.03z
			 M1580.16,2133.66c-3.89-4.66-21.44-25.83-44.65-55.6c-4.99-6.4-10.45-13.59-16.92-22.39c-17.61-23.93-34.51-48.56-50.7-73.72
			c-16.52-25.68-31.03-52.9-43.73-81.32c-4.17-9.35-9.69-17.92-13.74-27.33c-5.84-13.57-10.64-27.71-16.33-41.37
			c-11.17-26.78-21.83-53.9-34.23-79.93c-14.09-29.57-29.83-58.1-44.91-87.06c-1.24-2.39-2.82-4.54-4.24-6.81
			c-11.65-18.6-23.36-37.16-34.89-55.85c-2.11-3.42-3.52-7.38-5.25-11.1c0.59-0.45,1.19-0.9,1.78-1.35
			c3.09,4.68,6.25,9.3,9.25,14.04c3.47,5.48,6.8,11.06,10.18,16.61c10.64,17.49,21.29,34.98,31.91,52.49
			c7.7,12.7,15.59,25.26,22.92,38.22c6.16,10.87,12.2,21.91,17.31,33.44c14.41,32.46,28.53,65.1,42.31,97.93
			c2.15,5.12,4.31,16.63,10.26,31.09c3.68,8.96,4.77,9.96,12.82,26.41c12.48,25.49,13.4,30.56,22.36,46.27
			c4.11,7.21,8.45,14.26,13.02,21.15c10.3,15.53,19.86,31.72,30.63,46.83c13.34,18.72,27.52,36.68,41.44,54.87
			c16.8,21.94,32.61,42.27,42.54,55.08c16.4,21.14,14.31,18.36,16.43,21.16c41.75,55.1,40.19,63.8,53.69,79.5
			c1.71,1.99,6.55,7.44,8.99,16.3c1.43,5.17,1.56,9.79,1.46,12.86C1620.26,2186.24,1595.63,2152.24,1580.16,2133.66z
			 M1694.39,2452.97c5.47,19.49,9.72,39.33,11.3,59.82c2,25.91,3.74,51.85,5.46,77.8c0.64,9.56,0.99,19.16,1.33,28.75
			c0.27,7.72-0.51,8.6-9.75,11.17c-0.27-7.8-0.54-15.4-0.8-22.92c-0.52-14.79-0.77-22.19-0.78-22.36
			c-0.64-11.85-2.01-23.81-4.75-47.72c-0.91-7.96-1.21-11.22-1.52-16.63c-0.44-7.6-3.31-15.18,0.26-22.9c0.46-1,0.39-2.49,0.16-3.65
			c-2.83-14.3-5.95-30.34-6.5-31.64c-9.37-22.47-10.8-65.18-11.64-90.25c-0.35-10.57-0.71-22.01-2.4-39.82
			c-1.16-12.23-2.98-19.97-4.13-26.49c-8.13-46.07-0.44-56.6-8.79-98.57c-2.82-14.18-4.96-19.11-7.96-37.77
			c-2.05-12.74-3.15-25.7-4.48-38.59c-2.92-28.31-5.97-56.6-8.49-84.97c-1.31-14.75-1.36-29.67-2.45-44.45
			c-0.41-5.5-1.6-11.09-3.38-16.2c-7.31-20.99-9.12-43.13-10.67-65.47c-0.88-12.61-3.18-25.09-5.37-37.49
			c-3.63-20.58-7.62-41.07-11.58-61.56c-2.33-12.08-4.93-24.08-7.33-36.14c-3.36-16.85-6.52-33.77-10.03-50.58
			c-2.01-9.62-4.44-19.13-6.87-28.62c-7.28-28.42-15-56.7-19.49-86c-0.79-5.18-2.36-10.18-3.35-15.31
			c-2.5-12.96-5.05-25.92-7.25-38.95c-2.45-14.54-4.32-29.22-6.88-43.74c-1.39-7.87-3.68-15.51-5.61-23.24
			c-0.84-3.37-0.92-6.01-1-6.67c-1.1-8.27-5.12-27.84-16.4-73.39v0c-0.4-1.35-0.78-2.7-1.17-4.06c-1.85-6.5-3.8-12.7-7.67-18.2
			c-3.19-4.52-5.24-10.07-7.73-15.21c-6.8-14.05-13.18-28.39-20.45-42.13c-8.67-16.39-18.05-32.3-27.17-48.39
			c-12.73-22.44-28.67-41.93-44.93-61.11c-12.94-15.25-23.17-32.67-32.4-50.93c-9.2-18.21-18.61-36.28-27.89-54.44
			c-1.05-2.06-1.86-4.28-2.78-6.43c0.44-0.28,0.88-0.56,1.32-0.83c5.05,6.41,10.49,12.48,15.06,19.29
			c10.17,15.16,23.17,27.03,35.77,39.36c14.47,14.16,29.66,27.45,43.63,42.19c10.55,11.12,19.89,23.71,29.37,36.04
			c6.44,8.38,12.21,17.4,18.22,26.2c1.5,2.19,3.01,4.46,4.04,6.96c5.47,13.3,12.35,25.92,15.81,40.19
			c1.94,7.99,3.51,16.26,4.06,24.54c1.24,18.6,2.64,37.14,6.73,55.18c1.54,6.81,1.75,4.96,5.46,17.2c0,0,12.8,42.13,17.43,81.98
			c0.2,1.69,0.94,8.19,2.37,16.96c0.51,3.13,1.13,6.61,1.9,10.51c3.6,18.18,7.69,30.23,11.31,47.43
			c2.79,13.25,2.99,12.87,20.79,83.22c5.92,23.38,10.73,42.55,13.92,55.26c2.81,11.21,4.24,19.14,9.3,43.85
			c10.54,51.42,15.81,77.13,16.66,82.83c4,26.91,6.57,56.77,8.47,75.93c2.06,20.75,2.95,29.59,5.1,46.07
			c1.6,12.24,4.16,24.29,6.04,36.49c2.81,18.27,5.49,36.58,8.02,54.91c2.54,18.35,4.48,36.82,7.33,55.09
			c3.6,23.06,8.1,45.92,11.75,68.98c1.64,10.38,2.55,20.14,4.75,39.57c3.1,27.47,4.66,41.2,5.97,60.25
			c0.92,13.28,3.96,14.37,2.19,36.89c-0.86,10.98,1.46,22.18,2.41,33.27c1.32,15.39,2.82,30.76,3.98,46.16
			c1.09,14.5-1.24,29.33,2.06,43.64C1693.04,2446.36,1693.49,2449.75,1694.39,2452.97z M1725.18,2313.89
			c-2.83,6.79-7.07,12.9-9.74,19.74c-6.6,16.92-12.66,34.08-19.06,51.47c-1.9-2.51-0.64-5.38,0.3-8.08
			c3.36-9.66,7.02-19.2,10.21-28.92c4.81-14.7,9.47-29.47,13.93-44.3c7.16-23.81,8.07-48.13,8.19-72.9
			c0.12-24.16-1.25-48.56,3.08-72.66c2.42-13.47,6.05-26.72,8.4-40.2c2.41-13.8,3.83-27.78,5.84-41.66
			c2.67-18.48,5.25-36.98,8.39-55.38c0.85-5.01,2.89-10.17,5.52-14.41c7.54-12.17,15.54-24.01,23.6-35.78
			c5.77-8.43,12.53-15.82,19.87-22.48c0.59,0.42,1.17,0.85,1.76,1.27c-1.67,6.58-3.04,13.28-5.08,19.72
			c-5.17,16.27-5.93,33.01-6.28,49.86c-0.43,20.83-0.41,41.68-1.59,62.49c-1.37,24.22-5.18,48.43-5.33,72.59
			c-0.09,14.77-7.35,25.01-12.22,36.97c-6.87,16.87-13.84,33.69-20.75,50.54c-3.63,8.85-7.29,17.69-10.84,26.58
			C1737.29,2283.53,1731.47,2298.83,1725.18,2313.89z M1757.11,2261.73c-4.8,11.28-9.31,22.7-17.18,31.69
			c10.84-26.87,21.81-53.68,32.49-80.63c7.91-19.95,18.32-38.28,29.15-56.38c17.61-29.42,32.45-60.5,45.41-92.63
			c11.02-27.33,18.42-55.91,24.21-85c2.06-10.33,4.49-20.64,7.44-30.72c0.55-1.86,1.32-4.63,2.52-8.72
			c6.79-23.12,9.1-27.46,11.42-35.03c0.8-2.61,1.28-4.56,1.64-5.94c2.83-10.82,5.79-22.17,9.29-33.49
			c0.79-2.55,1.99-6.34,3.55-10.95c2.03-3.74,2.79-4.4,3.1-4.26c1.38,0.62-4.34,18.31-16.24,58.52
			c-5.92,19.99-6.95,23.53-7.65,26.74c-3.12,14.27-4.98,28.86-8.32,43.07c-7.1,30.24-13.92,60.62-26.83,88.88
			c-8.31,18.18-16.32,36.52-24.58,54.73c-1.78,3.91-4.04,7.56-6.08,11.33c-12.82,23.68-26.24,47.01-38.27,71.17
			C1772.92,2222.78,1765.32,2242.44,1757.11,2261.73z M1978.5,1997.94c-8.16,18.05-18.38,34.61-29.07,50.98
			c-16.76,25.66-37.4,47.28-57.03,69.93c-13.55,15.63-28.02,30.22-43.22,43.98c-13.59,12.31-26.23,25.99-38.84,39.59
			c-4.62,4.98-7.82,11.54-11.89,17.2c-9.72,13.53-19.54,26.97-29.37,40.4c-0.86,1.18-2.05,2.05-3.09,3.07
			c-0.62-0.36-1.23-0.71-1.85-1.07c5.57-13.3,10.62-26.89,16.84-39.81c7.72-16.05,15.96-31.87,24.86-47.16
			c4.38-7.51,10.47-13.95,16.33-20.24c7.73-8.3,15.98-16,24.03-23.94c2.75-2.72,5.39-5.65,8.38-7.98
			c11.66-9.07,21.78-20.01,31.34-31.67c14.88-18.13,29.42-36.62,44.68-54.34c10.95-12.71,22.65-24.63,34.42-36.41
			c3.86-3.87,8.98-6.16,15.21-10.3C1979.37,1994.24,1979.26,1996.26,1978.5,1997.94z M2060.8,1780.02
			c-8.48,28.22-15.76,56.92-27.97,83.67c-3.69,8.1-8.43,15.62-12.29,23.64c-11.65,24.2-18.88,50.36-28.21,75.6
			c-1.5,4.06-2.72,8.38-4.89,11.99c-2.29,3.8-5.04,7.96-8.48,10.07c-11.83,7.24-21.64,17.15-30.93,27.77
			c-14.6,16.7-28.98,33.66-43.36,50.6c-8.54,10.06-16.63,20.62-25.46,30.34c-8.42,9.27-17.55,17.73-26.35,26.57
			c-5.88,5.9-11.65,11.93-17.62,17.71c-5.46,5.28-11.12,10.3-17.83,14.28c4.17-8.02,8.4-16,12.5-24.06
			c14.61-28.77,27.81-58.3,38.24-89.17c3.55-10.52,5.94-21.52,8.41-32.42c2.81-12.4,4.88-24.99,7.73-37.38
			c3.2-13.93,9.36-23.14,13.28-30.21c3.21-5.79,19.12-33.73,57.29-67.49c23.78-21.03,32.54-28.29,54.83-49.2
			c5.9-5.53,10.18-13.25,15.2-19.97c-0.09,0.08-0.19,0.17-0.28,0.25c5.23-5.59,10.37-11.3,15.71-16.75
			c6.8-6.94,13.77-13.67,21.6-21.41C2063.32,1770.76,2062.14,1775.56,2060.8,1780.02z M2089.07,1650.22
			c-1.22,5.07-1.38,10.47-1.73,15.73c-0.74,11.23-2.98,21.81-6.82,32.58c-5.79,16.24-9.48,33.38-13.66,50.24
			c-1.01,4.09-2.14,7.54-5.06,10.46c-10.95,10.95-18.36,20.44-22.97,23.8c-13.99,10.19-12.4,15.98-31.68,37.87
			c-22.05,25.04-26.34,19.97-59.61,53.05c-14.98,14.9-25.44,27.19-30.62,33.44c-10.25,12.38-18.43,23.58-24.54,32.41
			c-0.48-0.17-0.96-0.33-1.44-0.5c0.36-1.89,0.66-3.79,0.99-5.68c0.51-2.89,1.08-5,1.22-5.61c2.07-8.6,5.09-23.84,9.26-39.96
			c5.97-23.06,9.13-34.86,17.58-47.81c2.11-3.24,3.18-6.38,7.51-10.05c15.03-12.74,25.93-29.76,38.65-44.91
			c17.13-20.4,29.9-44.24,44.97-66.25c9.75-14.24,20.91-27.28,31.23-41.06c11.4-15.23,22.57-30.68,33.82-46.06
			c2.84-3.88,5.6-7.82,8.88-12.4C2089.44,1629.84,2091.68,1639.4,2089.07,1650.22z M2137.98,1476.46
			c-8.98,20.03-15.19,41.17-22.02,62.1c-5.86,17.95-11.97,36.09-20.36,52.71c-7.82,15.49-18.76,29.08-28.37,43.47
			c-0.66,1-1.52,1.92-2.44,2.61c-19.26,14.3-37.43,30.3-57.71,43.02c-27.23,17.09-56.58,27.77-85.36,40.16
			c-15,6.46-29.28,14.37-43.76,22.89c19.77-28.34,39.77-56.48,59.2-85.09c9.03-13.31,16.74-27.7,25.47-41.28
			c4.06-6.32,9.23-11.75,13.67-17.79c3.03-4.13,6.01-8.39,8.45-12.96c13.72-25.64,35-41.18,57.31-55.93
			c14.48-9.58,30.64-14.12,45.34-22.79c16.56-9.77,31.61-21.83,45.45-35.92c2.2-2.24,4.59-4.24,6.89-6.35
			c0.59,0.45,1.19,0.89,1.78,1.34C2140.35,1469.92,2139.39,1473.31,2137.98,1476.46z M2194.6,1329.65
			c-5.52,15.44-12.08,30.52-16.74,46.24c-6.84,23.09-18.44,43.8-26.41,66.26c-2.8,7.88-7.48,13.77-13.35,19.08
			c-9.41,8.52-18.06,18.1-27.57,26.46c-13.65,11.99-29.29,19.76-45.35,26.86c-11.41,5.04-22.2,12.08-33.03,18.73
			c-6.34,3.9-12.21,8.79-18.29,13.23c-0.39-0.48-0.77-0.95-1.16-1.43c5.28-7.73,10.61-15.43,15.84-23.21
			c11.68-17.37,23.59-34.56,34.87-52.25c11.27-17.67,21.88-35.86,32.77-53.83c8.06-13.3,16.11-26.61,24.15-39.93
			c5.92-9.8,13.12-18.13,22.24-24.26c10.14-6.82,20.43-13.36,30.36-20.54c9.15-6.61,17.92-13.9,28.05-21.84
			C2198.7,1316.62,2196.9,1323.23,2194.6,1329.65z M2225.87,1229.37c-4.29,14.58-8.33,29.24-12.44,43.87
			c-0.67,2.39-1.27,4.81-1.76,7.25c-2.05,10.11-7.6,17.42-13.9,25.03c-12.07,14.57-27.79,22.43-42.16,32.81
			c-5.63,4.07-11.14,8.34-17.78,11.66c0.75-1.7,1.33-3.51,2.26-5.07c11.35-19.13,23.91-37.28,36.1-55.75
			c12.86-19.49,24.06-40.32,36.34-60.3c6.64-10.8,14.02-21.04,21.07-31.53c0.65,0.43,1.3,0.87,1.95,1.3
			C2232.31,1208.88,2228.91,1219.06,2225.87,1229.37z"/>
	</g>
</g>
</svg>
