<?xml version="1.0" encoding="utf-8"?>
<!-- Generator: Adobe Illustrator 24.0.1, SVG Export Plug-In . SVG Version: 6.00 Build 0)  -->
<svg version="1.1" id="Слой_1" xmlns="http://www.w3.org/2000/svg" xmlns:xlink="http://www.w3.org/1999/xlink" x="0px" y="0px"
	 viewBox="0 0 3000 3000" style="enable-background:new 0 0 3000 3000;" xml:space="preserve">
<style type="text/css">
	.st0{fill:none;}
	.st1{fill:#45482A;}
</style>
<rect class="st0" width="3000" height="3000"/>
<g>
	<g>
		<path class="st1" d="M1994.41,814.91c-10.05-7.34-21.52-10.16-33.74-10.18c-3.75-0.01-7.49,0.91-11.76,1.47
			c0.29-1.92,0.34-3.08,0.64-4.17c2.77-10.37,5.66-20.71,8.34-31.11c1.84-7.14-0.08-13.23-6.61-16.94
			c-3.59-2.04-7.82-2.98-12.39-4.65c0.03-0.61-0.11-2.09,0.18-3.47c3.79-18.1,8.04-36.12,11.3-54.31c1.46-8.15,1.14-16.65,1.29-25
			c0.09-5.17-3.56-7.79-7.76-10c-4.35-2.29-7.45-0.15-10.52,2.37c-2.87,2.36-5.63,4.85-8.74,7.55c-0.82-1.62-1.51-2.36-1.53-3.13
			c-0.31-12.76-2.34-22.44-0.67-33.96c2.61-17.95-0.61-15.21,1.87-27.86c4.19-21.34,13.55-27.56,19.09-52.94
			c0.89-4.08,1.92-8.13,2.63-12.24c1.42-8.18,3.22-16.35,3.83-24.6c0.57-7.82-7.42-12.4-13.97-8.32c-2.63,1.64-4.74,4.3-6.71,6.79
			c-2.84,3.59-5.34,7.46-9.23,12.97c-0.29-5.4-0.53-8.58-0.62-11.76c-0.29-10.97,1.2-21.95-1.55-32.9
			c-2.24-8.91-4.71-17.13-13.68-21.85c-9.48-5-15.05-3.12-16.89,7.23c-1.72,9.68-2.51,19.54-3.42,29.35
			c-1.1,11.84-1.9,23.7-2.86,35.91c-1.78-0.2-3.22-0.3-4.64-0.53c-9.14-1.45-12.18,0.33-13.57,9.46
			c-0.85,5.53-0.19,11.28-0.55,16.91c-0.37,5.88-0.04,11.52,0.93,16.94c0.61,3.43,3.37,21.13,16.68,35.27
			c9.56,10.16,12.37,5.59,18.16,13.5c13.4,18.32,3.3,49.59,0.96,56.83c-0.68,2.11-1.31,3.81-1.71,4.86
			c-1.94-5.87-3.29-10.11-4.75-14.31c-2.84-8.2-7.44-14.93-15.69-18.62c-7.41-3.31-12.28-1.43-14.36,6.45
			c-1.28,4.84-2.19,10.11-1.67,15.03c1.62,15.42,3.59,30.83,6.2,46.12c2.81,16.47,6.88,32.68,13.82,48c0.84,1.86,1.78,3.84,3.2,5.23
			c5.48,5.39,5.81,8.11,0.99,16.18c-4.78-3.58-9.45-7.22-14.29-10.63c-2.91-2.05-5.9-4.15-9.17-5.47
			c-15.09-6.1-25.14,1.44-23.48,17.51c1.41,13.68,4,27.06,8.22,40.27c4.05,12.67,10.2,23.4,19.13,31.8
			c3.38,3.18,5.4,3.32,16.22,11.15c8.65,6.26,12.34,9.46,15.51,14.5c3.61,5.76,4.38,10.47,4.55,11.61
			c0.73,4.97-0.75,8.58-0.88,11.86c-0.51,13.91,0.26,27.9-3.03,41.62c-0.61,2.55-0.11,5.35-0.38,8.01
			c-0.5,4.99-0.24,10.32-1.97,14.87c-6.72,17.74-10.85,35.99-12.93,54.8c-0.44,3.99-1.71,7.9-2.6,11.84
			c-0.7,0.08-1.39,0.17-2.09,0.25c-1.36-3.48-2.85-6.91-4.04-10.44c-3.57-10.52-7.73-20.65-16.15-28.44
			c-6.29-5.82-13.65-7.62-21.53-4.89c-7.7,2.68-11.82,10.47-11.45,19.54c0.09,2.08,0.23,4.21,0.77,6.21
			c3.25,12.1,6.29,24.27,10.03,36.21c5.22,16.66,13.6,31.22,29.48,40.17c1.29,0.73,2.47,1.7,3.56,2.72
			c7.18,6.7,8.82,20.95,3.14,29.69c-1.76-1.66-3.71-3.06-5.1-4.89c-8.83-11.54-20.32-20.14-31.72-28.79
			c-7.14-5.41-14.79-10.23-24.25-10.44c-10.09-0.23-14.85,4.75-12.23,14.44c1.75,6.45,4.62,13.38,9.07,18.16
			c8.69,9.34,18.6,17.59,28.44,25.79c10.16,8.47,19.75,17.27,26.3,29c1.66,2.97,1.97,6.64,1.97,6.64c1.5,6.51,1.55,12.07,1.34,15.82
			c-8.56,34.2-18.54,67.08-38.73,97.99c-0.77-5.1-1.33-8.51-1.79-11.93c-1.06-7.94-4.71-12.04-12.16-13.53
			c-6-1.2-13.09,1.57-15.81,7.66c-6.26,14.04-11.19,28.2-4.52,43.96c4.76,11.25,8.06,23.11,11.98,34.71
			c0.86,2.54,1.58,5.12,2.37,7.69c-11.98-8.68-24.79-13.33-38.58-14.99c-6.4-0.77-13.15-0.67-19.48,0.47
			c-8.04,1.45-10.58,5.78-10.69,14.07c-0.3,22.42,17.39,41.99,37.21,47.17c7.47,1.95,15.25,2.75,22.89,4.05
			c2.35,0.4,4.73,0.65,7.07,1.11c3.6,0.71,5.1,3.17,4.42,6.57c-1,4.97-2.26,9.89-3.67,14.77c-4.05,14.05-8.2,28.07-12.38,42.08
			c-0.45,1.49-1.39,2.84-1.95,3.95c-4.14-3.36-7.45-6.97-11.52-9.15c-8.07-4.32-15.59-0.29-17.08,8.77
			c-1.36,8.24-2.4,16.54-3.58,24.81c-0.58,4.06-1.15,8.13-1.73,12.22c-9.66,0.03-13.88-10.52-24.12-10.01
			c-2.22,8.36-3.75,16.94-1.41,25.33c3.12,11.17,7.15,22.12,11.42,32.91c3.77,9.53,8.91,12.22,9.82,20.12
			c0.9,7.82-1.75,14.03-2.63,16.15c-11.82,28.53-16.17,59.66-26.4,88.8c0,0-32.45,91.85-43.91,117.96
			c-1.39,3.17-4.39,9.81-8.52,19.68c-5.87,14.04-11.53,28.18-17.55,42.15c-2.63,6.1-5.94,11.9-8.95,17.84
			c-1.16-1.98-0.82-3.29-0.34-4.55c7.98-20.9,16.47-41.65,18.35-64.3c0.12-1.46,0.81-2.87,1.16-4.32c2.6-11.02,5.76-21.95,7.64-33.1
			c3.32-19.65,6.07-39.41,8.61-59.19c0.97-7.61,0.43-15.39,1.04-23.06c1.51-19.02,3.97-38,4.72-57.04
			c0.54-13.53,3.08-26.63,5.96-39.64c4.59-20.78,6.12-41.87,8.3-62.92c1.32-12.72,3.03-25.4,4.34-38.12
			c1.72-16.58,3.4-33.17,4.72-49.78c0.49-6.23-3.35-11.23-8.23-12.34c-4.8-1.09-8.89,1.29-11.88,7.4
			c-10.29,21.02-16.75,43.4-22.97,65.84c-3.82,13.79-6.8,27.83-10.84,41.55c-3.11,10.57-8.21,20.61-10.82,31.28
			c-5.9,24.09-8.79,48.7-11.43,73.37c-3.02,28.24-0.23,56.11,4.18,83.88c4.99,31.35,4.83,62.51-2.34,93.45
			c-4.31,18.6-9.18,37.08-14.21,55.5c-6.69,24.48-13.34,48.98-20.91,73.2c-3.35,10.72-9.01,20.71-13.44,31.1
			c-5.27,12.35-10.33,24.78-15.53,37.15c-0.75,1.78-1.77,3.45-3.36,6.51c-0.8-2.84-1.43-4.18-1.52-5.56
			c-0.92-13.71-1.69-27.43-2.62-41.14c-0.93-13.7-1.54-27.44-3.13-41.06c-1.6-13.7-2.97-27.05,2.58-40.4
			c3.18-7.64,4.44-16.06,6.89-24.03c6.3-20.49,9.46-41.83,17.3-61.91c3.34-8.56,6.14-17.42,8.21-26.37
			c2.4-10.4,3.76-21.04,5.5-31.59c0.19-1.16,0.13-2.41-0.06-3.57c-1.1-6.8-7.89-9.49-13.23-5.12c-2.53,2.07-5.04,4.35-6.91,6.99
			c-7.06,9.99-13.82,20.18-20.76,30.25c-1.07,1.56-2.47,2.9-3.72,4.33c-0.63-0.14-1.26-0.28-1.89-0.42
			c-1.26-19.88-2.62-39.76-3.73-59.64c-0.7-12.51-0.44-25.09-1.61-37.54c-2.33-24.7-3.52-49.39-1.08-74.1
			c0.78-7.93,2.12-16.15,5.13-23.44c8.65-20.94,17.78-41.72,27.72-62.07c6.62-13.55,9.98-28.05,14.65-42.16
			c1.65-4.99,1.65-10.61,1.9-15.97c0.55-11.95-10.1-18.89-20.97-13.91c-1.77,0.81-3.69,1.28-4.58,1.59c-3-4.61-4.73-9.68-8.27-12.04
			c-3.69-2.46-9.12-2.3-14.52-3.43c1.72-10.35,2.1-21.7,5.72-31.91c3.83-10.78,10.38-20.71,16.44-30.57
			c5.77-9.37,12.89-17.94,14.78-29.26c1.57-9.41,3.36-18.78,4.84-28.2c0.36-2.32,0.28-4.83-0.22-7.12
			c-0.94-4.33-1.87-8.58-5.69-11.81c-4.09-3.46-7.78-0.06-12.27,0.28c0.68-4.72,1.76-8.82,1.75-12.91
			c-0.01-6.3,3.34-9.24,8.41-12.35c17.76-10.92,35.21-21.87,45.83-41.44c6.59-12.14,7.91-24.21,7.11-37.07
			c-0.51-8.14-7.32-11.95-14.74-8.9c-8.39,3.45-15.89,8.26-21.76,15.33c-1.2,1.44-2.51,2.78-4.31,4.75c0-7.38,0.09-13.62-0.02-19.86
			c-0.17-9.56-0.02-19.17-6.38-27.39c-1.1-1.42-0.91-3.98-0.96-6.02c-0.08-3.28,0.51-6.61,0.14-9.85
			c-1.21-10.63,3.62-17.55,12.59-22.52c7.8-4.32,13.61-10.84,17.2-18.93c5.08-11.42,9.29-23.23,14.45-34.61
			c6.3-13.91,11.91-28,15.26-42.93c2.29-10.2,4.74-20.36,6.7-30.62c1.74-9.08-5.78-15.42-15.07-11.21
			c-12.1,5.49-21.56,13.66-29.84,23.65c-1.8,2.17-3.82,4.14-6.87,7.43c-1.84-4.04-3.59-6.46-3.99-9.08
			c-0.58-3.79-0.29-7.74-0.17-11.61c0.27-9.23,1.58-18.55,0.73-27.67c-0.79-8.42,1.51-13.86,8.06-19.24
			c21.49-17.67,38.95-38.44,47.78-65.57c3.46-10.64,3.13-21.12,1.48-31.83c-0.62-4-2.91-6.39-6.82-7.32
			c-1.65-0.39-3.27-0.91-5.1-1.43c-0.55-5.42-0.94-10.47-1.62-15.48c-0.72-5.3-1.84-10.54-2.56-15.84
			c-1.22-8.98-5.37-11.93-14.44-10.1c-0.83,0.17-1.72,0.02-3.07,0.02c-0.14-1.61-0.55-3.07-0.33-4.42
			c3.93-24.16,7.93-48.32,11.98-72.46c0.24-1.43,0.79-2.99,1.69-4.09c6.44-7.84,12.13-16.61,19.77-23.07
			c9.36-7.91,16.49-17.1,22.45-27.51c4.33-7.57,7.99-15.44,9.06-24.18c1.3-10.69-3.48-15.89-14.19-15.26
			c-3.46,0.2-6.94,1.44-10.25,2.64c-2.96,1.07-5.7,2.74-10.11,4.93c1.11-8.47,2.07-15.18,2.86-21.91
			c2.54-21.64,5.51-43.25,7.34-64.95c1.25-14.81,0.94-29.76,1.13-44.65c0.03-2.64-0.24-5.68-1.54-7.82
			c-1.56-2.56-4.09-5.21-6.78-6.15c-1.44-0.5-5,2.03-6.07,4.02c-4.8,8.91-10.54,17.7-13.17,27.29
			c-5.27,19.26-8.95,38.96-12.76,58.59c-1.03,5.3-3,9.31-6.83,13.05c-8.59,8.39-16.36,17.45-19.07,29.7
			c-0.16,0.7-1.08,1.24-2.2,2.44c-3.14-2.41-6.21-4.64-9.15-7.04c-11.23-9.19-22.58-7.78-30.31,4.5c-2.41,3.83-4.1,8.86-4.1,13.34
			c0,22.38,10.92,40.59,24.23,57.29c6.44,8.08,15.04,14.42,22.45,21.77c2.28,2.26,4.15,5.05,5.71,7.87
			c5.29,9.54,3.39,19.71,2.13,29.75c-0.86,6.8-1.99,13.58-3.14,20.34c-0.69,4.04-1.67,8.03-2.58,12.34
			c-9.11-6.41-9.84-6.29-16.9,2.22c-5.82,7.01-11.62,14.04-17.77,21.46c-2.05-0.92-4.49-1.99-6.9-3.11
			c-6.58-3.05-11.03-1.61-13.26,5.2c-1.37,4.17-1.81,8.79-1.88,13.22c-0.1,6.56,0.64,13.13,0.76,19.7c0.06,3.44-0.43,6.9-0.76,11.54
			c-4.99-2.01-8.69-3.84-12.58-4.99c-4.45-1.31-8.82-1.16-12.45,2.55c-3.45,3.52-3.26,7.4-1.73,11.6c1.84,5.05,3.2,10.32,5.47,15.17
			c8.28,17.65,17.08,35.02,35.09,45.09c4.42,2.47,9.07,4.56,13.76,6.49c4.76,1.96,8.31,5.01,9.35,10.06c1,4.89,2.01,9.96,1.78,14.89
			c-0.72,15.51-1.95,31-3.15,46.48c-0.46,5.94-1.24,11.9-5.24,18.2c-1.17-3.23-1.87-5.17-2.58-7.11
			c-3.69-10.06-7.03-20.27-11.24-30.11c-1.94-4.53-5.13-8.77-8.57-12.36c-4.96-5.19-11.75-4.46-14.85,1.87
			c-3.24,6.61-6.29,13.65-4.72,21.49c2.86,14.33,5.76,28.66,8.59,43c0.36,1.85,0.4,3.76,0.66,6.43c-4.01-1.52-6.96-2.99-10.09-3.71
			c-3.16-0.73-6.51-1.11-9.74-0.95c-8.99,0.44-13.49,5.94-10.47,14.3c3.42,9.47,6.88,19.58,12.99,27.29
			c10.58,13.35,20.94,26.69,29.4,41.49c1.61,2.82,4.21,5.07,5.97,7.82c3.36,5.24,7.43,10.35,7.16,17.03
			c-0.45,11.34-0.85,22.69-1.93,33.97c-0.73,7.58-2.6,15.04-4.07,23.2c-5.55-8.81-10.09-16.87-15.48-24.33
			c-4.52-6.25-9.62-12.22-15.2-17.53c-5.29-5.03-12.67-6.2-19.3-4.18c-6.21,1.89-6.19,8.62-7.25,14.28
			c-4.25,22.55,4.41,41.02,17.94,57.9c6.72,8.38,14.19,16.16,21.01,24.47c6.1,7.44,11.69,15.52,11.78,25.53
			c0.08,8.91-0.82,17.88-1.91,26.75c-1.34,10.93-3.28,21.8-5.05,32.67c-0.29,1.81-1.02,3.55-2.15,7.37
			c-3.82-8.03-6.54-14.26-9.69-20.26c-5.4-10.3-10.63-20.74-16.84-30.54c-2.73-4.32-7.24-8.04-11.77-10.56
			c-6.86-3.83-10.24-1.15-10.77,6.73c-0.93,13.72,2.66,26.65,6.47,39.56c3.93,13.31,9.46,25.74,19.43,35.79
			c6.28,6.34,12.32,12.93,18.63,19.23c3.08,3.07,3.64,5.49,4.31,7.9c1.68,6.11-0.48,10.35-2.44,20.45
			c-0.61,3.15-1.42,7.95-1.89,13.99c-1.33-3.85-2.39-7.58-3.9-11.13c-1.85-4.35-5.27-8.49-9.88-7.72c-3.5,0.58-7.4,4.07-9.33,7.33
			c-2.33,3.93-3.56,8.94-3.84,13.57c-0.57,9.51-0.18,19.07-0.18,28.61c0,3.65,0,7.3,0,12.7c-3.82-5.03-6.02-8.6-8.91-11.49
			c-2.24-2.24-5.15-4.09-8.1-5.28c-4.69-1.9-6.6-0.58-7.38,4.46c-0.32,2.05-0.3,4.18-0.18,6.26c0.59,10.14,1.35,20.26,1.89,30.4
			c0.85,16.01,4.81,31.36,11.26,45.87c2.69,6.06,7.4,11.51,12.14,16.3c2.74,2.76,5.11,7.45,6.81,10.51
			c6.82,12.3,5.37,25.99,4.83,31.72c-3.41,36.21-2.29,90.21-2,104.03c0.48,22.72,2.77,43.25,3.55,53.57
			c1.6,21.12,3.55,42.22,5.06,63.35c0.57,7.96,2.3,16-0.39,23.97c-2.48,7.35-5.03,14.68-7.14,22.14
			c-4.38,15.5-9.52,30.89-12.46,46.68c-4.25,22.75-11.4,44.58-19.06,66.22c-7.06,19.96-15.51,39.45-23.75,58.97
			c-3.76,8.91-8.5,17.41-12.8,26.09c-1.65-2.4-1.81-4.38-1.62-6.32c2.4-24.62,5.61-49.18,7.06-73.85c1.13-19.3,0.45-38.74-0.1-58.09
			c-0.3-10.74-0.54-7.8-2.83-41.93c-3.07-45.69-2.52-44.39-3.77-52.88c-2-13.5-3.88-22.51-7.76-46.5
			c-0.86-5.29-1.59-10.61-2.18-15.94c-0.99-8.88-1.05-17.94-2.86-26.64c-4.99-23.93-10.28-47.81-16.2-71.52
			c-5.92-23.73-12.64-47.26-19.24-70.81c-2.16-7.71-5.09-15.2-7.64-22.79c-2.57-7.63-4.95-15.33-7.7-22.89
			c-4.89-13.41-10.24-26.65-14.97-40.11c-7.12-20.26-13.16-40.94-23.49-59.93c-2.13-3.92-1.39-7.01,0.62-10.82
			c5.98-11.35,11.47-22.96,17.01-34.53c0.87-1.83,1.12-3.99,1.48-6.03c4.12-23.56,2.98-47.03-1.97-70.3
			c-0.82-3.83-3.1-7.81-5.81-10.68c-3.64-3.84-5.9-3.33-9.95,0.33c-5.62,5.07-9.97,11.06-12.81,18.1c-1.94,4.79-3.89,9.58-6.6,16.23
			c-3.42-11.44-5.86-20.97-9.11-30.21c-5.21-14.82-12.48-28.36-25.45-38.18c-2.39-1.81-4.8-5.03-5.15-7.84
			c-1.71-14-5.88-27.34-9.59-40.83c-4.42-16.08-8.36-32.3-12.77-48.39c-1.01-3.68-0.54-6.5,2.34-8.78c2.08-1.66,4.32-3.18,6.64-4.48
			c9.33-5.22,17.18-11.92,21.71-21.82c6.72-14.71,12.74-29.74,14.41-45.95c1.61-15.59-0.09-31.08-4.81-46.02
			c-2.88-9.12-8.18-10.99-16.68-6.64c-6.03,3.08-10.3,8.07-12.86,14.35c-1.19,2.93-1.87,6.09-5.71,7.94c-1.01-2.82-2-4.95-2.54-7.19
			c-1.9-7.85-6.39-13.99-12.11-19.49c-0.81-0.78-1.27-1.53-2.16-2.24c-3.33-2.66-8.82-4.11-12.9-1.9c-0.96,0.52-2.02,1.48-3.73,3.81
			c-3,4.07-4.17,9.17-4.66,15.74c-1.73-3.31-2.87-4.75-3.27-6.36c-4.62-18.52-9.23-37.05-13.61-55.63
			c-1.34-5.67,0.66-10.46,5.14-14.39c7-6.13,10.4-14.39,13.04-23.06c2.26-7.42,4.64-14.81,7.17-22.15
			c3.91-11.34,7.59-22.83,6.85-34.94c-0.92-15.17-2.61-30.29-4.21-45.4c-0.24-2.24-1.52-4.53-2.83-6.46
			c-4.31-6.36-6.03-6.6-13.02-2.74c-1.46,0.81-3.14,1.23-5.38,2.08c-1.3-3.28-2.42-5.98-3.44-8.71
			c-4.21-11.18-8.14-22.46-12.67-33.51c-2.64-6.45-7.11-11.53-14.79-13.73c-8.83,11.84-6.85,26.58-11.45,39.45
			c-1.53-2.28-2.53-4.44-2.81-6.7c-0.87-7.08-1.68-14.17-2.11-21.29c-1.17-19.62-2.07-39.26-3.21-58.88
			c-0.31-5.44,2.08-8.79,6.65-11.54c10.67-6.42,18.98-15.18,25.43-25.94c8.3-13.84,15.44-27.81,19.56-43.79
			c4.53-17.56,4.94-34.77,2.72-52.34c-0.51-4.06-2.1-8.15-3.98-11.83c-3.56-6.97-11.24-7.58-15.63-1.2
			c-2.1,3.05-3.11,6.89-4.42,10.44c-1.44,3.91-1.33,8.64-6.02,11.5c-2.4-6.04-4.32-11.6-6.77-16.9c-3.29-7.09-8.12-7.39-12.72-0.97
			c-1.21,1.69-1.93,3.72-3.09,5.45c-1.7,2.54-3.6,4.96-6.35,8.71c-2.18-8.14-3.58-14.55-5.66-20.73c-1.5-4.46-3.38-8.99-6.06-12.81
			c-3.44-4.91-5.99-4.72-10.16-0.52c-1.74,1.76-3.36,3.63-4.86,5.26c-8.06-17.6-15.7-34.29-23.29-50.87
			c5.56-4.61,11.44-8.4,15.91-13.44c10.32-11.63,17.86-17.06,22.16-27.96c4.61-11.69,4.12-22.42,3.97-24.8
			c-0.13-2.19-0.22-1.45-1.03-7.95c-2.19-17.64-1.18-20.26-3.58-26.59c-1.68-4.43-4.34-11.46-9.63-12.54
			c-5.53-1.13-10.9,4.84-15.17,9.58c-4.07,4.52-10.12,12.68-13.72,25.58c-1.48-3.23-1.92-6.16-2.73-8.98
			c-3.54-12.32-7.2-24.6-10.78-36.91c-0.82-2.83-1.85-5.66-2.18-8.56c-0.77-6.81-1.22-13.65-1.71-20.48
			c-0.55-7.63-0.86-15.16,8.3-18.56c1.31-0.49,2.34-1.83,3.41-2.87c15.92-15.41,24.11-34.47,26.28-56.28
			c0.59-5.93,1.05-11.97,0.64-17.89c-0.77-10.96-1.65-21.97-3.66-32.75c-1.28-6.87-2.52-10.3-5.42-11.53
			c-3.47-1.47-8,0.88-10.58,3.09c-7.06,6.06-8.83,19.25-9.33,22.04c-0.72,3.98-2.04,7.16-6.12,9.14c-0.43-1.32-0.91-2.13-0.93-2.94
			c-0.51-22.25-4.58-43.9-11.48-64.99c-1.83-5.6-4.46-11.15-7.79-15.98c-4.35-6.32-10.18-5.5-12.43,1.79
			c-1.54,4.97-1.24,10.53-1.64,15.83c-0.85,11.3-1.53,22.6-2.48,33.89c-0.18,2.16-1.29,4.24-2.12,6.84
			c-11.48-7.95-15.06-23.5-29.29-26.95c-7.27,8.59-7,8.57-6.41,18.17c1.04,17.01,6.73,32.84,13.31,48.13
			c10.72,24.93,22.71,49.32,34.45,73.8c1.43,2.99,4.62,5.16,7.05,7.65c1.59,1.63,4.48,2.98,4.74,4.76
			c1.36,9.39,4.37,18.87,1.48,28.36c-3.8,12.47-4.09,25.28-4.72,38.1c-0.33,6.7-0.7,13.4-1.15,21.96
			c-4.8-6.71-8.72-11.85-12.29-17.23c-8.71-13.1-19.15-24.34-32.73-32.6c-5.33-3.24-9.99-7.57-15.07-11.24
			c-5.32-3.83-10.58-7.8-16.23-11.09c-8.68-5.07-13.57-2.43-14.58,7.47c-0.18,1.72,0.16,3.55,0.56,5.26
			c0.87,3.76,1.89,7.48,2.91,11.2c4.64,17.02,10.01,33.57,19.78,48.69c16.22,25.07,38.67,42.55,64.17,57.04
			c5.24,2.98,10.34,7.54,13.5,12.61c12.74,20.42,20.16,43.17,27.07,66.06c0.36,1.2-0.07,2.64-0.21,5.48
			c-1.96-2.13-2.93-3.12-3.81-4.18c-4.21-5-8.15-10.26-12.65-14.98c-6.48-6.79-9.79-6.08-13.71,2.38c-0.5,1.08-0.97,2.2-1.23,3.35
			c-3.1,13.67-3.96,27.17,2.67,40.26c1.49,2.95,2.14,6.33,3.27,9.81c-1.99,0-2.6,0.08-3.17-0.01c-12.65-2.1-19.72,5.08-17.41,17.86
			c0.85,4.69,1.9,9.35,3.11,13.96c3.86,14.71,12.58,24.52,27.7,28.67c8.66,2.38,14.61,8.78,19.77,16.03
			c4.46,6.28,8.7,13.19,14.61,17.8c4.45,3.47,7.12,6.96,8.08,12.01c0.93,4.96,1.36,10.02,1.91,15.04
			c1.37,12.45,2.01,25.04,4.27,37.33c1.61,8.75-0.13,15.11-7.32,20.02c-12.86-4.28-16.54-19.5-30-24.82
			c-1.74,4.86-3.67,9.15-4.8,13.65c-2.89,11.41-0.45,22.68,2.31,33.64c3.32,13.17,7.77,26.05,11.95,39.79
			c-2.12-1.11-4.19-1.96-5.99-3.19c-4.2-2.86-8.1-6.18-12.43-8.8c-4.26-2.57-9.24-6.82-13.91-3.92c-4.78,2.97-4.34,9.35-3.77,14.75
			c1.33,12.61,4.43,24.61,12.24,34.97c3.58,4.76,7.06,9.6,10.54,14.42c7.94,10.99,17.08,20.77,28.96,27.57
			c7.49,4.29,15.32,7.99,22.69,12.45c4.52,2.73,8.77,6.09,12.6,9.74c4.94,4.71,9.42,9.92,13.89,15.09c1.3,1.51,2.29,3.52,2.77,5.47
			c1.78,7.22,3.29,14.5,4.99,22.14c-8.65,8.16-6.02,21.04-11.97,31.66c-3.15-1.71-6.01-3.08-8.66-4.77
			c-2.25-1.43-4.12-3.49-6.41-4.83c-4.78-2.79-10.17-4.88-15.31-2.01c-5.52,3.08-5.36,9.11-4.48,14.45
			c2.38,14.63,3.28,29.74,12.17,42.55c0.71,1.03,0.92,2.41,2.02,5.42c-4.34-2.13-6.93-3.44-9.57-4.68
			c-6.48-3.05-12.86-6.4-19.55-8.92c-2.41-0.91-6.65-0.87-8.09,0.63c-1.52,1.58-0.78,5.42-0.85,8.27c-0.02,0.82,0.54,1.69,0.95,2.49
			c2.3,4.51,4.5,9.08,6.98,13.48c6.58,11.65,14.98,21.6,27.11,27.82c4.77,2.45,9.83,4.35,14.54,6.92c7.69,4.2,15.73,7.04,24.41,8.47
			c10.68,1.77,20.76,5.5,30.26,10.72c5.93,3.26,9.84,7.38,11.51,14.71c3.29,14.51,7.51,28.89,12.49,42.91
			c1.49,4.19,6.5,29.91,15.76,55.91c8.6,24.15,16.78,38.54,14.67,39.79c-3.14,1.85-28.36-25.83-33-32.95
			c-0.26-0.39-2.19-2.76-5.27-4.84c-3.6-2.43-7.15-1.4-8.55,2.78c-1.02,3.03-1.81,6.56-1.29,9.62c1.71,9.95,4.1,19.79,6.19,29.68
			c2.24,10.6,8.66,18.79,15.23,26.97c3.48,4.33,6.49,9.04,9.71,13.57c-3.66-0.13-6.47-1.48-9.22-2.95
			c-9.2-4.94-18.31-10.07-27.61-14.8c-3.41-1.73-7.21-3.01-10.98-3.65c-5.74-0.98-8.42,1.21-9.58,6.76
			c-3.2,15.26,3.09,28.02,10.76,40.36c1.06,1.7,2.9,3.07,4.66,4.15c11.16,6.92,22.17,14.14,33.7,20.37
			c5.09,2.75,11.29,4.71,17.01,4.78c11.34,0.15,21.68,3.97,32.36,6.62c4.23,1.05,7.28,3.37,9.1,7.76
			c5.97,14.32,12.09,28.59,18.58,42.68c7.88,17.09,15.8,34.09,20.55,52.44c3.81,14.71,8.85,29.1,12.86,43.76
			c7.41,27.06,15.22,54.03,21.43,81.37c4.88,21.49,8.13,43.39,11.14,65.25c3.13,22.75,5.15,45.66,7.58,68.51
			c1.67,15.73,3.31,31.47,4.78,47.22c0.86,9.23,1.36,18.49,2.02,27.74c-0.61,0.1-1.21,0.21-1.82,0.31c-1.11-2.7-2.37-5.34-3.31-8.1
			c-3.96-11.59-7.31-23.41-11.83-34.77c-8.69-21.82-14.35-44.75-24.91-65.91c-5.69-11.4-9.46-23.76-14.94-35.28
			c-3.29-6.92-9.25-12.63-12.17-19.64c-5.24-12.58-12.71-23.47-20.86-34.25c-13.18-17.44-27.46-33.82-43.13-48.99
			c-11.8-11.42-23.65-22.83-36.12-33.5c-13.32-11.4-27.45-21.83-41.07-32.89c-6.71-5.44-13.78-10.7-19.4-17.16
			c-11.33-13.03-22.1-26.58-32.5-40.37c-9.3-12.35-17.77-25.32-26.62-38c-14-20.07-27.38-40.48-37.91-62.67
			c-3.96-8.35-8.59-16.41-13.36-24.34c-1.78-2.96-4.45-5.75-7.36-7.59c-7.79-4.92-16.15-0.49-16.59,8.64
			c-0.17,3.53,0.05,7.25,0.97,10.65c4.62,16.97,8.81,34.11,14.53,50.72c6.53,18.94,16.12,36.44,26.84,53.51
			c10.49,16.69,20.46,33.61,33.4,48.59c8.01,9.26,14.97,19.52,23.59,28.13c18.79,18.78,38.29,36.85,57.6,55.09
			c11.07,10.46,22.3,20.76,33.55,31.03c15.42,14.08,31.46,27.53,46.27,42.22c18.46,18.31,35.18,38.19,48.6,60.65
			c4.29,7.17,8.93,14.16,13.83,20.93c17.24,23.83,31.1,49.62,42.43,76.6c7.49,17.84,13.02,36.57,18.59,55.15
			c3.72,12.41,7.19,24.79,6.89,38.3c-0.88,39.7,1.17,79.45-2.02,119.12c-0.74,9.23-0.98,18.51-2.1,27.69
			c-3.04,24.89-6.4,49.74-9.69,74.59c-0.49,3.72-1.22,7.41-1.84,11.11c-3.64-7.7-6.47-15.25-8.11-23.05
			c-5.33-25.3-15.36-48.93-25.09-72.68c-6.37-15.56-15.03-29.69-25.53-42.81c-7.27-9.08-14.16-18.48-21.25-27.71
			c-5.6-7.29-11.43-14.42-16.83-21.86c-4.87-6.71-9.29-13.75-13.94-20.61c-1.68-2.47-3.55-4.81-5.19-7.3
			c-2.29-3.48-4.81-6.86-6.6-10.59c-8.22-17.1-18.65-33.24-22.79-52.13c-0.25-1.14-0.9-2.21-1.41-3.29
			c-12.21-25.94-22.64-52.59-31.91-79.71c-2.69-7.88-6.2-15.52-9.8-23.05c-1.5-3.14-3.83-6.18-6.48-8.43
			c-6.03-5.11-14.14-2.5-15.95,5.19c-1.08,4.59-1.56,9.5-1.26,14.21c0.82,12.8,1.59,25.65,3.49,38.31
			c2.38,15.92,4.3,32.17,9.2,47.39c9.84,30.57,17.7,62.2,37.43,88.66c10.5,14.08,20.63,28.47,31.85,41.94
			c7.01,8.41,15.75,15.37,23.7,23c2.8,2.69,5.72,5.29,8.25,8.21c11.16,12.86,21.93,26.06,33.33,38.7
			c14.74,16.34,21.28,30.99,34.35,53.05c10.22,17.26,15.33,25.89,17.99,32.98c5.43,14.49,9.64,35.4,4.8,63.2
			c-3.64-15.48-7.86-27.97-11.2-36.8c-9.47-25.06-15.37-40.15-29.99-52.34c-10.97-9.15-23.11-13.38-26.49-14.72
			c-12.66-5.02-26.02-8.24-39.06-12.32c-1.98-0.62-3.79-1.76-5.74-2.5c-4.98-1.89-9.97-3.77-15-5.51
			c-4.19-1.45-8.48-2.62-12.67-4.06c-3.66-1.26-7.15-3.14-10.89-4.03c-15.25-3.65-28.96-11.01-42.49-18.4
			c-4.92-2.69-9.6-4.59-14.91-5.12c-7.93-0.8-11.31,3.29-9.1,10.85c0.66,2.25,1.67,4.62,3.18,6.35c6.88,7.82,13.36,16.16,21.21,22.9
			c8.31,7.14,18.03,12.62,27.05,18.94c11.4,7.98,24.21,12.97,37.31,17.05c8.78,2.73,18.16,3.57,26.91,6.36
			c16.19,5.15,32.1,11.19,48.18,16.72c12.28,4.23,21.71,12.12,29.82,22.04c9.6,11.73,13.34,25.81,17.11,40.01
			c2.28,8.59,2.68,16.93,0.57,25.62c-2.25,9.28-4.2,18.68-5.52,28.13c-6.5,46.41-15.01,92.5-19.83,139.19
			c-4.88,47.21-11.62,94.23-17.98,141.27c-2.52,18.62-5.04,37.38-9.67,55.53c-6.95,27.28-10.77,55.05-15.72,82.65
			c-0.42,2.32-0.49,4.79-0.21,7.14c0.46,4.01,3.65,5.66,7.04,3.62c1.75-1.05,3.43-2.54,4.59-4.22
			c8.14-11.77,16.91-23.63,20.11-37.61c6.8-29.64,12.2-59.6,18.05-89.45c1.26-6.43,1.99-12.97,2.9-19.47
			c1.03-7.38,2.09-14.76,2.94-22.17c1.36-11.86,1.86-23.86,3.93-35.58c7.44-42.08,11.98-84.5,16.1-126.99
			c1.38-14.23,3.78-28.4,6.41-42.47c4.86-26.06,10.51-51.97,15.29-78.04c2.58-14.07,3.81-28.39,6.12-42.51
			c2.36-14.41,6.05-28.64,7.79-43.11c2.66-22.2,4.1-44.54,6.19-66.81c0.53-5.62,1.55-9.37,2.33-13.06
			c3.61-17.16,8.73-31.2,12.14-39.06c12.25-28.24,30.16-40.94,48.68-67.18c3.04-4.31,9.06-13.19,11.13-16.22
			c2.34-3.44,4.76-6.83,6.82-10.43c2.72-4.74,5.11-9.67,7.65-14.52c2.29,8.37,3.32,16.27,3.81,24.2c0.65,10.39-0.3,21.03,1.6,31.15
			c2.27,12.09,4.31,24.1,4.27,36.37c-0.01,4.04-0.76,8.22-1.95,12.09c-6.59,21.38-14.7,42.38-19.8,64.09
			c-5.16,22.01-8.37,44.59-10.73,67.11c-3.89,37.12-6.42,74.39-9.48,111.6c-1.73,21.12-3.05,42.27-5.11,63.35
			c-2.81,28.82-6.03,57.6-9.27,86.38c-3.24,28.78-6.62,57.54-10.12,86.29c-3.46,28.46-7.2,56.88-10.71,85.34
			c-3.07,24.89-6.18,49.78-8.85,74.72c-0.49,4.58,0.33,9.61,1.81,14.01c1.83,5.4,5.54,5.57,9.09,1.06
			c8.89-11.29,13.46-24.68,17.03-38.2c4.56-17.27,8.57-34.78,11.35-52.41c5.21-33,10.44-66.06,13.7-99.28
			c3.93-40.05,5.89-80.3,8.56-120.47c1.82-27.39,3.23-54.8,7.52-81.97c0.74-4.71,0.99-9.5,1.54-14.24
			c1.52-13.33,2.96-26.67,4.64-39.98c1.93-15.35,4.08-30.68,6.14-46.02c0.99-7.38,2.17-14.74,2.94-22.14
			c0.84-7.99,1.22-16.03,1.99-24.03c0.16-1.63,1.18-3.17,2.07-5.44c0.86,1.48,1.58,2.17,1.65,2.92c0.93,10.1,1.78,20.21,2.62,30.32
			c1.06,12.79,1.9,25.61,3.2,38.38c1.84,18.12,4.46,36.16,5.96,54.3c2.23,27.07,3.66,54.21,5.65,81.31
			c1.4,19.05,3.29,38.06,4.71,57.1c1.53,20.55,2.79,41.13,4.12,61.7c0.81,12.52,1.09,25.08,2.35,37.55
			c2.49,24.63,5.77,49.19,8.23,73.82c2.49,24.93,4.37,49.92,10.73,74.29c1.96,7.51,3.79,15.08,5.05,22.73
			c1.27,7.7,3.35,14.48,11.03,18.3c2.04,1.02,3.34,3.42,5.24,4.84c3.07,2.29,4.78,8.16,10.01,5.28c4.65-2.56,2.67-7.34,2.2-11.4
			c-0.03-0.3-0.14-0.58-0.18-0.88c-3.96-24.42-8.2-48.8-11.82-73.26c-5.07-34.24-9.86-68.53-14.44-102.85
			c-2.76-20.66-4.39-41.48-7.47-62.09c-3.61-24.24-5.17-48.62-6.46-73.03c-2.26-42.77-4.67-64.08-3.25-74.27
			c1.85-13.24,7.25-48.82,31.99-78.98c10.56-12.87,25.55-24.81,33.41-32.42c6.71-6.5,12.58-13.25,22.19-16.89
			c11.87-4.5,23.2-10.66,35.02-15.69c23.18-9.87,47.12-9.51,71.32-8.22c14.89,0.79,29.74,2.13,44.63,2.97
			c14.57,0.83,28.55-2.23,41.97-7.68c17.44-7.09,27.94-19.97,30.9-38.67c1.3-8.22-2.36-11.99-10.65-10.91
			c-13,1.7-25.98,3.6-38.94,5.58c-3.23,0.49-6.42,1.41-9.54,2.42c-9.48,3.07-19.16,4.38-29.12,3.94c-10.14-0.44-20.3-0.7-30.45-0.98
			c-8.62-0.24-17.25-0.21-25.86-0.62c-4.24-0.21-9.12,0.54-14.82,1.7c-12.63,2.56-21.44,7.79-25.85,10.33
			c-38.69,22.37-57.1,22.71-78.84,46.86c-3.2,3.55-5.61,6.63-6.85,8.28c-14.17,18.9-22.98,41.6-24.32,45.1
			c-12.5,32.73-15.05,53.96-17.6,53.6c-1.69-0.24-0.9-9.66-2.47-34.26c-0.33-5.06-0.29-2.69-2.22-26.71
			c-1.17-14.58-2.39-29.15-3.49-43.73c-0.88-11.6-1.58-23.21-2.45-34.81c-0.63-8.33-1.54-16.64-2.02-24.97
			c-0.13-2.26,0.45-4.75,1.35-6.86c5.77-13.42,11.65-26.8,17.63-40.13c11.71-26.08,28.52-48.3,51.21-65.77
			c19.6-15.09,41.2-27.46,59.86-43.9c17.73-15.62,34.74-31.87,48.73-51.01c2.64-3.61,4.38-7.96,7.34-11.23
			c13.96-15.38,21.82-34.13,29.42-52.96c5.24-12.98,9.32-26.42,14.32-39.5c6.28-16.42,12.51-32.86,19.05-49.19
			c12.41-30.97,25.31-61.84,33.21-94.47c4.07-16.82,9.63-33.26,13.87-50.04c5.33-21.12,10.04-42.39,14.93-63.62
			c1.68-7.28,3.26-14.59,4.55-21.94c0.62-3.49,0.88-7.16,0.58-10.68c-0.56-6.54-4.28-8.69-10.45-6.64c-5.66,1.88-9.62,5.78-13,10.49
			c-12.61,17.57-22.3,36.74-30.8,56.54c-11.81,27.48-20.59,56.01-28.93,84.68c-5.09,17.48-9.93,35.04-15.17,52.48
			c-10.67,35.44-18.74,71.69-32.72,106.08c-5.16,12.7-10.63,25.43-17.47,37.27c-11.04,19.08-23.7,36.95-39.28,53.01
			c-18.98,19.57-39.66,37.11-59.93,55.18c-0.88,0.78-2.06,1.2-3.01,1.92c-3.52,2.67-7.5,4.95-10.41,8.18
			c-13.06,14.48-23.83,30.64-33.51,47.51c-6.52,11.37-13.46,22.53-16.92,35.46c-1.81,6.78-4.9,13.21-7.86,20.96
			c-3.99-6.82-5.58-12.64-3.54-19.08c1.53-4.83,3.1-9.67,4.93-14.4c7.66-19.76,15.3-39.53,23.2-59.2
			c6.32-15.75,13-31.37,19.55-47.03c0.8-1.92,1.84-3.75,2.71-5.64c3.09-6.73,5.97-13.55,9.27-20.18
			c3.17-6.38,6.87-12.49,10.14-18.82c3.41-6.62,6.35-13.48,9.9-20.02c4.11-7.57,8.78-14.84,12.96-22.37
			c1.8-3.51,4.47-8.75,7.6-15.16c7.34-15.03,21.03-44.18,39.36-94.66c15.44-42.54,34.38-94.72,44-142.4c0.98-4.85,3.19-16.22,8-31.2
			c7.73-24.03,17.34-42.35,23.98-53.71c10.74-3.94,18.27-10.82,24.12-20.19c0.94-1.51,2.24-2.8,3.35-4.21
			c8.66-11.02,17.55-21.88,25.92-33.12c9.37-12.6,14.82-27.19,19.65-41.97c0.71-2.17,0.81-4.78,0.42-7.05
			c-1.47-8.47-9.84-12.22-16.58-7.12c-6.39,4.84-12.22,10.43-18.25,15.75c-2.11,1.86-4.05,3.91-6.06,5.87
			c0.7-5.47,1.33-10.11,1.82-13.62c0,0,4.33-31.26,14.72-63.33c0.62-1.91,1.98-5.96,5.59-9.49c2.63-2.57,5.91-4.36,9.71-5.42
			c9.76-2.71,16.63-9.03,23.28-15.94c9.96-10.35,18.32-21.68,25.54-34.29c7.93-13.85,13.13-27.97,14.05-43.81
			c0.69-11.85-9.43-19.64-20.68-15.72c-11.21,3.91-19.6,11.13-25.4,21.47c-1,1.79-2.38,3.37-3.59,5.05
			c0.84-5.05,3.26-9.21,4.03-13.66c2.2-12.62,3.82-25.35,5.49-38.06c1.01-7.72,1.78-15.41,5.8-22.38c1.15-1.99,1.35-4.54,1.93-6.85
			c2.89-11.48,5.66-22.99,8.68-34.44c1.66-6.31,2.22-13.73,6.03-18.42c3.84-4.73,11.5-6.12,16.73-10
			c8.59-6.37,17.2-12.96,24.62-20.6c5.94-6.12,9.88-14.11,15.13-20.96c6.19-8.06,8.63-17.58,11.06-27.05
			c1.48-5.76,0.01-7.74-5.38-10.84c-9.7-5.59-22.99-3.44-32.03,5.45c-12.61,12.41-24.14,25.69-32.41,41.52
			c-1.71,3.28-3.89,6.32-6.1,9.86c-1.14-1.56-1.79-2.05-1.73-2.43c2-12.05,3.35-24.28,6.43-36.06c1.66-6.36,5.79-12.3,9.72-17.78
			c4.84-6.75,11.09-12.49,15.89-19.26c11.39-16.04,22.3-32.42,33.4-48.66c1.35-1.97,2.72-3.93,4.09-5.89
			c11.62-16.62,17.76-34.57,14.57-55.21c-0.93-5.99-4.25-9.1-9.15-10.96c-5.04-1.92-9.39-0.19-12.61,4.12
			c-2.68,3.58-5.22,7.28-7.94,10.83c-1.52,1.98-3.29,3.76-6.16,7c0-7.32,0.03-12.64-0.01-17.95c-0.04-6.64-7.09-7.5-10.29-12.15
			c1.68-19.95,3.68-40.12,4.88-60.35c0.37-6.23,2.27-10.01,8.01-12.38c7.99-3.3,16.05-6.59,23.59-10.76
			c12.51-6.91,24.65-14.49,36.91-21.85c1-0.6,1.81-1.56,2.62-2.43C2001.87,827.2,2001.17,819.85,1994.41,814.91z M1569.82,1504.41
			c0.83-6.67,4.34-12.42,9.5-16.72c1.98-1.65,5.03-2,7.7-2.99c3.42,12.89-9.45,51.51-22.2,67.21
			C1566.55,1535.11,1567.92,1519.73,1569.82,1504.41z M1603.85,1235.18c4.99-7.3,11.69-13.55,22.17-12.78
			c2.04,7.44,1.43,14.39-2.07,20.93c-9.78,18.25-26,32.44-48.04,39.93c1.21-2.89,2.08-5.97,3.67-8.63
			C1587.52,1261.38,1595.16,1247.92,1603.85,1235.18z M1613.56,1035.98c7.62-7.88,14.18-17.06,25.06-21.05
			c1.05-0.38,2.19-0.49,3.24-0.72c3.17,7.67-2.66,36.99-10.91,54.4c-5.3-7.63-11.38-13.57-21.58-9.85
			C1606.66,1050,1607.3,1042.45,1613.56,1035.98z M1600.02,1084.44c2.47-5.46,5.15-10.74,10.49-14.16c5.05-3.23,8.18-2.76,9.11,3
			c1.16,7.25,2.39,15.25,0.54,22.1c-4.96,18.35-12.32,35.68-31.65,44.02c-1.35,0.58-2.73,1.22-3.89,2.11
			c-1.15,0.88-2.04,2.11-3.93,4.15c-2.67-6.24-1.06-11.21,0.48-15.82c2.74-8.18,6.08-16.17,9.41-24.14
			C1593.55,1098.54,1596.83,1091.51,1600.02,1084.44z M1579.75,1173.24c-2.08,8.08-4.17,16.15-6.25,24.23
			c1.21-14.11,2.42-28.22,3.63-42.33C1578.01,1161.17,1578.88,1167.21,1579.75,1173.24z M1629.98,829.92
			c4.61,9.98,5.4,20.35,4.01,31c-0.17,1.3-1.31,2.71-2.38,3.61c-4.47,3.77-9.09,7.36-14.26,11.5
			C1609.76,850.68,1613.27,837.62,1629.98,829.92z M1611.25,829.57c-0.73-0.03-1.47-0.06-2.21-0.09c0-5.67-0.76-11.46,0.16-16.97
			c1.89-11.44,4.62-22.74,7.13-34.06c0.44-2.01,1.46-3.89,2.24-5.82c0.09-0.22,0.38-0.36,0.58-0.53c0.14,0.2,0.28,0.39,0.52,0.73
			C1617.37,791.74,1615.72,810.89,1611.25,829.57z M1678.55,663.07c-1.53,5.52-2.46,11.44-4.78,16.75
			c-4.71,10.77-11.58,19.85-21.11,27.28c-6.73,5.25-11.91,12.51-17.75,18.89c-3.58,3.9-7.11,7.85-11.76,11.05
			c3.34-8.79,6.38-17.71,10.1-26.33c5.19-12.04,10.67-23.98,16.44-35.75C1654.22,665.7,1668.83,659.51,1678.55,663.07z
			 M1632.16,607.05c2.29-21.11,6.63-41.74,12.22-62.16c1.42-5.18,3.46-9.97,9.77-13.41c0.51,4.66,1.61,9.35,1.43,13.98
			c-0.47,12.22-1.25,24.44-2.34,36.62c-1.65,18.41-3.43,36.81-5.63,55.16c-1.2,10.04-3.36,19.96-5.16,29.93
			c-0.07,0.37-0.89,0.6-2.47,1.61c-0.2-8.79-0.7-16.94-0.48-25.07c0.21-7.98-0.9-15.57-5.06-22.38
			C1631.61,616.73,1631.58,612.4,1632.16,607.05z M1602.92,725.56c-16.34-14.36-31.69-29.63-39.13-50.85
			c-1.91-5.45-2.33-11.76-1.97-17.59c0.61-9.75,8.83-13.75,17.28-9.08c5.43,3,9.03,6.78,10.98,9.68
			c6.72,10.01,10.41,21.77,12.71,36.17c1.22,7.63,2.39,18.17,2.22,30.9C1604.31,725.05,1603.61,725.3,1602.92,725.56z
			 M1607.07,665.48c-3.65-11.92,3.18-31.96,12.91-39.61c3.16-2.48,6.01-1.89,7.28,1.31c2.87,7.26,2.82,12.84,2.82,12.84
			c-1.48,21.13,6.35,37.69-4.12,66.2c-1.57,4.26-4.11,10.35-8.21,17.33c-0.76-0.33-1.51-0.66-2.27-0.99
			c-0.68-7.67-1.73-15.33-1.96-23.01C1613.17,687.81,1610.48,676.62,1607.07,665.48z M1619.99,889.63
			c1.42-3.78,4.23-7.25,7.09-10.21c2.16-2.23,5.2-4.11,8.19-4.92c9.25-2.53,13.19,0.37,12.82,9.84c-0.7,17.71-5.9,33.87-18.19,47.21
			c-7.25,7.87-14.36,15.88-21.71,23.65c-1.91,2.02-4.52,3.38-6.81,5.04c-0.89-0.43-1.79-0.87-2.68-1.3c0-2.52-0.48-5.15,0.08-7.53
			c2.7-11.59,4.57-23.55,8.88-34.53C1611.26,907.67,1616.46,899.02,1619.99,889.63z M1592.17,815.54c1.93,5.32,4.12,9.86,5.22,14.64
			c3.39,14.8,6.59,29.65,9.4,44.57c2.04,10.78,0.77,21.28-3.96,31.4c-2.98,6.38-5.19,13.12-7.74,19.7
			c-0.66-0.01-1.31-0.01-1.97-0.02c-2.6-9.03-6.56-17.51-7.58-27.2c-1.61-15.37-4.61-30.59-6.73-45.91
			c-0.69-4.98-0.36-10.1-0.76-15.13C1577.23,827.13,1583.65,821.43,1592.17,815.54z M1589.14,960.74c1.74,10.66,3,23.96,2.4,39.2
			c-0.55,13.95-2.53,26.1-4.8,36C1587.54,1010.87,1588.34,985.81,1589.14,960.74z M1555.36,837.86c6.67,1.74,10.89,5.6,12.68,11.1
			c4.43,13.64,7,27.68,6.72,42.11c-0.02,1.1-0.55,2.2-0.99,3.84c-4.7-0.69-8-3.43-10.26-6.62
			C1552.72,872.99,1550.97,856.15,1555.36,837.86z M1528.63,883.49c5.34-5.22,30.26,6.98,44.27,26.25
			c9.99,13.75,12.45,28.35,13.11,36.98c-8.05-2.24-19.47-6.58-30.48-15.59C1536.06,915.18,1523.12,888.88,1528.63,883.49z
			 M1588.43,1048.49c3.76,2.81,6.71,5.02,9.44,7.06c1.49,7.37,0.38,13.9-2.69,20.33c-5.34,11.2-10.35,22.55-15.49,33.84
			c-0.79-0.25-1.57-0.5-2.36-0.75C1578.98,1088.85,1577.85,1068.24,1588.43,1048.49z M1561.44,1137.69
			c-2.28-2.82-4.96-5.41-6.77-8.52c-5.41-9.3-11.29-18.03-18.83-25.95c-7.34-7.72-12.09-17.56-13.77-29.19
			c8.95-2.17,14.4,1.47,19.14,6.95c9.67,11.19,16.66,23.8,19.77,38.32c1.22,5.71,1.76,11.56,2.61,17.35
			C1562.87,1137,1562.15,1137.35,1561.44,1137.69z M1564.53,1106.66c-9.83-25.07-17.39-50.82-22.44-77.26
			c-1.11-5.81-1.06-11.9-0.95-17.85c0.06-3.04,1.44-6.04,2.23-9.07c0.83-0.08,1.66-0.15,2.49-0.23c1.99,2.44,3.9,5.01,5.71,7.71
			c23.38,34.78,20.87,76.37,16.16,102.68C1566.65,1110.66,1565.35,1108.75,1564.53,1106.66z M1583.85,1199.19
			c7.17,20.24,2.25,49.7-16.42,71.59C1564.28,1251.57,1573.66,1211.78,1583.85,1199.19z M1563.16,1307.44
			c0.66-0.05,1.32-0.1,1.99-0.15c1.45,4.13,0.96,8.31-0.2,12.55c-1.12,4.09-2.08,8.22-3.89,12.31
			C1561.76,1323.91,1562.46,1315.67,1563.16,1307.44z M1564.06,1351.14c3.48-7.59,8.38-13.44,15.45-18.51
			c3.87,4.14,2.58,8.04,1.96,11.76c-0.97,5.86-2.37,11.66-3.25,17.54c-1.26,8.45-3.97,15.87-10.37,22.12
			c-3.91,3.82-6.3,9.19-10.2,15.11C1558.98,1382.16,1557.14,1366.24,1564.06,1351.14z M1554.09,1271.76
			c-14.27-16.56-31.49-30.65-38.31-52.09c-2.02-6.34-2.62-13.38-2.53-20.08c0.08-6.22,3.92-8.16,9.93-6.04
			c2.17,0.77,4.48,2.03,5.96,3.73c10.39,11.95,19.45,24.81,24.67,39.95C1557.68,1248.49,1556.96,1259.98,1554.09,1271.76z
			 M1507.2,1321.61c11.63,8.82,34.45,56.74,34.86,72.4C1523.07,1385.19,1502.68,1343.94,1507.2,1321.61z M1051.37,521.47
			c-22.94-21.79-34.44-49.21-40.68-79.35c0.56-0.58,1.12-1.15,1.68-1.73c2.46,1.43,5.07,2.64,7.34,4.31
			c11.53,8.48,22.77,17.38,34.52,25.55c8.9,6.19,14.52,14.99,20.1,23.7c5.93,9.25,10.97,19.12,15.97,28.93
			c4.02,7.88,4.33,16.54,4.46,25.21C1086.21,548.2,1065.68,535.07,1051.37,521.47z M1281.31,1162.46
			c2.47-8.01,2.99-15.72,4.03-31.13c0,0,1.4-17.96,6.6-30.13c1.98-4.62,5.69-6.56,12.73-8.24c7.09,21.04,6.36,41.49-0.31,61.83
			c-2.04,6.2-4.63,12.25-7.39,18.18c-4.34,9.34-12.02,15.01-22.41,19.65c0.33-2.87,0.34-4.48,0.71-6
			C1278.06,1175.17,1279.82,1167.29,1281.31,1162.46z M1229.95,1088.87c-14.66-14.66-23.35-44.78-16.99-56.66
			C1216.03,1035.73,1226.59,1070.61,1229.95,1088.87z M1236.98,895.61c1.64-0.79,3.15-1.14,4.2-1.31c0.63,1.65,1.6,3.42,1.99,5.31
			c4.44,21.62,5.42,43.32-1.35,64.56c-4.15,13-9.68,25.57-14.88,38.22c-2.4,5.82-7.6,8.76-14,11.67c-0.49-2.89-1.41-5.18-1.15-7.32
			c2.4-20.1,5.47-40.13,7.34-60.28c0.42-4.5,2.47-15.94,6.05-30.56C1227.04,908.24,1229.54,899.21,1236.98,895.61z M1189.12,648.89
			c6.54,11.37,12.13,20.57,10.7,32.34c-2.17,17.93-7.77,34.92-13.93,51.75c-0.62,1.7-2.32,3.01-5.02,6.37
			c-0.66-7.67-1.39-13.14-1.54-18.63c-0.39-13.44-0.49-26.88-0.74-40.33C1178.38,669.2,1183.76,660.12,1189.12,648.89z
			 M1181.01,755.98c9.74-9.55,14.48-21.59,17.69-34.5c1.58-6.35,3.98-12.5,5.53-18.85c2.19-8.94,3.7-18.05,5.96-26.97
			c2.4-9.5,5.29-18.89,8.08-28.29c0.3-1.01,1.33-1.8,2.38-3.16c4.98,5.2,5.68,11.53,6.02,17.43c0.41,7.05-0.09,14.3-1.36,21.25
			c-1.71,9.35-4.2,18.6-7.03,27.69c-1.48,4.75-4.04,9.27-6.73,13.51c-5.89,9.28-11.91,18.52-18.41,27.38
			c-3.89,5.3-6.08,5.99-14.77,8.51C1179.5,758.22,1180.07,756.91,1181.01,755.98z M1115.87,335.52c4.1-14.33,5.96-29.44,14.19-42.26
			c0.81,0.1,1.63,0.2,2.44,0.3c0.84,2.45,2.17,4.85,2.43,7.35c1.78,17.2,3,34.49-1.55,51.42c-2.94,10.91-6.93,21.55-14.26,30.51
			c-2.83,3.46-5.82,6.68-12.02,7.28C1109.1,371.3,1110.81,353.2,1115.87,335.52z M1093.15,394.54c-1.79-2.18-4.1-4.1-5.29-6.57
			c-8.71-17.99-17.91-35.79-25.52-54.24c-5.98-14.49-13.02-28.77-15.29-44.59c-0.52-3.67-0.94-7.35-0.62-11.28
			c12.37,10,22.77,21.1,27.46,36.49c0.69,2.25,1.14,4.71,2.37,6.65c10.38,16.33,12.58,35.25,17.11,53.43
			c0.79,3.17,1.37,6.41,1.78,9.66c0.39,3.1,0.44,6.25,0.63,9.37C1094.91,393.82,1094.03,394.18,1093.15,394.54z M1096.9,350.36
			c-3.36-9.87-6.49-19.83-10.33-29.5c-4.31-10.85-4.97-22.06-4.27-33.41c0.76-12.47,2.08-24.91,3.2-37.36
			c0.09-1.03,0.62-2.02,1.27-4.08c1.87,3.91,4.52,9.75,7.22,17.01c4.64,12.48,11.69,31.96,11.95,56.93
			c0.09,9.21-0.7,22.86-5.22,39.11c-0.41,0.15-0.81,0.29-1.22,0.44C1098.64,356.44,1097.92,353.35,1096.9,350.36z M1107.35,543.82
			c-8.27-27.53-8.77-55.41-4.6-83.74c5.42,4.44,6.81,10.8,7.79,16.56c2.44,14.34,3.75,28.88,5.2,43.37
			C1116.65,529.05,1111.13,536.09,1107.35,543.82z M1118.28,548.55c7.55-16.42,10.17-34.17,14.78-51.38
			c1.67-6.24,4.95-12.14,8.12-17.84c1.95-3.51,4.84-6.68,10.01-7.91c1.25,3.43,2.85,6.34,3.32,9.43c1.48,9.7,2.42,19.48,3.78,29.19
			c0.82,5.91-0.2,11.23-3.8,16.05c-4.98,6.67-9.84,13.44-14.88,20.06c-5.54,7.28-12.43,12.57-21.85,14.72
			C1115.04,556.23,1116.7,551.98,1118.28,548.55z M1106.38,636.24c2.02,1.54,4.11,2.62,5.51,4.28c6.13,7.27,11.89,14.85,18.11,22.03
			c5.29,6.11,5.29,13.85,6.61,20.98c1.56,8.43,1.46,17.17,1.98,25.78c0.08,1.33-0.37,2.7-0.78,5.36
			c-9.11-13.67-17.88-25.9-25.58-38.78c-3.75-6.27-6.01-13.6-8-20.71C1102.53,649.14,1103.03,642.82,1106.38,636.24z
			 M1133.87,741.97c-6.83-4.2-13.27-9.4-20.6-12.32c-10.91-4.35-16.5-12.29-19.39-22.87c-1.16-4.24-1.82-8.62-2.62-12.53
			c4.18-3.33,7.19-1.11,9.54,0.92c8.99,7.79,18.03,15.57,26.42,23.98c6.67,6.68,9,15.78,11.92,26.23
			C1136.53,743.69,1135.22,742.8,1133.87,741.97z M1141.21,639.68c-1.01,0.02-2.01,0.04-3.02,0.07c-8.64-16.59-9.83-35.8-18.4-52.41
			c0.65-0.38,1.3-0.76,1.95-1.14c1.57,2.46,3.57,4.75,4.65,7.41c5.25,12.94,10.38,25.93,15.22,39.02
			C1142.36,634.66,1141.38,637.32,1141.21,639.68z M1160.04,762.57c-6.97-0.45-8.44-1.54-9.16-8.27
			c-1.15-10.68-1.92-21.39-2.82-32.09c-1.1-13.07-2.14-26.14-3.25-39.21c-1.51-17.9,0.18-35.17,10.04-50.82
			c0.75-1.18,1.77-2.19,3.37-4.12c2.16,5.13,5.35,13.52,7.72,24.24c4.1,18.49,0.72,21.03,4.1,48.12c0.97,7.77,2.04,20.04,2.48,33.78
			c0.17,5.23-1.01,10.64-2.39,15.75c-1.15,4.24-3.5,8.15-5.38,12.35C1162.92,762.41,1161.47,762.66,1160.04,762.57z M1173.93,841.65
			c-0.87,0.13-1.74,0.26-2.61,0.39c-0.99-5.41-2.34-10.79-2.92-16.25c-1.38-12.96-2.42-25.95-3.54-38.93
			c-0.31-3.54-0.7-7.27,5.75-7.71C1171.73,800.23,1172.83,820.94,1173.93,841.65z M1128.13,869.14c-0.85-5.35-3.15-10.87,0.03-17.18
			c2.03,1.56,3.68,2.61,5.08,3.93c3.66,3.45,7.28,6.96,10.79,10.56c5.53,5.66,9.76,12.08,10.18,20.25
			c0.92,18.14,1.51,36.31,6.91,53.88c0.29,0.94-0.15,2.11-0.35,4.22c-4.91-3.37-8.24-6.1-9.9-11.53
			c-2.13-6.98-5.83-13.51-9.19-20.07C1134.56,899.3,1130.57,884.44,1128.13,869.14z M1158.65,989.18
			c-5.64-3.36-11.41-6.59-16.65-10.5c-16.06-11.98-26.01-28.53-33.78-46.6c-1.81-4.22-2.54-8.49,0.03-14.1
			c37.63,21.19,66.75,48.66,82.92,90.3C1179.33,1001.34,1168.95,995.33,1158.65,989.18z M1205.38,977.92
			c-1.19,9.38-2,18.8-4.53,28.45c-0.99-1.62-2.04-3.21-2.95-4.88c-5.72-10.44-11.83-20.7-16.96-31.42
			c-3.94-8.25-7.02-16.97-9.8-25.69c-7.44-23.33-7.49-47.62-8.69-71.74c-0.32-6.39,2.95-10.53,8.25-14.02
			c6.45,6.65,8.97,15.11,11.6,23.13c7.76,23.73,17.18,46.91,22.01,71.66C1205.96,961.86,1206.43,969.64,1205.38,977.92z
			 M1198.86,900.92c-2.53-7.86-2.95-15.73-1.65-23.86c1.22-7.64,1.92-15.37,3.04-23.03c0.38-2.6,1.37-5.11,2.41-8.84
			c2.14,1.95,4.06,2.95,4.8,4.5c2.69,5.63,5.09,11.41,7.39,17.21c1.54,3.88,2.39,8.06,4.14,11.83c4.8,10.37,5.85,19.97-1.57,30.1
			c-3.1,4.23-3.24,10.67-4.56,16.15c-0.68,2.83-0.98,5.75-1.45,8.62c-0.67,0.1-1.35,0.2-2.02,0.3c-0.84-2.14-1.82-4.24-2.49-6.43
			C1204.18,918.64,1201.69,909.73,1198.86,900.92z M1168.43,1101.18c-0.17-1.76,0.03-3.57,0.27-5.33c0.11-0.81,0.73-1.56,1.69-3.48
			c3.13,1.12,6.53,1.83,9.4,3.46c4.37,2.5,8.51,5.46,12.48,8.58c1.74,1.37,3.57,3.43,4.04,5.47c2.63,11.58,8.97,21.33,14.74,31.39
			c3.35,5.85,6.53,11.8,9.78,17.7c-0.41,0.51-0.82,1.01-1.23,1.52c-3.08-1.4-6.11-2.9-9.24-4.17c-4.94-2-10.16-3.41-14.84-5.86
			c-4.1-2.15-8.36-4.78-11.25-8.27C1174.48,1130.39,1169.87,1116.33,1168.43,1101.18z M1240.55,1196.91
			c-8.11-2.7-16.16-5.63-24.37-8.02c-5.13-1.5-10.96-1.19-15.65-3.43c-13.38-6.36-26.92-12.75-39.21-20.9
			c-5.67-3.76-8.6-11.67-11.72-19.14c1.77,0.39,3.67,0.48,5.29,1.2c8.96,4.02,17.7,8.57,26.82,12.18
			c5.18,2.05,10.95,2.56,16.41,3.94c4,1.01,8.52,1.45,11.78,3.65c9.07,6.15,17.84,12.81,26.23,19.86c2.72,2.28,3.91,6.38,5.79,9.65
			C1241.47,1196.25,1241.01,1196.58,1240.55,1196.91z M1249.35,1183.76c-0.56-0.11-1.42-0.02-1.63-0.35
			c-8.55-13.28-17.17-26.52-25.47-39.95c-4.54-7.36-8.57-15.04-12.73-22.62c-7.49-13.65-4.56-27.43-1.37-41.19
			c0.84-0.32,1.68-0.63,2.52-0.95c1.76,1.86,3.75,3.54,5.24,5.6c14.45,20.03,24.16,42.51,33.08,65.32
			C1252.99,1159.85,1252.5,1174.07,1249.35,1183.76z M1259.94,1179.94c-0.1-8.03,0.27-16.11-0.55-24.07
			c-0.51-4.91-2.92-9.62-4.38-14.44c-1.54-5.09-3.8-10.14-4.25-15.34c-0.88-10.09-0.75-20.27-0.95-30.41
			c-0.03-1.76,0.08-3.64,0.64-5.28c1.32-3.88,4.26-5.24,7.61-2.82c3.01,2.18,5.99,5.13,7.55,8.42c5.65,11.92,9.97,24.34,9.15,37.85
			c-0.87,14.26-0.68,28.7-6.06,42.32c-1.83,4.63-3.92,9.16-5.89,13.74c-0.95-0.16-1.9-0.33-2.86-0.49
			C1259.95,1186.25,1259.98,1183.1,1259.94,1179.94z M1292.04,1331.23c-0.78-0.03-1.55-0.06-2.33-0.09
			c-0.51-1.61-1.11-3.2-1.52-4.84c-4.91-19.89-9.44-39.88-14.8-59.64c-3.18-11.75-7.68-23.14-11.51-34.71
			c-0.75-2.25-1.39-4.59-1.66-6.93c-0.4-3.51,1.27-5.64,6.23-6.1c1.35,3.47,3.17,7.11,4.19,10.96c4.17,15.8,8.18,31.64,12.06,47.52
			c1.55,6.34,2.39,12.86,3.92,19.2c1.59,6.6,3.06,13.33,5.61,19.58C1294.48,1321.71,1293.35,1326.33,1292.04,1331.23z
			 M1272.5,1386.88c-9.41-11.87-13.24-25.76-18.08-39.43c-0.58-1.63-0.54-3.52-0.56-5.3c-0.01-0.83,0.5-1.67,1.35-4.29
			c5.63,5.17,10.66,9.21,14.99,13.89c12.51,13.54,25.03,27.1,36.98,41.13c8.02,9.42,12.49,20.86,15.29,32.89
			c0.25,1.06,0.03,2.23,0.03,4.49C1303.17,1417.88,1286.35,1404.35,1272.5,1386.88z M1313.41,1456.14
			c-9.94-3.34-20.05-5.46-30.58-5.94c-3.42-0.16-7.09-1.39-10.1-3.1c-11.37-6.48-22.51-13.35-33.74-20.08
			c-8.32-4.99-10.47-13.4-11.73-22.05c-0.84-5.76,1.99-8.01,7.4-5.57c9.73,4.39,19.12,9.51,28.67,14.29
			c5.81,2.91,11.44,6.39,17.55,8.46c16.61,5.64,38.16,22.4,45.79,37.33C1321.33,1458.17,1317.27,1457.44,1313.41,1456.14z
			 M1330.7,1416.3c-1.84-3.23-2.9-5.17-4.05-7.07c-4.76-7.88-9.52-15.75-14.34-23.59c-0.93-1.52-2.3-2.78-3.19-4.32
			c-7.96-13.73-8.29-29.03-8.81-44.23c-0.09-2.49,1.49-5.04,2.72-8.89c7.85,5.94,10.67,13.54,13.43,20.96
			c5.49,14.75,10.99,29.53,15.57,44.57C1334.08,1400.46,1332.99,1407.77,1330.7,1416.3z M1384.8,1829.9c-1.65-1.99-3.54-3.84-4.93-6
			c-10.6-16.59-20.47-33.68-31.82-49.73c-9.27-13.11-20.1-25.13-30.52-37.39c-18.44-21.69-40.94-39.13-61.58-58.53
			c-13.49-12.68-27.2-25.12-40.62-37.86c-14.5-13.77-29.07-27.49-43.05-41.78c-10.2-10.43-20.16-21.24-29.05-32.78
			c-16.41-21.3-30.85-43.96-43.62-67.68c-12.44-23.1-19.47-48.07-26.16-73.19c-0.45-1.71-0.54-3.55-0.57-5.33
			c-0.02-1.14,0.37-2.3,0.67-3.94c5,1,6.89,4.89,8.72,8.38c5.67,10.83,10.77,21.97,16.62,32.71c4.54,8.34,9.61,16.43,14.91,24.32
			c12.32,18.32,25.12,36.32,37.36,54.68c10.29,15.45,23.33,28.59,34.91,42.94c11.04,13.68,25.19,23.53,38.75,34.3
			c14,11.12,26.88,23.64,40.42,35.36c17.43,15.09,33.5,31.54,48.41,49.06c11.37,13.37,22.33,27.06,31.58,42.19
			c12.67,20.74,22.65,42.71,32.47,64.8c3.49,7.84,5.83,16.19,8.69,24.3C1385.85,1829.12,1385.32,1829.51,1384.8,1829.9z
			 M1374.11,2144.41c-16.97-20.75-33.67-41.76-51.23-62c-8.76-10.09-19.77-18.21-28.69-28.18c-10.91-12.19-20.65-25.41-30.97-38.13
			c-10.47-12.91-17.57-27.9-23.33-43.09c-9.08-23.95-17.75-48.2-21.54-73.79c-2.1-14.18-4.64-28.29-6.57-42.49
			c-0.76-5.58-0.55-11.32-0.46-16.99c0.02-1.55,1.19-3.09,2.3-5.76c6.69,6.62,8.53,14.03,10.87,20.94
			c9.13,26.87,20.12,52.97,31.65,78.87c2.67,5.99,4.71,12.26,7.15,18.36c12.86,32.06,30.27,61.37,51.7,88.53
			c16.07,20.37,31.43,41.36,45.86,62.91c10.57,15.78,17.68,33.51,21.84,52.52C1379.84,2152.21,1377.17,2148.15,1374.11,2144.41z
			 M1371.51,2219.3c-7.81-4.25-15.94-7.92-24.06-11.57c-18.24-8.2-37.17-14.43-56.45-19.65c-8.63-2.33-17.5-4.19-25.69-7.62
			c-10.12-4.24-20.12-9.17-29.32-15.11c-9.94-6.42-18.99-14.23-28.22-21.7c-2.18-1.77-3.53-4.57-5.65-7.42
			c4.32-2.14,7,0.08,9.74,1.35c8.63,4.03,16.97,8.82,25.87,12.08c14.51,5.31,29.74,8.79,43.99,14.67c12.13,5,24.94,7.75,36.94,12.9
			c2.19,0.94,4.26,2.5,6.54,2.88c13.47,2.26,24.06,10.1,34.84,17.58c10.7,7.43,18.14,17.46,22.45,30.16
			C1378.84,2224.96,1375.53,2221.49,1371.51,2219.3z M1346.35,1382.08c2.74-8.78,5.95-17.38,14.68-23.45
			c7.09,16.35,6.68,32.98,5.79,49.44c-1.04,19.29-11.18,35.25-20.97,53.65c-1.91-3.96-3.52-5.84-3.7-7.86
			C1340.06,1429.75,1339,1405.64,1346.35,1382.08z M1450.51,2047.46c-2.6,27.03-5.45,54.04-8.24,81.05
			c-2.21,21.37-4.51,42.73-6.72,64.11c-0.71,6.82-0.9,13.72-1.95,20.49c-3.39,21.8-7.06,43.56-10.66,65.33
			c-3.85,23.25-7.71,46.5-11.64,69.74c-1.79,10.6-3.96,21.13-5.6,31.75c-2.78,17.98-5.55,35.97-7.83,54.02
			c-4,31.69-6.83,63.5-12.14,95.04c-3.76,22.35-5.23,45.07-8.22,67.55c-1.81,13.6-4.35,27.11-6.97,40.58
			c-4.78,24.61-9.73,49.18-14.88,73.72c-1.56,7.45-3.88,14.77-9.68,22.6c-1.35-9.67,0.94-17.08,2.18-24.47
			c1.08-6.44,3.69-12.62,4.94-19.04c2.28-11.7,4.1-23.49,6.01-35.26c4.15-25.62,8.61-51.2,12.22-76.9
			c2.65-18.9,4.07-37.97,6.18-56.95c2.61-23.44,5.16-46.89,8.11-70.29c1.98-15.68,4.57-31.29,6.94-46.92
			c2.36-15.63,4.73-31.25,7.2-46.86c0.65-4.12,1.74-8.18,2.47-12.29c0.38-2.13,0.74-4.26,1.1-6.4c1.11-6.62,1.66-9.93,2.43-14.76
			c1.87-11.68,5.33-30.91,9.54-56.26c6.16-37.07,6.93-46.63,7.72-52.16c0.87-6.18,1.16-12.44,1.8-18.66
			c0.94-9.18,1.89-18.35,2.93-27.52c1.18-10.38,2.54-20.74,3.68-31.12c3.8-34.76,5.22-69.64,5.15-104.59
			c-0.05-21.5,0.18-43-0.03-64.5c-0.09-9.53-0.95-19.05-1.51-28.57c-0.39-6.56-0.79-13.12-1.29-19.67
			c-2.56-33.02-5.1-66.04-7.76-99.06c-2.31-28.57-5.62-57.01-10.42-85.3c-5.75-33.88-14.11-67.17-22.18-100.52
			c-2.24-9.26-5.65-18.23-8.4-27.37c-1.46-4.85-2.55-9.81-4-14.66c-1.96-6.55-4.1-13.06-6.2-19.57c-0.55-1.69-1.55-3.29-1.82-5.01
			c-2.62-16.79-10.33-31.71-17.06-46.99c-5.17-11.75-10.4-23.48-15.53-35.24c-0.45-1.03-0.36-2.3-0.58-3.88
			c5.76-2.42,7.31,1.34,8.72,4.52c5.8,13.08,12.02,26.02,16.95,39.43c10.81,29.4,21.75,58.8,31.09,88.67
			c10.41,33.28,20.86,66.62,27.16,101.06c3.64,19.94,8.27,39.71,11.82,59.67c3.55,19.96,5.31,35.83,6.69,46.92
			c2.3,18.5,3.61,32.07,5.71,53.98c2.09,21.74,3.31,32.6,4.13,46.38c1.37,22.95,3.05,45.94,2.88,68.9
			C1454.8,2010.63,1452.28,2029.06,1450.51,2047.46z M1616.9,2277c12.05-22.32,27.03-35.35,32.03-39.52
			c7.54-6.28,14.49-10.28,28.4-18.28c16.16-9.29,30.78-15.94,40.78-20.05c1.11-0.45,2.3-0.76,3.31-1.36
			c17.5-10.37,36.47-9.41,55.73-7.83c25.1,2.06,50,0.94,74.68-5.1c10.94-2.67,22.41-3.15,33.65-4.55c0.79-0.1,1.67,0.46,2.76,0.79
			c1.15,6.25-2.22,11.11-5.53,15.43c-4.96,6.48-11.57,10.98-19.59,13.51c-13.2,4.17-26.27,6.19-40.38,4.77
			c-37.11-3.73-55.8-3.94-66.05-3.32c-23.41,1.43-40.92,7.4-50.76,10.84c-13.13,4.58-35.74,12.69-57.58,31.15
			c-27.84,23.52-39.25,51.01-41.62,49.65C1604.99,2302.14,1611.32,2287.33,1616.9,2277z M1603.59,2089.23
			c8.36-12.72,16.74-25.44,25.61-37.81c3.25-4.54,7.64-8.38,11.91-12.07c16.71-14.44,34.06-28.17,50.22-43.17
			c12.23-11.35,23.11-24.16,34.4-36.51c3-3.28,5.58-7.06,7.78-10.93c8.84-15.56,17.48-31.22,26.11-46.89
			c0.41-0.74,1.84-4.1,3.54-8.19c16.41-39.48,41.83-124.51,45.15-135.6c13.73-45.79,20.82-69.23,31.89-95.93
			c12.24-29.51,32.32-72.1,37.11-70.37c3.54,1.28-3.7,30.33-18.16,88.43c-14.81,59.5-22.15,79.83-24.34,86.81
			c-5.98,19.02-14.32,37.3-21.54,55.94c-7.32,18.9-14.65,37.8-21.81,56.77c-8.87,23.52-18.2,46.95-32.06,67.94
			c-14.46,21.9-30.64,42.61-50.93,59.72c-9.76,8.23-18.75,17.41-28.8,25.25c-7.95,6.21-16.99,11.01-25.53,16.47
			c-17.19,11.01-32.93,23.68-45.48,39.99c-3.22,4.19-6.63,8.23-11.06,11.72C1599.56,2096.92,1601.21,2092.84,1603.59,2089.23z
			 M1639.91,1857.46c6.72-30.72,10.62-46.08,10.11-67.04c-0.66-26.79-1.41-53.66-6.11-80.25c-1.8-10.19-2.12-20.88-1.44-31.23
			c1.21-18.42,3.34-36.81,5.73-55.13c2.6-19.91,9.04-38.85,15.72-57.71c7.5-21.18,11.3-43.28,15.79-65.21
			c1.06-5.2,2.63-10.45,4.9-15.23c4.04-8.5,6.88-17.7,14.62-25.03c0.11,2.75,0.57,5.54,0.28,8.25c-1.53,14.24-3.31,28.46-4.88,42.7
			c-1.63,14.83-2.86,29.71-4.73,44.5c-1.94,15.38-4.26,30.72-6.74,46.02c-5.06,31.23-10.25,62.42-10.08,94.23
			c0.13,23.06-3.17,45.76-8.08,68.29c-3.87,17.77-2.83,13.52-15.66,75.38c-7.65,36.91-10.13,50.33-17.79,71.13
			c-7.49,20.35-16.37,38.08-17.6,37.6C1612.2,1948.06,1628.03,1911.78,1639.91,1857.46z M1541,1574.58
			c2.83-18.05,3.8-36.11,3.45-54.39c-0.25-12.78,1.3-25.59,5.77-37.78c0.72-1.95,1.37-4.1,2.68-5.62c1.38-1.61,3.51-2.58,5.31-3.84
			c1.23,1.88,3.47,3.74,3.51,5.64c0.17,8.02,0.02,16.09-0.65,24.09c-1.34,16.02-3.4,31.98-4.6,48.01
			c-1.43,19.2-5.46,37.65-13.95,55.02c-0.23,0.46-0.88,0.72-2.39,1.88C1538.37,1595.79,1539.35,1585.1,1541,1574.58z
			 M1499.07,1495.39c18.43,26.53,26.63,56.54,31.2,89.06C1501.85,1560.24,1499.13,1528.28,1499.07,1495.39z M1530.75,1542.14
			c-8.18-22.46-7.01-46.28-10.07-69.47c-0.77-5.81,0.29-11.87,0.68-17.8c0.26-4.03,2.03-7.33,5.42-10.01
			c1.2,0.57,1.62,0.64,1.71,0.84c5.51,13.08,11.83,25.89,10.63,40.8c-1.26,15.72-2.12,31.48-2.98,47.23
			c-0.36,6.66-0.3,13.34-0.43,20c-0.6,0.06-1.19,0.11-1.79,0.17c-0.56-1.29-1.31-2.53-1.63-3.87
			C1531.67,1547.42,1531.66,1544.63,1530.75,1542.14z M1535.18,1630.51c4.11,8.14,5.16,15.61,4.07,24.79
			c-1.67,14.04,0.09,28.49,0.51,42.76c0.15,5.05,0.66,10.08,0.98,15.13c1.44,23.17,2.88,46.35,4.29,69.52
			c0.8,13.08,1.9,26.17,2.11,39.26c0.07,4.21-2.27,8.46-3.93,14.11C1537.64,1804.09,1528.14,1656.52,1535.18,1630.51z
			 M1543.88,1945.25c-4.6,12.19-7.35,24.9-12.37,36.88c-2.38,5.69-3.96,10.25-6.46,15.75c-6.57,14.5-12.78,23.62-32.86,53.11
			c-5.37,7.89-10.75,15.78-16.12,23.68c2.19-5.52,4.12-11.16,6.6-16.55c15.02-32.62,26.93-66.35,35.95-101.08
			c1.79-6.91,2.23-14.16,3.92-21.11c2.39-9.81,5.12-19.56,8.12-29.21c6.9-22.22,13.6-44.52,21.23-66.49
			c8.07-23.25,20.76-44.12,35.06-63.99c0.88,0.15,1.77,0.3,2.65,0.46c-0.33,4.28-0.02,8.73-1.1,12.81
			c-3.05,11.54-6.79,22.89-10.04,34.38c-5.43,19.24-10.61,38.54-16.01,57.78C1556.49,1902.94,1551.65,1924.65,1543.88,1945.25z
			 M1556.39,2010.73c1.45,18.07,1.68,36.25,2.11,54.39c0.07,3-1.58,6.05-2.43,9.08c-0.73-0.07-1.45-0.14-2.18-0.21
			c-0.75-15.39-1.43-30.79-2.25-46.18c-0.94-17.54-1.96-35.07-3.03-52.59c-0.42-6.87-0.14-13.54,4.3-21.31
			c0.76,3.36,1.66,5.21,1.51,6.95C1552.94,1977.58,1555.06,1994.11,1556.39,2010.73z M1569.38,2218.64
			c2.7,31.16,5.27,62.34,7.46,93.54c1.05,14.85,1.06,29.78,1.66,44.67c0.57,14.31,1.25,28.62,1.96,42.92
			c0.87,17.57,1.89,35.14,2.72,52.72c0.02,0.44,0.02,0.88,0.04,1.32c13.07,100.91,26.14,201.81,39.2,302.72
			c-3.56-2.87-8.16-7.5-10.65-14.35c-1.08-2.97-1.18-5.27-1.79-8.06c-1.63-7.49-3.19-15-4.82-22.5
			c-3.61-16.63-6.35-33.34-7.45-50.39c-0.96-14.85-3.4-29.61-5.06-44.42c-0.53-4.74-0.57-9.53-0.96-14.29
			c-2.53-31.06-5.75-72.35-7.2-88.25c-1.25-13.74-2.71-31.3-4.16-52.96c-0.24-1.28-0.43-2.56-0.5-3.85
			c-0.47-8.07-0.85-16.14-1.23-24.21c-0.45-7.96-0.89-16.34-1.32-25.16c-0.16-2.61-0.33-5.22-0.51-7.82
			c-1.75-24.67-3.87-49.32-6.13-73.95c-2.43-26.42-5.39-52.8-7.77-79.23c-2.09-23.14-3.82-46.31-5.47-69.48
			c-0.51-7.12-0.46-14.31-0.23-21.45c0.09-2.81,1.37-5.57,3.64-8.41c0.49,1.43,1.24,2.83,1.42,4.3c0.77,6.2,1.36,12.42,2.03,18.63
			C1565.98,2186.66,1567.99,2202.62,1569.38,2218.64z M1721.47,1739.84c0,0-36.81,117.79-70.96,175.14
			c-3.46,5.82-11.13,18.18-20.86,36.53c-13.29,25.04-26.03,50.37-36.22,76.87c-7.92,20.62-15.35,41.43-23.61,61.9
			c-5.56,13.79-9.37,28.19-16.36,41.57c-4.72,9.04-6.8,19.8-8.38,30.05c-2.72,17.65-4.03,35.52-6.13,53.27
			c-1.75,14.8-4.01,29.55-5.64,44.36c-2.46,22.24-4.55,44.52-6.83,66.78c-0.4,3.86-0.76,7.74-1.45,11.55
			c-5.9,32.4-7.86,65.17-9.34,98c-1,22.06-2.21,44.12-4.04,66.12c-2.2,26.47-4.83,52.91-7.87,79.29
			c-2.69,23.42-5.65,46.84-9.5,70.09c-3.36,20.3-7.71,40.47-12.43,60.5c-2,8.48-6.09,16.48-9.23,24.69
			c-0.62-0.15-1.24-0.3-1.86-0.44c0.32-5.84,0.35-11.71,1.02-17.51c2.91-25.21,5.84-50.42,9.09-75.59
			c2.82-21.9,6.22-43.73,9.06-65.63c1.53-11.83,2.29-23.77,3.64-35.63c1.53-13.4,3.17-23.2,3.68-26.57
			c4.99-32.7,10.16-81.83,13.11-115.25c3.85-43.69,2.62-40.15,5.97-80.37c1.88-22.59,4.44-45.13,6.69-67.69
			c1.18-11.87,2.04-23.78,3.56-35.6c6.26-48.62,22.35-95.71,22.35-95.71c1.76-5.04,8.52-21.76,22.06-55.19
			c6.78-16.74,10.02-25.18,12.89-31.49c9.5-20.88,19.06-41.74,29.2-62.32c8.83-17.92,18.38-35.5,27.81-53.13
			c7.31-13.67,15.68-26.82,22.18-40.85c8.64-18.66,15.87-37.97,23.82-56.95c2.76-6.6,6.32-12.91,8.7-19.63
			c8.77-24.7,15.69-43.53,19.38-56.55c10.65-37.52,17.35-62.22,20.43-73.25c16.19-57.97,35.04-105.24,36.15-104.87
			c0.88,0.29-8.94,30.87-35.31,122.12C1722.03,1737.58,1724.79,1729.01,1721.47,1739.84z M1741.23,1526.32
			c5.61,3.49,9.92,5.91,13.91,8.79c1.25,0.9,2.19,2.97,2.31,4.58c0.75,10.64,1.24,21.31,1.82,32.05
			C1752.53,1566.22,1742.45,1541.9,1741.23,1526.32z M1777.42,1531.61c-1.12,4.42-0.67,9.56-5.53,13.2
			c-3.43-4.82-4.7-10.09-4.46-15.25c0.54-11.87,1.86-23.7,2.9-35.54c0.1-1.18,0.14-2.59,0.79-3.45c1.31-1.73,3.06-4.42,4.56-4.38
			c1.69,0.05,4.03,2.38,4.79,4.24c1.2,2.95,1.59,6.33,1.85,9.56C1783.21,1510.9,1780.05,1521.23,1777.42,1531.61z M1809.4,1403.39
			c-9.07-1.04-17.73-1.39-26.09-3.14c-10.07-2.1-17.34-9.02-23.47-16.89c-3.45-4.44-6.36-9.33-9.23-14.18
			c-3.08-5.19-1.36-8.58,4.48-9.2c18-1.9,33.51,3.31,46.18,16.44C1807.44,1382.81,1810.47,1392.11,1809.4,1403.39z M1822.74,1397.54
			c0.68,0.15-6.38,34.66-9.6,50.4c-4.59,22.45-6.55,30.4-8,36c-3.96,15.29-7.97,27.73-10.91,36.28c-0.35-0.17-0.69-0.35-1.04-0.52
			C1815.86,1422.14,1822.16,1397.41,1822.74,1397.54z M1816.36,1504.22c4.82-7.72,11.84-14.12,18.22-20.78
			c2.11-2.21,5.34-3.35,8.82-5.44c1.09,7.18-1.13,12.53-3.89,17.2c-6.36,10.75-13.12,21.31-20.34,31.51
			c-6.72,9.48-14.17,18.45-21.44,27.53c-3.66,4.57-7.34,9.37-14.48,9.25c0.13-1.14-0.03-2.1,0.35-2.76
			C1794.41,1541.83,1804.83,1522.68,1816.36,1504.22z M1821.91,1356.93c-0.34,4.14-1,8.25-1.62,13.24
			c-3.34-10.1-6.14-18.87-9.16-27.57c-2.63-7.58-5.21-15.19-8.35-22.56c-4.67-10.96-2.64-21.58,0.74-32.25
			c0.27-0.85,0.44-1.91,1.04-2.44c1.69-1.48,3.63-3.84,5.38-3.76c1.6,0.07,3.82,2.62,4.46,4.51c1.52,4.49,2.41,9.22,3.3,13.9
			C1821.26,1318.82,1823.47,1337.75,1821.91,1356.93z M1830.19,1371.11c0-2.59-0.11-5.18,0.02-7.76c0.42-8.31,1.51-16.63,1.29-24.93
			c-0.41-16.06,3.28-31.25,8.48-46.21c0.68-1.96,1.32-4.05,2.51-5.7c4.84-6.65,7.17-14.27,9.38-22.05c0.99-3.5,3.15-6.67,5.56-11.59
			c3.41,7.22,2.28,12.82,1.78,18.1c-0.9,9.47-2.58,18.87-3.94,28.29c-0.04,0.29,0,0.64-0.13,0.88c-7.55,13.83-6.01,29.54-8.87,44.32
			C1844.19,1355.37,1838.14,1363.26,1830.19,1371.11z M1862.35,1329.81c3.95-13.37,12.03-23.69,23.72-31.17
			c1.47-0.94,3.27-1.48,5-1.86c5-1.11,7.62,0.79,7.09,6.02c-0.65,6.48-1.57,13.06-3.44,19.28c-5.61,18.71-17.61,33.49-29.88,48.24
			c-7.01,8.42-15.95,11.53-27.5,14.2c3.15-5.49,5.06-10.14,8.1-13.87C1855.2,1358.67,1858.15,1344.02,1862.35,1329.81z
			 M1862.04,1154.3c-7.32-6.48-14.79-12.8-22.01-19.39c-9.02-8.23-17.99-16.52-26.65-25.13c-1.86-1.85-2.27-5.16-3.76-8.79
			c6.89-1.36,11.45,0.06,15.23,3.03c13.58,10.66,27.66,20.76,37.84,35.16c4.15,5.87,6.26,11.9,4.82,20.43
			C1865.17,1157.32,1863.67,1155.74,1862.04,1154.3z M1863.54,1247.14c0.4-5.33,1.06-11.87,2.24-19.3
			c3.9-24.57,11.29-45.73,12.16-45.5C1878.62,1182.52,1876.02,1195.9,1863.54,1247.14z M1873.31,1088.98
			c-9.51-3.63-16.05-9.08-20.09-17.02c-3.22-6.32-5.82-13-8.2-19.69c-2.69-7.55-5.27-15.2-7.09-22.99
			c-1.19-5.11-1.72-10.63-1.17-15.82c0.67-6.37,7.08-8.66,11.93-4.45c3.3,2.86,6.82,6.28,8.39,10.2
			c6.17,15.43,12.01,31.02,17.11,46.83C1876.44,1073.03,1875.35,1080.62,1873.31,1088.98z M1891.29,1148.99
			c9-16.61,20.74-31.18,34.18-44.41c6.07-5.98,12.96-9.05,21.72-6.99c1.69,7.7-1.63,13.41-5.14,18.88
			c-4.5,7.01-8.86,14.22-14.22,20.55c-10.09,11.91-22.44,21.16-36.71,27.68c-1.52,0.7-3.33,0.77-6.79,1.52
			C1886.95,1159.61,1888.57,1154,1891.29,1148.99z M1923.34,697.25c1.53-10.89,7.56-18.9,15.87-27.35
			c3.05,13.76-6.23,66.26-12.55,76.25c-3.18-6.84-6.89-13.8-9.68-21.12c-2.26-5.93,0.44-11.6,2.77-17.13
			C1921.2,704.45,1922.83,700.9,1923.34,697.25z M1935.66,520.84c0.83-0.67,1.55-1.19,2.04-1.53c3.94,12.49-16.74,73.68-29.82,87.98
			c-3.96-5.52-3.22-11.92-3.68-17.88c-0.33-4.25,0.92-7.59,1.71-10.35c3.87-13.62,8.19-16.68,14.49-31.44
			C1925.42,535.87,1926.92,527.9,1935.66,520.84z M1913.94,619.94c0.61,0.03,0.33,5.2,1.17,23.62c0.18,3.92,0.2,14.85,0.2,36.72
			c0,6.29-1.53,12.06-6.91,18.71c-0.27-2.26-0.6-5.52-0.81-9.45c-0.69-12.88,0.48-22.28,1.55-31.21
			C1912.77,627.9,1913.18,619.9,1913.94,619.94z M1894.86,604.37c-17.85-12.19-28.58-47.06-19.05-61.75
			c5.73,0.57,8.85,4.66,10.53,9.42c2.26,6.41,3.97,13.08,5.14,19.77c1.69,9.65,2.73,19.42,3.95,29.14
			C1895.57,601.99,1895.1,603.09,1894.86,604.37z M1892.97,541.52c-0.61-1.63-1.17-3.45-1.09-5.15c0.74-16.66,1.43-33.32,2.58-49.95
			c0.4-5.78,2.04-11.48,3.14-17.37c5.85,0.86,7.8,4.2,8.72,8.04c1.11,4.62,2.22,9.37,2.32,14.08c0.37,18.21,0.47,36.42,0.39,54.63
			c-0.03,6.31-2.42,12.03-6.42,18.25c-1.37-2.59-2.41-4.25-3.15-6.03C1897.23,552.55,1895.04,547.05,1892.97,541.52z
			 M1893.35,863.97c-11.84-5.48-22.36-11.34-28.42-21.92c-9.27-16.18-14.31-33.95-15.97-52.6c-0.13-1.48-0.2-3,0-4.46
			c0.57-4.27,2.62-5.77,6.68-4.94c1.15,0.24,2.35,0.61,3.34,1.23c13.74,8.6,25.05,19.11,28.14,36.06c2.03,11.1,4.34,22.16,6.13,33.3
			C1893.88,854.57,1893.35,858.69,1893.35,863.97z M1892.73,747.12c-5.45-0.08-8.64-3.31-10.23-8.14c-1.95-5.92-4.01-11.89-5.05-18
			c-2.67-15.83-4.91-31.74-7.08-47.65c-0.54-3.99-0.99-8.37,3.37-11.03C1887.47,672.82,1900.52,731.09,1892.73,747.12z
			 M1900.75,826.35c-3.05-19.84-6-30.04-4.73-39.72c1.95-14.96,1.35-30.43,9.08-44.18c1.04-1.85,2.51-3.46,5.05-6.91
			c1.83,4.88,3.26,7.69,3.93,10.67c2.21,9.85,4.19,19.75,6.11,29.66c0.16,0.85,0,2.82-0.18,5.26c-1.08,15.05-6.95,26.09-8.48,29.21
			c-3.99,8.14-7.67,22.05-5.6,47.2C1904.6,850.06,1902.75,839.33,1900.75,826.35z M1908.58,872.38c6.76,0.11,8.06,0.64,8.08,6.26
			c0.04,9.47-0.8,18.94-1.27,28.41c-0.45,9.17-0.75,18.35-1.39,27.5c-0.32,4.53,0.73,9.71-5.22,13.35
			c-0.17-2.42-0.47-4.24-0.38-6.05c0.93-19.89,2.04-39.77,2.76-59.67C1911.27,879.18,1909.62,876.13,1908.58,872.38z
			 M1926.46,1001.46c1.01-4.21,3-8.41,5.42-12.02c5.28-7.9,11.08-15.46,16.79-23.07c1.02-1.36,2.6-2.31,4.61-4.05
			c3.64,4.64,4.39,8.83,3.54,13.39c-2.02,10.91-5.45,21.19-11.76,30.56c-6.47,9.61-12.06,19.8-18.27,29.59
			c-1.97,3.11-4.7,5.74-8.6,7.82c0.08-1.59-0.04-3.21,0.27-4.75C1921.05,1026.42,1923.48,1013.87,1926.46,1001.46z M1920.48,967.48
			c-1.86,25.94-6.23,51.43-14.28,76.2c-2.95,9.05-6.38,17.94-9.67,26.88c-1.98,5.37-2.19,5.53-7.23,9.22
			c-0.33-0.45-0.97-0.91-0.95-1.35c0.32-9.21,0.13-18.48,1.2-27.6c1.87-15.95,4.31-31.84,6.91-47.69
			c2.5-15.25,9.56-28.71,17.6-41.68c0.71-1.14,2.19-1.8,3.52-2.84C1921.36,960.97,1920.71,964.37,1920.48,967.48z M1915.54,859.14
			c-1.48-9.49-2-22.1,1.7-36.64c0.14-0.54,0.28-1.35,0.78-2.9c3.99-12.43,8.15-24.81,12.47-37.13c2.51-7.17,6.94-13.03,13.49-17.56
			c3.97,2.04,3.4,4.71,2.81,7.38c-5.4,24.53-12.19,35.65-12.95,36.88C1927.92,818.77,1920.64,834.16,1915.54,859.14z
			 M1983.51,829.33c-17.27,11.04-34.84,21.48-54.29,28.34c-1.27,0.45-2.57,0.84-4.41,1.43c3.66-7.2,7.03-13.56,10.15-20.06
			c1.54-3.21,3.09-6.54,3.79-9.99c1.4-6.87,5.76-9.42,12.14-11.22c9.01-2.53,17.62-2.42,26.26,0.7c2.47,0.89,4.95,2.13,7,3.76
			C1987.26,824.76,1986.88,827.18,1983.51,829.33z"/>
	</g>
</g>
</svg>
