<?xml version="1.0" encoding="utf-8"?>
<!-- Generator: Adobe Illustrator 24.0.1, SVG Export Plug-In . SVG Version: 6.00 Build 0)  -->
<svg version="1.1" id="Слой_1" xmlns="http://www.w3.org/2000/svg" xmlns:xlink="http://www.w3.org/1999/xlink" x="0px" y="0px"
	 viewBox="0 0 3000 3000" style="enable-background:new 0 0 3000 3000;" xml:space="preserve">
<style type="text/css">
	.st0{fill:none;}
	.st1{fill:#45482A;}
</style>
<rect class="st0" width="3000" height="3000"/>
<g>
	<g>
		<path class="st1" d="M2012.02,1895.68c1.09-4.18,0.39-7.33-0.09-10.72c-0.62-4.4-0.28-11.28,0.4-25.02
			c0.37-7.43,0.75-6.33,1.12-16.28c0.24-6.38,0.4-12.79,0.14-19.16c-0.17-4.1-0.44-8.46-1.96-12.18c-2.7-6.62-3.53-13.41-4.07-20.38
			c-0.33-4.3,0.46-8.19,2.62-11.93c2.07-3.58,4.01-7.24,5.78-10.97c2.32-4.91,1.94-10.3,2.5-15.53c0.92-8.63-1.12-16.84-5.65-23.72
			c-4.71-7.15-8.67-14.78-14.55-21.37c-8.37-9.39-16.24-19.14-26.24-26.9c-0.72-0.56-1.34-1.32-1.85-2.09
			c-1.65-2.51-3.18-5.1-4.85-7.59c-1.52-2.26-2.39-4.54-2.36-6.93c0.03-2.38,0.95-4.09,1.23-4.7c3.47-7.5-7.76-27.48-19.12-37.13
			c-1.43-1.22-5.99-5.28-11.39-9.12c-5.32-3.77-9.97-8.38-16.27-10.92c-11.23-4.52-22.72-7.9-34.62-9.99
			c-1.85-0.33-3.71-0.64-5.54-1.05c-13.77-3.12-27.82-3.96-41.83-5.07c-5.26-0.42-10.52-0.88-15.76-1.49
			c-3.07-0.36-5.59-1.83-7.92-3.99c-1.7-1.58-3.98-2.99-6.22-3.43c-8.6-1.71-17.27-1.23-25.84,0.45c-6.26,1.22-12.42,2.95-18.7,4.06
			c-7.01,1.23-13.48,3.77-19.31,7.69c-7.45,5.02-14.55,10.57-21.98,15.64c-7.78,5.3-15.65,10.47-23.7,15.34
			c-3.87,2.34-8.12,4.22-13.56,5.04c0.63-2.13,0.85-3.39,1.38-4.53c1.1-2.39,2.54-4.63,3.51-7.06c8.8-22.09,23.86-30.21,23.86-30.21
			c6.47-5.69,12.91-9.67,25.8-17.64c3.99-2.46,5.23-3.33,6.27-3.63c8.63-2.56,17.43-4.57,26.04-7.2
			c6.99-2.14,13.84-4.52,18.09-11.48c6.43-10.51,8.54-9.85,17.46-17.49c10.28-8.81,20.29-13.35,26.72-16.21
			c4.24-1.89,10.99-4.95,20.18-6.79c4.23-0.84,8.71-0.4,13.09-1.74c2.9-0.89,6.34-0.22,9.52,0.04c6.18,0.51,25.61,0.79,41.71-1.38
			c0,0,25.86-3.49,51.47-18.04c4.75-2.7,7.18-4.84,8.92-5.96c7.39-4.8,13.69-10.23,16.32-19.35c1.85-6.41,7.24-10.65,13.06-13.45
			c7.88-3.79,15.27-8.25,21.8-13.95c8.3-7.26,17.35-13.32,27.2-18.15c3.86-1.89,6.94-2.78,7.75-3.05
			c4.02-1.34,38.43-13.53,37.4-21.26c-0.64-4.76-14.76-8.14-25.43-10.68c-0.37-0.09-0.75-0.17-1.51-0.35
			c-19.32-4.43-24.67-4.65-36.76-7.8c-5.42-1.41-8.03-2.93-12.28-3.69c-7.74-1.38-14.55-4.31-18.99-10.96
			c-3.51-5.25-8.07-8.82-13.83-11.08c-8.81-3.47-18.05-5.39-27.31-7.02c-4.61-0.81-9.38-0.78-14.09-0.95
			c-9.95-0.38-19.92-0.42-29.85-1.09c-2.82-0.19-6.25-1.37-8.11-3.32c-3.16-3.32-6.74-4.55-10.96-5.05
			c-2.05-0.24-4.06-0.84-6.11-1.09c-3.89-0.48-7.83-1.31-11.7-1.12c-5.8,0.28-11.55,1.37-17.34,2.02
			c-17.08,1.91-33.84,5.34-50.04,11.08c-11.89,4.22-23.66,8.77-35.36,13.5c-10.65,4.31-21.17,8.95-31.66,13.64
			c-9.6,4.29-10.84,3.21-17.65,5.64c-7.69,2.74-39.89,14.68-59.01,44.3c-3.38,5.23-5.39,9.87-6.77,12.35
			c-6.42,11.6-8.73,24.45-10.76,37.25c-1.64,10.36-1.98,20.87-0.25,31.39c1.58,9.64,2.44,19.34,5.09,28.85
			c4.4,15.79,7.53,31.89,9.09,48.23c0.83,8.75-1.01,17.28-3.73,25.48c-2.77,8.38-7.13,16.1-11.1,24.01
			c-7.59,15.1-15.17,30.29-19.99,46.62c-0.39,1.34-1.25,2.54-2.57,5.12c-12.69-28.45-22.06-52.11-28.6-69.51
			c-12.68-33.74-10.27-28.78-15.47-42.97c-2.26-6.17-10.09-28.79-12.2-35.79c-6.11-20.2-3.7-39.53-0.93-61.71
			c2.71-21.73,7.44-34.22,9.32-38.89c5.24-12.97,10.67-20.08,12.15-22.24c4.78-6.97,11.78-11.98,17.95-17.48
			c6.91-6.16,15.42-11.15,24.04-14.63c13.15-5.29,23.29-14,31.45-24.84c10.99-14.6,25.75-23.04,42.48-28.46
			c14.3-4.63,28.92-8.15,42.82-14.11c9.07-3.89,17.2-9.29,25.73-14.05c0.8-0.45,1.4-1.24,2.11-1.86c2.82-2.48,5.79-4.82,8.44-7.48
			c3.03-3.04,6.2-6.09,8.55-9.63c6.38-9.63,13-19.14,18.16-29.52c2.57-5.16,4.18-10.59,7.65-21.07
			c5.33-16.06,8.55-27.79,12.28-41.41c4.9-17.88,7.08-27.09,7.82-36.39c0.25-3.15,0.36-6.78,1.26-12.7
			c1.35-8.87,2.55-9.84,1.99-13.76c-0.71-4.99-3.06-9.67-6.9-14.02c-3.56-4.03-6.02-8.26-7.53-12.69
			c-2.89-8.51-1.94-16.37-0.5-23.08c10.71-49.91,15.7-58.24,11.41-69.97c-1.03-2.82-2.36-9.41-5.1-18.49
			c-1.5-4.99-2.09-9.88-0.53-14.99c2.8-9.2,5.04-18.59,8.23-27.65c2.46-7,2.88-14.01,2.16-21.16c-0.91-9.03-8.23-13.27-16.53-9.87
			c-0.7,0.29-1.35,0.67-2.02,1.02c-14.46,7.72-28.49,16.14-41.78,25.76c-5.74,4.16-10.69,9.28-16.66,13.25
			c-4.79,3.18-8.92,7.5-12.92,11.72c-6.81,7.17-16.11,10.29-24.11,15.5c-3.57,2.33-7.87,2.18-11.83,3.21
			c-12.21,3.17-23.28,8.7-32.07,18.07c-2.69,2.87-5.31,5.8-7.87,8.79c-1.59,1.85-3.09,3.79-4.49,5.79
			c-5.49,7.86-10.86,15.8-16.39,23.63c-4.77,6.76-9.58,13.49-14.58,20.08c-2.04,2.69-4.04,3.77-5.71,5.23
			c-6.92,6.04-22.95,20.02-31.92,40.85c-2.39,5.55-3.86,10.06-5.59,17.18c-1.99,8.2-2.83,16.71-5.14,24.81
			c-4.76,16.69-8.07,33.67-11.23,50.7c-0.27,1.46-0.76,2.9-1.33,4.27c-1.23,2.95-2.74,5.8-3.84,8.79c-1.16,3.14-3.13,5.41-5.68,7.54
			c-2.4,2-4.87,4.34-6.25,7.07c-2.53,5.02-4.49,10.36-6.29,15.7c-3.35,9.92-3.57,20.33-4.44,30.65
			c-1.46,17.37-1.39,34.65,2.42,51.71c2.13,9.53,5.11,18.87,7.35,28.39c2.8,11.88,3.69,24.02,0.12,35.78
			c-4.64,15.32-10.31,30.32-15.33,45.53c-3.47,10.51-8.25,20.71-8.47,32.1c-0.01,0.43-0.54,0.84-1.21,1.82
			c-0.8-2.16-1.6-3.81-2.02-5.55c-3.53-14.7-9.03-28.74-14.18-42.89c-5.66-15.57-11.56-31.06-17.37-46.58
			c-2.57-6.88-3.05-7.58-4-10.43c-2.49-7.42-6.59-21.92-6.69-40.39c-0.07-12.11,1.62-21.03,3.29-29.73
			c4.26-22.12,13.03-42.85,21-63.81c5-13.14,6.55-15.44,8.56-22.85c1.8-6.65,5.83-21.98,4.12-38.7
			c-1.75-17.02-7.5-16.66-13.36-37.25c-7.13-25.05,0.21-29.92-7.32-61.45c-1.05-4.39-4.15-13.28-10.17-31.12
			c-3.98-11.78-9.7-22.47-16.75-32.55c-1.09-1.56-2.07-1.8-5.74-5.21c-6.76-6.28-11.42-10.77-15.93-16.98
			c-6.75-9.28-10.24-18.64-13.22-26.66c-1.03-2.77-0.99-3.17-1.87-5.33c-5.41-13.17-13.89-24.5-21.56-36.34
			c-5.92-9.13-15-14.71-22.7-21.83c-2.55-2.35-6.12-3.62-9.3-5.26c-5.56-2.87-11.73-2.4-17.69-3.08
			c-7.09-0.81-14.42,0.21-21.25-2.47c-4.55-1.79-8.82-4.41-13.46-5.83c-11.53-3.53-18.57-12.35-26.13-20.79
			c-10.05-11.21-20.13-22.42-30.76-33.07c-6.72-6.74-15.1-11.23-24.65-13.12c-2.57-0.51-5.22-1.01-7.59-2.08
			c-13.91-6.28-27.29-13.52-39.68-22.52c-4.5-3.27-13.08,0.44-13.49,5.94c-0.33,4.29-0.57,8.87,0.57,12.92
			c2.74,9.75,1.07,19.58,0.7,29.2c-0.48,12.59-2.35,9.36-5.54,33.36c-1.9,14.31-2.31,23.64,0.42,34.32
			c0.19,0.75,0.01,0.56,2.59,8.07c3.78,11.02,5.74,22.59,10.69,33.28c3.71,8.01,6.59,16.41,9.9,24.61c1.12,2.78,2.52,5.45,3.62,8.24
			c2.01,5.08,0.66,10.44,1.11,15.64c0.46,5.22,0.52,10.64,2.07,15.57c1.95,6.21,4.62,12.37,8.05,17.89
			c7.93,12.8,16.49,25.21,24.84,37.75c0.62,0.93,1.49,1.71,2.35,2.44c10.39,8.96,20.8,17.92,31.24,26.83c0.83,0.71,2,1,2.95,1.58
			c1.42,0.86,2.82,1.77,4.19,2.71c6.29,4.33,8.88,11.55,13.31,17.33c0.9,1.18,1.21,3.29,0.92,4.81c-1.3,7,0.77,13.16,4.66,18.69
			c4.42,6.29,9.16,12.37,13.99,18.35c13.2,16.32,30.29,27.45,48.96,36.46c4.22,2.04,8.35,4.3,12.44,6.6
			c14.92,8.39,25.84,20.85,33.89,35.58c8.61,15.76,14.51,32.73,18.4,50.29c3.23,14.59,8.15,28.59,13.38,42.66
			c-1.84-1.51-3.51-3.19-5.1-4.95c-7.37-8.16-12.81-14.25-13.75-15.41c-14.91-18.44-61.34-32.04-78.42-68.23
			c-3.38-7.17-5.25-14.44-12.79-27.4c-3.33-5.73-8.37-14.26-17.02-23.65c-2-2.17-10.11-10.81-23.33-19.57
			c-2.37-1.57-28.79-18.77-52.71-20c-3.03-0.16-6.68-0.27-6.68-0.27c-8.37-1.22-16.72-1.81-25.17-0.55
			c-2.15,0.32-4.63,0.2-6.61-0.58c-4.54-1.78-9.14-3.68-13.22-6.3c-5.02-3.23-10.42-4.25-16.11-4.38
			c-8.28-0.2-16.58-0.41-24.86-0.16c-7.73,0.23-9.24,2.15-26.6,6.6c-5.62,1.44-10.24,2.52-19.49,4.68
			c-28.5,6.66-32.16,6.71-42.28,9.57c-2.41,0.68-9.69,2.77-19.98,5.23c-1.87,0.45-1.53,0.29-2.18,0.52
			c-8.48,2.97-16.83,5.96-24.9,10.25c-11.74,6.24-21.43,14.41-29.84,24.42c-1.94,2.3-4.58,4.35-5.6,7.01
			c-1.7,4.43-5.17,6.35-8.93,8.01c-5.15,2.27-10.41,4.3-15.72,6.16c-11.99,4.19-20.66,11.9-26.25,23.35
			c-3.05,6.24-6.05,12.77-10.42,18.05c-9.58,11.59-19.36,23.14-32.84,30.7c-4.93,2.77-5.61,7.57-2.74,12.27
			c3.49,0,8.92,0.21,15.43,1.4c16.11,2.95,18.08,8.12,36.44,12.66c8.78,2.17,13.02,0.9,20.59,5.28c3.68,2.13,7.29,3.63,11.4,4.46
			c4.02,0.8,7.92,2.16,11.89,3.21c1.27,0.34,2.57,0.56,3.88,0.71c7.67,0.86,15.34,1.64,23.01,2.51c13.57,1.55,27.03,1.49,40.4-1.87
			c6.75-1.7,13.67-2.71,20.48-4.17c6.24-1.34,12.43-2.91,18.65-4.32c4.94-1.12,9.87-2.87,14.85-3.07c8.84-0.35,17.24,1.29,23.15,9.1
			c1.11,1.47,3.25,2.55,5.1,2.97c2.33,0.52,4.86,0.3,7.29,0.17c6.57-0.34,13.14-1.17,19.71-1.15c14.86,0.03,28.57-4.1,41.83-10.43
			c9-4.3,18.14-8.33,27.3-12.28c10.38-4.47,20.82-8.79,31.29-13.03c2.39-0.97,4.98-1.67,7.54-1.96c4.86-0.55,9.76-0.89,14.65-0.99
			c11.93-0.25,23.79,0.03,34.31,6.94c1.08,0.71,2.44,0.99,3.64,1.54c2,0.93,4.02,1.83,5.93,2.91c3.75,2.13,7.39,4.47,11.16,6.57
			c10.82,6.03,22.91,8.57,34.57,12.24c4.78,1.5,9.93,1.81,14.87,2.85c2.19,0.46,4.32,1.26,6.41,2.09c0,0,4.31,1.58,8.81,3.77
			c27.6,13.42,50.37,34.3,50.37,34.3c6.07,5.57,10.93,9.87,16.15,17.03c6.02,8.24,17.31,26.38,13.57,29.81
			c-2.36,2.16-9.49-2.66-15.92-6.24c-10.89-6.06-37.81-10.52-91.2-19.18c-20.9-3.39-28.66-4.26-39.03-9.47
			c-7.24-3.64-14.46-7.18-21.94-10.29c-11.99-4.98-24.29-8.91-36.93-11.8c-5.12-1.17-10.33-1.98-15.49-2.98
			c-7.65-1.48-15.21-1.93-22.91,0.18c-4.11,1.12-8.58,0.87-12.83,1.55c-6.67,1.07-13.59,1.62-19.85,3.9
			c-4.51,1.64-8.18,1.41-11.36,1.91c-3.12,0.49-15.04,2.3-41.42,4.6c-11.69,1.02-10.91,0.79-15.99,1.37
			c-10.83,1.22-17.78,2.61-27.44,4.33c-24.04,4.29-20.53,2.73-30.44,4.94c-8.68,1.94-15.01,4.07-19.58,5.58
			c-21.09,6.95-31.63,10.43-41.39,18.31c-6.52,5.26-5.87,6.93-21.74,28.59c-17.99,24.56-16.94,19.86-23.13,29.93
			c-17.37,28.23-20.49,57.13-18.26,67.64c0.17,0.81,1.56,3.3,0.68,6.39c-1.69,5.97-3.46,12.01-6.09,17.61
			c-3.69,7.85-5.39,16.03-6.17,24.54c-0.36,3.93-0.49,7.97-1.53,11.74c-2.4,8.7-0.92,16.76,2.88,24.66c0.72,1.5,1.84,3.28,1.58,4.72
			c-1.54,8.61-0.24,17.75-5.21,25.76c-1.85,2.98-2.72,6.61-3.82,10.01c-1.1,3.4,0.09,5.71,3.45,8.08c2.63,1.86,4.5,0.52,6.55-1.06
			c1.62-1.26,3.45-2.24,5.2-3.33c2.23-1.38,4.54-2.66,6.71-4.13c7-4.77,13.93-9.64,20.95-14.38c1.06-0.72,2.39-1.21,3.66-1.41
			c7.98-1.26,15.95-2.84,23.99-3.49c9.4-0.77,18.26-2.4,25.63-8.87c1.38-1.21,3.29-1.82,4.93-2.76c2.78-1.59,5.68-3.02,8.29-4.87
			c7.51-5.33,14.48-11.42,22.95-15.33c6.99-3.22,13.84-6.74,20.86-9.92c3.42-1.55,7.05-2.62,10.6-3.89
			c8.16-2.9,16.38-3.86,24.97-1.72c3.76,0.94,7.94,1.62,11.67,0.94c11.04-2.01,21.96-4.67,32.88-7.28c2.13-0.51,4.31-1.64,5.98-3.06
			c6.3-5.35,12.73-10.44,19.5-15.25c10.73-7.61,20.98-15.83,32.7-22.03c4.03-2.13,7.67-2.87,11.8-1.32
			c4.4,1.65,8.81,0.92,13.34,0.76c10.87-0.37,19.92-6.27,29.93-9.16c6.77-1.96,13.03-5.72,19.46-8.79
			c9.33-4.45,18.47-9.34,27.97-13.37c6.79-2.88,10.74-7.78,13.68-14.18c3.07-6.66,6.23-13.33,9.98-19.62
			c8.79-14.7,17.84-29.25,27.07-43.68c1.74-2.73,4.48-5.12,7.27-6.82c11.01-6.71,23.4-6.49,35.16-4.15
			c15.1,3,29.59,8.25,43.46,15.57c17.87,9.43,29.37,23.63,36.64,41.97c2.29,5.77,5.11,11.33,7.63,17
			c3.59,8.08,7.59,16.02,10.58,24.32c5.17,14.34,9.71,28.91,14.47,43.39c0.33,1,0.33,2.1,0.51,3.33c-0.91,0.06-1.48,0.25-1.95,0.1
			c-7.22-2.32-14.52-3.87-22.19-3.61c-3.61,0.12-6.1-0.59-10.12-0.66c-16.62-0.27-36.9,3.91-44.86,11.37
			c-0.54,0.5-1.98,1.93-4.34,3.09c-3.39,1.68-7.21,2.09-11.33,1.6c-11.58-1.37-23.17-2.87-34.8-3.65
			c-10.67-0.71-21.4-0.54-32.11-0.77c-2.25-0.05-4.51-0.31-6.75-0.19c-7.3,0.38-14.72,0.23-21.87,1.5
			c-17.35,3.09-31.89,12.2-45.4,23.01c-5.81,4.65-11.21,9.82-16.79,14.76c-8.11,7.18-15.05,15.25-19.44,25.29
			c-0.6,1.38-1.45,2.66-1.99,4.06c-3.87,9.92-5.46,18.01-6.35,27.22c-2.17,22.46-3.2,33.91-0.19,44.76
			c1.38,4.96,3.04,8.91,4.28,11.54c-1.34,0.32-2.06,0.66-2.76,0.63c-10.37-0.33-19.96,3.09-29.54,6.34
			c-6.04,2.05-11.98,4.45-17.84,6.99c-15.28,6.62-25.99,19.17-37.87,30.05c-7.3,6.68-13.27,14.82-19.72,22.41
			c-1.57,1.85-2.77,4.03-3.99,6.14c-6.4,11.11-7.95,20.51-9.37,26.57c-4.42,18.89-12.29,18.28-24.45,50.99
			c-5.35,14.39-7.58,25.06-6.37,35.36c0.88,7.48,1.37,11.2,3.59,15.88c2.09,4.41,4.04,8.9,5.8,13.44c0.66,1.69,0.84,3.65,0.85,5.49
			c0.1,9.84-3.68,18.88-6.94,27.8c-4.15,11.37-6.5,22.32-1.82,34.02c1.84,4.6,1.52,9.4-1.41,13.54c-5.01,7.07-6.06,15.35-7.48,23.49
			c-0.9,5.15,0.93,7.32,4.77,8.07c4.06-1.43,6.74-2.44,9.47-3.31c6.45-2.06,13.36-3.22,19.27-6.3c7.63-3.97,15.44-5.61,23.82-6.09
			c17.35-0.98,33.89-5.04,49.12-13.74c2.61-1.49,5.42-2.64,8.21-3.78c2.17-0.89,4.11-1.03,6.13,1.04c1.26,1.29,3.73,2.32,5.45,2.07
			c6.31-0.93,12.87-1.59,18.72-3.91c15.15-6.01,27.07-16.18,35.44-30.34c1.88-3.18,4.19-6.12,6.53-9.5
			c2.62,1.67,4.73,2.87,6.68,4.28c6.78,4.92,14.92,6.93,22.34,10.49c3.02,1.45,6.27,2.48,9.48,3.51c3.74,1.19,7.53,2.27,11.35,3.21
			c3.82,0.94,7.67,2.09,11.56,2.33c5.59,0.34,11.28,0.37,16.83-0.27c3.97-0.46,5.85,1,7.52,4.22c2.7,5.18,5.1,10.71,8.78,15.14
			c6.6,7.94,13.48,15.86,21.33,22.51c7.52,6.37,16.41,11.13,24.71,16.58c0.31,0.2,0.69,0.31,1.04,0.44c0,0,8.13,3.39,15.95,5.73
			c21.83,6.55,31.16,7.33,52.21,3.61h0c23.51-4.16,36.91-18.07,44.57-26.27c13.53-14.47,18.55-29.41,20.46-34.16
			c2.39-5.93,2.75-10.36,4.15-18.66c1.99-11.81,4.66-28.59,1.02-48.59c-0.78-4.28-1.46-9.46-4.22-15.71
			c-3.59-8.13-7.8-15.8-13.84-22.5c-10.18-11.31-21.04-22.08-29.76-34.62c-5.09-7.32-8.02-15.28-3.93-24.35
			c3.56-7.89,6.8-15.93,10.15-23.92c7.14-16.98,13.17-24.29,18.87-32.11c0,0,9.68-13.28,26.16-23.39c1.46-0.9,2.88-1.34,4.32-1.35
			c1.43-0.01,2.84,0.41,4.24,1.22c5.53,3.23,9.9,7.32,12.77,12.49c2.56,4.62,3.2,8.8,3.4,10.01c3.88,23.33,1.17,74.2,5.49,102.68
			c0.39,2.57,1.58,9.18,2.28,18.49c0.59,7.88,0.46,15.81,1.06,23.69c0.78,10.33,2.22,20.61,2.9,30.95
			c0.78,11.83,1.03,23.69,1.51,35.53c0.79,19.38,1.94,38.76,2.27,58.15c0.3,17.31-0.3,34.63-0.49,51.94
			c-0.13,11.69-0.06,46.36-0.45,51.97c-0.46,6.75-1.93,13.44-2.2,20.18c-0.68,16.92-1.06,33.86-1.25,50.8
			c-0.03,3.07,1.27,6.2,2.24,9.21c0.25,0.79,1.58,1.24,2.91,2.2c0.4-1.8,0.82-3,0.91-4.22c0.42-6.01,0.89-12.01,1.07-18.03
			c0.31-10.52,0.24-21.05,0.69-31.56c0.26-6.12,5.2-90.3,5-95.75c-0.07-1.87-0.07-83.45-2.56-89.49c-1-2.43-6.32-102.7-7.49-108.22
			c-5.86-27.59-4.24-56.27-5.03-84.46c0,0-1.37-48.8-16.46-52.13c-0.21-0.05-1.11-0.43-2.3-0.84c-1.85-0.63-8.96-2.95-19.97-3.32
			c-3.76-0.13-8.6-0.05-14.33,0.68c-14.62,1.87-25.51,6.92-31.77,9.6c-7.76,3.32-15.16,7.5-22.74,11.24
			c-2.33,1.15-5.04,1.74-7.08,3.26c-10.29,7.68-18.21,13.52-20.4,16.06c-4.21,4.89-8.46,9.83-10.94,17.8
			c-4.43,14.24-0.13,28.36,1.86,31.17c0.12,0.17,1.1,1.54,1.62,3.57c0.85,3.31,0.18,4.75-3.16,6.05c-4.56,1.77-9.22,3.27-13.84,4.9
			c-7.62,2.69-15.51,4.75-22.2,9.62c-5.33,3.88-11.09,7.26-16.03,11.58c-6.9,6.03-14.39,11.41-19.53,19.41
			c-10.37,16.17-18.43,33.23-22.12,52.18c-0.89,4.6-2.07,9.35-1.71,13.92c0.25,3.16,0.37,6.27,0.36,9.44c0,2.4,0.5,4.82,0.92,7.2
			c0.71,4.02,1.54,8.02,2.22,11.49c-11.3,2.58-18.03,1.34-22.15-0.4c-1.31-0.55-4.32-2.07-9.01-3.47
			c-6.74-2.01-9.45-1.26-25.41-9.07c-7.34-3.59-14.21-7.59-20.59-12.62c-4.89-3.85-5.11-4.43-1.93-10.22
			c1.18-2.14,2.28-4.36,3.07-6.66c3.36-9.81,6.54-19.68,9.88-29.49c1.64-4.82,3.19-9.69,5.27-14.32c2.47-5.49,5.4-10.78,8.24-16.1
			c2.83-5.3,5.3-10.89,8.83-15.7c3.51-4.79,7.56-9.63,12.4-12.91c10.58-7.18,21.83-13.38,32.79-20c1.22-0.74,2.34-1.65,3.51-2.48
			c-11.96,5.39-23.47,11.39-34.93,17.51c-1.8,0.96-3.5,2.28-4.92,3.74c-12.63,12.97-24.9,26.25-35.25,41.18
			c-4.34,6.26-7.82,12.8-9.46,20.35c-1.04,4.78-2.57,9.48-4.3,14.06c-2.18,5.75-4.62,11.42-8.52,17.59
			c-2.6-3.38-6.05-8.53-8.73-15.41c-2.45-6.3-3.11-12.17-4.44-23.89c-0.86-7.61-1.24-16.43,0.07-26.68
			c2.21-17.29,8.84-29.29,15.4-41.17c0,0,14.29-25.89,32.61-39.97c5.41-4.16,13.01-9.17,24.07-13.37
			c6.66-2.53,13.65-2.44,20.52-3.46c7.85-1.17,15.39-0.23,22.87,2.13c7.55,2.38,15.14,4.66,22.7,7.03
			c11.59,3.63,23.46,4.29,35.18,1.62c7.08-1.62,11.71-3.58,20.07-7.52c21.99-10.37,20.95-15.81,39.18-23.55
			c4.77-2.02,5.57-1.96,29.86-10.7c7.44-2.68,11.13-4.12,11.92-4.43c2.65-1.07,3.59-1.52,4.61-1.79c0.92-0.24,1.64-0.3,1.95-0.34
			c11.47-1.35,47.39-0.78,54.12-14.12c1.11-2.21,2.19-6.3,2.68-9.96c0.48-3.56,0.38-6.49,0.21-8.7
			c-1.83-24.44-12.43-53.06-12.43-53.06c-1-2.69-2.68-6.86-6.04-15.19c-7.9-19.55-10.74-25.48-13.7-30.98
			c-1.34-2.49-3.64-6.64-6.82-11.66c-6.66-10.5-10.47-16.51-17.1-21.48c-4.96-3.72-9.06-5.7-16.31-7.52
			c-12.81-3.2-25.06-5.25-30.54-5.41c-6.65-1.32-21.48-3.29-30.86,5.36c-1.76,1.62-3.16,3.47-7.6,14.69
			c-5.29,13.4-9.8,27.5-14.26,46.16c-1.27,5.3-1.89,10.75-2.73,16.14c-0.87,5.58-1.57,11.18-2.5,16.75
			c-0.59,3.51-1.19,7.05-2.25,10.43c-3.47,10.99-10.26,20.03-17.41,28.84c-4.53,5.57-9.06,11.06-15.58,14.54
			c-2,1.07-3.59,2.93-5.36,4.43c1.28,0.27,2.09-0.11,2.9-0.49c6.93-3.26,12.24-8.45,17.75-13.67c7.67-7.26,16.09-13.76,21.18-23.24
			c3.91-7.28,7.72-14.65,10.91-22.26c2.68-6.38,4.85-12.98,4.36-20.25c-0.42-6.15-0.37-12.43,0.38-18.54
			c0.93-7.61,2.78-15.11,4.27-22.66c0.03-0.17,0.54-0.25,1.01-0.46c0.91,6.19,1.97,12.26,2.66,18.38
			c0.44,3.85,1.65,13.46,2.19,23.03c0.97,17.19,2.05,36.3-4.86,53.73c-3.25,8.2-8.08,16.17-8.08,16.17
			c-2.19,3.89-4.74,7.66-7.64,11.04c-4.53,5.29-9.55,10.16-14.27,15.3c-6.05,6.58-13.01,11.99-20.83,16.26
			c-13.06,7.13-27.39,10.49-41.7,13.86c-0.91,0.21-1.87,0.32-2.8,0.29c-15.86-0.52-31.64-1.35-45.55-10.45
			c-15.07-9.86-22.86-13.94-24.7-15.86c-2.79-2.91-4.81-5.62-6.16-7.58c0.82-2.03,1.55-3.94,2.36-5.81
			c2.3-5.3,4.02-10.71,5.15-16.28c1.06-5.21,1.3-8.95,1.5-11.62c0.94-12.58,4.11-23.28,9.19-40.43c4.21-14.23,6.52-21.28,8.2-24.42
			c12.23-22.93,34.73-31.8,34.2-32.64c-0.48-0.76-18.89,6.28-34.81,22.71c-12.79,13.21-19.31,27.71-20.97,31.48
			c-4.71,10.7-4.11,14.2-14.51,50.75c-1.28,4.5-2.35,8.19-3.07,10.63c-0.98-1.61-1.61-2.5-2.09-3.46
			c-2.51-5.06-5.06-10.11-7.43-15.23c-3.76-8.12-3.32-17.37-3.45-26.75c0,0-0.23-17.49,4.82-37.17c0.73-2.83,1.35-5.02,2.53-7.55
			c2.6-5.56,6.86-10.63,14.14-17.11c10.39-9.25,20.92-18.32,32.64-25.87c13.76-8.86,28.29-15.46,45.15-15.5
			c14.28-0.03,28.56-0.05,42.79,1.18c13.12,1.14,26.15,3.16,39.26,4.35c3.13,0.29,8.16,0.53,12.25-2.5
			c2.98-2.21,2.82-4.24,6.55-7.14c2.65-2.06,5.06-2.84,9.72-4.33c4.09-1.3,8.35-2.77,12.55-2.84c8.65-0.13,17.3,0.75,25.96,1.01
			c10.1,0.31,19.71,1.99,28.21,8.04c3.31,2.36,6.53,1.05,8.06-2.68c1.8-4.43,0.6-8.45-1.54-12.42c-1.42-2.63-2.98-5.25-3.92-8.07
			c-2.56-7.64-4.2-13.33-4.72-16.24c-1.23-6.86-7.53-25.3-27.42-72.32l0,0c-2.41-13.64-12.03-22.55-18.12-28.04
			c-3.53-3.18-8.72-7.28-15.75-11.07c0,0-0.45-0.26-0.88-0.5c-10.5-5.92-44.31-17.74-75.1-16.68c-1.44,0.05-4.08,0.24-8.45,0.28
			c-14.46,0.14-23.13,0.16-23.13,0.16c-11.46-0.01-12.11-0.06-14.35-0.04c-13.01,0.12-20.81,2.02-44.04,6.34
			c-7.01,1.3-17.55,3.23-30.64,5.45c-0.58,0.6-16.89,3.57-36.62,11.86c-6.22,2.61-5.21,2.32-17.88,8.18
			c-7.16,3.31-14.37,6.51-21.44,9.98c-3.5,1.72-6.66,4.12-10.14,5.88c-13.12,6.62-26.31,13.09-39.46,19.64
			c-6.19,3.08-12.35,6.22-18.52,9.33c-0.16-0.27-0.31-0.54-0.47-0.82c3.15-1.89,6.23-3.89,9.45-5.65
			c6.61-3.62,13.33-7.04,19.93-10.66c5.28-2.9,10.48-5.96,15.68-9.01c6.32-3.71,12.79-7.23,18.87-11.3
			c10.58-7.09,22.9-10.49,33.91-16.53c7.84-4.3,15.84-7.83,24.42-10.14c0.75-0.2,1.32-0.37,1.63-0.46c0,0,6.44-1.79,13.17-3.51
			c23.94-6.11,37.41-8.69,37.41-8.69c8.92-1.35,16.41-2.43,21.89-3.21c48.6-6.92,66.31-8.1,84.27-4.69
			c2.49,0.47,6.53,1.36,10.99,2.42c15.51,3.7,33.45,10.84,33.45,10.84c23.75,9.46,32.46,16.38,35.69,13.12
			c1.49-1.5,1.3-5.03-1.13-11.45c-6.06-16.03-11.44-26.38-11.44-26.38c-13.66-25.2-40.9-43.39-40.9-43.39
			c-37.72-29.91-50.47-27.68-73.53-50.97c-2.68-2.71-12.3-9.38-23.02-20.59c-10.42-10.89-22.1-14.68-24.93-16.2
			c-23.31-12.53-44.49-16.85-57.31-19.37c-10.46-2.05-27.26-4.54-32.3-5.36c-6.66-1.09-13.34-2.07-20.01-3.15
			c-3.72-0.6-5.53-0.92-6.71-1.12c-15.91-2.62-29.01-1.93-54.46-3.33c-2.41-0.13-6.55-0.37-11.77-0.75
			c2.14-0.48,4.26-1.16,6.42-1.42c9.9-1.18,19.8-2.44,29.79-0.94c0.56,0.08,1.27,0.04,2.25,0.08c13.7,0.55,31.07,2.13,31.04,3v0
			c6.56,0.75,13.13,1.49,19.67,2.36c9.69,1.29,19.39,2.61,29.01,4.3c11.11,1.96,22.22,3.73,33.04,7.35
			c13.83,4.62,27.01,10.37,39.56,17.81c16.6,9.84,31.39,22.07,46.21,34.23c9.59,7.87,20.08,13.81,31.66,18.21
			c7.71,2.93,14.7,6.91,20.88,12.22c3.58,3.08,5.7,5.58,7.47,7.58c8.94,10.07,29.48,29.76,35.3,26.18c1.96-1.21,0.7-9.86-1.9-27.1
			c-2.27-15.04-0.71-11.57-2.74-28.5c0,0-2.57-21.44-6.4-41.97c-0.09-0.49-0.28-1.46-0.53-2.94c-0.35-2.09-0.37-2.53-0.92-4.82
			c-5.02-21.23-9.76-42.53-15.26-63.64c-3.84-14.72-8.31-29.32-13.37-43.66c-3.5-9.89-7.99-19.53-12.94-28.8
			c-8.69-16.28-18.08-32.19-27.15-48.27c-4.9-8.69-9.73-17.41-14.56-26.14c-1.04-1.89-1.9-3.87-1.92-6.3
			c2.3,3.58,4.67,7.11,6.87,10.75c9.93,16.43,19.69,32.96,29.75,49.31c5.54,9.01,9.98,18.53,14.71,27.94
			c3.77,7.52,7.42,15.12,11.28,22.61c4.62,8.97,7.34,18.58,9.82,28.22c4.64,18.05,8.93,36.18,13.54,54.24
			c5.7,22.31,7,34.2,8.51,51.23c1.66,18.69,0.5,23.98,3.77,35.21c0.98,3.36,3.26,13.48,6.62,27.33c0.52,2.13,0.63,3.69,0.73,4.34
			c3.41,21.07,16.98,55.06,26.55,81.7c6.19,17.22,5.37,14.58,9.71,28.09c7.2,22.37,19.28,49.09,22.88,48.07
			c1.86-0.53,0.11-7.95,0.57-22.55c0.4-12.58,3.45-24.61,7.68-36.37c4.15-11.53,8.74-22.9,12.64-34.51
			c5.11-15.21,13.35-28.53,23.32-40.94c3.17-3.95,5.95-8.21,8.95-12.3c2.67-3.65,5.26-7.36,8.13-10.85
			c7.39-9.02,15.07-17.82,22.34-26.94c5.75-7.21,11.09-14.74,16.57-22.16c6.27-8.49,12.02-17.28,16.54-26.86
			c5.55-11.76,11.4-23.38,16.86-35.18c7.98-17.27,15.75-34.64,23.55-51.99c0.92-2.05,1.63-4.23,2.23-6.4
			c3.14-11.56,4.21-16.42,6.86-25.69c2.42-8.48,5.86-17.7,6.46-17.53c0.9,0.25-4.3,21.58-7.96,35.4
			c-3.45,13.02-6.38,22.58-7.19,25.12c-3.01,9.45-10,31.33-15.91,42.99c-2.83,5.59-6.53,12.52-6.53,12.52
			c-4.33,7.61-2.68,5.85-14.69,25.46c-21.17,34.55-34.6,56.47-53.03,75.23c-2.88,2.93-9.09,9.71-17.27,19.44
			c-5.32,6.33-11.07,12.55-14.01,20.39c-6.15,16.39-12.42,32.78-17.42,49.53c-3.59,12.02-7.43,24.19-8.16,36.85
			c-0.68,11.81-0.97,23.67-0.62,35.49c0.21,7.09,2.22,14.11,2.99,21.21c1.62,14.98,7.69,28.54,12.88,42.41
			c1.9,5.09,3.58,10.26,5.3,15.42c1.91,5.71,3.32,11.62,5.7,17.12c5.22,12.03,11.57,23.56,15.66,36.09
			c2.22,6.79,5.14,13.41,6.64,20.34c1.44,6.67,3.13,13.07,6.02,19.3c2.52,5.43,4.03,11.32,6,17.01c0.97,2.8,2.91,4.4,5.94,4.25
			c2.93-0.14,4.86-1.65,5.82-4.52c1.56-4.64,3.45-9.18,4.87-13.87c5.83-19.2,13.98-37.34,23.82-54.83
			c5.18-9.2,9.32-19.06,10.61-29.66c0.6-4.92,2.36-9.01,5.11-12.9c3.16-4.45,6.67-8.7,9.42-13.39
			c10.88-18.53,22.41-36.59,35.15-53.94c12.17-16.57,24.76-32.42,44-41.19c10.96-4.99,22.04-9.83,33.37-13.87
			c10.26-3.65,20.92-6.17,31.44-9.09c9.26-2.57,18.44-5.57,27.86-7.37c17.55-3.35,33.71-10.73,50.48-16.34
			c6.32-2.12,12.62-4.29,18.93-6.43c0.19,0.43,0.38,0.85,0.58,1.28c-1.35,0.8-2.66,1.66-4.05,2.38c-2.01,1.03-4.11,1.89-6.1,2.95
			c-7.81,4.14-15.59,8.34-23.4,12.48c-15.86,8.41-33.51,11.18-50.53,15.91c-13.6,3.78-27.48,6.78-40.7,11.6
			c-7.03,2.56-14.19,4.83-21.23,7.42c-14.27,5.25-26.51,13.56-36.93,24.4c-7.69,8-14.72,16.64-21.82,25.19
			c-3.09,3.73-7.31,9.18-12.58,16.63c-3.55,5.01-8.39,11.88-13.84,21.24c-13.67,23.48-19.32,42.28-19.84,44.13
			c-1.11,4-1.33,4.15-2.78,8.02c-5.42,14.43-9.64,20.77-9.64,20.77c-6.71,12.14-13.33,19.64-11.67,21.33
			c0.44,0.45,1.45,0.45,1.81,0.45c1.63,0.01,3.02-1.07,4.23-2.26c3.39-3.32,7.99-8.54,9.67-10.12c3.45-3.26,8.47-4.47,18.5-6.89
			c5.14-1.24,9.19-1.93,10.91-2.02c7.51-0.39,15.05-0.06,22.56-0.43c9.18-0.46,18.33-1.7,27.51-1.97
			c14.25-0.42,28.25,1.61,41.28,7.61c8.68,3.99,17.59,7.85,24.83,14.38c5.86,5.29,11.8,10.54,17.16,16.31
			c4.85,5.22,9.52,10.78,13.28,16.82c5.37,8.61,9.66,17.89,14.73,26.7c4.12,7.16,8.75,14.03,13.08,21.08
			c1.46,2.38,3.58,4.45,3.96,7.41c-5.67-5.87-11.38-11.66-16.16-18.12c-10.09-13.64-18.69-28.26-26.55-43.28
			c-7.24-13.84-19.24-22.34-32.28-29.83c-6.33-3.64-13.39-5.04-20.35-6.63c-3.44-0.78-11.3-2.73-21.63-3.89
			c-17.72-2-30.89-0.6-49.11,1.33c-3.57,0.38-7.9,1.09-13.32,2.26c-3.09,0.66-6.06,1.84-9.11,2.71c-5.96,1.69-12.1,2.89-17.84,5.12
			c-4.33,1.68-8.31,4.43-12.19,7.08c-5.27,3.6-10.88,7.16-13.81,13c-3.46,6.89-6.48,14.07-8.91,21.38
			c-2.82,8.49-2.76,15.98-3.05,24.96c-0.62,19.83,0.62,35.05,0.74,36.58c1.54,18.89,0.82,37.95,2.83,56.79
			c1.06,9.92,4.62,101.61,6.66,113.7c0.87,5.19,1.57,10.43,2.03,15.68c0.62,7.11,0.95,14.25,1.35,21.37
			c0.96,17.3,1.99,34.59,2.77,51.9c0.31,6.96,0.07,13.94,0.05,20.91c-0.04,10.73-0.06,21.45-0.18,32.17
			c-0.06,4.9-0.42,9.79-0.5,14.68c-0.19,12.43-0.29,24.87-0.42,37.3c-0.08,7.5-0.2,15-0.2,22.49c0,2.24,0.4,4.44,3.53,5.4
			c1.65-10.47,4.06-20.5,3.77-30.92c-0.2-7.25,0.77-11.56,0.82-12.84c0.31-8.8-0.04-13.23-0.09-20.82
			c-0.07-9.24,0.36-14.81,0.7-21.82c1.65-34.35-0.07-68.08-0.07-68.08c-1.06-14.61-2.9-29.17-3.68-43.79
			c-0.58-10.9-3.79-34.31-4.08-35.19c-2.45-7.49-3.53-55.93-3.75-58.91c-0.16-2.21-0.43-4.41-0.58-6.62
			c-0.1-1.48-0.1-2.97-0.13-4.46c-0.03-1.93-0.06-3.17-0.08-4.69c-0.01-1.14-0.02-1.97-0.02-2.01c-0.03-3.7-5.97-110.87,0.4-141.43
			c1.6-7.67,4.83-13.91,5.19-14.96c1.76-5.06,4.19-9.7,8.79-12.77c4.68-3.12,9.34-6.31,14.23-9.08c11-6.23,23.07-7.91,35.47-7.2
			c11.56,0.65,21.72,5.95,31.81,10.9c9.4,4.61,16.92,11.66,23.19,20.15c4.14,5.6,6.24,11.72,5.77,18.46
			c-0.64,9.1,2.46,16.67,8.28,23.29c4.23,4.81,8.65,9.45,13.15,14c5.91,5.99,10.1,12.68,12.05,20.26c0.4,1.57,0.56,2.71,0.69,3.51
			c1.06,6.53,4.2,25.94,15.03,42.9c5.03,7.88,12.18,15.04,18.15,22.38c0.95,1.17,1.97,2.29,3.06,3.32
			c6.59,6.19,13.14,12.42,19.83,18.49c9.87,8.96,21.33,15.46,33.46,20.78c4.86,2.13,9.96,3.28,15.42,2.79
			c7.09-0.64,14,0.98,20.83,2.58c5.87,1.37,11.65,3.18,17.38,5.08c11.21,3.73,21.39,9.2,30.09,17.41c4.5,4.24,9.48,8.01,14.5,11.65
			c1.25,0.91,2.53,1.48,3.85,1.75c3.59,0.72,6.61-0.83,7.29-1.21C2010.29,1902.32,2011.54,1897.53,2012.02,1895.68z M1447.8,2034.31
			c-8.49-1.78-10.23-4.16-9.78-12.28c0.46-8.35-0.23-16.54-4.23-24.16c-0.85-1.62-1.46-3.52-1.63-5.34
			c-1.01-11.04-2.87-22.04-1.53-33.19c0.17-1.44,0.47-2.87,0.71-4.31c0.26,0.07,0.51,0.15,0.77,0.22c0.05,3.17,0.13,6.33,0.16,9.5
			c0.1,12.47,6.27,23.16,10.38,34.39c3.95,10.79,6.37,21.65,5.73,33.14C1448.34,2032.98,1448,2033.65,1447.8,2034.31z
			 M1528.9,1989.49c5.64-13.5,13.78-37.86,13.17-69.17c-0.62-31.87-10.03-56.25-16.3-69.55
			C1555.4,1890.25,1556.72,1948.71,1528.9,1989.49z M1487.36,1787.37c2.11-2.7,4.6-4.72,9.78-8.48
			c9.29-6.77,19.24-12.38,29.98-16.62c4.35-1.72,8.37-4.29,12.64-6.25c5.42-2.49,10.93-4.76,16.41-7.13c0.27,0.4,0.55,0.8,0.82,1.2
			c-1.36,0.84-3.49,2.22-5.91,4.16c-12.95,10.35-13.87,20.19-25.59,40.42c0,0-4.79,8.27-22.07,29.28c0,0-1.98,3.85-13.02,10.23
			c-0.48,0.28-1.03,0.45-1.56,0.64c-0.16,0.06-0.37,0-1.18-0.02C1484.45,1826.61,1475.89,1802.05,1487.36,1787.37z M1387.41,1952.82
			c0.1-5.37,1.17-10.68,2.44-15.9c4.5-18.48,11.64-36.5,22.77-51.92c11.13-15.42,26.44-28.14,44.4-34.39
			c11.7-4.07,24.37-5.39,35.49-10.86c16.4-8.06,27.33-24.01,36.31-39.93c8.98-15.91,17.06-32.84,30.41-45.31
			c5.11-4.77,11.73-9,18.64-7.9c-4.56,6.7-14.12,9.16-19.93,14.81c-6.13,5.96-10.66,13.48-14.75,20.92
			c-8.74,15.92-16.17,32.55-22.2,49.68c-1.11,3.16-2.19,6.41-2.17,9.76c0.03,3.68,0.98,6.62,1.59,8.2c0.22,0.57,0.41,0.99,0.45,1.08
			c18.56,41.41,18.05,78.83,18.05,78.83c-0.25,18.33-4.08,31.64-8.14,45.73c-6.48,22.51-15.3,40.11-22.33,52.13
			c10.36-9.28,16.72-22.11,22.83-34.6c11.49-23.5,23.26-48.33,21.82-74.45c-0.91-16.45-7.03-32.1-13.08-47.42
			c20.67,13.44,33.59,37.05,36.91,61.48c3.31,24.43-2.31,49.51-12.85,71.8c-3.94,8.34-8.71,16.54-15.78,22.48
			c-11.04,9.28-21.61,13.48-30.96,16.56c-10.77,3.56-24.39,8.05-38.16,4.67c-7.66-1.88-9.15-3.68-20.24-8.13
			c-1.87-0.75-3.81-1.55-5.16-3.04c-2.7-2.99-2.16-7.56-1.98-11.59c1.13-25.44-18.74-48.52-16.76-73.91
			c1.63-20.96,17.79-38.18,21.88-58.8c-15.77,27.66-32.07,57.6-29.15,89.31c1.4,15.16,7.21,29.92,6.4,45.13
			c-16.73-11.32-30.42-27.09-39.26-45.25C1390.49,1972.86,1387.22,1962.94,1387.41,1952.82z M1468.92,1626.38
			c0.15,11.01-0.82,21.81-4.82,32.16c-4.43,11.47-10.15,22.23-17.95,31.8c-0.64,0.78-1.58,1.32-2.67,2.2
			c3.76-7.24,7.26-14.03,10.82-20.8c2.12-4.04,3.07-8.18,3.38-12.85c0.83-12.71,3.09-21.78,3.42-25.73
			c2.05-24.95,14.28-45.18,14.67-45.04c0.26,0.09-3.95,9.42-5.87,24.25C1469.16,1618.04,1468.84,1620.16,1468.92,1626.38z
			 M1494.79,1757.67c-4.99,2.56-10.23,4.72-14.98,7.66c-9.16,5.68-18.76,10.28-29.12,13.26c-1.16,0.33-2.42,0.3-4.13,0.48
			c7.85-10.07,15.09-19.4,22.36-28.69c5.83-7.45,13.73-9.29,22.61-7.98c3.52,0.52,7.06,1.25,10.4,2.44c2.52,0.9,4.72,2.69,8.27,4.81
			C1504.28,1752.74,1499.55,1755.24,1494.79,1757.67z M1486.98,1633.82c-1.13-9.68-0.34-7.75-2.77-28.06c0,0-1.09-9.11-0.73-24.15
			c0.04-1.64,0.18-5.35,2.74-8.03c1.12-1.17,2.62-2.07,4.59-2.6c6.72-1.81,13.4-3.74,20.54-2.47c5.74,1.02,11.58,1.52,17.34,2.46
			c15.14,2.48,22.57,4.49,27.53,7.94c3.51,2.44,7.05,8.16,14.12,19.59c2.13,3.45,9.48,15.38,14.6,28.45
			c2.99,7.63,4.75,12.87,7.13,20.79c14.81,49.19,21.36,63.87,14.4,70.75c-1.85,1.83-6.85,5.41-13.19,7.54
			c-12.1,4.06-15.43,1.25-30.34,3.23c-11.37,1.51-30.34,5.92-39.54,5.53c-2.01-0.09-3.62-0.4-3.96-0.47
			c-3.62-0.73-6.99-2.26-10.22-4.5c-8.1-5.62-16.91-9.79-26.91-10.99c-3.21-0.38-6.35-1.3-9.98-2.07
			c3.8-7.21,7.56-13.73,10.73-20.51c3.85-8.26,5.98-17.02,5.94-26.23c-0.01-3.17,0.24-6.35,0.34-9.52
			c0.11-3.53,0.56-7.11,0.19-10.59C1488.96,1644.51,1487.61,1639.2,1486.98,1633.82z M1403.81,1767.41
			c18.79-3.76,26.99-9.9,29.89-11.51c13.17-7.28,10.18-12.38,26.58-22.01c6.36-3.74,11.89-6.43,18.4-6.17
			c10.91,0.43,20.9,3.83,30.06,10.09c4.23,2.89,9.42,4.39,14.57,6.69c-2.44,2.34-4.51,2.29-7.03,0.26
			c-7.05-5.67-15.48-8.41-24.05-10.75c-4.94-1.35-9.83-0.45-14.28,1.64c-5.48,2.57-10.03,6.3-13.57,11.49
			c-5.27,7.72-10.8,15.34-16.96,22.35c-3.38,3.84-8.1,6.64-12.54,9.37c-3.82,2.34-8.27,0.73-12.16-0.08
			c-8.92-1.86-17.77-4.27-26.59-8.6C1398.7,1768.12,1401.37,1767.9,1403.81,1767.41z M1126.08,2023.35c0.74-2.04,1.4-4.12,2.24-6.12
			c1.61-3.81,3.41-7.54,4.97-11.37c0.56-1.37,1.1-3.02,0.84-4.39c-0.37-2-0.04-3.59-0.13-4.3c-0.77-5.76-3.24-16-3.64-21.04
			c-0.12-1.53,2.39-7.95,6.61-21.01c2.38-7.35,5.27-14.63,5.2-22.48c-0.03-3.29-0.44-6.92-1.89-9.78
			c-2.96-5.8-6.22-11.39-7.19-18.75c1.43-0.28,3.16-0.55,4.85-0.98c2.7-0.7,5.69-0.98,7.99-2.37c6.45-3.91,12.14-8.74,17.36-14.31
			c10.41-11.13,21.36-21.77,31.94-32.74c5.48-5.67,10.69-11.6,15.96-17.47c1.88-2.1,3.33-4.63,5.39-6.51
			c11.97-10.94,24.24-21.51,39.34-28.08c2.4-1.04,4.72-2.24,7.44-3.54c-1.38,1.76-2.55,3.54-3.99,5.07
			c-10.14,10.7-19.32,22.16-26.5,35.06c-3.74,6.72-6.81,13.84-9.91,20.9c-2.34,5.34-4.26,10.86-6.36,16.3
			c-0.54,1.41-0.94,2.87-1.57,4.24c-2.79,6.13-5.82,12.16-8.4,18.38c-3.46,8.34-6.25,16.97-9.95,25.2
			c-4.93,10.95-10.14,21.81-15.87,32.36c-3.3,6.08-7.86,11.48-11.84,17.19c-5.06,7.25-9.88,14.68-15.23,21.7
			c-6.04,7.91-12.44,15.55-18.95,23.08c-2.15,2.49-5.12,4.26-7.71,6.37C1126.75,2023.75,1126.42,2023.55,1126.08,2023.35z
			 M1155.81,2014.55c-2.76,0.77-5.65,2.66-11.42,6.43c-4.39,2.87-6.59,3.46-9.97,5.12c-0.59,0.29-1.41,0.11-2.93,0.2
			c9.2-11.64,18.06-22.35,26.36-33.48c8.19-10.98,15.8-22.38,24.52-33.42c-0.37,2.49-0.44,5.07-1.16,7.46
			c-4.27,14.27-8.98,28.36-20.53,45.67C1159.4,2014.45,1157.12,2014.18,1155.81,2014.55z M1234.83,1989.33
			c-0.31,0.78-0.74,1.35-0.8,1.43c-1.29,1.65-3.22,2.12-3.82,2.28c-2.99,0.81-2.65,2.03-16.56,8.57c-3.17,1.49-5.56,2.3-8.57,3.43
			c-24.92,9.37-33.85,8.49-37.02,8.03c-1.63-0.23-2.92-0.52-3.56-0.67c0.3-1,0.36-1.97,0.82-2.66
			c9.53-14.12,14.67-30.09,19.25-46.23c3.3-11.6,6.42-23.15,11.94-34.05c4.49-8.87,7.33-18.55,11.18-27.76
			c3.33-7.98,7.14-15.75,10.58-23.69c6.25-14.41,13.7-28.14,23.56-40.38c7.53-9.34,15.09-18.67,24.53-26.29
			c-4.73,9.71-8.1,18.36-10.49,25.28c-3.71,10.75-8.8,25.76-10.47,45.5c-0.36,4.24-0.26,5.16-0.4,29.8
			c-0.09,16.01-0.16,31.11-0.24,32.4C1244.77,1944.34,1243.4,1967.42,1234.83,1989.33z M1295.51,1939.95
			c1.34-4.1,3.36-7.98,4.65-12.09c2.37-7.54,4.51-15.15,6.57-22.78c2.67-9.9,8.54-17.94,14.7-25.82c2.81-3.6,5.9-6.99,8.86-10.48
			c0.33,0.25,0.65,0.49,0.98,0.74c-2.96,5.59-6.3,11.02-8.8,16.82c-3.41,7.92-6.22,16.1-9.22,24.2
			c-3.93,10.57-7.76,21.18-11.73,31.73c-0.57,1.52-1.67,2.85-2.51,4.25C1294.55,1943.97,1294.27,1943.76,1295.51,1939.95z
			 M1318.39,1786.02c-7.87,7.41-26.04,25.23-37.89,54.05c-3.01,7.31-8.29,21.87-10.21,40.96c-1.11,11.11-3.41,34.06,5.58,49.27
			c5.38,9.1,10.46,16.13,14.99,19.36c2.84,2.02,3.11,2.42,3.71,3.69c5.64,11.89-25.18,36-33.13,40.27c-1.15,0.62-2.43,1.2-2.43,1.2
			c-0.76,0.34-6.27,1.86-13.2,3.12c-5.7,1.04-9.72-4.18-7.76-9.85c1.64-4.76,2.88-8.62,3.17-9.04c3.32-4.89,6.01-21.93,5.85-67.04
			c0,0-2.31-16.92,1.32-37.96c0.9-5.21,2.11-10.4,3.62-15.55c0.8-2.7,1.63-5.39,2.49-8.07c5.01-15.71,7.94-24.06,7.94-24.06
			c1.7-5.02,3.55-10.46,5.53-16.26c6.74-7.22,13.12-12.4,17.91-15.9c0,0,17.56-11.79,34-15.96c1.09-0.28,2.23-0.38,3.36-0.43
			c1.1-0.05,2.22,0.07,4.22,0.15C1324.05,1780.98,1321.15,1783.43,1318.39,1786.02z M1355.54,1767.96
			c-0.59,0.88-0.78,1.52-1.09,1.58c-8.98,1.78-17.41,6.1-27,5.06c-8.17-0.88-15.63,2.4-22.71,5.83
			c-7.93,3.84-15.26,8.84-22.74,13.56c-8.51,5.37-14.21,13.21-21.29,19.76c-7,6.48-13.09,14.01-19.14,21.43
			c-1.06,1.3-5.42,7.13-10.57,15.32c-6.05,9.61-8.85,15.69-8.92,15.66c-0.16-0.08,11.53-28.44,31.42-52.82
			c3.93-4.82,10.35-12.13,19.15-19.94c5-4.44,9.05-8.04,15.25-11.92c2.74-1.72,13.5-7.22,28.62-11.75
			c7.45-2.23,15.11-2.81,22.81-2.71C1344.55,1767.07,1349.77,1767.61,1355.54,1767.96z M1302.97,1739.22
			c11.43,7.23,22.78,14.59,34.15,21.92c0.13,0.08,0.15,0.33,0.34,0.8c-1.11,1.74-3.21,1.38-4.87,1.72
			c-5.13,1.06-10.44,1.47-15.45,2.93c-12.72,3.71-25.25,8.47-35.85,16.36c-9.78,7.29-20.76,12.13-31.09,18.25
			c-17.91,10.63-34.28,23.27-48.28,38.82c-4.54,5.04-9.15,10.01-13.72,15.02c-6.59,7.23-12.85,14.8-19.85,21.6
			c-7.81,7.58-16.05,14.78-24.62,21.48c-2.86,2.24-7.32,2.43-11.73,3.77c-1.34-7.33-0.08-13.67,0.19-20.02
			c0.01-0.3,0.92-7.08,2.75-13.61c4.49-15.97,12.92-24.03,20.99-44.97c0.96-2.49,1.69-3.67,1.99-5.37
			c1.39-7.89,4.54-15.5,7.35-23.07c0.2-0.54,0.52-1.04,1.07-2.08c4.42-8.47,8.43-14.6,11.21-18.57c3.02-4.32,4.53-6.47,6.17-8.01
			c3.88-3.66,7.91-5.47,11.65-6.91c13.22-5.1,24.94-6.52,24.94-6.52c12.41-0.61,24.85-0.46,37.25-1.15c9.05-0.5,17.74-3,26.09-6.68
			c5.15-2.27,10.43-4.3,15.72-6.22C1300.4,1738.34,1302.02,1738.62,1302.97,1739.22z M1315.4,1647.55
			c5.26-11.58,12.52-19.42,17.75-24.17c-3.33,5.04-7.67,12.39-11.48,21.83c-5.2,12.88-6.86,23.82-8.18,30.55
			c-1.88,9.57-2.24,19.42-3.41,29.14c-1.01,8.44-2.76,16.67-8.09,24.47c-1.87-1.17-3.28-2.06-4.69-2.94
			c-2.48-1.54-2.93-3.8-2.11-6.39c0.69-2.15,1.74-4.19,2.29-6.37c2.09-8.4,3.96-16.85,6.07-25.24c2.65-10.54,5.15-21.13,8.28-31.53
			C1313.12,1652.64,1314.06,1650.48,1315.4,1647.55z M1277.53,1718.76c1.94,0.25,4.69,0.51,5.55,1.79
			c3.57,5.29,8.88,8.55,13.43,12.67c0.54,0.49,0.95,1.12,1.63,1.93c-1,0.76-1.76,1.63-2.71,2.02c0,0,0,0,0,0
			c-3.37,1.83-6.96,4.58-13.39,7.01c-4.45,1.68-11.73,4.38-21.95,5.56c-6.02,0.7-5.68,0.01-13.34,0.51
			c-19.13,1.24-27.28-1.84-40.87,2.33c-0.41,0.13-0.98-0.26-2.11-0.6c1.79-1.94,3.11-3.69,4.74-5.09
			c9.02-7.7,18.21-15.19,29.08-20.19c3.38-1.56,7.07-2.45,10.66-3.53C1257.79,1720.31,1267.36,1717.43,1277.53,1718.76z
			 M969.88,1547.91c1.11-1.93,1.73-4.17,2.38-6.33c1.52-4.98,4.63-8.63,9.27-10.8c17.12-8.03,34.53-14.96,54-14.1
			c5.2,0.23,10.43-0.07,15.64-0.13c0.01,0.42,0.02,0.85,0.03,1.27c-2.66,0.86-5.35,1.62-7.96,2.61
			c-9.64,3.67-19.38,7.13-28.85,11.22c-8.01,3.45-14.77,8.96-21.09,14.93c-8.35,7.88-16.04,16.35-22.88,25.58
			c-1.42,1.91-3.15,3.6-5.23,5.18C966.52,1567.41,964.57,1557.13,969.88,1547.91z M979.99,1617.88c-3.19,3.68-6.39,7.35-9.69,10.92
			c-1.12,1.21-2.56,2.11-3.85,3.15c-0.36-0.21-0.72-0.42-1.08-0.63c1.27-7.87,2.37-15.78,3.87-23.61c0.71-3.72,0.09-7.09-1.22-10.44
			c-0.61-1.57-1.61-2.98-2.34-4.51c-2.63-5.46-2.39-5.66,1.45-10.41c4.36-5.41,8.08-11.36,12.59-16.63
			c10.05-11.75,20.37-23.42,34.46-30.48c8.54-4.28,17.63-7.46,26.55-10.97c3.28-1.29,6.76-2.09,10.77-2.33
			c-1.06,1.1-2.05,2.27-3.18,3.3c-5.15,4.68-10.3,9.37-15.53,13.95c-7.94,6.95-13.43,15.6-17.81,25.06
			c-0.08,0.17-0.14,0.35-0.24,0.51c-6.36,10.21-12.14,20.85-19.29,30.47c-4.37,5.88-9.18,11.31-12.05,18.17
			C982.68,1615.08,981.22,1616.47,979.99,1617.88z M1371.2,1400.43c8.8-0.66,17.67-0.46,26.5-0.6c0.89-0.01,1.78,0.18,2.41,0.25
			c-4.07,5.24-8.31,10.17-11.93,15.5c-3.9,5.74-7.27,11.86-10.81,17.84c-5.26,8.9-10.54,17.79-15.69,26.75
			c-2.15,3.74-4.63,7.49-5.8,11.56c-2.35,8.17-8.55,12.04-15.35,15.51c-8.9,4.54-18.32,7.73-27.75,10.95
			c-10.15,3.47-20.05,7.7-30.23,11.05c-5.31,1.75-10.98,2.56-16.56,3.29c-2.41,0.31-5-0.67-8.05-1.16c0.89-2.2,1.36-3.57,1.98-4.87
			c7.04-14.78,14.4-29.41,21.01-44.38c2.93-6.64,6.33-12.79,10.98-18.29c1.57-1.85,3.22-3.67,5.03-5.29
			c2.51-2.26,9.15-9.1,16.92-14.9c16.28-12.15,33.06-17.28,39.85-19.3C1357.36,1403.28,1363.17,1401.03,1371.2,1400.43z
			 M1208.54,1449.13c6.7-3.82,13.28-7.96,20.29-11.12c16.83-7.58,33.8-14.89,50.91-21.83c6.58-2.67,13.61-4.39,20.58-5.92
			c12.87-2.82,25.84-5.19,38.77-7.72c0.32-0.06,0.69,0.12,1.35,0.24c-7.51,4.46-14.95,8.44-21.89,13.15
			c-5.57,3.78-10.52,8.46-15.77,12.71c-5.61,4.54-5.17,4.02-5.98,4.72c-1.99,1.71-6.99,6.3-18.1,29.36
			c-2.16,4.48-8.15,16.8-9.78,19.89c-1.53,2.9-1.86,3.34-2.94,5.94c-2.54,6.07-5.18,12.01-8.46,17.71
			c-1.25,2.17-2.72,3.54-5.28,3.54c-8.25,0.01-13.69,5.67-19.81,9.92c-2.75,1.91-5.27,4.16-7.97,6.15
			c-8.48,6.27-17.31,12.12-25.41,18.83c-7.89,6.54-16.19,11.65-26.51,12.89c-6.49,0.78-12.58,3.83-19.28,3.43
			c-2.25-0.13-4.71,0.26-6.7-0.54c-11.73-4.72-22.63-1.32-33.37,3.15c-7.46,3.11-14.72,6.7-22.08,10.04
			c-0.75,0.34-1.63,0.42-3.05-0.15c4.25-5.65,8.44-11.35,12.77-16.94c7.84-10.12,15.53-20.36,23.71-30.19
			c7.24-8.7,15.45-16.45,24.8-22.97c4.93-3.43,9.43-7.47,14.15-11.2c2.21-1.74,4.49-3.41,6.76-5.07
			c7.84-5.73,13.43-13.69,20.31-20.34C1196.58,1460.97,1201.01,1453.43,1208.54,1449.13z M1176.11,1464.05
			c6.75-3.35,13.43-6.84,20.16-10.23c0.92-0.46,1.96-0.69,4.06-1.4c-3.97,5.78-7.75,10.09-12.18,13.86
			c-1.72,1.46-3.53,2.88-4.98,4.58c-10.32,12.14-23.23,21.32-35.81,30.77c-8.18,6.14-16.11,12.4-22.64,20.24
			c-7.24,8.7-5.65,8.29-16.97,21.6c-7.94,9.34-13.51,14.81-18.26,22.43c-0.6,0.96-2,3.48-4.48,6.5c-2.5,3.04-4.83,6.48-7.97,8.7
			c-9.37,6.62-19.32,12.42-28.62,19.15c-7.52,5.44-15.95,7.29-24.77,8.64c-9.31,1.42-14.28,2.99-14.28,2.99
			c-6.37,1.1-10.15,1.43-15.51,3.39c-3.47,1.27-6.17,2.69-7.91,3.69c4.43-9.52,9.69-17.76,14.82-26.08
			c6.12-9.93,12.25-19.86,18.01-30c7.83-13.77,18.14-25.23,30.25-35.39c8.96-7.52,19.22-12.45,29.64-17.29
			c9.39-4.36,18.75-8.8,28.18-13.08c3.41-1.55,7.13-2.44,10.49-4.08C1136.98,1483.44,1156.54,1473.75,1176.11,1464.05z
			 M1202.68,1438.7c-4.23,2.47-8.53,4.8-12.76,7.26c-10.92,6.33-21.79,12.73-32.72,19.03c-9.8,5.64-19.51,11.48-29.53,16.71
			c-17.85,9.32-35.95,18.17-53.87,27.36c-9.98,5.12-20.77,5.34-31.47,5c-17.36-0.56-34.18,1.08-50.09,8.64
			c-3.87,1.84-7.88,3.48-12.54,3.47c-0.17-1.29-0.64-2.46-0.41-3.46c1.16-4.92,0.06-9.15-2.73-13.35c-3.89-5.84-3.38-12.15-0.8-18.4
			c0.65-1.56,1.61-3.01,2.12-4.61c0.65-2.04,1.96-3.09,3.94-3.61c9.22-2.43,17.29-7.38,25.65-11.72
			c16.24-8.42,32.6-16.74,50.61-20.71c9.16-2.02,18.58-2.91,27.91-4.06c5.97-0.73,12-0.95,17.99-1.5c17.63-1.61,35.26-2.96,53-1.62
			c3.34,0.25,6.79-0.21,10.12-0.75c12.81-2.07,25.59-4.31,39.49-6.68C1204.81,1437.07,1203.83,1438.03,1202.68,1438.7z
			 M1304.36,1396.77c-10.39,2.6-20.7,5.52-31.04,8.32c-0.54,0.15-1.05,0.49-1.59,0.57c-12.21,1.82-22.36,8.61-33.19,13.74
			c-0.34,0.16-0.64,0.44-0.99,0.55c-14.72,4.53-28.29,12.34-43.54,15.32c-8.3,1.62-16.6,3.29-24.96,4.48
			c-4.81,0.69-9.74,0.5-14.62,0.66c-11.85,0.38-23.73,0.39-35.56,1.15c-15.78,1.02-31.55,2.35-47.26,4.06
			c-7.08,0.77-14.09,2.49-21,4.3c-17.1,4.46-32.59,12.7-47.94,21.18c-7.09,3.92-14.25,7.59-22.54,9.03
			c1.1-7.28,3.16-12.77,4.88-16.5c1.14-2.46,5.27-8.39,13.08-20.41c1.64-2.52,3.25-5.1,5.22-7.36c4.56-5.24,8.07-8.76,9.66-10.25
			c13.46-12.58,15.38-27.79,29.87-38.27c1.67-1.21,3.27-2.23,3.46-2.3c6.53-2.41,13.02-4.96,19.63-7.1
			c8.06-2.6,16.13-5.33,24.39-7.12c15.42-3.34,30.56-7.9,46.38-9.63c12.17-1.33,24.25-2.46,36.51-2.97
			c11.4-0.47,22.08,0.88,32.77,4.13c0.54,0.16,1.08,0.42,1.63,0.47c12.6,1.11,23.13,7.52,33.96,13.2c3.49,1.83,7.27,3.1,10.95,4.56
			c2.97,1.18,6.17,1.93,8.95,3.45c12.6,6.91,26.58,7.82,40.37,9.58c4.1,0.52,8.23,0.75,12.35,1.11c0.06,0.33,0.13,0.65,0.19,0.98
			C1311.02,1396.03,1307.58,1395.97,1304.36,1396.77z M1302.41,1390.95c-11.2-1.61-26.02-4.41-26.02-4.41
			c-0.37-0.07-0.77-0.07-1.11-0.21c-11.6-4.82-23.7-8.35-34.78-14.55c-7.83-4.39-15.86-8.57-25.04-9.9
			c-4.62-0.67-9.13-2.11-13.55-4.22c13.54-4.22,25.05-6.88,33.57-8.58c11.55-2.31,17.52-2.81,25.7-3.45
			c9.24-0.73,18.37,0.65,27.22,3.55c2.68,0.88,5.42,1.58,8.16,2.29c15.38,3.97,29.89,10.18,43.97,17.42
			c11.28,5.8,22.84,10.75,35.57,12.24c5.54,0.65,11.12,0.99,16.69,1.47C1346.78,1389.92,1312.31,1392.36,1302.41,1390.95z
			 M932.11,1265.38c1.64-2.46,4.28-4.22,6.16-6.55c2.93-3.64,5.51-7.57,8.41-11.23c1.24-1.57,2.7-3.29,4.45-4.1
			c7.7-3.53,15.55-6.87,23.93-8.37c9.04-1.62,17.99-4.29,27.41-2.44c9.68,1.91,19.5,1.6,29.28,1.05c3.64-0.21,7.26-0.97,10.88-1.48
			c-5.2,2.48-12.96,6.19-22.36,10.78c-23.82,11.64-22.96,11.69-29.75,14.53c-16.57,6.94-22.41,8.95-38.89,13.03
			c-5.48,1.35-10.76,3.5-16.25,4.81c-4.9,1.17-9.96,1.67-14.96,2.47C925.08,1274.16,928.91,1270.17,932.11,1265.38z M956.25,1292.13
			c-0.72,0.44-2.14,1.26-4.14,1.79c-0.97,0.25-1.86,0.36-2.78,0.45c-7.89,0.73-10.72-4.97-20.8-7.68
			c-8.24-2.22-14.36-0.57-14.5-1.72c-0.15-1.24,6.96-3.39,12.76-5.14c2-0.6,3.34-0.96,3.34-0.96c18.6-4.71,37.18-9.46,54.97-16.78
			c5.02-2.07,9.8-4.72,14.75-6.96c2.67-1.21,5.49-2.11,8.24-3.15c0.21,0.36,0.42,0.71,0.63,1.07c-4.84,4.16-8.92,7.61-11.91,10.12
			C996.81,1263.17,978.87,1278.27,956.25,1292.13z M1338.26,1251.32c0.86,0.16,2.27,0.92,4.08,1.79
			c18.5,8.89,22.91,22.24,42.29,39.68c2.17,1.95,5.64,4.96,10.2,8.38c-5.23-1.55-10.5-2.97-15.67-4.69
			c-5.72-1.9-11.5-3.75-16.97-6.25c-4.41-2.01-8.32-5.11-12.6-7.44c0,0-5.81-3.15-12.11-5.82c-30.59-12.95-58.61-5.95-58.61-5.95
			c-2.52,0.63-4.86,1-9.11,2.88c-15.66,6.94-31.24,14.04-46.85,21.09c-4.79,2.16-9.63,4.24-14.37,6.51
			c-6.57,3.14-13.72,3.85-20.71,5.32c-2.92,0.61-5.78,1.5-8.63,2.4c-9.97,3.12-19.78,3.55-29.26-1.66
			c-0.43-0.24-0.65-0.85-1.43-1.91c1.88-0.79,3.47-1.62,5.16-2.13c14.69-4.42,28.61-10.22,40.88-19.8
			c9.32-7.28,19.11-14.02,29.03-20.46c12.13-7.87,25.6-12.64,39.78-15.38c13.93-2.68,28.03-3.87,42.12-2.24
			C1316.49,1246.89,1327.36,1249.31,1338.26,1251.32z M1211.99,1217.85c5.33,0.72,22.23,3.63,36.72,6.22
			c18.88,3.37,15.59,1.72,39.95,7.43c23.97,5.62,44.73,13.15,44.43,14.28c-0.2,0.74-9.05-2.23-24.98-3.59
			c-19.06-1.63-32.81,0.94-38.34,1.26c-4.63,0.26-9.23,1.75-13.76,3c-9.97,2.76-19.77,6.14-28.93,10.96
			c-6.13,3.23-11.92,7.15-17.68,11.03c-9.99,6.72-19.6,14.02-29.82,20.36c-9.11,5.65-18.73,10.6-29.55,12.3
			c-2.32,0.36-5.12,0.45-7.15-0.51c-10.95-5.16-21.94-4.16-33.1-1.09c-9.6,2.64-19.15,5.55-28.87,7.65
			c-14.69,3.18-29.48,6.08-44.66,5.4c-2.39-0.11-4.77-0.53-8.32-0.95c4.25-2.82,7.58-4.81,10.66-7.12
			c9.35-7,18.42-14.37,27.93-21.13c11.66-8.27,23.65-16.07,35.5-24.07c3.11-2.1,6.21-4.21,9.36-6.25
			c5.48-3.55,21.34-13.62,41.49-21.64C1177.03,1221.78,1193.23,1215.34,1211.99,1217.85z M1155.8,1216.04
			c4.27,0.46,8.65-0.29,12.98-0.26c4.46,0.03,8.91,0.32,13.37,0.5c0.07,0.43,0.15,0.86,0.22,1.29c-4.14,1.48-8.17,3.56-12.44,4.31
			c-7.18,1.26-13.74,3.97-20.12,7.16c-13.62,6.81-27.33,13.5-40.6,20.97c-7.66,4.31-14.48,10.1-21.74,15.13
			c-7.89,5.47-15.99,10.64-23.75,16.29c-8.52,6.2-16.95,12.56-25.08,19.26c-10.56,8.7-22.13,11.41-35.34,7.75
			c-1.83-0.51-5.92-0.72-10.44-1.57c-6.42-1.22-16.3-3.65-28.52-8.86c-1.48-1.08-3.13-2.29-5.24-3.83c2.59-1.61,6.85-4.3,12-7.76
			c36.05-24.19,40.82-35.57,64.75-46.85c13.42-6.33,26.75-9.02,32.01-11.01c10.21-3.86,20.99-4.24,31.52-6.1
			c5.55-0.98,11.18-1.58,16.7-2.75C1129.19,1216.93,1142.28,1214.59,1155.8,1216.04z M1335.61,1235.14
			c-6.34-2.81-12.72-5.56-19.25-7.88c-6.68-2.37-13.5-4.4-20.35-6.21c-13.49-3.56-27.31-5.2-41.14-6.83
			c-11.74-1.39-23.4-3.33-35.12-4.91c-6.33-0.85-12.67-1.76-19.04-2.08c-9.47-0.48-17.85-4.43-26.5-7.56
			c-10.97-3.96-21.83-8.28-32.89-11.99c-12.74-4.28-25.96-6.45-39.37-6.67c-9.91-0.17-19.84,0.67-29.76,1.05
			c5.79,0.44,11.58,1.28,17.37,1.23c16.1-0.13,32.09,0.91,47.46,5.78c12.17,3.86,23.98,8.88,35.95,13.36c2.45,0.92,4.92,1.75,8.42,3
			c-5.37,0.56-9.77,0.88-14.11,1.5c-5.18,0.75-10.57,1.07-15.44,2.79c-10.09,3.57-20.67,4.06-31.03,5.88
			c-10.37,1.83-20.82,3.26-31.26,4.7c-19.78,2.72-20.08,6.15-36.65,8.63c-10.65,1.59-18.07,2.7-28.32,2.05
			c-7.54-0.48-12.48-1.24-23.6-1.75c-4.84-0.22-9.8-0.23-14.56,0.54c-9.86,1.6-19.52,4.14-28.74,8.13
			c-1.44,0.62-3.09,0.74-5.55,1.29c2.46-8.19,5.88-14.74,12.49-18.47c7.34-4.13,15.27-7.21,22.95-10.74
			c3.9-1.79,7.93-3.36,11.69-5.41c1.71-0.93,3.47-2.54,4.26-4.27c4.65-10.27,12.03-18.06,21.03-24.59c2.28-1.66,4.3-1.8,6.83-1.22
			c9.36,2.15,18.71,4.33,28.13,6.18c4.21,0.83,8.57,0.91,12.86,1.33c-13.18-2.92-26.38-5.84-40.2-8.9c2.87-3.92,6.28-5.37,9.72-6.65
			c21.57-8,43.64-14.4,65.97-19.87c7.48-1.83,15.17-3.02,22.83-3.87c5.45-0.6,10.46-2.17,14.6-5.46c5.66-4.5,12.21-6.07,18.96-6.26
			c8.62-0.25,17.27,0.53,25.9,0.88c6.83,0.28,12.67,3.23,18.3,6.79c2.54,1.61,5.12,3.2,7.83,4.49c1.62,0.77,3.54,1.4,5.29,1.32
			c2.9-0.13,5.14,0.83,7.12,2.75c13.35,12.86,28.79,23.03,43.63,33.97c1.81,1.34,3.85,2.36,5.69,3.67
			c7.92,5.68,15.76,11.47,23.72,17.09c7.83,5.53,15.92,10.7,23.63,16.38c7.7,5.67,15.87,10.91,20.96,19.43
			c0.44,0.74,0.72,1.59,0.42,3.14C1343.04,1238.98,1339.43,1236.83,1335.61,1235.14z M1405.46,1285.04
			c-8.48-6.89-16.77-14.01-25.41-20.69c-7.59-5.86-15.49-11.33-23.37-16.82c-2.75-1.92-5.02-3.52-6.22-7.26
			c-1.32-4.11-4.35-8-7.47-11.15c-7.72-7.8-16.69-14.05-26.3-19.39c-3.1-1.73-6.02-3.83-8.87-5.97
			c-7.07-5.29-14.04-10.71-21.07-16.04c-1.04-0.79-2.3-1.31-3.36-2.08c-3.94-2.85-7.85-5.76-11.77-8.65
			c-3.64-2.68-7.09-5.68-10.95-7.98c-7.83-4.66-14.94-10.18-21.43-16.54c-1.61-1.58-3.45-2.92-5.07-4.49
			c-1.43-1.37-2.7-2.9-4.05-4.36c0.24-0.59,0.48-1.17,0.72-1.76c5.96-0.21,11.96-0.9,17.89-0.53c11.13,0.7,22.06,3.14,32.59,6.65
			c7.2,2.4,14.27,5.2,20.92,9.5c11.16,7.22,21.1,15.73,31.05,24.4c8.89,7.74,15.12,17.22,20.11,27.65
			c2.19,4.58,4.02,9.35,5.82,14.11c3.45,9.14,8.8,16.99,15.6,23.95c2.09,2.14,3.47,4.99,5.61,7.06
			c6.77,6.55,14.32,12.06,22.25,17.21c10.51,6.82,20.54,14.38,28.97,23.92C1422.71,1292.59,1413.09,1291.23,1405.46,1285.04z
			 M1216.17,783.1c3.25-0.75,5.29,0.42,7.29,1.79c2.33,1.59,4.73,3.09,7,4.77c11.72,8.63,25.32,13.09,38.95,17.32
			c4.1,1.27,6.71,3.08,8.67,7.02c4.62,9.26,9.89,18.2,14.82,27.31c6.92,12.78,12.76,25.91,15.53,40.39
			c1.87,9.78,5.6,19.11,10.32,27.96c0.78,1.46,1.35,3.02,2.02,4.53c-0.4,0.28-0.81,0.57-1.21,0.85
			c-5.11-5.95-10.23-11.91-15.34-17.86c-1.96-2.28-3.83-4.66-5.91-6.82c-11.87-12.31-23.43-24.9-34.07-38.3
			c-6.9-8.68-13.54-17.57-20.16-26.47c-4.48-6.03-8.81-12.17-13.03-18.38c-4.43-6.52-8.68-13.16-12.95-19.8
			C1217.36,786.24,1216.94,784.85,1216.17,783.1z M1217.59,789.84c3.4,5.24,6.19,9.44,8.88,13.7c2.11,3.34,3.86,6.94,6.17,10.12
			c5.96,8.19,12.1,16.26,18.26,24.3c7.09,9.25,14,18.66,21.51,27.56c6.79,8.04,14.3,15.46,21.45,23.19c2.9,3.13,5.69,6.36,8.16,9.82
			c-9.16-5.36-18.6-10.31-27.42-16.18c-15.17-10.08-30.61-19.9-43.41-33.11c-3.39-3.5-6.56-7.24-9.62-11.03
			c-1.12-1.39-2.49-3.98-3.56-7.1c-2.42-7.02-0.91-12.78-0.12-18.66C1218.62,807.15,1219.05,799.53,1217.59,789.84z
			 M1469.23,1231.44c1.88,9.22,3.86,18.43,6.03,27.59c3.15,13.32,1.66,17.67,3.09,33.14c2.56,27.84,6.23,41.18,4.63,41.61
			c-2.03,0.54-9.52-20.66-13.5-33c-9.02-27.98-7.7-31.04-14.05-49.73c-7.51-22.09-14.16-41.63-31.34-57.49
			c-1.77-1.64-10.6-10.41-32.24-20.69c-14.97-7.11-29.08-15.78-40.31-28.55c-6.5-7.39-12.64-14.94-17.22-23.65
			c-1.6-3.03-3.35-6.2-2.12-10.76c3.31,2.33,6.19,4.31,9.02,6.35c5.04,3.64,9.89,7.59,15.14,10.88c4.91,3.08,10.01,6.16,15.45,8.05
			c12.73,4.44,24.6,10.7,36.09,17.41c12.36,7.22,23.27,16.78,32.97,27.37c4.66,5.08,8.17,11.25,11.94,17.09
			c3.36,5.21,6.21,10.74,9.55,15.97C1465.98,1218.71,1467.9,1224.92,1469.23,1231.44z M1423.77,1090.06
			c7.27,12.45,12.29,25.86,18.07,38.94c1.96,4.44,2.85,9.35,4.2,14.05c5.01,17.56,10.05,35.12,14.97,52.71
			c0.75,2.69,0.92,5.53,1.54,9.44c-1.3-1.04-1.96-1.31-2.22-1.8c-8.78-16.69-22.08-29.38-36.16-41.48
			c-16.26-13.97-35.34-22.84-54.88-30.85c-7.26-2.97-13.34-7.69-19.85-11.77c-3.5-2.19-6.68-4.9-10.02-7.35
			c-3.38-2.47-5.49-5.55-7.37-9.51c-2.69-5.65-7.25-10.48-11.33-15.39c-6.7-8.07-15.35-13.98-24.08-19.46
			c-12.07-7.57-21.73-17.39-29.54-29.04c-7.11-10.61-14.05-21.4-20.12-32.62c-0.79-1.45-1.49-3.44-2.47-6.13
			c-4.97-13.67-4.31-21.04-6.77-30.92c-1.3-5.23-3.82-12.48-9.15-20.73c0.26-0.16,0.52-0.32,0.78-0.49
			c5.55,4.1,11.17,8.11,16.64,12.31c11.94,9.16,25.31,15.44,39.46,20.38c10.11,3.53,20.01,7.69,29.98,11.61
			c3.15,1.24,6.18,2.83,9.39,3.87c14.6,4.72,26.33,13.78,36.5,24.8c10.33,11.2,19.8,23.18,29.98,34.53
			c6.01,6.71,12.44,13.09,19.09,19.16C1415.56,1079.05,1420.15,1083.86,1423.77,1090.06z M1394.06,1036.02
			c5.92,10.88,11.64,21.88,17.44,32.82c-0.33,0.28-0.66,0.56-0.99,0.85c-4.12-3.92-8.56-7.55-12.29-11.81
			c-10.29-11.74-20.06-23.94-30.45-35.58c-9.21-10.31-19.85-19.05-32.13-25.55c-3.13-1.66-6.68-2.53-10-3.84
			c-6.84-2.69-13.62-5.58-20.52-8.12c-6.88-2.54-13.9-4.69-20.82-7.14c-3.36-1.19-6.76-2.42-9.89-4.08
			c-9.29-4.94-19.19-8.84-27.26-15.92c-3.22-2.83-6.86-5.18-10.25-7.82c-5.63-4.41-10.01-9.55-12.83-15.65
			c-0.43-0.93-1.35-4.35-3.21-11.13c-1.33-4.86-2.28-8.34-3.64-13.63c-3.14-12.3-4.72-18.45-5.2-21.87
			c-0.3-2.12-1.26-10.82-0.33-22.21c0.49-6,1.85-14.68,5.85-24.96c0.68,0.4,1.37,0.64,1.84,1.1c6.73,6.6,13.36,13.29,20.15,19.82
			c7.74,7.44,15.93,14.09,25.45,19.48c14.4,8.16,28.22,17.42,41.84,26.85c9.13,6.32,14.82,15.14,27.24,31.39
			c19.12,25.01,31.74,46.88,41.32,63.47C1379.52,1009.64,1386.83,1022.74,1394.06,1036.02z M1430.39,1081.65
			c-4.62-8.05-9.13-16.17-13.9-24.13c-2.98-4.98-6.37-9.73-9.55-14.6c-1.53-2.35-2.93-4.78-4.47-7.12
			c-5.79-8.77-10.18-15.47-12.44-18.76c-16.49-23.96-20.98-34.56-38.68-58.56c-8.05-10.92-11.59-15.1-17.53-24.97
			c-4.83-8.02-8.65-16.69-12.46-25.27c-3.35-7.56-6.07-15.41-9.07-23.13c-0.2-0.53-0.45-1.06-0.53-1.61
			c-2.75-18.07-11.48-33.69-20.18-49.34c-3.55-6.39-6.9-12.88-10.78-20.14c4.11,1.35,6.31,3.79,8.59,6.1
			c11.02,11.12,21.32,22.83,30.34,35.67c4.12,5.85,9.81,9.77,16.7,11.99c3.04,0.98,6.08,2.17,8.82,3.77
			c9.32,5.43,19.19,8.74,30.06,8.18c3.14-0.16,4.61,1.22,6.32,3.56c4.8,6.58,6.81,14.32,9.14,21.8c3.33,10.68,8.21,20.6,12.93,30.64
			c4.88,10.38,10.1,20.64,14.17,31.34c4.23,11.12,5.82,22.91,6.26,34.87c0.35,9.57,1.57,19.11,2.21,28.68
			c0.28,4.12,0.1,8.26,0.08,12.4c-0.05,11.54,0.77,22.96,4.3,34.06c0.42,1.33,0.46,2.78,0.68,4.18
			C1431.08,1081.39,1430.74,1081.52,1430.39,1081.65z M1474.71,1200.93c-0.65-1.64-1.57-3.23-1.9-4.93
			c-2.56-13.08-4.81-21.99-5.51-28.24c0,0-2.49-22.36-15.84-45.44c-0.96-1.66-4.25-7.6-8.29-15.91c-1.39-2.86-1.97-6.21-3.74-8.78
			c-4.74-6.88-4.23-15.11-6.37-22.63c-3-10.52-3.79-21.37-3.89-32.3c-0.04-4.69-0.72-9.36-1.04-14.05
			c-0.49-7.32-1.14-14.65-1.34-21.98c-0.38-13.82-2.04-27.45-6.39-40.59c-1.88-5.69-4.58-11.12-7.15-16.56
			c-5.54-11.74-11.42-23.33-16.79-35.15c-2.25-4.95-3.51-10.33-5.27-15.51c-1.98-5.82-4.02-11.62-6.19-17.9
			c4.45-0.86,8.8,0.41,12.64,2.88c4.41,2.84,8.77,5.88,12.66,9.39c16.05,14.49,28.19,31.8,36.29,51.88
			c1.41,3.48,2.66,7.06,3.56,10.7c1.87,7.54,6.01,13.67,11.05,19.4c2.09,2.38,3.64,5.24,5.46,7.86c1.28,1.85,2.3,4.03,3.98,5.42
			c2.94,2.42,3.69,5.39,3.87,8.95c0.42,8.64,0.81,17.3,1.73,25.9c0.72,6.73,2.14,13.39,3.4,20.05c2.33,12.39,5.47,24.68,6.97,37.16
			c1.39,11.55,1.09,23.3,1.47,34.96c0.09,2.81,0.16,5.66-0.14,8.44c-0.55,5.04-1.35,10.05-2.13,15.06
			c-2.96,18.96-5.95,37.91-8.95,56.86C1476.58,1197.51,1476.15,1199.11,1474.71,1200.93z M1487.43,1265.17
			c-0.33-2-1.01-5.84-1.61-11.13c-0.56-5.01-0.73-10.07-1.4-15.07c-0.75-5.56-1.95-11.07-2.83-16.61
			c-0.73-4.63-1.52-9.28-1.87-13.95c-1.16-15,2.22-29.62,4.27-44.32c1.3-9.29,3.75-18.42,5.15-27.7c1.09-7.24,2.05-14.63,1.84-21.92
			c-0.41-14.1-1.25-28.22-2.76-42.24c-0.89-8.18-3.28-16.22-5.25-24.26c-2.98-12.13-4.46-24.38-4.08-36.89
			c0.16-5.16-0.48-10.34-0.8-16.46c3.65,1.75,5.87,3.73,7.41,6.12c2.24,3.47,4.23,7.15,5.86,10.95c3.42,7.96,7.08,15.87,9.63,24.12
			c3.58,11.61,8,22.94,9.93,35.14c1.62,10.24,3.33,20.41,3.82,30.76c0.48,10.15-0.44,9.86,0.05,15.22
			c1.79,19.75,13.17,22.32,16.79,39.22c3.92,18.33-4.78,37.26-7.32,42.8c-1.72,3.74-6,15.11-9.63,24.73
			c-0.92,2.43-1.22,5.09-2.07,7.56c-1.33,3.88-2.95,7.65-4.31,11.51c-2.75,7.8-5.53,15.59-8.04,23.47
			c-1.3,4.08-2.12,8.32-3.04,12.52c-1.15,5.29-2.36,10.58-3.16,15.93c-0.44,2.93-0.14,5.98-0.09,8.97c0.03,2.16,0.19,4.32,0.34,7.42
			C1490.55,1285.05,1488.57,1272.08,1487.43,1265.17z M1839.35,910.03c2.45,4.77,2.59,9.02,1.33,13.27
			c-1.39,4.7-2.94,9.34-4.27,14.06c-2.14,7.58-4.52,15.13-6.04,22.84c-0.69,3.53-0.03,7.52,0.83,11.11
			c0.93,3.86,0.23,6.65-2.13,9.87c-5.62,7.7-13.27,12.71-21.17,17.53c-3.53,2.16-7.1,4.26-10.65,6.39
			c-5.7,3.43-10.62,7.76-14.96,12.79c-1.2,1.39-2.6,2.59-3.91,3.87c-0.32-0.2-0.63-0.4-0.95-0.6c3.36-7.15,6.45-14.43,10.13-21.4
			c6.07-11.47,13.02-22.5,18.69-34.16c7.53-15.48,17.1-29.68,25.9-44.37C1834.43,917.42,1836.94,913.76,1839.35,910.03z
			 M1793.84,938.28c2.17-3.03,4.52-5.94,10.57-9.88c8.66-5.63,17.64-10.76,26.54-16.01c1.08-0.64,2.43-0.81,4.76-1.54
			c-18.05,31.26-36.1,62.53-54.15,93.79c1.54-16.98,3.39-32.53,5.3-46.61C1787.56,952.91,1788.65,945.52,1793.84,938.28z
			 M1624.61,1313.44c-13.1,18.41-26.32,36.73-39.51,55.08c-0.76,1.06-1.56,2.08-3.09,4.11c-0.24-3.57-0.7-6.07-0.53-8.53
			c0.92-13.07-1.94-25.5-6.47-37.58c-2.99-7.98-6.06-25.96-6.8-47.73c0,0-0.64-18.65,5.55-45.91c0.31-1.39,1.1-3.82,2.41-6.84
			c2.85-6.6,7.57-8.73,10.88-11.89c4.34-4.14,6.37-12.73,10.44-29.89c2.19-9.24,3.96-19.31,3.96-19.31
			c1.03-4.98,1.91-9.99,3.05-14.95c0.7-3.04,1.75-6.01,2.64-9.01c0.33,0.11,0.67,0.21,1,0.32c0.55,6.53,1.04,13.06,1.68,19.58
			c0.22,2.23,0.8,4.43,1.23,6.63c1.89,9.6,3.77,19.2,5.69,28.8c0.44,2.21,1.04,4.39,1.54,6.59c3.83,16.88,8.41,33.64,11.25,50.68
			c2.96,17.7,2.34,35.62-2,53.2C1626.97,1309.11,1625.99,1311.5,1624.61,1313.44z M1687.69,1212
			c-7.24,17.49-13.64,29.44-24.99,50.49c-1.97,3.66-4.76,9.62-9.68,16.54c-5.22,7.34-11.06,14.24-16.68,21.3
			c-0.69,0.86-1.6,1.54-2.81,2.68c-1-2.28-0.68-4.19-0.44-6.14c1.3-10.87,2.1-21.71-0.07-32.61c-0.79-3.98-0.37-8.2-0.97-12.24
			c-2.65-17.89-5.78-29.32-10.02-46.24c0,0-8.15-32.56-9.78-61.58c-0.11-2-0.29-9.6,0.32-19.53c0.32-5.16,1.13-11.78,3.51-19.89
			c1.31-4.46,4.17-13.89,11-23.58c5.88-8.35,7.08-6.05,22.24-22.42c5.1-5.51,9.24-11.66,13.76-18.43c0.62-0.93,1-2.03,1.64-2.96
			c13.32-19.22,24.41-34.53,24.41-34.53s12.42-13.03,29.73-21.36c1.41-0.68,2.6-1.03,3.2-1.04c6.4-0.13,8.62-0.94,7.46,6.91
			c-1.36,9.29-1.87,18.75-3.86,27.89c-1.79,8.24-5.01,16.17-7.73,24.19c-3.38,9.96-7.84,19.67-10.13,29.87
			c-3.33,14.84-5.25,30-7.52,45.06c-0.49,3.28,0.13,6.73,0.2,10.1c0.18,8.97,0.24,16.8,0.25,19.2c0.06,11.52,0.13,25.53-2.77,39.59
			C1696.38,1191.01,1693.48,1198.01,1687.69,1212z M1733.84,1096.77c-4.72,10.03-8.53,20.55-12.06,31.07
			c-3.71,11.06-6.19,22.53-9.98,33.56c-3.22,9.38-7.54,18.38-11.37,27.54c-0.21-0.01-0.42-0.02-0.64-0.03
			c0.71-3.22,1.78-8.55,2.58-15.2c2.51-21.02-0.57-31.61-0.01-52.55c0.1-3.65,1.09-14.71,2.87-28.6
			c2.31-18.07,8.07-35.08,14.98-51.91c4.7-11.44,8-23.52,9.44-35.96c0.82-7.1,1.94-14.17,2.63-21.28c0.27-2.78,1.29-4.5,3.8-5.67
			c2.73-1.26,5.17-3.39,8-4.15c7.42-2.01,12.67-7.07,18.13-11.9c4.49-3.97,8.74-8.24,13.37-12.03c3.75-3.07,7.93-5.62,12.63-8.9
			c-0.14,1.68,0.05,2.76-0.34,3.54c-4.13,8.29-4.99,17.36-6.02,26.31c-1.14,9.91-1.35,19.91-2.37,29.84
			c-1.01,9.83-3.46,19.44-9.48,27.43c-6.32,8.4-9.83,18.18-14.69,27.28C1747.98,1068.93,1740.48,1082.66,1733.84,1096.77z
			 M1729.06,1119.2c2.25-8.64,7-18.67,16.51-38.73c10.72-22.62,9.65-19.4,14.65-29.31c2.87-5.69,5.56-11.52,8.91-16.92
			c2.03-3.28,5.1-5.94,7.82-8.77c1.56-1.62,3.57-2.83,5.04-4.52c8.03-9.26,18.29-15.48,28.58-21.83c7-4.31,13.21-9.89,19.77-14.9
			c1.18-0.9,2.37-1.78,4.21-3.17c2.51,6.15,4.28,11.84,3.13,18.2c-1.85,10.17-3.47,20.39-5.42,30.55
			c-1.28,6.66-2.94,13.24-4.48,19.84c-3.12,13.41-3.16,26.84-0.52,40.32c0.2,1.02,0.59,2.63,1.55,4.53
			c1.94,3.83,4.93,6.12,6.91,7.37c-2.03,1.6-5.02,4-8.57,6.99c-17.38,14.64-20.65,21.67-30.32,28.56
			c-13.11,9.35-27.41,16.39-41.84,23.32c-10.34,4.97-20.95,9.66-29.56,17.49c-4.44,4.04-8.26,8.74-12.35,13.15
			c-0.74,0.8-1.43,1.65-3.18,2.16c0.4-1.66,0.74-3.33,1.2-4.97c3.47-12.51,6.97-25.01,10.45-37.51c0.15-0.54,0.24-1.1,0.37-1.66
			C1725.23,1135.23,1728.1,1122.86,1729.06,1119.2z M1661.67,1289.83c7.48-9.77,12.05-21.2,18.24-31.7c0.76-1.3,1.54-2.59,2.32-3.88
			c4.2-6.89,8.67-13.63,12.52-20.71c2.58-4.76,4.25-10.01,6.39-15.01c2.67-6.23,4.71-12.87,8.3-18.52
			c5.13-8.09,11.43-15.42,19.31-21.16c9.46-6.89,19.73-12.34,30.22-17.51c10.59-5.23,21.33-10.22,31.14-17
			c16.7-11.54,29.41-23.69,29.41-23.69c10-9.79,14.55-16.37,17.99-15c3.52,1.41,3.14,10.1,2.83,17.03
			c-0.23,5.29-2.02,12.56-6.85,32.04c-2.07,8.37-5.17,16.49-7.58,24.79c-1.46,5.04-3.09,10.17-3.49,15.35
			c-0.36,4.67-1.82,8.53-4.92,11.66c-11.14,11.22-21.65,23.17-34.75,32.25c-14.01,9.71-28.8,17.67-45.73,21.43
			c-11.37,2.53-22.6,5.9-33.64,9.62c-6.19,2.08-12.15,5.21-17.74,8.64c-8.8,5.41-17.19,11.48-25.77,17.26
			c-0.45,0.31-1.01,0.46-2.23,1.01C1659.19,1294.04,1660.19,1291.76,1661.67,1289.83z M1587.78,1395.74
			c-0.36-0.21-0.73-0.42-1.09-0.64c0.3-1.4,0.36-2.92,0.94-4.19c3.37-7.34,6.28-14.99,10.5-21.82c3.72-6.02,8.92-11.14,13.53-16.61
			c7.39-8.76,15.23-17.17,22.14-26.29c7.21-9.53,15.53-17.99,24.15-26.08c5.7-5.36,12.51-9.65,19.22-13.78
			c8.15-5.02,16.38-10.2,25.19-13.82c11.62-4.78,23.83-8.08,36.23-10.48c8.55-1.65,16.62-4.65,24.22-9
			c6.37-3.64,12.86-7.09,19.44-10.34c7.04-3.48,12.98-8.19,17.94-14.26c1.54-1.88,3.43-3.47,5.2-5.16c3.25-3.12,6.51-6.22,9.79-9.3
			c0.63-0.59,1.39-1.05,3.11-1.11c-0.57,2.04-0.96,4.16-1.75,6.12c-3.54,8.72-6.18,18.01-11.03,25.95
			c-8.27,13.57-16.28,27.89-30.09,36.78c-10.87,7-21.82,14.15-34.54,17.77c-4.14,1.18-7.94,3.5-12.05,4.82
			c-6.45,2.08-12.98,3.94-19.55,5.55c-13.83,3.39-25.53,10.91-36.89,19c-2.63,1.88-4.46,4.97-6.42,7.68
			c-5.16,7.17-10.21,14.6-17.29,19.88c-4.73,3.53-10.78,5.24-16.08,8.07c-9.95,5.32-20.05,10.43-29.55,16.48
			c-4.8,3.06-8.41,7.99-12.56,12.07C1589.57,1393.95,1588.68,1394.85,1587.78,1395.74z M2064.75,1398.93
			c-2.8,0.69-13.13,7.19-19.73,9.61c-1.31,0.48-3.27,1.1-11.36,2.01c-9.37,1.06-18.93,3.43-32.31,1.68
			c-12.11-1.58-24.17-3.56-36.25-5.39c-0.54-0.08-1.05-0.36-1.57-0.54c6.02-2.98,12.5-3.99,18.98-4.46
			c15.37-1.13,30.77-1.75,46.14-2.87c11.07-0.81,22.09-2.11,33.15-3.13c2.13-0.2,4.29-0.09,6.67,0.87
			C2067.23,1397.47,2066.09,1398.6,2064.75,1398.93z M2021.99,1371.88c5.59,1.58,11.1,3.62,16.39,6.03
			c6.84,3.12,12.65,4.45,24.36,6.94c15.94,3.4,27.28,3.33,27.38,5.51c0.03,0.81-1.4,1.89-2.78,2.06c-4.11,0.49-8.26,0.61-12.38,0.92
			c-12.37,0.95-24.74,2.05-37.12,2.86c-9.19,0.6-18.41,0.83-27.61,1.23c-3.75,0.16-7.52,0.23-11.26,0.52
			c-8.22,0.64-16.46,1.15-24.63,2.2c-5.36,0.69-10.61,2.24-16.43,2.62c0.67-0.71,1.33-1.42,2-2.13c0,0,1.09-1.16,2-2.12
			c24.77-26.06,50.09-27.21,50.09-27.21C2013.63,1371.23,2017.42,1370.58,2021.99,1371.88z M1704.27,1526.7
			c-2.8,7.14-6.79,13.82-10.32,20.67c-2.63,5.13-5.15,10.34-8.12,15.27c-2.5,4.16-5.59,7.97-8.98,12.72
			c-0.27-3.95-0.67-7.19-0.69-10.43c-0.06-9.15-2.57-17.81-4.67-26.61c-4.72-19.84-9.31-37.12-10.19-55.42
			c-1.11-23.11,3.53-42.95,9.18-52.19c1.24-2.03,6.7-9.53,12.65-17.92c1.08-1.52,2.2-3.04,3.52-4.33c0,0,5.58-6.47,12.17-11.75
			c9.21-7.38,20.33-11.43,36.7-17.28c8.9-3.18,9.62-2.31,15.93-5.53c7.52-3.83,15.22-7.32,23.02-11.04
			c-2.89,6.59-5.24,13.2-8.58,19.28c-4.89,8.9-10.57,17.36-15.75,26.1c-7.19,12.13-14.47,24.22-21.25,36.58
			c-4.64,8.45-7.42,17.73-9.53,27.12c-1.76,7.87-2.58,15.98-4.76,23.73C1711.69,1506.16,1708.24,1516.55,1704.27,1526.7z
			 M1809.13,1448.54c-15.19,5.1-29.77,11.69-44.46,18.08c-8.84,3.84-15.32,9.95-22.03,16.18c-9.89,9.18-16.99,20.61-25,31.31
			c-3.14,4.19-6.14,8.47-10.03,12.34c2.2-6.04,4.55-12.04,6.56-18.14c3.13-9.49,4.66-19.3,6.07-29.2
			c1.02-7.19,3.06-14.38,5.63-21.19c5.28-13.96,12.76-26.85,20.62-39.52c7.25-11.68,14.43-23.39,21.55-35.14
			c1.16-1.91,1.78-4.13,2.76-6.16c1.13-2.36,2.34-4.68,3.56-6.98c0.44-0.83,1.33-1.51,1.5-2.37c1.96-9.73,10.04-10.99,17.66-12.92
			c1.64-0.41,3.33-0.7,4.91-1.27c3.88-1.4,7.8-2.73,11.55-4.44c10.88-4.96,22.84-6.17,34.04-9.99c10.23-3.48,21-3.31,31.54-4.7
			c5.57-0.73,11.19-1.32,16.8-1.47c3.54-0.09,7.13,0.59,10.65,1.22c1.79,0.32,3.81,0.91,5.12,2.07c6.37,5.66,14.2,5.58,21.89,5.8
			c6.51,0.18,13.03-0.21,19.94,0.64c-2.53,1.38-4.96,3.01-7.62,4.08c-16.42,6.61-31.14,15.82-44.18,27.84
			c-14.51,13.38-22.34,19.43-32.86,29.33c-10.36,9.75-25.48,23.37-45.77,39.65C1816.27,1445.57,1812.84,1447.29,1809.13,1448.54z
			 M1891.68,1425.78c-11.55,4.1-23.15,7.72-35.23,10.01c-6.98,1.32-13.72,3.86-20.6,5.74c-4.06,1.11-8.17,1.99-12.58,3.05
			c16.1-13.86,28.84-25.33,37.74-33.48c6.8-6.23,13.57-12.5,20.42-18.68c8.63-7.79,17.06-15.83,26.12-23.09
			c6.41-5.14,13.53-9.49,20.68-13.58c6.16-3.52,12.91-6.01,19.23-9.28c7.19-3.71,14.54-4.98,22.38-2.71
			c6.87,1.98,13.78,3.86,20.59,6.03c4.41,1.41,7.9,4.05,10.37,8.22c1.38,2.33,3.73,4.12,5.76,6.03c1.43,1.35,3.06,2.5,5.02,4.09
			c-23.58,5.28-34.54,12.71-40.17,18.8c-1.87,2.03-8.98,8.14-18.64,16.24c-2.24,1.88-4.89,3.58-7.63,4.52
			C1927.36,1413.82,1909.41,1419.49,1891.68,1425.78z M1832.83,1456.38c7.02-2.06,14.03-4.25,21.17-5.85
			c20.89-4.66,40.94-11.41,59.42-22.44c2.61-1.56,8.79-5.03,17.83-9.74c11.96-6.23,17.62-8.6,24.96-9.46
			c4.18-0.49,7.31-0.8,11.4-0.04c8.51,1.58,17.08,2.88,25.62,4.3c3.52,0.59,7.03,1.22,10.56,1.75c8.27,1.23,16.51,1.15,24.72-0.65
			c1.94-0.42,3.95-0.51,6.99-0.89c-1.25,1.82-1.66,2.92-2.45,3.48c-6.74,4.78-13.45,9.63-20.37,14.13c-4.88,3.18-10.01,6-15.18,8.69
			c-1.74,0.9-3.95,1.25-5.95,1.25c-16.94,0.02-33.13,3.71-49.24,8.76c-13.43,4.21-26.85,8.76-41.13,9.77
			c-9.83,0.69-19.53-0.01-29.3-0.9c-10.31-0.94-20.67-1.4-31.01-1.69c-3.27-0.09-6.57,0.99-9.85,1.55
			C1831.6,1457.71,1832.08,1456.6,1832.83,1456.38z M1738.27,1509.19c4.22-5.52,8.93-10.67,13.53-15.88
			c6.99-7.91,15.99-13.12,25.17-17.89c8.35-4.34,17.25-7.4,26.4-9.77c5.61-1.45,11-3.79,16.59-5.34c3.57-0.99,7.33-1.27,11-1.87
			c6.87,0.29,13.8,0.45,20.71,0.91c8.99,0.59,18,1.22,26.96,2.2c10.99,1.2,21.81-0.11,32.64-1.5c14.49-1.87,28.02-7.41,41.97-11.31
			c12.9-3.61,25.95-5.49,39.42-4.96c-1.2,4.19-3.53,10.52-8.35,16.9c-6.93,9.17-15.14,13.34-27.52,19.46
			c-8.35,4.12-17.9,9.18-31.6,11.72c-14.74,2.73-29.6,3.01-44.48,2.24c-10.61-0.55-20.94-0.2-31.25,2.98
			c-4.52,1.39-9.76,1.27-14.56,0.76c-9.7-1.04-19.15,0.71-28.67,1.67c-5.62,0.56-11.2,1.52-16.81,2.17
			c-15.97,1.87-30.72,7.28-44.57,15.32c-4.55,2.64-9.1,5.26-13.7,7.8c-0.9,0.49-2.01,0.6-4.11,1.19
			C1731.19,1519.72,1734.43,1514.22,1738.27,1509.19z M1687.55,1595.15c1.6-3.98,3.15-7.98,4.82-11.93
			c3.08-7.27,6.04-14.61,9.42-21.75c5.13-10.82,12.53-20.07,20.72-28.71c0.77-0.81,1.69-1.54,2.66-2.08
			c11.7-6.43,23.18-13.35,35.22-19.08c13.6-6.46,28.46-8.16,43.38-9.02c3.17-0.18,6.35-0.68,9.45-1.38
			c5.96-1.36,16.8-1.54,22.28,0.06c-7.92,3.79-15.37,7.21-22.69,10.89c-11.73,5.89-22.43,13.09-29.85,24.31
			c-3.13,4.73-7.33,8-13.01,9.19c-17.89,3.76-34.6,10.15-49,21.8c-2.04,1.65-4.35,2.98-6.65,4.25
			c-9.55,5.29-17.38,12.49-23.86,21.22C1689.78,1593.81,1689.1,1594.68,1687.55,1595.15z M2007.7,1843.79
			c-0.97,5.91-2.94,11.71-3.41,17.65c-0.66,8.41-0.36,16.89-0.46,25.34c-0.02,1.44-0.02,2.87-0.04,5.25
			c-1.35-1.19-2.23-1.62-2.54-2.31c-2.49-5.5-4.88-11.05-7.31-16.58c-1.45-5.68-3.23-10.31-4.81-13.85
			c-5.14-11.51-12.22-20.87-19.89-30.5c-2.25-2.82-3.37-4.23-4.93-6.14c-5.99-7.35-14.63-17.7-25.83-30.31
			c18.09,7.42,32.87,13.92,43.6,18.68c0.53,0.23,8.38,4.59,17.55,11.24C2006.92,1827.55,2009.13,1835.14,2007.7,1843.79z
			 M1753.51,1622.16c-5.03,0.21-10.02,1.02-15.05,1.34c-9.95,0.63-19.92,1.12-29.88,1.64c-0.7,0.04-1.41-0.13-3.3-0.31
			c1.23-1.35,1.62-2.01,2.2-2.37c7.3-4.58,14.69-9.01,21.91-13.7c3.79-2.45,7.35-5.26,10.93-8.03c7.58-5.85,14.61-7.37,26.86-11.32
			c0,0,14.22-4.58,32.87-5.3c2.22-0.09,3.94,0.77,3.94,0.77c0.34,0.17,0.6,0.34,0.84,0.49c3.18,2.08,3.06,5.67,6.8,7.61
			c0.66,0.34,1.23,0.5,2.37,0.8c4.6,1.24,8.55,0.7,9.54,0.57c5.01-0.65,10.94-0.62,20.78-0.56c7.41,0.04,13.05,0.24,21.54,2.05
			c5.15,1.09,10.39,1.74,15.58,2.66c2.96,0.53,5.89,1.25,8.84,1.81c13.5,2.57,26.27,6.94,36.79,16.13c3.32,2.9,5.83,6.73,9.38,10.92
			c-1.83,0.11-2.52,0.34-3.08,0.16c-10.34-3.39-20.82-2.41-31.36-1.32c-15.4,1.58-30.8,2.27-46.07-1.34
			c-7.14-1.69-14.31-3.25-21.49-4.77c-10.23-2.16-20.61-2.79-30.85-0.69c-10.43,2.14-20.92,2.39-31.45,2.56
			C1765.93,1622.07,1759.71,1621.9,1753.51,1622.16z M1853.07,1682.17c-10.03-14.76-21.37-28.38-35.99-38.64
			c-11.74-8.24-24.72-14.42-38.96-17.43c-1.21-0.26-2.4-0.58-3.6-0.87c0.01-0.27,0.02-0.54,0.03-0.81
			c4.99-0.38,9.98-0.71,14.96-1.14c2.62-0.23,5.25-0.45,7.82-0.96c8.74-1.73,17.59-1.88,26.43-1.7c2.58,0.05,5.13,1.14,7.71,1.69
			c6.62,1.42,13.24,2.85,19.88,4.19c3.87,0.78,7.75,1.61,11.66,2.07c15.43,1.79,30.78,0.44,46.18-0.94
			c6.41-0.57,13.02,1.09,19.53,1.78c1.11,0.12,2.19,0.62,3.3,0.72c8.81,0.83,14.14,6.35,18.12,13.56c1.72,3.13,3.08,6.45,4.58,9.7
			c1.55,3.36,2.04,6.52,0.25,10.23c-1.85,3.86,0.88,10.09,4.39,13.15c3.23,2.8,6.14,5.96,9.18,8.98c0,0,1.79,1.73,6.65,6.71
			c13.99,14.35,44.08,45.21,36.65,68.94c-0.28,0.88-0.56,1.61-0.79,2.17c-1.27-1.26-2.36-2.14-3.19-3.22
			c-11.03-14.36-24.99-24.81-41.52-32.13c-12.02-5.32-24.62-8.23-37.5-10.21c-13.79-2.12-27.56-4.47-40.05-11.1
			c-9.13-4.84-18.2-9.85-26.91-15.41C1858.35,1689.26,1855.45,1685.68,1853.07,1682.17z M1872.42,1716.79
			c-3.44-6.27-7.28-12.32-10.91-18.49c-0.74-1.26-1.35-2.61-1.4-4.69c3.24,1.88,6.42,3.88,9.74,5.61
			c6.66,3.47,13.5,6.61,20.08,10.22c10.77,5.91,22.45,8.28,34.46,9.77c7.64,0.95,15.26,2.23,22.79,3.85
			c4.39,0.95,8.69,2.57,12.82,4.38c12.11,5.32,23.62,11.36,32.65,21.68c4.92,5.62,10.39,10.78,15.12,16.65
			c1.98,2.45,1.86,4.24,0.52,6.54c-1.43,2.43-3.1,4.75-4.24,7.31c-1.33,3.01-1.89,5.97-1.64,9.64c0.71,10.56,3.13,20.8,4.37,31.24
			c0.17,1.46-0.07,2.97-0.16,5.24c-4.06-3.19-7.52-6.17-11.25-8.75c-3.38-2.35-6.91-4.6-10.65-6.3c-3.49-1.59-6.31-2.94-8.74-4.07
			c0,0,0.01,0,0.01,0c0-0.01-13.49-7.97-29.46-13.9c-5-1.86-11.65-4.04-19.38-9.57c-1.16-0.83-2.1-1.56-2.7-2.04
			c-8.79-9.05-17.98-17.76-26.2-27.3C1888.44,1742.39,1879.72,1730.07,1872.42,1716.79z M1805.79,1736.15
			c-7.59-8.32-15.2-16.63-22.77-24.97c-4.8-5.29-5.63-11.97-5.22-18.54c0.72-11.49-5.25-19.66-12.23-27.51
			c-4.79-5.38-10.59-9.54-16.55-13.52c-6.46-4.31-13.32-7.7-20.85-9.7c-1.42-0.38-2.74-1.16-4.7-2.01c0.98-0.8,1.54-1.66,2.23-1.77
			c12.16-1.9,24.41-2.79,36.4,0.5c10.03,2.76,17.79,9.63,25.3,16.44c4.43,4.02,8.41,8.65,12.07,13.4
			c6.93,8.97,9.09,19.66,9.89,30.67c0.35,4.88,0.18,9.8,0.62,14.66c0.7,7.67-2.12,14.75-2.67,22.19
			C1806.81,1736.06,1806.3,1736.1,1805.79,1736.15z M1916.37,1860.85c-4.59,0.96-10.87,0.8-19.69-3.64
			c-11-5.54-52.15-30.96-72.85-70.13c-1.06-2.01-5.66-11.18-9.87-23.86c-2.24-6.73-3.82-12.5-4.34-20.21
			c-0.74-11.02,1.85-13.9,2.59-26.46c0.33-5.66-0.36-15.31-2.08-26.93c-1.82-12.31-8.67-22.09-16.87-31.25
			c-6.87-7.68-15.5-12.99-23.74-19.89c1.58-0.02,2.8-0.28,3.89-0.01c7.51,1.81,15.07,3.47,22.47,5.66
			c9.34,2.77,17.63,7.92,24.93,14.09c5.93,5.02,11.08,11.14,14.8,18.24c2.91,5.55,7.91,11.84,11.59,21.34
			c4.83,12.46,6.05,23.11,6.77,30.16c0.91,8.95-0.08,8.07,0.99,17.16c1.57,13.25,4.42,21.36,6.43,26.19
			c0.59,1.42,1.14,2.8,2.49,5.45c4.16,8.17,8.26,15.76,11.59,21.78c2.91,4.5,6.84,9.97,12.01,15.78c2.35,2.64,5.03,5.43,7.42,7.78
			c1.38,1.92,2.76,3.85,4.16,5.77c7.67,10.55,15.37,20.86,23.08,30.95C1920.92,1859.43,1918.93,1860.31,1916.37,1860.85z
			 M1955.18,1869.14c-2.18-0.68-6.62-0.87-12.5-2.97c-0.69-0.25-2.88-1.29-7.25-3.34c-5.07-2.38-7.61-3.57-7.84-3.68
			c-5.93-2.98-8.17-7.55-18.21-21.17c-1.74-2.36-4.41-5.94-7.78-10.27c0.06-0.44-2.09-2.83-5.56-6.94c-0.28-0.36-0.56-0.7-0.84-1.06
			c-0.29-0.36-0.6-0.71-0.92-1.04c-6.34-7.65-15.77-19.85-24.2-35.59c-3.36-6.27-6.04-11.67-8.67-19.57
			c-3.5-10.55-4.81-19.83-5.32-26.47c-0.14-5.15-0.31-10.35-0.52-15.6c-0.15-3.72-0.31-7.42-0.49-11.1
			c1.63,1.87,3.35,3.67,4.87,5.62c2.9,3.7,5.76,7.43,8.5,11.24c5.34,7.44,20.95,22.24,29.65,30.87
			c11.82,11.73,20.12,21.42,24.43,26.49c17.78,20.87,25.73,31.53,28.1,39.75c4.15,14.37-2.02,21.17,5.58,39.29
			c1.01,2.41,1.98,4.33,2.64,5.58C1957.16,1869.17,1956.09,1869.42,1955.18,1869.14z M1995.82,1895.91
			c-1.75-1.06-3.33-2.49-4.73-3.99c-7.13-7.67-15.77-13.25-24.59-18.71c-3.05-1.89-5.53-5.05-7.59-8.09c0,0,0,0,0-0.01
			c-7.29-11.54-3.45-21.41-4.98-33.29c-1.45-11.27-7.13-19.55-13.56-28.93c-6.24-9.11-12.4-14.77-11.98-15.24
			c0.13-0.14,3.64,2.69,16.13,13.54c3.41,4.77,6.47,8.65,8.9,11.6c7.01,8.53,23.17,26.94,28.82,37.14c0.94,1.7,1.72,3.12,2.18,4
			c2.59,4.95,4.69,9.66,6.4,14.02c0.83,5.79,2.73,11.18,5.27,16.32c0,0,0,0,0,0c1.34,2.71,2.86,5.35,4.5,7.95
			c1.05,1.66,2,3.38,3.33,5.62C2000.19,1898.62,1997.94,1897.2,1995.82,1895.91z"/>
	</g>
</g>
</svg>
