<?xml version="1.0" encoding="utf-8"?>
<!-- Generator: Adobe Illustrator 24.0.1, SVG Export Plug-In . SVG Version: 6.00 Build 0)  -->
<svg version="1.1" id="Слой_1" xmlns="http://www.w3.org/2000/svg" xmlns:xlink="http://www.w3.org/1999/xlink" x="0px" y="0px"
	 viewBox="0 0 3000 3000" style="enable-background:new 0 0 3000 3000;" xml:space="preserve">
<style type="text/css">
	.st0{fill:none;}
	.st1{fill:#45482A;}
</style>
<rect class="st0" width="3000" height="3000"/>
<g>
	<g>
		<path class="st1" d="M1495.41,1515.89c4.29-6.01,9.14-11.38,14.73-16.32c8.68-7.67,17.49-15.47,24.75-24.42
			c17.82-21.97,32.87-45.88,46.89-70.47c5.62-9.85,10.2-19.98,12.67-31.03c1.61-7.18,2.99-14.41,4.53-21.61
			c0.38-1.77,0.03-3.98,3.33-5.13c2.46,1.18,5.81,2.26,8.56,4.19c8.95,6.3,19.02,10.32,28.83,14.92c13.18,6.18,27,9.45,41.46,10.25
			c5.03,0.28,10.07,0.23,15.1,0.53c10.23,0.61,20.15-0.89,29.6-4.72c8.23-3.34,16.07-7.7,24.41-10.72
			c12.56-4.54,23.64-11.54,34.39-19.14c6.74-4.77,13.98-8.13,21.88-10.44c7.79-2.28,15.42-5.14,23.11-7.78
			c5.97-2.05,11.25-5.33,15.55-9.9c4.18-4.44,6.36-9.31,3.49-15.79c-2.97-6.7-4.42-14.08-7.41-20.78
			c-5.67-12.72-11.94-25.17-18.04-37.69c-0.66-1.35-1.92-2.42-2.9-3.61c-8.29-10.07-18.64-17.59-30.53-22.55
			c-11.6-4.84-21.73-11.76-31.74-19.09c-8.11-5.94-16.43-11.59-24.79-17.16c-36.93-24.58-69.87-35.05-87.1-37.42
			c-4.7-0.65-13.82-1.83-25.16,0.26c-3.2,0.59-6.93,1.9-14.53,4.11c-8.9,2.59-17.86,4.75-26.19,9.26
			c-6.91,3.74-12.74,8.73-19.04,13.18c-8.07,5.69-14.49,12.75-19.77,21c-3.34,5.22-6.69,10.44-10.34,15.44
			c-2.2,3.02-4.34,6.4-7.95,7.34c-3.5-3.22-6.53-6.16-9.71-8.9c-3.23-2.78-6.8-5.17-9.9-8.09c-6.28-5.91-12.86-11.14-22.48-11.99
			c-0.94-6.53-1.98-12.58-2.66-18.67c-1.11-10-1.6-20.09-3.06-30.04c-2.87-19.53-6.15-39-9.42-58.47
			c-2.31-13.76-3.7-27.59-3.87-41.53c-0.03-2.13,0.94-4.27,1.52-6.75c3.97-0.25,7.41-0.6,10.86-0.64c3.09-0.04,6.26-0.11,9.26,0.49
			c12.14,2.4,24.2,5.17,36.33,7.59c12.89,2.58,25.76,5.43,38.77,7.21c9.7,1.33,19.37-1.05,28.42-4.53c3.75-1.44,7.5-4.55,9.76-7.91
			c5.3-7.89,7.81-15.36,9.14-25.94c1.93-15.34,2.03-26.18,2.42-43.82c0.57-25.83,0.62-25.32,0.53-31.36
			c-0.22-13.59-0.98-27.22-7.28-39.67c-3.49-6.9-7.89-13.33-11.44-20.19c-8.52-16.45-20.34-30.02-34.57-41.78
			c-8.01-6.62-15.22-14.17-22.29-23.22c2.81-1.02,4.81-2.32,6.84-2.37c5.41-0.12,10.89-0.16,16.23,0.59
			c11.41,1.6,22.38,0,33.12-3.62c18.41-6.19,35.63-15.1,52.55-24.47c8.95-4.96,18.12-8.46,28.15-10.36
			c14.08-2.67,27.7-6.57,40.28-14.04c7.44-4.42,14.3-9.08,19.79-15.81c7.08-8.66,8.52-17.91,3.76-28.1
			c-2.79-5.96-6.14-11.75-8.12-17.97c-3.45-10.89-9.37-20.31-15.58-29.68c-2.35-3.54-4.38-7.29-6.62-10.91
			c-10.49-17.03-24.01-30.38-44.01-35.6c-8.98-2.35-18.08-4.26-27.12-6.4c-4.52-1.07-8.97-2.7-13.54-3.21
			c-17.93-2.01-35.7,0.27-52.91,4.87c-11.11,2.96-21.48,8.7-32.16,13.23c-2.07,0.88-4.06,1.93-6.02,2.87
			c-1.32-0.99-2.37-1.54-3.12-2.37c-10.93-12.08-25.77-18.22-39.49-26.06c-0.66-0.38-1.46-0.52-2.21-0.71
			c-16.07-4.22-31.84-9.77-48.6-11c-1.41-0.1-2.77-0.92-4.57-1.56c0.34-1.86,0.3-3.46,0.92-4.76c2.33-4.88,4.55-9.86,7.39-14.44
			c10.4-16.79,15.96-35.2,18.48-54.58c0.58-4.49-0.08-9.29-0.97-13.79c-1.29-6.48-4.35-8.07-10.97-6.59
			c-8.91,2-16.55,6.25-23.02,12.76c-9.28,9.33-18.77,18.44-28.1,27.72c-1.91,1.9-3.6,4.04-5.16,6.24
			c-4.72,6.69-8.41,13.9-10.57,21.85c-0.48,1.77-0.9,3.84-3.96,3.63c-0.69-1.05-1.69-2.23-2.34-3.59
			c-6.67-14-16.43-25.21-29.76-33.24c-2.65-1.6-5.29-3.22-7.91-4.88c-10.67-6.78-22.12-10.63-34.94-11.19
			c-18.15-0.79-36.32-1.7-54.3-4.89c-4.89-0.87-10.07-0.74-15.05-0.33c-6.77,0.56-10.3,4.34-11.4,11.1
			c-1.18,7.25,1.77,13.09,7.17,17.4c13.53,10.79,24.07,24.02,33.13,38.59c1.02,1.64,2.35,3.07,3.5,4.63
			c13.47,18.34,32.68,28.09,53.59,34.69c12.66,4,12.38,0.55,27.45,4.64c11.96,3.25,23.49,6.38,32.46,14
			c7.34,6.24,11.46,14.21,19.06,48.99c3.17,14.52,6.86,33.3,10.14,55.49c-0.95,0.55-1.35,0.96-1.57,0.88
			c-1.37-0.51-2.89-0.9-4.02-1.76c-4-3.03-7.7-6.47-11.81-9.32c-6.05-4.19-12.5-7.79-18.5-12.03c-6.1-4.31-12.73-7.48-19.77-9.62
			c-12.22-3.72-24.55-7.16-37.32-8.5c-10.39-1.09-20.79-2.03-31.18-3.1c-20.74-2.14-44.47-1.7-69.89,8.22
			c-11.53,4.5-35.83,13.98-37.16,30.13c-0.66,8.01,4.56,14.84,7.73,18.98c9.96,13.03,25.15,16.38,29.67,17.18
			c6.82,1.21,13.85,1.25,20.79,1.86c6.17,0.54,12.52,0.35,18.45,1.85c11.03,2.79,22.18,3.28,33.42,3.61
			c6.63,0.19,13.04-0.34,19.49-2.25c7.02-2.08,14.27-4.2,21.51-4.59c11.18-0.6,22.46,0.02,33.67,0.61
			c5.29,0.28,10.66,1.26,16.17,4.92c-3.2,3.74-4.71,8.21-9.57,10.3c-2.92-1.15-5.83-2.16-8.62-3.42
			c-7.67-3.45-15.58-4.42-23.82-2.61c-2.65,0.58-5.35,0.94-7.96,1.65c-27.3,7.52-53.73,17.4-79.07,30.05
			c-4.47,2.23-8.54,5.29-12.75,8.02c-15.85,10.28-27.81,24.63-39.53,38.99c-14.79,18.12-21.83,38.96-18.47,62.69
			c0.59,4.19,0.95,8.56,0.42,12.72c-1.67,13.05-3.12,26.2-5.93,39.02c-4.1,18.67-2.93,37.08,1.66,55.2
			c3.6,14.22,8.67,28.09,13.58,41.94c2.19,6.16,5,12.28,8.6,17.71c6.4,9.65,13.85,18.59,20.43,28.13
			c7.04,10.2,16.57,17.23,27.26,22.96c10.63,5.69,22.63,3.55,30.55-5.49c4.08-4.66,8.34-9.28,11.64-14.47
			c5.36-8.41,12.73-14.34,20.7-20.02c5.9-4.21,11.65-9.09,16.12-14.74c9.54-12.05,17.92-25.02,26.53-37.76
			c5.8-8.57,9.77-18.4,14.4-27.75c2.88-5.82,4.48-12.28,8.42-17.72c4.33,0.83,5.74,4.3,8.14,6.63c6.08,5.92,11.5,13.14,18.67,17.2
			c11.7,6.63,24.32,11.97,38.29,12.46c2.62,0.09,5.22,0.8,7.57,1.18c7.85,26.9,20.36,128.43,13.5,152.74
			c-1.17,0.36-2.57,1-4.03,1.22c-7.64,1.12-15.33,1.9-22.93,3.24c-21.05,3.71-41.5,9.65-60.9,18.62c-9.4,4.35-18.86,8.7-27.14,15.42
			c-9.09,7.38-16.51,16.33-25,24.22c-8.76,8.14-14.06,18.4-19.72,28.5c-1.49,2.66-2.55,5.72-3.11,8.72
			c-3.83,20.47-4.14,40.69,3.56,60.6c3.06,7.91,4.95,16.29,7.04,24.54c0.83,3.27,1.63,6.86-1.72,10.74
			c-3.83,0.36-8.4,0.77-12.96,1.21c-9.24,0.9-18.89,0.43-27.64,3.01c-15.87,4.67-29.11,12.61-45.03,25.46
			c-11.62,9.38-25.54,20.62-37.55,40.65c-4.39,7.32-16.47,27.48-17.86,51.48c-0.19,3.26-1.56,6.98-0.76,14.96
			c1.1,10.96,0.3,21.52-3.55,31.93c-3.64,9.84-5.51,20.07-5.93,30.62c-0.49,12.06,0.03,23.97,2.66,35.79
			c5.05,22.68,9.41,45.58,20.03,66.55c7.52,14.84,15.37,29.51,23.19,44.19c1.45,2.72,3.23,5.32,5.22,7.67
			c4.44,5.25,10.27,7.17,16.72,4.86c5.05-1.81,9.98-4.28,14.51-7.17c7.16-4.57,14.03-9.6,20.85-14.67
			c9.39-6.98,17.28-15.49,23.84-25.16c5.2-7.67,10.37-15.39,15.06-23.38c6.39-10.9,14.96-19.56,25.22-26.77
			c11.42-8.03,21.81-17.28,31.96-26.87c8.79-8.3,15.86-17.94,23.38-27.24c2.62-3.25,4.43-7.29,6.04-11.2
			c3.98-9.64,7.6-19.42,11.42-29.13c0.68-1.73,1.58-3.38,2.58-5.48c1.89,0.86,3.38,1.26,4.54,2.12c5.71,4.22,10.36,9.38,12.96,16.07
			c2.48,6.37,7.04,11.02,12,15.43c4.4,3.91,9.42,5.12,15.11,3.78c2.53-0.6,5.08-1.13,7.98-1.78c0.81,1.95,1.72,3.26,1.88,4.66
			c2.62,22.32,6.51,44.42,11.08,66.42c1.65,7.94,2.74,16.05,3.3,24.14c1.36,19.69,2.31,39.41,3.3,59.12
			c0.17,3.37-0.3,6.78-0.52,10.98c-2.07-0.48-5.44-1.17-9.62-1.52c-11.73-0.99-22.36,1.25-42.84,8.47
			c-11.45,4.03-18.97,8.21-22.46,8.52c-25.83,2.32-51.5,5.09-76.66,12.37c-20.54,5.94-40.69,12.44-59.66,22.33
			c-3.42,1.78-6.72,3.82-9.95,5.94c-12.76,8.36-23.53,18.99-33.17,30.65c-4.63,5.6-8.41,12.06-11.76,18.56
			c-3.24,6.27-14.26,28.63-15.17,60.46c-0.2,7.11,0.99,17.28,3.37,37.61c2.91,24.84,4.37,37.26,7.06,48.14
			c5.09,20.57,11.34,34.45,27.64,59.88c12.51,19.52,26.53,38.14,40.75,56.49c5.34,6.9,12.68,12.5,19.85,17.67
			c7.52,5.43,16.44,6.42,25.59,4.34c8.22-1.87,11.72-8.45,14.84-15.16c3.26-7.01,6.37-14.14,8.93-21.43
			c3.19-9.09,8.4-16.29,16.21-22.04c5.9-4.34,11.1-9.64,16.58-14.55c2.59-2.32,4.95-4.94,7.7-7.06
			c11.36-8.77,21.99-18.18,31.2-29.33c5.26-6.37,9.71-12.96,13.09-20.4c2.24-4.93,4.71-9.77,6.9-14.73
			c4.37-9.92,9.27-19.71,10.25-30.71c1.41-15.84,2.08-31.71,0.05-47.56c-1.33-10.37-2.74-20.72-4.21-31.07
			c-3.65-25.65-8.62-51.1-10.46-77.02c-0.86-12.04,0.61-23.1,7.29-33.29c2.26-3.44,5.19-5.17,9.26-6.22
			c9.91-2.54,18.86,1.21,28.72,2.71c0.77,4.54,1.9,8.67,2.11,12.85c1.05,20.07,1.91,40.15,2.64,60.24c0.08,2.18-0.71,4.61-1.76,6.57
			c-1.81,3.41-4.25,6.47-6.2,9.81c-1.95,3.32-4.5,6.62-5.26,10.25c-2.3,10.94-5.51,21.76-5.24,33.17
			c0.15,6.17-0.67,12.36-1.07,18.54c-0.35,5.39-0.81,10.78-1.05,16.18c-0.27,6.19-0.28,12.38-0.54,18.57
			c-0.36,8.51-0.98,17.01-1.23,25.52c-0.49,16.6,3.69,32.14,10.78,47.05c5.54,11.64,12.89,22.04,21.09,31.88
			c3.02,3.63,5.58,7.33,6.27,12.19c1.64,11.48,3.49,22.94,5.26,34.41c1.3,8.41,2,16.98,4.05,25.2c3.66,14.64,8.04,29.11,12.31,43.59
			c7.12,24.14,14.67,48.15,21.53,72.36c8.74,30.84,20.65,71.73,31.49,114.16c19.84,77.72,29.77,116.58,29.8,117.58
			c0,0,0.39,10.93,13.44,39.98c0.4,0.88,1.25,2.73,2.58,2.83c3.42,0.26,7.27-11.37,8.9-19.07c2.84-13.42,1.56-24.65-0.56-33.23
			c-2.32-9.39-4.97-18.71-7.8-27.96c-2.6-8.5-5.62-16.88-8.5-25.3c-6.63-19.42-13.7-38.7-19.81-58.28
			c-5.18-16.61-8.47-33.83-14.04-50.29c-6.12-18.05-10.1-36.6-14.12-55.08c-5.68-26.13-13.35-51.69-19.85-77.57
			c-4.52-18.01-8.71-36.11-12.78-54.24c-1.35-6.03-1.96-12.24-2.76-18.38c-0.43-3.34-0.92-6.77,1.39-10.17
			c5.65,1.45,9.62,5.37,14.32,7.87c3.75,1.99,7.32,4.41,11.22,6.01c5.72,2.34,11.6,4.37,17.53,6.1
			c12.07,3.52,22.67,9.53,32.77,17.02c13.05,9.68,26.51,18.85,40.21,27.57c16,10.19,32.54,19.54,48.67,29.53
			c6.33,3.92,12.79,7.16,20.08,8.82c11.89,2.7,14.39,8.24,23.08,10.63c3.78,1.04,16.72,4.6,20.64-0.64
			c0.71-0.95,0.88-1.93,0.99-2.29c3.3-10.67,8.1-20.97,8.04-32.51c-0.07-13.15,0.09-26.24,3.41-39.19
			c1.81-7.05,1.29-14.66,2.59-21.88c2.45-13.68,5.9-27.19,8.11-40.91c2.96-18.39,4.48-36.9-0.07-55.34
			c-2.31-9.38-4.4-18.82-6.91-28.15c-2.01-7.46-4.43-14.8-6.79-22.16c-1.18-3.68-2.27-7.45-4.01-10.87
			c-6.33-12.39-11.64-25.36-20.27-36.49c-1.04-1.34-1.25-3.33-2.02-5.5c5.04-1.27,9.23-0.62,13.14,1.01
			c5.34,2.23,10.75,4.48,15.66,7.49c15.3,9.39,31.58,12.06,49.09,8.55c8.87-1.78,14.58-6.93,16.18-15.67
			c0.69-3.77,1.33-7.73,0.96-11.49c-0.96-9.74-0.11-19.37,1.35-28.93c1.93-12.6,2.67-25.43,6.84-37.64
			c2.25-6.59,4.61-13.19,6.23-19.95c2.98-12.48,4.84-25.15,1.89-37.93c-2-8.65-4.3-17.23-6.71-25.78c-0.94-3.33-2.39-6.54-3.86-9.69
			c-8.1-17.33-18.99-32.84-31.55-47.17c-11.34-12.94-7.15-10.68-16.86-23.55c-24.77-32.84-36.17-40.66-44.06-45.02
			c-5.16-2.85-9.07-4.51-17.05-7.39c-14.57-5.25-29.13-10.83-45.02-10.11c-5.37,0.24-10.78,0.75-16.05,1.78
			c-14.79,2.9-29.82,5.1-44.18,9.47c-21.51,6.55-41.61,13.16-58.74,30.01c-4.52,4.45-6.63,7.47-22.63,24.16
			c-11.74,12.25-11.76,11.83-16.13,16.58c-21.83,23.7-30.06,43.62-33.6,42.11c-1.75-0.75-0.07-5.77,0-17.35
			c0.02-2.49-0.17-6.34-2.64-26.53c-1.5-12.28-3.43-24.52-4.95-36.8c-0.85-6.89-1.3-13.83-1.86-20.75c-0.44-5.4-0.85-10.8-1.12-16.2
			c-0.77-15.84-1.5-31.69-2.13-47.54c-0.14-3.53,0.9-6.79,3.07-9.77C1479.71,1537.94,1487.55,1526.91,1495.41,1515.89z
			 M1296.24,588.51c-13.89-4.22-21.97-15.68-30.27-26.04c-11.62-14.49-23.28-28.9-35.77-42.63c-0.72-0.79-1.02-1.95-1.82-3.56
			c1.59,0.16,2.75-0.02,3.6,0.42c2.06,1.05,4.05,2.27,5.95,3.61c20.32,14.34,42.81,24.79,64.72,36.29
			c7.54,3.95,15.33,7.45,22.69,11.72c14.57,8.45,26.38,20.17,37.35,32.77c0.64,0.73,0.61,2.04,1.13,4
			C1340.42,601.14,1317,600.48,1296.24,588.51z M1367.71,593.01c-17.72-17.05-38.52-29.6-60.2-40.74
			c-17.49-8.99-35.29-17.38-52.94-26.06c-7.7-3.79-13.43-10.14-21.33-15.27c5.03-4.13,9.01-2.97,12.61-2.15
			c18.17,4.15,36.66,4.88,55.16,5.25c6.74,0.14,13.08,1.28,18.94,4.48c7.45,4.06,15.06,7.94,22.04,12.7
			c12.9,8.8,21.46,21.08,25.5,36.14c2.38,8.87,3.72,18.02,5.47,26.77C1370.13,596.25,1368.91,594.16,1367.71,593.01z
			 M1296.85,2120.49c-5.21,1.73-9.06-0.61-12.84-3.46c-10.34-7.78-18.35-17.7-25.86-28.06c-6.12-8.46-11.77-17.27-18.07-25.58
			c-10.85-14.31-18.69-30.27-26.26-46.41c-1.11-2.37-2.05-4.52-3.25-7.45c-4.38-10.67-11.14-30.05-14.6-70.68
			c-1.37-16.19-2.06-24.29-1.68-32.56c0.7-14.97,1.41-42.12,19.19-68.44c10.94-16.2,24.59-29.98,42.06-39.23
			c9.55-5.06,19.45-9.66,29.61-13.32c20.76-7.49,41.94-13.76,63.87-16.91c11.87-1.7,23.81-2.86,35.73-4.18
			c1.36-0.15,2.78,0.31,5.4,0.64c-3.08,3.84-5.34,6.86-7.81,9.7c-11.72,13.5-22.05,27.85-30.04,43.98
			c-5.13,10.38-11.77,20.01-17.76,29.96c-12.43,20.64-22.97,42.15-30.31,65.15c-1.06,3.32-2.11,6.66-3.48,9.85
			c-12.93,30.26-16.06,61.94-13.89,94.41c0.83,12.36,1.74,24.72,2.47,37.08c0.75,12.8,3.08,25.35,5.76,37.85
			c1.05,4.91,1.78,9.9,2.57,14.87C1298.33,2111.93,1298.42,2116.12,1296.85,2120.49z M1424.13,1916.36
			c2.17,31.2-3.47,60.91-19.82,88.11c-7.71,12.83-18.49,22.78-29.62,32.45c-13.15,11.43-26.32,22.83-39.43,34.31
			c-4.73,4.14-8.26,9.18-10.61,15.06c-5.05,12.65-9.27,22.56-9.27,22.56c-2.31,6.01-3.41,8.97-6.1,9.67
			c-2.54,0.66-5.17-1.04-6.78-2.36c-2.64-12.27-5.9-30.27-7.72-52.53c-0.56-6.82-0.64-11.7-1.22-20.82
			c-1.25-19.72-1.94-39.46-0.97-59.22c0.88-17.9,4.51-35.22,10.1-52.27c5.55-16.93,11.35-33.73,18.57-50.03
			c0.94-2.12,1.66-4.38,2.88-6.32c10.08-16.03,20.96-31.6,30.16-48.11c7.28-13.07,16.39-24.42,26.85-34.75
			c9.57-9.45,19.25-18.92,31.11-25.63c-4.58,11.26-4.25,22.45-3.59,33.68c1.43,23.99,5.25,47.66,9.29,71.33
			C1420.52,1886.38,1423.08,1901.33,1424.13,1916.36z M1407.65,1761.67c-0.75-1.26,10.43-13.13,26.53-15.91
			c14.31-2.47,27.41,3.12,27.23,4.49c-0.16,1.18-10.06-1.27-24.86,1.34C1418.49,1754.77,1408.33,1762.8,1407.65,1761.67z
			 M1829.36,1315.68c-7.87,3.2-15.73,6.6-23.88,8.88c-8.33,2.33-15.91,5.82-23.04,10.58c-7.4,4.93-14.63,10.25-22.5,14.3
			c-14.42,7.43-29.23,14.14-44.65,19.29c-3.62,1.21-7.55,2.04-11.35,2.11c-24.33,0.44-47.84-3.13-69.34-15.42
			c-6.69-3.83-13.15-8.06-19.85-11.89c-2.65-1.52-5.55-2.9-8.51-3.54c-5.46-1.18-7.51-4.52-8.18-9.73
			c-0.88-6.9-2.38-13.71-3.49-20.58c-1.63-10.06-5.68-19.01-10.47-28.03c-7.23-13.61-16.97-24.76-28.35-34.77
			c-2.03-1.78-4.01-3.63-6.01-5.44c17.29,1.35,33.63-0.21,49.86-4.47c4.83-1.27,9.89-2.01,14.88-2.23
			c18.98-0.84,37.97-0.05,56.69,2.96c35.34,5.67,69.14,16.02,100.58,33.82c19.87,11.25,39.55,22.72,58.5,35.45
			c1.51,1.02,2.78,2.39,4.81,4.17C1832.78,1312.99,1831.3,1314.89,1829.36,1315.68z M1532.09,1216.85c1.16-2,2.63-3.82,3.94-5.73
			c3.49-5.11,7.2-10.08,10.4-15.36c12.8-21.15,30.62-35.59,54.76-41.93c7.84-2.06,15.56-4.59,23.36-6.81
			c5.72-1.63,11.42-1.49,17.19,0.12c6.68,1.87,13.69,2.76,20.13,5.2c24.98,9.44,49.76,19.44,71.91,34.73
			c8.92,6.15,17.25,13.15,26.25,19.17c6.71,4.49,13.72,8.9,21.2,11.82c17.59,6.87,29.33,19.3,38.26,35.48
			c7.92,14.36,13.44,29.55,18.06,45.15c0.19,0.65-0.11,1.45-0.25,2.97c-5.05,0.11-7.89-2.86-11.13-4.81
			c-13.91-8.39-27.54-17.28-41.66-25.29c-23.28-13.21-47.31-24.83-73.62-30.91c-14.69-3.39-29.32-7.04-44.1-9.96
			c-7.17-1.42-14.61-1.87-21.95-1.99c-13.12-0.21-26.26,0.1-39.39,0.31c-16.99,0.28-33.98,2.99-50.96,0.15
			c-6.47-1.09-12.89-2.62-19.24-4.32C1530.9,1223.68,1529.86,1220.69,1532.09,1216.85z M1462.75,1133.35
			c-0.03-30.47-11.69-99.32-10.75-99.46c0.69-0.1,7.83,36.21,12.67,81.15c2.84,26.4,4.1,48.48,4.72,64.01
			c-0.92-0.85-2.12-1.42-2.31-2.24c-1.11-4.61-2.01-8.78-1.82-10.19C1466.73,1155.6,1462.76,1144.47,1462.75,1133.35z
			 M1556.68,839.25c11.17,10.91,19.78,23.74,27.64,37.1c3.72,6.31,7.48,12.67,10.39,19.37c5.33,12.27,6.97,25.4,6.41,38.65
			c-0.67,15.84-2.04,31.64-3.09,47.47c-0.33,5.01-0.35,10.06-0.95,15.04c-0.78,6.49-1.87,12.96-3.06,19.39
			c-1.07,5.8-5.36,8.91-10.27,12.59c-1.84-3.14-3.39-5.31-4.46-7.69c-8.3-18.36-17.74-36.1-28.89-52.89
			c-2.56-3.86-5.18-7.74-8.27-11.17c-17.35-19.26-34.76-38.48-54.1-55.8c-14.12-12.64-28.16-25.39-42.71-37.52
			c-15.21-12.68-26.43-28.18-34.14-46.18c-6.11-14.25-6.3-29.16-2.96-44.79c6.49-1.6,12.02,0.31,17.16-2.38
			c1.97-1.03,5.33,0.06,7.88,0.77c13.4,3.74,26.77,7.58,40.1,11.56c5.55,1.66,11.01,3.64,16.45,5.66
			c16.6,6.16,30.71,16.26,43.58,28.16C1541.34,823.94,1548.93,831.69,1556.68,839.25z M1716.95,732.52
			c-8.15,5.97-16.71,11.28-26.44,14.24c-8.12,2.48-16.36,4.58-24.57,6.76c-9.75,2.58-19.09,5.91-28.07,10.78
			c-27.96,15.17-27.54,15.86-42.74,20.86c-15.32,5.04-27.85,5.42-43.14,5.88c-12.15,0.37-26.19,0.79-43.54-3.45
			c-20.72-5.06-17.58-6.7-33.7-12.34c-12.74-4.46-25.39-9.5-38.91-11.44c-0.52-0.07-0.9-1.1-1.35-1.68
			c0.42-0.54,0.76-1.46,1.27-1.57c10.56-2.31,21.2-4.27,31.68-6.86c7.86-1.95,15.92-3.85,23.19-7.28
			c10.22-4.82,21.1-7.45,31.54-11.47c2.88-1.11,5.87-2.01,8.58-3.45c17.16-9.13,35.45-15.45,53.91-21.2
			c17.23-5.36,35.08-5.94,52.87-4.02c9.18,0.99,18.18,3.7,27.28,5.52c16.32,3.26,32.15,8.3,48.02,13.18
			c2.43,0.75,4.68,2.09,7.65,3.44C1718.91,730.29,1718.12,731.67,1716.95,732.52z M1533.72,663.84c0.28-6.55-0.13-13.13-0.34-19.69
			c-0.1-3.08-0.54-6.16-0.62-9.24c-0.09-3.31,1.17-6.2,4.05-7.89c12.01-7.07,23.98-14.21,38.41-15.37
			c6.16-0.5,12.27-1.56,18.41-2.31c10.84-1.33,21.58-1.36,32.23,1.7c6.31,1.81,12.76,3.21,19.2,4.53
			c11.95,2.46,22.65,7.39,32.52,14.66c7.75,5.71,12.78,13.34,17.61,21.27c3.42,5.62,6.71,11.31,10.05,16.97
			c1.37,2.33,2.89,4.61,4.05,7.04c4.98,10.47,9.89,20.98,14.73,31.52c2.27,4.94,2.17,4.98,0.88,12.54
			c-4.16,1.57-8.38-0.05-12.11-1.38c-16.44-5.89-33.69-8.56-50.52-12.79c-14.19-3.57-28.94-4.98-43.49-6.98
			c-9.84-1.35-19.12,1.65-28.41,4.52c-21.47,6.64-42.19,15.24-62.86,23.93c-16.87,7.09-34.56,11.07-52.34,14.83
			c-9.46,2-18.88,4.19-28.38,5.93c-6.05,1.11-12.23,2.08-19.43-0.08c0.51-1.88,0.54-3.11,1.13-3.96c1.1-1.57,2.45-2.99,3.82-4.35
			c12.4-12.18,25.05-24.13,37.17-36.58c7.26-7.45,13.79-15.62,20.48-23.61c2.44-2.91,3.61-6.89,7.87-8.87
			c5.25-0.13,10.05,2.48,14.81,4.99c3.66,1.93,7.27,2.34,11.19,1.14C1530.62,674.23,1533.41,671.18,1533.72,663.84z M1454.05,594.49
			c6.97,2.27,14.26,3.6,21.39,5.37c6.43,1.6,12.49,3.96,18.04,7.73c4.15,2.82,8.6,5.21,12.94,7.76
			c14.32,8.42,21.2,22.31,18.99,41.54c-0.07,0.6-0.97,1.11-1.92,2.12c-3.06-4.28-7.89-10.17-14.98-15.86
			c-1.4-1.12-5.11-4.15-10.4-7.07c-13.08-7.24-27.27-10.76-41.98-12.71c-8.04-1.07-15.99-2.73-23.98-4.15
			c-5.33-0.94-10.65-1.97-15.99-2.85c-4.58-0.75-9.06-1.68-13.01-4.19c1.89-5.58,4.76-9.57,9.6-13.99c2.66-2.43,5.67-3.72,9.21-4.49
			C1432.77,591.35,1443.35,591,1454.05,594.49z M1384.38,590.68c-4.13-6.3-3.88-12.56-3.19-18.56c1.81-15.77,7.69-29.96,18.69-41.6
			c7.97-8.43,16.21-16.62,24.71-24.51c3.63-3.37,8.13-5.85,12.44-8.4c1.02-0.6,3.31-0.37,4.15,0.41c0.82,0.76,1.06,2.92,0.62,4.12
			c-1.33,3.61-2.71,7.33-4.82,10.51c-4.7,7.08-9.54,14.12-14.89,20.71c-13.72,16.89-25.31,35.11-35.24,54.43
			C1386.49,588.44,1385.86,588.95,1384.38,590.68z M1390.85,604.04c-1.55-5.09-0.11-9.19,1.56-12.99
			c9-20.53,18.99-40.42,34.72-56.93c6.38-6.7,11.47-14.51,15.25-23.07c1.06-2.39,1.78-5.11,5.63-5.8c0.19,1.48,0.71,2.91,0.5,4.23
			c-2.44,15.77-7.11,30.76-15.64,44.41c-4.29,6.86-8.36,13.86-12.48,20.82c-4.55,7.69-11.11,13.66-17.11,20.08
			c-2.88,3.09-6.15,5.82-9.32,8.62C1393.48,603.83,1392.54,603.72,1390.85,604.04z M1395.03,621.9c2.09-0.23,3.93-0.8,5.67-0.56
			c5.36,0.75,10.75,1.48,15.99,2.81c7.16,1.82,14.28,3.32,21.73,3.28c3.06-0.02,6.16,0.61,9.17,1.27c8.3,1.83,16.62,3.11,25.14,3.8
			c7.42,0.6,21.17,4.3,33.64,14.46c4.35,3.55,10.55,9.63,15.69,19.41c-2.67-0.27-4.17-0.11-5.42-0.59
			c-6.13-2.37-12.21-4.87-18.28-7.38c-7.67-3.18-15.53-4.31-23.84-3.36c-7.29,0.83-14.66,1.23-22,1.33
			c-24.52,0.34-42.82-11.13-56.77-30.52C1395.16,625.03,1395.32,623.69,1395.03,621.9z M1400.68,651.17
			c-0.31-1.44-0.57-2.6-0.72-3.27c0.65-0.36,1.29-0.72,1.94-1.08c0.8,0.74,2.12,1.94,3.81,3.32c4.68,3.82,16.35,13.13,33.19,15.86
			c5.38,0.87,9.75,0.94,13.08,0.79c6.94-0.3,13.88-0.81,20.82-1.19c3.81-0.21,7.69-1.08,11.92,1.28c-0.2,1.23,0.09,3.15-0.72,3.92
			c-6.23,5.92-10.05,13.74-15.64,20.03c-9.22,10.36-19.24,20.04-29.21,29.7c-4.96,4.81-10.57,8.95-15.79,13.32
			c-0.57-0.25-1.42-0.68-2.33-1.37c-5.38-4.07-5.81-11.82-6-14.43C1414.96,717,1410.2,695.06,1400.68,651.17z M1199.2,710.21
			c11.82-4.72,23.64-9.63,36.59-10.75c5.77-0.5,11.45-1.89,17.21-2.64c11.57-1.52,23.08-1.47,34.63,0.82
			c6.4,1.26,13.04,1.68,19.58,1.84c8.96,0.22,17.64,1.39,26.34,3.7c13.2,3.5,25.79,8,37.14,15.82c6.04,4.16,12.6,7.57,18.85,11.44
			c7.35,4.55,11.03,8.56,15.89,17.11c-3.79,1.97-6.11,0.28-8.02-1.56c-16.14-15.58-36.51-21.64-57.84-23.87
			c-12.55-1.31-25.46,0.54-38.19,1.34c-7.32,0.46-14.58,1.97-21.9,2.5c-18.51,1.32-37.03,2.87-55.57,3.27
			c-9.57,0.21-19.22-1.62-28.77-2.99c-2.84-0.41-5.45-2.37-8.46-3.76C1189.1,715.8,1193.91,712.32,1199.2,710.21z M1356.02,750.7
			c-9.62-0.9-19.37-1.57-28.98-1.03c-8.02,0.45-16.14,2.17-23.86,4.49c-9.08,2.73-18.23,4.35-27.47,3.06
			c-20.72-2.88-41.42-5.55-62.33-6.77c-9.65-0.57-17.7-5.33-24.07-12.66c-0.98-1.13-1.59-2.59-2.87-4.73
			c2.17-0.64,3.86-1.65,5.47-1.55c25.92,1.64,51.82,1.53,77.7-0.62c2.69-0.22,5.41-0.14,8.11-0.38c9.39-0.84,15.87-1.45,20.75-2.01
			c11.33-1.31,20.99-1.76,24.31-1.85c30.25-0.79,55.27,15.04,62.55,20.02c7.69,5.25,13.47,10.62,17.48,14.76
			c-6.76,0.65-11.09,0.15-14.6-2.24C1378.42,752.52,1367.15,751.74,1356.02,750.7z M1247.31,1122.01
			c-5.09,1.57-8.35-0.93-11.19-3.39c-4.37-3.79-8.71-7.78-12.23-12.32c-8.06-10.39-15.94-20.96-23.26-31.88
			c-3.84-5.73-7.11-12.1-9.28-18.64c-6.92-20.91-15.15-41.57-15.91-64c-0.19-5.77-0.22-11.66,0.7-17.32
			c2.18-13.36,5.31-26.57,7.41-39.94c1.01-6.43,1.61-13.26,0.58-19.61c-4.22-26.14,4.8-47.89,20.98-67.54
			c3.45-4.18,7.07-8.22,10.58-12.35c10.21-12.01,23.18-20.35,36.86-27.72c13-7,26.96-11.75,40.76-16.84
			c9.44-3.48,18.84-7.24,28.55-9.77c7.01-1.83,14.48-2.01,21.77-2.54c2.06-0.15,4.22,1.09,7.04,1.9
			c-2.96,5.56-6.92,9.26-10.59,13.11c-22.24,23.28-38.75,50.18-50.23,80.14c-2.18,5.7-2.62,12.06-4,18.08
			c-3.72,16.21-7.49,32.41-11.3,48.59c-3.64,15.45-8.7,30.48-13.39,45.63c-3.87,12.51-5.82,25.63-8.33,38.54
			c-4.53,23.27-5.42,46.9-6.29,70.5c-0.23,6.16,0.66,12.36,0.89,18.54C1247.56,1116.19,1247.36,1119.19,1247.31,1122.01z
			 M1357.38,990.63c-8.22,24.86-20.75,47.41-36.54,68.22c-2.1,2.78-3.84,5.88-6.21,8.4c-4.76,5.04-9.13,10.99-14.93,14.41
			c-13.51,7.96-22.47,19.82-31.26,32.13c-1.78,2.49-3.81,4.98-6.23,6.78c-2.01,1.5-4.77,2-8.12,3.29c-0.48-2.55-1.05-4.28-1.1-6.03
			c-0.71-27.1-1.21-54.18,3-81.12c2.45-15.7,5.9-31.14,9.76-46.55c3.56-14.23,8.59-28.05,11.11-42.58
			c1.37-7.93,4.74-15.5,6.93-23.31c3.12-11.14,6.29-22.28,8.86-33.56c1.9-8.36,4.58-16.35,8.27-24.06
			c7.53-15.73,15.64-31.08,25.98-45.23c7.89-10.79,16.98-19.98,29.21-25.71c0.25-0.12,0.7,0.18,1.82,0.5
			c-3.24,16.54-5.92,33.29-9.93,49.72c-2.99,12.24-3.43,24.59-3.4,36.89c0.04,14.3,1.62,28.61,2.93,42.87
			c1.1,12.03,3.95,23.8,9.26,34.62C1361.84,970.59,1360.75,980.46,1357.38,990.63z M1441.08,1019.08c-2.99,0.5-6.19,0.76-9.14,0.26
			c-17.76-3.02-33.13-10.64-44.79-24.7c-10.49-12.64-18.15-26.89-23.61-42.39c-8.2-23.3-10.66-47.42-11.32-71.93
			c-0.56-20.79,3.79-40.7,9.03-60.56c0,0,0.72-3.95,2.87-12.44c0,0,5.45-21.49,13.41-30.22c2.05-2.25,4.45-3.46,4.63-3.55
			c3.57-1.9,7.35-2.04,11.63,0.43c0.2,2.35,0.34,4.98,0.65,7.59c0.68,5.74,0.66,11.7,2.33,17.15c4.86,15.85,14.93,35.11,14.93,35.11
			c9.31,14.59,23.47,30.93,82.35,82.73c3.88,3.41,12.37,10.05,21.82,20.78c7.93,9,15.66,18.19,23.49,27.28
			c10.96,12.73,18.76,27.46,26.62,42.15c2.55,4.78,4.97,9.63,7.28,14.53c1.44,3.06,3.52,6.05,2.26,10.39
			c-3.82,0.99-7.79,2.12-12.13,1.65c-13.86-1.51-27.61-3.57-41.14-7.05c-10.86-2.79-21.82-5.21-32.74-7.79
			c-0.38-0.09-0.76-0.21-1.14-0.22C1472.61,1018.14,1456.82,1016.46,1441.08,1019.08z M1215.35,1720.16
			c-0.55,1.76-1.69,3.33-2.98,5.79c-2.22-1.74-4.41-2.73-5.47-4.42c-4.52-7.22-8.98-14.5-12.93-22.04
			c-4.84-9.25-9.41-18.65-13.62-28.2c-8.15-18.47-14.04-37.69-17.86-57.53c-0.37-1.9-0.64-3.83-1.14-5.7
			c-4.91-18.56-2.51-36.83,2.13-55c1.05-4.12,2.85-8.08,3.66-12.24c1.1-5.67,2.6-11.54,2.14-17.17
			c-1.12-13.64-0.54-26.79,3.34-40.13c2.49-8.55,4.12-17.32,8.54-25.13c2.65-4.69,5.67-9.27,9.16-13.35
			c6.79-7.93,13.9-15.6,21.12-23.14c10.19-10.66,21.3-20.26,34.42-27.22c3.06-1.63,6.33-3,9.65-3.96c13.9-4,28.13-5.21,42.53-4.15
			c2.22,0.16,4.38,1.29,7.91,2.38c1.68,19.59,5.28,38.13,12.65,55.32c-8.65,18.64-18.22,35.85-28.78,52.55
			c-9.93,15.71-19.79,31.46-29.41,47.36c-2.78,4.61-5.15,9.63-6.75,14.76c-5.29,16.99-10.51,34.03-15.03,51.23
			c-2.35,8.93-3.65,18.22-4.62,27.43c-2.31,22.05-7.97,43.36-13.51,64.71C1218.94,1708.3,1217.19,1714.25,1215.35,1720.16z
			 M1382.43,1536.61c-0.37,2.29-0.56,4.62-1.01,6.89c-3.51,17.38-10.61,33.18-21.9,46.82c-7.15,8.63-14.75,16.97-22.83,24.74
			c-6.09,5.87-12.94,11.11-20.02,15.76c-10.51,6.9-19.66,14.81-26.34,25.68c-6.48,10.53-13.92,20.47-20.69,30.84
			c-5.16,7.91-11.69,14.38-19.25,19.91c-6.57,4.79-13.16,9.55-19.68,14.41c-2.51,1.87-4.96,3.66-9.17,3.54
			c0.3-10.31,2.91-19.13,5.13-28.09c5.29-21.36,10.53-42.72,12.61-64.76c0.83-8.76,3.55-17.35,5.55-25.98
			c1.83-7.91,3.85-15.77,5.8-23.65c0.28-1.12,0.55-2.26,0.97-3.34c6.89-17.66,13.38-35.5,25.01-50.86c3.73-4.92,7-10.21,10.18-15.51
			c5.76-9.62,11.54-19.16,18.5-28.06c6.38-8.17,11.52-17.3,17.77-26.88c2.09,2.15,3.78,3.47,4.94,5.16
			c12.09,17.54,24.43,34.88,38.92,50.56c3.4,3.69,7.02,7.22,10.81,10.5C1381.61,1527.63,1383.23,1531.59,1382.43,1536.61z
			 M1434.36,1566.99c-6.35-0.46-10.74-4.97-12.86-10.04c-5.48-13.09-15.28-21.85-25.81-30.68c-18.75-15.71-34.8-33.99-49.15-53.94
			c-7.96-11.07-15.57-22.09-20.75-34.72c-5.91-14.4-8.08-27.37-9.47-35.78c-3.13-18.85-1.24-23.98-5.38-42
			c-2.91-12.67-2.64-11.44-7.04-23.3c-6.58-17.76-6.17-35.86-2.16-53.8c2.1-9.37,7.3-17.93,13.39-25.53
			c8.99-11.22,19.9-20.59,30.43-30.29c3.37-3.11,7.41-5.78,11.59-7.65c14.82-6.65,29.2-14.37,44.97-18.78
			c9.32-2.61,18.65-4.93,28.37-5.66c6.94-0.52,13.81-1.88,20.73-2.73c6.13-0.75,8.56,2.01,5.96,7.15
			c-12.98,25.7-17.43,53.65-21.13,81.66c-3.14,23.79-4.73,47.76-5.02,71.78c-0.03,2.71,0.06,5.45-0.26,8.13
			c-1.79,14.79,0.35,29.3,2.9,43.81c4.43,25.18,6.97,50.59,9.58,76c1.39,13.51,1.8,27.01,1.89,40.56c0.08,11.73-2,23.15-4.85,34.43
			C1439.27,1559.6,1438.59,1564.05,1434.36,1566.99z M1514.75,2148.71c0.08,0.38,0.14,0.77,0.25,1.14
			c5.87,19.61,11.95,39.15,17.54,58.84c4.84,17.02,7.43,29.92,8.26,33.77c5.76,26.61,16.25,62.22,24.76,91.08
			c13.29,45.08,20.44,67.47,22.54,72.2c0,0,6.53,14.74,20.55,72.11c0.74,3.03,2.48,10.61-1.5,16.22c-0.72,1.01-1.46,1.74-1.99,2.19
			c-10.95-33.38-18.2-60.59-22.81-79.25c-3.87-15.7-4.54-19.91-9.37-39.45c-4.83-19.52-7.99-30.63-19.14-70.32
			c-24.92-88.64-24.76-88.63-28.5-100.45c-3.44-10.86-8.58-24.6-13.89-45.48c-4.37-17.19-11-33.84-12.46-51.77
			c-0.62-7.68-2.43-15.25-3.46-22.91c-0.61-4.53-0.74-9.12-1.11-13.98c4.62-1,6.66,1.43,7.73,4.18c1.1,2.82,1.39,6.01,1.72,9.07
			C1506.17,2107.07,1510.42,2127.9,1514.75,2148.71z M1743.88,1957c3.33,8.82,7.7,27.62,14.15,51.46c0.7,2.59,1.22,5.31,1.31,7.98
			c0.71,21.73,0.1,43.33-5.32,64.61c-2.19,8.6-3.52,17.44-4.77,26.24c-2.72,19.15-5.19,38.34-5.4,57.73c-0.03,2.69-0.25,5.48-1,8.04
			c-1.4,4.78-3.26,9.43-5.28,15.12c-1.55-1.51-2.92-2.27-3.36-3.39c-1.27-3.24-2.04-6.66-3.23-9.93c-2.79-7.62-5.69-15.2-8.6-22.78
			c-1.25-3.25-2.83-6.38-3.94-9.68c-6.82-20.3-17.76-38.58-27.6-57.44c-15.25-29.23-33.83-56.43-50.44-84.83
			c-8.98-15.36-19.43-29.86-28.6-45.13c-12.35-20.57-23.84-41.64-34.11-63.34c-3.64-7.69-7.51-15.28-11-23.03
			c-6.27-13.91-15.37-25.92-24.8-37.74c-4.35-5.45-8.81-10.8-12.95-16.4c-1.25-1.68-1.59-4.04-2.64-6.89
			c5.17-0.3,9.33-0.8,13.49-0.75c16.73,0.22,33.12,2.64,49.1,7.74c6.12,1.95,11.08,5.38,14.9,10.54
			c8.38,11.3,19.03,20.48,29.87,29.07c19.15,15.17,40.19,27.54,62.91,36.83c4.29,1.75,6.85,3.01,7.43,3.27
			C1722.75,1902.62,1740.12,1947.05,1743.88,1957z M1778.52,1913.75c-6.34-0.53-9.64-3.7-15.68-7.49
			c-8.34-5.22-17.39-8.41-26.74-11.02c-6.34-1.77-12.71-3.42-19.07-5.1c-11.28-2.99-22.06-7.16-32.16-13.11
			c-9.33-5.49-19.35-9.93-28.21-16.07c-14.6-10.13-29.29-20.43-40.17-34.87c-6.5-8.62-13.03-17.19-15.67-28.15
			c-1.85-7.72-1.6-15.34-1.26-23.06c0.15-3.47,0.86-6.91,1.2-10.38c1.26-12.85-0.32-25.73-4-37.72
			c-4.07-13.24-11.07-25.47-22.8-34.27c-3.34-2.51-7.79-5.59-14.3-6.94c-12.94-2.69-22,4.19-23.3,2.08
			c-1.56-2.53,11.89-16.39,30.24-24.19c15.4-6.55,28.76-6.5,33.57-6.32c8.74,0.33,15.23,2.11,20.62,3.62
			c11.35,3.18,21.19,8.01,30.19,13.64c17.39,10.87,26.77,21.95,28.88,24.51c3.76,4.54,6,8.6,11.13,16.29
			c15.23,22.79,21.56,44.6,22.36,46.77c21.9,59.62,52,103.97,52,103.97c12.77,18.81,29.27,39.13,23.99,45.49
			C1786.84,1914.44,1779.7,1913.85,1778.52,1913.75z M1518.53,1685.73c9.72-9.76,17.39-14.67,24.64-24.64
			c1.43-1.97,5.74-8.11,13.26-14.39c0.22-0.18,2.51-2.44,5.55-4.21c14.04-8.17,27.61-17.51,43.4-21.96
			c19.68-5.55,39.17-12.32,59.81-13.58c5.75-0.35,11.65-0.32,17.33,0.53c17.4,2.59,33.61,8.92,49.2,16.89
			c2.05,1.05,4.09,2.3,5.79,3.84c12.38,11.22,23.68,23.41,32.45,37.73c6.27,10.24,12.88,20.1,21.18,28.97
			c10.62,11.34,18.56,24.74,25.95,38.41c5.07,9.37,5.85,20,9.09,29.91c4.89,14.94,2.85,29.84-0.86,44.66
			c-0.84,3.38-1.69,6.78-2.89,10.04c-5.68,15.37-8.05,31.51-10.74,47.52c-1.27,7.56-0.65,15.44-0.98,23.17
			c-0.21,5.02-0.21,10.08-0.95,15.03c-0.37,2.48-1.17,4.2-2.46,5.31l0,0c-9,0-15.83-13.61-17.95-17.72
			c-18.22-35.4-11.9,1.14-59-104.17c-5.82-13.02-13.44-30.41-22.1-51.15c0,0-4-7.97-12.38-23.61c-1.45-2.72-3.24-5.27-5.02-7.8
			c-1.34-1.89-3.1-3.5-4.37-5.43c-10.9-16.54-26.25-28.2-42.38-39.08c-22.01-14.86-51.02-16.12-74.93-4.64
			c-30.25,14.53-53.3,36.75-72.31,63.81c-2.06,2.93-3.37,6.89-7.75,7.27C1499.58,1706.73,1510.39,1693.91,1518.53,1685.73z
			 M1488.94,1727.15c0.18,0.38,0.36,0.76,0.54,1.14C1488.14,1728.29,1488.73,1727.66,1488.94,1727.15z M1488.09,1746.72
			c19.46-27.49,29.18-41.23,41.21-46.79c13.26-6.13,35.39-9.01,44.46,3.53c6.2,8.57,11.31,17.76,14.14,27.72
			c3.04,10.71,4.56,22.04,3.1,33.24c-1.52,11.62-1.89,23.06,0.67,34.53c0.23,1.04-0.22,2.22-0.33,3.11c-2.14,2.44-4.42,1.21-6.6,0.8
			c-16.73-3.15-33.47-6.36-50.6-5.43c-14.9,0.81-23.39-8.31-30.61-19.31c-5.92-9.02-11.4-18.31-17.6-28.33
			C1486.45,1749.05,1487.19,1747.99,1488.09,1746.72z M1485.32,1780.65c5.44,3.8,7.58,6.93,10.27,14.73
			c1.26,3.64,2.71,7.17,1.15,11.23c-1.85,4.81-3.48,7.41-8.36,11.05C1486.08,1805.28,1484.46,1793.28,1485.32,1780.65z
			 M1487.95,1832.68c6.92-5.29,12.68-11.28,15.68-19.65c0.62-1.73,2.1-3.15,4.16-6.12c7.39,8.97,14.09,16.45,20.03,24.49
			c8.29,11.19,15.77,22.98,24.03,34.2c16.82,22.85,30.04,47.79,43.72,72.53c9.34,16.89,20.15,32.98,30.4,49.37
			c6.77,10.83,13.99,21.39,20.54,32.36c17.07,28.57,34.21,57.12,50.63,86.06c6.08,10.71,10.46,22.42,15.19,33.85
			c4.44,10.72,8.39,21.64,12.41,32.52c2.13,5.76,3.16,11.74,2.87,18.83c-2.33-0.84-4.06-1.38-5.72-2.07
			c-7.13-2.96-14.14-6.27-21.4-8.88c-6.6-2.37-12.84-5.2-18.82-8.9c-11.51-7.13-23.57-13.41-34.91-20.79
			c-17.84-11.6-35.4-23.66-52.85-35.85c-10.86-7.58-21.81-14.7-34.89-17.94c-4.49-1.11-8.76-3.08-13.19-4.49
			c-7.82-2.5-14.99-6.13-21.61-11.04c-6.84-5.07-14.16-9.5-20.95-14.64c-24.37-18.43-40.62-42.23-46.96-72.4
			c-0.56-2.65-1.24-5.36-1.19-8.03c0.21-13.54,0.61-27.07,1.04-40.61c0.1-3.08,1.02-6.18,0.82-9.22
			c-1.26-19.06,2.61-37.82,3.27-56.77c0.31-9.02,3.87-17.52,8.85-24.93C1474.48,1846.6,1480.18,1838.63,1487.95,1832.68z
			 M1471.49,1670.95c0.04,1.05,1.28,34.38,1.33,35.8c0.87,29.09,2.66,70.82,6.74,124.13c-0.99-1.33-2.15-3.17-3.03-5.53
			c-2.2-5.89-1.24-11.21-1.03-12.57c1.69-11.41-5.13-47.01-8.03-133.1c0,0-1.27-37.41-5.9-62.58c-0.53-2.9-1.06-5.81-1.54-8.72
			c-0.99-5.91-1.91-11.83-2.74-17.76c-0.01-0.04-0.01-0.07-0.02-0.1c0,0.01,0.01,0.02,0.01,0.03c-0.39-2.82-0.77-5.63-1.11-8.45
			c-0.46-3.79-0.29-7.69-0.03-11.52c0.08-1.14,1.44-2.18,2.26-3.33c1.14,0.98,2.01,1.37,2.21,1.97c0.9,2.61,1.4,4.92,1.37,5.56
			C1460.36,1606.94,1470.3,1638.75,1471.49,1670.95z M1454.5,1557.95c-2.39,3.07-5.13,5.8-10.04,5.83
			c-0.62-5.18,1.38-9.91,2.42-14.66c3.77-17.19,4.14-34.51,2.72-51.93c-1.07-13.11-2.34-26.21-3.61-39.3
			c-1.39-14.24-3.32-28.44-4.22-42.71c-1.12-17.73-5.55-35.21-3.95-53.12c1.07-22.93,2.78-48.78,5.52-77.27c0,0,3.42-35.62,14-60.87
			c2.18-5.19,5.74-11.67,6.15-12.32c3.07-4.91,6.56-9.57,10.08-14.18c4.71-6.17,9.59-7.18,16.06-2.93
			c8.8,5.78,16.89,12.54,22.4,21.62c3.69,6.07,8.33,11.02,13.49,15.78c13.38,12.32,27.07,24.3,39.4,37.78
			c5.85,6.4,10.89,13.24,14.37,20.95c6.08,13.45,9.59,27.53,10.97,42.46c1.53,16.56-0.39,32.43-4.73,48.16
			c-1.63,5.92-4.08,11.7-6.85,17.18c-3.49,6.9-7.46,13.58-11.64,20.09c-11.27,17.59-22.25,35.46-36.24,51.06
			c-9.53,10.63-18.82,21.6-30.44,30.21c-6.26,4.64-11.52,10.38-15.41,17.18C1476.42,1531.84,1464.95,1544.52,1454.5,1557.95z"/>
	</g>
</g>
</svg>
