<?xml version="1.0" encoding="utf-8"?>
<!-- Generator: Adobe Illustrator 24.0.1, SVG Export Plug-In . SVG Version: 6.00 Build 0)  -->
<svg version="1.1" id="Слой_1" xmlns="http://www.w3.org/2000/svg" xmlns:xlink="http://www.w3.org/1999/xlink" x="0px" y="0px"
	 viewBox="0 0 3000 3000" style="enable-background:new 0 0 3000 3000;" xml:space="preserve">
<style type="text/css">
	.st0{fill:none;}
	.st1{fill:#45482A;}
</style>
<rect class="st0" width="3000" height="3000"/>
<g>
	<g>
		<path class="st1" d="M1470.93,1894.78c1.87,13.77,3.26,27.61,3.44,41.98c-13.15-9.96-22.63-22.6-32.12-35.24
			c-40.21-53.64-80.86-106.96-120.45-161.08c-13.88-18.97-23.98-40.85-37.95-59.74c-18.14-24.55-38.12-47.71-58.01-70.83
			c-3.69-4.29-10.72-5.59-16.36-8.33c-6.96,9.06-3.11,15.7,0.8,22.07c9,14.65,19.19,28.63,27.14,43.84
			c15.47,29.57,29.4,59.98,44.67,89.67c7.11,13.82,16.11,26.61,23.76,40.16c4.96,8.8,10.98,17.69,13.11,27.33
			c6.68,30.24,16.31,59.37,27.57,88.04c1.13,2.87,1.62,6.01,3.3,12.42c-23.47-11.76-45.92-18.64-54.96-45.11
			c-9.94-29.09-21.66-57.54-32.58-86.29c-4.01-10.54-8.78-20.55-17.4-29.2c-8.92,8.18-7.33,17.31-5.17,25.95
			c5.89,23.59,12.32,47.04,18.52,70.55c0.95,3.59,1.8,7.2,2.97,11.85c-7.92,1.08-12.59-3.79-17.11-7.51
			c-19.75-16.28-39.03-33.16-58.78-49.44c-8.62-7.1-17.87-13.43-27.02-19.81c-1.86-1.3-4.6-1.27-8.08-2.14
			c-1.48,13.99,4.89,24.25,10.92,33.86c28.54,45.5,62.44,85.89,107.85,114.96c11.86,7.59,18.88,17.97,23.92,32.34
			c13.38,38.16,28.99,75.69,51.42,109.49c27.33,41.19,55.11,82.08,83.22,122.72c18.94,27.38,38.72,54.16,58.31,81.07
			c4.41,6.06,10,11.24,14.29,17.38c5.48,7.86,11.7,15.71,14.88,24.58c5.56,15.52,9.04,31.82,14.32,51.21
			c-5.06-2.61-7.03-3.03-8.09-4.26c-38.06-44.32-76.77-88.09-113.73-133.35c-20.65-25.28-40.44-51.81-56.93-80.03
			c-21.38-36.58-39.51-75.2-58.21-113.37c-9.38-19.13-21.84-35.39-35.99-50.3c-8.22,1.81-8.88,6.75-7.03,12.5
			c2.31,7.19,4.77,14.38,7.75,21.31c24.93,57.94,48.64,116.49,82.06,170.17c19.71,31.65,42.91,60.36,68.31,87.32
			c11.01,11.69,22.17,23.26,32.57,35.51c30.91,36.41,31.44,37.55,83.86,99.7c20.02,23.73,22.67,26.5,26.75,34.63
			c8.75,17.43,8.37,28.76,20.64,68.93c2.45,8.03,4.95,16.05,7.52,24.04c7.09,22.03,15.63,43.58,23.46,65.37
			c2.18,6.07,3.93,12.32,6.26,18.32c3.54,9.11,7.49,11.39,13.97,8.66c9.05-3.82,11.24-8.43,7.86-17.35
			c-6.12-16.13-13-31.99-18.41-48.35c-1.26-3.8-2.41-7.63-3.51-11.49c-2.09-7.36-3.51-12.77-3.86-14.11
			c-4.96-19.23-16.96-48.22-19.86-71.23c-0.61-4.85-1.09-11.98,0.07-20.57c0.4-2.97,1.01-6,1.9-9.23
			c5.99-21.78,12.15-43.59,19.79-64.8c14.44-40.1,30.2-79.21,56.36-113.82c23.2-30.71,42.8-64.41,62.41-97.77
			c11.95-20.33,20.91-42.5,31.23-63.83c3.98-8.24,7.66-16.66,12.15-24.6c2.86-5.05,3.55-9.99-1.52-12.45
			c-2.83-1.37-8.12,0.26-11.17,2.32c-3.34,2.25-5.41,6.5-7.97,9.93c-11.83,15.93-23.97,31.63-35.37,47.87
			c-14.81,21.09-29.21,42.47-43.43,63.98c-11.55,17.47-22.58,35.31-33.84,52.99c-0.87,1.36-1.96,2.62-2.57,4.09
			c-17.97,43.29-36.2,86.46-53.6,129.99c-3.95,9.88-4.86,21.02-7.39,31.53c-0.47,1.93-1.97,3.6-3.93,7.03
			c-8.52-22.99-6.38-44.05-0.25-65.37c21.04-73.13,51.5-141.88,91.07-206.41c10.68-17.42,22.41-34.19,32.56-51.92
			c6.05-10.57,10.95-22.1,14.49-33.8c2.3-7.58,7.5-10.03,13-12.88c17.45-9.06,35.48-17.05,52.46-26.94
			c28.66-16.69,54.26-37.59,76.11-63.04c0.96-1.12,1.22-2.88,2.72-6.61c-4.45-0.69-8.37-2.43-11.69-1.61
			c-13.3,3.28-26.77,6.37-39.49,11.38c-16.76,6.59-32.84,14.95-49.27,22.43c-2.22,1.01-4.75,1.31-9.03,2.43
			c4.29-15.09,7.96-28.46,11.91-41.74c3.69-12.42,8.12-24.62,11.34-37.16c1.86-7.25,2.65-14.98,2.63-22.49
			c-0.01-7.82-5.53-10.27-11.87-5.58c-3.37,2.49-6.52,5.68-8.86,9.19c-22.62,33.95-46.08,67.47-59.22,106.89
			c-3.79,11.38-8.93,19.98-21.7,23.12c-9.07,2.23-17.33,7.83-26.02,11.77c-4.24,1.92-8.63,3.48-16.53,6.63
			c7.34-24.69,12.8-46.53,20.32-67.6c13.58-38.05,28.54-75.59,42.6-113.46c3.75-10.1,6.88-20.52,9.14-31.06
			c0.7-3.26-2.45-7.38-3.83-11.1c-3.22,1.31-7.08,1.89-9.51,4.1c-3.06,2.79-5.34,6.71-7.28,10.51
			c-17.58,34.54-36.49,68.48-52.02,103.97c-13.35,30.51-23.68,62.52-33.59,94.44c-5.72,18.42-11.11,34.44-30.32,43.86
			c-11.14,5.46-26.46,15.81-46.12,32.29c-0.86-11.11-1.72-22.21-2.57-33.32c1.98-6.61,4.91-16.14,8.62-27.54
			c12.59-38.61,20.31-76.17,43.87-114.09c21.52-34.64,46.23-67.23,69.86-100.48c5.98-8.41,14.27-13.97,24.01-17.93
			c11.26-4.57,21.81-10.94,32.7-16.48c32.65-16.6,65.53-32.75,97.81-50.07c8.11-4.35,14.58-12.17,21.22-18.99
			c1.77-1.82,2.86-7.02,1.66-8.58c-1.89-2.47-5.94-4.25-9.14-4.35c-4.08-0.13-8.26,1.56-12.32,2.72
			c-22.99,6.54-45.09,15.39-66.09,27.03c-2.26,1.25-4.72,2.11-10.45,4.63c3.8-5.66,5.34-8.77,7.59-11.19
			c14.6-15.68,29.74-30.86,43.88-46.96c5.88-6.69,10.24-14.97,14.39-23.02c3.54-6.86,2.57-13.81-3.84-18.93
			c-6.22-4.96-11.3-0.38-15.57,3.19c-16.77,14.02-34.07,27.56-49.49,43.03c-20.74,20.81-39.53,43.63-59.94,64.8
			c-9.55,9.91-20.11,19.35-31.64,26.63c-32.7,20.64-66.13,40.06-101.19,61.11c3.8-9.32,6.27-18.41,10.9-26.16
			c13.51-22.61,27.04-45.3,42.11-66.82c28.95-41.31,60.4-80.85,88.15-122.96c27.7-42.05,56.61-83.95,72.11-132.96
			c7.17-22.66,20.11-38.36,39.48-51.88c36.78-25.67,45.84-34.43,56.83-51.5c2.02-3.13,11.77-18.62,8.51-21.8
			c-1.94-1.9-7.67,1.45-11.76,3.62c-19.22,10.2-39.65,18.34-57.63,30.69c-60.51,41.58-86.41,46.47-101.58,61.42
			c-2.27,2.23-11.89,8.06-24.29,14.11c-0.89,0.44-2.03,0.35-4.47,0.73c0.57-3.2,0.46-6.22,1.63-8.58
			c21.96-43.94,39.72-89.6,53.95-136.73c2.04-6.75,4.73-13.46-1.96-20.54c-3.2,1.32-6.65,2.76-10.12,4.19
			c3.61-5.39,6.67-11.34,11.1-15.9c35.66-36.73,66.45-77.1,89.76-123.21c1.68-3.33,3.09-6.82,4.37-10.33
			c0.28-0.77-0.55-1.96-1.12-3.72c-7.17-2.6-11.63,2.9-15.79,7.15c-18.7,19.13-37.42,38.27-55.44,58.07
			c-19.47,21.39-37.67,43.99-57.31,65.2c-39.78,42.95-76.21,88.54-106.29,139.15c-15.92,26.8-30.64,54.34-45.89,81.55
			c-1.25,2.23-2.41,4.5-5.11,9.55c-1.37-5.64-2.67-8.43-2.62-11.2c0.53-28.67,1.08-57.35,2.16-86.01c0.17-4.52,2.24-9.5,4.81-13.3
			c17.75-26.22,36.85-51.54,53.59-78.41c16.73-26.85,32.18-54.67,46.43-82.99c14.74-29.3,27.21-59.79,41.07-89.57
			c2.38-5.12,5.94-10.34,10.29-13.7c10.96-8.46,22.57-16.09,34.13-23.7c44.97-29.61,84.9-64.6,113.64-111.45
			c3.87-6.31,6.19-13.61,9.31-20.42c2.43-5.31,3.59-10.78-1.98-14.44c-5.53-3.64-9.86,0.3-14.07,3.83
			c-17.6,14.75-35.02,29.76-53.01,44.01c-20.05,15.88-40.62,31.09-61.07,46.44c-1.97,1.48-4.7,1.88-9.5,3.71
			c8.11-39.38,21.19-75.97,19.69-117.49c-4.74,2.91-7.94,3.83-9.49,5.99c-30.98,43.08-53.26,88.49-58.02,115
			c-0.67,3.75-1.13,6.74-1.31,7.97c-0.55,7.59-8.62,24.5-6.89,25.82c0.46,0.35,1.86-0.22,5.99-4.27
			c-34.87,31.24-69.75,62.47-104.62,93.71c0.54-4.29,1.17-10.92,1.11-19.08c-0.04-4.94-0.79-7.56-0.49-10.96
			c1.48-17.21,3.18-34.41,4.87-51.6c0.21-2.13,0.76-4.25,1.35-6.31c10.82-37.34,21.91-74.81,43.01-107.57
			c8.2-12.74,20.1-23.82,32.27-32.91c42.79-31.96,91.57-48.66,143.74-56.44c6.62-0.99,24.24-2.77,42.8-13.96
			c15.91-9.59,30.57-24.8,28.01-29.38c-1.27-2.26-6.2-0.97-18.82,1.04c-6.28,1-10.86,2.22-11.5,2.38
			c-13.57,3.38-24.65,2.55-35.09,2.97c-14.55,0.59-25.99,0.78-41.56,8.05c-22.1,10.32-43.55,22.09-65.58,32.57
			c-25,11.88-49.97,23.61-69.35,44.58c-0.48,0.52-1.79,0.24-5.25,0.59c5.19-8.95,9.11-17.02,14.2-24.22
			c11.45-16.21,23.41-32.04,35.29-47.93c19.91-26.63,40.31-52.88,59.78-79.84c21.36-29.57,41.87-59.7,57.19-93.27
			c15.21-33.32,31.57-66.08,47.09-99.26c2.29-4.9,2.67-10.74,3.95-16.19c-8.7-3.2-11.88,2.04-14.74,6.11
			c-8.01,11.41-15.18,23.44-23.17,34.87c-18.78,26.83-38.35,53.1-56.68,80.24c-32.46,48.07-64.19,96.65-96.31,144.96
			c-7.06,10.62-14.45,21.01-24.17,30.55c6.63-20.74,12.01-42.02,20.17-62.11c12.58-30.96,26.8-61.23,40.82-91.56
			c19.08-41.27,44.37-78.51,70.3-115.57c17.15-24.51,31.18-51.56,44.49-78.56c11.63-23.6,20.45-48.66,30.22-73.2
			c2.51-6.31,5.42-13.14-1.69-21.55c-5.01,3.88-10.81,6.69-14.29,11.32c-41.6,55.33-85.25,109.29-114.92,172.89
			c-3.09,6.63-6.14,13.28-9.16,19.95c-13.27,29.26-20.56,44.98-26.78,59.65c-6.1,14.41-14.25,34.88-22.78,60.56
			c3.32-15.06,8.74-38.43,16.52-66.72c16.64-60.5,36.36-108.95,60.05-177.84c10.18-29.61,22.72-58.42,31.8-88.35
			c9.52-31.39,20.79-62.59,22.43-95.99c0.21-4.23,0.06-8.49,0.08-12.27c-7.6-4.82-13.44-2.39-17.48,3.29
			c-5.56,7.82-11.35,15.87-14.88,24.73c-28.46,71.23-52.7,143.9-70.54,218.76c-5.47,22.95-12.97,45.4-22.24,68.04
			c-0.31-3.78-1.2-7.62-0.85-11.34c4.67-48.72,0.75-97.35-2.18-145.91c-1.47-24.23-5.21-48.39-9.18-72.37
			c-2.02-12.16-6.52-23.95-10.55-35.67c-1.31-3.79-4.69-6.84-8.48-12.1c-3.51,4.04-6.9,6.57-8.36,9.98
			c-1.87,4.35-2.75,9.36-3.08,14.16c-3.14,46.41-7.37,92.67,0.9,139.21c0,0,12.1,83.73,14.04,174.44
			c1.05,49.32-1.91,89.59-4.52,115.6c0.67-51.38-1.19-96.06-3.75-132.52c-2.51-35.82-8.67-74.29-24.4-113.66
			c-4.14-10.35-9.38-21.13-16.83-29.02c-15.38-16.26-32.43-30.89-49.19-45.72c-3.29-2.91-8.38-3.7-12.51-5.42
			c-6.95,6.95-4.84,13.63-1.92,20.13c7.73,17.21,14.85,34.78,23.65,51.42c34.57,65.41,50.32,136.14,59.16,209.22
			c6.46,53.42,4.55,106.89,4.55,160.4c0,7.03,0.62,14.05,0.97,21.08c0.65,12.91,0.09,25.22-3.45,38.24
			c-3.26,11.98-3.18,23.79-6.39,39.37c-2.78,13.48-5.76,24.97-8.34,33.98c-9.06-11.9-18.13-23.8-27.19-35.7
			c-0.87-20.86-1.93-37.53-2.74-48.95c-1.14-16.07-1.47-18.42-2.12-30.11c-1.25-22.2-0.83-28.84-3.82-50.7
			c-4.53-33.16-11.35-66.01-17.39-98.95c-0.76-4.13-2.8-8.01-5.02-14.12c-3.39,3.57-6.95,5.6-7.65,8.39
			c-2.62,10.47-3.72,19.62-3.37,22.34c1.82,13.96-0.59,63.27-6.67,145.06c-9.18-11.34-22.68-29.01-36.95-52.1
			c-15.12-24.44-25.55-49.79-43.42-81.01c-13.32-23.29-28.35-45.56-42.83-68.14c-1.22-1.91-3.98-2.78-7.98-5.43
			c-0.42,5.86-1.37,9.82-0.87,13.58c3.9,29.19,13.85,56.62,24.02,83.96c15.73,42.29,39.94,79.84,62.92,118.1
			c15.79,26.28,32,52.35,46.47,79.39c5.1,9.53,6.24,21.52,8.09,32.58c4.64,27.69,8.36,55.55,12.97,83.24
			c6.84,41.05,14.19,82.01,21.18,123.03c0.7,4.14,0.42,8.45-1.45,13.36c-1.03-2.43-2.37-4.78-3.03-7.32
			c-7.4-28.47-21.86-53.67-35.32-79.29c-12-22.83-24.99-45.12-36.56-68.17c-3.71-7.39-5.71-16.37-6-24.72
			c-0.92-26.44-0.19-52.95-1.06-79.4c-0.44-13.43-2.75-26.82-4.66-40.16c-0.5-3.49-2.68-6.72-4.26-10.49
			c-8.19,1.09-9.71,6.57-10.15,12.7c-1.57,21.6-3.03,43.2-4.54,64.8c-0.4,5.73-0.82,11.47-1.5,20.89
			c-5.56-7.24-8.64-11.37-11.84-15.4c-19.31-24.37-38.04-49.25-58.13-72.92c-20.7-24.39-47.99-40.62-73.99-58.24
			c-3.94-2.67-9.56-2.72-18.2-4.97c2.75,7.88,3.45,12.6,5.79,16.19c14.65,22.45,27.82,46.29,44.96,66.59
			c33.6,39.8,65.58,80.76,95.51,123.48c5.89,8.41,8.25,17.43,8.79,27.24c2.06,37.81,3.35,75.68,6.07,113.45
			c3.69,51.14,13.77,100.75,38.66,146.07c10.61,19.33,22.07,38.17,32.81,57.42c8.38,15.01,16.42,30.23,24.23,45.55
			c1.9,3.73,3.17,8.21,3.32,12.4c0.53,15.02,0.46,30.06,0.62,46.02c-2.99-0.84-4.94-0.76-5.66-1.69
			c-20.34-26.29-42.06-51.65-60.24-79.44c-11.89-18.17-19.36-39.57-27.45-60.09c-17.2-43.63-32.96-87.85-50.32-131.41
			c-22.25-55.8-56.31-103.9-95.54-148.37c-2.66-3.01-6.41-5.01-12.59-6.02c0.95,5.42,1,11.22,3,16.2
			c18.3,45.56,36.05,91.39,55.74,136.32c16.43,37.48,35.4,73.79,52.97,110.74c15.95,33.54,32.22,66.96,47.14,100.99
			c19.6,44.69,50.77,79.32,87.25,109.76c2.65,2.21,6.48,5.48,6.41,8.15c-0.44,15.39-1.88,30.74-3.14,48.18
			c-5.99-4.1-12-6.69-15.99-11.17c-29.94-33.6-59.49-67.56-89.16-101.41c-0.35-0.4-0.61-0.93-1.02-1.24
			c-21.43-15.97-25.95-40.97-33.32-64.59c-15.48-49.56-32.82-98.32-60.18-142.66c-4.51-7.31-8.04-15.27-12.47-22.64
			c-3.2-5.31-7.14-10.16-11.19-15.83c-7.8,7.44-4.8,14.88-3.03,20.9c9.64,32.61,20.21,64.92,30.06,97.47
			c7.31,24.14,14.01,48.47,20.98,72.71c-1.02,0.61-2.05,1.23-3.07,1.84c-20.2-19.19-39.84-39.04-60.75-57.38
			c-20.97-18.39-40.16-39.34-65.05-53.45c-6.36,8.24-3.03,14.51-0.12,20.83c14.95,32.47,37.39,58.7,63.9,81.81
			c27.35,23.84,54.24,48.23,81.14,72.6c2.58,2.33,4.31,6.01,5.6,9.4c11.53,30.25,21.85,61.03,34.58,90.73
			c11.23,26.21,23.22,52.47,38.33,76.43c12.48,19.8,29.93,36.34,45.34,54.17c9.81,11.35,19.98,22.37,29.88,33.63
			C1468.47,1890.11,1470.61,1892.41,1470.93,1894.78z M1545,958.49c-1.46,0.06-2.92,0.12-4.38,0.17
			c0.06-11.33-0.45-22.69,0.28-33.98c3.41-52.65-1.54-104.96-7.99-156.94c-3.57-28.78-12.46-56.9-19.42-85.2
			c-3.09-12.55-6.33-25.25-11.27-37.1c-9.94-23.85-21.18-47.13-31.71-70.73c-6.26-14.04-12.2-28.22-19.85-45.96
			c6.18,3.2,9.1,4.14,11.33,5.96c9.1,7.41,18.12,14.94,26.93,22.7c15.04,13.24,27.76,28.43,33.95,48.07
			c5.98,19,12.74,37.99,16.14,57.53c4.7,27.07,7.3,54.59,9.44,82.02c1.63,20.96,1.69,42.1,1.48,63.15
			c-0.38,37.85-1.34,75.7-2.38,113.53C1547.22,933.99,1545.88,946.23,1545,958.49z M1581.22,687.65
			c-0.61,11.78-2.34,23.53-3.95,35.23c-1.62,11.76-3.78,23.45-5.56,35.19c-1.26,8.32-2.29,16.69-3.43,25.03
			c-1.75-20.76-0.68-41.32-1.76-61.76c-2.25-42.63-2.5-85.72-9.34-127.64c-9.05-55.5-12.32-110.65-7.12-166.46
			c0.64-6.83,2.61-13.53,3.96-20.3c1.65-0.1,3.3-0.19,4.94-0.29c3.57,11.67,8.55,23.11,10.48,35.06
			c10.45,64.77,14.85,130.02,12.84,195.69C1581.79,654.14,1582.08,670.93,1581.22,687.65z M1558.91,861.54
			c-3.56-0.88,11.52-81.73,28.68-153.37c10.48-43.79,10.9-35.1,24.93-93.83c18.09-75.73,41.52-149.64,70.13-221.87
			c4.57-11.54,9.82-22.47,21.2-31.86c1.31,4.02,2.21,5.47,2.15,6.88c-0.18,4.31-0.21,8.73-1.23,12.87
			c-7.21,29.32-13.35,59-22.32,87.76c-15.25,48.88-31.17,97.56-48.65,145.65C1581.22,758.41,1562.95,862.54,1558.91,861.54z
			 M1551.15,958.76c2.48-27.29,7.5-65.59,18.63-110.27c19.5-78.28,49-130.15,77.33-191.64c27.51-59.71,67.38-111.04,107.25-162.28
			c2.49-3.2,5.69-5.83,8.56-8.73c1.07,0.68,2.14,1.37,3.21,2.05c-3.07,10.22-4.85,21.1-9.45,30.54
			c-17.44,35.8-34.56,71.86-54.2,106.4c-15.37,27.03-36.1,50.89-51.19,78.05c-21.91,39.43-41.5,80.25-60.82,121.11
			c-6.3,13.33-12.83,31.48-20.48,56.09C1560.35,911.16,1554.65,938.25,1551.15,958.76z M1540,1018.17
			c13.43-58.36,33.26-97.74,49.36-123.32c10.69-16.98,26.53-40.05,48.74-74.01c12.93-19.78,25.33-39.94,38.63-59.46
			c26.61-39.06,53.65-77.81,80.6-116.64c3.42-4.92,7.3-9.5,10.97-14.24c1.35,4.63,0.59,7.69-0.77,10.44
			c-17.91,36.21-35.58,72.55-53.98,108.49c-18.48,36.11-43.73,67.5-67.92,99.62c-32.53,43.19-37.52,48.41-54.29,73.95
			C1565.92,961.7,1549.63,995.88,1540,1018.17z M1525.89,1086.75c1.58-17.67,6.62-46.23,24.54-74.74
			c17.7-28.16,36.43-47.94,70.63-63.33c27.49-12.37,53.92-27.2,81.37-39.68c17.69-8.04,31.58-8.85,36.28-9.71
			c7.87-1.44,14.18-2.17,25.77-3.49c14.32-1.63,26.17-2.65,34.44-3.27c-3.52,4.73-4.37,7.08-5.92,7.76
			c-16.86,7.46-33.24,17.8-50.9,21.33c-43.73,8.73-86.95,17.71-125.38,42.41c-5.8,3.73-12.36,6.24-18.04,10.12
			c-25.23,17.25-38.84,38.33-47.64,52.67C1543.14,1039.7,1532.71,1059.81,1525.89,1086.75z M1742.17,1450.46
			c-1.67-7.71-5.45-9.4-5.13-13.69c0.43-5.84,7.77-7.42,29.67-18.83c10.62-5.53,26.43-14.13,37.78-20.06
			c5.02-2.62,10.26-4.79,15.41-7.16c0.62,1.12,1.25,2.23,1.87,3.35c-10.73,10.95-22.18,22.11-34.39,33.38
			c-15.83,14.6-31.38,27.95-46.44,40.14C1742.29,1463.53,1743.67,1457.35,1742.17,1450.46z M1310.2,1609.04
			c-8.93-7.01-14.96-11.31-20.52-16.19c-16.84-14.78-33.1-30.29-50.33-44.57c-18.64-15.45-34.99-32.91-49.05-52.7
			c-7.57-10.65-12.03-22.97-11.16-31.41c1.96,1.23,3.91,2.12,5.45,3.49c17.97,15.88,36.28,31.4,53.71,47.89
			c19.4,18.35,37.98,37.6,56.9,56.48C1304.34,1581.15,1307.57,1592.82,1310.2,1609.04z M1368.12,1666.24
			c9.81,30,9.4,30.39,13.19,39.31c19.05,44.88,52.61,86.29,68.04,98.45c6.25,4.92,11.79,10.82,17.35,16.58
			c2.1,2.18,4.82,5.3,4.72,7.89c-0.55,14.71-1.87,29.4-3.11,46.66c-7.86-8.08-13.84-14.07-19.65-20.22
			c-30.18-31.97-59.67-64.43-76.68-106.37c-6.27-15.47-12.95-30.77-19.66-46.05c-21.71-49.37-34.93-101.72-51.3-152.95
			c-8.69-27.2-16.17-54.81-24.69-82.07c-4.33-13.87-9.97-27.3-14.6-41.08c-3.68-10.94-7.71-21.94-4.11-34.86
			c6.24,10.48,12.7,20.83,18.67,31.47c17.21,30.66,23.81,51.85,40.94,100.13C1349.79,1614.86,1351.6,1615.73,1368.12,1666.24z
			 M1470.89,1811.77c-35.66-23.82-57.57-56.87-74.89-94.01c2.78,0.43,5,1.49,6.82,3.04c19.04,16.17,37.86,32.62,57.05,48.59
			C1475.61,1782.49,1477.45,1788,1470.89,1811.77z M1470.57,1765.48c-3.25-1.88-6.6-3.32-9.38-5.51
			c-13.33-10.44-26.57-21.01-39.73-31.68c-21.99-17.84-43.18-36.31-48.35-66.93c-0.44-2.6-1.84-5.03-2.77-7.55
			c-4.41-11.98-8.82-23.96-13.23-35.93c0.9-0.55,1.8-1.1,2.71-1.65c16.41,18.81,32.59,37.85,49.29,56.39
			c17.49,19.42,34.92,38.96,53.45,57.32C1475.94,1743.18,1477.29,1744.68,1470.57,1765.48z M1474.17,1660.81
			c-4.41-2.73-7.38-3.95-9.59-6.02c-11.28-10.59-22.68-21.07-33.44-32.2c-17.62-18.23-31.69-38.9-42.03-62.52
			c-15.99-36.5-31.87-73.15-50-108.56c-35.13-68.62-68.07-138.18-94.97-210.64c-2.9-7.81-5.59-15.7-8.6-24.16
			c2.67,0.2,4-0.12,4.58,0.41c3.51,3.27,7.25,6.41,10.18,10.19c27.01,34.83,53.09,70.38,69.56,111.99
			c21.24,53.66,41.48,107.74,63,161.28c7.39,18.4,15.44,37.09,26.54,53.23c17.92,26.05,38.3,50.37,58.29,74.87
			C1475.19,1637.85,1477.61,1647.1,1474.17,1660.81z M1375.89,1203.6c3.32,3.1,6.64,6.2,9.96,9.3c0.88,22.46,3.1,50.79,8.4,83.19
			c4.32,26.42,12.82,65.23,28.61,112.94c11.91,36,24.2,71.59,45.18,103.26c6.79,10.25,7.03,20.44,3.44,33.78
			c-3.46-5.26-5.91-8.58-7.94-12.15c-12.51-21.95-24.29-44.36-37.52-65.84c-18.93-30.71-29.35-64.39-36.66-99.52
			c-9.87-47.39-10.89-95.57-13.24-143.65C1375.77,1218.11,1375.95,1211.28,1375.89,1203.6z M1475.33,1502.6
			c-42.28-49.96-83.52-210.72-80.23-277.4c10.77,17.16,21.65,31.21,29.08,46.97c18.59,39.43,35.77,79.56,53.08,119.61
			c2.71,6.27,4.65,13.68,4.31,20.42C1480.01,1442.35,1477.5,1472.47,1475.33,1502.6z M1392.98,1144.93
			c-7.64-6.03-11.78-12.18-10.96-21.33c2.17-24.16,3.94-48.36,6.06-72.53c0.3-3.36,1.66-6.63,2.52-9.94
			c1.02,0.09,2.04,0.18,3.06,0.27c0.57,11.62,1.46,23.23,1.61,34.86c0.15,11.31,0.11,22.69-0.92,33.94
			C1393.32,1121.44,1398.19,1133.11,1392.98,1144.93z M1483.22,1382.41c-2.57-3.68-4.03-5.13-4.74-6.9
			c-7.11-17.46-13.51-35.25-21.26-52.39c-8.63-19.09-17.23-38.39-28.07-56.19c-15.04-24.69-32.14-48.07-48.36-72.01
			c-13.44-19.84-26.05-40.34-40.52-59.36c-28.22-37.1-57.83-73.1-86.13-110.14c-9.51-12.44-16.8-26.66-25.11-40.06
			c0.81-0.76,1.62-1.52,2.43-2.28c2.18,1.01,4.48,1.83,6.52,3.07c36.77,22.38,67.86,51.28,93.93,85.92
			c16.08,21.38,32.44,42.36,44.87,66.55c10.99,21.4,26.78,40.22,37.74,61.63c24.23,47.33,49,94.49,65.87,145.41
			C1484.21,1357.18,1485.07,1368.17,1483.22,1382.41z M1440.37,999.72c1.87,23.61,3.74,47.23,5.61,70.85
			c-2.49-5-5.9-11.26-10.46-18.22c-0.78-1.19-1.37-2.04-1.49-2.23c-17.32-29.09-33.26-59.15-52.07-87.2
			c-27-40.25-44.5-84.62-59.19-130.47c-3.08-9.63-4.42-19.85-6.57-29.8c20.96,24.38,38.29,50.11,50.52,79.04
			c13.18,31.17,29.59,57.02,56.78,95.35C1430.43,986.8,1436.39,994.62,1440.37,999.72z M1487.26,1154.16
			c0.51,6.2,2.09,24.84,5.61,62.08c0.69,7.25,1.4,14.51,2.16,21.75c2.76,26.31,5.2,39.4,6.17,47.89c1.7,14.91,1.58,36.85-7.39,66.06
			c-0.15-7.16-0.57-19.22-2-34.08c-3.13-32.5-9.14-56.33-10.7-63.73c-14.01-66.52-24.18-133.65-29.95-201.38
			c-4.17-48.93-7.08-97.97-0.6-147.1c2.11-15.98,1.32-32.34,2.12-48.52c0.36-7.23,1.36-14.42,2.07-21.63
			c21.12,58.66,20.89,119.61,25.91,179.61c0.38,4.49-0.06,14.69,0.23,29.84C1481.68,1085.77,1484.18,1116.38,1487.26,1154.16z
			 M1515.3,1099.73c-1.71,10.79-3.42,21.58-5.14,32.37c-6.26-6.11-12.52-12.23-18.78-18.34c-0.54-15.13-1.07-30.26-1.61-45.39
			C1498.29,1078.83,1506.8,1089.28,1515.3,1099.73z M1505.75,1281.64c-0.7,0.04-2.2-8.38-5.81-48.23
			c-4.12-34.42-7.06-68.95-4.96-104.26c11.12,10.18,19.16,21.07,16.38,37.72c-2.29,13.77-1.52,27.93-3.66,41.72
			C1501.91,1246.04,1507.18,1281.55,1505.75,1281.64z M1510.96,1282.3c3.4-8.71,7.13-15.25,9.87-19.56
			c18.26-28.73,48.37-45.14,58.63-54.6c0.59-0.54,1.24-1.02,1.92-1.46c2.61-1.66,4.88-2.81,6.52-3.43l0,0
			c-29.97,58.54-59.94,117.08-89.91,175.61C1502.31,1346.68,1506.64,1314.49,1510.96,1282.3z M1660.11,1092.16
			c-13.81,11.22-27.62,22.44-41.43,33.66c5.5-25.83,12.46-45.41,17.99-58.81c6.75-16.34,7.65-16.87,18.32-39.62
			c5.89-12.56,11.68-25.23,23.42-36.61c0.44,2.25,1.02,4.12,1.43,5.72c0,0,0.31,2.03,0.35,4.18
			C1680.26,1004.48,1672.14,1041.64,1660.11,1092.16z M1630.88,1163.42c-31.91,20.59-61.72,43.48-89.36,69.57
			c-8.38,7.91-16.98,15.58-25.48,23.35c-1.03-0.61-2.06-1.22-3.09-1.83c1.05-10.52,2.1-21.05,3.14-31.57
			c77.8-73.68,125.48-108.79,155.51-127.07c13.17-8.01,28.18-16.47,49.01-32.69c21.43-16.68,41.64-35,62.48-52.49
			c4.65-3.91,9.73-7.27,14.62-10.89c0.86,0.76,1.73,1.53,2.59,2.29c-2.45,5.74-4.54,11.67-7.41,17.17
			c-13.41,25.62-32.72,46.17-53.28,65.9C1706.92,1116.54,1668.33,1139.26,1630.88,1163.42z M1501.97,1381.13
			c32.39-61.86,64.78-123.71,97.16-185.57c3.31-3.99,8.7-9.47,16.62-13.94c4.79-2.7,9.28-4.35,12.96-5.38
			c-12.79,54.76-100.77,210.83-131.52,233.32C1498.79,1400.08,1500.38,1390.6,1501.97,1381.13z M1662.98,1331.08
			c-34.93,39.15-70.04,78.18-97.9,123.04c-22.06,35.53-42.23,72.29-63.33,108.45c-1.67,2.86-4.03,5.3-6.47,8.46
			c-7.41-14.3,2.9-22.44,7.08-32.42c14.01-33.45,32.77-64.03,51.75-94.68c28.96-46.76,61.33-90.52,98.76-130.56
			c26.3-28.13,51.1-57.71,76.96-86.28c9.19-10.15,19.51-19.22,29.31-28.79c0.68,0.46,1.37,0.93,2.05,1.39
			c-0.85,2.89-1.08,6.19-2.64,8.6c-10.21,15.76-19.69,32.17-31.32,46.78C1706.57,1281.04,1685.05,1306.34,1662.98,1331.08z
			 M1501.55,1579.87c27.12-62.1,62.9-118.77,103.87-172.1c12.73-16.57,26.21-32.57,39.99-48.24c9.46-10.76,19.94-20.59,30.01-30.79
			c-3.83,7.74-7.42,15.6-11.62,23.12c-17.03,30.48-35.4,60.24-51.1,91.41c-13.26,26.35-25.23,53.7-34.29,81.79
			c-3.78,11.71-9.58,19.46-17.39,27.18c-15.57,15.4-31.01,30.94-46.69,46.22c-5.09,4.96-10.76,9.31-16.98,14.64
			C1494.87,1599.11,1495.62,1593.45,1501.55,1579.87z M1653.27,1421.07c-3.78,7.86-11.52,23.13-19.6,45.63
			c-3.97,11.05-6.76,20.33-8.54,26.59c-12.52,10.09-25.05,20.17-37.57,30.26c7.61-21,19.61-51.87,36.88-88.08
			c22.1-46.34,51.98-99.68,56.23-97.62C1684.39,1339.65,1670.62,1385.03,1653.27,1421.07z M1730.23,1440
			c-0.61,5.61-2.34,13.74-7.86,21.08c-5.18,6.88-10.83,9.26-21.61,16.25c-8.02,5.2-15.82,10.83-23.1,17.07
			c-30.23,25.95-60.77,51.56-90.11,78.52c-16.81,15.45-31.73,33.09-47.17,50.06c-14.24,15.65-28.05,31.71-42.05,47.59
			c-1.19-0.48-2.38-0.97-3.58-1.45c0.25-9.98,1.38-20.04,0.5-29.91c-0.77-8.66,2.33-14.3,8.19-19.72
			c9.78-9.06,19.15-18.59,28.72-27.9c23.39-22.75,26.64-30.09,67.9-65.65c10.24-8.83,17.68-14.58,32.55-26.09
			c47.83-37.03,70.07-45.7,82.86-53.87C1719.14,1443.63,1723.62,1442.62,1730.23,1440z M1494.46,1789.4
			c1.18-9.3,2.36-18.6,3.54-27.9c17.36-46.42,34.72-92.85,52.08-139.27c16.61-17.05,33.22-34.1,49.83-51.15
			c-1.65,3.73-4.27,9.61-7.59,16.77c-15.5,33.48-25.56,50.54-43.77,86.07c-11.33,22.1-19.47,38.96-21.33,42.83
			C1513.14,1746.06,1502.2,1771.05,1494.46,1789.4z M1532.24,1722.87c14.69-28.42,20.68-40.41,32.68-64.66
			c10.68-21.58,26.07-53.66,43.65-94.18c33.71-28.77,67.42-57.54,101.13-86.31c-3.67,6.72-7.1,13.61-11.16,20.09
			c-22.53,35.92-45.04,71.85-67.94,107.52c-21.17,32.97-41.78,66.41-64.62,98.15c-19.1,26.55-39.49,52.01-53.95,81.73
			c-1.1,2.26-2.33,4.23-2.44,4.43c-8.74,16.25-14.04,30.33-17.28,40.29c0.36-8.58,0.72-17.16,1.09-25.74
			C1508.73,1769.4,1522.51,1741.7,1532.24,1722.87z M1493.99,1753.37c-0.17-22.44-0.34-44.89-0.51-67.33
			c13.55-14.05,27.1-28.11,40.65-42.16C1520.75,1680.38,1507.37,1716.88,1493.99,1753.37z M1494.32,1878.72
			c-2.95-28.94-2.13-38.08,6.11-54.96c15.1-30.92,28.9-62.62,50.83-89.53c7.77-9.53,15.68-19.07,22.37-29.39
			c24.23-37.39,48.06-75.06,71.87-112.73c15.21-24.06,30.03-48.38,45.2-72.47c12.58-19.98,25.37-39.82,38.14-59.67
			c1.75-2.72,3.91-5.15,5.88-7.72c1.08,4.79,0.76,8.54-0.46,11.96c-5.07,14.2-10.63,28.22-15.62,42.45
			c-15.33,43.7-40.42,81.93-65.4,120c-19.12,29.12-41.01,56.33-61.21,84.72c-14.3,20.09-27.34,41.11-41.84,61.04
			C1527.11,1804.18,1508.9,1838.52,1494.32,1878.72z M1625.64,1794.59c-5.92,6.01-13.72,14-22.85,23.52
			c-8.68,9.06-10.68,12.71-15.77,16.02c-9.31,6.06-18.37,12.66-26.87,19.86c-21.39,18.13-42.39,36.74-64.32,55.82
			c-1.27-1.99-2.92-5.18-3.28-9.26c-0.83-9.43,5.82-16.84,14.18-26.14c6.65-7.4,13.22-12.66,21.18-19.03c0,0,4.43-3.54,8.85-6.8
			C1548.31,1840.07,1581.09,1819.95,1625.64,1794.59z M1504.88,1913.5c22.24-19,44.23-38.3,66.37-57.41
			c0.61-0.53,1.86-0.29,3.36-0.47c-24.9,39.26-49.61,78.22-75.89,119.66c-1.64-11.94-2.65-21.84-4.42-31.6
			C1492.07,1931.34,1495.41,1921.59,1504.88,1913.5z M1667.43,1797.91c10.26-10,19.3-22.02,31.09-29.51
			c15.52-9.87,33.14-16.32,49.96-24c13.85-6.33,28.1-11.36,45.38-13.27c-2.24,3.97-2.95,6.78-4.72,8.12
			c-36.48,27.68-79.98,40.82-119.67,61.88C1668.79,1800.05,1668.11,1798.98,1667.43,1797.91z M1507.45,2056.72
			c-1.02-0.09-2.03-0.19-3.05-0.28c-1.02-9.87-1.86-19.76-3.1-29.61c-2.52-20,2.44-38.35,10.84-56.16
			c15.5-32.85,34.21-61.95,63.24-100.7c59.51-79.44,63.16-86.16,85.63-112.08c31.63-36.48,30.7-33.54,56.39-59.07
			c11.34-11.27,23.87-21.31,36.15-31.53c3.42-2.85,7.86-4.4,14.79-8.14c-0.47,6.5,0.33,10.45-1.14,13.07
			c-4.68,8.35-9.34,16.99-15.55,24.09c-15.49,17.69-31.86,34.57-47.83,51.83c-10.51,11.36-20.7,23.04-31.44,34.16
			c-16.56,17.14-33.76,33.45-48.91,52.17c-24.27,29.98-45.53,61.95-66.13,94.5c-20.87,32.98-34.69,69.04-44.46,106.87
			C1511.06,2042.81,1509.25,2049.76,1507.45,2056.72z M1616.99,2038.03c-4.65,14.81-11.01,19.11-25.98,18.08
			c16.75-79.43,49.47-151.83,91.87-219.92c1.09,0.59,2.18,1.17,3.27,1.76c-2.79,9.24-5.1,18.67-8.45,27.69
			c-13.5,36.41-27.73,72.53-40.85,109.08C1629.4,1995.51,1623.62,2016.93,1616.99,2038.03z M1731.34,1995.34
			c-1.11,3.32-3.75,7.06-6.68,8.6c-10.13,5.32-20.71,9.74-33.63,15.66c4.58-33.23,47.98-111.08,68.39-123.55
			c-0.46,6.37,0.12,11.76-1.34,16.48C1749.48,1940.24,1740.52,1967.83,1731.34,1995.34z M1638.64,2075.97
			c-23.26,7.34-29.83,9.25-43.36,15.3c-20.84,9.32-40.27,21.21-55.26,39.48c-6.98,8.52-14.63,16.48-22.55,25.34
			c-6.79-22.55-4.49-34.03,11.9-46.86c47.06-36.86,70.16-43.83,70.16-43.83c54.64-20.65,11.98-10.67,138.05-62.06
			c20.41-8.32,49.29-19.9,84.39-33.31c2.42-0.01,4.85-0.02,7.27-0.03c0.4,1.15,0.8,2.31,1.21,3.46
			c-48.51,45.6-87.85,65.88-115.46,75.9C1661.33,2068.81,1638.64,2075.97,1638.64,2075.97z M1597.1,2159.13
			c-2.61,10.84-5.55,21.97-10.6,31.76c-11.78,22.85-25.27,44.77-37.35,67.47c-5.67,10.65-9.66,22.23-14.42,33.39
			c-0.88-0.04-1.77-0.08-2.65-0.12c-0.32-5.05-1.37-10.19-0.82-15.14c1.84-16.6,4.03-33.17,6.55-49.67
			c1.3-8.49,2.82-17.1,5.58-25.18c8.85-25.95,19.43-51.34,27.17-77.61c5.54-18.83,19.15-23.17,36.25-28.97
			c-0.63,8.74-0.61,15.09-1.63,21.26C1602.82,2130.66,1600.5,2145.04,1597.1,2159.13z M1613.29,2110.3c0.96-5.33,2.52-14.7,10-20.78
			c5.61-4.56,13.65-6.1,24.92-5c-17,31.49-34,62.99-51,94.48C1605.26,2149.07,1610.22,2127.41,1613.29,2110.3z M1524.83,2245.24
			c-3.66-21.42-5.36-42.68-6.98-63.96c-0.08-1,0.52-2.08,0.9-3.08c8.22-22.13,21.16-40.63,40.87-54.32
			C1551.87,2165.5,1530.62,2202.79,1524.83,2245.24z M1561.54,2352.9c-3.01,16.85-3.54,30.05-6.54,30.27
			c-5.49,0.4-13.08-43.04-19.17-84.39c4.1-8.14,10.3-20.28,18.09-34.87c20.27-37.97,20.97-43.43,43.66-76.82
			c19.83-29.18,37.2-60.34,53.22-91.92c10.18-20.06,26.28-25.43,46.17-29.59c-0.99,12.46-4.9,22.28-10.51,31.48
			c-15.39,25.23-31.82,49.85-46,75.76c-15.72,28.71-30.56,58.06-43.66,88.09C1576.27,2307.97,1565.41,2331.22,1561.54,2352.9z
			 M1582.54,2441.14c-1.69,5.2-3.26,10.44-4.89,15.66c-1.5-0.35-3.01-0.69-4.51-1.03c0.36-4.96,0.28-10,1.16-14.86
			c2.11-11.66,4.48-23.27,7.13-34.82c1.8-7.86,3.66-15.81,6.53-23.29c7.15-18.61,14.63-37.1,22.48-55.41
			c10.17-23.73,18.76-48.5,31.68-70.59c34.39-58.83,72.54-115.17,117.36-170.39c-0.63,4.15-0.64,5.71-1.12,7.11
			c-1.22,3.56-2.42,7.16-4.02,10.55c-29.07,61.4-62.56,120.13-102.52,174.79c-12.78,17.48-23.29,35.97-31.61,55.94
			c-4.35,10.44-9.42,20.62-13.09,31.3C1598.58,2390.97,1590.67,2416.1,1582.54,2441.14z M1529.81,2393.01
			c2.68,9.36,5.36,18.72,8.04,28.08c3.38,9.1,6.77,18.19,10.15,27.29c-10.05-13.02-25.5-32.74-44.88-56.28
			c-49.19-59.74-60.13-73.68-94.85-109.1c-39.57-40.36-70.65-87.71-95.03-139.14c-18.22-38.43-34.36-77.88-51.33-116.92
			c-0.95-2.19-1.03-4.77-2.08-9.96c12.4,10.2,18.97,21.15,24.73,32.54c11.9,23.55,23.27,47.38,35.03,71
			c19,38.17,39.99,75.05,67.16,107.93c37.48,45.38,64.39,81.29,89.94,109.32C1497.73,2360.84,1516.16,2379.55,1529.81,2393.01z
			 M1271.58,1904.52c2.33,9.84,4.76,19.66,7.14,29.49c-0.96,0.76-1.93,1.52-2.89,2.28c-50.52-30.26-86.7-74.15-113.97-126.81
			c10,1.58,16.32,8.65,23.46,14.58c22.47,18.65,44.88,37.38,67.86,55.34C1261.89,1886.2,1268.95,1893.42,1271.58,1904.52z
			 M1317.57,1952.31c8.13,19.54,11.46,30.47,22.07,50.67c1.24,2.37,1.08,1.78,2.9,5.41c8.18,16.37,15,33.52,24.06,49.34
			c5.86,10.24,19.56,33.94,48.55,79.95c22.3,35.4,33.53,53.18,37.16,57c9.14,9.62,25.65,24.74,43.49,51.25
			c1.82,2.71,3.28,4.98,4.25,6.51c4.22,19.82,8.44,39.64,12.66,59.47c-2.71-4.65-7.2-12.15-13.15-21.08
			c-18.33-27.5-35.78-45.2-39.64-50.49c-38.62-52.89-77.1-105.86-110.97-162.21c-24.3-40.44-42.69-83.33-56.17-128.55
			c-6.29-21.13-10.03-43.25-18.21-63.54c-13.01-32.27-19.61-66.21-28.85-99.46c-0.45-1.63,0.48-3.67,0.76-5.52
			c6.27,6.77,10.56,14.07,13.6,21.88c16.15,41.45,24.39,62.11,29.74,78.74c5.86,18.22,5.98,19.77,9.53,29.29
			C1306.35,1929.75,1307.61,1928.36,1317.57,1952.31z M1496.67,2233.02c-32.64-24.43-130.9-176.96-148.17-230.29
			c12.72,6.4,22.65,12.88,33.5,16.45c12.84,4.23,18.73,13.61,24.97,24.62c19.79,34.92,36.53,71.79,64.32,101.65
			c14.54,15.63,25.32,34.13,24.83,57.31c-0.14,6.42,1.5,12.87,1.82,19.33C1498.1,2225.45,1497.19,2228.88,1496.67,2233.02z
			 M1366.26,1959.42c8.83,22.81,11.49,25.67,15.57,33.6c2.91,5.66,7.57,14.03,14.44,23.74c-10.02-2.93-22.76-7.77-36.32-16.04
			c-9.43-5.75-17.13-11.86-23.22-17.4c-11.48-23.98-19.59-42.3-22.65-50.16c-2-5.13-3.62-9.88-3.62-9.88
			c-1.14-3.65-2.33-7.75-3.94-12.62c14.01,7.69,25.05,13.5,35.85,19.75C1353.78,1937,1361.37,1946.8,1366.26,1959.42z
			 M1324.97,1810.7c18.64,29.13,35.3,58.37,48.16,89.8c18.71,45.74,22.62,72.47,49.23,117.6c13.04,22.12,19.57,33.18,25.31,40.21
			c9.87,12.08,20.29,39.62,37.19,53.7c1.68,1.4,2.17,4.86,2.37,7.43c0.76,9.59,1.16,19.2,1.82,30.99c-3.99-3.66-6.56-6-9.11-8.37
			c-24.3-22.62-39.85-51.84-55.09-80.66c-20.83-39.39-38.43-80.55-58.26-120.5c-18.79-37.84-31.76-77.6-40.55-118.91
			C1325.25,1818.32,1325.3,1814.47,1324.97,1810.7z M1484,2050.59c-0.07,1.04-0.43,2.07-1.24,5.76
			c-22.87-8.12-44.74-15.54-54.6-40.84c-2.9-7.45-8.14-13.91-11.64-21.17c-3.83-7.95-6.88-16.3-10.27-24.47
			c1.03-0.87,2.05-1.74,3.08-2.62c18.13,12.67,35.79,26.15,54.54,37.78C1481.39,2015.9,1485.21,2031.77,1484,2050.59z
			 M1404.03,1954.8c-9.69-22.4-19.38-44.8-29.06-67.2c6.26,11.01,12.14,19.6,16.49,25.55c15.47,21.2,31.96,37.14,46.13,50.85
			c3.15,3.05,2.72,2.57,5.96,5.71c15.29,14.8,26.91,27.37,34.59,35.99C1453.43,1988.74,1428.73,1971.77,1404.03,1954.8z
			 M1483.2,2099.46c-10.53-15.49-19.53-28.75-29.57-43.52C1481.19,2061.58,1489.65,2068.85,1483.2,2099.46z M1477.25,1960.55
			c1.3,10.6,1.08,21.4,1.48,32.12c-1.21,0.43-2.42,0.87-3.64,1.3c-11.02-11.5-22.18-22.87-33.04-34.53
			c-14.58-15.65-29.97-30.68-43.12-47.52c-16.71-21.4-35.27-41.55-46.47-67.18c-6.67-15.28-15.41-29.6-23.04-44.45
			c-4.04-7.85-8.81-13.56-18.62-7.69c-16.9-28.82-34.42-55.69-47.4-85.58c-10.47-24.1-24.23-46.71-36.52-69.99
			c-4.05-7.67-10.79-13.89-13.27-22.95c2.41-0.35,3.67-0.96,4.36-0.56c2.26,1.34,4.74,2.69,6.39,4.68
			c18.15,21.8,37.14,42.97,53.91,65.84c15.19,20.71,26.8,44.16,41.91,64.94c48.93,67.3,96.94,135.35,150.35,199.13
			C1473.51,1951.66,1476.71,1956.15,1477.25,1960.55z M1475.94,1834.18c-0.14-10.01,9.77-474.11,13.45-473.95
			c2.54,0.1-5,221.57-2.66,462.25c0.49,50.46,1.88,148.64,10.08,221.42c1.6,14.2,6.44,54.45,11.38,111.07
			c3.69,42.3,3.69,41.86,5.05,60.99c1.6,22.45,8.68,58.38,25.75,130.11c12.7,53.33,23.73,92.68,32.67,124.44
			c14.52,51.57,21.78,77.36,26.34,87.65c9.15,20.65,14.99,42.67,22.32,64.06c1.75,5.11,5.54,10.64-0.54,16.94
			c-1.85-1.95-3.77-3.11-4.44-4.8c-7.17-18.03-15.05-35.84-20.97-54.3c-11.7-36.44-22.5-73.2-33.27-109.95
			c-7.84-26.74-15.19-53.63-22.46-80.53c-5.49-20.3-10.86-40.65-15.63-61.14c-5.26-22.61-11.3-45.19-14.24-68.15
			c-3.27-25.61-5.51-46.32-7.14-66.61c-1.49-18.57-2.01-30.68-2.52-39.89c-2.43-43.76-6.01-58.13-10.41-103.44
			c-5.04-51.77-2.52-55.17-10.14-167.43c-0.95-14.03-1.77-25.48-2.3-32.7c0,0,0-0.01,0-0.02
			C1476.26,1850.18,1476.06,1842.2,1475.94,1834.18z"/>
	</g>
</g>
</svg>
