<?xml version="1.0" encoding="utf-8"?>
<!-- Generator: Adobe Illustrator 24.0.1, SVG Export Plug-In . SVG Version: 6.00 Build 0)  -->
<svg version="1.1" id="Слой_1" xmlns="http://www.w3.org/2000/svg" xmlns:xlink="http://www.w3.org/1999/xlink" x="0px" y="0px"
	 viewBox="0 0 3000 3000" style="enable-background:new 0 0 3000 3000;" xml:space="preserve">
<style type="text/css">
	.st0{fill:none;}
	.st1{fill:#45482A;}
</style>
<rect class="st0" width="3000" height="3000"/>
<g>
	<path class="st1" d="M1390.8,676.88c1.09-9.87,1.73-19.81,3.36-29.59c10.15-61.17,16.33-122.51,16.89-184.73
		c0.35-39.15,0.39-78.98,11.55-117.42c9.45-32.58,20.42-64.41,40.27-92.44c14.28-20.16,26.66-41.98,42.99-60.28
		c21.28-23.85,45.42-45.19,68.76-67.15c12.68-11.93,26.08-23.1,39.49-34.21c8.19-6.79,16.54-13.64,25.7-18.95
		c10.01-5.8,14.12-4.17,17.88,6.64c3.49,10.03,4.87,20.78,7.94,30.98c2.41,8.01,4.85,16.4,9.27,23.36
		c15.37,24.22,20.18,51.16,21.51,78.95c1.37,28.62,2.09,57.29,2.35,85.94c0.1,11.19-1.68,22.41-2.9,33.59
		c-0.65,6.01-1.92,11.96-2.88,17.74c23.97,6.9,34.48,2.67,46.49-16.18c12.39-19.45,25.22-38.65,38.49-57.51
		c11.96-17,28.44-28.39,47.44-36.79c10.19-4.51,19.49-11.1,29.04-16.99c15.94-9.84,31.7-19.11,51.96-15.39
		c12.09,2.22,19.73,8.34,22.3,19.85c5.9,26.45,9.1,53.12,7.25,80.43c-1.93,28.51-2.35,57.13-3.61,90.33
		c9.97-10.06,17.32-17.36,24.53-24.8c5.4-5.58,11.66-9.11,19.58-7.68c8.09,1.47,15.43,4.77,17.57,13.66
		c2.49,10.34,6.05,20.88,5.99,31.31c-0.26,41.62-1.34,83.26-2.9,124.86c-1.35,35.94-4.39,71.82-5.51,107.76
		c-0.85,27.22-5.58,53.53-13.5,79.44c-6.08,19.91-12.01,39.87-17.76,59.89c-11.94,41.54-32.27,79.41-56.21,114.6
		c-17.26,25.37-40.96,46.35-61.67,69.4c-30.65,34.12-68.88,59.57-102.61,90.07c-28.32,25.61-53.71,54.5-79.91,82.4
		c-11.56,12.3-21.67,25.94-32.88,38.59c-31.42,35.46-57.91,74.62-85.71,112.82c-11.11,15.27-17.89,31.95-24,49.71
		c-7.09,20.6-17.38,40.21-27.46,59.63c-20.88,40.23-36.74,82.21-46.34,126.49c-9.89,45.63-20.3,91.18-28.83,137.07
		c-8.73,46.99-17.43,94.13-22.48,141.6c-4.34,40.75-5.04,82.06-4.58,123.09c0.57,50.07,3.14,100.13,2.81,150.25
		c-0.3,45.54-0.15,91.08-0.15,136.62c0,18.82,1.01,37.53,7.98,56.15c1.07-6.96,1.78-13.99,3.27-20.85
		c8.46-39,18.18-77.76,25.45-116.98c11.27-60.77,27.84-120.82,29.45-183.06c1.13-43.91,0.16-87.86,0.56-131.8
		c0.3-32.64,1.18-65.28,1.99-97.92c0.63-25.33,0.52-50.74,2.57-75.97c4.02-49.48,12.31-98.27,27.63-145.68
		c2.42-7.49,3.69-15.37,6.38-22.75c1.97-5.41,5.4-10.29,8.39-15.81c11.72,6.21,12.18,15.24,11.17,24.28
		c-1.69,15.11-4.86,30.08-6.08,45.22c-3.52,43.74-7.07,87.49-9.34,131.3c-3.03,58.48-5.14,117.02-7.05,175.55
		c-0.64,19.65,0.91,39.36,0.79,59.04c-0.4,63.06,0.66,126.19-10.47,188.71c-4.63,25.98-7.06,52.34-11.38,78.38
		c-2.67,16.08-7.19,31.84-10.58,47.81c-7.11,33.57-14.07,67.18-21,100.8c-5.22,25.37-11.5,50.6-15.08,76.2
		c-3.3,23.57-5.36,46.75,2.53,71.18c11.02,34.12,16.48,70.04,24.3,105.2c5.97,26.87,11.9,53.74,18.38,83.03
		c2.05-4.23,3.85-6.6,4.38-9.22c7.76-38.61,15.32-77.25,23.01-115.87c2.09-10.5,4.43-20.95,6.65-31.43
		c6.4-30.24,13.06-60.43,19.13-90.74c6.31-31.45,12.85-62.9,17.86-94.57c6.68-42.21,12.86-84.54,17.64-127
		c5.11-45.31,9.54-90.77,12.1-136.29c3.25-57.9,6.49-115.81,4.52-173.93c-2.86-84.42-7.54-168.98-5.22-253.31
		c1.82-66.04,7.71-132.42,28.09-196.57c14.43-45.41,36.62-87.08,56.58-129.85c14.05-30.09,29.49-59.58,45.32-88.79
		c24.23-44.73,54.17-85.68,85.89-125.32c8.17-10.21,15.25-12.97,19.32-8.48c6.89,7.59-0.15,13.94-3.45,19.7
		c-9.49,16.57-20.43,32.32-29.83,48.94c-9.42,16.65-18.46,33.61-26.28,51.06c-23.73,52.95-46.84,106.23-63.96,161.74
		c-20.73,67.23-40.93,134.66-47.5,205.26c-3.23,34.71-7.73,69.3-10.93,104.01c-1.02,11.09,0.18,22.4,0.5,33.61
		c1.23,42.79,3.87,85.59,3.44,128.36c-0.57,57.32-3.81,114.6-5.35,171.91c-1.98,73.85-10.03,147.01-21.8,219.92
		c-6.36,39.4-9.05,79.39-14.31,118.99c-3.33,25.09-8.21,49.98-12.69,74.91c-2.68,14.94-5.97,29.78-8.93,44.67
		c-6.79,34.19-13.35,68.42-20.35,102.56c-7.91,38.61-16.2,77.15-24.32,115.72c-0.81,3.85-1.32,7.79-2.45,11.54
		c-20.89,69.05-18.36,138.99-8.14,209.26c1.54,10.57,2.84,21.23,3.33,31.89c0.51,11.13-2.88,13.36-14.31,12.51
		c-10.03-0.74-16.57-5.01-20.49-14.66c-20.14-49.58-39-99.25-49.19-152.35c-9.85-51.3-24.33-101.76-38.12-152.23
		c-7.4-27.08-18.08-53.24-26.47-80.07c-9.06-28.97-16.36-58.51-25.98-87.27c-6.05-18.07-14.65-35.33-22.66-52.7
		c-34.65-75.18-70.02-150.03-96.76-228.59c-11.96-35.14-26.83-69.31-38.02-104.67c-11.37-35.89-19.28-72.86-29.72-109.07
		c-11.9-41.28-17.91-83.66-23.73-125.95c-7.52-54.66-12.92-109.64-18.42-164.56c-4.88-48.75-7.46-97.76-13.26-146.39
		c-4.8-40.21-11.4-80.33-19.71-119.96c-13.51-64.38-30.35-128.07-43.4-192.54c-11.59-57.27-27.53-113.86-30.75-172.64
		c-1.04-18.96-3.29-38,1.26-57.09c12.27-2.19,15.99,5.04,17.87,13.81c3.76,17.61,7.08,35.31,10.66,52.95
		c12.09,59.56,22.89,119.42,36.75,178.56c10.76,45.93,25.62,90.88,38.15,136.41c7.91,28.73,15.28,57.62,22.23,86.6
		c13.73,57.27,16.12,115.77,18.98,174.29c1.83,37.55,6.29,74.97,9.13,112.48c5.16,67.91,20.78,134.17,32.18,201.07
		c4.79,28.09,14.89,55.36,23.53,82.71c12.56,39.73,25.01,79.56,39.36,118.66c11.62,31.66,25.58,62.48,39.23,93.35
		c17.26,39.05,35.25,77.77,54.87,116.06c-3.32-11.61-6.36-23.31-10.01-34.81c-17.15-54.18-35.87-107.92-51.24-162.6
		c-11.4-40.55-19.09-82.19-27.43-123.54c-13.2-65.46-14.29-131.97-15.82-198.43c-1.54-67.01-0.84-134.16-8.53-200.86
		c-2.83-24.53-8.57-48.72-12.9-73.07c-6.7-37.68-13-75.44-20.1-113.05c-5.53-29.31-12.99-58.27-17.87-87.68
		c-9.12-54.98-19.44-109.85-20.62-165.87c-0.57-26.98-2.22-53.94-2.86-80.91c-0.22-9.27,1.14-18.58,1.74-27.23
		c11.16-2.82,13.25,3.75,14.38,9.72c2.5,13.23,4.42,26.59,6.07,39.96c7.72,62.52,15.48,125.03,22.8,187.59
		c4.67,39.84,16.67,78.05,24.77,117.12c7.22,34.78,18.08,68.42,28.01,102.42c7.38,25.28,11,51.74,15.26,77.84
		c9.89,60.68,10.71,121.95,12.63,183.27c1.65,52.78,7.9,105.42,12.02,158.13c1.05,13.47,1.66,26.98,2.59,40.46
		c2.55,36.89,15,71.48,24.99,106.64c1.98,6.97,4.22,13.87,8.71,20.93c0.19-4.41,0.57-8.83,0.56-13.24
		c-0.24-67.05-2.66-134.18-0.17-201.12c2.11-56.71,8.88-113.37,20.48-169.13c9.62-46.26,21.2-92.13,30.48-138.45
		c7-34.95,7.61-70.63,4.57-106.08c-2.55-29.72-6.36-59.39-11.18-88.83c-3.53-21.58-9.55-42.76-14.57-64.09
		c-0.64-2.72-2.37-5.2-2.88-7.93c-8.88-47.29-32.16-88.55-53.67-130.69c-9.96-19.5-16.34-40.79-25.68-60.64
		c-14.12-30-29.55-59.4-44.18-89.17c-9.93-20.2-20.72-40.11-28.88-61.03c-14.71-37.72-29.16-75.66-41.1-114.31
		c-14.79-47.87-25.91-96.92-30.7-146.86c-3.39-35.26-5.21-70.98-3.69-106.32c2.55-59.1,9.83-117.97,27.29-174.73
		c8.72-28.35,19.32-56.32,35.5-81.86c13.24-20.9,24.93-42.83,36.46-64.75c3.85-7.31,4.89-16.05,7.59-24.01
		c4.69-13.82,8.67-28.01,14.77-41.21c7.86-17.02,23.08-18.32,34-3.17c5.14,7.13,9.19,15.6,11.58,24.07
		c8.45,29.85,25.92,42.93,45.96,102.58c10.08,30.01,14.64,55.49,19.96,85.25c2.78,15.55,5.4,33.39,9.03,56.73
		c2.5,16.1,5.54,32.17,7.03,48.38c2.62,28.57,4.5,57.23,6.19,85.88c0.94,16.03,0.87,32.11,1.25,48.17
		C1389.12,676.78,1389.96,676.83,1390.8,676.88z M1270.31,228.82c-10.9,10.13-10.64,10.2-14.32,22.79
		c-5.97,20.48-9.28,41.86-20.68,60.54c-10.27,16.83-20.21,33.88-30.2,50.88c-4.22,7.19-8.76,14.28-12.16,21.86
		c-3.88,8.68-5.76,18.31-10.08,26.72c-13.87,26.99-20.29,56.4-24.64,85.67c-8.34,56.11-18.08,112.23-13.12,169.61
		c3.39,39.19,4.88,78.34,13.45,117.11c11.81,53.41,25.32,106.13,46,156.85c9.56,23.43,18.21,47.27,28.85,70.2
		c11.8,25.45,26.03,49.76,38.05,75.11c25.03,52.78,48.92,106.11,74.06,158.83c12.21,25.61,18.69,52.93,27.5,79.6
		c16.41,49.66,21.48,101.25,27.66,152.53c2.99,24.85-0.09,50.47-0.98,75.73c-0.3,8.35-1.94,16.73-3.7,24.94
		c-7.65,35.65-17.64,70.94-22.91,106.93c-7.81,53.34-20.25,106.04-22.74,160.19c-2.24,48.87-7.66,97.68-8.01,146.54
		c-0.48,65.27,0.77,130.66,10.02,195.54c4.28,30.06,7.99,60.2,12.43,90.23c3.54,23.92,7.79,47.74,11.75,71.6
		c5.89,35.46,11.74,70.92,17.74,106.35c1.13,6.65,4.02,13.17,4.17,19.8c0.85,38.05,11.56,74.46,18.02,111.56
		c2.39,13.73,4.26,28.14,10.04,40.53c7.53,16.13,18.61,30.63,28.42,45.65c1.46,2.23,4.35,3.53,8.48,6.74
		c-1.11-9.4-1.39-16.16-2.78-22.69c-6.92-32.46-13.58-65-21.39-97.26c-9.92-41.01-20.63-81.82-31.39-122.62
		c-15.14-57.4-25.11-115.56-26.49-175c-1.29-55.77-2.34-111.54-3.16-167.31c-0.3-20.82,0.52-41.66,0.57-62.48
		c0.15-62.51-7.93-124.98-1.84-187.48c3.92-40.33,8.14-80.72,14.75-120.66c8.82-53.28,19.81-106.2,30.38-159.17
		c9.71-48.65,20.5-97.03,41.49-142.45c15.59-33.73,30.55-67.76,46.36-101.39c5.49-11.67,11.95-23.04,19.2-33.71
		c39.91-58.74,83.12-115.09,130.35-168.03c30.3-33.97,61.96-66.99,98.57-94.75c48.27-36.6,90.5-79.43,127.77-127.13
		c6.57-8.41,12.43-17.38,18.42-26.23c21.03-31.08,35.04-65.56,46.8-100.84c9.43-28.28,20.07-56.84,24.04-86.11
		c6.65-49.01,9.28-98.63,11.94-148.08c1.93-35.97,1.68-72.1,1.39-108.15c-0.11-13.33-2.6-26.73-5.08-39.9
		c-0.8-4.23-4.22-9.73-7.86-11.26c-6.12-2.58-11.63,1.15-15.99,6.41c-19.75,23.82-39.44,47.7-59.68,71.1
		c-21.38,24.72-25.99,50.93-26.95,53.05c-39.85,87.87-33.97,94.88-57.3,134.99c-12.79,21.98-22.75,45.09-56.15,79.86
		c-15.88,16.53-30.19,34.67-39.34,56.48c-5.15,12.28-13.26,23.34-20.26,34.82c-4.04,6.63-9.48,12.57-12.64,19.56
		c-14.42,31.84-30.03,62.96-49.96,91.81c-4.75,6.88-8.62,14.42-12.35,21.93c-5.89,11.84-10.23,24.6-17.16,35.76
		c-24.04,38.76-47.56,77.87-76.13,113.68c-6.47,8.1-10.52,18.43-14.4,28.24c-5.67,14.29-9.37,25.33-11.02,31.05
		c-20.99,72.85-43.23,151.93-43.23,151.93c-1.63-4.19-1.62-8.06-0.93-11.81c6.35-34.31,11.18-69.02,19.75-102.77
		c8-31.53,18.61-62.61,30.81-92.78c6.62-16.37,19.04-30.38,28.72-45.53c25.78-40.34,51.93-80.46,77.07-121.19
		c16.54-26.79,31.92-54.32,47.18-81.88c12.81-23.13,24.01-47.16,37.19-70.07c9.46-16.44,15.48-33.56,18.29-52.18
		c1.76-11.67,5.06-23.11,6.95-34.77c3.69-22.74,8.24-45.46,9.91-68.38c1.88-25.79,0.86-51.79,1.29-77.69
		c0.92-54.69,4.21-109.17,14.78-162.99c2.09-10.65-0.5-18.91-12.37-23.77c-4.89,1.53-12.37,3.51-21.66,4.43
		c-12.3,1.22-20.4-1.11-25.17-0.35c-18.21,2.9-34.28,12.67-48.06,26.85c-21.55,22.18-42.66,44.9-62.44,68.65
		c-21.6,25.94-41.6,53.23-62,80.16c-6.1,8.05-11.94,16.48-16.6,25.42c-23.19,44.5-44.13,89.95-54.06,139.58
		c-5.07,25.35-11.06,50.67-13.86,76.3c-3.91,35.8-4.68,71.93-7.78,107.83c-3.71,42.86-1.77,85.5,1.78,128.25
		c1.48,17.77-0.36,35.81-0.59,53.74c-0.06,4.46,0.15,8.93,0.38,13.39c1.08,20.66,6.67,41.13,2.52,62.02
		c-0.42,2.12,0.42,4.46,0.44,6.7c0.21,24.74,0.22,49.49,0.63,74.22c0.11,6.61,1.12,13.26,2.24,19.8c0.99,5.8-1.05,8.23-7.75,8.4
		c-0.58-3.54-1.55-6.67-1.55-9.79c0-76.18-5.25-151.94-19.25-226.9c-7.75-41.5-15.25-83.13-25.3-124.1
		c-7.35-29.94-10.3-59.85-9.5-90.37c0.41-15.76,2-31.51,1.96-47.26c-0.08-34.9-0.09-69.83-1.52-104.69
		c-1.77-43.29-3.73-86.63-7.93-129.73c-2.78-28.48-10.49-56.45-14.46-84.86c-4.7-33.7-14.48-65.64-27.62-96.91
		c-12.6-29.99-29.59-58.14-37.19-90.33C1285.11,243.27,1281.54,233.42,1270.31,228.82z M1412.96,969.87
		c1.62-2.46,2.59-3.26,2.62-4.09c1.31-36.6,3.62-73.21,3.52-109.81c-0.14-51.53,9.17-101.7,18.24-152.03
		c4.18-23.2,7.95-46.59,9.9-70.07c4.7-56.39,13.65-111.82,33.23-165.12c4.25-11.57,9.82-22.7,15.35-33.75
		c2.54-5.08,6.61-9.97,13.38-7.34c6.41,2.49,6.6,8.56,6.04,14.35c-0.33,3.34-0.81,6.82-2.09,9.88
		c-5.62,13.46-11.22,26.95-17.43,40.14c-16.37,34.75-32.53,69.5-29.22,109.45c0.23,2.77,1.22,5.48,2.73,11.98
		c4.23-9.24,6.96-14.73,9.29-20.39c10.34-25.17,23.22-48.7,40.93-69.64c12.72-15.04,25.5-30.32,35.85-46.98
		c13.48-21.7,14.66-46.06,4.36-69.27c-9.6-21.63-7.97-43.94-8.25-66.27c-0.08-6.1,6.37-9.35,10.78-5.32
		c5.56,5.08,11.68,11.63,13.3,18.54c4.47,19.06,9.47,38.25,6.69,58.39c-1.09,7.87,0.17,16.07,0.44,27.3
		c5.65-5.55,8.79-8.51,11.8-11.59c24.29-24.84,44.29-54.35,77.06-70.01c3.45-1.65,6.61-6.5,7.49-10.42
		c2.84-12.59,6.29-25.42,6.37-38.18c0.23-35.48-0.42-71.01-2.11-106.45c-1-20.92-6.9-40.87-17.3-59.55
		c-5.39-9.67-8.42-20.69-12.13-31.24c-2.94-8.36-5.3-16.94-8.7-27.97c-7.35,5.01-13.47,8.6-18.9,13.03
		c-6.09,4.97-11.25,11.08-17.36,16.02c-39.46,31.94-77.7,65.03-107.61,106.64c-20.76,28.89-39.03,59.23-53.99,91.46
		c-18.64,40.15-21.46,83.55-24,126.76c-1.78,30.33-0.71,60.85-3.07,91.12c-2.62,33.61-7.57,67.04-11.74,100.51
		c-2.43,19.53-4.75,39.11-8.18,58.48c-3.52,19.9-9.34,39.43-12.29,59.4c-2.62,17.7-2.69,35.77-3.85,53.68
		c-0.07,1.11,0.17,2.25,0.35,3.36c5.21,31.6,4.15,63.98,12.52,95.25C1403.03,922.71,1407.49,945.73,1412.96,969.87z
		 M1777.91,1102.22c-0.82-0.56-1.63-1.11-2.45-1.67c-9.31,11.53-19.26,22.63-27.78,34.72c-10.03,14.23-19.33,29.03-28.04,44.11
		c-13.79,23.85-27.64,47.73-39.96,72.35c-13.84,27.65-25.72,56.28-38.98,84.23c-9.36,19.74-20.29,38.72-26.35,59.96
		c-4.92,17.27-10.64,34.32-15.84,51.52c-2.27,7.5-5.06,15.02-5.98,22.73c-6.6,55.25-15.39,110.26-13.24,166.31
		c1.85,48.29-0.03,96.77,2.98,144.97c4.14,66.34,5.89,132.59,2.67,198.95c-1.23,25.27-3.15,50.5-5.03,75.73
		c-1.58,21.22-3.65,42.4-5.32,63.61c-1.33,16.84-1.59,33.8-3.73,50.53c-4.99,39.02-10.02,78.07-16.51,116.86
		c-8.52,50.9-18.22,101.61-27.86,152.31c-5.77,30.35-12.57,60.5-18.61,90.81c-6.37,31.97-13.1,63.89-18.32,96.06
		c-4.13,25.39-6.02,51.14-9.42,76.66c-0.5,3.77-3.79,7.16-5.79,10.73c-2.7-2.41-6.13-4.35-8-7.29
		c-13.91-21.88-31.7-40.38-52.28-62.15c5.37,24.54,9.8,45.08,14.38,65.58c5.53,24.71,11.23,49.37,16.78,74.07
		c9.17,40.82,24.01,79.71,40.12,118.17c2.49,5.95,6.03,10.79,16.17,9.13c-1.19-12.69-1.75-25.45-3.69-37.99
		c-8.35-53.86-8.66-107.68,0.81-161.36c3.22-18.22,8.85-36.01,12.66-54.15c6.82-32.48,12.83-65.14,19.67-97.62
		c6.14-29.17,13.35-58.11,19.33-87.31c3.83-18.7,5.7-37.81,9.47-56.53c8.11-40.29,15.5-80.61,18.91-121.67
		c2.66-31.95,6.53-63.84,11.05-95.58c5.07-35.58,13.8-70.77,16.78-106.48c4.96-59.45,6.94-119.16,9.54-178.8
		c1.62-37.12,2.88-74.29,2.77-111.43c-0.1-32.59-2.38-65.17-3.61-97.76c-0.49-12.93-1.71-25.92-0.96-38.78
		c1.92-33.11,4.65-66.18,7.23-99.25c4.91-63.14,18.95-124.54,37.33-184.88c11.3-37.1,25.6-73.27,38.01-110.04
		c14.83-43.93,34.99-85.39,56.98-126.05C1761.66,1131.01,1769.87,1116.65,1777.91,1102.22z M1733.68,724.86
		c1.05,0.28,2.11,0.56,3.16,0.84c1.76-4.51,4.2-8.88,5.16-13.55c4.42-21.42,8.27-42.96,12.63-64.39
		c6.28-30.86,12.49-61.75,19.46-92.46c2.38-10.51,5.47-21.3,14.25-29.39c3.71,3.08,6.04,6.31,7.4,9.67
		c3.66,9.1,0.76,18.22-0.42,21.81c-11.97,36.36-21.86,73.37-33.46,109.85c-2.88,9.04-6.9,22.56-10.82,39.41
		c29.6-28.91,52.76-61.28,67.5-98.77c12.55-31.93,23.57-64.48,34.61-96.98c9.61-28.31,25.14-52.81,46-73.88
		c9.69-9.79,15.66-19.61,17.42-34.4c5.36-44.84,7.64-89.7,6.77-134.75c-0.19-10.01-1.84-20.24-4.51-29.9
		c-5.09-18.48-12.63-22.31-31.23-17.66c-2.72,0.68-5.53,1.44-7.98,2.76c-23.72,12.78-47.42,25.61-70.98,38.67
		c-3.35,1.86-6,5.04-8.87,7.71c-20.89,19.37-35.63,43.42-50.96,67.02c-4.03,6.2-3.97,11.35,2.98,15.61
		c13.53,8.28,15.56,20.45,12.77,35.17c-3.24,17.12-6.26,34.45-7.22,51.81c-2.77,50.54-4.52,101.14-6.54,151.73
		c-0.63,15.72,0.64,31.67-1.58,47.14c-3.5,24.41-9.28,48.5-13.94,72.75C1734.4,715.34,1734.2,720.13,1733.68,724.86z
		 M1406.88,2623.14c0.93-0.15,1.85-0.29,2.78-0.44c-0.23-2.14-0.33-4.31-0.71-6.43c-7-39.86-13.8-79.76-21.18-119.55
		c-3.58-19.29-6.78-38.87-12.86-57.43c-6.81-20.77-16.25-40.74-25.32-60.71c-21.87-48.19-44.88-95.88-66.11-144.34
		c-20.98-47.91-41.14-96.17-56.22-146.45c-11.31-37.73-25.96-74.48-36.75-112.34c-8.3-29.13-12.74-59.36-19.22-89.02
		c-12.64-57.83-21.2-116.32-26.43-175.21c-4.63-52.14-7.1-104.47-11.01-156.68c-1.76-23.58-3.75-47.23-7.31-70.59
		c-7.32-47.96-21.3-94.33-34.46-140.95c-14.35-50.84-26.76-102.27-38.58-153.78c-9.69-42.24-16.92-85.03-25.91-127.43
		c-4.28-20.18-10.11-40.02-15.24-60.02c-2.04,4.09-2.29,7.96-1.8,11.73c3.26,25.11,6.05,50.31,10.23,75.27
		c3.96,23.64,4.85,47.57,11.77,71.01c10.49,35.54,17.84,72.01,26.17,108.17c9.98,43.33,20,86.65,29.19,130.15
		c4.53,21.45,7.39,43.27,10.7,64.97c4.32,28.35,9.43,56.65,12.19,85.16c3.8,39.23,5.04,78.71,8.65,117.97
		c4.01,43.71,9.27,87.31,14.34,130.92c2.98,25.71,6.44,51.37,10.06,76.99c2.44,17.25,4.13,34.78,8.61,51.52
		c10.03,37.45,21.14,74.64,32.66,111.67c11.02,35.44,22.32,70.83,34.98,105.7c12.09,33.3,25.43,66.19,39.42,98.75
		c18.65,43.4,37.4,86.81,58.07,129.25c21.03,43.18,39.24,87.44,50.98,133.79c9.7,38.29,23.5,75.07,35.38,112.55
		C1404.61,2619.4,1405.9,2621.22,1406.88,2623.14z M1168.88,1110.39c0.73,30.54-0.74,58.34,2.5,85.59
		c5.97,50.23,13.91,100.27,22.52,150.13c8.7,50.42,19.26,100.53,28.88,150.8c2.1,10.99,3.5,22.1,5.49,33.11
		c6.39,35.45,15.58,70.65,18.72,106.38c4.23,48.17,4.58,96.73,5.27,145.14c0.98,69.22,1.48,138.38,11.13,207.16
		c7.37,52.53,18.76,104.21,33.41,155.01c16.68,57.86,35.93,114.97,54.18,172.38c2.9,9.13,6.39,18.08,9.61,27.12
		c1.49-9.58,0.67-18.49-0.7-27.31c-4.57-29.47-9.57-58.87-13.92-88.37c-2.29-15.56-1.73-31.76-5.74-46.8
		c-6.35-23.82-15.91-46.75-23.24-70.34c-7.17-23.06-14.62-46.18-19.43-69.79c-5.03-24.7-7.57-49.95-10.28-75.05
		c-3.56-33-7.3-66.05-9.03-99.18c-2.88-55.12-3.04-110.39-6.63-165.45c-2.52-38.68-7.91-77.25-13.81-115.59
		c-3.58-23.26-10.56-45.99-16.06-68.95c-6.16-25.72-12.64-51.36-18.49-77.15c-9.34-41.16-20.32-82.09-26.9-123.7
		C1185.74,1248.39,1178.15,1180.78,1168.88,1110.39z M1500.78,1501.32c-0.65-0.12-1.31-0.23-1.96-0.35
		c-5.46,22.34-11.43,44.57-16.28,67.04c-11.94,55.31-12.88,111.76-14.94,167.91c-1.85,50.57-0.04,101.28-0.04,151.93
		c0,11.19-0.88,22.38-1.29,33.57c-0.82,22.97,0.24,46.18-2.83,68.84c-4.15,30.56-11.31,60.72-17.47,90.99
		c-8.64,42.44-17.08,84.92-26.5,127.19c-6.51,29.2-11.41,58.44-11.99,88.43c-0.38,19.61-2.12,39.2-2.93,58.81
		c-0.35,8.63,2.09,16.66,7.03,24.13c3.24-6.57,5.22-12.94,6.49-19.44c6.28-32.02,11.95-64.17,18.65-96.1
		c6.35-30.28,13.98-60.28,20.58-90.51c19.04-87.25,26-175.73,26.08-264.86c0.02-26.99-1.46-54.02-0.42-80.96
		c1.98-51.14,6.49-102.2,7.7-153.35c1.3-55.18,1.63-110.32,10.26-165.02C1501.34,1506.89,1500.85,1504.07,1500.78,1501.32z"/>
	<path class="st1" d="M1227.1,393.29c-3.02,17.88-5.88,35.78-9.09,53.63c-8.14,45.38-15.91,90.84-24.86,136.06
		c-5.39,27.21-9.94,54.58-6.93,82.08c3.96,36.26,8.71,72.44,14.62,108.54c8.9,54.34,27.51,105.52,43.37,157.63
		c7.03,23.09,16.45,45.5,25.74,67.81c4.29,10.29,11.32,19.41,16.38,29.42c19.8,39.19,39.48,78.44,58.8,117.87
		c5.25,10.72,10.46,21.74,7.93,35.25c-8.62-16.66-17.27-33.31-25.84-49.99c-18.52-36.02-37.19-71.97-55.39-108.16
		c-5.54-11.01-9.99-22.6-14.53-34.09c-22.31-56.56-45.23-113.13-57.45-172.8c-11.5-56.14-22.3-112.73-22.82-170.38
		c-0.16-17.24,3.61-34.54,5.9-51.77c3.4-25.58,7.85-51.05,10.49-76.71c3.99-38.75,14.12-76.19,22.75-113.96
		c0.99-4.35,3.48-8.35,5.27-12.51C1223.32,391.91,1225.21,392.6,1227.1,393.29z"/>
	<path class="st1" d="M1943.34,563.95c2.48,21.37-1.78,42.37-4.74,63.39c-2.66,18.91-5.86,37.75-9.49,56.5
		c-3.64,18.74-6.95,37.66-12.46,55.88c-10.74,35.51-22.05,70.9-34.93,105.68c-5.4,14.57-14.34,28.19-23.49,40.93
		c-21.11,29.39-46.64,54.66-74.14,78.29c-27.31,23.46-52.82,49.02-79.12,73.67c-4.92,4.61-10.08,9.01-14.67,13.94
		c-12.67,13.58-25.08,27.4-37.64,41.08c-4.67,5.08-9.47,10.04-14.21,15.06c-1.26-0.88-2.52-1.76-3.78-2.64
		c2.38-4.6,4.23-9.6,7.27-13.72c5.33-7.23,10.93-14.38,17.22-20.77c44.67-45.36,91.39-88.51,139.42-130.31
		c24.74-21.53,47.06-45.49,62.41-74.91c8.06-15.44,16.55-30.94,22.14-47.33c15.82-46.34,30.74-92.98,36.13-142.1
		c3.24-29.57,7.75-59.02,12.35-88.42c1.34-8.56,4.95-16.76,7.52-25.13C1940.52,563.33,1941.93,563.64,1943.34,563.95z"/>
	<path class="st1" d="M1567.3,945.31c-4.38-12.86,1.64-20.35,5.34-27.9c11.16-22.73,23.21-45.03,34.45-67.72
		c20.23-40.82,39.65-82.05,60.31-122.65c13.88-27.27,19.48-56.12,20.78-86.24c2.45-56.76,4.34-113.56,7.89-170.26
		c1.22-19.49,6.4-38.77,10.38-58.02c0.91-4.4,4.32-8.28,9.71-11.4c0.06,2.42,0.88,5.14,0.06,7.2
		c-13.22,33.29-11.97,68.46-13.41,103.24c-1.63,39.32-2.29,78.69-4.25,117.99c-0.95,19.05-3.35,38.08-6.2,56.96
		c-1.32,8.76-4.35,17.55-8.16,25.59c-14.67,31.01-29.89,61.77-45.06,92.54c-21.88,44.39-43.88,88.72-65.9,133.04
		C1572.32,939.55,1570.65,941.06,1567.3,945.31z"/>
	<path class="st1" d="M1560.67,548.04c-1.65,5.32-2.43,8.89-3.83,12.19c-20.5,48.1-42.82,95.51-61.1,144.43
		c-14.39,38.51-19.59,79.55-21.84,120.81c-1.19,21.84-4.37,43.57-6.85,65.33c-0.35,3.03-1.89,5.93-5.39,8.74
		c-0.38-2.8-1.26-5.64-1.08-8.4c2.06-30.25,4.26-60.5,6.47-90.74c2.63-36.17,11.02-71.3,23.81-104.89
		c16.78-44.09,36.31-87.14,54.71-130.61C1548.3,558.43,1550.56,551.42,1560.67,548.04z"/>
	<path class="st1" d="M1420.47,1336.39c18.08,43.74,10.29,88.64,5.82,135.03c-9.32-4.91-6.41-12.36-6.27-18.01
		c0.34-13.49,1.32-27.02,2.98-40.42c2.33-18.8-0.59-36.99-4.4-55.25c-1.45-6.94-1.82-14.1-2.68-21.16
		C1417.43,1336.52,1418.95,1336.46,1420.47,1336.39z"/>
	<path class="st1" d="M1621.31,142.79c-1.54,3.19-2.47,6.91-4.71,9.5c-15.04,17.38-29.5,35.38-45.78,51.55
		c-35.89,35.66-62.33,76.26-73.42,126.32c-2.56,11.58-4.44,24.12-14.22,35.63c-0.98-3.76-2.21-5.74-1.8-7.3
		c5.31-20.07,10.12-40.32,16.5-60.06c12.19-37.73,35.52-68.39,62.92-96.44c17.23-17.64,33.61-36.11,50.13-54.43
		c2.17-2.41,2.85-6.17,4.23-9.3C1617.2,139.77,1619.26,141.28,1621.31,142.79z"/>
	<path class="st1" d="M1778.71,401.79c19.13-62.56,47.21-116.32,97.6-155.91c1.15,0.68,2.29,1.35,3.44,2.03
		c-2.51,3.91-4.61,8.16-7.59,11.66c-9.12,10.7-18.4,21.28-27.94,31.61c-25.82,27.97-39.3,62.68-53.33,97.09
		C1788.86,393.22,1789.52,399.82,1778.71,401.79z"/>
	<path class="st1" d="M1891.69,367.31c-0.87,4.55-0.99,9.41-2.76,13.58c-5.91,13.97-12.56,27.62-18.62,41.52
		c-8.28,19-16.24,38.14-24.44,57.18c-1.6,3.72-3.69,7.22-5.56,10.83c-1.11-0.34-2.21-0.68-3.32-1.01c0.35-4.09-0.17-8.49,1.19-12.2
		c5.96-16.35,11.13-33.19,19.11-48.54c9.84-18.93,21.48-36.89,27.6-57.6c0.54-1.81,2.53-3.19,3.85-4.77
		C1889.73,366.64,1890.71,366.98,1891.69,367.31z"/>
</g>
</svg>
