<?xml version="1.0" encoding="utf-8"?>
<!-- Generator: Adobe Illustrator 24.0.1, SVG Export Plug-In . SVG Version: 6.00 Build 0)  -->
<svg version="1.1" id="Слой_1" xmlns="http://www.w3.org/2000/svg" xmlns:xlink="http://www.w3.org/1999/xlink" x="0px" y="0px"
	 viewBox="0 0 3000 3000" style="enable-background:new 0 0 3000 3000;" xml:space="preserve">
<style type="text/css">
	.st0{fill:none;}
	.st1{fill:#45482A;}
</style>
<rect class="st0" width="3000" height="3000"/>
<g>
	<g>
		<path class="st1" d="M1999.71,1276.76c-0.69-2.5-2.71-4.88-5.27-6.1c-1.16-0.55-2.53-0.85-4.19-0.79
			c-11.13,0.4-22.49-0.64-33.37,1.19c-25.12,4.21-49.99,9.9-75,14.76c-15.61,3.04-30.21,8.36-43.4,17.39
			c-10.38,7.11-21.15,13.68-31.17,21.26c-12.78,9.67-26.88,18.26-36.19,31.56c-11.27,16.12-27.39,26.79-41.42,39.8
			c-1.52,1.41-3.74,2.05-7.61,4.08c1.78-3.35,2.33-4.59,3.06-5.72c9.49-14.66,18.6-29.43,24.99-45.88
			c6.82-17.55,15.02-34.57,22.26-51.96c5.09-12.23,9.89-24.6,14.3-37.08c4.18-11.84,6.96-24.21,11.64-35.83
			c8.23-20.38,17.24-40.46,26.31-60.48c6.61-14.6,13.82-28.92,20.79-43.35c10.16-21.05,20.27-42.12,30.52-63.12
			c5.66-11.59,0.56-21.48-6.7-29.48c-3.54-3.9-7.5-3.87-11.08-0.64c-9.57,8.63-19.44,17.04-28.18,26.47
			c-14.48,15.6-28.08,32.02-42.2,47.95c-28.08,31.66-54.85,64.32-76.38,100.91c-4.38,7.45-8.07,15.48-10.92,23.65
			c-14.11,40.4-22.34,82.17-28.43,124.43c-0.65,4.48-1.48,8.97-2.73,13.31c-4.49,15.5-6.48,21.51-11,35.96
			c-7.14,22.85-6.58,29.25-14.81,50.31c-0.42,1.07-5.55,14.15-6.6,13.81c-1.34-0.44,7.93-21.56,9.74-50.13
			c0.44-6.88-0.16-3.31-2.28-46.93c-0.61-12.54-1.07-25.09-1.92-37.61c-0.73-10.77-1.71-21.54-2.96-32.26
			c-2.07-17.67-4.11-35.35-6.81-52.93c-2.86-18.6-6.7-37.04-9.7-55.62c-2.75-17.04-4.61-30.8-6.23-45.47
			c-1.94-17.55-2.91-26.32-2.65-31.13c0.88-16.38,9.16-30.51,25.68-58.1c16.01-26.74,30.95-46.44,41.03-59.2
			c6.69-8.47,14.91-15.84,20.9-24.75c16.6-24.71,29.11-51.72,41.25-78.78c8.62-19.22,18.05-37.75,31.1-54.34
			c11.44-14.55,23.06-28.97,34.1-43.82c12.94-17.41,29.16-31.03,47.81-41.58c11.79-6.67,8.32-4.37,62.78-33.52
			c0,0,17.53-9.38,52.81-39.9c3.6-3.11,11.2-9.84,9.61-15.63c-1.23-4.5-7.47-6.46-11.26-7.61c-12.01-3.63-22.65-0.35-30.21,0.61
			c-16.42,2.09-32.15,7.51-46.04,16.41c-12.6,8.08-23.95,18.1-35.97,27.09c-10.04,7.51-19.81,15.26-31.5,20.47
			c-13.36,5.95-26.93,12.03-38.97,20.18c-22.22,15.03-43.74,31.07-63.94,48.96c-18,15.94-33.46,33.58-45.71,54.1
			c-3.2,5.36-6.14,11.13-7.77,17.11c-4.86,17.79-11.96,34.81-15.15,53.25c-2.65,15.3-8.43,30.31-14.59,44.69
			c-15.23,35.57-23.11,73.16-32.16,110.47c-0.6,2.46-1.41,4.88-2.65,9.1c-0.77-2.96-1.2-3.92-1.25-4.9
			c-1.21-24.39-2.41-48.79-3.52-73.19c-0.34-7.48-0.18-8.31-0.32-20.92c-0.19-17.17-0.29-25.76-0.04-30.29
			c0.6-11.08,3.37-21.07,8.86-40.59c5.22-18.54,8.34-29.6,14.11-44.42c7-17.97,9.61-20.2,24.69-52.81
			c9.94-21.48,14.84-32.25,17.11-39.04c7.34-21.92,8.42-44.43,9.85-66.9c0.87-13.78-1.57-27.76-2.41-41.66
			c-0.15-2.53-0.28-9.39-0.3-15.63c-0.11-30.96,4.29-41.9,5.09-68.79c0.49-16.55,1.25-42.11-5.88-43.97
			c-6.2-1.61-15.56,15.35-18.43,20.56c-11.67,21.15-13.36,39.84-16.07,59.94c-2.59,19.21-3.55,38.5-10.5,59.67
			c-14.69,44.74-23.69,51.26-30.12,91.57c-4.08,25.58-2.57,45.45-3.64,45.45c-1.49-0.01-2.51-38.31-2.89-52.73
			c-0.52-19.63-0.11-27.58-0.67-40.88c-1.09-26.16-3.12-52.29-3.72-78.46c-0.61-26.65,5.13-52.73,9.65-78.82
			c2.25-12.98,6.16-25.75,10.26-38.31c5.41-16.58,12.02-32.76,17.6-49.28c8.69-25.75,16.73-51.73,25.46-77.47
			c9.53-28.09,19.57-56.13,24.66-85.37c7.96-45.68,4.17-46.69,10.8-104.06c2.01-17.36-2.52-27.52-3.8-42.03
			c-0.21-2.34-0.69-7.79-4.26-9.7c-3.52-1.89-8.19,0.73-9.81,1.45c-4.88,2.18-8.72,6.65-11.56,13.37
			c-9.65,22.8-17.55,46.28-29.05,68.4c-12.71,24.44-25.22,49-35.54,74.72c-11.04,27.54-23.17,54.49-28.54,83.95
			c-7.38,40.5-9.84,72.03-10.4,95.67c-0.13,5.45-0.71,34.01,2.64,65.62c1.31,12.36,2.78,20.95,3.15,23.11
			c3.19,18.4,6.63,24.27,7.8,34.82c1.91,17.25-0.77,18.66-0.9,48.62c-0.07,15.82,0.62,29.3,1.83,52.99
			c0.49,9.66,0.69,14.49,1.21,20.88c1.22,14.95,3.08,29.86,3.87,44.84c1.55,29.22,0.15,39.84,0.93,55.88
			c0.24,5.01,0.91,10.87,2.2,22.6c2.72,24.75,4.73,37.02,3.77,37.21c-0.77,0.15-2.42-7.71-8.55-24.01
			c-0.79-2.09-2.12-5.81-3.94-9.99c-3.31-7.57-6.44-12.86-11.36-23.32c-1.6-3.4-11.33-24.27-18.01-48.62
			c-5.95-21.67-1.85-18.26-9.41-51.64c-4.86-21.45-10.55-38.26-13.7-49.35c-1.33-4.68-3.5-9.13-4.79-13.81
			c-5.58-20.24-13.03-39.74-21.69-58.86c-6.33-13.97-12.95-28.04-17.04-42.73c-5.79-20.8-9.71-42.14-13.77-63.38
			c-3.02-15.79-5.16-31.78-11.79-46.57c-4.28-9.54-8.64-19.58-19.22-23.89c-16.48-6.7-24.67-4.14-24.95,15.48
			c-0.24,17.11,0.48,34.23,4.74,50.98c0.86,3.37,1.1,6.89,1.82,10.3c1.87,8.84,3.34,17.81,5.9,26.45
			c5.18,17.48,9.8,35.02,9.04,53.44c-0.27,6.54,0.28,9.7,0.37,13.57c0.51,20.53,6.37,43.8,25.91,83.58
			c14.78,30.08,14.83,24.77,35.79,63.87c10.54,19.66,20.95,39.47,29.84,59.9c8.72,20.03,19.53,38.86,32.21,56.26
			c22.7,31.16,31.99,66.25,35.12,103.72c1.05,12.52,2.27,25.02,3.13,37.55c1.07,15.53,1.85,31.08,2.75,46.62
			c-7.29-8.64-11.89-18.31-18-26.91c-13.33-18.73-27.42-36.93-41.23-55.32c-4.19-5.58-8.49-11.07-12.71-16.63
			c-12.75-16.83-21.43-35.97-30.91-54.64c-7.58-14.93-14.96-29.97-22.16-45.08c-5.09-10.68-9.72-21.58-14.64-32.35
			c-1.74-3.81-3.96-7.41-5.51-11.29c-17.13-42.9-46.32-75.92-83.67-102.19c-17.93-12.61-35.78-25.38-54.33-37.03
			c-12.02-7.55-25.06-13.56-37.98-19.55c-8.23-3.81-16.92-1.06-21.19,5.32c-3.3,4.94-1.91,11.76,3.69,19.13
			c3.59,4.72,7.1,9.51,10.41,14.43c13.91,20.72,30.83,38.6,49.58,55.04c12.02,10.54,22.93,22.39,33.91,34.06
			c10.35,11,17.63,24.1,24.72,37.4c15.11,28.35,30.98,56.29,46.36,84.5c7.69,14.1,15.12,28.39,26.11,40.27
			c26.33,28.45,51.8,57.75,80.96,83.45c7.07,6.23,14.76,11.92,21.02,18.89c27.11,30.19,43.73,65.87,53.3,105.05
			c4.8,19.66,10.26,39.2,14.1,59.05c3.9,20.19,7.43,40.61,8.9,61.09c3.94,54.54,2.01,65.78,7.55,135.98
			c1.14,14.47,3.38,40.25,2.86,40.3c-0.46,0.05-0.77-20.5-7.82-46.07c-3.76-13.65-11.78-37.58-30.05-61.82
			c-6.01-7.97-13.23-15.34-21.04-21.55c-12.65-10.05-24.47-20.75-33.33-34.28c-3.95-6.04-7.1-12.7-9.92-19.37
			c-7.98-18.9-15.52-37.98-23.39-56.93c-3.33-8.03-7.42-15.75-10.55-23.85c-6.03-15.62-11.62-31.42-17.41-47.14
			c-0.6-1.64-0.87-3.79-2.06-4.73c-1.96-1.55-4.61-3.2-6.87-3.07c-1.51,0.09-3.67,3-4.11,4.97c-1.8,8.16-3.38,16.4-4.44,24.69
			c-4.18,32.61-0.71,64.87,5.57,96.84c3.87,19.72,13.23,37.53,22.38,55.2c6.9,13.32,13.67,27.08,22.93,38.71
			c4.06,5.09,8.25,10.09,12.52,15.01c19.55,22.55,35.54,39.51,37.41,41.47c23.24,24.5,35.55,35.6,34.76,36.51
			c-1.31,1.49-32.66-30.42-67.66-44.83c-3.36-1.38-14.14-5.86-28.61-12.8c-7.24-3.47-14.4-7.18-21.26-11.33
			c-10.72-6.49-21.94-12.5-31.53-20.43c-15.01-12.41-29.76-25.22-42.23-40.47c-6.37-7.79-13.75-14.88-21.33-21.53
			c-13.61-11.95-28.24-22.76-41.48-35.08c-18.23-16.97-38.29-31.46-58.71-45.47c-7.71-5.29-16.48-9.03-24.81-13.41
			c-9.25-4.87-18.46-9.83-27.83-14.45c-15.91-7.84-31.89-15.54-47.93-23.09c-2.91-1.37-8.54-1.61-9.41-1.75
			c-7.13-1.13-10.71-1.67-11.82-0.79c-3.87,3.07,2.09,17.71,8.1,28.81c9.36,17.27,20.35,28.73,37.36,46.47
			c4.09,4.26,8.42,8.57,14.14,13.52c4.78,4.14,10.52,8.53,19.51,14.67c29.21,19.98,56.49,42.27,78.72,70.12
			c21.14,26.47,42.72,52.36,68.33,74.95c17.71,15.62,36.01,30.03,56.86,40.73c35.2,18.08,73.05,24.96,112.48,23.12
			c16.11-0.75,32.05-1.38,47.25,5.84c1.7,0.81,3.27,1.74,4.71,2.79c0,0,0,0,0,0c0,0,6.08,4.05,9.83,11.73
			c8.08,16.5,5.43,45.85,5.43,45.85c-3.57,39.63,1.42,9.47-5.1,79.73c-1.85,19.97-2.78,29.96-3.82,37.8
			c-2.62,19.69-5.72,35.41-9.05,58.13c-4.41,30.08-3.06,25.14-5.35,37.91c-5.82,32.44-15.77,74.73-17.41,81.64
			c-1.4,5.92-2.47,10.11-4.61,18.5c-6.2,24.36-10.67,41.8-12.2,41.52c-1.78-0.32,2.33-24.2,0.39-49.3
			c-0.11-1.43-0.37-4.33-0.77-9.78c-0.63-8.57-1.18-17.15-1.81-25.72c-2.1-28.55-14.82-54.42-20.69-82.03
			c-2.17-10.23-5.81-20.15-7.89-30.39c-4.02-19.84-7.03-39.9-11.26-59.69c-1.57-7.33-5.1-14.32-8.34-21.18
			c-1.9-4.02-5.6-6.16-11.66-4.77c-2.07,8.89-5.03,18.18-6.29,27.7c-4.03,30.43-7.84,60.91-10.94,91.45
			c-1.74,17.11,2.63,44.76,12.65,75.92c13.91,43.26,33.31,79.8,40.2,91.4c4.69,7.9,10.15,16.4,13.02,29.59
			c3.36,15.44,1.51,29.65-1.01,49.04c-1.08,8.31-2.14,16.2-3.6,16.21c-2.5,0.01-1.85-22.92-11.1-54.59
			c-0.99-3.4-3.77-12.48-8.41-23.92c-8.33-20.55-16.74-33.81-22.92-44.29c-20.05-34-18.61-31.86-34.51-70.22
			c-8.46-20.41-20.52-38.03-36.95-52.56c-10.96-9.7-22.6-18.64-33.97-27.89c-4.05-3.29-7.86-7.05-12.35-9.6
			c-21.83-12.43-43.54-25.13-65.88-36.58c-25.1-12.86-47.01-29.9-67.74-48.64c-8.28-7.48-15.4-16.25-23.72-23.68
			c-6.19-5.53-13.12-10.43-20.33-14.55c-6.83-3.89-11.32-2.12-14.35,4.88c-2.71,6.27-6.37,12.77-6.88,19.72
			c-0.81,11.06,5.81,19.02,15.37,32.88c6.68,9.69,17.8,29.36,41.16,68.03c3.24,5.37,6.11,11.01,9.77,16.08
			c8.38,11.6,17.23,22.85,25.74,34.36c15.52,21.01,34.61,38,56.35,52.45c20.93,13.91,41.83,28.03,61.44,43.68
			c21.53,17.18,41.9,35.87,62.15,54.58c16.92,15.63,32.99,32.19,49.32,48.46c4.69,4.68,9.06,9.7,13.39,14.73
			c2.88,3.35,3.08,6.01,4.96,10.15c7.11,15.66,14.98,24.36,14.06,25.13c-1.32,1.09-13.24-19.99-35.16-24.7
			c-6.61-1.42-11.62-0.68-18.98,0.07c-15.89,1.64-30.87,7.21-44.82,15.93c-9.84,6.15-20.08,9.49-31.39,10.37
			c-3.47,0.27-6.95,0.5-10.43,0.64c-9.87,0.4-19.19,2.44-28.2,6.93c-9.72,4.85-16.6,12.63-23.92,20.1
			c-3.42,3.49-7.33,6.61-10.19,10.51c-1.09,1.48-2.11,5.22-0.82,7.63c2.37,4.43,12.15,1.83,31.18,0.1
			c21.19-1.93,26.93-0.34,52.66-3.76c2.09-0.28,3.68-0.51,4.35-0.6c24.79-3.57,46.75-6.72,69.51-15.21c0,0,11.04-4.04,30.69-5.19
			c8.7-0.51,14.09,7.64,12.13,16.28c-1.54,6.8-3.4,13.53-4.99,20.33c-5.99,25.47-11.22,51.05-19.61,75.99
			c-10.12,30.09-18.25,60.84-27.38,91.26c-1.62,5.41-3.93,10.62-5.92,15.92c-5.32-9.93-8.67-19.43-11.56-29.06
			c-4.99-16.65-12.69-31.97-24.35-44.75c-20.3-22.25-42.97-42.06-68.75-57.68c-15.78-9.56-33.41-16.04-49.25-25.5
			c-14.22-8.49-29.11-12.89-45.33-14.04c-7.26-0.52-14.01-0.24-18.1,7.92c2.42,7.28,3.81,15.5,7.71,22.28
			c6.49,11.26,15.82,20.19,27.16,27.07c9.21,5.59,17.94,12,26.65,18.37c16.04,11.74,31.88,23.75,47.85,35.58
			c14.84,10.99,30.02,21.54,44.53,32.95c9.17,7.21,15.04,17.34,20.75,27.48c-14.14-6.77-29.43-6.8-43.94-10.16
			c-14.09-3.26-27.89-3.4-42.34-0.77c-21.15,3.85-43.03,1.95-64.09,8.36c-16.67,5.08-29.07,6.14-47.63,10.79
			c-45.23,11.34-67.84,17.02-86.52,25.57c-31.26,14.31-52.27,31.56-60.93,38.53c-15.43,12.4-28.92,26.11-40.19,42.22
			c-8.17,11.68-16.23,23.44-24.79,34.83c-9.04,12.02-16.08,25.18-23.03,38.41c-1.01,1.92-0.71,4.54-1.05,7.11
			c9.48,2.22,17.54,1.46,25.59-3.48c7.99-4.9,16.74-8.56,25.14-12.79c6.23-3.14,12.9-5.65,18.58-9.59
			c22.75-15.82,32.25-24.88,56.05-40.3c18.69-12.1,34.91-18.32,42.66-21.25c25.11-9.47,35.18-8.14,57.63-14.25
			c27.61-7.51,32.32-1.59,69.57-32.66c26.06-21.75,57.67-27.33,90.47-26.21c14.57,0.5,29.13,3.45,43.5,6.25
			c6.35,1.24,13.43,2.52,18.12,8.28c-6.34,3.34-12.42,5.9-17.79,9.52c-7.78,5.23-14.44,12.4-22.67,16.62
			c-13.68,7.01-27.11,14.22-39.31,23.61c-1.09,0.84-2.54,1.18-3.71,1.93c-18.77,12.07-35.56,25.8-43.01,48.12
			c-4.09,12.23-8.11,24.61-13.69,36.18c-8.55,17.7-10.98,36.61-13.37,55.61c-0.96,7.66,4.16,10.95,11.29,7.59
			c1.86-0.88,3.66-2.14,5.11-3.6c13.77-13.83,27.96-27.28,41.02-41.76c14.79-16.39,27.19-34.6,35.38-55.32
			c3.83-9.7,10.21-17.65,17.89-24.25c8.7-7.48,18.28-13.94,27.54-20.75c1.55-1.14,3.42-1.84,6.04-3.21c0,2.35,0.36,3.77-0.05,4.92
			c-5.92,16.42-11.92,32.82-17.94,49.21c-6.73,18.33-13.92,36.51-20.12,55.03c-4.09,12.22-6.05,25.16-10.2,37.36
			c-14.28,41.96-30.01,83.41-41.89,126.19c-5.87,21.16-12.98,42.03-20.59,62.63c-11.37,30.78-23.84,61.15-35.51,91.82
			c-3.95,10.39-6.93,21.16-10.26,31.79c-1.99,6.35-3.68,10.42-5.81,19.01c-1.96,7.9-2.02,10.41-0.99,10.99
			c1.61,0.9,5.43-3.15,8.09-5.93c22.73-23.72,28.25-24.59,37.79-40.5c2.32-3.87,4.09-6.62,5.31-9.88
			c5.15-13.72,10.05-27.54,15.02-41.33c3.91-10.84,8.5-21.49,11.57-32.56c7.27-26.2,12.61-52.96,22.2-78.48
			c4.78-12.72,10.68-25.02,15.4-37.76c13.72-37.02,24.24-75.03,34.46-113.13c7.96-29.67,15.6-59.43,27.86-87.79
			c6.07-14.05,10.76-28.69,16.13-43.05c1.89-5.06,3.93-10.07,5.9-15.1c0.86-0.04,1.71-0.08,2.57-0.11
			c8.36,16.26,18.18,31.75,22.55,50.03c2.26,9.46,5.24,18.81,8.61,27.94c9.24,25.01,24.81,46.07,42.68,65.41
			c12.3,13.31,25.04,26.27,42.22,33.77c6.31,2.75,12.06,6.86,17.91,10.59c4.4,2.81,8.48,6.14,12.83,9.03
			c21.76,14.46,45.96,25.39,64.48,44.57c1.67,1.73,4.01,2.79,5.95,4.28c8.01,6.17,16.01,12.34,23.96,18.58
			c7.96,6.24,15.78,12.65,23.81,18.8c5.54,4.25,11.16,8.44,17.04,12.19c8.49,5.42,17.2,10.49,25.91,15.55
			c3.39,1.97,6.82,3.29,10.56,0c4.06-3.56,4.52-7.51,2.87-12.26c-4.8-13.84-9.08-27.87-14.44-41.49
			c-3.8-9.66-8.28-19.23-13.74-28.04c-14.75-23.82-27.55-48.73-38.11-74.51c-13.34-32.57-37.1-56.17-62.45-78.68
			c-10.13-8.99-21.43-16.74-32.66-24.38c-16.41-11.17-32.67-22.79-50.05-32.27c-16.21-8.84-32.95-16.58-48.26-27.12
			c-5.44-3.74-12.43-5.22-20.38-8.4c4.53-2.27,7.87-4.8,11.6-5.66c16.3-3.75,32.8-6.68,49.06-10.56
			c18.22-4.35,36.73-6.57,54.54-13.94c28.85-11.94,52.44-29.76,72.42-53.21c13.58-15.94,27.7-31.41,41.08-47.51
			c13.06-15.7,27.1-29.94,45.76-39.14c14.04-6.92,26.59-16.85,41.99-21.04c17.17-4.67,34.44-8.99,51.57-13.82
			c11.4-3.21,23.41-5.55,33.74-10.96c16.6-8.7,31.98-19.71,47.99-29.55c4.02-2.47,6.51-5.32,5.34-10.18
			c-1.3-5.38-5.44-7.43-10.33-6.8c-9.63,1.24-19.29,2.6-28.71,4.88c-14.55,3.52-28.87,7.99-43.38,11.73
			c-3.65,0.94-7.64,0.51-11.45,0.91c-19.07,2-38.48,2.42-57.11,6.46c-32.37,7.03-64.15,16.54-94.35,30.73
			c-20.16,9.48-38.16,22.05-53.67,37.78c-19.62,19.89-38.47,40.56-57.37,61.14c-13.11,14.28-27.49,26.78-44.86,35.66
			c-7.45,3.81-14.74,7.95-21.93,12.23c-15.56,9.27-31,18.74-46.53,28.06c-1.67,1-3.65,1.5-6.11,2.49c0.19-1.84,0.1-2.86,0.42-3.74
			c9.19-25.21,18.82-50.26,27.5-75.65c5.75-16.82,10.41-34.04,15.06-51.21c3.28-12.1,5.59-24.45,8.56-36.63
			c4.3-17.61,8.47-35.21,9.17-53.44c0.47-12.3,5.45-21.94,16.49-28.25c6.95-3.97,14.01-7.98,20.22-12.97
			c17.56-14.13,36.62-25.73,57.58-33.75c25.25-9.66,49.93-20.56,71.11-37.39c22.66-18,44.35-37.27,63.84-58.82
			c4.22-4.66,8.33-9.42,12.64-13.99c12.44-13.19,25.6-25.82,34.52-41.86c15.27-27.46,31.1-54.65,42.06-84.26
			c0.85-2.28,2.06-4.43,3.18-6.61c10.57-20.45,21.58-40.68,31.63-61.38c11.87-24.45,22.99-49.28,34.27-74.02
			c2.31-5.06,4.01-10.41,5.83-15.69c1.35-3.92,1.02-7.77-2.36-10.54c-3.62-2.97-7.64-3.09-11.63-0.46
			c-6.42,4.22-13.37,7.81-19.18,12.75c-17.28,14.7-34.26,29.78-51.04,45.07c-4.32,3.94-7.79,8.95-11.11,13.84
			c-11.38,16.75-22.1,33.96-33.86,50.43c-19.27,26.99-39.28,53.45-58.77,80.29c-16,22.03-33.26,43.36-47.12,66.68
			c-14.28,24.04-30.86,45.57-51.36,64.34c-4.63,4.24-9.53,8.45-13.11,13.52c-8.2,11.61-18.98,20.41-29.63,29.47
			c-6.85,5.83-10.91,10.64-14.23,13.86c-41.21,39.99-47.57,47.36-48.76,46.42c-2.71-2.13,25.61-43.99,50.57-77.42
			c23.59-31.6,29.62-36.94,48.41-64.42c11.97-17.51,21.96-36.43,32.07-55.14c5.79-10.72,10.1-22.24,15.01-33.43
			c2.65-6.04,4.5-12.52,7.85-18.14c8.02-13.46,12.95-27.82,14.48-43.35c0.31-3.1,0.39-6.37-0.29-9.37
			c-1.37-6.03-6.55-8.19-11.81-5.04c-4.17,2.5-8.84,4.79-11.93,8.35c-19.98,23.01-29.41,34.99-31.78,38.94
			c-7.55,12.59-1.64,0.58-55.48,70.92c-15.45,20.19-24.65,32.56-26.48,31.44c-2.64-1.61,15.73-27.83,23.05-68.16
			c1.07-5.92,1.27-9.84,3.82-22.57c2.74-13.67,6.4-27.19,8.51-40.96c3.9-25.48,7.63-51.02,10.18-76.65
			c0.66-6.61,1.05-11.43,1.48-17.85c2.3-34.72,3.41-105.51,3.04-132.36c-0.04-2.83-0.12-10.2,4.21-17.47
			c1.51-2.53,3.51-4.91,6.16-7.13c8.25-6.91,16.77-12.66,27.27-14.71c24.66-4.8,48.82-10.6,72.16-20.65
			c22.03-9.48,40.78-23.14,56.84-40.04c21.58-22.71,44.99-43.23,71.45-59.44c23.72-14.53,49.53-25.68,74.55-38.05
			c0,0,30.98-10.97,44.55-32.04C1998.34,1284.73,2000.84,1280.86,1999.71,1276.76z M1579.9,1098.47
			c-1.4,0.89-18.44-31.68-52.87-71.37c-37.77-43.53-45.38-44.05-78.05-80.23c-16.96-18.78-27.58-41.84-39.67-63.85
			c-11.24-20.45-22.88-40.68-34.36-60.99c-3.78-6.68-7.44-13.44-11.43-19.99c-11.12-18.26-25.05-34.11-40.92-48.42
			c-20.21-18.22-39.95-36.92-56.06-59.06c-4.03-5.54-7.83-11.15-10.07-20.41c4.56,3.3,7.19,4.87,9.44,6.88
			c19.79,17.65,40.2,34.67,59.09,53.24c28.68,28.18,55.36,58.32,76.46,92.73c18.97,30.94,37.08,62.41,55.01,93.97
			c11.76,20.7,25.67,39.87,39.27,59.32c19.81,28.33,28.68,30.62,47.95,56.74C1566.71,1068.23,1581.23,1097.64,1579.9,1098.47z
			 M1552.13,1041.35c-48.45-59.08-40.65-51.91-53-65.73c-4.16-4.65-12.96-16.33-25.03-32.09c-2.53-3.3-5-6.81-6.67-10.58
			c-9.18-20.72-21.45-39.72-32.64-59.32c-8.59-15.04-16.92-30.24-25.89-45.05c-4.43-7.31-10.99-13.41-14.96-20.91
			c-13.95-26.38-35.53-46.42-55.65-67.54c-16.23-17.03-25.9-21.58-48.8-45.76c-5.54-5.85-16.85-17.85-15.72-19.08
			c1.21-1.33,15.99,10.75,39.63,28.65c35.34,26.76,38.56,28.53,51.49,37.66c27.23,19.22,46.65,44.65,60.81,74.47
			c17.81,37.51,35.51,75.08,53.52,112.5c9.51,19.76,23.91,37.55,49.92,74.59c28.97,41.26,54.87,75.13,54.37,75.51
			C1583.03,1079.03,1572.71,1066.45,1552.13,1041.35z M1470.3,2041.08c-45.27,11.01-62.94,13.13-70.48,13.93
			c-25.58,2.73-51.42,2.67-51.62,0.6c-0.17-1.77,19.19-5.27,57.91-12.27c35.08-6.34,41.15-8.69,54.94-12.05
			c8.07-1.97,15.59-6.11,23.62-8.31c8.31-2.28,16.88-4.03,25.45-4.85c6.25-0.6,12.44,1.2,17.22,7.93
			C1504.26,2032.61,1484.76,2037.57,1470.3,2041.08z M1469.83,2022.09c-19.69,7.51-40.05,12.13-60.65,16.01
			c-8.94,1.68-9.18,1.74-24.6,4.99c-28.26,5.94-34.56,8.01-35.18,6.53c-1.09-2.59,16.24-13.44,32.24-18.33
			c5.56-1.7,10.88-2.7,11.66-2.79c6.23-0.75,12.5-1.19,18.77-1.54c15.84-0.88,29.68-7.11,42.88-15.42
			c13.13-8.26,27.91-10.95,43.05-10.36c11.8,0.46,21.75,5.73,30.38,17.18C1506.82,2009.58,1488.14,2015.1,1469.83,2022.09z
			 M1934.4,1616.87c1.91,1.16-5.95,16.54-25.61,57.16c-0.74,1.52-16.02,30.73-43.43,90.62c-13.37,29.23-27.19,58.23-45.18,84.86
			c-8.52,12.61-19.51,23.6-29.7,35.04c-22.39,25.14-39.76,39.53-72.62,67.81c-18.23,15.69-27.67,23.02-41.32,30.02
			c-8.99,4.61-14.23,6.22-27.01,12.01c-18.32,8.29-32.47,16.26-41.42,21.61c16.08-14.3,29.29-24.89,38.6-32.07
			c20.29-15.63,26.41-20.15,26.41-20.15c5.51-5.22,12.13-9.26,18.17-13.94c3.57-2.77,7.32-5.42,10.4-8.68
			c18.83-19.96,37.86-39.74,56.08-60.25c14.8-16.65,26.97-35.34,38.13-54.63c1.74-3.01,3.49-6.04,5.47-8.9
			c10.51-15.13,21.48-29.97,31.57-45.38c10.88-16.6,21.15-33.61,31.35-50.65c21.1-35.24,22.4-40.71,35.9-61.07
			C1912.49,1641.75,1931.77,1615.28,1934.4,1616.87z M1631.6,1976.85c11.46-11.17,26.74-25.14,31.06-30.77
			c8.01-10.43,18.26-19.2,27.9-28.3c16.76-15.83,27.9-35.49,38.66-55.45c0.66-1.23,1.1-2.61,1.92-3.72
			c14.58-19.99,29.26-39.91,43.82-59.91c25.63-35.2,51.32-70.36,76.72-105.73c9.54-13.28,17.05-28.09,29.35-39.26
			c11.57-10.51,23.41-20.72,36.4-30.55c-0.79,1.85-1.22,3.97-2.42,5.5c-12.89,16.56-24.36,33.93-33.58,52.9
			c-5.47,11.25-12.83,21.57-19.3,32.33c-8.44,14.05-16.81,28.14-25.24,42.2c-2.87,4.79-5.61,9.67-8.72,14.3
			c-19.29,28.68-38.41,57.48-58.15,85.85c-8.16,11.72-17.31,22.83-26.73,33.57c-26.29,29.96-54.59,57.87-86.33,82.13
			c-16.89,12.91-33.68,25.96-50.68,38.72c-0.74,0.55-1.31,0.86-2.75,1.81c-26.91,17.79-37.57,26.9-38.03,26.35
			C1564.73,2037.9,1594.03,2013.45,1631.6,1976.85z M1662.66,1412.43c13.57-47.12,17.02-50.92,21.97-74.93
			c4.69-22.71,3.82-30.06,9.42-56.11c1.64-7.64,6.2-21.71,11.73-40.05c0.6-2,1.81-3.83,2.28-5.85
			c3.91-16.68,13.48-30.36,22.95-44.15c2.75-4,4.43-8.75,7.23-12.71c11.86-16.8,23.16-34.08,36.2-49.93
			c13.03-15.85,28.03-30.07,41.88-45.27c6.34-6.95,11.88-14.61,18.03-21.75c2.59-3,5.81-5.46,8.74-8.16c0.8,0.71,1.6,1.42,2.4,2.13
			c-9.41,17.85-18.19,36.07-28.38,53.47c-18.69,31.92-38.57,63.13-57.16,95.1c-6.07,10.44-9.77,22.29-14.41,33.55
			c-7.57,18.36-15.16,36.72-22.5,55.18c-13.15,33.08-25.74,66.38-39.31,99.28c-7.17,17.37-15.8,34.15-24.07,51.05
			c-1.57,3.2-4.52,5.73-7.67,8.03C1654.2,1442.83,1657.83,1429.18,1662.66,1412.43z M1634.24,1009.16
			c4.63-13.88,9.76-27.61,13.97-41.62c6.42-21.33,15.64-41.61,20.15-63.75c5.99-29.44,15.03-58.37,35.51-81.71
			c8.95-10.2,18.93-19.54,28.77-28.92c19.53-18.61,41.65-33.9,63.92-48.94c5.44-3.67,11.52-6.69,17.7-8.9
			c18.34-6.56,33.97-17.49,49.2-29.19c9.95-7.64,19.89-15.31,30.07-22.64c14.45-10.42,30.81-16.11,48.38-18.47
			c0.98-0.13,2.02,0.17,4.63,0.44c-2.91,1.91-4.64,3.17-6.49,4.25c-23.84,13.85-47.9,27.33-71.47,41.61
			c-14.57,8.83-29.14,17.69-41.29,30.17c-8.72,8.96-18.59,16.99-28.79,24.25c-16.16,11.5-28.68,26.42-41.63,41.07
			c-19.57,22.15-35.35,46.73-48.34,73.2c-11.07,22.57-21.62,45.42-33.53,67.54c-12.05,22.39-25.47,44.05-38.35,65.99
			c-0.44,0.76-1.59,1.11-3.55,2.4C1633.6,1012.92,1633.64,1010.95,1634.24,1009.16z M1621.72,1060.6
			c6.2-17.34,12.19-30.66,17.4-40.31c15.22-28.19,31.91-55.58,47.22-83.72c8.15-14.98,14.09-31.14,22.05-46.23
			c14.94-28.35,30.05-56.67,52.98-79.78c4.62-4.66,8.17-10.37,12.71-15.12c6.48-6.78,13.1-13.49,20.22-19.57
			c16.7-14.26,33.17-28.9,50.85-41.88c11.38-8.36,22.23-17.63,35.71-23.39c12.66-5.41,24.19-13.52,36.13-20.59
			c13.04-7.72,26.34-14.88,42.53-21.15c-1.62,3.19-1.92,4.58-2.78,5.37c-12,11.14-23.12,23.35-38.09,30.87
			c-17.78,8.93-35.6,17.81-53.12,27.23c-25.42,13.65-48.48,30.35-66.18,53.62c-13.73,18.05-28.26,35.55-41.05,54.23
			c-9.21,13.46-16.47,28.3-24.04,42.82c-13.56,25.99-26.68,52.21-40.06,78.3c-1.11,2.16-2.58,4.17-4.13,6.05
			c-12.01,14.51-24.97,28.34-35.86,43.64c-12.19,17.13-20.24,31.23-26.72,44.88c-10.97,23.11-15.43,41.02-16.06,40.82
			C1610.81,1096.48,1614.89,1079.7,1621.72,1060.6z M1671.75,560.93c1.23,0.11-8.38,51.49-8.33,125.25
			c0.02,25.41,0.72,45.66-7.26,73.5c-4.94,17.22-11.56,33.6-20.55,49.06c-14.43,24.8-19.31,47.54-24.64,64.38
			c-9.29,29.35-12.62,49.23-14.85,48.88c-2.19-0.35-1.09-19.94-0.67-27.37c0.35-6.2,0.72-12.8,1.87-19.75
			c4.22-25.54,15.2-33.21,21.47-55.86c0.63-2.26,3.38-11.35,7.11-23.96c0.39-1.33,0.61-2.78,1.29-3.95
			c9.75-16.85,14.09-35.66,18.69-54.19c4.09-16.47,6-27.52,8.2-48.16C1660.4,629.54,1670.32,560.8,1671.75,560.93z M1607.3,764.42
			c1.65-5.59,3.8-12.55,3.8-12.55c3.81-12.11,7.93-24.13,11.79-36.23c3.39-10.62,6.81-21.24,9.93-31.94
			c3.41-11.67,7.17-23.29,9.51-35.18c2.34-11.85,2.38-24.17,4.74-36.01c3.75-18.75,5.27-38.07,12.83-55.95
			c1.03-2.43,2.7-4.58,5.84-6.46c0,1.78,0.21,3.6-0.03,5.35c-2.94,21.42-5.57,42.9-9.01,64.24c-6.38,39.57-5.67,80.26-17.23,118.93
			c-2.27,7.59-4.68,15.14-7.19,22.66c-13.75,41.32-15.99,51.28-22.8,65.48c-2.74,5.7-7.3,14.59-14.08,25.09
			C1596.83,830.97,1600.31,788.11,1607.3,764.42z M1672.97,176.62c2.62,0.38-0.15,34.53-1.57,49.18
			c-2.69,27.75-6.02,55.46-10.2,83.02c-4.63,30.5-14.93,59.51-25.25,88.5c-7.44,20.91-9.74,29.03-19.38,59.81
			c-7.33,23.41-11.08,35.42-15.07,50.39c-5.83,21.83-10.54,39.48-14.41,63.63c-2.99,18.68-4.08,32.48-5.4,32.42
			c-1.3-0.06-1.89-13.38-1.8-24.01c0.22-25.1,4.24-33.18,8.83-68.08c2.31-17.59,2.08-20.05,5-42.52c1.3-10.01,2.77-20.01,4.71-29.91
			c2.61-13.33,4.83-26.85,8.86-39.78c7.41-23.77,10.47-31.46,22.99-67.22c13.28-37.94,19.92-56.9,23.26-74.15
			c1.99-10.28,4.65-26.76,10.71-52.19C1667.87,190.51,1671.27,176.37,1672.97,176.62z M1530.38,841.86
			c-1.81,0.67-18.63-38.51-27.91-61.23c-10.05-24.58-11.6-30.66-19.36-44.36c-6.67-11.79-10.47-16.22-19.44-32.2
			c-5.61-10-11.28-20.12-15.39-30.78c-8.79-22.74-15.35-46.2-18.62-70.43c-1.06-7.89-1.45-15.98-1.09-23.94
			c0.97-21.97-7.2-36.17-10.52-47.69c-10.65-36.97-12.5-73.33-10.12-73.84c2.42-0.53,12.2,35.4,20.7,66.59
			c19.02,69.83,19.01,75.59,30.56,115.23c6.31,21.67,15.51,42.5,23.55,63.66c6.07,15.97,12.56,31.77,18.49,47.79
			c7.55,20.39,12.52,34.88,16.27,46.34C1521.69,809.84,1531.97,841.26,1530.38,841.86z M1482.47,1196.08
			c3.46,9.54,6.37,17.18,9.01,24.92c10.5,30.81,23.37,60.52,41.74,87.52c7.05,10.36,15.3,19.88,25.84,27.05
			c12.77,8.69,21.36,21.01,28.78,34.12c13.65,24.12,23.17,49.83,28.56,78.07c-12.53-19.24-24.02-37.54-36.22-55.35
			c-5.88-8.58-12.76-16.56-19.8-24.25c-20.86-22.78-36.47-48.76-50.51-76.2c-14.89-29.1-21.05-60.42-28.11-91.67
			C1481.62,1199.7,1481.95,1199.01,1482.47,1196.08z M1197.69,1188.25c15.4,8.21,30.68,16.64,46.15,24.73
			c12.04,6.3,24.41,11.98,36.42,18.36c18.97,10.07,34.8,24.39,50.67,38.56c10.66,9.52,21.24,19.14,31.46,29.11
			c14,13.65,27.61,27.68,41.41,41.53c7.14,7.16,13.66,15.18,21.67,21.19c14.45,10.84,29.68,20.66,44.84,30.52
			c6.7,4.36,13.87,8.06,21.05,11.59c9.68,4.76,19.51,9.22,29.41,13.51c9.28,4.02,18.85,7.39,28.08,11.52
			c16.73,7.49,28.51,21.49,42.55,32.77c-19.6-10.78-41.73-12.71-62.35-19.44c-18.19-5.93-36.2-12.46-54.02-19.41
			c-5.7-2.22-10.42-6.85-15.81-10.02c-9.9-5.83-20.22-10.98-29.89-17.14c-19.8-12.62-35.97-29.54-52.6-45.85
			c-9.94-9.75-19.8-19.59-29.52-29.57c-3.59-3.69-6.43-8.12-10.03-11.8c-8.02-8.19-16.12-16.32-24.53-24.1
			c-13.49-12.48-25.83-26.43-41.86-35.84c-25.46-14.94-45.21-37.17-69.41-53.67c-3.4-2.32-6.66-4.82-9.41-8.69
			C1193.87,1186.82,1195.9,1187.3,1197.69,1188.25z M1614.12,1484.15c-0.78,1.32-17.44-11.7-43.22-16.21
			c-15.5-2.71-16.47,0.77-37.82,0c-33.49-1.21-59.1-10.78-69.99-14.95c-3.51-1.34-17.5-5.98-33.69-16.21
			c-26.08-16.49-47.87-38.31-70.29-59.26c-3.78-3.53-6.3-8.38-9.84-12.2c-10.6-11.43-28.26-34.1-51.83-56.01
			c-0.58-0.53-18.19-15.12-53.43-44.28c-8.55-7.08-17.02-14.26-25.42-21.51c-6.33-5.47-12.6-11.01-18.82-16.61
			c-3.33-3-8.68-8.68-14.52-16.18c-11.39-14.64-19.45-30.89-17.73-32.11c0.67-0.48,2.36,1.64,10.91,7.75
			c3.19,2.28,5.13,3.43,6.74,4.64c14.8,11.1,29.31,22.6,43.94,33.94c8.82,6.84,17.73,13.57,26.45,20.54
			c20.99,16.76,42.56,32.88,62.58,50.73c12.15,10.83,21.63,24.61,32.7,36.72c20.02,21.89,41.18,42.7,64.18,61.4
			c14.89,12.11,32.02,20.96,49.6,28.84c23.99,10.76,49.45,23.82,83.51,30.53c9.23,1.82,21.87,3.77,37.78,11.23
			C1602.89,1472.91,1614.79,1483.02,1614.12,1484.15z M1600.91,1452.34c-14.51-20.84-21.76-31.26-29.19-38.76
			c-6.28-6.34-12.69-12.45-27.59-27.08c-2.73-2.68-5.82-5.17-7.94-8.29c-14.08-20.73-30.25-40.12-41.69-62.56
			c-10.91-21.39-22.63-42.6-25.97-66.9c-1.99-14.5-3.27-29.11-4.66-43.69c-0.82-8.62-1.5-17.28-1.68-25.93
			c-0.07-3.18,1.5-6.39,2.92-11.91c6.17,9.98,6.62,19.02,8.74,27.48c5.69,22.67,10.39,45.64,17.15,67.99
			c4.1,13.56,11.3,26.19,17.1,39.24c13.53,30.42,34.26,55.96,56.23,80.34c9.93,11.02,17.13,20.14,23.22,29.15
			c7.99,11.81,13.02,21.54,18.43,32.09c8.85,17.26,20,41.58,18.35,42.46C1623.19,1486.56,1617.12,1475.61,1600.91,1452.34z
			 M1525.4,1860.99c-0.76-3.39-1.58-6.81-2.85-10.02c-6.4-16.2-13.06-32.29-19.4-48.52c-1.51-3.85-2.3-8.02-3.14-12.1
			c0,0-3.19-13.34-5.21-26.74c-4.55-30.19,0.45-114.58,4.06-114.39c1.6,0.08-0.11,16.64,3,50.42c2.39,25.99,6.03,44.75,15.56,88.98
			c6.83,31.7,14.48,66.26,23,103.33C1534.01,1884.5,1527.44,1870.1,1525.4,1860.99z M1544.86,1888.8
			c-7.97-36.4-15.88-72.81-23.29-109.33c-4.35-21.43-7.78-43.04-11.52-64.59c-3.75-21.68-4.86-43.54-4.21-65.51
			c0.04-1.37,0.44-2.76,0.87-4.08c0.18-0.55,0.91-0.92,2.13-2.07c2.39,11.45,4.6,22.48,7,33.48c4.22,19.4,8.09,38.9,12.96,58.14
			c4.35,17.19,10.59,33.92,14.65,51.16c3.26,13.84,5.16,28.09,6.48,42.26c1.9,20.49,2.83,41.08,3.95,61.64
			c0.38,6.92,0.06,13.87,0.06,20.81c-0.74,0.18-1.48,0.35-2.23,0.53C1549.4,1903.78,1546.53,1896.42,1544.86,1888.8z
			 M1533.08,1989.59c-1.04,0.57-8.77-13.91-21.61-30.61c-10.69-13.9-20.44-23.51-35.91-37.82c-32.31-29.88-47.72-45.82-74.14-64.57
			c-26.17-18.57-52.45-37.04-77.92-56.55c-19.77-15.15-35.55-34.37-49.71-54.85c-8.73-12.63-18.04-24.9-26.14-37.92
			c-11.22-18.03-21.38-36.72-32.35-54.9c-4.68-7.75-10.17-15.01-15.46-22.37c-4.15-5.78-5.02-12.18-4.04-18.94
			c0.22-1.55,1.48-2.94,2.87-5.57c4.56,6.31,8.55,11.83,12.55,17.34c16.93,23.33,38.04,42.71,58.85,62.36
			c13.44,12.7,27.16,25.1,40.82,37.57c17,15.52,34.38,30.64,51.02,46.54c16.15,15.43,31.39,31.81,47.35,47.45
			c19.83,19.43,34.8,42.74,51.83,64.4c28.85,36.7,41.82,47.09,57.07,74.96C1527.04,1972.29,1534.17,1988.99,1533.08,1989.59z
			 M1515.07,1942.16c-10.65-17.08-11.89-14.11-34.66-43.6c-28.8-37.3-36.35-55.38-67.47-85.98c-0.15-0.15-2.43-1.73-6.03-5.81
			c-19.21-21.7-40.88-40.76-62.65-59.82c-30.12-26.37-43.57-41.33-50.1-47.33c-12.85-11.78-24.77-22.44-41.79-38.84
			c-33.54-32.33-26.51-27.75-32.51-34.06c-2.4-2.53-5.08-4.98-6.78-7.95c-2.72-4.74-4.74-9.89-5.82-16.07
			c7.83,7.59,15.77,15.07,23.46,22.8c18.54,18.65,38.35,35.85,61.05,49.11c21.36,12.48,43.74,23.18,65.39,35.17
			c8.48,4.7,16.46,10.42,24.17,16.34c12.45,9.56,24.31,19.9,36.76,29.45c7.04,5.4,12.18,12.24,17.79,18.93
			c15.86,18.93,23.19,41.9,32.05,64.21c1.16,2.91,2.19,5.94,3.77,8.61c6.38,10.79,12.95,21.47,19.46,32.17
			c1.45,2.38,2.64,4,2.88,4.37c9.53,14.38,21.62,35.69,28.22,49.88c14.64,31.48,18.4,62.57,16.81,63.03
			C1537.65,1997.21,1533.7,1972.03,1515.07,1942.16z M1303.57,2103.71c18.41,9.17,37.01,18.01,54.94,28.06
			c19.18,10.76,37.27,23.26,52.66,39.29c4.58,4.77,9.57,9.17,14.56,13.53c0,0,9.49,9.84,17.18,20.63
			c17.27,24.27,26.94,56.84,25.35,57.5c-1.66,0.69-10.41-36.06-43.47-67.66c-5.07-4.85-12.84-10.85-28.65-22.48
			c-17.67-13-35.02-26.35-54.77-36.42c-16.35-8.34-31.69-18.66-47.5-28.07c-3.77-2.25-7.64-4.33-11.21-7.21
			C1290.04,2099.64,1297.07,2100.47,1303.57,2103.71z M1422.26,2223.63c-7.6-7.56-16.67-13.68-25.32-20.12
			c-7.83-5.83-16.13-11.03-23.97-16.85c-17.09-12.67-33.9-25.71-51.07-38.28c-9.85-7.21-20.07-13.92-30.31-20.56
			c-7.57-4.91-12.38-11.81-16.56-19.31c0.58-0.93,1.16-1.85,1.74-2.78c3.34,1.37,6.92,2.35,9.99,4.18
			c14.67,8.78,29.16,17.86,43.8,26.69c6.86,4.14,14.23,7.51,20.82,12.03c20.12,13.82,40.54,27.29,59.78,42.28
			c26.12,20.35,42.66,47.57,51.86,79.29c0.28,0.97,0.21,2.06,0.21,3.1c0,0.3-0.32,0.59-0.79,1.41c-4.31-0.08-6.56-3.43-7.75-6.74
			C1448.19,2249.98,1435.32,2236.62,1422.26,2223.63z M1025.01,2431.56c6.2-11.72,12.49-23.28,22.23-32.35
			c9.49-8.83,17.67-18.53,24.61-29.68c13.1-21.03,30.39-38.09,52.7-49.64c25.41-13.16,51.82-23.84,78.69-33.65
			c17.61-6.43,35.71-9.3,53.99-12.08c24.13-3.66,48.22-7.63,72.37-11.19c3.77-0.55,7.99,0.36,14.49-0.16
			c14.1-1.12,18.13-4.29,31.36-4.54c4.81-0.09,8.43-0.23,13.88,0.78c7.54,1.4,15.17,2.3,22.68,3.81c10.44,2.1,19.94,6.2,28.45,15.28
			c-11.41,0.87-21.55-0.82-31.38-2.8c-19.47-3.93-38.83-2.72-58.32-0.99c-32.87,2.91-63.19,14.69-93.01,27.55
			c-17.54,7.56-36.09,10.77-54.2,15.87c-18.56,5.22-37.37,10.32-53.56,20.78c-20.2,13.05-39.29,27.85-58.61,42.23
			c-13.44,10-26.42,20.62-39.7,30.84C1042.89,2418.39,1033.91,2424.92,1025.01,2431.56z M1443.87,2292.13
			c-12.43-3.74-25.03-5.96-38.08-5.99c-6.95-0.01-13.89-1.73-20.84-1.82c-27.27-0.34-53.69,4.88-78.07,16.84
			c-13.65,6.7-25.54,16.94-38.41,25.32c-4.61,3-9.51,5.88-14.68,7.64c-14.54,4.95-29.2,9.66-44,13.76
			c-11.03,3.06-22.31,5.39-33.59,7.38c-23.58,4.18-44.16,14.25-62.84,29.17c-14.7,11.74-30.07,22.69-45.7,33.19
			c-9.06,6.09-18.77,11.53-29.3,14.82c-0.43-0.57-0.85-1.15-1.28-1.72c2.35-2.27,4.49-4.84,7.1-6.75
			c11.22-8.2,22.78-15.95,33.81-24.39c6.59-5.04,12.2-11.34,18.67-16.57c12.67-10.24,25.23-20.56,38.75-29.79
			c22.24-15.19,42.95-21.26,68.75-29.15c44.08-13.48,56.3-9.18,83.26-23.46c4.59-2.43,13.14-6.66,25.55-11.64
			c11.97-4.8,24.14-8.77,37.41-8.77c8.99,0,17.96-1.87,26.96-2.12c12.14-0.34,24.2,0.68,36.14,3.51
			c11.51,2.73,23.24,4.52,34.81,6.98c1.87,0.4,3.45,2.13,5.17,3.25c-0.29,0.66-0.58,1.33-0.86,1.99
			C1449.7,2293.27,1446.7,2292.98,1443.87,2292.13z M1307.01,2482.58c0.13-2.56-0.25-5.28,0.5-7.64c2.72-8.62,5.75-17.15,8.79-25.66
			c4.09-11.47,8.65-22.79,12.39-34.38c7.2-22.31,23.56-36.43,42.3-48.56c2.63-1.7,6.63-4.01,14.11-8.88
			c11.25-7.33,18.99-12.98,22.52-15.5c18.93-13.55,43.16-27.81,44.02-26.59c0.76,1.08-17.34,13.83-47.26,39.04
			c-28.11,23.69-42.79,35.47-50.67,47.8c-9.74,15.24-17.97,31.46-26.66,47.36c-4.35,7.95-8.12,16.21-12.36,24.22
			C1312.96,2477.05,1310.67,2480.02,1307.01,2482.58z M1437.24,2346.65c-15.12,12.98-22.53,14.16-34.26,23.75
			c-9.58,7.83-19.05,16.24-23.83,28.49c-7.94,20.33-19.96,38.34-33.85,54.92c-7.72,9.22-17.33,16.85-26.05,25.16
			c4.67-9.08,9.31-17.92,13.8-26.84c6.88-13.67,12.39-28.24,20.85-40.84c8.17-12.17,16.05-24.85,29.2-33.45
			c15.91-10.4,30.49-22.83,45.62-34.42c0.78-0.6,2.83-3.56,6.45-6.62c7.92-6.7,18.07-10.92,19.28-9.26
			C1455.93,2329.6,1443.91,2340.92,1437.24,2346.65z M1769.72,2631.57c-17.29-13.99-34.5-28.08-51.92-41.91
			c-5.71-4.54-12.44-7.87-17.87-12.68c-20.5-18.15-43.79-32.1-66.93-46.43c-15.68-9.71-30.45-20.78-46.84-29.53
			c-8.12-4.33-15.12-11.28-21.66-17.98c-23.41-23.99-43.95-50.45-51.81-83.53c-5.5-23.16-16.57-43.54-24.92-65.75
			c2.93,2.61,6,5.07,8.76,7.85c22.86,23.03,45.27,46.52,68.65,69c12.29,11.82,26.54,21.57,39.4,32.83
			c27.28,23.88,55.45,46.92,80.95,72.6c20.79,20.94,38.68,44.85,56.96,68.15c8.12,10.34,13.97,22.44,20.99,33.66
			c2.55,4.08,5.49,7.92,8.26,11.86C1771.06,2630.33,1770.39,2630.95,1769.72,2631.57z M1542.57,2347.38
			c11.72,8.03,25.12,13.56,37.33,20.93c17.87,10.79,35.55,21.94,52.91,33.53c10.41,6.95,20.97,14.11,29.86,22.8
			c14.94,14.6,29.09,30.11,42.61,46.05c5.99,7.05,10.03,15.89,14.31,24.25c12.26,23.9,23.17,48.55,36.61,71.75
			c9.32,16.08,17.86,32.28,24.12,49.7c1.58,4.39,2.48,9.02,4.23,15.51c-2.7-1.96-3.71-2.36-4.21-3.1
			c-11.06-16.46-21.92-33.06-33.13-49.42c-8.24-12.03-16.2-24.36-25.59-35.46c-4.97-5.87-18.16-22.56-41.05-44.58
			c-9.03-8.69-16.57-15.37-88.85-73.43c-11.4-9.16-21.92-17.11-35.12-29.66c-13.38-12.72-25.96-26.3-38.56-39.82
			c-4.89-5.25-8.87-11.34-13.27-17.04c0.53-0.72,1.05-1.45,1.58-2.17C1519.32,2337.14,1531.22,2339.61,1542.57,2347.38z
			 M1945.78,2082.73c-4.28,2.64-8.58,5.27-12.85,7.93c-14.9,9.28-30.25,17.13-47.94,20.17c-12.32,2.12-24.31,6.13-36.45,9.3
			c-29.16,7.62-54.44,23.42-79.82,38.72c-7.84,4.73-14.17,12.31-20.4,19.29c-21.4,23.93-42.01,48.59-63.81,72.15
			c-14.55,15.73-32.42,27.03-52.24,35.86c-16.72,7.45-33.1,4.46-63.74,15.66c-8.35,3.05-8.28,3.51-16.85,6.53
			c-29.15,10.23-53.19,13.04-53.42,12.01c-0.4-1.73,64.2-21.28,73.67-26.84c0.56-0.33,4.24-2.2,9.27-4.78
			c1.54-0.79,3.42-1.02,4.81-1.99c10.8-7.54,21.53-15.19,32.26-22.83c4.81-3.43,9.94-6.51,14.3-10.45
			c18.1-16.37,35.42-33.66,54.09-49.36c15.64-13.15,30.94-26.71,47.24-39.21c18.04-13.83,37.33-25.52,55.98-38.27
			c3.58-2.45,8.32-3.22,12.58-4.63c8.6-2.85,17.17-5.84,25.88-8.34c6.98-2,14.15-3.34,21.23-5.02c9.75-2.31,19.71-3.99,29.19-7.13
			c15.53-5.16,30.66-11.53,46.14-16.87c6.37-2.2,13.2-3.05,19.83-4.52C1945.07,2080.97,1945.42,2081.85,1945.78,2082.73z
			 M1501.89,2305.86c18.71-11.49,37.44-22.96,56.19-34.37c8.93-5.44,17.54-11.66,27.01-15.91c15.18-6.8,26.28-18.15,37.27-29.89
			c20.27-21.67,40.06-43.8,60.92-64.88c15.8-15.97,34.75-27.62,55.26-37.21c25.19-11.78,52.47-16.76,78.27-26.37
			c4.19-1.56,8.84-2.04,13.33-2.59c21-2.59,28.21-2.07,44.62-5.08c7.18-1.32,5.17-1.48,22.08-5.73c11.78-2.96,39.85-9.69,40.22-8.4
			c0.39,1.38-30.81,12.75-63.14,21.34c-10.77,2.86-23.58,6.02-48.27,12.75c-5.49,1.49-10.96,3.03-16.42,4.63
			c-21.01,6.15-39.28,17.83-56.99,30.4c-36.54,25.94-69.07,56.56-101.98,86.79c-26.33,24.19-55.57,44.37-87.58,60.61
			c-19.49,9.88-39.78,16.76-61.14,20.81c-1.98,0.37-4.02,0.38-6.04,0.56c-0.33-0.78-0.65-1.56-0.98-2.34
			C1496.98,2309.25,1499.35,2307.42,1501.89,2305.86z M1699.37,1787.59c-6.12,13.67-12.1,27.4-18.39,41
			c-13.08,28.28-29.14,54.62-49.12,78.71c-13.52,16.29-25.53,33.84-38.23,50.81c-0.57,0.76-1.38,1.34-2.07,2
			c-0.34-0.18-0.67-0.36-1.01-0.54c3.98-9.05,8.47-17.92,11.85-27.19c8.63-23.72,23.1-44.24,36.31-65.29
			c11.9-18.97,26.77-36.05,40.05-54.17c4.29-5.86,7.91-12.24,11.46-18.6c5.77-10.31,11.2-20.81,16.87-31.18
			c0.57-1.03,1.76-1.72,4.04-1.74C1707.2,1770.13,1703.28,1778.86,1699.37,1787.59z M1626.6,1842.46
			c19.77-21.22,39.13-42.77,55.63-66.57c7.39-10.66,15.11-20.82,23.96-30.2c1.51-1.6,3.35-2.9,6.14-3.4
			c-7.68,14.3-14.52,29.14-23.22,42.8c-14.98,23.51-30.7,46.58-46.88,69.3c-19.09,26.81-36.37,54.51-48.59,85.21
			c-4.38,11.01-10.02,21.52-14.44,32.52c-1.12,2.78-2.24,8.27-5.51,15.12c-3.94,8.26-10.02,17.52-11.79,16.75
			c-1.24-0.54,0.15-5.74,3.6-21.01c1.9-8.42,3.5-16.91,5.53-25.3c9.37-38.85,9.16-42.36,11.7-49.72
			C1591.65,1882.1,1608.57,1861.83,1626.6,1842.46z M1630.69,1507.16c-0.02,0.46-0.18,16.27-0.6,47.9
			c-0.13,9.86-0.3,21.5-0.55,35.49c-0.16,9.25-0.26,20.52-1.1,35.54c-0.94,16.67-1.72,33.38-3.68,49.94
			c-3.53,29.78-6.02,59.78-14.18,88.81c-3.7,13.18-5.01,26.63-6.91,40.09c-1.88,13.33-6.33,26.33-10.14,39.33
			c-4.8,16.37-6.51,18.1-10.75,32.6c-4.87,16.66-8.27,34.69-8.27,34.69c-5.91,31.93-10.84,41-16.83,77.31
			c-0.57,3.44-3.01,23.49-7.87,63.44c-5.05,41.56-5.03,42.92-6.15,48.74c-4.43,22.92-9.78,45.71-15.78,68.28
			c-5.2,19.53-11.78,38.7-17.91,57.98c-1.47,4.63-3.66,9.02-5.33,13.6c-6.62,18.17-9.51,26.56-13.15,36.34
			c-5.63,15.11-10.32,24.01-15.68,35.22c-16.46,34.49-27.43,66.23-37.64,95.78c-5.71,16.53-11.22,32.09-19.87,63.91
			c-11.25,41.4-21.95,82.95-37.18,123.13c-5.94,15.67-13.08,30.94-18.09,46.89c-7.1,22.61-11.85,45.98-19.24,68.49
			c-8.6,26.18-18.94,51.79-28.6,77.61c-0.72,1.94-1.84,3.82-3.16,5.42c-6.82,8.27-13.76,16.44-21.21,25.3
			c-1.64-4.3-0.07-8.1,1.33-11.67c6.63-16.89,13.49-33.7,20.19-50.57c9.54-24,19.81-47.76,28.3-72.13
			c9.17-26.31,16.27-53.34,24.98-79.83c8.95-27.2,19.14-54,28.06-81.21c7.28-22.21,13.12-44.89,20.34-67.12
			c5.51-16.94,7.88-20.35,15.71-41.06c13.55-35.83,14.13-42.15,25.11-72.65c19.88-55.26,25.09-54.31,39.02-98.72
			c8.18-26.09,11.59-39.31,15.81-54.27c3.5-12.42,6.24-25.07,9.97-37.42c4.13-13.65,9.01-27.06,13.55-40.59
			c0.78-2.31,1.73-4.6,2.16-6.98c3.01-16.81,6.04-33.61,8.77-50.46c0.59-3.65,0.2-5.89,0.26-8.18c0.58-25.34,5.52-40.76,11.51-75.15
			c3.29-18.9,10.02-61.41,13.54-73.55c0.1-0.34,1.4-4.8,3.15-10.93c0.82-2.88,1.78-6.25,2.84-10.04c3.3-11.75,6.78-23.46,9.72-35.3
			c5.37-21.64,11.16-43.22,15.38-65.1c3.5-18.11,5.88-35.03,10.3-68.16c2.02-15.15,9.98-77.7,12.41-137.07
			c0-0.08,0.01-0.17,0.01-0.25c3.16-77.18,9.7-97.85,9.81-143.5c0.02-10.07-0.64-21.56-1.96-44.55
			c-3.28-57.06-8.61-99.47-10.11-110.74c-7.77-58.2-18.27-108.19-18.27-108.19c-2.25-10.91-6.47-30.65-9.3-57.93
			c-0.61-5.85-1.07-11.27-1.43-16.25c-0.96-13.28-1.19-23.48-1.27-26.97c-1.93-85.12-2.81-95.76-5.51-108.64
			c-2.56-12.2-10.62-50.66-29.29-75.16c-3.2-4.19-11-13.62-16.39-28.47c-2.88-7.94-2.97-11.64-6.4-24.31
			c-3.08-11.37-5.99-18.99-9.74-29.7c-8.54-24.34-17.01-48.71-26.04-72.86c-10.85-29.04-22.35-57.84-33.34-86.83
			c-2.08-5.5-3.1-11.4-4.64-17.1c-1.28-4.71-2.45-9.46-3.94-14.11c-3.17-9.87-6.28-19.62-7.99-30.01
			c-2.31-14-6.89-27.64-10.67-41.38c-4.06-14.78-8.24-29.52-12.53-44.24c-2.82-9.66-6.05-19.2-8.82-28.88
			c-0.91-3.17-0.96-6.58-1.4-9.88c1.05-0.52,2.1-1.04,3.14-1.57c2.51,2.6,5.55,4.86,7.43,7.86c8.02,12.82,13.56,26.63,16.41,41.61
			c3.26,17.12,7.74,34.01,10.75,51.17c5.62,31.99,19.34,61.03,31.37,90.76c7.06,17.44,13.08,35.35,18.58,53.34
			c6.22,20.33,11.06,41.07,16.99,61.49c6.71,23.11,11.38,46.86,21.28,68.99c0.74,1.66,1.23,3,1.6,3.87
			c3.94,9.43,7.11,16.27,9.86,21.84c9.59,19.36,12.46,23.89,15.18,29.82c0.67,1.46,0.94,2.16,2.49,5.9c7.71,18.58,8.4,19.89,9,19.81
			c2.77-0.39,0.9-26.41,0.9-26.41c-2.1-29.2-5.14-83.44-9.7-179.08l0,0c0-30.64-0.24-14.14-0.38-29.67c0-0.51-0.04-3.84-0.04-6.58
			c-0.02-28.4,2.95-37.69,0.82-54.5c-0.91-7.18-0.57-6.73-3.9-18.01c-6.29-21.3-5.92-44.88-4.92-91.15
			c0.47-21.83,1.16-33.73,2.32-51.28c1.85-27.92,7.6-55.28,14.61-82.21c4-15.35,11.66-29.76,17.79-44.54
			c3.46-8.34,6.94-16.67,10.78-24.83c6.82-14.5,14-28.83,20.88-43.31c8.23-17.32,16.35-34.69,24.38-52.1
			c1.74-3.78,2.83-7.85,4.38-11.72c1.25-3.1,2.75-6.1,4.14-9.15c0.8,0.17,1.61,0.34,2.41,0.5c-0.61,6.52-0.76,13.12-1.93,19.54
			c-4.09,22.39-7.09,40.15-9.76,50.3c-12.37,47.06-27.94,78.05-43.9,137.55c-8.58,32-14.05,57.47-15.4,69.33
			c-2.2,19.41-5.94,38.65-8.08,58.07c-2.97,26.96-9.48,53.52-7.75,81.03c0.85,13.53-1.52,27.24-1.08,40.82
			c1.6,48.54,3.24,86.11,4.42,99.34c7,78.2,2.87,78.05,16.17,257.17c2.57,34.62,6.12,80.3,10.73,134.19l0,0
			c0.12,0.59,17.83,90.45,23.11,159.37c0,0.03,0.05,0.61,0.05,0.68c0.21,2.79,0.99,12.82,2.05,26.1c0.52,6.54,1.16,14.33,1.96,23.61
			c3.13,36.51,3.23,44.46,4.38,59.37c0.17,2.2,0.29,4.4,0.37,6.6l0,0c0.01,0.12,0.01,0.31,0.02,0.55
			C1639.58,1449.37,1632.67,1464.64,1630.69,1507.16z M1635.13,1487.15c-0.52-0.41,2.92-6.25,21.71-31.75
			c4.61-6.31,11.22-15.97,17.93-28.44c11.09-20.6,13.52-34.27,23.2-58.29c8.47-21.02,17.1-41.98,25.7-62.95
			c8.87-21.59,17.35-43.36,26.86-64.67c5.39-12.08,12.52-23.38,18.85-35.04c13.82-25.45,27.42-51.03,41.54-76.32
			c8.5-15.22,17.9-29.94,26.72-44.98c6.18-10.53,11.85-21.36,18.19-31.79c2.2-3.62,5.74-6.43,8.67-9.61
			c0.8,0.48,1.59,0.97,2.39,1.45c-1.21,4.16-1.8,8.64-3.72,12.43c-25.94,51.09-48.27,103.83-70.65,156.52
			c-10.09,23.76-17.13,48.79-26.61,72.83c-9.59,24.33-19.39,48.71-31.14,72.04c-10.83,21.5-21.95,34.45-42.27,61.02
			C1665.87,1454.46,1636.47,1488.22,1635.13,1487.15z M1945.7,1311.38c-19.83,9.41-39.51,19.15-59.18,28.89
			c-20.22,10.01-36.9,24.98-54.34,38.93c-11.74,9.39-22.04,20.24-32.93,30.5c-11.67,11-22.34,18.97-37.38,28.4
			c-15.06,9.45-29.81,18.7-51.11,24.44c-17.13,4.62-22.83,2.74-38.42,9.6c-16.85,7.42-26.16,16.64-27.01,15.61
			c-0.95-1.15,9.5-14.07,25.82-23.49c5.41-3.13,3.84-1.46,26.06-10.72c19.88-8.28,28.34-13.15,35.74-16.75
			c4.05-1.97,7.59-4.95,11.62-6.97c12.99-6.55,22.49-17.46,33.57-26.39c10.84-8.73,22.32-16.79,32.33-26.38
			c21.65-20.74,47.36-35.69,72.39-51.42c13.7-8.61,29.33-14.47,44.65-20.04c15.25-5.54,31.2-9.15,46.84-13.61
			C1966.24,1301.25,1956.09,1306.44,1945.7,1311.38z M1971.68,1285.57c-8.22,2.9-16.41,5.99-24.82,8.2
			c-28.65,7.54-54.29,21.27-79.6,36.31c-27.53,16.35-51,37.74-75.84,57.46c-13.64,10.83-26.53,22.62-40.34,33.22
			c-19.6,15.04-42.76,23.31-65.34,32.54c-2.13,0.87-4.62,0.83-6.94,1.21c-0.41-0.77-0.82-1.53-1.23-2.3
			c6.27-5.91,12.31-12.08,18.85-17.68c21.45-18.34,43.11-36.42,64.59-54.71c3.17-2.7,6.23-5.73,8.62-9.11
			c13.85-19.61,34.03-31.77,52.93-45.45c2.26-1.64,4.99-2.7,7.02-4.56c22.61-20.72,51.42-25.42,79.86-31.03
			c15.04-2.97,30.14-5.63,45.19-8.56c7.15-1.39,14.2-1.74,22.98,0.28C1974.76,1283.43,1973.39,1284.97,1971.68,1285.57z"/>
	</g>
</g>
</svg>
