<?xml version="1.0" encoding="utf-8"?>
<!-- Generator: Adobe Illustrator 24.0.1, SVG Export Plug-In . SVG Version: 6.00 Build 0)  -->
<svg version="1.1" id="Слой_1" xmlns="http://www.w3.org/2000/svg" xmlns:xlink="http://www.w3.org/1999/xlink" x="0px" y="0px"
	 viewBox="0 0 3000 3000" style="enable-background:new 0 0 3000 3000;" xml:space="preserve">
<style type="text/css">
	.st0{fill:none;}
	.st1{fill:#45482A;}
</style>
<rect class="st0" width="3000" height="3000"/>
<g>
	<g>
		<path class="st1" d="M1999.22,1417.76c-1.11-3.85-3.11-10-9.33-16.11c-3.09-3.04-6.83-5.5-11.27-7.33
			c-4.53-1.87-9.15-3.53-13.75-5.21c-9.39-3.42-16.69-7.93-16.8-19.86c-0.08-8.52-3.11-16.8-10.56-22.23
			c-3.62-2.64-7.55-5.07-11.69-6.75c-10.21-4.16-20.6-7.89-30.96-11.69c-5.67-2.08-9.33-5.71-9.92-11.91
			c-0.35-3.75-1.85-7.09-4.83-9.15c-5.01-3.47-10.45-5.98-16.71-6.91c-13.91-2.05-27.76,0.36-41.64,0.12
			c-10.77-0.19-21.55,0.99-32.33,1.52c-3.25,0.16-6.5,0.21-10.85,0.35c1.78-2.42,2.72-3.85,3.8-5.15
			c6.79-8.17,10.88-16.47,15.1-23.54c2.61-4.37,4.36-7.44,7.61-11.81c0.38-0.51,2.1-2.83,4.69-5.86
			c8.31-9.74,15.87-15.69,18.27-17.52c0.82-0.63,1.47-1.29,2.58-1.92c6.13-3.51,12.54-6.58,18.99-9.47c2.92-1.31,6.2-1.14,9.14,0.54
			c4.42,2.53,8.89,4.98,13.18,7.72c2.87,1.83,5.83,3.05,9.04,3.41c1.57,0.18,2.83,0.11,3.82,0.03c6.3-0.51,16.31-1.33,17.75-5.82
			c0.77-2.43-1.46-5.24-5.93-10.87c-2.38-3-4.51-6.17-8.43-8.71c-4.09-2.65-8.24-5.51-11.52-9.06
			c-5.27-5.71-10.82-11.16-16.07-16.88c-10.95-11.92-25.89-15.82-41.36-18.16c-8.71-1.32-17.6-2.15-24.88-8.24
			c-2.62-2.2-5.94-3.78-9.19-4.96c-5.39-1.94-9.72-2.72-11.97-3.01c-9.53-1.22-27.34-0.48-46.49,7.92
			c-11.56,5.07-17.45,10.25-18.78,11.4c-3.47,3.02-6.63,6.44-9.46,10.27c-3.86,5.22-7.54,10.56-11.33,15.83
			c-1.81,2.52-3.95,4.33-7.42,3.8c-3.19-0.48-5.73,1.04-7.93,3.18c-9.59,9.33-16.26,20.76-22.49,32.36
			c-3.36,6.26-6.55,12.52-10.95,18.14c-3.16,4.03-6.63,8-8.83,12.55c-2.93,6.07-7.43,9.91-13.16,12.93
			c-2.2,1.17-4.65,2.75-5.83,4.81c-3.99,6.94-9.35,13.23-10.56,21.6c-0.36,2.47-1.81,4.77-2.72,7.17c-1.25,3.28-2.75,6.49-3.66,9.86
			c-3.15,11.8-6.02,23.68-9.15,35.49c-2.07,7.8-6.28,14.25-12.17,19.87c-13.69,13.05-22.45,29.26-29,46.79
			c-3.17,8.49-6.36,16.98-9.7,25.41c-0.94,2.37-2.16,4.76-4.89,6.23c-0.2-6.31-0.47-12.01-0.53-17.71
			c-0.04-4.51,0.3-9.03,0.26-13.54c-0.04-5.52-0.47-11.04-0.42-16.56c0.06-5.7,0.68-11.39,0.72-17.08
			c0.1-13.58-0.13-27.16,0.05-40.74c0.1-7.47,0.74-14.93,1.19-22.38c0.32-5.29,0.85-10.57,1.08-15.87
			c0.34-7.68,0.52-15.36,0.71-23.04c0.25-10.04,0.56-20.08,0.63-30.12c0.1-14.79-0.48-29.6,0.11-44.36
			c0.93-23.22,2.56-46.42,3.95-69.62c0.43-7.27,0.89-14.54,1.58-21.78c1.52-15.82,2.05-23.75,3.63-33.39
			c3.7-22.66,5.71-34.95,12.61-45.96c2.48-3.96,6.03-10.99,10.47-19.83c1.31-2.6,1.81-5.6,3.06-8.24c1.85-3.92,4.21-7.59,6.05-11.51
			c5.09-10.82,12.87-19.76,20.02-29.14c3.2-4.19,6.66-8.12,10.85-11.44c4.46-3.54,8.39-7.73,12.78-11.36
			c4.84-4,9.9-7.75,14.96-11.48c6.64-4.9,13.44-9.59,20.02-14.57c1.86-1.41,2.33-2.72,3.26-4.31c4.79-8.19,1.46-14.24,5.2-21.63
			c1.12-2.2,3.04-4.01,6.9-7.61c7.31-6.84,14.01-10.96,21.59-14.31c4.5-1.99,8.83-4.36,13.37-6.23c15.32-6.3,16.77-5.81,26.87-10.57
			c8.53-4.02,14.85-8.07,21.1-12.07c7.13-4.57,10.69-6.85,14.98-10.51c4.88-4.17,5.1-5.4,8.53-7.08c4.55-2.22,9.69-3.22,14.5-4.94
			c2.53-0.91,5.18-1.88,7.31-3.44c9.47-6.96,19.97-11.87,30.9-15.9c4.6-1.7,9.37-3.22,14.2-3.94c12.45-1.86,25.14-2.45,37.42-5.04
			c10.77-2.27,25.32-9.03,24.85-14.48c-0.22-2.55-3.68-4.15-9.48-6.82c-8.69-4.01-17.23-5.65-22.35-7.4
			c-1.48-0.51-2.85-1.36-4.3-1.97c-1.07-0.45-2.18-0.91-3.32-1.1c-10.27-1.73-20.57-3.28-30.81-5.13
			c-6.59-1.19-13.44-2.45-17.78-8.22c-2.3-3.05-4.9-5.19-7.76-6.54c-5.04-2.38-10.04-1.98-13.65-1.46c-10.9,1.55-20.78,2.95-32.9,10
			c-26.59,15.48-28.03,16.42-28.03,16.42c-2.01,1.19-3.91,1.89-5.81,1.58c-2.1-0.34-3.43-1.74-3.83-2.11
			c-7.88-7.15-34.92,7.96-34.92,7.96c-16.77,9.45-33.17,18.72-50.64,28.87c3.18-8.8,6.35-17.23,9.28-25.75
			c4.21-12.24,8.45-24.48,9.77-37.48c1.05-10.39,2.34-13.01,1.72-16.43c-1.18-6.54-4.27-9.83-4.03-17.5
			c0.04-1.37,0.06-2.81,1.43-8.12c1.62-6.3,3.5-12.53,5.1-18.83c2.67-10.49,5.35-20.99,7.69-31.56c0.61-2.76,0.63-6.04-0.27-8.68
			c-0.96-2.83-1.37-5.53-1.32-8.14c0.11-5.25,2.06-8.09,5.21-14.82c3.27-6.98,8.38-20.69,4.8-23.45c-0.79-0.61-2.53-0.66-5.65,0.48
			c-4.22,1.56-9,2.39-15.25,6.23c-4.42,2.71-7.34,5.29-13.27,8.35c-1,0.51-1.97,0.97-3.28,1.36c-4.41,1.31-9.86,0.28-9.86,0.28
			c-6.71-1.28-18.51,4.25-24.14,7.68c-4.62,2.82-7.78,6.22-15.46,15.14c-8.52,9.9-15.7,20.71-23,31.47
			c-7.28,10.73-14.73,21.35-22.17,31.97c-2.05,2.93-4.67,4.76-8.57,3.55c-3.42-1.06-5.96,0.23-8.34,2.87
			c-4.96,5.52-8.47,11.74-10.67,18.84c-1.57,5.07-3.79,9.93-5.54,14.94c-2.38,6.83-4.77,13.67-6.83,20.61
			c-2.18,7.34-3.76,14.87-6.06,22.17c-0.69,2.18-2.66,5.1-4.54,5.54c-4.39,1.03-5.82,3.99-6.44,7.51
			c-1.54,8.71-3.21,17.44-3.94,26.24c-1.32,15.92-1.88,31.89,0.39,47.81c0.07,0.51-0.2,1.07-0.34,1.78
			c-8.38-10.07-16.58-20.02-24.88-29.87c-3.17-3.76-6.33-7.57-9.93-10.89c-5.32-4.9-10.83-9.64-16.61-13.98
			c-4.63-3.47-8.94-7.88-15.6-7.5c-2.81,0.16-3.47-1.27-4.87-1.81c-13.44-5.19-17.07-15.62-31.86-25.31
			c-1.44-0.95-5.25-2.53-7.5-4.75c-2.85-2.81-6.75-4.77-10.5-6.41c-7.2-3.14-14.6-5.87-21.97-8.6c-3.54-1.32-7.28-2.04-10.95-0.46
			c-5.57,2.4-10.69,1.27-15.88-1.34c-3.48-1.75-7.18-3.18-10.92-4.31c-6.22-1.89-12.92-2.62-18.73-5.31
			c-7.49-3.47-15.34-4.96-23.2-6.77c-2.69-0.62-5.49-0.95-8.04-1.92c-9.4-3.58-17.7-1.83-25.4,4.41c-1.75,1.41-4.07,2.47-6.28,2.89
			c-7.72,1.48-15.5,2.61-23.26,3.9c-0.97,0.16-1.93,0.41-2.86,0.71c-11.07,3.48-21.99,7.61-33.25,10.23
			c-8.81,2.05-14.57,4.72-15.7,7.48c-2.58,6.26,18.2,20.24,61.71,48.54c27.21,17.7,46.45,29.89,64.64,39.35
			c11.36,5.91,22.51,12.2,34.78,16.13c0.94,0.3,1.89,0.63,2.73,1.12c10.68,6.31,21.42,12.53,31.97,19.05
			c4.84,2.99,9.4,6.46,13.89,9.97c6.35,4.96,12.33,10.43,18.81,15.21c12.59,9.28,23.8,19.99,34.21,31.59
			c7.76,8.65,15.24,17.49,22.49,26.59c5.93,7.45,11.14,15.24,15.97,23.32c5.86,9.81,11.42,19.81,16.74,29.92
			c4.67,8.88,9.47,17.79,13.08,27.13c7.11,18.41,5.86,21.26,12.95,39.23c7.24,18.36,13.95,27.97,12.27,29.16
			c-3.37,2.39-37.23-31.38-49.56-36.86c-1.84-0.82-3.78-1.63-3.78-1.63c-4.6-1.75-9.19-3.52-13.81-5.2
			c-2.39-0.87-4.8-1.91-7.29-2.29c-9.94-1.55-19.89-2.99-29.87-4.22c-4.91-0.61-9.53,0.49-12.68,4.74
			c-2.01,2.71-4.61,4.11-7.81,4.81c-8.39,1.85-22.1,3.9-31.68,7.08c-6.05,2.01-10.27,4.37-11.38,5.01
			c-8.53,4.87-13.88,11.31-16.91,13.84c-1.34,1.12-2.55,2.51-3.46,3.99c-6.97,11.3-16.18,20.82-24.67,30.88
			c-6.77,8.02-13.38,16.11-18.01,25.54c-4.69,9.55-8.91,19.33-13.15,29.1c-1.56,3.6-2.74,7.39-3.82,11.18
			c-1.51,5.28-2.87,10.61-4.1,15.96c-1.4,6.1-4.22,11.84-4,18.38c0.12,3.57-1.02,7.17-1.64,11.12c-9.98-2.96-19.22-5.75-28.49-8.43
			c-2.62-0.76-5.31-1.38-8.01-1.8c-6.04-0.92-12.11-1.65-18.16-2.5c-4.67-0.66-9.33-1.46-14.01-2.03
			c-1.91-0.23-10.02-1.04-17.06-0.35c-11.59,1.13-12.98,5.69-26.2,9.77c-9.76,3.01-8.12,1.91-27.4,4.02
			c-14.12,1.55-26.14,6.32-34.18,19.01c-2.16,3.42-5.8,6.49-9.46,8.25c-8.42,4.03-16.32,8.77-23.77,14.31
			c-5.23,3.89-9.97,8.15-13.46,13.9c-2.52,4.15-5.99,7.82-9.5,11.23c-3.49,3.4-7.52,6.25-11.39,9.25c-1.04,0.81-2.64,1.64-3.28,3.44
			c-1.27,3.59,2.09,7.59,2.28,7.81c3.3,3.83,9.06,2.38,12.67,4.57c8.13,4.94,17.15,6.95,26.55,6.86c8.66-0.08,17.32-0.76,25.98-1.07
			c4.73-0.17,9.51-0.51,14.19-0.05c3.21,0.32,7.44,0.97,9.18,3.12c2.71,3.35,5.96,5.52,9.37,7.69c7.31,4.64,14.49,9.56,22.14,13.58
			c6.22,3.26,12.95,5.67,19.64,7.9c6.9,2.3,14.03,3.89,21.04,5.84c4.55,1.26,9.04,2.75,13.61,3.88c6.5,1.61,13.05,3.07,19.6,4.45
			c13.15,2.76,22.65,10.48,29.1,21.93c2.52,4.47,5.8,7.43,10.56,8.75c6.62,1.84,13.3,3.49,19.98,5.12
			c7.47,1.82,14.96,3.56,22.45,5.29c11.85,2.74,23.75,5.27,35.54,8.23c5.3,1.33,9.89,3.88,10.84,10.26
			c0.18,1.22,1.72,2.87,2.94,3.21c4.53,1.26,9.19,2.83,13.81,2.86c7.64,0.05,15.29-1.03,22.94-1.6c8.94-0.67,7.27-0.17,10.58-0.62
			c13.84-1.9,17.78-7.28,32.97-9.9c1.9-0.33,4.56-0.7,8.17-0.96c10.27-0.73,19.83,2.47,29.51,5.26
			c15.48,4.46,28.19,13.1,38.37,25.36c2.97,3.58,4.36,7.44,5.89,11.37c9.96,25.53,8.66,54.64,8.23,62.98
			c-0.78,14.92-3.41,27.63-4.32,33.97c-0.7,4.86-1.01,9.88-3.12,14.53c-3.89-3.52-7.17-6.99-10.95-9.8
			c-5.51-4.1-11.04-8.43-17.17-11.41c-10.59-5.15-22.13-7.99-32.79-13.25c-13.31-6.56-28.01-5.7-42.41-5.52
			c-2.1,0.03-4.24,0.87-6.27,1.6c-6.08,2.18-10.27,7.84-16.8,9.27c-0.16,0.03-0.24,0.33-0.4,0.41c-0.96,0.57-2.71,1.58-4.99,2.59
			c-18.58,8.29-32.72-0.11-57.4,5.16c-4.24,0.9-7.35,1.91-8.06,2.14c-10.93,3.55-18.34,8.72-24.62,13.1
			c-4.42,3.08-6.77,5.41-9.1,7.5c-1.13,1.02-2.34,2.61-4.87,5.69c-3.98,4.85-5.97,7.27-7.91,10.06c-4.28,6.15-4.61,8.23-6.48,8.36
			c-2.5,0.18-3.31-3.44-7.81-7.06c-3.59-2.89-6.39-2.53-12.34-5.22c-5.37-2.43-10.45-5.96-16.07-7.3
			c-13.5-3.22-25.21-5.2-30.23-5.08c-11.59,0.27-17.74,3.09-37.25,6.84c-2.55,0.49-6.55,1.14-11.64,2c-1.16,0.2-2.32,0.51-3.48,0.5
			c-6.28-0.01-12.58-0.44-18.84-0.09c-7.4,0.41-15,0.29-21.32,5.52c-1.68,1.39-4.36,1.65-6.64,2.2c-2.48,0.6-5.04,0.88-7.54,1.41
			c-4.35,0.91-7.76,2.73-9.96,5.61c-0.7,0.91-3.06,4.17-2.77,7.77c0.76,9.64,20.22,19.23,32.02,22.14
			c2.48,0.61,7.24,1.93,10.38,5.77c1.43,1.75,2.48,3.93,3.06,6.64c0.41,1.92,0.9,3.9,1.8,5.62c0.76,1.46,1.94,2.98,3.33,3.79
			c10.78,6.26,22.07,11.28,34.25,14.31c5.13,1.28,10.09,3.36,13.32,8.11c6.65,9.77,13.23,19.6,20.11,29.21
			c6.11,8.53,13.13,16.25,21.95,22.14c1.28,0.85,2.36,1.99,3.78,3.21c-3.57,7.99-6.11,14.85-7.85,19.9
			c-0.36,1.05-6.73,19.93-5.69,31.24c0.34,3.72,0.71,8.18,3.08,10.35c1.94,1.78,2.46,3.77,1.7,6.39c-1.42,4.91-2.69,9.88-3.75,14.88
			c-1.11,5.18-2.74,10.44-2.64,15.63c0.16,8.21-0.44,16.42,0.89,24.7c1.37,8.51,5.03,13.1,13.7,13.76c1.35-1.18,3.55-3.04,6.41-5.1
			c10.36-7.49,13.24-5.62,18.21-11.2c3.41-3.83,6.69-7.77,10.18-11.53c1.16-1.25,2.7-2.2,4.19-3.08c3.9-2.29,7.89-4.42,11.79-6.71
			c2.34-1.38,4.58-2.94,7.35-4.73c1.92,3.05,4.88,7.57,8.75,12.88c9.4,12.89,19.34,26.52,34.98,37.49
			c7.28,5.11,17.13,9.79,23.86,14.21c6.57,4.32,12.81,9.2,18.82,14.29c3.26,2.77,6.38,6.46,5.48,11.17
			c-0.26,1.37-0.25,2.49,0.01,3.5c0.5,2,1.72,3.32,2.22,3.83c14.19,14.67,28.21,20.84,28.21,20.84c15.44,6.8,18.01,7.62,39.92,14.52
			c7.27,2.29,14.09,5.2,20.5,8.71c14.93,8.17,24.05,17.59,33.29,27.32c8.17,8.61,21.23,23.91,32.17,45.16
			c4.14,8.05,7.29,15.3,9.47,20.95c4.03,10.47,7.87,21.02,11.35,31.69c5.55,17.05,11.14,34.1,15.96,51.36
			c5.66,20.29,10.43,40.83,15.76,61.22c1.49,5.7,4.09,11.14,5.36,16.88c4.72,21.46,13.82,41.5,19.94,62.5
			c0.81,2.78,2.53,3.15,5.5,2.54c0.04-1.75,0.45-3.55,0.04-5.14c-0.49-1.95-1-3.9-1.53-5.85c-1.41-5.27-2.84-10.53-4.33-15.78
			c-11.46-40.36-16.64-61.36-16.64-61.36c-4.74-19.23-3.61-17.38-8.82-38.28c-4.69-18.82-8.49-33.02-10.44-38.74
			c-7.18-21.07-9.37-32.04-13.23-41.7c-7.95-19.92-16.33-33.75-32.42-60.3c-2.13-3.52-5.34-9.08-10.4-15.64
			c-7.32-9.5-13.27-16.13-15.53-18.53c-16.43-17.49-37.25-43.88-50.68-62.44c-7.86-10.87-15.59-21.45-24.6-36.76
			c-7.18-12.2-13.03-25.22-21.65-36.5c-1.72-2.25-6.28-9.03-13.34-19.38c-4.06-5.96-6.7-9.9-7.27-10.73
			c-5.54-8.17-54.89-53.27-53.26-55.54c0.24-0.33,1.71,0.03,7.29,3.2c38.77,34.37,52.41,50.54,57.38,58.92
			c0.95,1.6,6.74,10.75,14.82,23.39c2.11,3.3,4.78,6.26,6.76,9.63c8.36,14.26,16.57,28.62,24.8,42.96
			c4.81,8.39,10.15,16.38,16.95,23.34c4.96,5.08,10.19,9.95,14.68,15.42c8.01,9.78,16.82,18.76,25.91,27.47
			c3.77,3.61,6.62,7.72,9.36,12.08c6.79,10.82,8.91,13.99,17.16,26.2c7.49,11.09,13.94,20.53,16.59,19.39
			c1.39-0.6,1.22-3.96,1.14-5.26c-1.97-32.02-12.57-118.61-12.57-118.61c-3.31-27.06-3.39-51.2-3.36-58.6
			c0.03-7.35,0.12-6.99,0.46-26.57c0.36-20.74,0.78-45.96,0.43-72.55c-0.33-25.11-0.95-20.82-1.3-44.7
			c-0.86-58.17,2.59-79.17-11.88-93.72c-5.13-5.15-12.45-9.88-16.11-11.77c-9.25-4.76-18.92-8.83-28.71-12.33
			c-6.23-2.23-12.96-3.75-19.55-4.11c-9.42-0.51-18.87,0.45-27.65,4.67c-7.98,3.84-16.18,7.29-23.96,11.5
			c-4.08,2.21-7.73,5.41-11.14,8.62c-3.57,3.37-6.71,7.22-9.88,10.99c-1.63,1.94-3.05,4.07-4.36,6.25
			c-3.44,5.73-6.83,11.5-10.13,17.32c-5.04,8.89-10.5,17.59-14.81,26.82c-3.56,7.63-5.57,15.98-8.54,23.9
			c-4.16,11.13-9.49,21.58-17.48,30.61c-7.03,7.96-13.56,16.36-20.36,24.52c-0.9,1.08-2.12,1.9-3.19,2.84c-0.18-1,0.03-1.55,0.35-2
			c9.53-13.52,19.16-26.97,28.58-40.56c5.85-8.44,10.6-17.49,14.07-27.21c3.64-10.19,7.06-20.5,11.45-30.37
			c2.85-6.4,6.93-12.36,11.08-18.06c5.79-7.95,12.18-15.46,18.3-23.17c2.08-2.62,3.9-5.48,6.2-7.89
			c7.17-7.49,15.89-12.83,25.09-17.43c1.57-0.79,3.25-1.5,4.96-1.81c8.73-1.56,17.46-3.13,26.23-4.35c3.47-0.48,7.09-0.38,10.6-0.03
			c13.04,1.29,25.34,5.39,37.59,9.84c11.5,4.18,19.65,11.8,25.45,22.34c0.48,0.87,1.66,1.35,2.5,2.01c4.11-3.08,3.9-6.78,3.03-10.88
			c-0.68-3.21-1.36-6.63-0.97-9.83c1.3-10.72,3.07-21.37,4.68-32.05c0.61-4.08,1.08-8.19,1.93-12.21
			c2.91-13.81,3.26-22.7,3.16-32.29c-0.11-9.69-3.02-22.01-8.85-46.65c-1.27-5.37-1.38-7.67-2.78-10.1
			c-5.3-9.19-10.93-18.22-16.82-27.04c-7.34-10.99-17.51-19.01-28.59-25.98c-3.79-2.38-7.23-5.45-11.24-7.32
			c-10.33-4.83-20.82-9.32-31.36-13.66c-14.9-6.13-30.02-11.74-44.82-18.11c-7.92-3.4-15.65-7.45-22.95-12.03
			c-13.58-8.53-27.64-15.82-43.14-20.14c-2.15-0.6-4.46-1.1-5.97-4.16c1.78,0.28,2.95,0.26,3.97,0.65
			c10.14,3.82,20.34,7.48,30.33,11.66c4.68,1.96,8.97,4.89,13.36,7.51c3.88,2.32,7.41,5.4,11.52,7.16
			c8.85,3.78,17.89,7.19,27.01,10.27c16.02,5.4,32.01,10.85,47.27,18.19c10.45,5.02,21.51,8.77,31.21,15.38
			c7.68,5.23,15.29,10.45,21.31,17.68c3.39,4.08,6.77,8.24,10.68,11.79c4.86,4.41,4.59,8.05,13.3,25.8
			c4.35,8.87,6.61,13.18,7.62,12.85c0.65-0.21,0.57-2.25,0.39-4.04c-0.82-8.32,1.1-16.39,1.21-24.59
			c0.09-6.73-0.04-11.63-0.08-13.61c-0.18-9.05,0.13-17.27,2.01-45.37c2.58-38.68,3.03-38.81,3.51-53.56
			c0.3-9.15,0.18-11.24,0.69-27.05c0.3-9.15,0.44-16.29,0.64-27.2c0.07-3.93-0.52-7.92-0.05-11.79c1.16-9.66,0.47-19.26-0.32-28.87
			c-0.87-10.61-2.68-21.22-2.52-31.81c0.19-12.48-1.68-24.66-2.94-36.95c-0.12-1.14-0.17-2.05-0.2-2.81
			c-0.1-2.56-0.14-4.45-0.14-4.82c-0.04-13.56-0.07-21.52-3.29-27.31c-3.72-6.67-8.54-4.82-24.13-15.54
			c-5.52-3.79-9.76-7.36-12.58-9.87c-3.96-3.22-10.29-7.6-18.95-10.56c-5.3-1.81-25.95-8.03-44.6,1.85
			c-10.54,5.59-16.72,15.35-29.07,34.88c-4.79,7.57-8.36,13.71-11.94,20.28c-8.04,14.77-27.55,57.1-28.16,56.84
			c-0.44-0.19,8.68-22.15,13.65-34.11c8.82-21.25,12.46-29.28,18.76-39.23c4.02-6.35,7.86-11.48,10.34-14.78
			c8.91-11.85,13.29-17.87,18.47-21.61c12.35-8.92,26.34-11.56,34.03-11.41c1.82,0.04,11.51-0.11,21.96,5.16
			c4,2.01,7.64,4.71,11.53,6.94c18.07,10.38,24.05,14.09,27.63,15.68c9.49,4.21,14.24,6.31,17.04,4.77
			c6.22-3.44,1.27-15.4,6.21-38.21c0.35-1.64,2.31-8.02,6.25-20.78c6.06-19.6,9.06-29.42,9.16-29.63c1.46-2.94,2.15-6.32,2.85-9.57
			c0.91-4.22,0.61-8.93,2.38-12.7c4.45-9.43,9.52-18.59,14.8-27.59c2.04-3.49,9.09-14.44,22.5-36.81
			c13.27-22.15,20.02-33.77,23.9-40.17c7.96-13.12,20.39-31.24,39.74-52.27c0,0,0,0.01,0,0.01c3.74-4.1,7.73-8.25,11.97-12.43
			c9.96-9.81,19.84-18.3,29.29-25.63c-11.39,11.98-20.55,21.49-26.34,27.48c-25.4,26.27-30.93,31.36-38.97,43.38
			c-5.57,8.32-11.12,18.16-14.87,24.77c-4.07,7.18-7.66,14.64-11.51,21.95c-3.3,6.27-6.82,12.43-8.05,19.57
			c-0.22,1.28-1.05,2.5-1.75,3.66c-5.83,9.59-11.8,19.1-17.52,28.75c-9.19,15.52-16.5,31.89-20.73,49.47
			c-2.35,9.75-4.37,19.62-5.88,29.53c-1.6,10.52-2.7,21.13-3.49,31.74c-0.98,12.96-1.52,25.96-2.06,38.95
			c-1.18,28.17-3,56.34-3.15,84.52c-0.15,29.19-0.37,58.35-2.35,87.48c-0.67,9.83-1.43,19.67-1.61,29.51
			c-0.27,14.19,0.03,28.38-0.06,42.57c-0.12,20.7-0.35,41.4-0.61,62.1c-0.02,1.93-0.25,3.99-0.98,5.74
			c-1.34,3.18-0.75,5.62,1.69,7.98c3.25-0.69,5.46-2.16,6.97-5.08c1.9-3.67,4.04-7.26,6.48-10.59c5.74-7.83,9.52-16.64,12.11-25.81
			c1.62-5.71,3.81-11.01,6.51-16.19c1.8-3.46,3.62-6.91,5.37-10.4c3.55-7.05,6.2-14.46,13.25-19.41c4.46-3.13,7.38-8.18,11.65-11.94
			c6.6-5.81,13.03-10.11,22.19-8.78c1.66,0.24,3.52-0.26,5.18-0.79c7.95-2.54,13.85-7.92,19.63-13.71
			c7.36-7.38,14.98-14.55,23.01-21.18c6.97-5.76,14.68-10.62,22.04-15.91c2.07-1.49,3.94-3.31,6.15-4.55
			c10.68-5.99,21.87-10.78,33.9-13.31c2.07-0.44,4.44-1.33,6.88,0.53c-0.97,0.75-1.51,1.35-2.18,1.65
			c-5.01,2.28-10.01,4.55-15.06,6.72c-8.59,3.7-16.43,8.37-22.62,15.62c-8.43,9.88-16.82,19.82-25.74,29.25
			c-4.69,4.96-10.61,8.75-15.73,13.34c-14.12,12.66-29.23,23.92-45.14,34.26c-8.74,5.68-16.64,12.76-21.96,22.03
			c-4.27,7.43-10,13.91-13.83,21.61c-0.35,0.7-0.82,1.36-1.36,1.92c-7.5,7.81-15.04,15.58-22.52,23.4
			c-3.95,4.13-7.95,8.24-11.67,12.57c-1.49,1.73-2.56,3.93-3.39,6.09c-3.45,8.95-4.16,18.41-4.79,27.85
			c-0.84,12.58-1.39,25.17-2.25,37.75c-0.46,6.68-1.16,13.35-2.04,19.98c-1.57,11.9-3.37,23.76-5.02,35.65
			c-0.32,2.33-0.53,4.68-0.6,7.03c-0.06,1.83,0.28,3.74,2.56,4.02c2.19,0.27,3.12-1.42,3.7-3.15c0.82-2.42,1.6-4.87,2.18-7.36
			c2.73-11.92,6.98-23.09,12.83-33.48c1.33-2.37,4.9-7.46,12.07-17.6c5.99-8.47,7.84-10.72,14.23-19.8
			c2.65-3.76,5.73-4.81,11.02-16.03c4.28-9.07,10.87-16.42,16.62-24.33c8.36-11.48,16.44-23.1,23.3-35.54
			c3.13-5.67,5.91-11.53,8.88-17.28c1.35-2.62,2.77-5.2,5.49-6.93c-0.55,3.14-1.4,6.12-2.82,8.8c-4.68,8.88-9.59,17.65-14.37,26.48
			c-2.81,5.2-5.23,10.63-8.36,15.62c-7.35,11.77-12.15,19.23-17.72,27.26c-1.83,2.64-9.1,14.8-23.65,39.11
			c-14.22,23.77-17.92,32.48-24.68,45.13c-1.93,3.62-3.49,7.54-4.62,11.49c-5.3,18.45-8.98,37.17-9.02,56.47
			c-0.01,4.72-0.32,9.44-0.49,14.16c-0.56,15.76-1.12,31.52-1.67,47.28c-0.32,9.06-0.55,18.12-0.98,27.18
			c-0.42,8.86-1.3,17.7-1.53,26.57c-0.22,8.65,0.19,17.31,0.21,25.96c0.02,7.69-0.14,15.37-0.19,23.06
			c-0.02,3.25,0.95,4.39,4.2,4.08c1.57-0.15,3.51-0.96,4.48-2.14c4.12-4.97,7.59-10.39,12.05-15.17
			c6.69-7.17,12.36-15.29,18.75-22.76c4.84-5.66,8.08-12.66,14.38-17.08c0.15-0.11,0.21-0.33,0.33-0.49
			c6.39-8.48,12.8-16.94,19.15-25.45c7.95-10.66,17.68-19.75,28-27.8c24.22-18.9,50.42-34.5,80.54-42.4
			c7.42-1.95,14.8-4.67,22.36-5.38c10.76-1.01,21.66-0.83,32.49-0.53c13.59,0.37,26.32,4.75,38.79,9.78
			c1.74,0.7,3.23,2.02,4.83,3.05c-0.23,0.43-0.46,0.85-0.69,1.28c-7.57-2.12-15.12-4.32-22.72-6.32c-4.76-1.25-9.55-2.78-14.4-3.16
			c-18.75-1.49-37.49-0.98-55.67,4.23c-10.37,2.97-20.7,6.69-30.33,11.5c-11.06,5.53-21.38,12.54-31.91,19.09
			c-6.85,4.26-13.67,8.63-20.22,13.34c-13.94,10.03-24,23.79-34.57,37c-4.91,6.13-9.4,12.62-13.86,19.1
			c-7.59,11.03-17.91,19.97-24.21,32.01c-2.63,5.02-6.12,9.57-9.08,14.42c-1.52,2.49-2.86,5.12-4.04,7.79c0,0-2.38,5.11-4.3,10.84
			c-6.07,18.09-7.16,38.93-7.16,38.93c-0.76,14.46,1.08,28.29,4.39,55.4c1.36,11.15,2.54,22.36,4.69,33.38
			c5.47,28.05,11.21,56.04,17.27,83.97c4,18.48,8.69,36.8,13.15,55.18c4.69,19.34,9.27,38.71,14.28,57.97
			c4.47,17.17,9.33,34.24,14.24,51.28c5.68,19.69,11.47,39.35,17.46,58.95c4.26,13.94,9.32,27.65,13.34,41.66
			c5.83,20.34,14.16,39.72,21.82,59.35c0.5,1.29,1.06,2.55,1.65,3.8c1,2.14,2.6,3.32,5.17,3.24c-0.13-1.98-0.37-4.97-0.84-8.58
			c-2.64-20.38-9.28-35.03-11.28-39.59c-3.42-7.78-17.7-53.93-46.26-146.22c-0.76-2.45-2.44-7.46-4.11-14.16
			c-1.94-7.83-3.1-15.89-5.58-23.54c-5.54-17.07-8.83-34.68-13.06-52.05c-1.4-5.73-2.58-11.52-4.1-17.22
			c-2.18-8.17-4.92-16.21-6.82-24.44c-2.74-11.89-4.93-23.9-7.39-35.85c-2.46-11.96-4.97-23.9-7.43-35.85
			c-1.51-7.34-3.24-14.64-4.36-22.04c-1.41-9.35-2.37-18.78-3.4-28.18c-0.45-4.13-0.83-8.5-1.23-14.1
			c-0.89-12.46-2.05-29.74-0.27-51.04c0.46-5.46,0.81-9.67,1.78-15.55c1.72-10.47,4.34-25.6,13.58-41.35
			c2.52-4.29,4.45-7.41,8.73-12.61c5.49-6.69,11.37-13.07,17.03-19.62c5.67-6.56,13.16-9.88,21.35-11.71
			c11.02-2.45,10.67,0.03,17.99-3.21c4.5-1.99,5.82-3.84,24.87-20.71c2.52-2.23,3.76-3.38,3.92-3.46
			c12.77-6.2,25.54-12.36,39.81-14.55c6.34-0.97,12.69-2.27,18.83-4.11c7.57-2.27,14.96-3.77,23.05-3.23
			c8.8,0.59,8.78,2.15,22.26,4.45c15.67,2.67,28.35,2.09,31.53,1.92c12.23-0.67,12.76-2.93,22.69-2.28
			c7.81,0.51,15.58,2.18,23.28,3.74c11.56,2.34,23.06,4.98,34.56,7.6c10.32,2.35,20.68,2.18,31.07,0.8
			c1.88-0.25,0.99-0.13,13.31-1.86c22.69-3.17,25.9-3.33,27.1-5.92c1.47-3.18-2.82-8.93-11.4-20.42
			c-6.91-9.26-9.9-14.49-14.93-17.98c-7.67-5.3-10.99-12.59-10.55-21.82c0.09-1.91-0.13-4.03-0.89-5.74
			c-4.08-9.17-9.68-17.1-18.63-22.26c-3.73-2.15-7.11-4.96-10.94-6.89c-7.54-3.8-15.1-7.67-22.98-10.62
			c-7.14-2.67-14.79-3.98-22.09-6.29c-1.81-0.57-3.57-2.44-4.57-4.16c-2.93-5.01-11.31-11.7-16.84-12.83
			c-9.33-1.91-18.8-1.92-28.24-1.45c-8.43,0.42-16.83,1.35-25.25,2.01c-2.54,0.2-5.11,0.11-7.64,0.41
			c-7.41,0.87-14.87,1.5-22.17,2.92c-8.67,1.69-17.18,4.22-25.82,6.08c-1.64,0.35-4.54-0.14-5.19-1.24
			c-1.88-3.15-4.36-2.89-7.16-2.47c-2.92,0.44-5.9,0.66-8.75,1.38c-9.33,2.35-18.8,4.37-27.1,9.6c-7.68,4.84-15.14,9.93-20.99,17.06
			c-2.12,2.58-4.86,4.64-7.04,7.17c-4.74,5.52-9.62,10.97-13.85,16.87c-5.74,7.99-10.85,16.44-16.42,24.56
			c-2.4,3.5-4.99,6.64-9.39,8.4c-3.02,1.2-6.04,4.14-7.54,7.07c-5.28,10.35-10.14,20.94-14.7,31.64
			c-3.94,9.25-7.33,18.75-8.26,28.88c-1.38,14.98-7.37,28.53-13.11,42.14c-0.79,1.88-2.17,3.52-3.27,5.26
			c-0.45-0.12-0.91-0.24-1.36-0.35c-0.17-1.85-0.48-3.7-0.49-5.54c-0.03-9.06-0.07-15.88,0.11-18.3
			c1.27-17.03,2.48-44.17,2.84-54.85c0.36-10.68-0.05-6.79,0.33-25.94c0.53-26.6,0.91-39.89,2.68-52.84
			c4.07-29.8,13.72-52.22,18.21-62.45c5.3-12.09,10.93-22.25,21-40.41c5.78-10.42,8.75-15.75,12.81-21.69
			c5.66-8.27,15.71-24.65,31.06-33.29c3.25-1.83,6.28-4.03,9.42-6.04c5.13-3.29,10.26-6.57,15.4-9.85c1.16-0.74,2.46-1.29,3.52-2.14
			c5.04-4.08,10-8.26,15.04-12.34c2.2-1.78,3-3.6,0.86-5.97c-0.5-0.56-0.82-1.27-1.16-1.81c1.88-3.23,2.99-6.98,5.48-9.07
			c6.44-5.41,12.06-11.98,20.08-15.35c1.24-0.52,2.36-1.44,3.42-2.31c10.29-8.58,20.67-17.06,29.46-27.27
			c2.05-2.38,4.45-4.2,7.91-4.7c10.32-1.48,20.56-3.46,30.88-4.98c13.82-2.03,27.67-3.86,41.52-5.68c7.42-0.97,14.86-0.98,22.35-0.9
			c14.52,0.16,29.04-0.46,43.26,3.34c0.94,0.25,1.95,0.18,2.93,0.3c3.5,0.44,7.03,0.74,10.5,1.37c7.92,1.45,15.76,3.36,23.71,4.54
			c8.54,1.27,17.4,1.03,25.71,3.11c12.29,3.07,18.86,2.37,26.24,3.92c16.46,3.46,32.99,6.57,49.44,10.05
			c1.36,0.29,4.95,1.03,6.55-0.75C2000.06,1423.61,2000.44,1422,1999.22,1417.76z M1233.02,1642.7c-2.08,12.25-3.94,24.42-6.31,36.5
			c-0.87,4.43-1.61,9.31-6.05,12.41c-4.43-3.11-6.73-7.59-8.69-11.97c-3.58-7.98-9.28-14.17-15.62-19.79
			c-8.54-7.57-17.63-14.52-26.15-22.1c-4.32-3.84-7.92-8.47-11.47-13.36C1186.24,1620.42,1210.93,1626.72,1233.02,1642.7z
			 M1079.32,1638.86c3.16-0.27,5.83-1.31,7.8-3.63c1.86-2.2,4.1-2.72,6.78-2.79c10.63-0.3,21.25-0.64,31.87-1.13
			c2.71-0.12,5.4-0.82,8.1-1.29c2.69-0.46,5.36-1.04,8.06-1.42c4.23-0.61,8.47-1.1,13.71-1.77c9.95,13.04,23.9,21.61,36.07,32.16
			c8.37,7.25,14.72,15.75,19.97,25.29c1.7,3.1,3.49,6.16,5.17,9.27c0.42,0.77,0.59,1.67,0.87,2.5c-0.26,0.16-0.51,0.32-0.77,0.49
			c-0.68-0.52-1.58-0.91-2.02-1.59c-4.81-7.51-12.25-12.11-19.02-17.48c-14.66-11.63-31.77-16.18-49.98-16.97
			c-20.75-0.9-40.28-6.65-59.63-13.51c-4.07-1.44-8.3-2.41-12.45-3.64c-1.59-0.47-3.15-1.04-4.72-2.63
			C1072.53,1640.07,1075.9,1639.15,1079.32,1638.86z M1195.73,1753.32c-27.81-22.44-25.84-26.86-27.99-31.12
			c-5.5-10.92-3.06-15.87-9.84-21.63c-5.16-4.39-12.51-6.66-14.46-7.11c-3.81-0.89-7.96-0.57-11.63-1.79
			c-6.52-2.17-13.01-4.68-19.06-7.89c-2.44-1.29-4.77-4.58-5.31-7.33c-0.82-4.18-2.39-7.47-4.6-10.06
			c-3.7-4.33-8.41-5.72-13.75-7.44c-5.87-1.89-14.03-5.38-23.45-12.46c10.39,1.19,18.58,3.07,24,4.51
			c11.57,3.07,35.22,10.7,43.98,11.34c3.68,0.27,6.16,0.37,8,0.42c3.01,0.07,5.19,0.12,5.52,0.13
			c19.84,0.26,37.33,11.47,37.33,11.47c9.95,6.38,24.86,19.77,25.02,19.9c0,0,0.03,0.02,0.07,0.06c0.01,0.01,0.02,0.02,0.03,0.03
			c1.18,0.97,9.17,7.65,9.21,12.18c0.04,3.8-0.58,8.11-0.58,8.11c0,0,0,0,0,0c-1.83,7.79-5.09,14.57-9.96,21.11
			c-2.86,3.84-3.17,9.93-3.64,15.09c-0.47,5.15,0.08,5.2-2.49,9.22C1199.93,1757.73,1198.08,1755.22,1195.73,1753.32z
			 M1234.72,1863.27c-0.32,0.43-0.92,0.89-1.41,0.91c-7.54,0.27-10.28,6.14-12.99,11.58c-2.68,5.36-6.03,9.59-12.15,11.46
			c-3.02-2.71-3.55-5.22-1.74-8.62c1.44-2.71,1.71-6.02,2.9-8.9c2.4-5.78,4.29-12,7.8-17.06c7.27-10.47,15.28-20.46,23.38-30.32
			c3.84-4.68,8.59-8.61,12.71-12.67c-0.07,0.45-0.21,1.64-0.48,2.81c-1.84,8.24-3.56,16.52-5.63,24.71
			c-1.34,5.32-2.72,10.73-4.98,15.69C1240.39,1856.66,1237.27,1859.85,1234.72,1863.27z M1422.19,1961.57
			c3.76,3.98,7.05,8.45,10.19,12.96c4.94,7.09,9.57,14.38,14.34,21.59c-0.29,0.3-0.58,0.6-0.88,0.91
			c-4.19-1.69-8.31-3.57-12.57-5.02c-10.43-3.54-21-6.68-31.38-10.37c-5.71-2.03-11.31-4.54-16.67-7.38
			c-8.89-4.7-17.42-9.99-24.7-17.1c-2.7-2.64-4.42-4.91-3.13-9.2c2.06-6.87-10.51-17.69-10.51-17.69
			c-11.61-10.07-21.73-13.34-35.26-21.85c-21.44-13.48-33.09-27.78-34.85-31.4c-3.3-6.79-7.48-12.82-11.34-19.57
			c0.88,0.4,1.88,0.64,2.62,1.21c10.54,8.25,20.78,16.93,31.67,24.69c6.03,4.3,12.95,7.53,19.81,10.48
			c12.46,5.35,25.16,10.12,37.09,16.67c6.39,3.51,13,6.61,19.44,10.02c8.42,4.45,15.83,10.23,22.47,17.1
			C1406.33,1945.68,1414.48,1953.41,1422.19,1961.57z M1304.02,1805.55c1.03,0.57,1.99,0.86,2.61,1.49
			c14.14,14.25,28.75,28.08,42.16,42.99c8.24,9.16,14.49,20.09,21.88,30.04c10.63,14.31,18.41,30.26,26.95,45.79
			c1.12,2.04,2.58,3.91,3.82,5.88c0.87,1.38,1.65,2.82,2.89,4.95c-3.96-0.37-5.49-2.62-7.27-4.23
			c-10.77-9.73-23.02-17.08-36.22-22.97c-10.24-4.57-20.38-9.37-30.63-13.93c-4.13-1.84-8.53-3.06-12.62-4.98
			c-8.39-3.93-16.35-8.48-23.48-14.6c-7.6-6.53-15.8-12.36-23.71-18.52c-1.52-1.19-2.93-2.52-4.09-3.52
			c2.11-6.48,3.59-12.63,6.17-18.28c1.37-3,4.42-5.4,7.11-7.59c2.57-2.1,5.53-3.82,8.53-5.27c5.56-2.67,9.67-6.63,12.46-12.11
			C1301.49,1808.97,1302.75,1807.44,1304.02,1805.55z M1410.72,1924.01c-7.76-15.99-18.36-30.27-27.19-45.6
			c-8.69-15.1-19.4-28.68-30.27-42.13c-8.18-10.13-18.36-18.34-28.6-26.39c-4.32-3.39-8.33-7.17-12.45-10.8
			c-2.29-2.01-2.35-3.92-0.61-6.66c7.32-11.5,16.05-21.92,24.99-32.12c3.47-3.96,7.04-8.64,13.91-9.36c3.03,4.27,6.25,8.7,9.34,13.2
			c2.11,3.08,3.91,6.39,6.12,9.39c2.77,3.75,4.43,7.94,5.13,12.44c1.18,7.55,4.39,14.38,8.06,20.82
			c9.44,16.58,16.48,33.94,19.75,52.79c2.66,15.32,5.18,30.66,8.11,45.92c0.96,4.98,3.03,9.75,4.59,14.62
			c0.59,1.84,1.2,3.67,1.16,5.97C1412.07,1925.4,1411.12,1924.84,1410.72,1924.01z M1455.08,1982.01
			c-7.36-8.21-14.72-16.41-21.9-24.77c-2.29-2.67-4.27-5.67-6.02-8.73c-9.87-17.29-16.41-35.74-19.69-55.41
			c-2.33-14-4.88-27.97-7.92-41.83c-2.92-13.31-7.23-26.15-14.21-38.07c-3.85-6.57-7.6-13.36-8.87-21.14
			c-0.38-2.32-1.68-4.49-2.77-7.25c6.99,1.49,11.09,4.7,14.7,10.01c7.28,10.71,11.97,22.59,17.36,34.17
			c3.33,7.14,6.33,14.43,9.51,21.64c1.5,3.4,3.54,6,7.73,6.39c1.28,0.12,2.54,1.59,3.59,2.65c0.66,0.67,1.01,1.7,1.33,2.62
			c4.48,13.04,9.23,26.01,9.9,39.99c0.39,8.08,0.6,16.17,1.2,24.23c1.27,17.13,5.82,33.31,14.67,48.15
			c2.01,3.37,4.12,6.67,5.45,10.82C1457.77,1984.32,1456.25,1983.32,1455.08,1982.01z M1470.39,1636.94
			c8.56,1.97,13.2,13,15.97,22.07c12.42,40.77,4.95,101.16,5.17,151.46c0.11,25.82,0.91,56.57,0.91,56.57
			c0.14,6.39,0.32,12.77,0.56,19.16c0.9,23.64,2.62,47.25,4.31,70.85c0.89,12.38,2.47,24.71,3.75,37.06
			c1.45,13.92,2.91,27.84,4.34,41.77c0.03,0.29-0.32,0.62-0.71,1.32c-4.98-5.23-8.78-11.14-12.28-17.22
			c-8.07-14.05-17.71-27.01-27.23-40.09c-7.83-10.75-12.5-22.98-15.26-36.18c-3.21-15.38-2.2-31.07-4.71-46.44
			c-0.63-3.88-1.17-7.82-2.28-11.58c-1.84-6.21-4.15-12.28-6.17-18.44c-0.82-2.5-0.41-2.16-1.13-5.17
			c-3-12.38-5.57-14.64-6.68-15.46c-2.08-1.52-2.74-0.72-5.42-1.98c-6.25-2.94-6.88-9.32-13.95-24.23
			c-2.75-5.79-2.21-3.89-6.49-12.64c-6.04-12.35-6.19-14.43-9.9-18.78c-1.98-2.33-5.53-5.96-9.82-9.51
			c-2.23-1.85-2.53-1.38-3.63-2.85c-4.37-5.82-8.62-11.74-12.85-17.67c-2.02-2.84-3.89-5.79-6.32-9.41
			c0.83-0.49,1.49-0.95,2.21-1.29c11.84-5.53,19.63-15.63,28.16-24.89c1.2-1.3,2.46-2.57,3.53-3.98c1.84-2.41,4.09-3.59,7.17-2.9
			c3.27,0.73,5.7-0.64,7.8-3.06c5.43-6.24,11.15-12.21,14.95-19.75c1.44-2.86,4.53-4.91,5.88-7.79c2.84-6.04,4.9-12.44,7.54-18.59
			c2.64-6.16,5.04-12.52,8.53-18.18c2.22-3.6,4.97-6.39,8.16-8.38C1454.97,1640.44,1463.2,1635.29,1470.39,1636.94z
			 M1436.24,1617.36c8.51,1.57,16.64,4.52,24.37,9.73c-12,2.69-21.04,8.23-26.21,19c-1.95,4.07-3.61,8.28-5.54,12.36
			c-4.88,10.3-9.5,20.75-14.89,30.78c-2.76,5.13-6.9,9.53-10.52,14.18c-1.21,1.56-2.82,3.26-5,2.17c-4.76-2.38-7.42,0.67-10.06,3.63
			c-3.92,4.41-7.39,9.26-11.56,13.41c-5.7,5.68-11.8,10.95-17.87,16.24c-2.6,2.27-5.82,2.97-9.35,3.03
			c-3.69,0.05-7.37,0.76-11.79,1.27c0.42-1.77,0.43-3.13,1.03-4.14c5.94-10.09,9.7-21,12.72-32.25
			c2.86-10.64,5.29-21.56,11.71-30.77c10.89-15.63,20.35-32.43,34.76-45.3c7.11-6.35,15.45-11.07,24.77-13.26
			C1427.08,1616.43,1431.89,1616.56,1436.24,1617.36z M1277.02,1780.59c3.07-2.89,5.31-6.68,7.92-10.06
			c1.56-2.02,3.02-4.11,4.67-6.04c6.62-7.79,14.2-14.85,19.01-24.03c3.28-6.26,6.43-12.62,9.06-19.17
			c2.99-7.47,4.99-15.34,8.05-22.78c2.46-5.96,5.62-11.69,8.92-17.25c4.42-7.45,9.77-14.38,13.83-22c5-9.39,12.76-16.32,19.59-24.1
			c1.15-1.31,2.65-2.44,4.2-3.22c9.84-4.98,19.67-9.97,29.64-14.67c4.33-2.04,12.45-2.59,17.49-1.89c-0.56,0.43-0.94,0.91-1.42,1.08
			c-15.82,5.64-27.45,16.52-37.16,29.77c-5.81,7.93-11.7,15.81-17.35,23.87c-4.77,6.81-8.59,14.16-11.01,22.15
			c-2.17,7.15-3.88,14.44-6.25,21.53c-2.24,6.72-5,13.27-7.67,19.84c-1.85,4.56-4.09,8.97-5.88,13.55
			c-2.76,7.05-6.88,13.15-11.73,18.94c-6.43,7.67-12.5,15.65-18.45,23.71c-2.41,3.26-4.45,6.89-6.02,10.63
			c-2.68,6.4-6.6,11.58-12.59,15.13c-2.21,1.31-4.4,2.62-6.61,3.93c-6.66,3.95-11.86,9.45-14.51,16.63
			c-3.09,8.37-9.38,13.27-16.25,17.97c1.64-8.71,2.77-16.9,4.78-24.87c2.16-8.58,5.13-16.95,7.75-25.42
			c0.06-0.19,0.15-0.37,0.26-0.53C1265.04,1795.58,1269.92,1787.26,1277.02,1780.59z M1400.43,1608.24
			c-15.03,1.31-27.39,8.22-37.84,18.6c-4.57,4.54-8.25,9.99-12.3,15.07c-3.56,4.47-6.89,9.14-10.63,13.45
			c-13.07,15.06-20.92,32.7-26.39,51.67c-4.09,14.18-11.32,26.75-20.6,38.24c-4.19,5.19-7.79,10.88-11.55,16.42
			c-15.47,22.85-31.14,45.55-49.47,66.27c-2.86,3.23-5.17,6.94-7.67,10.48c-4.19,5.94-8.65,11.72-12.37,17.94
			c-2.29,3.82-3.52,8.3-5.04,12.55c-1.32,3.71-2.42,7.49-3.54,11.27c-1.35,4.53-4.08,7.57-9.19,8.55c-2.42-2.44-2.54-5-2.14-7.9
			c0.43-3.09,0.64-6.3,0.34-9.39c-0.55-5.64,0.36-11.02,2.12-16.3c1.62-4.86,3.55-9.62,5.19-14.48c1.73-5.12,1.78-10.1-2.2-14.35
			c-2.17-2.32-3.08-4.86-2.55-8.09c0.35-2.11-0.07-4.34,0.12-6.49c0.15-1.73,0.31-3.64,1.12-5.11c7.47-13.57,17.16-25.5,28.09-36.36
			c5.3-5.26,11.32-9.79,17.03-14.62c9.65-8.16,16.77-18.37,22.65-29.33c10.24-19.1,19.63-38.66,29.88-57.75
			c8.65-16.1,19.36-30.87,34.55-41.4c6.87-4.76,14.9-8.11,22.79-11.07c9.72-3.66,19.77-6.53,29.82-9.19
			c4.29-1.13,8.96-1.02,13.46-1.14c4.51-0.11,9.03,0.2,13.75,1.2C1405.39,1607.41,1402.93,1608.03,1400.43,1608.24z
			 M1478.65,1620.29c-3.61-2.88-7.65-4.73-12.14-5.84c-3.23-0.8-6.32-2.14-9.48-3.25c-10.67-3.74-21.69-5.66-32.92-6.47
			c-6.2-0.45-12.41-0.81-18.61-1.14c-5.11-0.28-10.23-0.52-15.35-0.65c-2.15-0.06-4.41-0.15-6.45,0.4
			c-8.34,2.26-16.74,4.41-24.89,7.26c-7.77,2.72-15.21,6.38-22.89,9.38c-13.84,5.41-23.32,15.89-31.87,27.34
			c-9.95,13.32-17.28,28.17-24.65,43.01c-7.88,15.87-15.7,31.78-25.43,46.64c-5.57,8.5-12.54,15.82-20.52,21.94
			c-14.6,11.2-26.31,24.83-35.91,40.4c-0.2,0.33-0.49,0.6-0.75,0.91c-2.37-3.52-2.7-4.53-0.82-7.7c4.82-8.11,9.72-16.19,14.91-24.07
			c2.52-3.83,3.8-7.55,2.77-12.14c-1.11-4.98,1.55-9.39,3.74-13.29c4.86-8.65,8-17.89,11.01-27.21c1.26-3.89,2.04-8.08,2.15-12.15
			c0.1-3.86,0.78-7.39,2.5-10.76c2.09-4.1,2.76-8.49,3.48-13c1.17-7.35,3.37-14.45,3.42-22.08c0.03-5.46,3.75-9.92,7.68-13.59
			c4.6-4.3,9.51-8.27,14.4-12.24c2.25-1.83,3.68-3.85,4.18-6.81c0.82-4.81,3.33-8.56,7.37-11.63c11.42-8.7,24.99-12.91,24.99-12.91
			c1.65-0.51,24.81-7.47,45.59-6.27c1.39,0.08,4.56,0.73,8.81,0.08c6.41-0.99,12.76-2.38,19.11-3.71c5.09-1.07,9.7-2.92,13.02-7.34
			c0.73-0.96,2.75-1.32,4.18-1.32c12.87,0.01,25.55,1.07,37.58,6.32c3.22,1.4,6.81,1.95,10.23,2.89c9.87,2.71,19.59,5.83,28.56,10.9
			c7.29,4.12,13.42,9.65,18.91,15.9c2.08,2.37,3.73,5,3.76,9.74C1484.48,1624.84,1481.54,1622.59,1478.65,1620.29z M1090.24,1278.86
			c3.66-2.09,9.02-6.35,19.06-7.27c7-0.64,13.84-2.58,20.72-3.64c5.8-0.9,10.58-3.88,16.12-5.05c3.92-0.83,7.68-3.03,11.14-5.2
			c3.16-1.98,6.3-3.28,9.99-2.81c10.15,1.3,20.29,2.69,30.43,4.03c3.71,0.49,7.54,0.51,11.11,1.48c10.82,2.96,21.56,6.22,32.28,9.52
			c1.34,0.41,3.01,1.56,3.46,2.77c2.88,7.78,4.96,15.68,4.16,24.21c0,0,0.27,13.74,5.42,28.52c3.19,9.16,7.63,15.98,10.9,20.32
			c-2.12-0.65-3.53-0.99-4.88-1.5c-3.86-1.46-7.74-2.87-11.51-4.52c-5.38-2.35-10.84-4.6-15.97-7.44
			c-8.61-4.76-17.11-9.74-25.39-15.05c-4.28-2.74-7.81-6.61-11.97-9.57c-9.76-6.93-20.86-11.08-32.28-14.22
			c-9.93-2.74-19.82-5.44-30.4-7.22c-12.04-2.03-28.45-3.91-48.24-3.55C1085.77,1281.65,1087.75,1280.29,1090.24,1278.86z
			 M1265.98,1351.1c-2.28,1.67-4.14,0.38-5.94-0.39c-6.51-2.76-13.03-5.52-19.5-8.37c-8.61-3.8-17.18-7.7-26.88-12.06
			C1222.7,1332.05,1258.18,1346.26,1265.98,1351.1z M1265.19,1324.72c4.26-4.23,9.73-8.97,16.53-13.51
			c4.85-3.23,9.49-5.78,13.68-7.78c-7.58,13.45-13.93,27.28-17.59,43.21C1273.61,1339.33,1269.4,1332.02,1265.19,1324.72z
			 M1025.13,1326.55c3.36-4.01,2.96-4.5,4.84-6.5c4.22-4.5,8.91-6.82,13.64-9.1c3.17-1.53,3.38-1.3,7.76-3.24
			c8.24-3.65,15.9-8.64,23.76-13.14c1.69-0.97,3.66-1.98,4.66-3.53c2.11-3.27,5.02-3.94,8.54-4.21c14.21-1.09,28.33-0.01,42.47,1.29
			c17.51,1.61,33.75,7.63,49.74,14.26c6.28,2.6,11.88,6.91,17.61,10.71c5.73,3.79,11.23,7.94,16.85,11.89
			c1.27,0.89,2.64,1.63,3.76,3.15c-1.95-0.39-3.9-0.8-5.85-1.16c-10.42-1.93-20.85-3.8-31.26-5.78c-4.82-0.92-9.57-2.2-14.4-3.02
			c-9.12-1.54-18.26-2.94-27.41-4.27c-9.26-1.34-18.45-0.35-27.65,0.86c-8.59,1.13-17.25,1.76-25.79,3.12
			c-6.59,1.05-13.1,2.71-19.55,4.46c-4.73,1.28-9.26,3.31-13.97,4.69c-7.76,2.27-15.43,4.65-22.63,8.48
			c-4.01,2.13-8.49,2.25-13.89,1.35C1019.63,1333,1022.41,1329.79,1025.13,1326.55z M1049.77,1353.68c0,0-7.1,0.71-18.18-2.44
			c-4.09-1.16-8.08-2.74-11.96-4.75c-1.47-0.76-2.6-2.2-4.51-3.88c1.9-0.76,3.05-1.61,4.21-1.62c7.38-0.11,13.65-3.42,19.97-6.65
			c1.4-0.72,2.76-1.66,4.25-2.03c17.52-4.42,34.4-11.2,52.67-12.89c14.92-1.38,29.78-3.21,44.77-2.35
			c13.81,0.79,27.3,3.71,40.67,7.14c5.52,1.42,11.03,2.9,16.52,4.43c1.44,0.4,2.81,1.09,4.21,1.65c-0.09,0.31-0.18,0.62-0.27,0.92
			c-0.57,0.08-1.17,0.3-1.71,0.2c-11.29-1.97-21.86,1.62-32.43,4.52c-9.67,2.65-19.11,6.13-28.73,8.98
			c-4.13,1.23-8.43,2.16-12.71,2.57c-10.63,1.03-18.22,1.49-22.9,1.53C1080.61,1349.22,1073.07,1353.76,1049.77,1353.68z
			 M1444.06,1435.74c12.66,7.23,22.81,17.36,31.74,28.76c1.03,1.32,1.61,3,2.4,4.52c-0.36,0.27-0.73,0.54-1.09,0.8
			c-2.45-1.93-4.84-3.93-7.36-5.75c0,0-2.97-2.17-6.86-4.33c-2.72-1.51-32.24-16.84-58.97-7.91c-2.44,0.82-4.38,0.95-10.18,3.63
			c-6.7,3.1-13.38,5.6-20.75,6.17c-8.61,0.67-17.2,1.55-25.82,2.02c-2.48,0.13-5.06-0.7-7.51-1.36c-2.7-0.73-4.63-2.08-5.94-5.05
			c0,0-0.43-0.83-4.66-6.25c-4.06-5.2-22.45-6.54-32.83-7.84c-20.04-2.5-16.87-5.63-31.77-6.5c-4.25-0.25-12.42-2.47-22.2-5.29
			c-2.15-0.62-4.22-2.21-5.87-3.81c-4.01-3.91-7.85-7.94-10.67-12.93c-1.69-2.98-4.24-5.47-6.54-8.34c0.03-0.02,0.45-0.57,0.87-0.58
			c16.79-0.19,33.29-3.24,49.94-4.82c15.72-1.49,31.54-2.32,47.14,0.54c11.77,2.16,23.54,4.7,34.73,9.23
			c20.57,8.33,42.14,12.65,63.98,15.83c4.27,0.62,8.73,0.75,12.76,2.13C1433.94,1430.45,1439.14,1432.93,1444.06,1435.74z
			 M1291.56,1365.37c8.3,3.55,17.12,5.96,25.2,9.91c10.41,5.09,20.29,11.28,30.44,16.9c3.78,2.09,7.59,4.18,11.57,5.81
			c13.3,5.43,26.72,10.54,40.01,15.99c7.41,3.04,14.64,6.51,21.65,10.76c-11.37-1.99-22.72-4.15-34.13-5.92
			c-11.83-1.84-22.61-6.81-33.63-10.98c-23.61-8.95-47.86-12.84-73.06-10.42c-18.21,1.76-36.42,3.72-54.67,4.96
			c-8.18,0.56-16.45-0.02-24.59-2.07c-11.21-2.82-22.77-4.25-33.65-8.42c-7.65-2.94-8.61-3.72-17.55-6.7
			c-9.11-3.03-10.33-2.76-19.94-5.93c-13.01-4.29-18.07-7.22-21.94-10.72c-4.19-3.78-7.18-8.52-7.45-14.92
			c5.38-0.82,10.78-2.22,16.22-2.38c15.85-0.45,30.35-6.28,45.27-10.54c8.88-2.53,17.93-4.5,26.96-6.51
			c2.27-0.51,4.71-0.36,7.06-0.28c5.5,0.19,11.01,0.41,16.5,0.86c2.31,0.19,4.7,0.68,6.83,1.58c13.26,5.57,26.59,11.02,39.62,17.09
			c5.25,2.45,9.84,6.32,14.62,9.7c0.4,0.29,0.48,1.94,1.74,3.02c1.54,1.33,3.97,1.64,5.95,1.06
			C1282.93,1366.56,1283.74,1362.03,1291.56,1365.37z M1280.88,1353.42c0.04-1.64-0.16-2.61,0.13-3.42
			c3.73-10.54,7.07-21.25,11.42-31.53c6.01-14.23,17.42-24.9,25.9-37.53c-1.04,17.74-3.81,34.93-8.91,51.73
			c-1.02,3.38-2.79,5.23-5.98,5.48c-4.23,0.33-7.12,2.51-10.07,5.33C1289.72,1346.97,1285.48,1349.82,1280.88,1353.42z
			 M1442.03,1419.64c-3.07-1.58-6.03-3.43-9.22-4.7c-9.88-3.92-19.85-7.61-29.78-11.39c-13.23-5.03-26.46-10.08-39.71-15.07
			c-1.64-0.62-3.4-0.94-5.13-1.24c-7.38-1.27-12.23-6.87-18.19-10.57c-3.97-2.47-7.65-5.54-11.87-7.42
			c-8.03-3.59-16.31-6.67-24.59-9.66c-2.86-1.03-6.05-1.18-10.17-1.93c1.81-1.47,2.75-2.29,3.74-3.03
			c6.77-5.04,14.06-9.22,21.53-13.13c0.87-0.45,1.77-0.92,2.49-1.57c5.66-5.16,4.7-5.39,12.64-0.86
			c10.58,6.03,21.24,11.94,31.73,18.13c12.41,7.33,23.42,16.22,33.31,26.95c7.38,8.01,16.86,14.11,25.59,20.83
			c5.29,4.07,10.95,7.67,16.41,11.53c0.75,0.53,1.29,1.37,1.93,2.07C1442.49,1418.93,1442.26,1419.28,1442.03,1419.64z
			 M1489.89,1457.6c-2.91-3.23-6-6.31-8.69-9.71c-3.13-3.96-9-9.21-17.1-16.15c-1.71-1.46-6.49-5.52-22.02-17.04
			c-20.24-15.01-20.44-14.79-26.93-20.14c-6.49-5.35-12.26-11.62-17.99-17.82c-5.41-5.84-11.12-11.08-18.42-14.5
			c-3.01-1.41-5.99-3.15-8.51-5.3c-5.93-5.06-12.7-8.75-19.8-11.53c-7.72-3.03-13.4-8.77-20.9-13.14c1.44-2.04,2.54-3.8,3.83-5.41
			c1.47-1.83,3.25-3.42,4.61-5.33c2.46-3.45,5.79-4.51,9.79-4.08c5.95,0.64,10.61,3.99,15.27,7.33c4.94,3.54,10.13,6.76,14.74,10.71
			c6.54,5.59,17.38,13.02,36.16,20.9c3.46,2.01,7.08,3.6,10.08,5.97c11.57,9.11,20.91,19.8,26.76,33.79
			c3.91,9.34,9.8,17.96,15.57,26.38c5.55,8.1,12.22,15.42,18.12,23.29c2.54,3.38,4.36,7.29,6.51,10.97
			C1490.61,1457.05,1490.25,1457.33,1489.89,1457.6z M1486.99,1154.7c1.3,0.29,3.26,0.74,4.84,1.49c7.06,3.35,8.98,13.85,9.58,17.49
			c5.93,35.59,4.66,63.66,4.66,63.66c2.48,26.81,2,53.57,1.43,80.37c-0.35,16.75-0.8,33.51-1.44,50.25
			c-0.42,11.02-1.35,22.02-1.83,33.04c-0.35,8.07,0,16.17-0.52,24.22c-0.74,11.37-1.99,22.71-3.11,34.97
			c-0.93-1.52-1.74-2.44-2.12-3.51c-3.48-9.71-8.35-18.58-15.23-26.36c-10.88-12.31-19.86-25.68-26.57-40.91
			c-4.01-9.1-9.4-18.07-17.48-24.84c-6.03-5.06-11.59-10.7-19.13-13.59c-1.44-0.55-2.95-1.45-4.38-1.37
			c-6.6,0.35-11.66-3.06-16.44-6.75c-10.44-8.04-20.59-16.46-31-24.54c-3.71-2.88-7.45-5.89-12.36-6.72
			c-0.89-0.15-1.68-0.89-2.97-1.6c3.58-10.89,4.16-22.45,9.45-32.82c3.22-6.31,5.79-12.95,8.94-19.3c2-4.04,4.1-8.17,6.94-11.6
			c3.32-4,7.43-7.37,11.36-10.82c0.94-0.83,2.53-1.25,3.83-1.27c3.32-0.05,5.36-1.43,7.02-4.39c3.85-6.83,7.41-14.02,12.4-19.96
			c4.17-4.96,4.94-10.31,5.89-16.07c1.08-6.6,6.42-10.02,11.6-12.6c8.07-4.03,14.94-9.25,21.45-15.45
			C1461.57,1156.48,1473.2,1151.62,1486.99,1154.7z M1431.26,1123.37c2.61-0.64,5.69,0.52,8.53,1.01c1.14,0.19,2.17,1.03,3.31,1.18
			c11.36,1.5,19.4,9.01,28.09,15.35c0.27,0.2,0.34,0.68,0.48,0.99c-6.2,2.63-12.39,4.63-17.94,7.76
			c-6.28,3.54-12.32,7.58-17.26,13.15c-2.25,2.54-5.76,3.99-8.79,5.78c-2.7,1.6-5.63,2.84-8.28,4.52c-5.87,3.71-9.03,8.98-9.23,16.1
			c-0.23,8.25-2.55,15.85-7.89,22.4c-1.73,2.12-2.92,4.67-4.44,6.97c-1.78,2.7-3.84,5.32-7.48,4.87c-5.31-0.65-8.48,2.46-11.42,6.01
			c-2.24,2.7-4.26,5.58-7.19,8.17c0.94-6.24,1.6-12.54,2.9-18.7c1.38-6.54,2.7-13.02,3.63-19.68c1.07-7.68,3.6-15.36,6.73-22.49
			c4.82-10.98,11.27-21.11,19.15-30.28c2.03-2.36,3.48-5.26,4.93-8.05C1413.78,1129.41,1422.1,1125.6,1431.26,1123.37z
			 M1372.63,1173.94c4.88-9.37,10.08-18.62,15.74-27.54c3.13-4.94,7.27-9.32,11.4-13.53c2.77-2.83,6.69-3.84,11.19-3.23
			c-4.05,5.29-8.44,10.36-12.07,15.92c-4.29,6.58-8.09,13.5-11.8,20.43c-2.97,5.55-6.16,11.14-8.01,17.09
			c-2.21,7.09-3.12,14.59-4.56,21.92c-0.23,1.16-0.15,2.37-0.38,3.53c-2.54,12.52-4.92,25.07-7.79,37.52
			c-0.95,4.13-3.15,7.98-4.82,11.94c-0.3,0.72-0.89,1.32-1.15,2.05c-3.69,10.12-7.36,20.26-11.01,30.4
			c-0.33,0.92-0.71,1.91-0.68,2.86c0.18,7.85-4.9,11.64-11.25,14.07c-3.38,1.29-5.52,3.49-7.47,6.32
			c-3.68,5.35-7.46,10.63-11.4,15.78c-1.13,1.48-2.94,2.45-5.3,4.35c0.21-2.31,0.12-3.61,0.46-4.78
			c3.92-13.25,6.08-26.74,7.32-40.52c1.13-12.61,4.49-18.45,7.38-26.52c5.43-15.16,7.47-14.21,23.38-46.35
			C1355.27,1208.61,1359.26,1199.62,1372.63,1173.94z M1382.76,1138.02c-9.72,11.37-15.22,22.05-18.05,27.95
			c-9.49,19.8-40.71,93.91-46.96,108.05c-0.29,0.65-8,12.28-16.05,21.84c-0.86,1.02-2.08,1.83-3.27,2.47
			c-5.33,2.9-10.92,5.4-16.02,8.65c-4.61,2.94-8.71,6.67-13.04,10.04c-1.34,1.04-2.71,2.05-4.3,3.24
			c-3.25-4.23-5.68-8.11-6.04-13.08c-0.45-6.07-0.94-12.05-0.66-18.22c0.3-6.53-1.51-13.16-2.42-19.75
			c-0.11-0.77-0.5-1.53-0.52-2.29c-0.3-11.13,1.39-21.15,10.93-28.99c11.26-9.26,23.1-17.68,34.83-26.29
			c1.9-1.39,3.61-3.02,5.47-4.47c1.51-1.18,3.15-2.18,4.64-3.38c1.82-1.46,3.94-2.76,5.25-4.61c4.27-6.04,9.55-11.19,13.44-17.68
			c4.24-7.07,8.16-14.28,12.29-21.39c4.62-7.98,11.29-14.86,19.13-19.79c5.01-3.15,11.27-4.36,17.01-6.3
			c2.9-0.98,5.9-1.67,8.86-2.49c0.21,0.29,0.41,0.58,0.62,0.87C1386.74,1133.58,1384.9,1135.52,1382.76,1138.02z M1488.91,1135.26
			c-3.16-1.4-6.48-2.51-9.43-4.26c-5.24-3.11-10.31-6.52-15.35-9.95c-8.01-5.44-16.95-8.13-26.43-9.4
			c-11.5-1.55-21.51,2.32-31.41,7.7c-5.1,2.77-10.94,4.57-16.67,5.72c-10.2,2.05-19.73,5.95-28.37,11.26
			c-6.93,4.26-12.85,10.37-17.52,17.32c-5.49,8.17-11.13,16.24-16.31,24.6c-9.16,14.78-20.78,27.07-35.13,36.93
			c-8.74,6-17.17,12.46-25.54,18.98c-3.35,2.61-6.14,5.94-10.12,8.51c0.29-0.98,0.57-1.96,0.86-2.93c0.46-1.58,0.85-2.72,0.92-2.91
			c1.55-4.77,3.46-17.92,8.38-30.42c1.04-2.65,0.97-1.66,3.08-7.09c2.14-5.5,4.36-10.97,6.42-16.5c3.14-8.46,8.2-15.71,14.19-22.32
			c13.69-15.13,17.8-14.6,25.99-28.21c2.37-3.94,3.94-7.37,8.08-11.95c1.98-2.19,6.81-7.62,14.89-11.44
			c6.64-3.14,14.14-4.64,21.4-6.27c6.12-1.38,12.41-2.14,18.67-2.79c3.23-0.33,5.58-1.57,7.47-4.07c2.75-3.65,6.21-4.79,10.85-3.92
			c7.54,1.41,15.24,1.95,22.78,3.37c3.99,0.75,7.78,2.59,11.67,3.92c12.96,4.43,24.48,11.67,36.32,18.33
			c6.72,3.78,13.2,7.8,18.65,13.31c0.93,0.94,1.66,2.06,2.49,3.1C1489.44,1134.33,1489.17,1134.79,1488.91,1135.26z M1855.5,776.1
			c3.81,0.93,7.67,1.72,11.44,2.8c2.41,0.68,4.7,1.76,7.91,3c-4.81,3.43-9.62,4.45-14.19,5.18c-14.16,2.26-28.41,3.97-42.62,5.88
			c-2.53,0.34-5.08,0.53-7.6,0.92c-7.17,1.11-14.33,2.31-21.51,3.41c-0.58,0.09-1.24-0.36-2.21-0.67
			c4.47-5.47,9.87-8.67,15.63-11.28c6.09-2.77,12.29-5.3,18.46-7.9C1832.2,772.63,1843.81,773.23,1855.5,776.1z M1664.59,616.5
			c1.15-0.78,1.81-2.27,2.69-3.44c0.2,0.19,0.4,0.38,0.59,0.57c-2.05,4.42-3.94,8.93-6.19,13.25c-3.29,6.34-3.75,12.84-1.36,19.45
			c1.22,3.37,0.95,6.49,0.04,9.82c-4.32,15.78-8.54,31.58-12.75,47.39c-0.61,2.28-0.88,4.65-1.39,6.96
			c-0.85,3.81-0.71,7.31,1.91,10.6c4.28,5.38,3.48,10.5-0.27,16.19c-10.37,15.74-23.74,28.92-35.87,43.15
			c-7.14,8.39-14.74,16.41-21.49,25.1c-7.05,9.07-12.06,19.36-15.5,30.39c-7.35,23.51-14.77,47.01-22.26,70.48
			c-3.95,12.37-8.09,24.67-13.29,36.91c-0.09-0.76-0.37-1.55-0.26-2.28c1.55-10.5,2.92-21.03,4.82-31.46
			c1.62-8.9,3.85-17.7,5.83-26.53c0.69-3.06,1.49-6.1,2.14-9.17c2.34-11.14,4.56-22.31,6.84-33.45c3.82-18.7,8.68-37.12,13.64-55.49
			c2.95-10.96,7.95-21.4,12.4-31.91c4.91-11.61,10.04-23.15,15.47-34.52c3.64-7.64,7.97-14.95,12-22.4
			c1.22-2.25,2.54-4.46,3.67-6.76c5.29-10.77,9.98-21.88,15.94-32.26c5.45-9.49,10.5-19.31,18.7-27.15
			C1655.28,625.46,1659.16,620.2,1664.59,616.5z M1625.03,625.33c2.74-0.3,5.6-0.81,8.24-0.32c6.93,1.29,12.77-1.12,18.48-4.47
			c0.96-0.56,2.02-0.95,3.53-0.78c-1.56,1.66-2.98,3.49-4.71,4.95c-7.87,6.67-12.5,15.63-17.36,24.4
			c-4.2,7.57-7.93,15.4-11.94,23.08c-4.64,8.9-9.36,17.76-14.06,26.63c-0.34,0.65-0.85,1.21-1.28,1.82
			c-0.41-0.19-0.83-0.39-1.24-0.58c1.28-6.34,2.64-12.67,3.83-19.03c0.94-5.02,1.79-10.05,2.47-15.11
			c1.45-10.93,2.67-21.9,4.17-32.82C1615.7,629.11,1620.01,625.87,1625.03,625.33z M1538.04,716.37c1.23-0.34,2.17-0.86,3.08-0.81
			c6.45,0.4,10.14-3.51,13.17-8.36c6.87-11.03,13.57-22.17,20.53-33.15c3.37-5.32,7.09-10.43,10.75-15.56
			c3.55-4.97,7.17-9.9,10.89-14.74c4.21-5.48,9.02-10.25,16.57-13.09c-0.55,5.31-0.92,9.92-1.51,14.5
			c-0.99,7.61-1.96,15.22-3.23,22.79c-1.37,8.14-3.09,16.22-4.62,24.33c-0.47,2.51-0.59,5.11-1.25,7.57
			c-1.53,5.67-2.69,11.54-5.08,16.85c-5.18,11.48-11,22.67-16.61,33.95c-4.82,9.69-9.62,19.39-14.58,29.01
			c-6.45,12.5-10.36,25.9-14.1,39.36c-5.12,18.39-10.08,36.81-15.07,55.24c-0.86,3.17-1.46,6.4-2.19,9.6
			c-0.34-0.06-0.67-0.11-1.01-0.17c0.77-6.58,1.57-13.16,2.31-19.75c2.45-21.6,0.26-42.81-4.73-63.92
			c-3.65-15.45-3.76-31.19-2.34-47.02C1530.15,740.26,1535.81,728.8,1538.04,716.37z M1373,791.62
			c9.69,8.64,19.46,17.22,29.43,25.54c2.46,2.06,5.75,3.23,8.82,4.41c1.33,0.51,3.28,0.51,4.53-0.1c3.46-1.69,6.13-0.45,8.59,1.74
			c9.68,8.63,19.81,16.78,28.54,26.43c3.16,3.49,5.8,7.45,8.78,11.11c4.59,5.64,9.32,11.16,13.88,16.83
			c1.2,1.49,1.97,3.33,2.99,4.98c6.29,10.13,9.15,21.32,9.73,33.08c0.21,4.28-0.6,8.62-1.06,12.92c-0.1,0.94-0.5,1.97-1.07,2.73
			c-2.16,2.89-4.44,5.69-7.15,9.13c-4.52-4.9-7.88-10.65-11.07-16.51c-2.73-5.01-5.87-9.86-8.02-15.11
			c-4.61-11.26-10.05-22.14-14.28-33.61c-4.88-13.25-11.02-26.16-22.43-35.52c-9.12-7.49-18.24-14.97-27.19-22.66
			c-6.84-5.88-13.25-12.27-20.18-18.04c-5.05-4.2-9.22-9.51-15.3-12.47c-0.99-0.48-1.74-1.45-2.37-2.52
			C1363.74,785.38,1368.68,787.76,1373,791.62z M1484.08,957.15c-18.69-21.29-38.38-42.92-59.12-64.8
			c-16.64-17.55-33.15-34.42-49.47-50.61c22.02,21.44,44.05,42.88,66.07,64.33c3.64,3.69,7.3,7.55,10.97,11.57
			C1464.7,931.02,1475.14,944.35,1484.08,957.15z M1239.33,753.22c1.13-0.71,3-0.6,4.46-0.37c5.43,0.85,10.84,1.88,16.24,2.9
			c2.32,0.44,4.86,0.54,6.89,1.59c10.08,5.25,21.38,6.66,31.91,10.47c2.57,0.93,5.17,2.07,7.41,3.61
			c6.58,4.51,13.71,4.91,20.85,2.48c5.96-2.03,11.08-0.42,15.61,2.73c8.06,5.6,15.81,11.68,23.44,17.87
			c6.56,5.33,12.72,11.16,19.15,16.65c8.98,7.67,18.2,15.07,27.01,22.92c6.15,5.49,12.53,10.98,17.49,17.49
			c6.16,8.08,10.98,17.13,14.07,27.05c1.92,6.16,5.41,11.84,7.33,18.01c2.02,6.51,5.54,12.13,8.77,17.95c1.99,3.58,4.25,7,6.38,10.5
			c-0.29,0.27-0.58,0.54-0.87,0.81c-2.51-2.43-5.05-4.83-7.51-7.3c-9.7-9.77-19.33-19.61-29.07-29.35
			c-14.04-14.04-28.13-28.02-42.26-41.97c-1.8-1.78-3.86-3.34-5.99-4.72c-6.24-4.04-12.57-7.95-18.88-11.89
			c-4.17-2.6-8.31-5.27-12.58-7.71c-4.27-2.44-8.72-4.55-13.01-6.96c-7.7-4.33-15.26-8.9-23.01-13.13
			c-4.82-2.63-9.88-4.81-14.82-7.22c-10.95-5.36-21.88-10.74-32.82-16.11c-1.24-0.61-2.42-1.4-3.72-1.79
			c-11.12-3.38-20.18-10.47-29.88-16.41c-0.46-0.28-0.72-0.9-1.19-1.52C1233.83,757.38,1236.43,755.05,1239.33,753.22z
			 M1183.74,768.98c2.65-0.39,5.19-1.45,7.79-2.17c3.76-1.04,7.51-2.15,11.3-3.05c4.21-1,8.46-1.79,12.7-2.67
			c3.18-0.66,5.95-0.18,9,1.41c10.13,5.26,20.61,9.84,30.78,15.03c10.16,5.18,20.06,10.87,30.17,16.14
			c3.76,1.96,7.81,3.35,11.74,5.01c-0.1,0.07-0.2,0.15-0.3,0.22c-7.85-1.59-15.97-2.42-23.49-4.98c-6.98-2.38-14.07-3.6-21.21-4.88
			c-2.44-0.44-5.09-0.2-7.57,0.21c-16.61,2.76-33.21,3.38-49.68-0.68c-2.96-0.73-5.52-2.94-8.37-4.2
			c-6.09-2.69-12.26-5.21-18.96-8.04C1172.61,772.06,1177.81,769.86,1183.74,768.98z M1209.06,810.86
			c-4.48-3.19-8.81-6.6-13.37-9.66c-5.56-3.72-11.29-7.19-16.96-10.75c-2.8-1.76-5.57-3.54-7.75-7.49c2.53,0.57,4.25,0.72,5.78,1.34
			c4.92,2,9.79,4.1,14.63,6.29c6.94,3.14,14.02,4.68,21.77,3.97c11.57-1.05,23.19-1.83,34.8-1.91c6.41-0.05,12.92,1.14,19.24,2.48
			c8.05,1.71,15.96,4.11,23.91,6.28c2.66,0.72,5.3,1.55,7.87,2.51c1.19,0.44,2.2,1.34,4.13,2.56c-4.08,1.2-7.21,1.45-10.4,0.75
			c-7.28-1.61-14.43-1.19-21.58,0.86c-8.68,2.5-17.31,5.45-26.17,7.03C1232.71,817.3,1220.22,818.8,1209.06,810.86z M1229.32,821.31
			c0.09-0.53,0.19-1.05,0.28-1.58c3.52-0.11,7.14,0.24,10.55-0.43c7.31-1.45,14.53-3.35,21.75-5.2c10.73-2.74,21.38-4.99,32.66-3.29
			c5.95,0.9,12.17-0.12,18.15,1.56c2.44,0.69,5.03,0.92,7.45,1.65c19.21,5.82,35.38,16.95,50.68,29.46
			c13.9,11.37,25.8,24.78,37.91,37.97c5.95,6.48,12.72,12.2,18.93,18.45c5.4,5.44,10.44,11.23,15.82,16.69
			c5.25,5.33,10.99,10.2,16.03,15.72c6.22,6.82,12.08,13.99,17.82,21.22c3.8,4.78,5.58,10.32,4.21,17.08
			c-1.13-0.63-2.29-0.92-2.92-1.66c-6.2-7.35-12.32-14.77-18.43-22.2c-0.87-1.06-1.68-2.19-2.32-3.39
			c-2.67-5.01-6.46-7.81-12.34-6.45c-5.95-6.41-11.61-12.94-17.75-19c-4.98-4.92-10.44-9.37-15.85-13.84
			c-6.51-5.39-13.02-10.82-19.86-15.78c-3.78-2.74-8.15-4.76-12.44-6.69c-1.84-0.83-4.33-1.25-6.2-0.72
			c-3.59,1.01-6.09-0.54-8.69-2.38c-10.11-7.15-20.23-14.3-30.33-21.45c-8.35-5.92-16.59-12.02-25.1-17.7
			c-4.23-2.82-8.82-5.26-13.53-7.15c-2.35-0.94-5.46-0.71-8.06-0.19c-10.79,2.16-21.44,2.68-32.04-0.97
			c-6.68-2.3-13.44-4.38-20.11-6.71C1233.42,823.58,1231.41,822.34,1229.32,821.31z M1508.71,1110.27
			c-0.18,2.91-0.94,5.79-1.44,8.68c-0.28,0.17-0.56,0.34-0.84,0.51c-1.17-3.26-2.78-6.44-3.42-9.8c-0.95-4.94-6.04-17.52-8.77-24.9
			c-7.9-21.38-9.15-26.36-14.84-37.51c-0.17-0.34-0.76-1.45-1.92-3.66c-6.39-12.21-12.18-24.79-19.33-36.53
			c-8.68-14.26-18.59-27.67-29.47-40.5c-10.74-12.66-22.01-24.7-34.21-35.86c-7.09-6.49-14.84-12.28-22.48-18.14
			c-6.55-5.03-13.19-9.95-20.08-14.49c-9.03-5.95-18.27-11.6-27.58-17.11c-3.87-2.29-8.12-3.96-12.25-5.8
			c-7.72-3.44-15.63-6.48-23.17-10.27c-7-3.52-13.58-7.88-20.42-11.73c-3.59-2.02-7.44-3.59-11.01-5.65
			c-3.31-1.92-6.41-4.22-9.59-6.35c0.13-0.38,0.26-0.75,0.4-1.13c1.24-0.12,2.57-0.59,3.72-0.32c10.52,2.5,21.11,1.76,31.62,0.34
			c5.21-0.71,9.71-0.08,13.98,2.97c9.28,6.62,18.51,13.33,28,19.63c4.23,2.81,8.49,5.48,12.36,8.81
			c5.96,5.13,12.07,10.09,18.25,14.95c3.67,2.89,7.93,4.58,12.7,3.59c3.58-0.74,6.66,0.38,9.5,2.13
			c5.51,3.39,11.17,6.63,16.19,10.65c7.67,6.14,14.89,12.84,22.22,19.4c6.64,5.94,12.11,12.89,17.02,20.31
			c2.08,3.15,4.49,5.34,8.76,4.03c2.67-0.82,4.89,0.42,6.9,2.35c12.29,11.75,23.21,24.44,31.52,39.49
			c7.55,13.67,14.63,27.48,19.36,42.36c2.55,8.03,4.74,16.2,6.46,24.44c1.6,7.69,3.12,15.54,3.29,23.35
			C1510.37,1089.07,1509.36,1099.69,1508.71,1110.27z M1516.61,1001.95c-0.79,7.81,0.08,15.77-0.16,23.65
			c-0.28,9.23-0.96,18.46-1.47,27.68c-0.28,0.07-0.56,0.14-0.84,0.21c-0.55-2-1.33-3.97-1.59-6.01c-0.56-4.48-0.66-9.02-1.34-13.47
			c-0.38-2.48-1.47-4.88-2.37-7.26c-2.35-6.25-4.82-12.45-7.15-18.7c-7.31-19.65-13.61-39.51-12.3-60.93
			c0.2-3.24,0.54-6.3,2.64-8.87c5.65-6.93,4.64-14.54,4.96-15.51c3.31-10.16-1.7-22.39-4.88-40.2c-5.78-32.35-0.46-44.44-0.27-63.75
			c0.04-4.24,1.26-8.54,2.49-12.64c0.49-1.65,2.23-3.72,3.79-4.13c5.43-1.46,7.32-5.84,8.85-10.21c1.81-5.19,2.63-10.72,4.16-16.02
			c4.08-14.18,8.08-28.4,12.64-42.44c1.34-4.14,4.46-7.7,7.55-11.14c-1.4,7.86-2.85,15.72-4.2,23.59
			c-3.48,20.25-2.87,40.32,1.68,60.41c4.77,21.05,7.11,42.27,3.59,63.92c-1.45,8.9-1.04,18.09-1.82,27.11
			c-0.59,6.83-1.62,13.64-2.66,20.42c-1.29,8.37-3.07,16.66-4.16,25.05C1521.17,962.42,1518.62,982.16,1516.61,1001.95z
			 M1532.68,961.82c-0.21,1.56-0.27,3.14-0.29,4.72c-0.25,16.74-0.54,33.48-0.7,50.22c-0.17,18.6-5.28,42.47-12.52,56.82
			c-1.16-2.81-0.97-5.25-0.85-7.58c0.63-12.39,1.59-24.76,2-37.16c0.31-9.45-0.05-18.92-0.11-28.38c-0.01-1.57-0.21-3.16-0.03-4.71
			c1.09-9.37,2.2-18.75,3.45-28.1c0.73-5.46,1.78-10.87,2.64-16.31c2.05-13.01,3.09-26.16,7-38.88c1.96-6.36,2.64-13.12,4-19.67
			c3.23-15.62,5.34-31.6,10.09-46.75c6.01-19.14,9.66-39.06,18.1-57.43c2.44-5.32,4.8-10.67,7.2-16c0.34,0.19,0.67,0.37,1.01,0.56
			c-1.71,4.36-3.7,8.62-5.06,13.08c-2.64,8.65-5.15,17.35-7.3,26.14c-3.09,12.62-5.94,25.3-8.63,38
			c-2.28,10.77-4.09,21.64-6.32,32.42c-1.63,7.89-3.74,15.68-5.37,23.57c-1.39,6.74-2.53,13.54-3.53,20.35
			C1535.76,938.41,1534.24,950.11,1532.68,961.82z M1537.46,970.27c-1.02-5.61-0.71-10.8,1.38-16.14
			c4.15-10.62,7.58-21.53,11.13-32.39c5.37-16.47,10.6-32.98,15.86-49.48c3.53-11.07,7.1-22.14,10.52-33.24
			c4.49-14.57,12.2-27.29,22.16-38.69c5.57-6.37,11.6-12.34,17.18-18.7c6.73-7.67,13.21-15.57,19.78-23.38
			c4.91-5.84,9.81-11.69,14.72-17.53c0.44,0.2,0.87,0.4,1.31,0.6c-0.64,3.44-1.1,6.92-1.95,10.3c-1.66,6.67-3.52,13.3-5.32,19.94
			c-0.93,3.42-2.01,6.8-2.82,10.25c-1.91,8.15-5.02,15.59-10.41,22.23c-2.91,3.58-4.69,8.19-6.5,12.54
			c-3.15,7.58-9.04,12.81-14.91,18.05c-1.18,1.05-3.2,1.58-4.85,1.59c-4.47,0.05-6.93,2.53-8.31,6.33
			c-5.03,13.89-10.28,27.67-17.35,40.7c-1.75,3.23-2.23,7.13-3.54,10.64c-5.17,13.82-10.32,27.65-15.74,41.37
			c-2.31,5.85-5.17,11.5-7.97,17.15c-1.32,2.66-3.48,3.87-7.25,8.48C1541.46,964.73,1539.05,968.02,1537.46,970.27z M1588.89,940.7
			c-8.02,14.65-16.05,29.3-24.42,43.75c-5.71,9.86-12.01,19.38-18.01,29.08c-1.76,2.84-3.4,5.76-5.09,8.64
			c-0.94,1.61-1.89,3.22-2.96,5.05c0.65-10.06,0.88-19.62,2-29.08c0.94-7.96,2.93-15.81,4.44-23.7c0.58-3.02,2.44-4.65,5.26-5.79
			c1.86-0.76,3.87-2.11,4.88-3.76c2.42-4,4.56-8.23,6.34-12.57c4.34-10.55,8.61-21.14,12.52-31.86c3.64-9.98,6.76-20.15,10.16-30.21
			c0.5-1.48,1.05-3.07,2.01-4.26c7.3-9.02,10.98-19.92,15.77-30.23c1.61-3.46,3.79-6.02,7.4-7.05c7.39-2.11,11.57-7.35,14.26-14.13
			c1.44-3.63,6.53-7.43,10.32-7.17c4.31,0.3,6.86-2.48,9.6-4.97c6.11-5.55,11.63-11.92,18.36-16.56
			c7.71-5.32,16.34-9.38,24.81-13.51c9.76-4.77,20.27-7.37,30.86-9.6c3.14-0.66,3.14-0.67,6.8,1.66c-4.07,4.65-9,8-14.06,11.25
			c-10.89,6.99-21.95,13.76-32.42,21.33c-9.06,6.55-17.83,13.64-25.97,21.29c-6.57,6.17-12.02,12.32-23,24.54
			c-5.71,6.36-7.1,8.11-8.43,9.92c-3.09,4.22-4.58,9.88-12.64,24.05c-5.6,9.84-8.99,20.53-12.93,31.03
			C1593.09,932.23,1591.14,936.58,1588.89,940.7z M1652.12,862.97c-11.2,9.7-21.23,20.49-29.98,32.5
			c-4.17,5.72-8.85,11.07-13.25,16.62c-2.69,3.39-5.26,6.87-7.92,10.29c-0.54,0.7-1.21,1.3-2.57,1.54c0.16-0.69,0.24-1.41,0.48-2.07
			c6.39-17.25,14.01-34.02,24.75-48.9c9.2-12.73,19.42-24.83,32.14-34.53c8.77-6.69,16.91-14.19,25.49-21.13
			c3.2-2.59,6.74-4.81,10.31-6.9c11.56-6.78,22.63-14.25,33.11-22.59c0.89-0.71,2.02-1.38,3.11-1.53
			c8.85-1.24,15.59-6.4,21.97-12.02c8.15-7.18,17.59-12.01,27.8-15.12c5.76-1.75,11.95-2.22,17.99-2.94
			c6.44-0.76,12.04,1.46,16.85,5.71c3.64,3.22,7.24,6.48,11.53,10.34c-2.72,1.58-4.88,3.27-7.33,4.17
			c-8.52,3.14-16.7,6.94-24.44,11.68c-1.01,0.62-2.24,0.96-3.08,1.75c-7.79,7.36-17.61,10.14-27.65,12.55
			c-4,0.96-7.86,2.47-11.82,3.63c-18.24,5.34-35.7,12.63-51.85,22.57c-9.5,5.85-19.31,11.37-27.53,19.24
			C1664.56,853.27,1658.06,857.82,1652.12,862.97z M1586.59,968.82c4.33-7.71,8.78-15.35,13.09-23.07
			c4.02-7.2,7.7-14.61,11.94-21.68c3.63-6.05,8.33-11.5,11.66-17.69c3.44-6.4,9.68-9.69,14.31-14.7
			c7.47-8.08,15.86-15.39,22.68-23.97c7.04-8.86,14.64-17.02,23.34-24.1c4.69-3.81,10.2-6.64,15.42-9.77
			c3.88-2.32,8.01-4.24,11.85-6.63c9.48-5.9,20.14-8.9,30.46-12.73c1.11-0.41,2.31-0.65,3.34-1.2c11.62-6.25,24.35-8.55,37.12-11.12
			c9.18-1.85,18.45-0.91,27.56-2.54c1.16-0.21,2.36-0.19,3.52-0.39c10.64-1.81,21.29-3.62,31.93-5.5
			c6.58-1.16,13.13-2.51,19.71-3.67c7.35-1.29,14.75-1.02,22.27-0.31c-6.69,2.12-16.88,5.09-29.55,7.74
			c-16.83,3.52-15.97,1.86-25.2,4.47c-19.12,5.42-26.98,13.72-41.46,17.58c-4.54,1.21-8.86,3.17-13.42,4.32
			c-2.71,0.69-5.11,1.59-7.32,3.1c-1.54,1.05-2.52,2.07-2.79,2.35c-2.9,2.93-17.21,15.55-30.34,23.67
			c-15.35,9.5-35.07,16.61-37.83,17.91c-2.11,1-1.94,0.78-3.77,1.56c-11.32,4.77-18.56,7.82-25.33,12.48
			c-4.08,2.81-9.97,6.95-14.94,14.43c0,0,0,0.01,0,0.01c-4.23,11.2-1.26,17.34-4.93,23.19c-0.58,0.92-2.34,2.33-5.86,5.13
			c-6.48,5.17-10.15,7.07-15.18,10.2c-7.24,4.51-13.76,9.74-19.51,16.12c-3.38,3.74-7.58,7.08-12.03,9.42
			c-4.2,2.22-7.16,5.37-10.18,8.71c-0.5,0.55-1.05,1.04-2.47,1.11C1585.31,971.78,1585.81,970.22,1586.59,968.82z M1767.91,1736.56
			c-7.21-0.01-9.23,2.01-22.71-3.05c-13.55-5.08-27.41-4.72-41.41-2.97c-6.82,0.86-13.66,1.57-20.43,2.72
			c-3.85,0.66-7.58,2.05-11.35,3.15c-1.32,0.39-2.58,1.16-3.91,1.29c-15.8,1.61-28.58,9.64-40.42,19.34
			c-5.91,4.84-11.12,10.54-16.77,15.71c-1.4,1.28-3.19,2.45-5,2.91c-8.94,2.3-17.95,4.34-27.97,6.71c0.92-1.98,1.34-3.63,2.31-4.83
			c7.41-9.17,14.43-18.72,22.55-27.22c7.96-8.34,16.9-15.73,26.99-21.65c10.52-6.17,20.85-12.69,30.97-19.5
			c7.5-5.05,15.9-6.43,24.48-7.7c5-0.74,26.6-4.52,56.05,5.13c24.24,7.95,41.07,20.71,48.87,26.83
			C1784.35,1735.1,1776.77,1736.57,1767.91,1736.56z M1903.69,1743.49c-5.9-0.66-11.58-0.99-17.43,1.26
			c-7.71,2.96-15.99,2.48-23.98,1.28c-11.28-1.69-22.52-3.61-33.47-7.16c-5.73-1.86-12.01-1.96-17.99-3.11
			c-4.23-0.81-8.37-2.1-12.57-3.08c-1.33-0.31-2.72-0.31-4.09-0.45c-0.74,0.25-1.52,0.5-2.34,0.74
			c-4.77-4.64-14.4-12.49-26.32-18.96c-12.92-7.01-24.2-10.25-31.31-11.94c-6.31-1.5-12.69-3.16-19.12-3.66
			c-7.62-0.59-15.33-0.02-23.01,0.06c-1.55,0.02-3.1,0.09-4.89-0.81c4.03-1.1,8.02-2.35,12.09-3.28c17.6-4.04,35.42-5.61,53.35-3.23
			c7.57,1,14.92,3.56,22.42,5.17c5.93,1.27,11.94,2.19,17.91,3.26c1.34,0.24,2.8,0.22,4.02,0.75c8.1,3.55,16.38,6.78,24.14,10.97
			c7.55,4.08,15.5,6.9,23.62,9.22c11.16,3.19,22.58,5.47,33.76,8.59c8.53,2.38,16.88,5.39,25.27,8.25c2.78,0.95,5.25,2.54,7.17,5.96
			C1908.13,1743.4,1905.88,1743.73,1903.69,1743.49z M1906,1725.98c2.41,3.25,4.39,6.82,6.68,10.43
			c-8.49-2.69-16.41-5.43-24.46-7.69c-12.69-3.56-25.52-6.64-38.21-10.23c-9.85-2.78-19.65-5.76-28.55-11.11
			c-3.68-2.21-7.67-3.9-11.51-5.82c0.07-0.4,0.15-0.79,0.22-1.19c15.91,0.59,31.86,0.75,47.72,1.97c7.37,0.57,14.54,3.4,21.87,4.88
			C1891.36,1709.57,1899.28,1716.95,1906,1725.98z M1801.63,1634.94c1.01,3.05,8.27,7.53,35.21,13.85c0,0,13.17,6.38,29.22,14.1
			c3.49,1.68,6.05,4.32,8.01,7.63c1.9,3.22,4.21,6.26,5.72,9.65c1.33,2.98,2.14,6.3,2.6,9.55c0.68,4.83,0.85,9.74,1.3,15.36
			c-5.08-1.18-10.24-2.31-15.36-3.59c-11.22-2.8-22.71-1.97-34.09-2.65c-7.08-0.43-14.3,0.26-21.24-0.88
			c-7.11-1.16-14.37-3.08-20.85-6.16c-18.74-8.89-38.21-12.49-58.93-12.12c-20.65,0.37-40.32,5.22-59.32,12.1
			c-19.06,6.91-36.75,17.16-53.15,29.23c-8.54,6.29-16.32,13.6-24.65,20.18c-6.71,5.3-12.33,11.55-17.5,18.29
			c-0.89,1.16-2.11,2.05-3.94,2.55c0.6-1.33,1.01-2.79,1.82-3.98c10.31-15.36,20.5-30.81,31.09-45.97
			c6.8-9.73,16.32-16.61,26.78-21.86c10.71-5.37,21.68-10.3,32.83-14.69c7.84-3.09,16.2-4.8,24.25-7.41
			c11.03-3.57,21.82-7.55,31.88-13.68c10.4-6.33,21.74-11.12,32.41-17.05c8.78-4.88,18.4-6.79,27.97-8.9
			c3.39-0.74,7.08-0.54,14.2,0.97C1801.05,1630.15,1801.43,1634.35,1801.63,1634.94z M1547.04,1767.4
			c2.77-8.46,4.38-12.6,6.09-17.18c6.1-16.41,16.62-29.23,22.58-34.38c0.57-0.49,2.24-1.46,3.75-3.51c3.39-4.59,6.73-9.22,9.9-13.97
			c2.94-4.39,5.67-8.92,8.46-13.42c4.99-8.06,15.64-23.91,31.59-38.07c4.6-4.09,9.46-7.88,15.93-11.17
			c3.32-1.69,8.02-3.06,17.56-5.16c3.07-0.68,6.63-0.94,8.9,2.59c1.55,2.42,4.18,2.06,6.46,1.59c6.35-1.32,12.85-2.32,18.93-4.45
			c13.03-4.55,26.64-5.07,40.1-6.71c7.21-0.88,14.4-2.32,21.63-2.51c9.8-0.26,19.63,0.34,29.43,0.79c1.48,0.07,2.91,1.32,4.37,2.03
			c-0.1,0.4-0.21,0.8-0.31,1.21c-4.79,0.62-9.65,0.96-14.37,1.95c-5.35,1.13-10.97,2.06-15.78,4.47
			c-14.78,7.39-28.94,16.07-43.91,23.03c-11.36,5.28-23.59,8.72-35.45,12.93c-7.97,2.83-16.16,5.12-23.93,8.43
			c-9.21,3.92-18.13,8.56-27.08,13.08c-12.59,6.36-22.56,15.73-30.43,27.35c-7.94,11.73-15.94,23.43-23.59,35.35
			c-3.92,6.12-7.21,12.65-10.63,19.07c-2.21,4.14-9.78,16.62-21.98,29.95c-5.18,5.66-6.35,6.13-7.03,5.81
			C1534.81,1804.85,1542.49,1781.33,1547.04,1767.4z M1772.63,1291.9c-4.7,4.15-9.85,7.82-14.95,11.49
			c-1.16,0.83-2.96,1.03-4.48,1.04c-5.5,0.04-11-0.11-17.06-0.21c-3.21-2.63-6.41-5.26-9.62-7.88c-0.24-0.47-0.48-0.93-0.73-1.4
			c9.64-9.92,20.09-18.99,31.85-26.37c11.76-7.38,24.81-11.46,38.79-12.64C1789.73,1268.58,1783.81,1282.03,1772.63,1291.9z
			 M1795.31,1175.77c0.76-0.42,1.75-1.48,3.19-1.38c5.06,0.35,10.23,0.45,15.12,1.61c7.63,1.8,15.19,4.06,22.55,6.74
			c5.41,1.97,8.43,4.56,19.56,12.7c26.82,19.62,27.14,20.83,26.9,21.26c-0.97,1.78-13.7-5.8-37.49-11.46
			c-12.91-3.07-22.89-4.14-29.69-4.77c-13.97-1.31-20.95-1.97-29.91-0.34c-10.68,1.94-18.8,6.03-23.78,9
			C1771.63,1199,1784.96,1181.52,1795.31,1175.77z M1634.42,1345.08c-5.05,1.62-8.66,5.25-12.72,8.35
			c-3.87,2.96-8.03,5.6-12.27,8.01c-4.17,2.37-8.32,0.38-12.87-0.91c1.92-8.46,3.69-16.9,5.77-25.26c1.76-7.06,3.94-14,5.78-21.04
			c0.73-2.79,1.02-5.69,1.53-8.54c0.57-3.2,2.12-5.79,4.42-8.15c3.18-3.28,8.79-8.08,12.74-9.7c3.47-1.42,5.85-3.81,7.82-6.88
			c3.18-4.98,6.9-9.64,9.66-14.84c3.26-6.15,5.51-12.84,8.62-19.08c3.82-7.65,6.7-15.86,13.22-21.99c3.56-3.35,6.36-7.5,9.69-11.11
			c1.57-1.7,3.45-3.26,5.47-4.38c3.09-1.72,5.16-0.24,4.44,3.3c-0.97,4.81-2.47,9.52-3.73,14.27
			c-5.14,19.43-15.18,36.64-24.27,54.31c-3.38,6.57-5.78,13.74-7.89,20.85c-3.59,12.06-6.63,24.29-9.81,36.47
			C1639.2,1341.89,1637.41,1344.12,1634.42,1345.08z M1680.28,1307.09c-5.14,6.88-12.21,11.59-19.03,16.55
			c-4.92,3.58-9.99,6.98-15.69,10.95c-0.42-1.58-0.99-2.9-1.05-4.24c-0.05-1.13,0.53-2.27,0.8-3.42
			c4.49-18.81,10.35-37.02,20.09-53.97c5.97-10.39,10.9-21.47,15.29-32.63c3.51-8.93,5.46-18.48,8.23-27.71
			c0.66-2.2,1.38-4.73,2.91-6.25c5.37-5.32,9.04-11.76,13.15-17.98c6.29-9.51,14.88-16.67,25.19-21.69
			c6.38-3.11,12.75-5.36,20.19-5.52c6.36-0.13,12.46-0.14,18.78,0.97c4.85,0.85,9.46,2.25,14.18,3.38c4.23,1.02,6.8,3.53,9.6,7.13
			c-2.43,1.9-4.87,3.87-7.31,5.94c-13.98,11.84-25.37,24.33-34.66,36.43c-1.25,0.94-3.01,2.3-4.89,4.18
			c-1.51,1.51-2.92,3.12-4.27,4.76c-8.61,10.51-16.93,21.28-25.01,32.2c-10.54,14.25-20.74,28.76-31.08,43.17
			C1683.88,1301.91,1682.17,1304.56,1680.28,1307.09z M1685.15,1308.12c1.96-6.37,5.26-10.75,8.4-15.07
			c15.36-21.16,30.86-42.21,46.45-63.2c2.4-3.24,5.52-5.94,8.31-8.9c0.34,0.36,0.68,0.72,1.02,1.08
			c-5.29,7.03-10.79,13.92-15.8,21.15c-3.1,4.48-5.37,9.52-8.2,14.2c-3.75,6.2-7.49,12.42-11.58,18.4
			c-5.43,7.95-11.35,15.57-16.74,23.54C1694.2,1303.43,1690.1,1305.24,1685.15,1308.12z M1721.02,1293.89
			c-0.61,0.49-1.25,1.08-1.97,1.28c-5.46,1.5-10.93,2.92-16.97,4.51c0.34-3.4,2.26-5.42,3.76-7.46c10.4-14.1,19.33-29.09,27.98-44.3
			c6.25-11,14.43-20.64,23.56-29.41c2.41-2.32,4.83-4.63,7.39-6.78c7.3-6.13,16.23-7.84,25.3-8.72c14.26-1.39,28.27,0.64,42.19,3.63
			c1.53,0.33,3.09,0.6,4.65,0.73c12.59,1.09,23.97,5.73,34.63,12.18c2.83,1.71,5.64,3.21,8.77,2.79c4.97-0.66,7.92,1.24,9.6,5.74
			c0.26,0.71,0.83,1.3,1.43,2.2c-11.04,3.97-20.06-0.14-28.17-5.94c-8.62-6.17-16.85-5.09-25.52-0.93
			c-1.42,0.68-2.81,1.47-4.29,1.96c-4.84,1.58-8.64,4.51-11.92,8.36c-2.39,2.81-9.14,7.94-16.32,12.26
			c-6.1,3.67-11.31,5.57-17.82,7.95c-9.16,3.35-10.94,2.95-16.8,5.14c-14.12,5.28-25.41,14.84-36.68,24.43
			C1729.64,1287.06,1725.31,1290.45,1721.02,1293.89z M1576.07,1429.72c7.58-12.76,19.53-20.79,31.45-28.93
			c7.3-4.99,14.22-10.56,21.14-16.07c6.61-5.27,13.12-10.7,19.47-16.29c5.45-4.8,10.91-9.66,15.85-14.96
			c8.18-8.79,15.8-18.09,23.98-26.88c2.48-2.67,5.83-4.7,9.1-6.43c8.83-4.68,17.83-9.05,27.24-13.78c0.92,5.75,4.81,6.19,9.17,6.68
			c13.1,1.49,25.92-0.37,38.76-2.47c2.13-0.35,4.27-0.65,6.42-0.83c5.29-0.44,10.58-0.97,15.88-1.16
			c11.58-0.41,23.17-0.65,34.76-0.93c9.44-0.22,18.88-0.57,28.32-0.54c6.75,0.02,12.55,3.18,18.01,6.8
			c2.46,1.63,4.63,3.77,4.72,7.12c0.28,10.03,7.04,14.33,15.34,17.02c6.12,1.99,12.37,3.56,18.97,5.44
			c-9.72,0.92-18.85,1.74-27.97,2.69c-2.92,0.31-5.79,1.19-8.71,1.44c-6.65,0.56-13.21,1.05-19.94-0.51
			c-4.87-1.13-10.15-0.61-15.24-0.59c-17.22,0.06-34.2,2.19-50.73,7.05c-6.4,1.88-12.79,4.16-18.74,7.15
			c-7.62,3.83-15.92,4.32-23.95,6.09c-1.33,0.29-3.19-1.05-4.55-2c-1.09-0.75-1.85-2.01-2.67-3.12c-2.27-3.08-4.63-3.37-8.59-2.36
			c-35.9,9.15-54.03,21.85-54.03,21.85c-3.48,1.85-14.09,6.82-35.3,16.78c-21.8,10.23-27.21,13.32-37.42,18.82
			c-6.91,3.72-13.23,8.53-19.81,12.86c-4.9,3.24-9.79,6.51-15.49,10.3C1571.58,1435.06,1574.37,1432.58,1576.07,1429.72z
			 M1549.7,1507.67c2.63,13.4-0.21,25.86-6.54,37.53c-3.74,6.88-8.45,13.23-12.76,19.79c-3.1,4.71-6.28,9.37-9.42,14.05
			c-0.38-0.11-0.77-0.23-1.15-0.34c0.27-3.29,0.58-6.58,0.79-9.88c0.37-5.88,0.58-11.77,1.04-17.64c1-12.86,1.46-13.26,2.66-31.14
			c0.79-11.78,0.9-18.61,5.95-25.68c1.16-1.63,2.12-3.1,4.05-4.58c8.52-6.55,16.28-14.21,26.92-19.29
			c-1.41,6.3-1.89,12.46-5.91,17.02C1550.05,1493.49,1548.23,1500.13,1549.7,1507.67z M1617.09,1438.87
			c-8.14,13.88-13.54,29.26-23.1,42.38c-3.12,4.29-5.68,8.99-8.72,13.34c-6.97,9.99-14.14,19.84-21.11,29.83
			c-2.8,4-5.31,8.2-8.04,12.45c0.76-6.3,1.7-12.31,2.11-18.36c0.24-3.48,0.21-7.21-0.77-10.5c-1.65-5.5,0.36-9.85,3.66-13.52
			c2.96-3.29,4.22-6.8,4.94-11.02c0.93-5.4,2.06-10.94,4.3-15.88c1.88-4.15,4.81-6.35,7.97-8.96c7.78-6.44,13.19-6.49,23.64-11.75
			c3.6-1.81,8.88-4.78,14.86-9.47C1617.03,1438.49,1617.16,1438.74,1617.09,1438.87z M1692.25,1419.98
			c-9.5,9.82-20.4,17.9-31.62,25.64c-5.97,4.12-11.6,8.82-16.97,13.71c-5.64,5.13-5.53,5.88-2.53,13.61
			c-3.82,3.39-7.62,7.37-12.02,10.52c-5.59,4.01-11.7,7.28-17.51,11c-7.6,4.87-15.12,9.87-23.56,15.39c3.27-5,6.25-9.16,8.82-13.56
			c5.55-9.5,11.2-18.97,16.2-28.75c3.92-7.67,7.15-15.71,10.29-23.74c2.6-6.65,7.8-10.95,13.25-14.64
			c3.78-2.56,8.71-3.44,13.14-5.03c3.46-1.24,7.27-1.87,10.37-3.71c8.12-4.81,16.55-6.73,25.91-5.1c2.98,0.52,6.16-0.1,10.31-0.23
			C1694.63,1417.16,1693.53,1418.66,1692.25,1419.98z M1920.29,1403.53c-2.41-0.07-4.85,0.04-7.23-0.25
			c-12.69-1.55-25.38-3.08-38.04-4.86c-6.98-0.99-13.89-2.5-20.84-3.72c-4.07-0.71-8.14-1.66-12.24-1.92
			c-14.54-0.9-29.06-1.86-43.65-0.17c-12.7,1.47-25.53,1.9-38.24,3.31c-8,0.89-15.87,2.95-23.84,4.11
			c-6.77,0.99-13.62,1.44-21.29,2.22c-6.16,0.37-14.3,1.05-23.82,2.43c-8.12,1.17-21.98,1.81-37.37,8
			c-15.15,6.09-30.22,12.45-44.98,19.44c-9.93,4.7-19.24,10.71-28.84,16.1c-1.79,1-3.66,1.85-5.5,2.77
			c-0.31-0.37-0.63-0.74-0.94-1.11c1.11-1.39,1.96-3.17,3.37-4.11c9.48-6.34,19.1-12.47,28.62-18.74c2.62-1.72,5.06-3.72,7.64-5.51
			c8.52-5.9,18.72-8.15,27.88-12.66c4.68-2.3,5.29-2.45,11.23-5.15c17.35-7.88,24.97-9.79,43.54-18.72c0.01-0.01,0.09-0.04,0.1-0.05
			c33.63-19.5,41.79-16.41,42.81-15.37c0.43,0.43,0.87,0.94,0.87,0.94c0.69,0.76,1.73,2.03,3.08,4.18c1.7,2.7,4.01,3.65,7.05,3.02
			c5.35-1.11,10.65-1.7,15.72-4.56c4.66-2.63,10.3-3.86,15.66-4.86c18.12-3.4,36.37-2.57,54.61-1.03c1.62,0.14,2.96,0.63,4.05,1.44
			c1.45,1.08,2.02,2.42,2.38,3.08c2.09,3.86,8.15,5.03,14.04,6.1c4.64,0.84,7.47,0.31,10.97,1.06c10.55,2.26,21.09,4.69,31.44,7.72
			c3.6,1.05,6.82,3.81,9.88,6.21c2.13,1.67,3.48,4.33,5.59,6.04c1.86,1.51,4.29,2.32,6.47,3.44
			C1920.42,1402.73,1920.36,1403.13,1920.29,1403.53z M1990.65,1418.66c-6.9-2.77-13.76-5.65-20.73-8.26
			c-2.55-0.96-5.37-1.17-8.02-1.89c-7.39-2.01-15.07-3.39-22.06-6.36c-7.03-2.98-13.89-6.37-21.04-9.12
			c-1.67-0.64-3.35-2.27-4.2-3.88c-2.54-4.8-6.87-7.07-11.61-8.5c-7.14-2.16-12.96-4.61-21.05-5.53
			c-19.81-2.26-30.39,1.47-33.99-4.35c-1.69-2.73-0.21-4.92-2.59-7.65c-2.78-3.19-7.28-3.06-13.4-3.16
			c-9.71-0.16-19.4-2.29-29.09-1.63c-4.99,0.34-10.01,0.35-15.27-0.54c4.44-1.32,8.83-2.8,13.31-3.92
			c16.96-4.25,34.27-4.91,51.63-4.62c5.65,0.1,11.27,1.64,16.91,1.73c4.67,0.07,9.37-1.02,14.05-1.6c8.21-1.02,16.4-2.57,24.64-2.87
			c5.81-0.21,11.91,0.57,17.49,2.2c9.91,2.91,14.86,8.19,16.8,22.48c0.37,2.73,0.63,5.48,0.82,8.23c0.33,4.86,2.62,8.63,6.37,11.54
			c4.53,3.51,9.2,6.5,15.05,7.77c5.34,1.16,10.92,2.71,15.48,5.56c4.93,3.08,8.92,7.77,11.74,13.02
			C1991.47,1417.75,1991.06,1418.21,1990.65,1418.66z"/>
	</g>
</g>
</svg>
