<svg xmlns="http://www.w3.org/2000/svg" xmlns:xlink="http://www.w3.org/1999/xlink" width="1920" height="348" viewBox="0 0 1920 348">
  <defs>
    <clipPath id="clip-Web_1920_1">
      <rect width="1920" height="348"/>
    </clipPath>
  </defs>
  <g id="Web_1920_1" data-name="Web 1920 – 1" clip-path="url(#clip-Web_1920_1)">
    <rect width="1920" height="348" fill="#fff"/>
    <g id="Group_3" data-name="Group 3" transform="matrix(0.995, 0.105, -0.105, 0.995, -484.017, -8.373)">
      <g id="gentle-within-16" transform="matrix(0.326, 0.946, -0.946, 0.326, 1441.61, -837.387)">
        <rect id="Rectangle_2" data-name="Rectangle 2" width="1307.143" height="1307.143" fill="none"/>
        <g id="Group_2" data-name="Group 2" transform="translate(435.71 66.489)">
          <g id="Group_1" data-name="Group 1">
            <path id="Path_1" data-name="Path 1" d="M435.592,489.814a4.373,4.373,0,0,0-2.3-2.658,3.856,3.856,0,0,0-1.826-.344c-4.849.174-9.8-.279-14.54.518-10.945,1.834-21.781,4.314-32.679,6.431a49.673,49.673,0,0,0-18.91,7.577c-4.523,3.1-9.215,5.961-13.581,9.263-5.568,4.213-11.712,7.956-15.768,13.751-4.911,7.024-11.934,11.673-18.047,17.341a18.449,18.449,0,0,1-3.316,1.778c.776-1.46,1.015-2,1.333-2.492,4.135-6.388,8.1-12.823,10.888-19.991,2.972-7.647,6.544-15.063,9.7-22.64,2.218-5.329,4.309-10.719,6.231-16.156,1.821-5.159,3.032-10.549,5.072-15.612,3.586-8.88,7.512-17.629,11.464-26.352,2.88-6.361,6.022-12.6,9.059-18.888,4.427-9.172,8.832-18.352,13.3-27.5,2.466-5.05.244-9.359-2.919-12.845a3.093,3.093,0,0,0-4.828-.279c-4.17,3.76-8.47,7.425-12.278,11.533-6.309,6.8-12.235,13.952-18.387,20.892-12.235,13.795-23.9,28.025-33.28,43.968a58.417,58.417,0,0,0-4.758,10.3c-6.148,17.6-9.734,35.8-12.387,54.216a43.587,43.587,0,0,1-1.189,5.8c-1.956,6.754-2.823,9.372-4.793,15.668-3.111,9.956-2.867,12.745-6.453,21.921-.183.466-2.418,6.165-2.876,6.017-.584-.192,3.455-9.394,4.244-21.842.192-3-.07-1.442-.993-20.448-.266-5.464-.466-10.932-.837-16.387q-.477-7.039-1.29-14.056c-.9-7.7-1.791-15.4-2.967-23.062-1.246-8.1-2.919-16.139-4.226-24.234-1.2-7.425-2.009-13.42-2.715-19.812-.845-7.647-1.268-11.468-1.155-13.564.383-7.137,3.991-13.294,11.189-25.315a238.327,238.327,0,0,1,17.877-25.794c2.915-3.69,6.5-6.9,9.107-10.784,7.233-10.767,12.684-22.535,17.973-34.326,3.756-8.374,7.865-16.448,13.551-23.677,4.985-6.34,10.048-12.623,14.858-19.093a66.072,66.072,0,0,1,20.832-18.117c5.137-2.906,3.625-1.9,27.354-14.605,0,0,7.638-4.087,23.01-17.385,1.569-1.355,4.88-4.287,4.187-6.81-.536-1.961-3.255-2.815-4.906-3.316-5.233-1.582-9.869-.152-13.163.266a48.358,48.358,0,0,0-20.06,7.15c-5.49,3.521-10.435,7.886-15.673,11.8-4.375,3.272-8.632,6.649-13.725,8.919-5.821,2.592-11.734,5.242-16.98,8.793a269.5,269.5,0,0,0-27.86,21.333,99.749,99.749,0,0,0-19.916,23.572,30.564,30.564,0,0,0-3.386,7.455c-2.117,7.751-5.211,15.167-6.6,23.2-1.155,6.666-3.673,13.207-6.357,19.472-6.636,15.5-10.069,31.877-14.013,48.133-.261,1.072-.614,2.126-1.155,3.965a16.117,16.117,0,0,1-.545-2.135q-.791-15.941-1.534-31.89c-.148-3.259-.078-3.621-.139-9.115-.083-7.481-.126-11.224-.017-13.2.261-4.828,1.468-9.18,3.861-17.686a190.728,190.728,0,0,1,6.148-19.354c3.05-7.83,4.187-8.8,10.758-23.01,4.331-9.359,6.466-14.052,7.455-17.01,3.2-9.551,3.669-19.359,4.292-29.149.379-6-.684-12.1-1.05-18.152-.065-1.1-.122-4.091-.131-6.81-.048-13.49,1.869-18.256,2.218-29.973.213-7.211.545-18.348-2.562-19.158-2.7-.7-6.78,6.688-8.03,8.958-5.085,9.215-5.821,17.359-7,26.117-1.128,8.37-1.547,16.775-4.575,26-6.4,19.494-10.322,22.335-13.124,39.9-1.778,11.146-1.12,19.8-1.586,19.8-.649,0-1.094-16.692-1.259-22.975-.227-8.553-.048-12.017-.292-17.812-.475-11.4-1.359-22.783-1.621-34.186-.266-11.612,2.235-22.975,4.2-34.343a120.664,120.664,0,0,1,4.47-16.692c2.357-7.224,5.237-14.274,7.669-21.472,3.786-11.22,7.289-22.539,11.093-33.755,4.152-12.239,8.527-24.457,10.745-37.2,3.468-19.9,1.817-20.344,4.706-45.34.876-7.564-1.1-11.991-1.656-18.313-.091-1.02-.3-3.394-1.856-4.226-1.534-.824-3.569.318-4.274.632Q286.9,2.35,285.057,6.75c-4.2,9.934-7.647,20.165-12.658,29.8C266.862,47.2,261.411,57.9,256.915,69.11c-4.81,12-10.1,23.742-12.435,36.578a266.654,266.654,0,0,0-4.531,41.685,235.218,235.218,0,0,0,1.15,28.592c.571,5.385,1.211,9.128,1.373,10.069,1.39,8.017,2.889,10.575,3.4,15.172.832,7.516-.336,8.13-.392,21.184-.03,6.893.27,12.766.8,23.088.213,4.209.3,6.313.527,9.1.532,6.514,1.342,13.01,1.686,19.537.675,12.732.065,17.359.405,24.348.1,2.183.4,4.736.959,9.847,1.185,10.784,2.061,16.13,1.643,16.213-.336.065-1.055-3.359-3.725-10.462-.344-.911-.924-2.531-1.717-4.353-1.442-3.3-2.806-5.6-4.95-10.161a140.694,140.694,0,0,1-7.847-21.184c-2.592-9.442-.806-7.956-4.1-22.5-2.118-9.346-4.6-16.67-5.969-21.5-.579-2.039-1.525-3.978-2.087-6.017a174.646,174.646,0,0,0-9.451-25.646c-2.758-6.087-5.642-12.217-7.425-18.618-2.523-9.063-4.231-18.361-6-27.616-1.316-6.88-2.248-13.847-5.137-20.291-1.865-4.157-3.765-8.531-8.374-10.409-7.181-2.919-10.749-1.8-10.871,6.745-.1,7.455.209,14.914,2.065,22.213.375,1.468.479,3,.793,4.488.815,3.852,1.455,7.76,2.571,11.525,2.257,7.616,4.27,15.259,3.939,23.285-.118,2.85.122,4.226.161,5.913.222,8.945,2.776,19.084,11.289,36.417,6.44,13.106,6.462,10.793,15.594,27.829,4.592,8.566,9.128,17.2,13,26.1a129.071,129.071,0,0,0,14.034,24.513c9.891,13.577,13.939,28.866,15.3,45.192.458,5.455.989,10.9,1.364,16.361.466,6.767.806,13.542,1.2,20.313-3.176-3.765-5.181-7.978-7.843-11.725-5.808-8.161-11.947-16.091-17.965-24.1-1.826-2.431-3.7-4.823-5.538-7.246-5.555-7.333-9.337-15.673-13.468-23.807q-4.954-9.758-9.655-19.642c-2.218-4.653-4.235-9.4-6.379-14.1-.758-1.66-1.725-3.229-2.4-4.919-7.464-18.692-20.182-33.079-36.456-44.526-7.812-5.494-15.59-11.058-23.672-16.135a147.475,147.475,0,0,0-16.548-8.518A7.267,7.267,0,0,0,106,224.254c-1.438,2.152-.832,5.124,1.608,8.335,1.564,2.057,3.094,4.144,4.536,6.287a123.893,123.893,0,0,0,21.6,23.982c5.237,4.592,9.991,9.756,14.775,14.84,4.51,4.793,7.682,10.5,10.771,16.3,6.584,12.352,13.5,24.526,20.2,36.818,3.351,6.144,6.588,12.37,11.376,17.546,11.472,12.4,22.57,25.162,35.275,36.36,3.08,2.715,6.431,5.194,9.159,8.231,11.812,13.154,19.054,28.7,23.224,45.772,2.091,8.566,4.47,17.08,6.143,25.729a226.435,226.435,0,0,1,3.878,26.618c1.717,23.764.876,28.661,3.29,59.248.5,6.3,1.473,17.537,1.246,17.559a118.092,118.092,0,0,0-3.407-20.073,79.783,79.783,0,0,0-13.093-26.936,52.544,52.544,0,0,0-9.167-9.39c-5.512-4.379-10.662-9.041-14.522-14.936a53.313,53.313,0,0,1-4.322-8.44c-3.477-8.235-6.762-16.548-10.191-24.805-1.451-3.5-3.233-6.862-4.6-10.392-2.627-6.806-5.063-13.69-7.586-20.54-.261-.715-.379-1.651-.9-2.061a5.092,5.092,0,0,0-2.993-1.338c-.658.039-1.6,1.307-1.791,2.165-.784,3.555-1.473,7.146-1.935,10.758-1.821,14.209-.309,28.265,2.427,42.195,1.686,8.592,5.764,16.352,9.751,24.051,3.006,5.8,5.956,11.8,9.991,16.866,1.769,2.218,3.595,4.4,5.455,6.54,8.518,9.825,15.485,17.215,16.3,18.069,10.126,10.675,15.49,15.511,15.146,15.908-.571.649-14.231-13.254-29.48-19.533-1.464-.6-6.161-2.553-12.466-5.577-3.155-1.512-6.274-3.128-9.263-4.937-4.671-2.828-9.56-5.446-13.738-8.9-6.54-5.407-12.967-10.989-18.4-17.633A80.415,80.415,0,0,0,165,499.556c-5.93-5.207-12.3-9.917-18.073-15.285-7.943-7.394-16.684-13.708-25.581-19.812-3.359-2.3-7.181-3.935-10.81-5.843-4.03-2.122-8.043-4.283-12.126-6.3q-10.4-5.124-20.884-10.061a15.5,15.5,0,0,0-4.1-.763c-3.107-.492-4.667-.728-5.15-.344-1.686,1.338.911,7.716,3.529,12.553,4.078,7.525,8.867,12.518,16.278,20.248,1.782,1.856,3.669,3.734,6.161,5.891a91.134,91.134,0,0,0,8.5,6.392c12.727,8.706,24.613,18.418,34.3,30.552,9.211,11.533,18.614,22.814,29.772,32.657,7.716,6.806,15.69,13.084,24.775,17.747,15.337,7.878,31.829,10.875,49.009,10.074,7.019-.327,13.965-.6,20.587,2.544a12.872,12.872,0,0,1,2.052,1.216h0a14.027,14.027,0,0,1,4.283,5.111c3.521,7.189,2.366,19.977,2.366,19.977-1.555,17.267.619,4.126-2.222,34.739-.806,8.7-1.211,13.054-1.664,16.47-1.141,8.579-2.492,15.429-3.943,25.328-1.922,13.106-1.333,10.954-2.331,16.518-2.536,14.135-6.871,32.561-7.586,35.572-.61,2.579-1.076,4.405-2.009,8.061-2.7,10.614-4.649,18.213-5.316,18.091-.776-.139,1.015-10.544.17-21.481-.048-.623-.161-1.887-.335-4.261-.275-3.734-.514-7.472-.789-11.207-.915-12.44-6.457-23.712-9.015-35.742-.946-4.457-2.532-8.78-3.438-13.241-1.752-8.645-3.063-17.385-4.906-26.008a43.74,43.74,0,0,0-3.634-9.228c-.828-1.752-2.44-2.684-5.08-2.078-.9,3.873-2.192,7.921-2.741,12.069-1.756,13.259-3.416,26.539-4.767,39.846-.758,7.455,1.146,19.5,5.512,33.079a216.6,216.6,0,0,0,17.516,39.824c2.043,3.442,4.422,7.146,5.673,12.893,1.464,6.727.658,12.919-.44,21.367-.471,3.621-.932,7.059-1.569,7.063-1.089,0-.806-9.987-4.836-23.786-.431-1.481-1.643-5.438-3.664-10.422a130.111,130.111,0,0,0-9.987-19.3c-8.736-14.814-8.109-13.882-15.036-30.6a61.355,61.355,0,0,0-16.1-22.9c-4.775-4.226-9.847-8.122-14.8-12.152a41.682,41.682,0,0,0-5.381-4.183c-9.512-5.416-18.971-10.949-28.7-15.938-10.936-5.6-20.483-13.028-29.515-21.193-3.608-3.259-6.71-7.08-10.335-10.318a52.3,52.3,0,0,0-8.858-6.34c-2.976-1.7-4.932-.924-6.252,2.126-1.181,2.732-2.776,5.564-3,8.592-.353,4.819,2.532,8.287,6.7,14.326,2.911,4.222,7.756,12.793,17.934,29.642,1.412,2.34,2.662,4.8,4.257,7.006,3.651,5.054,7.507,9.956,11.215,14.971a95.955,95.955,0,0,0,24.553,22.853c9.119,6.061,18.226,12.213,26.77,19.032,9.381,7.486,18.256,15.629,27.08,23.781,7.372,6.81,14.374,14.026,21.489,21.115,2.043,2.039,3.948,4.226,5.834,6.418,1.255,1.46,1.342,2.619,2.161,4.422,3.1,6.823,6.527,10.614,6.126,10.95-.575.475-5.769-8.71-15.32-10.762-2.88-.619-5.063-.3-8.27.03a45.482,45.482,0,0,0-19.529,6.941,29.488,29.488,0,0,1-13.677,4.518c-1.512.118-3.028.218-4.544.279A29.663,29.663,0,0,0,161,815.924c-4.235,2.113-7.233,5.5-10.422,8.758a45.328,45.328,0,0,0-4.44,4.579,3.657,3.657,0,0,0-.357,3.324c1.033,1.93,5.294.8,13.586.044,9.233-.841,11.734-.148,22.945-1.638.911-.122,1.6-.222,1.9-.261,10.8-1.556,20.37-2.928,30.286-6.627a51.344,51.344,0,0,1,13.372-2.261c3.791-.222,6.139,3.329,5.285,7.093-.671,2.963-1.481,5.9-2.174,8.858-2.61,11.1-4.889,22.243-8.544,33.11-4.409,13.111-7.952,26.509-11.93,39.763-.706,2.357-1.712,4.627-2.579,6.936a66.287,66.287,0,0,1-5.037-12.662,49.533,49.533,0,0,0-10.61-19.5,136.69,136.69,0,0,0-29.955-25.132c-6.876-4.165-14.557-6.989-21.459-11.111a43.638,43.638,0,0,0-19.751-6.117c-3.163-.227-6.1-.1-7.886,3.451,1.054,3.172,1.66,6.754,3.359,9.708a33.256,33.256,0,0,0,11.834,11.795c4.013,2.436,7.817,5.229,11.612,8,6.989,5.115,13.891,10.348,20.849,15.5,6.466,4.789,13.08,9.385,19.4,14.357,4,3.141,6.553,7.555,9.041,11.973-6.161-2.95-12.823-2.963-19.145-4.427a44.663,44.663,0,0,0-18.448-.336c-9.215,1.677-18.749.85-27.925,3.643-7.263,2.213-12.666,2.675-20.753,4.7-19.707,4.941-29.559,7.416-37.7,11.141A121.642,121.642,0,0,0,38.8,949.383a89.034,89.034,0,0,0-17.511,18.4c-3.56,5.089-7.072,10.213-10.8,15.176A120.842,120.842,0,0,0,.458,999.691a9.929,9.929,0,0,0-.458,3.1c4.131.967,7.642.636,11.15-1.516,3.481-2.135,7.294-3.73,10.954-5.573,2.714-1.368,5.621-2.462,8.1-4.178,9.912-6.893,14.052-10.841,24.422-17.559A94.648,94.648,0,0,1,73.209,964.7c10.941-4.126,15.328-3.547,25.11-6.209,12.03-3.272,14.082-.693,30.313-14.23,11.355-9.477,25.128-11.908,39.419-11.42,6.348.218,12.692,1.5,18.954,2.723,2.767.54,5.852,1.1,7.9,3.608a83.957,83.957,0,0,0-7.751,4.148c-3.39,2.279-6.292,5.4-9.878,7.242a109.2,109.2,0,0,0-17.128,10.287c-.475.366-1.107.514-1.616.841-8.178,5.259-15.494,11.241-18.74,20.967a133.693,133.693,0,0,1-5.965,15.764c-3.725,7.712-4.784,15.952-5.826,24.23-.418,3.338,1.813,4.771,4.919,3.307a8.042,8.042,0,0,0,2.226-1.569c6-6.026,12.183-11.886,17.873-18.2a79.988,79.988,0,0,0,15.416-24.1,27.111,27.111,0,0,1,7.795-10.566c3.791-3.259,7.965-6.074,12-9.041a22.427,22.427,0,0,1,2.632-1.4,8.089,8.089,0,0,1-.022,2.144q-3.869,10.732-7.817,21.441c-2.932,7.987-6.065,15.908-8.767,23.977-1.782,5.324-2.636,10.963-4.444,16.278-6.222,18.283-13.076,36.343-18.252,54.983-2.558,9.22-5.656,18.313-8.971,27.289-4.954,13.411-10.387,26.644-15.472,40.007-1.721,4.527-3.02,9.22-4.47,13.851-.867,2.767-1.6,4.54-2.532,8.283-.854,3.442-.88,4.536-.431,4.789.7.392,2.366-1.372,3.525-2.584,9.9-10.335,12.309-10.714,16.466-17.647a26.8,26.8,0,0,0,2.314-4.3c2.244-5.978,4.379-12,6.544-18.008,1.7-4.723,3.7-9.364,5.041-14.187,3.168-11.416,5.494-23.075,9.673-34.195,2.083-5.542,4.653-10.9,6.71-16.453,5.978-16.13,10.562-32.692,15.015-49.292,3.468-12.928,6.8-25.895,12.139-38.251,2.645-6.122,4.688-12.5,7.028-18.758.824-2.2,1.712-4.388,2.571-6.579.375-.017.745-.035,1.12-.048,3.643,7.085,7.921,13.834,9.825,21.8A107.308,107.308,0,0,0,221.4,987.8c4.026,10.9,10.81,20.074,18.6,28.5,5.359,5.8,10.91,11.446,18.4,14.714a58.423,58.423,0,0,1,7.8,4.614c1.917,1.224,3.695,2.675,5.59,3.935,9.481,6.3,20.025,11.063,28.095,19.42a22.157,22.157,0,0,0,2.593,1.865q5.235,4.033,10.44,8.1c3.468,2.719,6.876,5.512,10.374,8.191,2.414,1.852,4.863,3.677,7.425,5.311,3.7,2.362,7.494,4.571,11.289,6.775,1.477.858,2.972,1.433,4.6,0,1.769-1.551,1.969-3.272,1.251-5.342-2.092-6.03-3.956-12.143-6.292-18.078a76.1,76.1,0,0,0-5.987-12.218,220.423,220.423,0,0,1-16.605-32.465c-5.812-14.191-16.165-24.474-27.21-34.282a138.814,138.814,0,0,0-14.23-10.623c-7.15-4.867-14.235-9.93-21.808-14.06-7.063-3.852-14.357-7.224-21.028-11.817-2.37-1.63-5.416-2.274-8.88-3.66,1.974-.989,3.429-2.091,5.054-2.466,7.1-1.634,14.291-2.911,21.376-4.6,7.939-1.9,16-2.863,23.764-6.074a81.927,81.927,0,0,0,31.554-23.184c5.917-6.945,12.069-13.686,17.9-20.7,5.69-6.841,11.808-13.045,19.938-17.054,6.117-3.015,11.586-7.342,18.3-9.167,7.481-2.035,15.006-3.917,22.47-6.022,4.967-1.4,10.2-2.418,14.7-4.775,7.233-3.791,13.934-8.588,20.91-12.875,1.752-1.076,2.836-2.318,2.327-4.436a3.747,3.747,0,0,0-4.5-2.963,116.269,116.269,0,0,0-12.509,2.126c-6.34,1.534-12.579,3.481-18.9,5.111a34.819,34.819,0,0,1-4.989.4c-8.309.871-16.766,1.054-24.884,2.815a191.793,191.793,0,0,0-41.11,13.39,80.977,80.977,0,0,0-23.385,16.461c-8.549,8.666-16.762,17.672-25,26.64-5.712,6.222-11.978,11.668-19.546,15.537-3.246,1.66-6.422,3.464-9.555,5.329-6.78,4.039-13.507,8.165-20.274,12.226a20.462,20.462,0,0,1-2.662,1.085,8.418,8.418,0,0,1,.183-1.63c4-10.984,8.2-21.9,11.982-32.962,2.505-7.329,4.536-14.832,6.562-22.313,1.429-5.272,2.436-10.653,3.73-15.96,1.874-7.673,3.69-15.342,4-23.285.2-5.359,2.375-9.56,7.185-12.309a66.733,66.733,0,0,0,8.81-5.651,93.125,93.125,0,0,1,25.088-14.706c11-4.209,21.755-8.958,30.984-16.291a230.382,230.382,0,0,0,27.816-25.629c1.839-2.031,3.629-4.1,5.507-6.1,5.42-5.747,11.154-11.25,15.041-18.239,6.653-11.965,13.551-23.812,18.326-36.713a27.271,27.271,0,0,1,1.386-2.88c4.605-8.91,9.4-17.725,13.782-26.744,5.172-10.653,10.017-21.472,14.932-32.251,1.007-2.2,1.747-4.536,2.54-6.836a3.879,3.879,0,0,0-1.028-4.593,3.965,3.965,0,0,0-5.067-.2c-2.8,1.839-5.826,3.4-8.357,5.555-7.529,6.405-14.928,12.976-22.239,19.638a33.4,33.4,0,0,0-4.841,6.03c-4.958,7.3-9.629,14.8-14.753,21.973-8.4,11.76-17.115,23.289-25.607,34.983-6.971,9.6-14.492,18.893-20.531,29.053a121.457,121.457,0,0,1-22.378,28.034,38.8,38.8,0,0,0-5.712,5.891c-3.573,5.059-8.27,8.893-12.91,12.841-2.985,2.54-4.754,4.636-6.2,6.039-17.956,17.424-20.727,20.636-21.245,20.226-1.181-.928,11.159-19.167,22.034-33.733,10.278-13.769,12.906-16.1,21.093-28.069,5.215-7.629,9.568-15.873,13.973-24.025,2.523-4.671,4.4-9.69,6.54-14.566,1.155-2.632,1.961-5.455,3.42-7.9a45.1,45.1,0,0,0,6.309-18.888,12.937,12.937,0,0,0-.126-4.083c-.6-2.627-2.854-3.568-5.146-2.2-1.817,1.089-3.852,2.087-5.2,3.638-8.706,10.026-12.814,15.246-13.847,16.967-3.29,5.486-.715.253-24.173,30.9-6.732,8.8-10.74,14.187-11.538,13.7-1.15-.7,6.854-12.126,10.043-29.7.466-2.579.553-4.287,1.664-9.834,1.194-5.956,2.789-11.847,3.708-17.847,1.7-11.1,3.325-22.23,4.436-33.4.288-2.88.457-4.98.645-7.777,1-15.128,1.486-45.972,1.325-57.671a14.182,14.182,0,0,1,1.834-7.612,12.168,12.168,0,0,1,2.684-3.107c3.595-3.011,7.307-5.516,11.882-6.409,10.745-2.091,21.272-4.619,31.441-9a74.641,74.641,0,0,0,24.766-17.446c9.4-9.895,19.6-18.836,31.132-25.9,10.335-6.331,21.581-11.189,32.482-16.579,0,0,13.5-4.78,19.411-13.96A5.309,5.309,0,0,0,435.592,489.814ZM252.675,412.13c-.61.388-8.034-13.8-23.036-31.1-16.457-18.967-19.773-19.193-34.008-34.957-7.39-8.183-12.017-18.23-17.285-27.82-4.9-8.91-9.969-17.725-14.971-26.574-1.647-2.911-3.242-5.856-4.98-8.71a94.991,94.991,0,0,0-17.829-21.1c-8.806-7.939-17.407-16.087-24.426-25.733a23.246,23.246,0,0,1-4.388-8.893c1.987,1.438,3.133,2.122,4.113,3,8.623,7.69,17.516,15.106,25.746,23.2,12.5,12.278,24.121,25.411,33.315,40.4,8.266,13.481,16.156,27.193,23.969,40.944,5.124,9.019,11.185,17.372,17.111,25.847,8.632,12.344,12.5,13.342,20.892,24.722C246.928,398.954,253.255,411.768,252.675,412.13Zm-12.1-24.888c-21.11-25.742-17.712-22.618-23.093-28.639-1.813-2.026-5.647-7.115-10.906-13.982a23.307,23.307,0,0,1-2.906-4.61c-4-9.028-9.346-17.307-14.222-25.847-3.743-6.553-7.372-13.176-11.281-19.629-1.93-3.185-4.789-5.843-6.518-9.111C165.571,273.93,156.169,265.2,147.4,256c-7.072-7.42-11.285-9.4-21.263-19.938-2.414-2.549-7.342-7.777-6.849-8.313.527-.58,6.967,4.684,17.267,12.483,15.4,11.66,16.8,12.431,22.435,16.409,11.864,8.374,20.326,19.455,26.5,32.448,7.76,16.344,15.472,32.713,23.319,49.018,4.144,8.61,10.418,16.361,21.751,32.5,12.623,17.978,23.908,32.735,23.69,32.9S249.542,398.178,240.575,387.242Zm-35.654,435.6c-19.725,4.8-27.424,5.721-30.709,6.07-11.146,1.189-22.4,1.163-22.492.261-.074-.771,8.361-2.3,25.232-5.346,15.285-2.763,17.93-3.786,23.938-5.25,3.516-.858,6.793-2.662,10.292-3.621a65.856,65.856,0,0,1,11.089-2.113,7.743,7.743,0,0,1,7.5,3.455C219.718,819.148,211.221,821.309,204.921,822.839Zm-.2-8.274a153.034,153.034,0,0,1-26.426,6.976c-3.9.732-4,.758-10.719,2.174-12.313,2.588-15.058,3.49-15.328,2.845-.475-1.128,7.076-5.856,14.047-7.986a41.551,41.551,0,0,1,5.081-1.216c2.714-.327,5.446-.518,8.178-.671,6.9-.383,12.932-3.1,18.683-6.719,5.721-3.6,12.161-4.771,18.757-4.514,5.141.2,9.477,2.5,13.237,7.486C220.833,809.114,212.694,811.519,204.716,814.564ZM407.136,638c.832.505-2.592,7.207-11.159,24.905-.322.662-6.98,13.39-18.923,39.485-5.826,12.736-11.847,25.372-19.686,36.975-3.712,5.494-8.5,10.283-12.941,15.267-9.756,10.954-17.324,17.224-31.642,29.546-7.943,6.836-12.056,10.03-18,13.08-3.917,2.009-6.2,2.71-11.769,5.233a179.212,179.212,0,0,0-18.047,9.416c7.006-6.231,12.762-10.845,16.819-13.973,8.841-6.81,11.507-8.78,11.507-8.78,2.4-2.274,5.285-4.035,7.917-6.074a38.667,38.667,0,0,0,4.532-3.782c8.2-8.7,16.5-17.315,24.435-26.252a143.742,143.742,0,0,0,16.614-23.8c.758-1.311,1.521-2.632,2.383-3.878,4.579-6.592,9.359-13.058,13.755-19.773,4.741-7.233,9.215-14.644,13.66-22.069,9.193-15.355,9.76-17.738,15.642-26.609C397.589,648.845,405.99,637.311,407.136,638ZM275.2,794.853c4.993-4.867,11.651-10.954,13.533-13.407,3.49-4.544,7.956-8.366,12.157-12.331,7.3-6.9,12.156-15.463,16.845-24.16a12.915,12.915,0,0,1,.837-1.621c6.353-8.71,12.749-17.389,19.093-26.1,11.167-15.337,22.361-30.657,33.428-46.068,4.157-5.786,7.429-12.239,12.788-17.106,5.041-4.579,10.2-9.028,15.86-13.311a10.442,10.442,0,0,1-1.054,2.4,130.247,130.247,0,0,0-14.631,23.049c-2.383,4.9-5.59,9.4-8.409,14.087-3.677,6.122-7.324,12.261-11,18.387-1.25,2.087-2.444,4.213-3.8,6.231-8.4,12.5-16.736,25.045-25.337,37.406a167.7,167.7,0,0,1-11.647,14.627,262.127,262.127,0,0,1-37.615,35.785c-7.359,5.625-14.675,11.311-22.082,16.871-.322.24-.571.375-1.2.789-11.725,7.751-16.37,11.721-16.57,11.481C246.065,821.453,258.832,810.8,275.2,794.853Zm13.533-245.926c5.913-20.531,7.416-22.187,9.573-32.648,2.044-9.9,1.664-13.1,4.1-24.448.715-3.329,2.7-9.459,5.111-17.45.261-.871.789-1.669.993-2.549,1.7-7.268,5.873-13.228,10-19.237,1.2-1.743,1.93-3.812,3.15-5.538,5.168-7.32,10.091-14.849,15.773-21.755s12.213-13.1,18.248-19.725c2.762-3.028,5.176-6.366,7.856-9.477a46.065,46.065,0,0,1,3.808-3.555l1.046.928c-4.1,7.778-7.926,15.716-12.366,23.3-8.143,13.908-16.805,27.507-24.905,41.436-2.645,4.549-4.257,9.712-6.279,14.618-3.3,8-6.605,16-9.8,24.043-5.73,14.413-11.215,28.923-17.128,43.258-3.124,7.568-6.884,14.88-10.488,22.243a10.287,10.287,0,0,1-3.342,3.5C285.049,562.173,286.63,556.225,288.735,548.927Zm-12.383-175.71c2.017-6.048,4.253-12.03,6.087-18.134,2.8-9.294,6.815-18.13,8.78-27.777,2.61-12.827,6.549-25.433,15.472-35.6,3.9-4.444,8.248-8.514,12.536-12.6,8.509-8.109,18.147-14.771,27.851-21.324a34.962,34.962,0,0,1,7.712-3.878c7.991-2.858,14.8-7.621,21.437-12.719,4.335-3.329,8.666-6.671,13.1-9.865a45.773,45.773,0,0,1,21.08-8.048,11.972,11.972,0,0,1,2.017.192c-1.268.832-2.022,1.381-2.828,1.852-10.387,6.035-20.871,11.908-31.14,18.13-6.348,3.847-12.7,7.708-17.991,13.145a91.493,91.493,0,0,1-12.544,10.566c-7.041,5.011-12.5,11.512-18.139,17.895a142.628,142.628,0,0,0-21.062,31.894c-4.823,9.834-9.42,19.79-14.609,29.428-5.25,9.756-11.1,19.193-16.71,28.753-.192.331-.693.484-1.547,1.046A22.347,22.347,0,0,1,276.352,373.216ZM270.9,395.629a128.967,128.967,0,0,1,7.581-17.564c6.632-12.283,13.9-24.217,20.574-36.478,3.551-6.527,6.139-13.568,9.607-20.143,6.51-12.353,13.093-24.692,23.084-34.761,2.013-2.03,3.56-4.518,5.538-6.588a121.332,121.332,0,0,1,8.81-8.527c7.276-6.213,14.453-12.592,22.156-18.248,4.959-3.643,9.686-7.682,15.559-10.191,5.516-2.357,10.54-5.891,15.742-8.971a121.4,121.4,0,0,1,18.531-9.215,11.264,11.264,0,0,1-1.211,2.34c-5.228,4.854-10.074,10.174-16.6,13.451-7.747,3.891-15.511,7.76-23.145,11.864-11.076,5.948-21.123,13.224-28.836,23.363-5.982,7.865-12.313,15.49-17.886,23.629-4.013,5.865-7.176,12.331-10.475,18.657-5.908,11.324-11.625,22.749-17.455,34.116a15,15,0,0,1-1.8,2.636c-5.233,6.322-10.88,12.348-15.625,19.014a126.1,126.1,0,0,0-11.642,19.555c-4.78,10.069-6.723,17.873-7,17.786S267.921,403.952,270.9,395.629Zm21.8-217.713c.536.048-3.651,22.435-3.63,54.573.009,11.071.314,19.895-3.163,32.025a93.426,93.426,0,0,1-8.954,21.376c-6.287,10.806-8.414,20.714-10.736,28.051-4.048,12.788-5.5,21.45-6.47,21.3-.954-.152-.475-8.688-.292-11.926a78.752,78.752,0,0,1,.815-8.605c1.839-11.128,6.623-14.47,9.355-24.339.274-.985,1.473-4.945,3.1-10.44a7.73,7.73,0,0,1,.562-1.721c4.248-7.342,6.139-15.538,8.143-23.611A134.991,134.991,0,0,0,285,233.613C287.75,207.811,292.072,177.859,292.7,177.916ZM264.614,266.58c.719-2.436,1.656-5.468,1.656-5.468,1.66-5.276,3.455-10.514,5.137-15.786,1.477-4.627,2.967-9.255,4.327-13.917,1.486-5.085,3.124-10.148,4.144-15.328,1.02-5.163,1.037-10.531,2.065-15.69,1.634-8.17,2.3-16.588,5.59-24.378a5.812,5.812,0,0,1,2.544-2.815,17.332,17.332,0,0,1-.013,2.331c-1.281,9.333-2.427,18.692-3.926,27.99-2.78,17.241-2.471,34.97-7.507,51.82q-1.484,4.961-3.133,9.873c-5.991,18-6.967,22.343-9.934,28.531a99.844,99.844,0,0,1-6.135,10.932C260.052,295.576,261.568,276.9,264.614,266.58ZM293.227,10.467c1.142.166-.065,15.045-.684,21.428-1.172,12.091-2.623,24.165-4.444,36.173-2.017,13.289-6.505,25.929-11,38.561-3.242,9.111-4.244,12.649-8.444,26.06-3.194,10.2-4.828,15.433-6.566,21.956a255.106,255.106,0,0,0-6.279,27.725c-1.3,8.139-1.778,14.152-2.353,14.126s-.824-5.83-.784-10.462c.1-10.936,1.848-14.457,3.847-29.663,1.007-7.664.906-8.736,2.179-18.527.566-4.362,1.207-8.719,2.052-13.032a163.891,163.891,0,0,1,3.86-17.333c3.229-10.357,4.562-13.708,10.017-29.289,5.786-16.531,8.679-24.792,10.135-32.308.867-4.479,2.026-11.66,4.666-22.74C291,16.519,292.486,10.358,293.227,10.467ZM231.1,300.321c-.789.292-8.117-16.779-12.161-26.679-4.379-10.71-5.054-13.359-8.435-19.328-2.906-5.137-4.562-7.067-8.47-14.03a105.214,105.214,0,0,1-6.706-13.411,135.281,135.281,0,0,1-8.113-30.687,58.781,58.781,0,0,1-.475-10.431c.423-9.573-3.137-15.76-4.584-20.779-4.64-16.108-5.446-31.951-4.409-32.173,1.054-.231,5.316,15.424,9.019,29.014,8.287,30.426,8.283,32.936,13.315,50.207,2.749,9.442,6.758,18.518,10.261,27.738,2.645,6.958,5.473,13.843,8.056,20.823,3.29,8.884,5.455,15.2,7.089,20.191C227.312,286.37,231.791,300.06,231.1,300.321ZM210.223,454.66c1.508,4.157,2.776,7.486,3.926,10.858,4.575,13.424,10.183,26.37,18.187,38.134a43.385,43.385,0,0,0,11.259,11.786c5.564,3.786,9.307,9.154,12.54,14.866a110.16,110.16,0,0,1,12.444,34.016c-5.46-8.383-10.466-16.357-15.782-24.117a97.53,97.53,0,0,0-8.627-10.566c-9.089-9.925-15.891-21.245-22.008-33.2-6.488-12.679-9.172-26.326-12.248-39.942A8.319,8.319,0,0,1,210.223,454.66ZM86.141,451.248c6.71,3.577,13.368,7.25,20.108,10.775,5.246,2.745,10.636,5.22,15.869,8,8.266,4.388,15.163,10.627,22.078,16.8,4.645,4.148,9.255,8.34,13.708,12.684,6.1,5.948,12.03,12.061,18.043,18.1,3.111,3.12,5.952,6.614,9.442,9.233,6.3,4.723,12.932,9,19.537,13.3a87.554,87.554,0,0,0,9.172,5.05c4.218,2.074,8.5,4.017,12.814,5.887,4.043,1.752,8.213,3.22,12.235,5.019,7.289,3.263,12.422,9.364,18.54,14.278-8.54-4.7-18.182-5.538-27.167-8.47-7.926-2.584-15.773-5.429-23.537-8.457-2.484-.967-4.54-2.985-6.889-4.366-4.314-2.54-8.81-4.784-13.023-7.468-8.627-5.5-15.673-12.871-22.919-19.978q-6.5-6.372-12.862-12.884c-1.564-1.608-2.8-3.538-4.37-5.141-3.494-3.568-7.024-7.111-10.688-10.5-5.878-5.438-11.254-11.516-18.239-15.616-11.093-6.51-19.7-16.2-30.243-23.385a15.2,15.2,0,0,1-4.1-3.786A20.575,20.575,0,0,1,86.141,451.248ZM267.585,580.176c-.34.575-7.6-5.1-18.832-7.063-6.754-1.181-7.176.336-16.479,0a93.418,93.418,0,0,1-30.5-6.514,73.431,73.431,0,0,1-14.679-7.063c-11.363-7.185-20.858-16.692-30.626-25.82-1.647-1.538-2.745-3.651-4.287-5.316-4.619-4.98-12.313-14.858-22.583-24.4-.253-.231-7.926-6.588-23.28-19.293q-5.588-4.627-11.076-9.372-4.137-3.575-8.2-7.237a58.626,58.626,0,0,1-6.327-7.05c-4.963-6.379-8.475-13.459-7.725-13.991.292-.209,1.028.715,4.754,3.377,1.39.993,2.235,1.495,2.937,2.022,6.449,4.836,12.771,9.847,19.145,14.788,3.843,2.98,7.725,5.913,11.525,8.95,9.146,7.3,18.544,14.326,27.267,22.1,5.294,4.719,9.424,10.723,14.248,16a262.838,262.838,0,0,0,27.964,26.753c6.488,5.277,13.952,9.133,21.611,12.566,10.453,4.688,21.546,10.379,36.387,13.3a63.211,63.211,0,0,1,16.461,4.893C262.692,575.279,267.877,579.684,267.585,580.176Zm-5.756-13.86c-6.322-9.08-9.481-13.62-12.719-16.888-2.736-2.762-5.529-5.425-12.021-11.8a25.756,25.756,0,0,1-3.46-3.612c-6.135-9.032-13.18-17.481-18.165-27.258-4.754-9.32-9.86-18.561-11.316-29.149-.867-6.318-1.425-12.684-2.03-19.036-.357-3.756-.654-7.529-.732-11.3-.03-1.386.654-2.784,1.272-5.189,2.688,4.348,2.884,8.287,3.808,11.973,2.479,9.878,4.527,19.886,7.473,29.624,1.786,5.908,4.924,11.411,7.451,17.1,5.9,13.254,14.927,24.382,24.5,35.005a114.59,114.59,0,0,1,10.117,12.7,123.4,123.4,0,0,1,8.03,13.982c3.856,7.52,8.714,18.117,8,18.5C271.537,581.226,268.892,576.455,261.829,566.316Zm-32.9,178.055A29.235,29.235,0,0,0,227.687,740c-2.789-7.059-5.69-14.069-8.453-21.141a32.19,32.19,0,0,1-1.368-5.272s-1.39-5.812-2.27-11.651c-1.982-13.154.2-49.924,1.769-49.841.7.035-.048,7.25,1.307,21.969,1.041,11.324,2.627,19.5,6.78,38.77,2.976,13.812,6.309,28.87,10.021,45.022A37.311,37.311,0,0,1,228.929,744.371Zm8.479,12.117c-3.473-15.86-6.919-31.724-10.148-47.637-1.9-9.337-3.39-18.753-5.019-28.143a142.3,142.3,0,0,1-1.834-28.544,6.485,6.485,0,0,1,.379-1.778c.078-.24.4-.4.928-.9,1.041,4.989,2,9.795,3.05,14.588,1.839,8.453,3.525,16.949,5.647,25.332,1.9,7.49,4.614,14.779,6.383,22.291a135.085,135.085,0,0,1,2.823,18.413c.828,8.928,1.233,17.9,1.721,26.857.166,3.015.026,6.043.026,9.067-.322.078-.645.153-.972.231C239.386,763.015,238.135,759.808,237.408,756.488ZM232.275,800.4c-.453.248-3.821-6.061-9.416-13.337-4.658-6.057-8.906-10.244-15.647-16.479-14.078-13.019-20.792-19.964-32.3-28.134-11.4-8.091-22.853-16.139-33.951-24.64-8.614-6.6-15.49-14.975-21.659-23.9-3.8-5.5-7.86-10.849-11.39-16.522-4.889-7.856-9.316-16-14.1-23.921-2.039-3.377-4.431-6.54-6.736-9.747a10.858,10.858,0,0,1-1.76-8.252,10.167,10.167,0,0,1,1.25-2.427c1.987,2.749,3.725,5.154,5.468,7.555,7.377,10.165,16.575,18.609,25.642,27.171,5.856,5.533,11.834,10.936,17.786,16.37,7.407,6.762,14.98,13.35,22.23,20.278,7.037,6.723,13.677,13.86,20.631,20.675,8.64,8.466,15.163,18.622,22.583,28.06,12.57,15.991,18.221,20.518,24.866,32.661C229.643,792.866,232.75,800.142,232.275,800.4Zm-7.847-20.666c-4.64-7.442-5.181-6.148-15.1-19-12.549-16.252-15.838-24.13-29.4-37.463a18.317,18.317,0,0,1-2.627-2.531c-8.37-9.455-17.812-17.76-27.3-26.064-13.124-11.49-18.984-18.008-21.829-20.622-5.6-5.133-10.793-9.777-18.209-16.923C95.352,643.05,98.415,645.045,95.8,642.3a19.448,19.448,0,0,1-2.954-3.464,21.017,21.017,0,0,1-2.536-7c3.412,3.307,6.871,6.566,10.222,9.934,8.078,8.126,16.71,15.62,26.6,21.4,9.307,5.438,19.058,10.1,28.491,15.324a85.863,85.863,0,0,1,10.531,7.119c5.425,4.165,10.592,8.671,16.017,12.832,3.067,2.353,5.307,5.333,7.751,8.248,6.91,8.248,10.1,18.257,13.965,27.977a26.707,26.707,0,0,0,1.643,3.751c2.78,4.7,5.642,9.355,8.479,14.017.632,1.037,1.15,1.743,1.255,1.9a194.279,194.279,0,0,1,12.3,21.733c6.379,13.716,8.017,27.263,7.324,27.463C234.266,803.724,232.545,792.753,224.428,779.738Zm-92.154,70.39c8.022,4,16.126,7.847,23.938,12.226a97.128,97.128,0,0,1,22.945,17.119c2,2.078,4.17,4,6.344,5.9a90.931,90.931,0,0,1,7.486,8.989c7.525,10.575,11.738,24.766,11.045,25.054-.723.3-4.536-15.712-18.94-29.48-2.209-2.113-5.595-4.727-12.483-9.795-7.7-5.664-15.259-11.481-23.864-15.869-7.124-3.634-13.808-8.13-20.7-12.231a40.484,40.484,0,0,1-4.884-3.142A14.558,14.558,0,0,1,132.274,850.127Zm51.715,52.251c-3.311-3.294-7.263-5.961-11.032-8.767-3.412-2.54-7.028-4.806-10.444-7.342-7.446-5.521-14.771-11.2-22.252-16.679-4.292-3.141-8.745-6.065-13.207-8.958-3.3-2.139-5.394-5.146-7.215-8.414.253-.405.505-.806.758-1.211a32.29,32.29,0,0,1,4.353,1.821c6.392,3.826,12.705,7.782,19.084,11.629,2.989,1.8,6.2,3.272,9.072,5.242,8.767,6.022,17.664,11.891,26.047,18.422,11.381,8.867,18.588,20.727,22.6,34.548a4.957,4.957,0,0,1,.091,1.351c0,.131-.139.257-.344.614-1.878-.035-2.858-1.494-3.377-2.937C195.287,913.859,189.679,908.038,183.989,902.378ZM10.9,992.976c2.7-5.106,5.442-10.143,9.686-14.1A62.974,62.974,0,0,0,31.31,965.949,58.681,58.681,0,0,1,54.273,944.32a291.392,291.392,0,0,1,34.286-14.662c7.673-2.8,15.559-4.052,23.524-5.263,10.514-1.595,21.01-3.324,31.533-4.876,1.643-.24,3.481.157,6.314-.07,6.144-.488,7.9-1.869,13.664-1.978a26.463,26.463,0,0,1,6.048.34c3.285.61,6.61,1,9.882,1.66a22,22,0,0,1,12.4,6.658,48.581,48.581,0,0,1-13.673-1.22c-8.483-1.712-16.919-1.185-25.411-.431-14.322,1.268-27.533,6.4-40.526,12-7.642,3.294-15.725,4.693-23.616,6.915-8.087,2.274-16.283,4.5-23.337,9.054-8.8,5.686-17.119,12.135-25.537,18.4-5.856,4.357-11.512,8.984-17.3,13.437C18.692,987.238,14.779,990.083,10.9,992.976Zm182.5-60.752a57.688,57.688,0,0,0-16.592-2.61c-3.028,0-6.052-.754-9.08-.793a74.364,74.364,0,0,0-34.016,7.337c-5.948,2.919-11.128,7.381-16.736,11.032a29.4,29.4,0,0,1-6.4,3.329c-6.335,2.157-12.723,4.209-19.171,6-4.806,1.333-9.721,2.348-14.636,3.216a60.018,60.018,0,0,0-27.38,12.71c-6.4,5.115-13.1,9.886-19.912,14.461a49.779,49.779,0,0,1-12.766,6.457c-.187-.249-.37-.5-.558-.749a31.7,31.7,0,0,1,3.094-2.941c4.889-3.573,9.926-6.95,14.732-10.627,2.871-2.2,5.316-4.941,8.135-7.22,5.521-4.462,10.993-8.958,16.884-12.98,9.69-6.619,18.714-9.263,29.955-12.7,19.206-5.874,24.531-4,36.278-10.222a118.377,118.377,0,0,1,11.132-5.072c5.216-2.091,10.518-3.821,16.3-3.821,3.917,0,7.825-.815,11.747-.924a60.566,60.566,0,0,1,15.747,1.529c5.015,1.189,10.126,1.969,15.167,3.041a7.9,7.9,0,0,1,2.253,1.416c-.126.288-.253.58-.375.867A36.127,36.127,0,0,1,193.4,932.225Zm-59.632,82.982a13.526,13.526,0,0,1,.218-3.329c1.185-3.756,2.505-7.472,3.83-11.18,1.782-5,3.769-9.93,5.4-14.98,3.137-9.721,10.265-15.873,18.431-21.158,1.146-.741,2.889-1.747,6.148-3.869,4.9-3.194,8.274-5.656,9.812-6.754,8.248-5.9,18.805-12.117,19.18-11.586.331.471-7.555,6.026-20.592,17.01-12.248,10.322-18.644,15.455-22.078,20.827-4.244,6.64-7.83,13.708-11.616,20.635-1.9,3.464-3.538,7.063-5.385,10.553A10.476,10.476,0,0,1,133.773,1015.207Zm56.743-59.227c-6.588,5.656-9.817,6.17-14.928,10.348-4.174,3.412-8.3,7.076-10.383,12.413a86.526,86.526,0,0,1-14.749,23.929c-3.364,4.017-7.551,7.342-11.35,10.963,2.035-3.956,4.057-7.808,6.013-11.695,3-5.956,5.4-12.3,9.085-17.795,3.56-5.3,6.993-10.828,12.723-14.575,6.932-4.531,13.285-9.947,19.877-15a35.52,35.52,0,0,1,2.81-2.884c3.451-2.919,7.873-4.758,8.4-4.035C198.66,948.551,193.422,953.483,190.516,955.98Zm144.866,124.144c-7.534-6.1-15.032-12.235-22.622-18.261-2.488-1.978-5.42-3.429-7.786-5.525-8.932-7.908-19.08-13.987-29.162-20.23-6.832-4.231-13.267-9.054-20.409-12.867-3.538-1.887-6.588-4.915-9.438-7.834-10.2-10.453-19.15-21.982-22.574-36.4-2.4-10.091-7.22-18.971-10.858-28.648,1.277,1.137,2.614,2.209,3.817,3.42,9.96,10.034,19.725,20.269,29.912,30.064,5.355,5.15,11.564,9.4,17.167,14.3,11.886,10.4,24.16,20.444,35.271,31.633,9.058,9.124,16.853,19.542,24.818,29.694,3.538,4.505,6.087,9.777,9.146,14.666,1.111,1.778,2.392,3.451,3.6,5.167C335.966,1079.583,335.674,1079.853,335.382,1080.124ZM236.41,956.3c5.107,3.5,10.945,5.908,16.265,9.119q11.679,7.052,23.054,14.61a89.106,89.106,0,0,1,13.01,9.934c6.509,6.361,12.675,13.119,18.566,20.065,2.61,3.072,4.37,6.923,6.235,10.566,5.342,10.414,10.1,21.154,15.952,31.263A133.065,133.065,0,0,1,340,1073.509c.688,1.913,1.081,3.93,1.843,6.758-1.176-.854-1.616-1.028-1.834-1.351-4.819-7.172-9.551-14.4-14.435-21.533a188.2,188.2,0,0,0-11.15-15.45,217.036,217.036,0,0,0-17.886-19.424c-3.935-3.786-7.22-6.7-38.713-31.995-4.967-3.991-9.551-7.455-15.3-12.923-5.83-5.542-11.311-11.459-16.8-17.35-2.131-2.287-3.865-4.941-5.782-7.425.231-.314.458-.632.688-.945C226.279,951.836,231.465,952.912,236.41,956.3ZM412.094,840.986c-1.865,1.15-3.738,2.3-5.6,3.455-6.492,4.044-13.18,7.464-20.888,8.788-5.368.924-10.592,2.671-15.882,4.052-12.705,3.32-23.72,10.2-34.779,16.871-3.416,2.061-6.174,5.364-8.889,8.4-9.324,10.427-18.3,21.172-27.8,31.437-6.34,6.854-14.126,11.777-22.762,15.625-7.285,3.246-14.422,1.943-27.772,6.823-3.638,1.329-3.608,1.529-7.342,2.845-12.7,4.457-23.176,5.682-23.276,5.233-.174-.754,27.973-9.272,32.1-11.695.244-.144,1.847-.958,4.039-2.083a17.611,17.611,0,0,0,2.1-.867c4.706-3.285,9.381-6.618,14.056-9.947a67.363,67.363,0,0,0,6.231-4.553c7.886-7.133,15.433-14.666,23.568-21.507,6.815-5.73,13.481-11.638,20.583-17.084,7.86-6.026,16.265-11.119,24.391-16.675,1.56-1.068,3.625-1.4,5.481-2.017,3.747-1.242,7.481-2.545,11.276-3.634,3.041-.872,6.165-1.455,9.25-2.187,4.248-1.007,8.588-1.739,12.719-3.107,6.767-2.248,13.359-5.024,20.1-7.351a78.136,78.136,0,0,1,8.64-1.97C411.785,840.219,411.937,840.6,412.094,840.986ZM218.685,938.207q12.228-7.51,24.483-14.976c3.891-2.37,7.642-5.08,11.769-6.932,6.614-2.963,11.451-7.908,16.239-13.023,8.832-9.442,17.455-19.084,26.544-28.269,6.884-6.958,15.141-12.034,24.078-16.213,10.976-5.133,22.862-7.3,34.1-11.49a25.624,25.624,0,0,1,5.808-1.128c9.15-1.129,12.291-.9,19.442-2.214,3.128-.575,2.253-.645,9.62-2.5,5.133-1.289,17.363-4.222,17.524-3.66.17.6-13.424,5.555-27.511,9.3-4.693,1.246-10.274,2.623-21.032,5.555q-3.588.974-7.154,2.017c-9.154,2.68-17.115,7.769-24.831,13.246-15.921,11.3-30.095,24.644-44.434,37.816a169.446,169.446,0,0,1-38.16,26.409,99.465,99.465,0,0,1-26.64,9.067c-.863.161-1.752.165-2.632.244-.144-.34-.283-.68-.427-1.02C216.546,939.684,217.578,938.887,218.685,938.207ZM304.73,712.389c-2.667,5.956-5.272,11.938-8.013,17.864a155.538,155.538,0,0,1-21.4,34.3c-5.891,7.1-11.124,14.745-16.657,22.139a7.756,7.756,0,0,1-.9.871l-.44-.235c1.734-3.943,3.69-7.808,5.163-11.847,3.76-10.335,10.065-19.276,15.821-28.448,5.185-8.266,11.664-15.708,17.45-23.6a77.766,77.766,0,0,0,4.993-8.1c2.514-4.492,4.88-9.067,7.35-13.586.248-.449.767-.749,1.76-.758Q307.285,706.684,304.73,712.389ZM273.023,736.3c8.614-9.246,17.049-18.636,24.239-29.005a111.455,111.455,0,0,1,10.44-13.159,4.635,4.635,0,0,1,2.675-1.482c-3.346,6.231-6.327,12.7-10.117,18.649-6.527,10.244-13.376,20.3-20.426,30.2-8.318,11.681-15.847,23.751-21.171,37.127-1.908,4.8-4.366,9.377-6.292,14.169a57.343,57.343,0,0,1-2.4,6.588c-1.717,3.6-4.366,7.634-5.137,7.3-.54-.235.065-2.5,1.569-9.154.828-3.669,1.525-7.368,2.409-11.024,4.083-16.928,3.991-18.457,5.1-21.664C257.795,753.569,265.167,744.737,273.023,736.3ZM274.8,590.2c-.009.2-.078,7.089-.261,20.871-.057,4.3-.131,9.368-.24,15.463-.07,4.03-.113,8.941-.479,15.485-.41,7.263-.749,14.544-1.6,21.76-1.538,12.976-2.623,26.047-6.178,38.7-1.612,5.743-2.183,11.6-3.011,17.468-.819,5.808-2.758,11.472-4.418,17.137-2.091,7.133-2.836,7.886-4.684,14.2-2.122,7.259-3.6,15.115-3.6,15.115-2.575,13.912-4.723,17.864-7.333,33.685-.248,1.5-1.312,10.235-3.429,27.642-2.2,18.108-2.192,18.7-2.68,21.237-1.93,9.987-4.261,19.917-6.876,29.751-2.266,8.509-5.133,16.862-7.8,25.263-.641,2.017-1.595,3.93-2.322,5.926-2.884,7.917-4.144,11.573-5.73,15.834a160.392,160.392,0,0,1-6.832,15.346c-7.172,15.028-11.952,28.857-16.4,41.733-2.488,7.2-4.889,13.982-8.658,27.846-4.9,18.039-9.564,36.143-16.2,53.65-2.588,6.828-5.7,13.481-7.882,20.431-3.094,9.851-5.163,20.034-8.383,29.842-3.747,11.407-8.252,22.566-12.461,33.816a8.345,8.345,0,0,1-1.377,2.361c-2.971,3.6-6,7.163-9.241,11.024-.715-1.874-.03-3.529.579-5.085,2.889-7.359,5.878-14.683,8.8-22.034,4.157-10.457,8.632-20.81,12.331-31.428,4-11.464,7.089-23.241,10.884-34.783,3.9-11.851,8.34-23.528,12.226-35.384,3.172-9.677,5.717-19.559,8.862-29.245,2.4-7.381,3.433-8.867,6.845-17.89,5.9-15.612,6.157-18.365,10.941-31.655,8.662-24.078,10.932-23.664,17-43.014,3.564-11.368,5.05-17.128,6.889-23.646,1.525-5.411,2.719-10.923,4.344-16.3,1.8-5.947,3.926-11.791,5.9-17.686a21.873,21.873,0,0,0,.941-3.041c1.311-7.324,2.632-14.644,3.821-21.986a19.718,19.718,0,0,0,.113-3.564c.253-11.041,2.405-17.76,5.015-32.744,1.434-8.235,4.366-26.757,5.9-32.047.044-.148.61-2.092,1.372-4.762.357-1.255.776-2.723,1.237-4.375,1.438-5.12,2.954-10.222,4.235-15.381,2.34-9.429,4.863-18.832,6.7-28.365,1.525-7.891,2.562-15.263,4.488-29.7.88-6.6,4.348-33.855,5.407-59.723,0-.035,0-.074,0-.109,1.377-33.628,4.226-42.635,4.274-62.525.009-4.388-.279-9.394-.854-19.411-1.429-24.862-3.751-43.34-4.4-48.251-3.386-25.359-7.96-47.14-7.96-47.14a236.724,236.724,0,0,1-4.052-25.241c-.266-2.549-.466-4.911-.623-7.08-.418-5.786-.518-10.231-.553-11.751-.841-37.088-1.224-41.724-2.4-47.336-1.115-5.316-4.627-22.073-12.762-32.748a43.584,43.584,0,0,1-7.141-12.4c-1.255-3.46-1.294-5.072-2.789-10.592-1.342-4.954-2.61-8.274-4.244-12.941-3.721-10.605-7.411-21.224-11.346-31.746-4.728-12.653-9.738-25.2-14.527-37.833-.906-2.4-1.351-4.967-2.022-7.451-.558-2.052-1.067-4.122-1.717-6.148a90.808,90.808,0,0,1-3.481-13.076c-1.006-6.1-3-12.043-4.649-18.03q-2.654-9.66-5.459-19.276c-1.229-4.209-2.636-8.366-3.843-12.583a29.946,29.946,0,0,1-.61-4.3c.458-.227.915-.453,1.368-.684A23.252,23.252,0,0,1,185,132.706a52.326,52.326,0,0,1,7.15,18.13c1.42,7.459,3.372,14.819,4.684,22.3,2.449,13.939,8.427,26.592,13.668,39.545,3.076,7.6,5.7,15.4,8.1,23.241,2.71,8.858,4.819,17.895,7.4,26.792,2.924,10.069,4.958,20.418,9.272,30.06.322.723.536,1.307.7,1.686,1.717,4.109,3.1,7.089,4.3,9.516,4.178,8.435,5.429,10.409,6.614,12.993.292.636.41.941,1.085,2.571,3.359,8.1,3.66,8.666,3.921,8.632,1.207-.17.392-11.507.392-11.507-.915-12.723-2.24-36.356-4.226-78.028h0c0-13.35-.1-6.161-.166-12.928,0-.222-.018-1.673-.018-2.867-.009-12.374,1.285-16.422.357-23.746a31.952,31.952,0,0,0-1.7-7.847c-2.741-9.281-2.579-19.555-2.144-39.715.2-9.512.505-14.7,1.011-22.343.806-12.165,3.311-24.086,6.366-35.82,1.743-6.688,5.08-12.967,7.751-19.407,1.508-3.634,3.024-7.263,4.7-10.819,2.971-6.318,6.1-12.562,9.1-18.871q5.379-11.32,10.623-22.7c.758-1.647,1.233-3.42,1.908-5.107.545-1.351,1.2-2.658,1.8-3.987.349.074.7.148,1.05.218-.266,2.841-.331,5.717-.841,8.514-1.782,9.756-3.089,17.494-4.253,21.916-5.39,20.5-12.174,34.007-19.128,59.932-3.738,13.943-6.122,25.041-6.71,30.208-.958,8.457-2.588,16.84-3.521,25.3-1.294,11.747-4.131,23.319-3.377,35.306.37,5.9-.662,11.869-.471,17.786.7,21.15,1.412,37.519,1.926,43.284,3.05,34.073,1.251,34.008,7.046,112.053,1.12,15.084,2.667,34.988,4.675,58.469h0c.052.257,7.769,39.41,10.069,69.44,0,.013.022.266.022.3.091,1.216.431,5.586.893,11.372.227,2.85.505,6.244.854,10.287,1.364,15.908,1.407,19.372,1.908,25.868q.111,1.438.161,2.876h0c0,.052,0,.135.009.24C278.678,565.022,275.668,571.675,274.8,590.2Zm1.935-8.719c-.227-.179,1.272-2.723,9.459-13.834a106.783,106.783,0,0,0,7.812-12.392c4.832-8.976,5.891-14.932,10.109-25.4,3.691-9.159,7.451-18.291,11.2-27.428,3.865-9.407,7.56-18.893,11.7-28.178,2.349-5.263,5.455-10.187,8.213-15.267,6.022-11.089,11.947-22.234,18.1-33.254,3.7-6.632,7.8-13.045,11.642-19.6,2.693-4.588,5.163-9.307,7.926-13.851a29.142,29.142,0,0,1,3.778-4.187c.349.209.693.423,1.041.632a31.159,31.159,0,0,1-1.621,5.416c-11.3,22.261-21.032,45.24-30.783,68.2-4.4,10.353-7.464,21.259-11.594,31.733-4.178,10.6-8.448,21.224-13.568,31.389-4.719,9.368-9.564,15.01-18.418,26.587C290.133,567.24,277.323,581.95,276.74,581.483ZM412.059,504.9c-8.64,4.1-17.215,8.344-25.786,12.588-8.81,4.362-16.078,10.884-23.677,16.962-5.115,4.091-9.6,8.819-14.348,13.289a97.511,97.511,0,0,1-16.287,12.374c-6.562,4.117-12.989,8.148-22.269,10.649-7.464,2.013-9.947,1.194-16.74,4.183-7.342,3.233-11.4,7.25-11.769,6.8-.414-.5,4.139-6.131,11.25-10.235,2.357-1.364,1.673-.636,11.355-4.671,8.662-3.608,12.348-5.73,15.572-7.3,1.765-.858,3.307-2.157,5.063-3.037,5.66-2.854,9.8-7.607,14.627-11.5,4.723-3.8,9.725-7.316,14.087-11.494,9.433-9.037,20.635-15.551,31.541-22.4,5.969-3.752,12.78-6.3,19.455-8.732,6.645-2.414,13.594-3.987,20.409-5.93C421.009,500.484,416.586,502.745,412.059,504.9Zm11.32-11.246c-3.582,1.263-7.15,2.61-10.814,3.573-12.483,3.285-23.655,9.268-34.683,15.821-12,7.124-22.221,16.444-33.045,25.036-5.943,4.719-11.56,9.856-17.577,14.474-8.54,6.553-18.631,10.156-28.469,14.178a14.031,14.031,0,0,1-3.024.527c-.179-.335-.357-.667-.536-1,2.732-2.575,5.364-5.263,8.213-7.7,9.346-7.991,18.784-15.869,28.143-23.838a22.185,22.185,0,0,0,3.756-3.969c6.035-8.544,14.827-13.843,23.062-19.8a32.882,32.882,0,0,0,3.059-1.987c9.851-9.028,22.4-11.076,34.8-13.52,6.553-1.294,13.132-2.453,19.69-3.73a22.839,22.839,0,0,1,10.013.122A14.256,14.256,0,0,1,423.379,493.652Z" fill="#45482a"/>
          </g>
        </g>
      </g>
    </g>
  </g>
</svg>
