<?xml version="1.0" encoding="utf-8"?>
<!-- Generator: Adobe Illustrator 24.0.1, SVG Export Plug-In . SVG Version: 6.00 Build 0)  -->
<svg version="1.1" id="Слой_1" xmlns="http://www.w3.org/2000/svg" xmlns:xlink="http://www.w3.org/1999/xlink" x="0px" y="0px"
	 viewBox="0 0 3000 3000" style="enable-background:new 0 0 3000 3000;" xml:space="preserve">
<style type="text/css">
	.st0{fill:none;}
	.st1{fill:#45482A;}
</style>
<rect class="st0" width="3000" height="3000"/>
<g>
	<g>
		<path class="st1" d="M1573.77,2089.88c-2.27-4.78-5.33-8.03-7.43-9.93c-8.4,7.6-10.98,19.03-18.39,27.19
			c-7.4,8.16-14.31,16.8-20.94,25.6c-6.43,8.54-12.24,17.54-18.32,26.34c-0.67-3.2-0.38-5.97-0.04-8.74
			c1.6-12.97,3.8-25.9,4.58-38.91c0.37-6.18-1.25-12.75-3.23-18.72c-1.96-5.91-5.2-6.1-9.63-1.45c-1.39,1.46-2.38,3.31-3.48,5.02
			c-1.07,1.66-2.06,3.37-3.08,5.06c-0.34-0.09-0.68-0.19-1.02-0.28c1.97-36.1,3.94-72.19,5.93-108.66c1.41,0.42,2.24,0.45,2.76,0.86
			c6.25,4.92,12.56,9.76,18.62,14.91c5.23,4.45,10.83,7.53,17.87,8.07c4.79,0.37,9.73,1.03,14.21,2.64
			c3.88,1.4,6.98,2.81,10.39-0.74c4.86-5.05,5.41-6.89,2.8-12.9c-1.74-4-3.78-7.88-5.24-11.98c-5.55-15.6-16.25-27.1-29.15-36.79
			c-9.06-6.81-19.24-11.49-32.28-14.63c3.89-2.16,6.1-3.7,8.52-4.69c10.84-4.42,20.47-10.58,28.64-19.03
			c1.36-1.41,3.34-2.26,5.08-3.28c14.5-8.54,30.98-13.07,44.82-23.19c11.64-8.51,21.27-18.73,28.01-31.01
			c7.26-13.2,12.81-27.41,18.3-41.5c4.28-10.98,7.37-22.44,7.26-34.46c-0.03-3,0.25-7.36-2.33-9.13c-2.9-1.99-7.34,0.51-17.15,4.81
			c-12.95,5.68-11.39,3.72-17.79,7.23c-11.69,6.4-23.37,13.04-31.92,23.68c-6.57,8.18-12.11,17.34-19.49,24.68
			c-10.02,9.97-17.35,21.42-23.58,33.86c-1.43,2.84-3.52,5.36-6.01,9.07c-0.38-2.35-0.68-3.1-0.59-3.79
			c1.93-14.96,4.51-29.86,5.73-44.88c2.39-29.37,4.19-58.8,5.86-88.22c0.42-7.39-0.89-14.86-0.86-22.29
			c0.05-17.71,0.68-35.42,0.58-53.12c-0.08-15.37,2.96-30.67,0.91-46.09c-0.26-1.96,0.75-4.1,1.39-7.19
			c4.7,3.22,8.22,5.72,11.84,8.08c4.92,3.23,9.61,7,14.93,9.37c8.65,3.86,17.71,6.77,26.61,10.08c4.44,1.65,8.91,1.88,13.59,0.85
			c13.46-2.97,14.87-1.56,22.66-4.3c2-0.7,19.28-6.88,18.63-12.57c-0.32-2.82-4.93-4.4-7.5-5.32c-27.41-9.82-43.85-24.39-64-27.05
			c-6.17-0.82-12.11-1.46-18.26,0.23c-4.45,1.22-9.14,1.59-13.72,2.33c0.3-2.08,0.86-2.92,1.61-3.53c0.99-0.8,2.05-1.59,3.2-2.1
			c12.97-5.79,23.23-14.79,31.58-26.17c6.38-8.69,12.99-17.21,16.26-27.73c2.12-6.83,4.45-13.6,6.62-20.42
			c2.1-6.59,4.46-13.12,6.12-19.82c2.46-9.89,4.28-19.93,6.6-29.86c1.58-6.77,3.21-13.45,1.86-20.5c-0.78-4.08-2.43-7.11-6.38-8.11
			c-10.58,9.33-19.62,19.27-26.82,30.96c-11,17.86-18.96,36.93-24.44,57.11c-0.88,3.25-1.41,6.74-4.68,9.95
			c-0.91-3.72-1.69-6.41-2.22-9.14c-1.41-7.3-3.01-14.58-3.97-21.94c-0.86-6.54-1.75-13.24-1.27-19.77
			c1.26-17.39,3.65-34.7,4.84-52.1c1.08-15.85,0.68-31.81,1.83-47.66c1.53-21.01,2.25-41.95,0.73-63
			c-1.33-18.42-1.84-36.9-2.75-55.35c-0.45-9.07,0.34-10.2,9.12-11.62c13.52-2.18,26.09-7.43,38.69-12.38
			c6.66-2.62,12.75-6.9,16.49-13.35c6.03-10.41,12.34-20.74,17.35-31.65c7.26-15.82,12.58-32.51,21.65-47.54
			c2.5-4.14,4.13-8.83,6.01-13.32c0.9-2.16,1.43-4.32,1.12-6.98c-0.3-2.59-1.63-6.69-4.08-7.94c-4.65-2.37-12.84,5.76-26.81,18.59
			c-5.86,5.37-14.2,12.92-24.51,21.87c-0.01-3.51,0.57-6.7,1.15-9.89c1.27-7.08,2.74-14.13,1.1-21.37
			c-0.91-4.04-1.63-6.98-3.69-7.96c-3.44-1.63-10.99,2.08-28.96,25.19c-0.5-0.09-0.99-0.18-1.49-0.27c0-3.71-0.02-7.42,0-11.13
			c0.08-14.89,0.44-29.78,0.08-44.66c-0.11-4.44-1.89-8.94-3.49-13.2c-0.97-2.57-2.95-4.89-6.73-4.23
			c-3.68,5.35-7.65,10.7-11.16,16.34c-3.46,5.56-6.46,11.41-9.77,17.33c1.36-25.21,0.9-49.77-1.17-74.34
			c-2.06-24.41-3.89-48.84-5.94-74.8c15.87,9.8,27.85,22.47,42.44,31.5c1.4,0.87,2.21,2.68,3.23,3.96
			c8.28-0.04,10.97-2.51,11.12-10.03c0.11-5.1,0.28-10.21,0.34-15.31c0.03-2.03,0.12-4.13-0.29-6.1
			c-1.93-9.37-5.44-17.85-11.47-25.62c-8.3-10.7-17.07-20.43-29.82-25.86c-2.46-1.05-4.6-2.84-7.7-4.81
			c3.56-2.74,5.94-5.12,8.78-6.64c7.96-4.24,14.12-10.42,18.3-18.13c4.5-8.3,8.47-16.99,11.63-25.88
			c5.75-16.18,10.09-32.88,16.26-48.89c4.21-10.93,6.66-22.06,8.23-33.48c1.42-10.3,2.51-19.29-2.59-23.36
			c-1.99-1.59-4.19-1.87-4.94-1.96c-11.96-1.52-25.73,18.79-30.93,26.41c-10,14.64-23.69,34.2-43.19,60.85
			c-0.75-3.09-1.28-5.28-1.8-7.48c-5.25-22.16-8.07-33.19-10.58-40.02c-4.81-13.05-6.45-10.84-12.47-26.01
			c-4.57-11.52-3.84-13.35-8.43-27.96c-1.93-6.15-16.41-51.5-16.42-62.14c0-3.92,1.37-6.82,1.37-6.82c0.7-1.48,0.94-2.7,3.34-4.75
			c1.89-1.62,3.23-3.94,4.58-6.09c7.53-11.97,13.13-24.92,17.96-38.11c2.61-7.15,4.27-14.88,4.89-22.47
			c1.07-13,1.35-26.09,1.29-39.14c-0.11-22.78,2.24-30.71-1.27-45.32c-1.91-7.97-3.63-15.12-7.41-15.72
			c-2.26-0.36-7.73,1.2-25.11,43.09c-8.6,20.72-14.59,38.02-18.34,49.5c-0.57-2.42-0.84-3.34-1.01-4.29
			c-2.13-11.6-4.4-23.08-9.18-34.05c-7.78-17.86-14.6-36.14-22.31-54.03c-2.81-6.52-6.7-12.64-10.69-18.55
			c-2.46-3.64-6.31-6.59-11.12-5.37c-5.03,1.27-5.84,6.11-6.66,10.38c-1.44,7.56-2.5,15.18-3.83,22.76
			c-2.69,15.32-2.3,30.71-0.37,46.01c2.53,20.11,13.22,33.81,16.54,38.59c10.25,14.8,28.42,32.53,33.6,43.56
			c0.67,1.42,2.15,4.93,4.88,10.21c2.78,5.39,4.33,7.74,3.99,7.99c-0.69,0.52-8.27-8.46-11.98-12.87
			c-12.46-14.8-12.65-16.54-17.19-20.78c-5.02-4.69-10.86-8.86-24.09-13.15c-13.4-4.35-26.47-9.68-39.73-14.46
			c-5.51-1.99-11.04-4.21-16.76-5.26c-6.45-1.18-9.75,3.42-7.04,9.32c2.78,6.05,5.65,12.13,9.2,17.74
			c5.82,9.19,12.94,17.16,23.13,21.93c4.16,1.95,8.28,4.22,11.94,6.99c12.96,9.83,27.64,16.63,41.84,24.28
			c2.45,1.32,2.78,1.21,4.24,1.63c1.21,0.35,2.06,0.72,2.23,0.78c2.57,1.02,21.39,3.47,29.11,7.37c4.76,2.4,7.46,7.81,12.87,18.64
			c6.33,12.67,8.07,25.13,11.75,50.01c0.11,0.77,0.38,2.64,0.07,5.03c-0.33,2.52-1.22,4.93-2.63,7.38
			c-10.28,17.72-13.07,37.15-11.52,57.22c0.62,8.08,0.61,16.34,4.04,24.1c5.17,11.71,9.05,24.08,19.48,32.67
			c1.58,1.3,2.5,3.39,3.73,5.11c-2.68-0.1-4.37-1.11-6.04-2.11c-6.37-3.82-12.56-8-19.15-11.4c-11.16-5.76-22.59-10.98-33.86-16.53
			c-5.98-2.94-12.03-5.8-17.73-9.22c-9.63-5.78-21.13,2.57-21.16,13.93c-0.02,10.15,3.81,18.61,9.84,26.07
			c14.04,17.38,30.86,31.22,51.9,39.64c14.28,5.72,28.75,9.11,44.21,7.34c3.01-0.35,6.1-0.05,9.07-0.05
			c7.18,15.82,23.37,191.73,19.65,212.87c-3.72-9.78-7.16-19.68-11.21-29.32c-12.1-28.83-18.19-34.02-21.52-36.24
			c-2.04-1.36-7.07-4.62-10.71-2.79c-1.91,0.96-2.73,2.97-3.28,4.51c-3.5,9.76-3.36,19.89-3.36,25.72c0,7.62-0.13,2.75-0.28,14.69
			c-0.17,14.08-0.11,28.16-0.25,42.24c-0.03,3.22-0.56,6.43-0.89,9.92c-6.17-0.44-11.49-0.88-16.83-1.2
			c-11.66-0.7-19.12-1.23-26.06-1.38c-20-0.44-30.01-0.66-40.05,3.59c-10.02,4.24-23.32,13.69-21.75,20.42
			c1.6,6.87,16.9,3.1,42.61,15.53c9.52,4.6,15.84,8.56,25.3,15.06c11.75,8.07,27.7,20.6,44.15,39.14c-2.27,1.46-3.54,2.28-4.81,3.1
			c-9.26,5.94-18.59,11.79-27.77,17.86c-13.01,8.59-22.19,19.93-27.48,34.95c-7.21,20.47-7.69,41.75-9.6,62.9
			c-0.05,0.51-0.01,1.03,0.01,1.54c0.37,7.32,3.61,10.14,10.95,9.16c2.24-0.3,4.63-0.94,6.52-2.11
			c15.21-9.39,31.21-17.71,42.67-32.16c2.35-2.96,5.51-5.48,8.74-7.49c16.26-10.14,25.94-25.06,32.11-42.77
			c2.86-8.2,6.2-16.23,9.43-24.3c0.92-2.29,2.24-4.42,3.37-6.63c2.12,6.14,2.63,12.15,3.38,18.12c2.88,22.96,3.72,46.07,2.76,69.11
			c-1.18,28.43-3.77,56.8-5.85,85.18c-0.15,2.03-1.02,3.88-1.84,6.53c-6.05,19.67-13.19,27.86-26.03,54.55
			c-0.83,1.73-2.1,4.39-3.6,7.67c-6.76-8.12-13.05-15.51-19.14-23.06c-2.71-3.36-5.7-6.74-7.4-10.62
			c-3.98-9.12-7.37-18.5-10.78-27.86c-2.74-7.52-6.9-13.8-14.26-17.37c-5.85-2.83-10.85-0.68-12.75,5.47
			c-0.74,2.39-0.81,5.04-0.85,7.58c-0.08,5.12,0.27,10.25,0.09,15.37c-0.46,13.32-0.99,26.64-1.71,39.95
			c-1.43,26.37,7.36,49.4,22.68,70.33c3.98,5.45,8.64,10.13,14.86,13.09c1.67,0.79,3.1,2.08,5.53,3.76c-2.28,0-3.3,0.11-4.29-0.02
			c-17.75-2.37-34.66-0.54-50.55,8.61c-16.18,9.32-31.74,19.12-39.9,36.96c-3.19,6.98-6.55,13.89-5.52,22.05
			c1,7.94,6.94,12.94,14.86,11.45c4.87-0.91,8.4-2.78,9.34-3.36c5.75-3.56,16.61-4.58,38.16-6.39c23.77-2,29.22-1.03,40.72-5.1
			c5.5-1.95,10.02-3.6,14.66-7.68c5.45-4.79,7.06-8.74,13.93-16.37c2.21-2.46,5.01-4.39,8.21-7.14c0,8.11,0.22,14.77-0.04,21.42
			c-1.12,28.45-2.41,56.9-3.57,85.35c-0.53,13.06-4.07,25.01-11.71,35.82c-7.28,10.29-14.04,21.07-16.4,33.67
			c-2.17,11.58-3.66,23.31-4.85,35.04c-1.32,13.01-1.95,26.08-2.92,39.12c-0.54,7.17-1.16,14.34-1.86,22.85
			c-1.08-3.3-1.71-5.23-2.33-7.16c-6.47-20.28-12.01-40.9-22.62-59.62c-3.42-6.02-6.49-12.24-9.56-18.45
			c-4.35-8.79-9.74-16.75-16.32-24.12c-3.81-4.27-7.91-5.19-12.87-4.72c-2.47,0.23-4.88,1.04-7.56,1.64c0,4.98,0.18,9.54-0.03,14.08
			c-0.91,19.46-2.26,38.91-2.8,58.38c-0.4,14.4-0.44,29.26,8.67,41.43c7.32,9.79,15.66,18.9,25.79,26.15
			c6.5,4.65,12.65,9.79,19.88,15.42c-20.15-2.09-36.44,5.79-53.58,11.49c-1.29-2.23-2.62-5.31-4.65-7.83
			c-2.54-3.14-5.21-6.59-8.61-8.51c-8.24-4.67-16.85-8.72-26.56-9.69c-3.19-0.32-6.3-1.47-9.75-2.31c0.45-1.79,0.45-2.89,0.96-3.66
			c8.54-12.89,9.78-27.24,8.78-42.15c-1.19-17.65-2.05-35.33-3.26-52.98c-0.37-5.35-0.99-10.76-2.22-15.97
			c-2.06-8.7-4.19-9.65-13.14-7.15c-0.4,0.11-0.87-0.06-1.21-0.09c-2.09-13.85-5.78-34.3-12.53-58.52
			c-12.98-46.57-30.67-83.43-28.57-84.39c0.6-0.27,2.19,2.66,11.98,17.31c12.01,17.96,13.98,20.06,16.05,21.96
			c9.75,8.94,19.52,11.09,25.76,12.98c9.86,2.99,16.24,0.22,20.54-8.89c0.44-0.93,0.85-1.87,1.34-2.78
			c2.13-3.94,1.3-7.47-1.62-10.57c-4.56-4.85-9.26-9.56-13.81-14.42c-4.37-4.67-8.53-9.52-12.93-14.16
			c-4.03-4.26-8.11-8.49-12.43-12.45c-6.31-5.79-14.79-6.79-22.45-9.57c-3.33-1.21-8.01-1.52-9.61-3.9
			c-1.54-2.29,0.09-6.72,0.32-10.21c0.05-0.77,0.08-1.54,0.12-2.31c1.01-20.09-1.04-39.89-5.99-59.36
			c-2.84-11.17-5.81-22.31-9.02-33.38c-1.92-6.61-4.16-13.15-6.7-19.54c-3.69-9.27-8.4-17.7-19.51-19.96
			c-1.36-0.28-2.87-2.11-3.44-3.56c-1.12-2.84-1.67-5.91-2.39-8.9c-4.72-19.66-9.54-39.31-14.06-59.02
			c-1.54-6.69-2.38-13.55-3.38-20.36c-0.51-3.5,0.47-5.99,3.91-8.27c7.46-4.94,14.46-10.61,21.45-16.23
			c3.38-2.71,6.41-5.88,9.42-9.02c9.06-9.46,11.45-22.19,15.8-33.81c3.83-10.22,6.78-20.9,7.86-31.88
			c0.63-6.38,2.44-13.92-0.08-22.83c-1.14-4.01-2.65-9.38-6.47-10.55c-5.35-1.65-11.98,5.93-17.33,12.04
			c-5.37,6.13-4.66,7.16-14.61,21.67c-6.95,10.14-14.08,20.16-20.95,30.36c-2.58,3.84-4.64,8.03-7.47,13.02
			c-11.51-38.06-17.42-76.06-25.53-113.55c-3.13-14.48-4.46-29.34-6.59-44.04c-0.03-0.21,0.18-0.47,0.31-0.68
			c0.13-0.22,0.28-0.44,0.47-0.6c0.19-0.16,0.44-0.26,1.2-0.68c1.87,1.13,4.12,2.27,6.14,3.74c10.67,7.75,13.64,10.89,17.85,13.27
			c11,6.23,31.65,2.13,38.11-10.01c4.79-8.99,0.75-20.44-0.52-24.06c-0.65-1.83-2.38-6.72-6.19-11.45
			c-11.77-14.59-30.09-11.26-66.86-26.25c-1.45-0.59-2.62-1.09-3.34-1.39c3.18-4.15,5.45-8.34,8.81-11.28
			c11.21-9.81,17.16-22.6,19.7-36.63c4.38-24.19,11.3-47.89,13.57-72.51c0.98-10.67,0.98-20.92-3.04-31.01
			c-2.51-6.3-6.26-7.36-10.64-2.35c-14.83,16.96-26.81,35.61-33.5,57.35c-1.26,4.09-2.96,8.03-4.86,13.13
			c-1.05-2.15-1.62-2.99-1.89-3.91c-0.58-1.97-1.08-3.96-1.47-5.97c-5.36-27.86-14.41-54.52-26.11-80.31
			c-3.02-6.67-2.99-7.78,3.47-11.82c7.95-4.97,14.47-11.28,20.37-18.5c7.52-9.19,12.31-19.5,13.87-31.17
			c0.45-3.39-0.25-7.17-1.38-10.44c-0.59-1.69-3.6-4.01-4.98-3.69c-5.13,1.16-10.75,2.32-14.84,5.32
			c-4.6,3.38-7.81,8.69-11.51,13.25c-2.71,3.34-5.24,6.83-7.86,10.25c-0.7-5.51,0.1-10.34-0.18-15.1
			c-0.93-15.61-2.33-31.19-3.4-46.79c-0.75-10.99-1.01-22.01-1.96-32.97c-1.36-15.57-3.11-31.1-4.83-46.64
			c-0.28-2.52-1.13-5.01-1.97-7.43c-1.23-3.55-3.5-6.16-8.08-7.49c-1.24,2.81-2.58,5.47-3.61,8.24
			c-4.38,11.78-7.97,23.92-13.13,35.34c-9.91,21.92-14.51,44.81-14.62,68.68c-0.02,5.32,1.12,10.69,2.15,15.96
			c2.26,11.62,9.36,20.97,14.99,30.99c3.95,7.03,7.44,14.13,6.35,23.49c-5.74-4.2-10.56-7.74-14.15-12.99
			c-5.08-7.43-10.89-14.1-20.09-17c-6.08-1.91-12.05-4.42-17.73-7.32c-4.13-2.11-8.14-2.45-12.6-2.25c-13.3,0.6-26.61,1-39.93,1.15
			c-3.1,0.04-5.28,1.32-6.04,3.67c-0.57,1.78-0.02,4.65,1.16,6.15c8.91,11.29,18.33,22.08,29.79,31.01
			c4.77,3.71,9.1,8.33,12.59,13.27c6.13,8.67,14.59,14.25,23.32,19.64c1.25,0.77,2.91,1.16,4.4,1.18c8.2,0.13,16.5,0.62,24.16-3.21
			c4.06-2.03,8.02-4.28,12.63-6.76c-0.48,5.37-0.78,10.4-1.42,15.38c-1.41,10.93-3.57,21.8-4.34,32.77
			c-0.78,11.1,0.34,22.07,8.81,30.8c4.98,5.13,10.79,4.66,14.43-1.57c0.9-1.53,1.41-3.3,2.06-4.97c4.9-12.49,4.96-25.57,4.82-38.7
			c-0.04-3.88,0.41-7.77,0.64-11.65c0.69-0.07,1.37-0.14,2.06-0.21c0.75,2.59,1.58,5.15,2.23,7.76c3.5,14.18,6.89,28.39,10.44,42.55
			c1.93,7.7,4.2,15.32,6.11,23.02c1.73,6.97,3.14,14.01,4.78,21c1.24,5.29,1.52,10.44,0.73,15.96c-1.31,9.09-1.72,18.33-2.04,27.53
			c-0.21,6.16,0.14,6.16-5.71,8.02c-12.49,3.97-24.57,8.48-35.24,16.64c-17.83,13.63-25.36,32.2-27.87,53.58
			c-0.9,7.62-1.08,15.44-2.99,22.82c-3.05,11.82-4.44,23.68-3.87,35.79c0.15,3.27,0.95,6.62,2.09,9.69
			c1.94,5.24,5.17,7.08,10.18,4.81c4.02-1.82,8.34-4.66,10.67-8.25c8.91-13.71,17.07-27.92,25.52-41.93c1.05-1.74,2.1-3.49,3.33-5.1
			c2.77-3.67,5.68-7.24,8.49-10.88c4.21-5.45,8.44-10.9,12.58-16.41c2.9-3.87,5.77-7.79,8.46-11.81c3.07-4.58,5.93-9.29,9.89-15.52
			c1.87,6.93,3.57,11.95,4.55,17.12c3.85,20.39,7.58,40.81,11.13,61.25c4.39,25.25,8.57,50.54,12.83,75.81
			c0.09,0.51,0.16,1.01,0.24,1.52c1.65,11.67,3.33,23.33,4.94,35.01c0.42,3.06,0.65,6.15,1.01,9.65c-1.3-0.47-1.62-0.48-1.75-0.65
			c-0.62-0.8-1.27-1.58-1.76-2.46c-6.7-12.01-16.43-19.97-29.92-23.51c-7.15-1.88-14.09-4.6-21.05-7.15
			c-11.22-4.12-22.65-6.49-34.62-4.54c-6.56,1.06-13.1,2.31-19.62,3.59c-5.47,1.07-7.33,4.11-5.67,9.42
			c0.84,2.67,1.97,5.29,3.31,7.75c3.31,6.07,7.26,11.82,10.12,18.09c4.36,9.52,11.31,15.27,21.2,18.63
			c16.35,5.55,33.08,6.55,50.06,5.94c6.33-0.23,12.64-0.64,18.91,2.07c-0.7,0.93-1.08,1.59-1.6,2.1
			c-11.19,10.87-22.79,21.37-33.5,32.7c-9.53,10.09-15.75,22.33-16.25,36.48c-0.31,8.68,0.89,17.41,1.42,26.11
			c0.18,2.94,1.05,5.45,4.76,7c3.25-3.05,6.51-6.23,9.89-9.27c2.65-2.38,5.3-4.82,8.24-6.81c16.58-11.26,29.97-25.58,40.98-42.24
			c2.85-4.31,5.94-8.46,9.3-13.23c0.92,1.79,1.44,2.42,1.58,3.13c2.16,11.59,4.13,23.22,6.43,34.78c1.9,9.53,3.75,16.41,4.92,20.92
			c4.68,18.08,7.01,27.12,7.33,29.85c0,0,2.14,18.45-3.7,30.81c-0.05,0.11-0.16,0.35-0.33,0.7c-5.18,10.84-6.23,22.42-3.59,33.8
			c3.66,15.79,9.59,30.82,20.14,43.58c1.85,2.23,3.44,4.68,5.14,7.02c-0.41,0.46-0.81,0.93-1.22,1.39
			c-7.41-4.37-14.83-8.72-22.23-13.11c-2.86-1.7-5.52-3.78-8.51-5.19c-12.14-5.71-23.01-1.65-28.79,10.26
			c-2.21,4.54-1.87,8.22,1.73,11.85c3.61,3.63,7.47,7.2,10.23,11.44c3.32,5.11,7.75,7.36,13.42,7.61
			c8.97,0.38,17.95,0.48,26.93,0.75c2.94,0.09,5.88,0.34,8.82,0.51c-11.41,10.38-18.46,22.13-22.15,36.68
			c-3.04,12-3.38,23.23,1.37,34.54c5.85,13.91,12.29,27.59,17.7,41.67c1.23,3.21,2.88,5.72,4.86,7.72c0.79,0.8,8.72,9.25,15.82,7.14
			c4.15-1.23,6.03-5.48,8.6-11.31c3.99-9.02,1.91-11.86,6.33-23.52c1.85-4.89,1.88-4.26,3.84-9.5c3.66-9.81,3.6-12.15,4.59-12.25
			c2.74-0.28,7.73,24.44,15.53,60.75c3.16,14.72,5.88,27.11,7.96,44.49c1.34,11.22,3.16,16.96,1.79,24.15
			c-1.82,9.59-2.8,19.29-1.6,29.1c0.53,4.33,0.81,8.7,0.94,13.06c0.27,9.19,0.01,18.34-3.84,27.16c-1.02-0.37-1.9-0.43-2.37-0.89
			c-8.95-8.74-20.25-12.58-31.89-16.16c-10.76-3.31-21.7-6.73-31.63-11.89c-11.46-5.96-23.23-10.61-35.48-14.43
			c-6.15-1.92-11.91-1.89-17.59,0.87c0.26,6.09,0.28,6.07,4,9.39c1.34,1.19,2.54,2.55,3.86,3.77
			c14.14,13.02,28.12,26.24,42.54,38.95c6.18,5.44,13.57,9.4,22.1,9.89c8.19,0.46,16.43,0.05,24.6,0.66
			c9.47,0.7,18.21,3.08,22.62,13.04c1.33,3,3.43,5.72,5.5,8.33c6.64,8.38,13.43,16.65,20.31,25.13
			c-2.48,1.87-18.17,13.84-23.54,24.66c-2.43,4.89-2.07,8.17-1.9,9.21c0.39,2.49,1.73,4.84,4.14,7.66c3.57,4.17,8.18,3.3,12.89,2.85
			c0.68,1.61,1.62,2.96,1.78,4.39c0.87,7.89,1.93,15.78,2.22,23.7c0.61,16.91,1.05,33.82,1.07,50.74
			c0.07,42.78,0.11,64.17,0.57,73.22c0.22,4.27-0.2,16.29-0.15,32.35c0.01,2.73-0.44,5.46-0.75,9.11c-1.51-1.31-2.35-1.83-2.9-2.56
			c-6.94-9.22-13.91-18.39-18.74-29c-4.14-9.09-8.56-18.07-13.04-27c-5.52-11-10.81-22.14-17.05-32.72
			c-2.47-4.19-6.84-7.64-11.04-10.35c-5.29-3.4-11.63,0-12.66,6.23c-0.33,1.96,0.13,4.07,0.28,6.1c0.72,9.97,1.92,19.93,2.09,29.91
			c0.34,19.7-1.36,39.43,4.06,58.88c2.72,9.78,7.05,18.03,14.66,24.63c3.87,3.36,7.52,7.02,11.63,10.06c4.04,2.98,8.54,5.34,12.88,8
			c-9.59,10.3-15.37,20.04-18.8,26.83c-15.69,31.08-10.22,55.9-7.05,60.68c2.06,3.11,5.07,4.61,5.07,4.61
			c4.18,2.17,7.72,1.29,10.47-1.68c3.8-4.1,7.59-8.43,10.31-13.26c10.97-19.49,19.74-39.86,22.74-62.39
			c0.43,3.38,0.47,6.7,0.42,10.02c-0.46,29.49-1.73,58.99-1.15,88.46c0.46,23.56,3.06,47.08,4.92,70.6
			c1.11,14.06,2.7,28.08,3.96,42.13c0.78,8.68,1.37,17.38,1.99,26.07c0.22,3.13,0.16,6.8,4.22,7.04c0,0,1.18,0.08,2.41-0.46
			c8.02-3.49,11.54-23.51,11.54-23.51c0.67-3.8,2.17-9.12,1.35-15.72c-1.11-8.89-2.31-17.8-2.69-26.73
			c-0.97-22.81-1.46-45.64-2.22-68.46c-0.21-6.14-0.99-12.27-1.03-18.41c-0.12-18.71-0.01-37.42,0.01-56.13c0.01-6.8,0-13.6,0-21.39
			c2.53,1.21,3.94,1.72,5.17,2.5c11.7,7.52,25.47,9.2,38.33,13.37c2.91,0.94,6.57-0.18,9.84-0.65c3.09-0.45,4.67-2.53,5.72-5.51
			c1.95-5.56-0.28-10.17-2.98-14.54c-4.99-8.08-9.9-16.25-15.61-23.81c-7.3-9.68-16.71-16.56-29.18-18.38
			c-3.18-0.46-6.28-1.46-8.94-2.09c0.52-23.83,1.01-46.73,1.55-71.67c4.24,4.39,7.26,7.38,10.13,10.5
			c12.85,13.98,25.48,28.16,38.53,41.93c9.92,10.47,19.4,21.2,25.42,34.44c1.64,3.6,2.51,7.77,2.73,11.74
			c0.54,9.93,0.45,19.9,0.72,29.85c0.13,4.86,0.66,9.71,0.75,14.57c0.33,19.29-1.86,38.4-4.35,57.48
			c-1.26,9.66-2.31,19.36-3.94,28.96c-3.41,19.95-7.73,39.76-10.56,59.79c-2.25,15.96-2.91,32.16-4.09,48.26
			c-0.11,1.45,0.76,3.7,1.88,4.31c1.23,0.68,3.75,0.53,4.86-0.34c2.39-1.86,4.54-4.21,6.23-6.73c3.43-5.11,5.94-10.93,9.86-15.59
			c4.88-5.8,6.93-12.58,8.57-19.5c2.06-8.71,3.32-17.62,4.77-26.47c1.66-10.12,2.92-20.31,4.78-30.4
			c3.63-19.71,6.78-39.45,7.13-59.54c0.08-4.48,0.47-8.95,0.78-14.65c6.68,5.63,7.13,13.67,11.87,18.58
			c3.76,0.17,5.82-1.71,6.79-4.53c1.15-3.34,2.23-6.81,2.62-10.31c0.96-8.66,0.84-17.49,2.38-26.03
			c2.67-14.81-0.34-27.94-9.31-39.85c-2.56-3.4-5.17-6.75-8.23-10.74c6.57-2.91,12.62-5.4,18.49-8.23
			c5.51-2.65,11.26-5.1,16.17-8.64c10.46-7.54,19.42-16.71,26.38-27.69c3.15-4.98,6.24-10.02,9.64-14.82
			c6.73-9.51,11.82-19.72,15.19-30.93c4.21-14,9.02-27.82,13.6-41.72c3.21-9.75,4.44-19.52,3.27-29.29
			C1576.35,2099.2,1576.08,2094.76,1573.77,2089.88z M1571.69,1601.91c16.93,3.08,32.34,9.41,46.89,18.26
			c1.52,0.93,2.93,2.06,4.32,3.2c0.57,0.47,0.93,1.19,1.34,1.75c-0.23,0.55-0.33,1.32-0.61,1.39c-8.88,2.32-17.69,5.21-26.72,6.57
			c-4.51,0.68-9.57-1.03-14.14-2.45c-5.85-1.82-11.42-4.49-17.16-6.68c-9.97-3.81-17.44-11.1-25.6-18.02
			C1550.78,1604.58,1560.52,1599.87,1571.69,1601.91z M1336.11,1659.51c5.46,7.33,12.58,13.42,18.85,20.17
			c2.77,2.98,5.47,6.07,7.83,9.38c2.32,3.25,1.48,5.97-2.3,7.06c-2.6,0.75-5.71,1.17-8.24,0.47c-8.38-2.31-16.36-5.38-23.1-11.46
			c-9.87-8.91-17.17-19.22-21.4-31.9c-1.5-4.49-4.45-8.49-7.16-13.49C1315.05,1642.43,1327.19,1647.54,1336.11,1659.51z
			 M1092.42,952.08c-0.47,0.18-1.01,0.18-1.5,0.3c-18.45,4.37-30.42-0.48-42.55-17.55c-4.2-5.91-9.01-10.99-15.01-15.16
			c-3.94-2.74-7.17-6.52-10.68-9.88c-1.61-1.54-3.1-3.2-4.64-4.8c0.2-0.31,0.39-0.62,0.59-0.94c1.39,0.37,3.15,0.31,4.11,1.16
			c7.84,7.01,18.04,9.48,27.04,14.22c4.3,2.27,8.58,4.66,13.09,6.42c5.43,2.12,11.01,3.95,16.67,5.31
			c7.49,1.81,14.92,3.59,21.34,8.14c1.44,1.02,2.93,1.97,4.65,3.13C1101.32,947.58,1097.2,950.28,1092.42,952.08z M1081.77,927.43
			c-7.16-1.3-13.99-4.68-20.83-7.45c-5.45-2.21-10.8-4.72-16.03-7.43c-9.26-4.8-18.39-9.84-27.58-14.78
			c0.11-0.52,0.22-1.03,0.34-1.55c1.57-0.21,3.13-0.53,4.7-0.61c3.33-0.17,6.75,0.22,9.98-0.4c18.02-3.48,33.19,4.03,47.93,12.55
			c4.06,2.35,7.07,6.55,10.45,10.02c5.15,5.29,10.19,10.67,15.28,16.02c0.68,0.72,1.32,1.47,1.97,2.21
			C1099.69,931.03,1090.94,929.09,1081.77,927.43z M1272.26,1517.36c2.62,7.34,5.69,14.56,7.78,22.04
			c6.63,23.74,10.89,47.87,10.14,72.66c-0.18,6.12-0.9,12.11-4.26,18.15c-5.13-8.32-7.6-16.76-9.53-25.78
			c-3.48-16.24-2.67-32.54-3.08-48.87c-0.25-9.95-1.35-19.88-2.04-29.82c-0.19-2.68-0.26-5.37-0.39-8.06
			C1271.33,1517.57,1271.79,1517.47,1272.26,1517.36z M1285.19,1271.93c0.4,3.13,1.31,6.29,1.1,9.37
			c-0.82,11.76-2.05,23.45-6.57,34.57c-2.11,5.2-3.17,10.81-4.88,16.19c-4.01,12.61-10.8,23.14-22.54,30.02
			c-3.23,1.89-6.2,4.24-9.29,6.38c-0.47-0.29-0.95-0.59-1.42-0.88c0.21-1.13,0.07-2.52,0.68-3.36c9.4-12.96,15.86-27.44,21.84-42.17
			c1.15-2.85,2.54-5.6,3.61-8.48c2.03-5.47,3.88-11.01,5.85-16.51c0.95-2.65,1.99-5.26,2.99-7.89c1.82-4.75,3.61-9.52,5.47-14.25
			C1282.47,1273.83,1283.15,1272.85,1285.19,1271.93z M1232.1,1369.73c0.56-9.19,1.15-18.39,1.78-27.57
			c0.49-7.25,4.6-13.07,8.26-18.82c10.56-16.58,21.61-32.84,32.5-49.21c0.67-1.01,1.63-1.84,2.45-2.76c0.63,0.3,1.27,0.61,1.9,0.91
			c-10.86,35.65-28.53,68.26-46.5,102.55C1232.27,1372.06,1232.03,1370.89,1232.1,1369.73z M1216.94,1136.96
			c12.01,3.6,15.74,5.5,17.9,6.93c2.7,1.79,12.6,8.57,16.77,21.72c0.6,1.88,4.64,14.63,0.89,16.87
			c-4.47,2.67-15.57-12.17-37.65-30.44c-11.84-9.8-22.37-16.88-29.6-21.43C1196.55,1130.2,1206.71,1133.89,1216.94,1136.96z
			 M1215.53,993c-0.43,15.46-3.34,30.53-6.8,45.54c-2.3,9.98-4.1,20.09-6.56,30.03c-3.43,13.83-8.21,27.02-20.31,36
			c-0.58,0.43-1.26,0.73-3.27,1.86c1.57-5.45,2.25-10.02,4.15-14c6.19-12.96,10.6-26.32,12.07-40.7c0.59-5.83,2.22-11.56,3.54-17.3
			c2.13-9.22,4.07-18.51,6.7-27.59c2.05-7.04,5.04-13.8,7.94-21.57C1216.14,988.13,1215.6,990.63,1215.53,993z M1140.01,911.52
			c4.47-7.47,9.36-14.69,14.39-21.79c4-5.65,9.43-9.12,17.8-9.35c-0.4,3.75-0.36,7-1.13,10.05c-3.39,13.29-12.53,22.62-22.25,31.47
			c-1.69,1.54-4.08,2.43-5.48,4.17c-3.31,4.1-7.65,4.57-13.2,4.6C1133.58,923.92,1136.43,917.5,1140.01,911.52z M1121.51,814.07
			c0.81-6.06,0.59-12.27,0.76-18.41c0.09-3.55,0.02-7.1,0.02-10.66c0.62-0.07,1.23-0.15,1.85-0.22c0.42,2.57,1.05,5.12,1.24,7.7
			c1.5,20.97,2.98,41.94,4.33,62.92c0.71,10.99,1.52,21.99,1.58,32.99c0.03,5.3-1.39,10.64-2.54,15.88
			c-0.45,2.07-1.93,3.91-3.59,7.12c-0.98-2.57-1.64-3.65-1.8-4.81c-1.11-8.1-2.4-16.19-3.05-24.33c-0.55-6.86-0.07-13.79-0.45-20.66
			C1118.95,845.69,1119.39,829.88,1121.51,814.07z M1102.77,877.36c-5.71-14.9-4.54-30.31-1.55-45.51
			c3.51-17.8,7.64-35.48,11.66-53.17c0.82-3.62,1.25-7.65,5.76-10.74c0.28,1.95,0.58,2.96,0.53,3.95
			c-0.78,15.86-1.58,31.71-2.43,47.57c-0.48,8.94-1.76,17.91-1.46,26.82c0.65,19.47,2.08,38.92,3.17,58.37
			c0.06,0.98,0.01,1.97-1.02,3.41c-1.38-2.56-2.88-5.07-4.12-7.7C1109.71,892.73,1105.78,885.22,1102.77,877.36z M1125.45,1005.88
			c-0.24,6.64-2.33,12.95-6.06,19.46c-6.85-3.17-9.41-8.34-9.84-14.43c-0.52-7.28-0.93-14.3,1.53-21.84
			c2.88-8.81,2.67-18.64,3.72-28.04c0.23-2.03-0.23-4.2,0.32-6.1c0.41-1.43,1.7-3.14,3.02-3.67c2.16-0.86,4.22,0.35,4.65,2.7
			c1.12,6.02,2.55,12.07,2.77,18.15C1125.96,983.35,1125.85,994.63,1125.45,1005.88z M1142.17,977.65
			c-5.97-12.88-8.34-20.06-13.06-34.4c-2.39-7.23-2.38-7.92-2.22-7.99c1.01-0.43,12.71,21.66,21.66,47.23
			c4.14,11.84,3.17,7.9,8.58,28.64c3.42,13.12,6.23,26.4,9.61,39.54c0.95,3.69,0.92,6.83-1.49,10.59
			C1154.31,1010.31,1147.02,988.1,1142.17,977.65z M1093.35,1244.34c-0.24,0.9-0.89,1.7-1.36,2.54c-2.98-9-2.01-17.77,0.64-25.96
			c3.3-10.18,3.92-20.55,4.91-30.98c0.95-10.04,3.44-19.64,8.26-28.58c6.47-12,16.7-19.83,28.7-25.48
			c5.3-2.49,10.98-4.19,16.55-6.07c1.25-0.42,2.75-0.06,4.47,0.52c-9.02,6.92-15.25,15.97-21.35,25.03
			c-4.41,6.54-8.04,13.62-11.76,20.59c-3.48,6.54-6.61,13.27-9.9,19.91C1104.79,1211.5,1097.89,1227.45,1093.35,1244.34z
			 M1166.09,1142.8c-2.43,11.2-7.77,21.14-14.25,30.35c-6.62,9.4-14.43,17.97-20.94,27.44c-6.06,8.83-10.91,18.49-16.63,27.57
			c-5.18,8.22-10.8,16.17-16.29,24.19c-0.47,0.69-1.43,1.06-3.41,2.46c5.61-15.47,10.45-29.6,15.87-43.5
			c3.23-8.28,6.87-16.48,11.21-24.23c5.94-10.61,10.49-22.22,19.21-31.05c7.26-7.34,15.02-14.19,22.54-21.23
			C1167.33,1137.28,1166.69,1140.05,1166.09,1142.8z M1170.58,1113.42c-0.24,0.64-0.85,1.15-1.65,2.21
			c-2.5-3.87-3.16-7.74-2.91-11.83c0.94-15.69,4.51-30.84,9.03-45.86c3.38-11.24,5.68-22.8,8.97-34.08
			c1.89-6.49,3.91-11.36,7.02-17.79c8.82-18.2,21.16-32.06,22.22-31.35c0.38,0.25-0.68,2.36-1.85,4.88
			c-4.68,10.09-8.45,17.96-11.82,34.71c-2.12,10.54-5.22,20.87-7.58,31.36c-1.34,5.97-1.51,12.24-3.22,18.08
			c-2.36,8.08-5.64,15.89-8.56,23.8C1177.03,1096.18,1173.83,1104.81,1170.58,1113.42z M1177.53,1136.82
			c-0.57-0.87-0.32-2.29-0.54-4.3c24.96,10.16,42.44,28.17,59.76,47.01c3.89,2.73,8.45,6.3,7.76,7.84
			c-0.96,2.14-11.91-0.05-20.64-3.65c-6.83-2.81-16.66-8.92-31.6-25.43C1186.49,1151.91,1182.3,1144.08,1177.53,1136.82z
			 M1183.96,1369.65c-5.37,0.39-10.73,0.85-16.11,1.03c-13.23,0.43-26.15-1.74-38.32-6.72c-6.62-2.71-12.18-7.48-15.12-14.6
			c-1.81-4.39-4.06-8.6-6.11-12.89c0.32-0.27,0.65-0.54,0.97-0.81c5.12,3.67,10.22,7.37,15.38,10.98c1.67,1.17,3.38,2.49,5.28,3.07
			c11.76,3.59,23.56,7.05,35.37,10.44c6.39,1.84,12.86,3.38,19.24,5.24c1.58,0.46,2.95,1.68,5.88,3.43
			C1187.2,1369.24,1185.59,1369.53,1183.96,1369.65z M1154.61,1352.84c-17.13-3.55-32.15-11.55-45.23-23.17
			c-0.53-0.47-0.85-1.18-1.36-1.9c14.06-5.32,27.77-3.1,41.28,1.16c8.78,2.77,17.37,6.13,25.98,9.43
			c13.37,5.12,20.62,15.86,26.6,28.77c-1.58,0-2.39,0.25-2.91-0.04C1185.13,1359.39,1169.94,1356.01,1154.61,1352.84z
			 M1161.25,1454.07c-1.65,2.83-3.23,5.7-4.84,8.55c-4.99-17.29,1.6-31.08,12.48-43.08c7.57-8.34,15.84-16.12,24.36-23.5
			c4.65-4.03,9.87-7.94,18.23-8.8c-2.06,3.36-3.21,5.79-4.84,7.83c-12.85,15.97-25.87,31.81-38.64,47.85
			C1165.32,1446.29,1163.44,1450.32,1161.25,1454.07z M1212.52,1408.84c-5.57,15.72-16.36,27.53-27.43,39.02
			c-6.46,6.7-14.62,11.75-22.62,17.05c4.6-8.69,8.07-17.88,14.65-25.33c3.04-3.44,5.85-7.09,8.67-10.72
			c9.07-11.69,18.08-23.42,27.15-35.1c0.43-0.55,1.19-0.84,3.06-2.11C1215.82,1398.43,1214.43,1403.44,1212.52,1408.84z
			 M1236.59,1458.6c-3.2-13.19-6.56-28.22-20.93-103.02c-1.89-9.84-2.84-14.76-3.71-19.37c-9.24-48.65-32.48-175.08-30.47-175.48
			c1.52-0.3,18.46,70.48,21.75,99.87c0.39,3.44,1.75,16.78,5.61,34.59c0.56,2.6,1.39,6.08,3.09,13.03
			c5.7,23.41,7.63,30.02,10.61,43.95c0.55,2.56,1.03,4.93,1.47,7.1c0,0,1.21,6.09,2.3,12.29c3.65,20.84,5.87,44.28,12.4,72.26
			c1.92,8.22,3.84,16.44,5.74,24.66c1.6,6.95,3.04,13.94,4.29,20.96c0.43,2.41,0.07,4.97,0.07,7.46c-0.68,0.07-1.36,0.13-2.04,0.2
			C1242.04,1480.56,1238.66,1467.15,1236.59,1458.6z M1242.45,1569.96c-3.25-11.86-2.41-23.93,3.22-35.21
			c5.32-10.66,7.76-22.18,10.49-33.63c0.61-2.55,1.66-4.99,2.51-7.49c0.64-0.03,1.27-0.07,1.91-0.1c1.08,2.38,2.74,4.67,3.15,7.16
			c1.79,10.84,4,21.69,4.58,32.62c0.86,16.32-0.11,32.74,0.8,49.06c0.58,10.38,3.13,20.66,4.9,30.96c0.42,2.43,1.25,4.78,1.89,7.17
			c-0.89,0.57-1.78,1.15-2.67,1.72c-1.62-2.26-3.01-4.73-4.9-6.73C1255.95,1602.43,1247.17,1587.2,1242.45,1569.96z
			 M1250.87,1634.97c-8.68-0.2-17.37-0.26-26.03-0.83c-2.29-0.15-4.9-1.51-6.6-3.12c-3.33-3.14-6.01-6.97-9.19-10.28
			c-1.98-2.06-2.83-4.08-1.97-6.9c0.91-2.99,3.29-3.74,5.85-4.25c5.07-1.01,9.73,0.46,14.02,2.92c9.09,5.21,18.07,10.59,27.08,15.94
			c2.38,1.42,4.69,2.96,7.03,4.44c-0.16,0.7-0.32,1.39-0.48,2.09C1257.35,1634.98,1254.11,1635.04,1250.87,1634.97z
			 M1263.55,1754.96c-1.55-3.22-2.75-6.6-4.16-9.88c-2.73-6.34-5.09-12.87-8.36-18.92c-5.35-9.9-8.28-20.21-8.38-31.52
			c-0.17-19.23,14.56-40.92,32.51-47.1c1.17-0.4,2.46-0.49,5.26-1.02c-1.62,5.35-3.26,9.37-4.03,13.55
			c-1.95,10.55-3.91,21.12-5.14,31.76c-1.52,13.19-6.23,25.95-5.28,39.47c0.43,6.12,0.63,12.26,0.95,18.38
			c0.13,2.49,0.3,4.99,0.55,9.09C1265.37,1756.77,1264.08,1756.05,1263.55,1754.96z M1293.68,1711.49
			c-5.84,16.1-10.68,32.56-15.97,48.86c-0.22,0.69-0.74,1.28-1.44,2.45c-4.88-0.96-5.12-4.46-5.32-7.73
			c-1.08-16.82-1.58-33.5,2.71-50.16c3.76-14.59,6.1-29.54,9.1-44.32c0.24-1.16,0.77-2.25,2.64-3.58c0.81,2.75,1.7,5.47,2.4,8.25
			c2.08,8.18,3.77,16.48,6.2,24.56C1296.22,1697.2,1296.4,1703.99,1293.68,1711.49z M1290.67,1926.38
			c-13.52-1.73-27.32-3.24-37.49-14.4c-4.46-4.89-9.94-8.83-14.72-13.45c-5.28-5.1-10.27-10.49-14.77-16.96
			c5.8,2.37,11.6,4.74,17.4,7.1c14.67,5.95,29.2,12.3,44.08,17.69c9.47,3.43,18.93,6.47,26.07,14c1.64,1.73,2.98,3.76,4.89,6.2
			C1306.81,1926.56,1298.62,1927.4,1290.67,1926.38z M1541.17,2125.69c4.73-5.33,8.8-11.25,14.27-18.31
			c-14.79,42.83-29.52,83.66-56.95,119.43c2.34-10.01,5.4-18.97,6.4-28.15C1508.01,2169.74,1522.45,2146.75,1541.17,2125.69z
			 M1543.67,2005.7c-4.94,0.59-9.52-0.65-13.47-3.7c-18.43-14.23-35.52-29.97-52.14-46.24c-0.49-0.48-0.64-1.31-1.35-2.83
			c1.93,0.32,3.34,0.24,4.45,0.78c8.73,4.2,15.14,11.31,21.65,18.11c7.71,8.06,16.98,13.86,26.07,20.03
			c5.42,3.68,10.41,7.99,15.59,12.02C1544.21,2004.47,1543.94,2005.09,1543.67,2005.7z M1489.17,2011.84
			c1.95,20.25-0.09,40.37-1.91,60.5c-0.41,4.57-0.63,9.15-1.15,13.71c-1.88,16.31-2.06,28.14-2.32,32.04
			c-1.47,22.44-3.91,42.63-6.97,68.03c0,0-3.61,21.19-8.4,44.52c-1.02,4.94-3.08,9.67-4.93,14.42
			c9.14-87.97,17.13-175.99,21.76-264.55c3.66,0.49,4.9,2.32,4.82,5.28c-0.18,6.64-0.34,13.28-0.55,19.92
			C1489.46,2007.75,1488.97,2009.82,1489.17,2011.84z M1504.97,1952.17c13.42,5.12,24.33,13.79,33.83,24.45
			c6.56,7.37,12.1,15.22,14.09,25.11c0.15,0.73,0.15,1.5,0.14,2.25c0,0.2-0.3,0.4-1.02,1.29c-1.67-1.31-3.42-2.57-5.05-3.97
			c-5.18-4.45-10.09-9.24-15.52-13.35c-5.91-4.46-12.62-7.87-18.36-12.51c-5.5-4.45-10.15-9.94-15.26-14.88
			c-3.26-3.15-6.67-6.14-10.71-9.84C1493.99,1948.42,1499.59,1950.12,1504.97,1952.17z M1628.62,1804.52
			c-5.82,18.58-12.67,36.79-22.26,53.81c-8,14.2-19.19,25.15-34.38,31.58c-6.26,2.65-12.64,4.98-18.27,7.18
			c1.99-3.91,4.12-8.52,6.65-12.9c1.89-3.28,3.99-6.55,6.55-9.31c7.55-8.16,13.84-14.13,15.12-15.18
			c6.45-5.27,19.57-21.39,48.93-69.5C1630.22,1794.98,1630.05,1799.95,1628.62,1804.52z M1568.22,1825.89
			c14.27-19.85,33.81-30.44,56.1-37.31c-2.22,16.92-39.7,68.73-57.74,79.31c1.7-8.15,3.28-15.55,4.76-22.97
			c0.65-3.25,1.22-6.52,1.62-9.81C1573.42,1831.34,1572.7,1827.94,1568.22,1825.89z M1562.62,1844.55
			c-2.18,8.44-4.12,16.95-6.58,25.32c-5.66,19.3-18.24,34.31-32,48.08c-5.74,5.74-14.06,8.9-21.21,13.24
			c-0.36-0.54-0.71-1.09-1.07-1.63c0.83-0.96,1.5-2.15,2.51-2.83c11.24-7.49,17.37-19.24,24.85-29.83
			c4.57-6.47,8.86-13.16,12.9-19.96c5.73-9.65,11.12-19.5,16.69-29.24C1559.43,1846.41,1560.37,1845.26,1562.62,1844.55z
			 M1539.68,1862.08c4.15-7.15,10.07-13.27,15.19-19.86c0.67,0.35,1.34,0.71,2.02,1.06c-0.39,1.12-0.59,2.34-1.19,3.33
			c-8.15,13.57-16.17,27.23-24.62,40.61c-5.72,9.06-11.95,17.81-18.19,26.53c-2.05,2.86-4.63,5.45-7.34,7.71
			c-7.07,5.89-14.3,11.59-21.59,17.2c-1.64,1.26-3.78,1.86-6.24,1.98c5.19-7.38,10.81-14.08,17.47-19.88
			c4.59-4,9.33-7.91,13.49-12.34C1521.56,1894.71,1530.31,1878.21,1539.68,1862.08z M1501.88,1878.39
			c0.44,10.85-4.76,19.15-11.24,26.97c-1.59,1.93-3.62,3.49-6.33,6.07c2.53-12.48,5.62-23.56,6.89-34.85
			c2.15-19.07,7.43-37.51,10.23-56.41c1.26-8.54,1.36-17.25,2.1-25.88c0.23-2.72,0.82-5.4,2.19-8.03c0,7.19,0.27,14.39-0.05,21.57
			c-0.82,18.16-1.89,36.31-2.88,54.46C1502.5,1867.66,1501.66,1873.04,1501.88,1878.39z M1559.21,1537.87
			c3.41-10.17,6.76-20.37,9.84-30.64c3.64-12.1,10.26-22.69,16.21-33.66c4.09-7.55,9.8-13.65,15.68-19.69
			c0.64-0.66,1.52-1.09,2.93-2.08c1.36,8.77-0.93,16.47-2.76,23.95c-4.37,17.87-9.17,35.66-14.56,53.25
			c-2.75,8.97-6.78,17.54-13.25,24.82c-7.84,8.84-15.53,17.74-26.12,23.44c-1.69,0.91-3.54,1.51-5.32,2.25
			C1550.57,1566.56,1554.46,1552.03,1559.21,1537.87z M1643.06,1147.97c-5.67,12.29-11.37,24.56-17.08,36.83
			c-4.85,10.42-9.42,20.98-14.68,31.19c-6.32,12.28-15.71,20.34-30.36,21.7c-6.45,0.6-12.69,3.57-19.45,5.6
			c9.48-9,18.61-17.6,27.65-26.31c2.38-2.3,4.78-4.7,6.59-7.44c6.35-9.58,12.32-19.42,18.69-28.99c3.39-5.1,7.32-9.84,10.97-14.76
			c4.1-5.53,8.11-11.14,12.3-16.61c1.64-2.14,3.67-3.98,5.53-5.95c0.39,0.25,0.78,0.5,1.17,0.75
			C1643.94,1145.31,1643.65,1146.7,1643.06,1147.97z M1617.31,1159.51c6.1-5.93,10.87-10.86,14.18-14.36
			c2.41-2.54,4.6-4.92,8.04-7.94c4.06-3.57,10.5-8.61,11.1-7.99c0.73,0.76-8.15,9.03-20.06,23.97
			c-7.55,9.47-14.27,19.14-22.63,32.01c-3.03,4.66-6.1,9.65-9.6,15.67c-4.14,7.12-9.41,13.34-17.75,16.82
			c2.26-5.12,4.49-10.26,6.81-15.36c0.85-1.86,2.31-3.52,2.82-5.44C1595.59,1176.76,1617.31,1159.51,1617.31,1159.51z
			 M1595.79,1141.78c0.12,10.09-1.72,19.88-4.7,29.42c-5.25,16.82-12.05,33.09-19.72,48.92c-4.08,8.42-10.45,15.11-21.32,16.9
			c3.72-7.21,7.2-13.71,10.43-20.33c3.02-6.18,5.74-12.51,8.64-18.75c4.63-9.96,9.33-19.88,13.97-29.84
			C1587.19,1159.28,1591.24,1150.47,1595.79,1141.78z M1577.32,1153.72c0.77-1.05,2.92-3.95,3.19-4.31c3.13-4.21,6.29-8.4,9.43-12.6
			c0.64,0.3,1.28,0.6,1.92,0.89c-0.71,2.79-1.02,5.75-2.18,8.33c-4.92,10.95-10.24,21.71-15.13,32.68
			c-3.74,8.4-6.89,17.05-10.59,25.47c-2.36,5.36-4.96,10.67-7.97,15.68c-4.59,7.62-9.63,14.97-15.49,23.97
			c-1.45-8.77-0.82-15.83,1.46-22.37c2.76-7.91,6.75-15.4,10.25-23.05c2.71-5.91,4.18-8.81,4.95-10.36
			C1559.97,1182.37,1567.91,1166.55,1577.32,1153.72z M1562.08,1090.34c0.31,2.14,0.9,4.29,0.9,6.43
			c-0.01,20.52-0.06,41.04-0.27,61.55c-0.03,2.47-0.6,5.15-1.7,7.35c-4.02,8.02-8.35,15.88-12.61,23.77
			c-0.58,1.07-1.45,1.98-2.19,2.96c-0.68-0.18-1.37-0.36-2.05-0.54c-0.11-24.54,3.98-48.69,8.34-72.75
			c1.78-9.81,5.26-19.3,7.96-28.94C1561.01,1090.23,1561.55,1090.28,1562.08,1090.34z M1534.54,1157.3c0,0,3.7-32.68,15.85-55.22
			c0.21-0.4,0.44-0.77,0.44-0.77c0.49-0.74,1.08-1.43,1.6-2.16c0.39,0.14,0.77,0.28,1.16,0.42c-0.4,2.4-0.75,4.81-1.2,7.2
			c-2.58,13.82-5.28,27.62-7.75,41.46c-1.17,6.54-2.26,13.13-2.83,19.75c-0.88,10.19-1.36,20.41-1.87,30.63
			c-0.39,7.78-0.29,7.78-4.37,14.47c-0.45-2.29-1.15-3.9-1.02-5.44c1.31-15.35,1.69-30.68-0.47-45.99
			C1533.94,1160.57,1534.32,1159.19,1534.54,1157.3z M1535.66,947.62c-5.82-6.05-8.91-14.76-13.04-22.38
			c-1.37-2.52-0.72-4.9,2.42-6.76c5.26,6.57,10.05,12.81,15.14,18.8c2.09,2.46,4.6,4.71,7.28,6.51
			c8.15,5.48,17.03,18.41,19.36,29.98C1555.65,964.58,1544.69,957.02,1535.66,947.62z M1580.77,981.38
			c-3.68-0.43-5.4-2.39-6.74-5.95c-2.32-6.16-5.09-12.25-8.46-17.89c-4.29-7.17-9.47-13.45-16.4-18.77
			c-7.76-5.96-14.4-13.7-18.12-24.31C1552.34,917.12,1587.35,949.92,1580.77,981.38z M1594.35,763.11
			c2.14,11.11-0.36,20.03-3.26,28.69c-8.12,24.29-16.43,48.52-25.11,72.62c-3.96,11.02-10.03,20.7-21.02,26.47
			c-3.34,1.76-6.05,4.7-9.09,7.04c-2.36,1.82-4.8,3.54-7.84,5.78c-1.75-4.68-0.5-7.9,1.17-10.95c4.42-8.09,8.62-16.33,13.54-24.11
			c15.24-24.13,27.03-49.81,36.45-76.73c3.02-8.63,7.75-16.67,11.78-24.93C1591.48,765.94,1592.53,765.15,1594.35,763.11z
			 M1525.82,855.17c1.55-12.45,7.12-23.45,13.63-33.94c2.82-4.55,6.16-8.79,9.45-13.03c9.09-11.7,18.24-23.36,27.45-34.96
			c1.22-1.54,2.91-2.72,5.33-4.95c-0.18,2.59,0.03,4.07-0.42,5.3c-6.75,18.49-13.04,37.18-20.64,55.32
			c-4.21,10.06-10.61,19.21-16.11,28.72c-6.54,11.28-13.18,22.51-19.78,33.76c-0.49,0.83-1.04,1.61-1.56,2.42
			c-0.45-0.18-0.9-0.37-1.35-0.55C1523.13,880.55,1524.24,867.83,1525.82,855.17z M1496.26,511.55c0.66,0.17,1.33,0.33,1.99,0.5
			c0.24,5.29,0.64,10.58,0.7,15.88c0.13,11.51-0.49,23.06,0.28,34.52c0.85,12.69-1.08,25.07-2.51,37.52
			c-0.37,3.27-1.15,6.66-2.53,9.63c-6.01,13-12.23,25.91-18.56,38.76c-1.05,2.13-3.04,3.8-5.99,5.09c0.08-1.17,0.06-2.36,0.18-3.52
			c0,0,0.07-0.58,0.18-1.16c1.49-8.35,7.33-34.57,7.33-34.57c1.55-6.97,2.88-15.41,4.4-32.39c0.75-8.38,1.21-16.82,2.52-25.12
			c1.84-11.62,4.27-23.16,6.64-34.69C1491.71,518.05,1493.05,514.2,1496.26,511.55z M1470.38,554.76
			c3.7-7.88,7.44-15.75,11.22-23.59c0.4-0.84,1.2-1.49,2.9-3.54c-0.63,5.55-0.74,9.55-1.58,13.4c-3.98,18.36-4.48,37.04-6.04,55.66
			c-0.82,9.83-3.97,19.47-6.16,29.18c-1.44,6.38-3.04,12.71-4.56,19.07c-0.6-0.03-1.19-0.06-1.79-0.09
			c-0.79-9.03-1.62-18.07-2.34-27.11c-0.35-4.34-0.26-8.72-0.74-13.04C1459.31,587.12,1462.95,570.6,1470.38,554.76z
			 M1431.23,612.83c-20.68-30.27-24.52-39.67-28.28-46.48c-3.99-7.24-6.51-15.65-7.99-23.84c-1.83-10.12-0.94-20.41,1.1-41.04
			c1.59-16.14,2.48-16.67,2.91-16.72c2.07-0.24,4.76,9.38,15.18,51.68c10.64,43.21,12.32,45.76,14.91,53.92
			c1.5,4.72,7.29,13.94,12.11,28.12c2.11,6.22,3.53,11.45,4.4,14.96C1441.9,628.27,1436.97,621.24,1431.23,612.83z M1375.1,604.38
			c7.47,2.49,14.79,5.44,22.24,7.98c13,4.42,21.51,14.39,29.95,24.3c2.29,2.69,3.29,4.8,6.62,8.74
			c5.58,6.59,10.98,11.27,14.77,14.24c-16.69-7.63-35.63-17.7-55.49-31.02c-15.57-10.44-28.99-21.07-40.38-31.08
			C1360.23,599.8,1367.72,601.92,1375.1,604.38z M1408.54,648.83c-0.68-0.36-0.05,0.09-5.4-2.99
			c-14.84-8.53-29.84-16.85-44.15-26.21c-2.99-1.96-5.68-4.28-8.01-6.98c-4.94-5.71-7.19-11.83-8.3-16.01
			c13.63,12.55,34.51,29.65,62.96,45.24c24.28,13.31,44,20,43.5,21.3C1448.63,664.46,1429.17,659.74,1408.54,648.83z M1440.04,602.4
			c-5.43-11.95-9.7-24.17-12.72-36.93c-1.7-7.2-4.39-14.17-6.56-21.26c-2.46-8.04-4.8-16.12-7.27-24.16
			c-3.08-10.02-3.48-10.03-4.67-14.56c-2.46-9.4-4.75-22.73-2.76-23.39c1.34-0.44,4.27,4.93,7.33,10.98
			c16.62,32.81,24.29,59.75,24.29,59.75c5.34,12.21,6.43,25.26,9.66,37.88c1.08,4.21,1.89,8.49,3.09,12.67
			c3.43,11.96,3.43,24.18,3.51,36.41c-0.52,0.08-1.04,0.16-1.56,0.23c-0.96-2.62-2.67-5.21-2.76-7.85
			C1449.26,621.27,1444.35,611.88,1440.04,602.4z M1475.26,778.59c-0.31,26.04,7.77,50.65,12.78,76.11
			C1474.28,846,1465.85,796.57,1475.26,778.59z M1476.86,911.51c-16.7-3.78-32.28-10.37-44.99-22.14
			c-7.67-7.1-14.89-14.78-21.5-22.86c-3.36-4.11-4.94-9.69-7.32-14.61c0.48-0.31,0.96-0.61,1.45-0.92c1.95,1.89,3.78,3.92,5.87,5.64
			c4.33,3.58,8.37,7.87,13.3,10.31c12.24,6.04,23.16,13.81,33.72,22.33c4.5,3.63,9.88,6.23,15.03,8.98
			c6.96,3.72,14.07,7.14,22.27,11.27C1488.11,913.35,1482.26,912.74,1476.86,911.51z M1475.51,895.23
			c-11.35-3.98-19.4-12.16-28.61-18.93c-3.88-2.85-7.82-5.77-12.09-7.95c-9.88-5.03-19.14-10.7-25.32-20.26
			c-1.32-2.04-2.36-4.26-3.87-7.03c5.26-1.08,8.44,1.41,11.6,3.19c13.84,7.79,27.64,15.51,42.47,21.48
			c8.44,3.4,15.91,9.23,23.76,14.06c2.6,1.6,4.93,3.62,7.53,5.21c8.81,5.36,12.14,10.63,14.5,24.34
			C1494.87,904.26,1485.54,898.74,1475.51,895.23z M1507.48,883.71c-7.01-11.4-14.91-22.04-16.78-35.77
			c-1.55-11.32-4.76-22.41-6.61-33.7c-1.73-10.57-2.71-21.26-3.86-31.92c-0.15-1.35,0.71-2.81,1.11-4.24
			c3.95,0.37,5.55,2.54,6.58,5.73c7.92,24.33,16.46,48.51,19.35,74.11C1508.22,866.38,1510,874.96,1507.48,883.71z M1516.82,855.88
			c-0.62-0.07-1.23-0.13-1.85-0.2c-2.76-12.19-5.44-24.39-8.32-36.55c-1.3-5.5-2.76-9.26-3.54-11.71
			c-11.61-36.67-17.41-55.01-21.7-75.55c-3-13.19-7.19-28.02-13.13-43.9c-5.22-13.96-10.9-26.38-16.5-37.22
			c9.14,12.12,14.62,22.89,17.89,30.35c9.34,21.26,7.06,29.83,18.09,65.46c1.25,4.05,3.88,13.03,10.27,30.58
			c4.63,12.72,10.4,25,12.5,38.6c1.48,9.56,4.41,18.89,6.2,28.42C1517.45,847.94,1516.83,851.97,1516.82,855.88z M1483.11,1148.87
			c0.8-16.89,0.55-33.83,0.99-50.74c0.17-6.3,1.05-12.57,1.6-18.86c0.9,0.03,1.8,0.06,2.71,0.1c6.74,24.57,8.79,50.15,15.45,74.79
			c6.57,24.32,11.48,49.09,16.04,74.09c-3.26-5.44-6.57-10.85-9.78-16.31c-6.47-11.01-12.82-22.1-19.37-33.06
			C1485.2,1169.6,1482.59,1159.85,1483.11,1148.87z M1408.73,1166.06c8.75-1.39,31.27-4.66,56.67,5.85
			c6.65,2.75,12.45,3.02,15.78,8.38c8.64,13.91,17.19,27.88,25.48,42.01c3.69,6.29,6.64,13.02,10.56,20.81
			c-7.1-1.21-11.27-4.53-14.91-8.25c-8.59-8.77-16.49-18.23-25.35-26.71c-5.65-5.4-12.05-10.41-18.92-14.06
			c-8.48-4.51-27.11-16.5-52.59-19.07c-12.02-1.21-20.48,0.06-20.69-1.42C1384.51,1171.79,1396.99,1167.92,1408.73,1166.06z
			 M1472.28,1227.07c-3.93-3.59-7.49-6.83-15.29-12.64c-19.24-14.32-39.03-21.11-47.56-23.97c-16.56-5.55-27.92-6.89-27.77-9.76
			c0.11-2.26,7.35-3.91,12.15-4.4c12.01-1.23,17.52,4.64,44.84,13.14c6.08,1.89,12.28,4,17.7,7.22c6.5,3.87,12.84,8.42,18.14,13.78
			c10.56,10.68,20.35,22.1,31.07,33.89c-2.7,0.97-5.48,2.5-8.39,2.83c-1.94,0.22-4.57-0.72-6.05-2.07
			C1484.67,1239.26,1478.69,1232.93,1472.28,1227.07z M1514.26,1275.76c-4.91,12.05-9.38,24.31-15.04,36
			c-2.58,5.34-7.15,9.94-11.52,14.14c-8.45,8.14-17.38,15.79-26.15,23.59c-9.21,8.19-19.95,14.04-30.23,20.61
			c-0.44-0.49-0.87-0.98-1.31-1.46c7.69-11.74,15.2-23.62,23.19-35.15c2.83-4.09,7.33-7,10.23-11.05
			c5.78-8.07,10.63-16.83,16.57-24.78c3.63-4.86,8.3-9.05,12.95-13.02c6.97-5.96,14.32-11.48,21.55-17.12
			c0.5-0.39,1.37-0.32,2.97-0.66C1516.27,1270.2,1515.37,1273.02,1514.26,1275.76z M1520.84,1255.67c-0.51,1.49-1.61,2.28-4.95,4.82
			c-5.5,4.18-11.27,8.01-16.91,12c-13.63,9.63-23.75,22.36-32.86,36.19c-13.24,20.11-27,39.88-40.6,59.77
			c-0.68,0.99-1.85,1.64-3.23,2.82c0.51-9.17,2.18-36.03,6.41-53.65c0.57-2.4,1.57-5.26,2.74-8.81c2.78-8.45,7.21-15.85,14.13-21.58
			c12.25-10.12,22.62-17.67,34.79-23.81c15.86-7.99,37.37-16.38,40.27-12C1521.24,1252.32,1521.34,1254.21,1520.84,1255.67z
			 M1527.77,1201.13c-0.17,5.63-0.14,11.27-0.37,16.9c-0.08,1.93-0.69,3.84-1.2,6.48c-5.51-10.88-32.64-125.42-31.43-138.09
			c4.06,1.26,5.08,4.87,6.49,7.9c7.36,15.8,12.91,32.28,18.88,48.64C1527.11,1162.02,1528.36,1181.33,1527.77,1201.13z
			 M1532.58,1067.24c-4.52-42.11-9.05-84.23-13.62-126.85c5.56,2.14,5.96,6.99,6.51,11.28c1.79,13.97,3.61,27.96,4.71,41.99
			c1.56,19.93,2.55,39.91,3.67,59.87c0.25,4.55,0.04,9.12,0.04,13.68C1533.45,1067.21,1533.01,1067.22,1532.58,1067.24z
			 M1532.65,1448.96c1.27-13.01,2.44-26.03,3.63-39.04c0.72-7.91,1.75-15.8,2.05-23.72c0.74-19.72,1.81-39.47,1.49-59.19
			c-0.27-17.15-2.27-34.27-3.45-51.4c-0.38-5.48-1.49-10.98-0.51-16.44c0.6-0.14,1.19-0.29,1.79-0.44c0.62,1.66,1.68,3.29,1.81,4.99
			c1.36,17.88,2.65,35.76,3.8,53.65c0.64,9.97,1.53,19.98,1.28,29.94c-0.39,15.86-1.77,31.69-2.49,47.54
			c-0.59,13.06-0.55,26.15-1.28,39.2c-0.56,9.87-1.91,19.69-3.01,30.59C1534.03,1459.34,1532.09,1454.62,1532.65,1448.96z
			 M1527.18,1528.03c-0.58-11.73-1.83-23.43-2.59-35.16c-0.46-7.1-0.62-14.23-0.68-21.35c-0.02-2.14,0.73-4.29,1.19-6.75
			c3.82,1.25,3.98,4.05,4.52,6.37c1.71,7.48,4.04,14.95,4.54,22.52c0.41,6.26,1.53,11.82,3.49,17.87
			c3.9,12.08,5.76,24.89,7.64,37.52c0.6,3.99-0.44,8.94-2.43,12.48c-5.38,9.53-11.68,18.55-17.62,27.76
			c-0.56-0.11-1.12-0.22-1.68-0.32c1.08-13.43,2.29-26.85,3.19-40.3C1527.21,1541.81,1527.52,1534.89,1527.18,1528.03z
			 M1450.37,1450.32c3.03,7.45,6.32,14.81,9.01,22.38c2.61,7.38,6.19,13.93,11.95,19.38c6.38,6.04,10.55,13.66,14.96,21.22
			c4.72,8.09,6.78,16.15,5.7,25.4c-0.82,6.99,1.11,13.47,4.37,19.89c3.75,7.37,6.26,15.37,9.32,23.1
			c-6.75-2.35-10.41-7.54-14.34-12.31c-9.7-11.75-15.41-25.68-21.88-39.32c-9.15-19.31-12.26-39.94-16.38-60.45
			c-1-4.98-2.46-9.87-3.65-14.82c-0.31-1.3-0.4-2.66-0.59-3.99C1449.34,1450.63,1449.86,1450.47,1450.37,1450.32z M1460.08,1564.11
			c-3.74-5.46-6.64-11.5-9.85-17.32c-0.74-1.34-0.96-3.01-1.84-4.22c-7.46-10.27-8.73-22.21-9.44-34.32
			c-0.94-16.16-0.92-32.28,1.07-48.39c0.61-4.95,0.09-10.03,0.09-15.06c0.64-0.08,1.28-0.16,1.91-0.23
			c4.45,5.94,4.62,13.42,6.44,20.2c2.25,8.39,3.5,17.08,4.74,25.71c2.09,14.58,5.98,28.55,12.75,41.69
			c2.46,4.77,4.65,9.71,6.63,14.7c3.93,9.96,10.45,18.15,17.18,26.26c3.21,3.87,6.27,7.86,10.52,13.21
			c-7.27-1.23-20.17-4.42-31.45-13.54C1466.91,1571.24,1463.25,1568.74,1460.08,1564.11z M1483.62,1636.15
			c-2.22,2.38-6.16,3.43-9.51,4.42c-5.35,1.58-10.95,2.32-16.29,3.95c-3.74,1.14-7.98,1.07-19.68,1.72
			c-17.56,0.97-15.14,0.28-20.51,0.95c-11.19,1.39-20.48,4.24-25.19,5.71c-3.44,1.07-6.29,2.09-8.35,2.85
			c-0.39-0.71-0.78-1.41-1.16-2.12c7.55-6.6,14.15-14.16,23.43-18.92c13.4-6.87,27.84-10.18,42.36-13
			c16.02-3.11,32.24-5.22,48.38-7.73c0.93-0.14,1.91,0.08,4.53,0.22C1495.17,1622.2,1489.78,1629.53,1483.62,1636.15z
			 M1502.6,1607.46c-10.56,3-20.85,7.06-32.08,7.25c-17.26,0.29-34.29,3.22-50.53,8.61c-12.78,4.24-24.92,10.75-33.93,21.56
			c-1.1,1.32-2.49,2.4-4.78,4.58c1.88-11.16,5.2-20.47,12.19-27.28c13.89-13.53,29.61-24.59,49.47-27.53
			c15.07-2.23,30.09-2.11,44.72,3.07c6.21,2.2,12.47,4.28,19.91,6.82C1505.1,1606.03,1503.94,1607.08,1502.6,1607.46z
			 M1501.74,1550.78c-2.54-10.41-1.07-18.98,1.33-32.98c0.77-4.47,1.31-9.13,4.36-17.83c2.7-7.7,6.18-15.13,9.41-22.64
			c0.36-0.84,1.25-1.46,3.26-3.71c0.09,28.23,4.28,54.57,2.15,81.14c-0.85,10.61-1.21,21.33-3.53,31.76
			c-0.66,0.05-1.32,0.1-1.98,0.15c-1.23-2.45-2.61-4.84-3.65-7.37C1506.61,1563.53,1502.97,1555.82,1501.74,1550.78z
			 M1510.82,1843.82c0.39-4.83,0.85-23.04,1.78-59.48c0.79-31.17,0.99-43.02,2.29-62.63c1.48-22.44,1.93-17.8,2.3-29
			c0.77-23.83,1.01-47.68,1.79-71.51c0.13-3.95-0.16-8.6,5.48-12.89c0.49,12.7,1.39,23.63,1.23,34.55
			c-0.3,21.51-1.45,43.01-1.75,64.52c-0.25,17.93,0.55,35.87,0.23,53.8c-0.21,11.5-1.61,22.99-2.46,34.48
			c-0.87,11.92-1.35,18.3-1.83,25.3c-0.87,12.58-2.98,32.98-8.43,67.25c-4.02,11.28-5.65,13.49-6.39,13.31
			C1502.76,1900.98,1508.08,1877.42,1510.82,1843.82z M1473.88,1915.06c5.11-19.22,4.92-39.04,6.78-58.64
			c1.72-18.09,3.58-36.17,5.76-54.21c1.6-13.23,7.34-24.94,14.66-35.91c0.56-0.85,1.27-1.61,1.97-2.35
			c0.52-0.54,1.14-0.98,2.98-2.53c-0.36,3.03-0.22,4.9-0.83,6.47c-5.09,13.13-3.94,27.28-6.76,40.8
			c-3.13,15.01-5.09,30.25-7.68,45.38c-2.16,12.6-4.28,25.21-6.81,37.74c-1.51,7.51-3.62,14.91-5.75,22.28
			c-0.73,2.51-2.34,4.77-4.89,6.66C1473.48,1918.85,1473.4,1916.88,1473.88,1915.06z M1469.92,1963.95
			c4.94,3.67,7.02,8.17,6.99,14.4c-0.13,24.87,0,49.71-3.14,74.47c-1.54,12.18-1.86,24.51-2.94,36.75
			c-1.67,18.88-3.61,37.74-5.28,56.62c-1.48,16.59-2.7,33.21-4.14,49.8c-0.99,11.46-2.15,22.9-3.23,34.36
			c-0.32,0.04-0.65,0.07-0.97,0.11c-2.12-5.74-4.19-11.5-6.36-17.22c-5.99-15.79-15.8-29.08-26.25-42.21
			c-14.82-18.63-28.47-38.19-42.76-57.25c-4.9-6.54-10.04-12.93-15.41-19.09c-2.31-2.65-3.81-5.16-3.95-8.77
			c-0.74-19.19-1.73-38.37-2.49-57.56c-0.33-8.33,5.34-12.98,13.55-11.46c1.26,0.23,2.5,0.56,3.73,0.91
			c10.07,2.9,20.11,5.91,30.2,8.71c7.37,2.04,14-3.23,13.79-10.81c-0.11-4.1-0.37-8.19-0.55-12.29c-0.18-4.05,1.51-6.85,5.38-8.37
			c6.72-2.64,11.29-7.66,15.33-13.49c4.08-5.88,8.3-11.74,13.17-16.94C1460.11,1958.71,1463.38,1959.09,1469.92,1963.95z
			 M1447.59,2256.07c-1.67-5.05-4.42-12.55-8.68-21.22c-12.4-25.27-22.02-28.73-39.66-56.02c-13.85-21.42-14.35-25.71-23.64-42.95
			c-4.48-8.31-8.52-16.85-12.67-25.33c-0.73-1.5-0.98-3.23-1.71-5.74c4.5,1.02,5.89,4.09,7.71,6.62
			c9.97,13.94,19.7,28.06,29.95,41.79c8.88,11.89,18.63,23.15,27.51,35.05c11.13,14.91,19.78,31.11,22.93,49.75
			C1450.31,2243.8,1450.53,2249.57,1447.59,2256.07z M1389.2,2010.35c8.07-3.18,15.53-6.13,24.31-9.59
			c-0.77,5.77-1.38,10.35-2.13,16.04C1403.23,2013.62,1395.54,2015.62,1389.2,2010.35z M1419.56,1896.16
			c-1.57-2.32-3.5-4.39-5.21-6.63c-6.07-7.96-8.92-16.97-9.86-26.94c-1.45-15.41,1.75-30.6,1.48-45.94
			c-0.12-7.03,0.62-14.08,2.11-21.49c0.76,1.35,1.87,2.62,2.24,4.07c3.32,13.14,7.15,26.2,9.56,39.52
			c2.73,15.1,9.98,28.39,15.18,42.49c4.24,11.52,9.22,22.76,13.81,34.15c0.51,1.26,0.67,2.65,1,3.98
			C1438.61,1912.64,1426.97,1907.11,1419.56,1896.16z M1440.75,1881.33c-1.56-4.06-3.22-8.09-5.09-12.02
			c-6.62-13.94-9.91-28.78-12.82-43.84c-1.98-10.24-5.35-20.22-7.35-31.03c2.74,3.64,6.02,6.99,8.15,10.96
			c11.96,22.36,23.65,44.81,31.12,69.25c5.84,19.09,7.21,26.58,4.48,50.69c-1.82-3.2-4.03-6.24-5.38-9.63
			C1449.34,1904.32,1445.15,1892.79,1440.75,1881.33z M1359.4,1929.52c9.15,1.65,16.3,7.23,23.01,13.03
			c2.61,2.26,3.37,6.67,5.32,10.86c-4.38,2.7-8.81,5.43-13.19,8.13c-7.57-5.35-14.64-10.36-21.72-15.35
			c-6.87-4.85-13.74-9.69-21.27-15c4.49-4.74,9.58-3.71,14.19-3.58C1350.31,1927.74,1354.87,1928.7,1359.4,1929.52z M1337.96,1816.8
			c0.75-2.6,2.07-5.04,3.13-7.55c0.68,0.08,1.37,0.15,2.05,0.23c0.45,2.17,1.18,4.32,1.32,6.51c1.5,23.24,2.98,46.47,4.32,69.72
			c0.54,9.41-4.08,17.27-8.35,25.14c-0.82,1.51-2.28,2.83-3.73,3.8c-1.1,0.74-2.98,1.41-3.94,0.95c-0.96-0.47-1.7-2.4-1.69-3.68
			c0.04-3.3,0.28-6.64,0.91-9.88c2.18-11.26,0.17-22.46-0.15-33.69C1331.34,1850.86,1333.12,1833.64,1337.96,1816.8z
			 M1320.14,1769.68c-5.29-21.11-11.2-42.07-16.83-63.11c-0.33-1.23-0.57-2.51-0.62-3.78c-0.34-8.93-2.11-17.63-4.15-26.3
			c-0.34-1.44-0.25-2.98-0.36-4.47c15.23,44.06,26.27,89.13,33.53,135.11c0.29,1.85-0.32,3.84-0.66,7.15
			c-2.91-3.2-3.05-5.9-3.57-8.52C1325.12,1793.72,1323.12,1781.58,1320.14,1769.68z M1329.39,1940.9c-0.42-0.81-0.34-1.88-0.49-2.83
			c0.47-0.41,0.95-0.81,1.42-1.22c13.52,7.98,25.56,18.03,38.8,28.2c-2.55,2.25-4.97,5.79-6.49,5.44c-4.06-0.94-8.8,1.44-12.29-2.4
			C1342.62,1959.6,1334.78,1951.19,1329.39,1940.9z M1338.63,2008.17c-1.68,0.8-3.6,1.12-6.2,1.89c0.91-7.61,4.5-12.53,9.46-16.09
			c11-7.91,22.34-15.34,33.53-22.96c8.2-5.58,16.07-11.74,24.66-16.64c15.25-8.7,31.16-15.58,49.47-10.91
			c0.41,0.1,0.71,0.63,2.04,1.89c-9.25,5.12-17.99,9.81-26.59,14.75c-13.96,8.02-27.74,16.37-41.76,24.29
			c-10.89,6.15-22.02,11.88-33.05,17.78C1346.36,2004.21,1342.54,2006.3,1338.63,2008.17z M1341.89,2012.29
			c3.29-2.63,5.83-5.19,8.84-6.92c3.3-1.9,7.14-2.83,10.57-4.53c10.53-5.21,21.41-9.75,30.55-17.5c3.25-2.75,7.71-4.04,11.14-6.63
			c15.26-11.54,33.57-17.27,49.99-26.6c0.77-0.44,1.81-0.41,2.72-0.6c0.34,0.38,0.69,0.75,1.03,1.13c-1.6,2.04-3.21,4.06-4.79,6.11
			c-4.67,6.07-9.87,11.82-13.86,18.31c-3.69,6.01-6.79,8.11-9.49,10.1c-3.78,2.79-5.54,2.97-19.1,8.89
			c-6.54,2.85-7.83,3.38-9.15,3.98c-0.98,0.45-1.69,0.79-1.8,0.85c-15.98,7.7-34.4,11.13-34.4,11.13
			C1358.44,2011.07,1350.89,2012.1,1341.89,2012.29z M1351.3,2171.86c-0.67-10.72-1.8-21.41-2.48-32.12
			c-0.32-5-0.05-10.04-0.05-16.7c2.19,11.45,4.11,21.13,5.85,30.84c0.35,1.97-0.02,4.07,0.04,6.1c0.41,13.79,1.15,27.58,1.17,41.37
			c0.01,12.04-0.77,24.08-1.26,36.12c-0.1,2.39-0.65,4.6-5.17,5.36c0-4.62-0.4-8.68,0.07-12.63
			C1351.77,2210.8,1352.51,2191.36,1351.3,2171.86z M1349.65,2051.12c-0.2-7.88-1.28-15.74-1.77-23.61c-0.1-1.55,0.7-3.16,1.09-4.74
			c0.59-0.06,1.19-0.11,1.78-0.17c0.81,3.27,2.18,6.51,2.34,9.81c0.82,17.1,1.38,34.22,1.91,51.33c0.11,3.51,0.49,7.45-5.04,8.79
			c0.17-1.77,0.25-3.35,0.5-4.89C1352.43,2075.42,1349.96,2063.29,1349.65,2051.12z M1290.16,2336.24
			c-2.84-12.48-1.01-21.33,0.59-26.29c1.22-3.78,5.5-12.01,16.18-27.03c2.07-2.91,4.19-5.79,6.33-8.66
			c2.07-2.77,4.83-5.03,7.78-8.05c-2.21,8.78-5.2,18.47-9.3,28.76C1305.13,2311.56,1297.37,2325.32,1290.16,2336.24z
			 M1308.14,2334.13c-1.98,4.02-3.57,9.32-9.69,10.25c-4.34-4.79-3.43-10.02-1.15-15.05c2.43-5.36,5.04-10.72,8.26-15.63
			c8.34-12.71,14.38-26.5,20.67-40.32C1328.83,2296.2,1317.61,2314.96,1308.14,2334.13z M1314.64,2250.16
			c-13.53-6.32-23.51-16.57-31.36-28.73c-5.05-7.83-5.93-17.52-6.27-26.67c-0.77-21.01-0.72-42.04-0.98-63.07
			c-0.01-0.43,0.37-0.87,1.03-2.28c4.03,7.04,8.88,12.96,10.62,20.49c3.53,15.23,6.78,30.52,10.14,45.79
			c2.41,10.94,7.34,20.6,14.1,29.52c5.67,7.49,10.75,15.44,16.29,23.47C1322.83,2252.61,1319.08,2252.24,1314.64,2250.16z
			 M1337.25,2250.53c-4.43-4.01-7.38-9.39-10.81-14.4c-2.15-3.14-4.21-6.39-6.71-9.24c-10.45-11.89-16.29-25.94-19.69-41.16
			c-1.17-5.23-0.31-2.37-4.01-19.57c-4.49-20.83-7.57-31.41-6.86-31.63c0.74-0.23,4.05,11.4,12.72,30.49
			c4.9,10.78,10.47,21.63,11.75,24.16c1.4,2.77,2.83,5.51,4.32,8.23c4.54,8.29,10.13,16.01,15.21,24.02
			c4.3,6.77,7.71,13.89,7.9,22.12C1341.13,2246.33,1341.37,2249.35,1337.25,2250.53z M1353.1,2499.26
			c-1.41-14.1-2.85-27.29-4.01-40.5c-2.06-23.48-4.15-46.97-5.81-70.48c-0.57-8.14,0.08-16.37,0.2-24.56
			c0.04-2.55,0.17-5.1,0.21-7.65c0.02-1.39,0.26-11.21,0.27-22.24c0.03-27.86-1.37-34.93,1.2-50.48c0.41-2.47,0.81-4.48,1.07-5.76
			c4.56,2.05,6.19,4.61,6.14,9.52c-0.2,18.18,0.32,36.36,0.4,54.55c0.03,6.65-0.81,13.32-0.57,19.96
			c0.47,12.78,1.53,25.54,2.16,38.32c0.33,6.65-0.04,13.35,0.46,19.99c1.48,19.66,3.16,39.3,4.9,58.94
			C1360.36,2486.23,1359.9,2493.14,1353.1,2499.26z M1349.78,2262.39c9.18,3.3,17.57,7.39,24.61,13.33
			c6.38,5.38,15.17,7.82,20.85,15.87C1375.09,2290.2,1351.4,2275,1349.78,2262.39z M1375.4,2252.57
			c8.33,3.57,15.62,8.69,20.64,16.56c3.16,4.96,6.65,9.72,9.69,14.76c1.92,3.18,3.27,6.69,5.05,10.43
			c-5.14,1.99-8.01-0.53-10.15-3.11c-11.73-14.2-27.97-21.93-43.47-30.7c-4.1-2.32-4.26-2.05-5.03-7.29
			C1360.18,2248.68,1367.93,2249.36,1375.4,2252.57z M1419.83,2221.09c-11.45-15.8-17.18-23.69-25.21-32.27
			c-11.28-12.06-14.91-15.85-24.44-26.51c-5.53-6.18-9.8-13.16-11.2-21.53c-1.8-10.76-3.05-21.57-1.85-34.32
			c6.04,12,11.07,22.55,16.6,32.82c22.61,41.99,26.12,48.54,28.96,52.33c11.49,15.33,15.85,15.97,26.01,32.13
			c9.32,14.84,15.26,29.59,14.2,30.18C1441.92,2254.48,1435.31,2242.44,1419.83,2221.09z M1459.36,2329.05
			c-1,16.86-1.37,33.78-2.98,50.59c-1.39,14.51-4.02,28.91-6.31,43.33c-2.12,13.41-4.66,26.75-6.72,40.17
			c-1.67,10.85-8.6,18.79-13.71,27.76c-0.72-0.16-1.45-0.32-2.17-0.48c0.46-6.82,0.53-13.69,1.45-20.44
			c2.71-19.79,5.69-39.54,8.72-59.29c3.37-22.02,7.15-43.98,10.26-66.04c1.42-10.09,1.66-20.35,2.5-31.47
			C1455.5,2317.75,1459.78,2321.9,1459.36,2329.05z M1474.69,2329.21c-7.31-10.96-18.21-19.44-22.64-32.4
			c-1.79-5.24-4.21-10.46-1.28-17.1c4.81,2.26,7.37,5.78,9.65,9.42c5.63,9,12.98,28.14,15.53,39.8
			C1475.51,2329.03,1474.78,2329.33,1474.69,2329.21z M1483.77,2311.11c-0.67,4.78-1.59,9.52-2.39,14.28
			c-0.43,0.08-0.86,0.16-1.29,0.24c-2.11-5.66-4.11-11.37-6.35-16.98c-4.65-11.61-8.77-23.54-18.76-32.05
			c-0.52-0.44-0.73-1.24-1.08-1.86c4.58-3.22,10.39-3.07,15.09,1.12C1479.47,2285.19,1485.83,2296.46,1483.77,2311.11z
			 M1471.51,2251.22c-0.67,0.67-1.49,1.18-2.23,1.76c-0.43-0.53-0.78-0.8-0.73-0.92c7.33-17.66,9.42-36.62,13.35-55.09
			c2.71-12.73,3.25-25.9,5.63-38.71c3.3-17.83,6.38-35.77,12.68-52.9c0.59-1.61,1.62-3.06,2.44-4.59c0.6,0.03,1.21,0.05,1.81,0.08
			c0.36,2.2,1.12,4.41,1,6.59c-0.51,9.45-0.39,19.05-2.12,28.3c-3.4,18.22-4.52,36.58-5.43,55.01
			C1496.75,2214.24,1488.22,2234.52,1471.51,2251.22z M1566.89,2128.13c-4.69,14.9-9.55,29.75-14.35,44.61
			c-3.4,10.54-8.17,20.34-14.25,29.69c-8.41,12.95-17.75,24.99-29.08,35.49c-4.48,4.15-12.29,7.94-20.33,9.11
			c1.51-2.41,2.43-4.35,3.76-5.92c17.66-20.85,31.91-43.82,42.69-68.92c8.89-20.72,17.72-41.46,26.46-62.24
			c1.34-3.19,2.78-5.99,7.18-7.48C1570.17,2111.62,1569.46,2119.98,1566.89,2128.13z"/>
	</g>
	<g>
		<path class="st1" d="M1999.33,614.44c-0.98-5.73-5.13-7.71-10.81-6.17c-8,2.17-14.29,6.9-19.03,13.54
			c-7.56,10.59-14.87,21.36-22.63,32.55c0.42-12.84,1.88-24.89,4.29-36.96c4.12-20.6,7.37-41.39,10.73-62.14
			c0.86-5.27,1.53-10.78,0.97-16.04c-0.83-7.76-7.59-9.96-13.39-4.8c-1.9,1.69-3.6,3.68-5.06,5.77
			c-8.53,12.15-17.12,24.27-25.39,36.6c-14.91,22.25-22.57,46.65-19.7,73.56c1.87,17.53,0.24,34.84-1.29,52.21
			c-0.35,3.94-0.83,7.88-1.37,12.97c-8.78-9.25-18.48-15.87-22.35-27.47c-1.77-5.32-4.18-10.42-6.29-15.63
			c-2.42-5.97-4.71-12-7.19-17.94c-1.32-3.16-1.44-4.49-2.71-6.25c-2.05-2.84-6.69-7.17-10.75-6.47c-7.81,1.35-10.65,20.88-12,30.19
			c-0.78,5.34-1.89,8.12-1.04,11.3c3.6,13.41,7.95,26.64,18.29,36.73c7.93,7.74,14.37,14.57,22.22,21.25
			c14.66,12.47,15.89,11.87,18.57,16.45c6.31,10.78,1.77,30.49-1.33,42.61c-6,23.47-9.08,35.46-13.32,47.94
			c-3.28,9.67-6.28,17.6-8.43,23.08c-3.64,2.65-8.48,6.43-13.84,11.35c-6,5.51-10.4,9.88-15.2,16.12
			c-7.34,9.53-10.62,21.06-13.41,32.51c-1.29,5.29-0.81,11.11-0.53,16.66c0.25,5,1.32,9.96,2.03,14.93
			c-1.73-1.34-2.29-2.95-2.87-4.55c-4.66-12.96-10.47-25.13-22.24-33.37c-13.93-9.76-28.58-18.05-44.81-23.48
			c-7.92-2.65-14.64-0.02-21.13,3.79c-1.78,1.04-3.17,3.37-3.91,5.4c-1.13,3.1-1.67,6.44-2.21,9.72c-1.26,7.71,1.49,13.58,8.39,17.4
			c6.62,3.66,11.68,8.97,16.69,14.59c13.65,15.31,28.31,29.49,47.02,38.78c3.22,1.6,5.98,2.39,9.45,1.08
			c3.58-1.34,7.34-2.05,12.04-0.35c-0.6,3.84-1.02,7.57-1.79,11.23c-0.68,3.25-1.94,6.39-2.59,9.65
			c-2.02,10.05-3.73,20.16-5.82,30.19c-4.59,22.06-9.29,44.1-14.06,66.13c-0.69,3.19-1.98,6.25-3.41,10.67
			c-3.08-17.13-5.99-32.48-8.54-47.89c-0.88-5.28-0.56-10.76-1.37-16.06c-0.64-4.17-1.09-8.73-5.71-11.87
			c-2.81,3.44-6.13,6.4-8.08,10.08c-14.23,26.86-18.75,56.22-21.42,85.99c-0.6,6.69-0.13,13.29,3.24,19.47
			c1.53,2.82,2.26,6.08,3.76,10.29c-5.81,0.71-10.54,1.6-15.3,1.81c-7.68,0.34-14.66,2.5-20.87,6.97c-9.57,6.9-18.84,14-24.98,24.57
			c-6.92,11.93-9.76,23.98-5.03,37.46c1.4,4,3.69,5.77,7.41,6.77c4.46,1.19,8.22-0.17,11.38-3.05c3.41-3.1,6.44-6.61,9.65-9.92
			c6.73-6.94,11.9-15.35,20.32-20.75c4.71-3.02,8.78-7.06,13.16-10.6c2.04-1.64,4.16-3.19,6.24-4.79c0.32,0.4,0.64,0.8,0.96,1.2
			c-1.09,1.36-2.25,2.66-3.25,4.08c-5.87,8.38-12.38,16.41-17.36,25.29c-6.84,12.2-4.9,24.25,3.9,35.01
			c4.86,5.95,9.83,11.87,15.28,17.27c4.6,4.55,5.41,9.42,3.87,15.33c-2.59,9.93-5.21,19.87-7.37,29.89
			c-4,18.53-7.82,37.1-11.46,55.7c-2.41,12.32-4.96,24.65-6.43,37.1c-2.75,23.17-4.76,46.44-7.12,69.66
			c-0.16,1.62-0.67,3.2-1.02,4.8c-0.51,0.25-1.02,0.51-1.53,0.77c-0.46-0.92-0.93-1.83-1.38-2.75c-4.32-9.01-9.84-17.67-12.67-27.13
			c-7.22-24.18-8.06-26.81-16.92-42.88c-3.66-6.64-12.31-22.02-19.39-20.6c-2.65,0.53-4.87,3.37-6,4.81
			c-2.56,3.27-3.58,6.48-4.13,10.86c-0.73,5.84-2.48,11.56-3.06,17.41c-1.7,17.15,1.09,33.24,12.61,46.86
			c5.93,7.02,9.91,15.01,11.93,23.88c2.06,9.05,7.09,16.49,12.6,23.53c4.26,5.44,9.42,10.19,16.57,11.96
			c0.87,0.22,1.54,1.19,1.94,1.51c0.11,5.81,0.21,15.96-0.18,28.61c-1.64,53.02-3.97,52.47-5.47,74.4
			c-0.79,11.51-0.99,23.06-1.8,34.57c-0.16,2.32-1.27,5.14-2.91,6.68c-5.07,4.73-8.27,10.3-9.94,16.97
			c-0.74,2.96-2.22,5.73-3.16,8.66c-6.65,20.74-13.75,41.35-19.63,62.31c-2.85,10.16-2.42,20.98,2.03,30.98
			c2.07,4.65,4.77,9.06,7.62,13.29c4.4,6.54,9.17,12.83,14.16,19.76c-2.06,1.79-3.98,3.38-5.81,5.08
			c-12.02,11.13-25.67,20.48-36.31,33.14c-6.24,7.42-14.88,12.74-19.05,21.98c-2.21,4.91-4.52,9.78-6.89,14.61
			c-5.07,10.35-4.08,20.93-1.25,31.56c0.32,1.19,1.11,2.3,1.85,3.33c3.89,5.36,7.63,5.66,11.85,0.69c1.98-2.32,3.52-5.05,5.06-7.71
			c6.07-10.48,13.31-20.06,22.04-28.46c11.31-10.89,21.55-22.63,29.48-36.27c0.75-1.29,1.67-2.47,2.79-4.09
			c-7.79,82.35-15.15,163.85-16.47,247.48c-3.68-5.58-5.91-9.88-8.98-13.45c-8.01-9.3-16.33-18.34-24.66-27.37
			c-5.01-5.43-6.81-10.77-10.97-10.72c-3.05,0.03-5.95,2.65-7.3,5.26c-1.72,3.32,0.01,6.52-0.35,9.98
			c-2.46,23.47-0.97,22.41,12.88,38.74c9.59,11.3,20.02,22.19,35.51,25.74c1.4,0.32,2.62,1.4,4.11,2.23
			c-0.16,1.48-0.08,2.79-0.46,3.96c-2.35,7.32-4.95,14.57-7.18,21.93c-1.23,4.06-4.18,12.87-8.77,31.02
			c-6.6,26.1-5.47,35.61-11.23,68.67c-3.1,17.8-5.81,30.88-8.68,41.34c-6.9,25.23-14.68,50.22-22.1,75.31
			c-12.01,40.62-24.73,80.99-44.2,118.83c-1.53,2.96-3.2,5.86-4.68,8.84c-1.58,3.19-3.05,6.45-1.98,10.27
			c3.74,1.91,6.51-0.29,9.45-1.66c10.96-5.1,17.48-14.9,24.73-23.78c3.5-4.3,6.5-9.34,8.43-14.53c8.91-24.01,17.38-48.18,25.98-72.3
			c1.46-4.11,2.84-8.25,4.15-12.41c6-19.08,12.12-38.13,17.87-57.29c3.61-12.03,6.62-24.25,9.96-36.36
			c1.61-5.81,3.38-11.58,5.08-17.37c2.16,2.72,3,5.55,3.82,8.39c0.78,2.71,1.34,5.5,2.36,8.11c1.18,3.02,3.35,5.25,6.83,5.44
			c3.82,0.2,7.19-0.99,9.18-4.45c1.27-2.21,2.13-4.66,3.12-7.03c1.96-4.65,2.79-6.44,4.49-10.6c4.52-11.1,5.11-26.5,9.58-46.33
			c2.48-10.98,3.56-8.17,4.1-15.53c1.44-19.45,2.51-38.96-3.5-57.99c-1.6-5.08-3.11-10.2-4.89-16.05c1.92-1,3.89-1.99,5.82-3.06
			c4.03-2.24,8.38-4.07,11.98-6.87c15.87-12.32,28.15-27.84,36.39-45.98c7.41-16.3,13.79-33.18,19.19-50.26
			c4.97-15.7,11.12-30.83,17.51-45.94c4.99-11.8,9.44-23.83,13.85-35.85c0.93-2.53,1.16-5.58,0.79-8.26
			c-0.6-4.44-3.65-6.65-7.74-4.91c-10.82,4.6-22.23,8.58-31.8,15.15c-14.19,9.73-26.55,21.84-34.08,37.96
			c-1.29,2.76-3.25,5.22-5.04,7.72c-11.06,15.42-22.17,30.8-33.21,46.23c-0.99,1.39-1.62,3.04-2.52,4.76
			c-1.71-2.06-2.23-2.4-2.29-2.81c-0.21-1.52-0.36-3.06-0.39-4.59c-0.49-29.53,0.59-59,4.22-88.33c1.57-12.71,3.77-25.36,4.93-38.11
			c1.54-16.82,2.38-33.7,3.44-50.56c0.29-4.61,0.13-9.24,0.42-13.85c0.11-1.81,0.89-3.57,1.62-6.33
			c7.57,4.97,14.31,9.09,20.71,13.69c4.25,3.05,8.55,5.51,13.77,6.43c10.59,1.86,21.12,4.06,31.72,5.88
			c4.39,0.76,7.38,3.18,10.07,6.46c3.24,3.96,6.58,7.84,10.05,11.58c3.26,3.51,6.97,3.63,9.56-0.43c2.42-3.78,4.57-8.25,5.11-12.62
			c2.1-17.03-4.71-30.86-16.43-42.84c-8.92-9.12-20.19-13.92-31.75-18.22c-7.75-2.88-15.77-4.29-24.14-3.02
			c-1.99,0.3-4.12-0.39-6.19-0.62c-0.38-0.78-0.76-1.56-1.15-2.34c1.35-0.72,2.72-1.4,4.05-2.15c10.41-5.87,19.09-13.87,27.07-22.6
			c8.83-9.65,17.49-19.47,23.08-31.54c8.18-17.67,16.42-35.31,24.65-52.95c5.1-10.93,10.29-21.81,15.3-32.77
			c1.93-4.22,3.32-8.6-0.65-13.15c-1.75,0.82-3.36,1.45-4.85,2.3c-7.79,4.41-15.59,8.82-23.32,13.34
			c-11.57,6.77-22.2,14.82-30.66,25.27c-17.99,22.22-29.46,47.97-39.41,74.49c-3.19,8.51-6.49,16.98-9.76,25.53
			c-1.16-10.63-2.68-20.72-3.25-30.86c-0.65-11.48-1.57-23.15-0.2-34.47c0.88-7.34,2.07-14.65,2.14-22.05
			c0.2-19.72-0.3-39.47,0.53-59.17c0.75-17.65,2.76-35.25,4.5-52.84c0.79-7.99,2.3-15.91,3.37-23.14
			c4.77,7.7,10.13,15.45,14.51,23.71c3.67,6.92,10.05,12.37,10.95,20.88c0.34,3.22,3.64,4.49,6.43,2.75
			c2.04-1.28,4.18-3.32,4.97-5.5c3.47-9.59,6.74-19.28,9.58-29.08c8.31-28.66-0.45-47.41-25.11-64.61
			c-3.83-2.67-8.78-3.73-13.31-5.57c0.58-0.3,1-0.65,1.46-0.73c1.26-0.24,2.54-0.57,3.8-0.51c13.89,0.62,24.23-6.3,34.07-15.11
			c7.22-6.46,12.36-14.34,17.54-22.26c7-10.69,13.94-21.44,20.4-32.46c3.21-5.48,5.11-11.71,7.94-17.44
			c8.97-18.17,18.21-36.19,27.08-54.41c0.69-1.42,2.48-4.8,1.11-7.26c-1.95-3.51-9.07-2.99-11.74-2.79
			c-8.78,0.64-27.63,8.27-54.08,26.96c-12.91,9.12-23.53,19.66-27.77,35.55c-1.72,6.42-4.36,12.61-6.81,18.81
			c-1.88,4.77-3.78,9.61-8.27,14.41c-0.26-3.29-0.7-5.28-0.53-7.22c1.94-21.64,2.42-37.8,4.56-48.2c6.71-32.67,9.9-58.95,16.12-85
			c1.07-4.47,3.31-13.47,8.54-24.13c1.4-2.84,2.65-5.07,3.38-6.35c8.03,4.96,13.59,11.11,17.14,19.01c1.94,4.3,4.01,8.3,9.87,10.1
			c2.05-3,4.66-5.87,6.18-9.23c4.1-9.07,8.1-18.22,11.42-27.6c1.94-5.47,3.24-11.39,3.48-17.16c0.37-8.94-0.27-17.94-0.73-26.89
			c-1-19.56-8.28-36.24-22.84-49.65c-3.54-3.26-6.44-7.22-10.26-11.58c3.21-1.44,5.97-2.57,8.64-3.89
			c7.8-3.86,15.73-7.38,21.66-14.27c9.71-11.29,15.55-24.68,21.14-38.16c2.06-4.98,2.34-10.82-2.08-15.14
			c-4.7-4.59-10.31-3.69-15.83-1.41c-1.42,0.59-2.89,1.13-4.19,1.94c-4.49,2.81-8.91,5.73-13.36,8.61
			c3.62-31.87,21.98-112.13,27.19-121.41c1.03,3.05,1.78,5.7,2.8,8.24c2.77,6.86,5.08,14,8.61,20.45
			c6.79,12.41,16.46,22.85,29.2,28.69c10.54,4.84,20.58,10.32,30.54,16.13c5.21,3.04,7.06,2.64,11.5-1.4
			c5.35-4.87,6.06-11.62,7.94-17.99c2.06-6.95,0.17-12.68-4.57-17.66c-3.88-4.08-7.95-7.99-12.06-11.84
			c-7.29-6.83-15.57-12.84-21.83-20.5c-9.88-12.07-22.78-20.44-34.46-31.24c3.17-2.34,6.54-4.57,9.61-7.15
			c3.69-3.08,8.02-5.9,10.5-9.83c6.27-9.94,12.17-20.18,17.23-30.78c4.41-9.22,7.66-19.01,11.07-28.67
			c5.72-16.19,11.48-32.38,16.51-48.79c1.64-5.36,2.78-11.79-0.24-14.3c-1.17-0.97-3.68-1.92-15.02,2.49
			c-5.33,2.07-12.68,5.35-21.06,10.54c8.93-35.43,11.88-51.7,12.99-58.75c2.82-17.94,4.23-26.91,4.24-27.2
			c0.08-1.24,0.77-5.02,1.59-10.07c0.44-2.7,1.11-5.79,2.78-7.78c9.17-10.96,17.76-22.65,28.3-32.14
			c12.73-11.46,23.61-24.15,33.09-38.22c2.99-4.44,5.61-9.14,8.2-13.83c3.83-6.94,7.55-13.95,11.17-21.01
			c3.14-6.14,6.74-12.17,8.85-18.66C2000.44,623.88,2000.08,618.87,1999.33,614.44z M1810.55,981.84c-4.65-2.12-9.4-4.2-13.62-7.01
			c-5.3-3.53-10.35-7.52-15.1-11.77c-5.69-5.1-11.25-10.43-16.33-16.14c-6.66-7.49-13.21-14.92-22.06-20.04
			c-4.66-2.7-4.45-3.06-1.8-8.52c11.66,3.88,21.05,11.38,29.91,19.47c6.23,5.68,11.65,12.23,17.67,18.14
			c7.29,7.15,14.85,14.02,22.27,21.03c1.22,1.15,2.31,2.44,4.26,4.5C1813.26,981.71,1811.64,982.34,1810.55,981.84z M1821.67,979.13
			c-1.79-1.06-3.87-1.83-5.34-3.23c-11.86-11.32-24.1-22.3-35.23-34.3c-8.52-9.18-18.26-16.34-28.87-22.6
			c-2.34-1.38-4.7-2.7-7.87-4.53c4.62-2.86,8.6-4.11,12.56-2.6c17.8,6.81,34.76,15.16,48.91,28.34c6.67,6.22,9.18,14.7,12.54,22.68
			c1.97,4.69,3.16,9.71,4.7,14.58C1822.6,978.03,1822.14,978.58,1821.67,979.13z M1637.76,1937.91c-0.12-4.9,0.24-12.09,2.83-20.17
			c3.05-9.53,6.74-16.45,17.2-27.03c10.6-10.71,21.74-20.89,32.71-31.23c2.37-2.24,5.01-4.2,8.51-5.57
			c-0.75,1.74-1.19,3.71-2.3,5.19c-7.97,10.65-15.44,21.76-24.29,31.64c-10.93,12.22-18.61,23.69-28.49,38.03
			C1641.28,1932.62,1639.15,1935.81,1637.76,1937.91z M1691.43,1881.49c-11.5,19.1-19.7,21.67-34.59,43.11
			c-7.9,11.38-13.41,21.92-14.65,21.31c-0.8-0.4,0.83-5.17,1.33-6.66c4.71-13.84,12.65-22.35,27.96-41.22
			c5.63-6.93,5.29-6.47,11.51-14.33c5.84-7.38,11.71-14.75,18.09-21.77C1699.34,1866.38,1696.28,1873.43,1691.43,1881.49z
			 M1680.91,2133.99c-13.59-8.34-24.06-19.76-32.56-33.15c-3.11-4.9-0.02-9.35-0.23-14.01c0.51-0.11,1.02-0.22,1.52-0.34
			c5.44,5.66,11.17,11.08,16.25,17.05c6.76,7.96,13.98,15.68,17.87,25.67c0.62,1.59,1.15,3.21,2.06,5.76
			C1683.58,2134.55,1682.01,2134.66,1680.91,2133.99z M1774.68,1084.34c1.82-6.3,3-12.79,4.63-19.89c0.72,1.39,1.25,2.02,1.37,2.72
			c1.85,11.1,3.84,22.18,5.42,33.32c2.19,15.45,4.34,30.92,5.92,46.43c0.56,5.46-0.34,11.14-1.15,16.63
			c-0.29,2.01-2.23,3.79-3.42,5.67c-0.61-0.12-1.22-0.24-1.83-0.36c-0.67-2.41-1.45-4.79-1.98-7.23
			c-2.64-12.24-4.15-24.85-8.08-36.66C1770.96,1111.23,1770.73,1098.03,1774.68,1084.34z M1766.6,1099.51
			c0.22-1.19,0.78-2.32,1.29-3.79c0.55,0.73,1.06,1.12,1.01,1.37c-1.95,8.29-0.18,16.19,2.07,24.18
			c2.85,10.12,5.44,20.33,7.64,30.61c1.33,6.2,1.7,12.6,2.5,18.91c-0.64,0.22-1.27,0.45-1.91,0.67
			c-10.65-8.42-17.12-18.74-17.2-33.15C1761.91,1125.09,1764.21,1112.33,1766.6,1099.51z M1702.92,1228.69
			c-0.21,0.32-0.85,0.36-1.93,0.78c-1.98-9.04,1.35-16.87,5.94-23.69c3.79-5.63,9.15-10.38,14.41-14.79
			c6.52-5.47,13.79-9.57,22.94-9.32c4.27,0.12,8.56-1.31,12.87-1.83c1.66-0.2,3.39,0.16,5.08,0.26c0.01,0.44,0.02,0.87,0.03,1.31
			c-9.06,4.09-18.36,7.74-27.13,12.39c-12.47,6.61-22.32,16.13-28.62,29.01C1705.51,1224.87,1704.18,1226.77,1702.92,1228.69z
			 M1724.26,1220.8c-3.91,4.03-7.43,8.46-10.99,12.81c-2.32,2.84-2.21,2.93-6.6,3.88c-1.55-17.97,30.19-46,58.7-51.36
			C1750.14,1196.04,1736.76,1207.91,1724.26,1220.8z M1704.02,1507.55c-3.18-13.07-9.35-24.33-17.21-34.74
			c-4.79-6.34-7.72-13.16-9.45-20.71c-0.17-0.75-0.06-1.59-0.36-2.27c-5.02-11.54-0.94-22.6,1.72-33.73
			c0.1-0.42,0.62-0.74,1.24-1.43c6.47,3.44,9.97,9.43,12.97,15.5c6.57,13.3,12.4,26.9,16.44,41.27c1.56,5.56,4.7,10.68,7.02,16.04
			c3.55,8.19,7.28,16.31,10.41,24.66c1.83,4.89,0.67,9.18-2.88,15.9C1714.39,1523.95,1706.47,1517.61,1704.02,1507.55z
			 M1688.65,1789.63c-1.44-8.96-1.55-17.82,1.21-26.5c4.97-15.59,10.05-31.15,15.26-46.66c1.74-5.2,4-10.22,6.02-15.32
			c0.54,0.1,1.08,0.21,1.62,0.31c-0.17,2.91-0.1,5.87-0.56,8.73c-1.71,10.61-3.85,21.15-5.33,31.79
			c-1.47,10.62-3.16,21.32-3.26,31.99c-0.11,12.25,1.09,24.55,2.42,36.75c0.59,5.44,2.89,10.7,4.74,17.18
			c-1.72-1.02-2.67-1.29-3.18-1.92C1698.9,1815.12,1690.95,1803.89,1688.65,1789.63z M1679.08,2285.06
			c-4.76,18.61-9.05,37.34-13.86,55.93c-2.76,10.67-6.1,21.19-9.28,31.74c-5.99,19.87-11.61,39.86-18.24,59.52
			c-6.29,18.66-12.91,37.28-20.91,55.25c-3.85,8.66-11.16,15.8-17.01,23.55c-0.64,0.86-1.94,1.22-2.93,1.81
			c-0.45-0.31-0.9-0.62-1.35-0.93c1.98-4,3.86-8.05,5.97-11.98c6.81-12.7,11.33-26.26,15.61-39.96c2.51-8.04,5.88-15.8,8.59-23.78
			c7.33-21.59,15.56-42.94,21.53-64.91c9-33.09,19.35-65.88,25.14-99.8c1.06-6.2,1.81-12.45,2.8-19.35
			C1682.19,2263.07,1681.94,2273.84,1679.08,2285.06z M1703.07,2226.59c-0.99,45.22-5.1,74.89-7.17,74.83
			c-1.85-0.05,0.6-23.77-10.15-48.1c-1.1-2.48-2.35-5.01-3.61-9.16c-0.77-2.52-3.59-12.43-1.31-32.52
			c1.33-11.72,6.2-27.43,14.14-47.04c0.97-2.4,2.82-4.44,4.26-6.65c0.9,0.29,1.81,0.57,2.71,0.86
			C1702.83,2174.65,1703.69,2198.1,1703.07,2226.59z M1723.04,2199.38c0.38,5.36,0.15,10.77,0.42,16.14
			c0.52,10.38-1.51,20.27-4.28,30.25c-2.44,8.82-3.75,18.02-4.73,27.14c-0.56,5.18-1.17,10.04-3.83,14.64
			c-2.12,3.65-3.65,7.65-5.91,11.36c3.42-45.94,3.54-91.82,2.3-139.35C1719.07,2171.54,1722.03,2185.12,1723.04,2199.38z
			 M1818.5,1976.55c-3.59,8.68-6.81,17.53-10.86,25.99c-7.42,15.53-13.45,31.54-18.37,48.01c-5.2,17.45-11.4,34.51-19.77,50.74
			c-8.03,15.57-19.34,28.38-33.36,38.58c-6.76,4.92-14.47,9.21-23.62,5.84c-1.11-0.41-2.07-1.22-2.9-1.73
			c0.06-0.98-0.11-1.68,0.16-1.95c10.65-10.8,17.37-24.58,27.2-35.97c8.46-9.8,13.72-21.53,20.36-32.41
			c2.38-3.9,3.99-8.29,5.73-12.55c9.48-23.17,23.3-43.8,37.5-64.2c2.92-4.2,5.73-8.47,8.76-12.6c2.23-3.03,4.72-5.88,7.09-8.8
			C1817.11,1975.85,1817.81,1976.2,1818.5,1976.55z M1721.64,2069.93c15.98-22.55,30.78-45.94,46.81-68.45
			c10.09-14.18,24.46-23.31,41.34-30.47c-0.61,1.92-0.67,2.73-1.07,3.27c-14.6,19.25-25.72,40.62-37.42,61.61
			c-8.48,15.21-15.87,31.06-24.93,45.9c-7.45,12.2-16.41,23.52-25.12,34.9c-5.72,7.48-12.2,14.4-18.33,21.57
			c-0.79-0.19-1.58-0.37-2.37-0.56c-0.28-2.89-1.18-5.88-0.71-8.64c1.43-8.32,2.46-16.89,5.38-24.72
			C1709.64,2092.45,1714.1,2080.57,1721.64,2069.93z M1714.61,1922.48c-2.45,21.58-4.95,43.15-7.1,64.76
			c-1.65,16.57-3.22,33.17-3.98,49.79c-0.55,12.02-0.15,24.13,0.7,36.14c0.56,7.99-1.23,15.06-5.34,22.03
			c-0.15-1.88-0.5-3.76-0.4-5.63c0.58-11.26,1.28-22.51,1.91-33.77c0.62-11.26,1.08-22.53,1.83-33.79
			c1.22-18.15,2.7-36.29,3.91-54.44c0.99-14.84,1.35-29.73,2.68-44.53c1.94-21.42,4.51-42.78,6.81-64.17
			C1717.75,1880.21,1717.01,1901.37,1714.61,1922.48z M1714.61,1821.69c-1.13-2.5-2.44-4.44-2.89-6.57
			c-1.95-9.27-4.1-18.49-3.59-28.12c0.59-10.99,0.34-22.03,1.23-32.98c0.66-8.13,2.52-16.15,3.88-24.22
			c1.1-6.56,2.25-13.11,3.47-20.22c2.2,5.69,2.86,11.32,2.92,16.99c0.21,17.94-0.01,35.9,0.44,53.83
			c0.21,8.17,1.37,16.35,2.52,24.46C1723.62,1812.08,1720.72,1817.11,1714.61,1821.69z M1802.68,1882.5
			c-2.47-0.78-4.89-1.81-7.41-2.29c-9.31-1.74-18.61-3.67-28-4.76c-5.35-0.62-9.89-2.51-14.18-5.38
			c-7.03-4.7-14.02-9.45-20.93-14.33c-1.72-1.21-3.05-2.99-5.69-5.64c6.25,1.28,11.27,2.62,14.64,3.59
			c7.85,2.26,10.68,3.62,20.26,6.51c9.6,2.9,8.17,1.25,13.16,3.68c7.75,3.77,16.26,6.11,23.01,11.8c2.05,1.72,3.97,3.6,5.95,5.4
			C1803.23,1881.55,1802.95,1882.03,1802.68,1882.5z M1809.73,1735.99c-5.22,11.41-10.57,22.76-15.87,34.13
			c-3.93,8.43-8.86,16.26-15.7,22.57c-8.08,7.45-16.6,14.43-24.97,21.57c-0.91,0.78-2.06,1.28-3.63,2.22
			c-0.65-4.81,2.35-7.42,4.48-9.85c15.81-18.09,27.69-38.63,38.88-59.73c4.77-8.98,11.05-17.17,16.73-25.66
			c4.38-6.55,8.89-13.02,13.35-19.52c0.58,0.29,1.16,0.58,1.75,0.87C1819.75,1713.73,1814.81,1724.89,1809.73,1735.99z
			 M1754.87,1775.74c4.34-10.6,9.9-20.69,14.7-31.11c5.61-12.19,13.18-23.08,22.31-32.76c9.03-9.58,21.03-14.86,32.12-21.41
			c0.42,0.41,0.84,0.82,1.26,1.23c-2.9,4.36-5.53,8.94-8.75,13.05c-14.45,18.44-25.94,38.59-36.51,59.47
			c-5.49,10.84-13.7,20.35-21.06,30.18c-5.3,7.1-11.22,13.74-16.95,20.7c-0.68-0.84-1.02-1.1-0.98-1.23
			C1745.56,1801.12,1749.75,1788.24,1754.87,1775.74z M1775.44,1845.3c13.05,4.22,20.94,10.74,23.86,13.06
			c9.41,7.44,17.66,16.62,18.37,29.85c0.15,2.67-0.27,5.37-0.53,9.82c-2.59-2.66-4.11-3.89-5.2-5.43c-0.87-1.22-1.55-2.76-1.75-4.23
			c-1.79-13.5-25.98-25.39-25.98-25.39c-28.35-15.35-57.31-14.28-57.25-17.37C1727.03,1842.78,1751.25,1837.47,1775.44,1845.3z
			 M1726.08,1674.27c-1.86,18.16-2.11,29.31-2.66,29.29c-0.77-0.03-1.68-21.84,0-46.6c1.08-15.93,4.22-47.7,4.4-62.42
			c0.04-3,0.06-6.4,0.06-6.4c0.02-5.96-0.02-11.92-0.02-17.88c0.7-0.18,1.4-0.36,2.11-0.53c0.69,1.6,1.83,3.19,2.36,4.79
			c0,0,0.19,0.78,0.28,1.61C1734.44,1592.85,1726.08,1674.27,1726.08,1674.27z M1775.46,1570.98c8.11,13.84,5.73,36.2-5.73,51.03
			c-6.44-11.82-16.56-20.95-20.56-34.08c-2.29-7.53-5.22-14.88-8.23-22.16c-0.91-2.19-2.9-4.02-4.64-5.77
			c-4.29-4.31-5.1-7.51-3.16-13.71C1747.78,1542.31,1766.46,1555.62,1775.46,1570.98z M1845.85,1402.17
			c-6.63,13.29-13.36,26.52-19.96,39.82c-2.5,5.05-4.53,10.33-7.11,15.33c-3.51,6.81-7,13.67-11.13,20.11
			c-7.45,11.63-14.81,23.43-24.74,33.18c-9.08,8.91-20.21,12.6-34.74,11.31c4.57-4.99,7.89-9.16,11.75-12.76
			c13.27-12.38,23.56-26.92,32.3-42.73c10.45-18.91,22.31-36.82,37.8-52.1c3.47-3.42,6.61-7.16,10.02-10.64
			c1.72-1.76,3.69-3.26,6.66-5.84C1846.24,1400.31,1846.26,1401.35,1845.85,1402.17z M1753.18,1499.1
			c7.64-19.49,14.95-39.11,22.68-58.56c1.57-3.95,3.96-7.79,6.76-10.99c10.05-11.51,22.04-20.54,36.11-26.68
			c7.2-3.14,13.85-7.77,23.52-8.42c-10.38,11.87-20.35,22.21-29.06,33.54c-8.86,11.53-17.09,23.64-24.46,36.17
			c-11.38,19.37-24.81,36.89-41.7,51.71c-0.12,0.1-0.46-0.05-1.45-0.19C1748.18,1510.04,1750.98,1504.69,1753.18,1499.1z
			 M1777.87,1299.25c-0.76,2.7-1.51,5.47-2.76,7.97c-4.77,9.53-6.5,19.85-8.64,30.13c-3.32,16.01-7.15,31.91-10.82,47.84
			c-0.63,2.73-1.33,5.45-2.29,8.13c-2.67,22.1-8.14,62.18-9.08,90.3c-0.09,2.73-0.29,9.96-1.68,19.63
			c-2.16,15.05-5.87,26.91-8.54,34.32c3.66-21.93,4.86-32.68,5.15-38.31c0.03-0.56-0.65-3.49,0.41-7.16
			c1.39-4.8,1.21-9.49,1.09-14.36c-0.24-9.61,0.81-16.48,0.94-20.68c0.78-25.6,8.94-56.53,14.58-89.24
			c0.27-1.56,0.87-4.86,1.81-9.29c1.42-6.71,3.76-13.23,5.42-19.9c1.73-6.93,3.15-13.94,4.7-20.91c1.55-6.98,3.07-13.97,4.68-20.94
			c0.15-0.65,0.86-1.18,1.51-2.02C1777.54,1295.3,1778.55,1296.85,1777.87,1299.25z M1809.53,1323.19
			c-1.77,0.72-5.08-11.82-18.83-27.16c-6.26-6.98-17.16-17.29-23.27-24.04c-0.36-0.4-2.58-2.33-5-5.47
			c-1.41-1.82-2.94-3.62-4.72-5.05c-10.93-8.7-13.25-25.85-2.73-39.47c5.78-7.49,11.81-14.8,17.78-22.15
			c0.59-0.73,1.53-1.19,2.75-2.1c0.54,1.28,1.23,2.14,1.22,3c-0.06,8.44-0.23,16.89-0.39,25.33c-0.16,8.57,1.63,16.63,4.75,24.68
			c5.98,15.38,10.32,17.8,18.07,33.66C1808.33,1303.24,1811.67,1322.31,1809.53,1323.19z M1798.9,1209.54
			c11.93,11.37,21.09,24.84,23.42,41.23c1.79,12.56,1.29,25.55,0.73,38.31c-0.35,7.85-5.27,14.48-8.95,23.13
			c-2.99-9.23-4.81-16.93-7.96-24.05c-3.79-8.58-8.01-17.14-13.35-24.8c-3.36-4.82-5.98-9.9-6.62-15.19
			c-1.67-13.69-2.17-27.52-3-41.31c-0.15-2.47,0.33-4.98,0.53-7.47c0.64-0.33,1.28-0.66,1.91-1
			C1790.05,1202.1,1794.72,1205.56,1798.9,1209.54z M1819.12,1140.24c3.42-5.13,8.48-8.15,14.05-10.22
			c5.39-2.01,8.41,0.69,7.58,6.55c-0.28,2-0.83,4.09-1.8,5.84c-4.33,7.81-8.75,15.58-13.36,23.23c-2.71,4.5-6.72,7.67-11.61,9.66
			c-6.34,2.57-12.7,5.12-19.05,7.67c-0.57-0.55-1.15-1.1-1.72-1.65c1-2.2,1.74-4.57,3.05-6.57
			C1803.8,1163.19,1811.47,1151.72,1819.12,1140.24z M1807.01,1127.87c-0.42,5.69-0.42,11.28-0.42,11.28l0,0
			c0.82,5.59,1.18,5.53-4.1,10.78c-0.28-1.6-0.52-3.26-0.71-4.98c0,0-0.29-2.67-0.4-5.3c-0.35-8.89,4.72-23.69,4.72-23.69
			c2.83-8.27,3.6-17.11,5.5-25.64c2.71-12.21,7.77-35.57,18.12-84.66c2.97-7.54,3.87-9.12,4.11-9.04
			C1835.85,997.28,1807.65,1119.17,1807.01,1127.87z M1901.4,754.62c0.08,0.01,0.36,21.07-5.33,50.15
			c-6.22,31.84-16.39,56.96-16.87,56.81c-0.37-0.11,3.92-15.4,6.55-24.3c2.58-8.77,4.71-14.98,5.16-16.64
			C1899.51,788.89,1901.23,754.6,1901.4,754.62z M1848.03,994.43c12.67,8.77,18.39,22.67,27.75,33.47
			c9.33,10.78,17.84,22.26,26.71,33.44C1865.27,1052.16,1849.24,1019.97,1848.03,994.43z M1865.01,1000.81
			c8.02,6.74,16.11,13.28,23.1,21.3c7,8.05,15.7,14.62,23.62,21.88c2.45,2.24,5,4.43,7.12,6.97c6.6,7.92,6.71,12.75,0.46,22.8
			c-1.55-1.22-3.29-2.17-4.47-3.59c-2.39-2.88-4.18-6.29-6.75-8.99c-7.78-8.16-14.95-16.69-21.11-26.23
			c-4.68-7.26-11.03-13.42-16.38-20.27c-4.47-5.73-8.58-11.75-12.85-17.65c0.18-0.23,0.35-0.46,0.53-0.69
			C1860.53,997.81,1862.96,999.08,1865.01,1000.81z M1912.28,860.67c0.16-0.23,0.93-1.45,2.13-2.98c0.76-0.97,1.53-1.92,2.27-2.89
			c0.34,0.19,0.67,0.37,1.01,0.56c-2.05,6.26-3.84,12.63-6.2,18.77c-7.43,19.32-14.78,38.69-22.77,57.78
			c-3.04,7.27-7.6,13.93-11.69,20.73c-3.19,5.31-7.16,9.86-12.69,13.1c-7.43,4.36-14.56,9.25-21.82,13.92
			c-0.46-0.32-0.92-0.64-1.37-0.96c0.28-1.81,0.22-3.76,0.89-5.42c5.62-13.85,9.94-23.59,17.46-34.96
			c10.27-15.54,6.48-12.62,16.61-27.92C1889.28,890.52,1909.35,864.98,1912.28,860.67z M1913.39,851.82
			c3.57,3.48-37.99,43.6-51.95,75.86c-1.65,3.82-10.21,18.14-21.13,37.42c-0.47,0.83-1.14,1.55-2.81,3.76
			c-1.05-13.76-6.17-25.65-1.26-38.14c2.34-5.95,4.28-12.07,6.83-17.92c3.76-8.62,9.74-15.48,17.26-21.2
			c6.76-5.14,11.12-10.03,15.04-13.1C1899.5,859.53,1911.56,850.05,1913.39,851.82z M1890.13,744.33c-8.84-8.9-17.48-18-26.49-26.73
			c-9.06-8.77-15.07-19.4-19.87-30.84c-3.06-7.29-1.68-14.68,0.4-21.86c1.15-3.95,0.99-8.91,6.86-11.27
			c2.95,6.82,5.91,13.54,8.77,20.31c3.78,8.96,7.09,18.14,11.37,26.85c2.2,4.48,5.76,8.41,9.23,12.1c4.92,5.24,10.1,10.2,12.8,17.09
			c2.11,5.38,2.91,10.72,0.16,16.79C1892.04,745.78,1890.97,745.17,1890.13,744.33z M1984.9,618.86
			c-7.23,14.26-17,24.75-24.37,36.76c-7.46,12.15-14.37,24.64-22.2,38.14C1940.97,674.23,1967.99,630.58,1984.9,618.86z
			 M1907.01,690.75c3.11-16.06,0.91-32.17,0.79-48.26c-0.05-6.61-0.82-13.29-0.12-19.82c1.42-13.43,6.63-25.54,14.43-36.59
			c6.94-9.83,13.68-19.79,20.47-29.72c0.84-1.23,1.42-2.64,3.11-3.25c-15.35,49.65-31.09,98.72-37.88,150.12
			c-0.57-0.13-1.13-0.26-1.7-0.38C1906.38,698.8,1906.25,694.69,1907.01,690.75z M1928.03,702.24
			c-7.88,20.89-20.64,38.33-20.64,38.33c-1.61,2.2-3.01,3.99-4.01,5.25c-0.46-0.21-0.92-0.42-1.37-0.62
			c1.64-6.87,3.54-13.69,4.86-20.62c3.39-17.85,6.47-35.77,9.79-53.63c1.73-9.31,3.28-18.69,5.68-27.83
			c3.84-14.59,8.93-28.88,12.37-43.55c4.11-17.55,11.32-33.94,17.14-50.86c0.54-1.58,1.68-2.96,3.28-5.7
			c1.63,4.93,1.02,8.56,0.34,12.14c-0.18,0.94-5.73,30.05-16.72,88.29C1932.11,678.56,1934.71,684.53,1928.03,702.24z
			 M1987.99,637.17c-7.78,11.23-12.47,24.18-19.75,35.5c-7.95,12.36-15.99,25.02-27.93,34.38c-4.16,3.26-7.64,7.37-12.58,10.34
			c3.08-5,6.26-9.93,9.22-15c7.33-12.55,14.3-25.32,21.91-37.69c6.27-10.2,13.16-20.03,19.98-29.89c3.43-4.96,7.3-9.62,10.97-14.41
			c0.64,0.34,1.28,0.69,1.92,1.03C1992.94,627.19,1991.12,632.65,1987.99,637.17z"/>
	</g>
</g>
</svg>
